G04 #@! TF.GenerationSoftware,KiCad,Pcbnew,(6.0.9)*
G04 #@! TF.CreationDate,2022-11-19T16:43:32+01:00*
G04 #@! TF.ProjectId,Display Adapter,44697370-6c61-4792-9041-646170746572,V1.0*
G04 #@! TF.SameCoordinates,Original*
G04 #@! TF.FileFunction,Copper,L1,Top*
G04 #@! TF.FilePolarity,Positive*
%FSLAX46Y46*%
G04 Gerber Fmt 4.6, Leading zero omitted, Abs format (unit mm)*
G04 Created by KiCad (PCBNEW (6.0.9)) date 2022-11-19 16:43:32*
%MOMM*%
%LPD*%
G01*
G04 APERTURE LIST*
G04 Aperture macros list*
%AMRoundRect*
0 Rectangle with rounded corners*
0 $1 Rounding radius*
0 $2 $3 $4 $5 $6 $7 $8 $9 X,Y pos of 4 corners*
0 Add a 4 corners polygon primitive as box body*
4,1,4,$2,$3,$4,$5,$6,$7,$8,$9,$2,$3,0*
0 Add four circle primitives for the rounded corners*
1,1,$1+$1,$2,$3*
1,1,$1+$1,$4,$5*
1,1,$1+$1,$6,$7*
1,1,$1+$1,$8,$9*
0 Add four rect primitives between the rounded corners*
20,1,$1+$1,$2,$3,$4,$5,0*
20,1,$1+$1,$4,$5,$6,$7,0*
20,1,$1+$1,$6,$7,$8,$9,0*
20,1,$1+$1,$8,$9,$2,$3,0*%
G04 Aperture macros list end*
G04 #@! TA.AperFunction,ComponentPad*
%ADD10RoundRect,0.250000X-0.600000X0.600000X-0.600000X-0.600000X0.600000X-0.600000X0.600000X0.600000X0*%
G04 #@! TD*
G04 #@! TA.AperFunction,ComponentPad*
%ADD11C,1.700000*%
G04 #@! TD*
G04 #@! TA.AperFunction,ComponentPad*
%ADD12R,1.700000X1.700000*%
G04 #@! TD*
G04 #@! TA.AperFunction,ComponentPad*
%ADD13O,1.700000X1.700000*%
G04 #@! TD*
G04 #@! TA.AperFunction,ViaPad*
%ADD14C,0.800000*%
G04 #@! TD*
G04 #@! TA.AperFunction,Conductor*
%ADD15C,0.440000*%
G04 #@! TD*
G04 APERTURE END LIST*
D10*
X161290000Y-101600000D03*
D11*
X161290000Y-104140000D03*
X158750000Y-101600000D03*
X158750000Y-104140000D03*
X156210000Y-101600000D03*
X156210000Y-104140000D03*
X153670000Y-101600000D03*
X153670000Y-104140000D03*
X151130000Y-101600000D03*
X151130000Y-104140000D03*
X148590000Y-101600000D03*
X148590000Y-104140000D03*
X146050000Y-101600000D03*
X146050000Y-104140000D03*
D12*
X132080000Y-119380000D03*
D13*
X132080000Y-116840000D03*
X132080000Y-114300000D03*
X132080000Y-111760000D03*
X132080000Y-109220000D03*
X132080000Y-106680000D03*
X132080000Y-104140000D03*
X132080000Y-101600000D03*
X132080000Y-99060000D03*
X132080000Y-96520000D03*
X132080000Y-93980000D03*
X132080000Y-91440000D03*
X132080000Y-88900000D03*
X132080000Y-86360000D03*
D14*
X158750000Y-106680000D03*
X130810000Y-85090000D03*
X158750000Y-113030000D03*
X142240000Y-93980000D03*
X163830000Y-106680000D03*
X138430000Y-95250000D03*
X149860000Y-99060000D03*
X139700000Y-87630000D03*
X152400000Y-110490000D03*
X143510000Y-105410000D03*
X153670000Y-99060000D03*
X138430000Y-101600000D03*
X157480000Y-107950000D03*
X139700000Y-107950000D03*
X134620000Y-105410000D03*
X137160000Y-102870000D03*
D15*
X152400000Y-116840000D02*
X163830000Y-105410000D01*
X163830000Y-102870000D02*
X162560000Y-101600000D01*
X163830000Y-105410000D02*
X163830000Y-102870000D01*
X132080000Y-119380000D02*
X134620000Y-116840000D01*
X134620000Y-116840000D02*
X152400000Y-116840000D01*
X162560000Y-101600000D02*
X161290000Y-101600000D01*
X158115000Y-109220000D02*
X161290000Y-106045000D01*
X161290000Y-106045000D02*
X161290000Y-104140000D01*
X132080000Y-109220000D02*
X158115000Y-109220000D01*
X133350000Y-107950000D02*
X157480000Y-107950000D01*
X134620000Y-107950000D02*
X139700000Y-107950000D01*
X132080000Y-106680000D02*
X133350000Y-107950000D01*
X156337000Y-106553000D02*
X135763000Y-106553000D01*
X135763000Y-106553000D02*
X134620000Y-105410000D01*
X132080000Y-104140000D02*
X133350000Y-104140000D01*
X133350000Y-104140000D02*
X134620000Y-105410000D01*
X158750000Y-104140000D02*
X156337000Y-106553000D01*
X147320000Y-99441000D02*
X148590000Y-100711000D01*
X148590000Y-100711000D02*
X148590000Y-101600000D01*
X132715000Y-100965000D02*
X134366000Y-100965000D01*
X132080000Y-101600000D02*
X132715000Y-100965000D01*
X134366000Y-100965000D02*
X135890000Y-99441000D01*
X135890000Y-99441000D02*
X147320000Y-99441000D01*
X152400000Y-102870000D02*
X153670000Y-104140000D01*
X152400000Y-100066974D02*
X152400000Y-102870000D01*
X150123026Y-97790000D02*
X152400000Y-100066974D01*
X139700000Y-92710000D02*
X139700000Y-97790000D01*
X135890000Y-88900000D02*
X139700000Y-92710000D01*
X132080000Y-99060000D02*
X133350000Y-97790000D01*
X133350000Y-97790000D02*
X150123026Y-97790000D01*
X132080000Y-88900000D02*
X135890000Y-88900000D01*
X140970000Y-102870000D02*
X137160000Y-102870000D01*
X146050000Y-101600000D02*
X142240000Y-101600000D01*
X142240000Y-101600000D02*
X140970000Y-102870000D01*
G04 #@! TA.AperFunction,Conductor*
G36*
X133050995Y-84094502D02*
G01*
X133097488Y-84148158D01*
X133108731Y-84194507D01*
X133109316Y-84206793D01*
X133109742Y-84209759D01*
X133109743Y-84209765D01*
X133124454Y-84312082D01*
X133164425Y-84590084D01*
X133255719Y-84966400D01*
X133256700Y-84969236D01*
X133256702Y-84969241D01*
X133369949Y-85296446D01*
X133382370Y-85332335D01*
X133543232Y-85684574D01*
X133736848Y-86019926D01*
X133738576Y-86022352D01*
X133738582Y-86022362D01*
X133958336Y-86330964D01*
X133961464Y-86335356D01*
X134215047Y-86628007D01*
X134217219Y-86630078D01*
X134217220Y-86630079D01*
X134322297Y-86730269D01*
X134495300Y-86895227D01*
X134497652Y-86897076D01*
X134497657Y-86897081D01*
X134797327Y-87132744D01*
X134799685Y-87134598D01*
X135125446Y-87343952D01*
X135128102Y-87345321D01*
X135128105Y-87345323D01*
X135182439Y-87373334D01*
X135469631Y-87521392D01*
X135829125Y-87665311D01*
X136200671Y-87774407D01*
X136203617Y-87774975D01*
X136203622Y-87774976D01*
X136423836Y-87817419D01*
X136580905Y-87847691D01*
X136966384Y-87884500D01*
X137353616Y-87884500D01*
X137739095Y-87847691D01*
X137896164Y-87817419D01*
X138116378Y-87774976D01*
X138116383Y-87774975D01*
X138119329Y-87774407D01*
X138490875Y-87665311D01*
X138850369Y-87521392D01*
X139194555Y-87343952D01*
X139520315Y-87134598D01*
X139522673Y-87132744D01*
X139822343Y-86897081D01*
X139822348Y-86897076D01*
X139824700Y-86895227D01*
X139997704Y-86730269D01*
X140102780Y-86630079D01*
X140102781Y-86630078D01*
X140104953Y-86628007D01*
X140358536Y-86335356D01*
X140361664Y-86330964D01*
X140581418Y-86022362D01*
X140581424Y-86022352D01*
X140583152Y-86019926D01*
X140776768Y-85684574D01*
X140937630Y-85332335D01*
X140950051Y-85296446D01*
X141063298Y-84969241D01*
X141063300Y-84969236D01*
X141064281Y-84966400D01*
X141155575Y-84590084D01*
X141195546Y-84312082D01*
X141210257Y-84209765D01*
X141210258Y-84209759D01*
X141210684Y-84206793D01*
X141211269Y-84194507D01*
X141234487Y-84127416D01*
X141290293Y-84083527D01*
X141337126Y-84074500D01*
X166332524Y-84074500D01*
X166357103Y-84076921D01*
X166370000Y-84079486D01*
X166382171Y-84077065D01*
X166393812Y-84077065D01*
X166404793Y-84077544D01*
X166535364Y-84088968D01*
X166556985Y-84092780D01*
X166673057Y-84123881D01*
X166706673Y-84132889D01*
X166727312Y-84140401D01*
X166867760Y-84205893D01*
X166886781Y-84216875D01*
X167013725Y-84305762D01*
X167030549Y-84319880D01*
X167140120Y-84429451D01*
X167154238Y-84446275D01*
X167243125Y-84573219D01*
X167254107Y-84592240D01*
X167319599Y-84732688D01*
X167327111Y-84753327D01*
X167367219Y-84903011D01*
X167371032Y-84924636D01*
X167374935Y-84969241D01*
X167382456Y-85055206D01*
X167382935Y-85066188D01*
X167382935Y-85077829D01*
X167380514Y-85090000D01*
X167382935Y-85102170D01*
X167383079Y-85102894D01*
X167385500Y-85127476D01*
X167385500Y-106642524D01*
X167383079Y-106667103D01*
X167380514Y-106680000D01*
X167382935Y-106692171D01*
X167382935Y-106703812D01*
X167382456Y-106714793D01*
X167371189Y-106843579D01*
X167371033Y-106845360D01*
X167367220Y-106866985D01*
X167341214Y-106964040D01*
X167327111Y-107016673D01*
X167319599Y-107037312D01*
X167254107Y-107177760D01*
X167243125Y-107196781D01*
X167154238Y-107323725D01*
X167140120Y-107340549D01*
X167030549Y-107450120D01*
X167013725Y-107464238D01*
X166886781Y-107553125D01*
X166867760Y-107564107D01*
X166727312Y-107629599D01*
X166706673Y-107637111D01*
X166681389Y-107643886D01*
X166556985Y-107677220D01*
X166535364Y-107681032D01*
X166404794Y-107692456D01*
X166393812Y-107692935D01*
X166382171Y-107692935D01*
X166370000Y-107690514D01*
X166357103Y-107693079D01*
X166332524Y-107695500D01*
X162597476Y-107695500D01*
X162572897Y-107693079D01*
X162560000Y-107690514D01*
X162543621Y-107693772D01*
X162472908Y-107687442D01*
X162416841Y-107643886D01*
X162393223Y-107576933D01*
X162409552Y-107507840D01*
X162429948Y-107481097D01*
X164117962Y-105793083D01*
X164126659Y-105786133D01*
X164126267Y-105785673D01*
X164133103Y-105779855D01*
X164140695Y-105775065D01*
X164173760Y-105737626D01*
X164179106Y-105731939D01*
X164189613Y-105721432D01*
X164195279Y-105713872D01*
X164201655Y-105706041D01*
X164224726Y-105679918D01*
X164230668Y-105673190D01*
X164234483Y-105665063D01*
X164238047Y-105659638D01*
X164241999Y-105653061D01*
X164245103Y-105647391D01*
X164250486Y-105640209D01*
X164265880Y-105599146D01*
X164269799Y-105589845D01*
X164288432Y-105550157D01*
X164289813Y-105541287D01*
X164291706Y-105535095D01*
X164293658Y-105527656D01*
X164295046Y-105521342D01*
X164298196Y-105512940D01*
X164301445Y-105469217D01*
X164302599Y-105459168D01*
X164303751Y-105451772D01*
X164303751Y-105451770D01*
X164304500Y-105446961D01*
X164304500Y-105432794D01*
X164304846Y-105423456D01*
X164307604Y-105386343D01*
X164308269Y-105377395D01*
X164306396Y-105368619D01*
X164305785Y-105359662D01*
X164305895Y-105359655D01*
X164304500Y-105346439D01*
X164304500Y-102937254D01*
X164305736Y-102926195D01*
X164305133Y-102926146D01*
X164305853Y-102917202D01*
X164307834Y-102908445D01*
X164304742Y-102858605D01*
X164304500Y-102850803D01*
X164304500Y-102835931D01*
X164303161Y-102826582D01*
X164302132Y-102816533D01*
X164299974Y-102781748D01*
X164299974Y-102781747D01*
X164299418Y-102772788D01*
X164296371Y-102764348D01*
X164295053Y-102757984D01*
X164293195Y-102750536D01*
X164291383Y-102744339D01*
X164290111Y-102735454D01*
X164286398Y-102727288D01*
X164286397Y-102727284D01*
X164271960Y-102695533D01*
X164268146Y-102686163D01*
X164256315Y-102653390D01*
X164256314Y-102653388D01*
X164253266Y-102644945D01*
X164247970Y-102637696D01*
X164244927Y-102631973D01*
X164241058Y-102625352D01*
X164237570Y-102619899D01*
X164233854Y-102611725D01*
X164205240Y-102578517D01*
X164198951Y-102570596D01*
X164194531Y-102564545D01*
X164194521Y-102564533D01*
X164191657Y-102560613D01*
X164181641Y-102550597D01*
X164175283Y-102543750D01*
X164150990Y-102515556D01*
X164150988Y-102515554D01*
X164145132Y-102508758D01*
X164137603Y-102503878D01*
X164130834Y-102497973D01*
X164130906Y-102497890D01*
X164120576Y-102489532D01*
X162943083Y-101312038D01*
X162936134Y-101303340D01*
X162935673Y-101303732D01*
X162929854Y-101296895D01*
X162925065Y-101289305D01*
X162887626Y-101256240D01*
X162881939Y-101250894D01*
X162871432Y-101240387D01*
X162863872Y-101234721D01*
X162856041Y-101228345D01*
X162829918Y-101205274D01*
X162823190Y-101199332D01*
X162815063Y-101195517D01*
X162809638Y-101191953D01*
X162803061Y-101188001D01*
X162797391Y-101184897D01*
X162790209Y-101179514D01*
X162749146Y-101164120D01*
X162739845Y-101160201D01*
X162700157Y-101141568D01*
X162691287Y-101140187D01*
X162685095Y-101138294D01*
X162677656Y-101136342D01*
X162671342Y-101134954D01*
X162662940Y-101131804D01*
X162653994Y-101131139D01*
X162653993Y-101131139D01*
X162619218Y-101128555D01*
X162609173Y-101127402D01*
X162604889Y-101126735D01*
X162601772Y-101126249D01*
X162601770Y-101126249D01*
X162596961Y-101125500D01*
X162582794Y-101125500D01*
X162573456Y-101125154D01*
X162536345Y-101122396D01*
X162536344Y-101122396D01*
X162527395Y-101121731D01*
X162525576Y-101122119D01*
X162459749Y-101107571D01*
X162409713Y-101057203D01*
X162394500Y-100997184D01*
X162394500Y-100952244D01*
X162387798Y-100890552D01*
X162337071Y-100755236D01*
X162331691Y-100748057D01*
X162331689Y-100748054D01*
X162255785Y-100646776D01*
X162250404Y-100639596D01*
X162216565Y-100614235D01*
X162141946Y-100558311D01*
X162141943Y-100558309D01*
X162134764Y-100552929D01*
X162016523Y-100508603D01*
X162006843Y-100504974D01*
X162006841Y-100504974D01*
X161999448Y-100502202D01*
X161991598Y-100501349D01*
X161991597Y-100501349D01*
X161941153Y-100495869D01*
X161941152Y-100495869D01*
X161937756Y-100495500D01*
X160642244Y-100495500D01*
X160638848Y-100495869D01*
X160638847Y-100495869D01*
X160588403Y-100501349D01*
X160588402Y-100501349D01*
X160580552Y-100502202D01*
X160573159Y-100504974D01*
X160573157Y-100504974D01*
X160563477Y-100508603D01*
X160445236Y-100552929D01*
X160438057Y-100558309D01*
X160438054Y-100558311D01*
X160363435Y-100614235D01*
X160329596Y-100639596D01*
X160324215Y-100646776D01*
X160248311Y-100748054D01*
X160248309Y-100748057D01*
X160242929Y-100755236D01*
X160192202Y-100890552D01*
X160185500Y-100952244D01*
X160185500Y-102247756D01*
X160192202Y-102309448D01*
X160194974Y-102316841D01*
X160194974Y-102316843D01*
X160198053Y-102325055D01*
X160242929Y-102444764D01*
X160248309Y-102451943D01*
X160248311Y-102451946D01*
X160292160Y-102510453D01*
X160329596Y-102560404D01*
X160336776Y-102565785D01*
X160438054Y-102641689D01*
X160438057Y-102641691D01*
X160445236Y-102647071D01*
X160523040Y-102676238D01*
X160573157Y-102695026D01*
X160573159Y-102695026D01*
X160580552Y-102697798D01*
X160588402Y-102698651D01*
X160588403Y-102698651D01*
X160638847Y-102704131D01*
X160642244Y-102704500D01*
X161937756Y-102704500D01*
X161941153Y-102704131D01*
X161991597Y-102698651D01*
X161991598Y-102698651D01*
X161999448Y-102697798D01*
X162006841Y-102695026D01*
X162006843Y-102695026D01*
X162056960Y-102676238D01*
X162134764Y-102647071D01*
X162141943Y-102641691D01*
X162141946Y-102641689D01*
X162243224Y-102565785D01*
X162250404Y-102560404D01*
X162287840Y-102510453D01*
X162331689Y-102451946D01*
X162331691Y-102451943D01*
X162337071Y-102444764D01*
X162376526Y-102339516D01*
X162419167Y-102282751D01*
X162485728Y-102258050D01*
X162555077Y-102273257D01*
X162583603Y-102294648D01*
X163318595Y-103029639D01*
X163352620Y-103091952D01*
X163355500Y-103118735D01*
X163355500Y-105161265D01*
X163335498Y-105229386D01*
X163318595Y-105250360D01*
X152240360Y-116328595D01*
X152178048Y-116362621D01*
X152151265Y-116365500D01*
X134687254Y-116365500D01*
X134676195Y-116364264D01*
X134676146Y-116364867D01*
X134667202Y-116364147D01*
X134658445Y-116362166D01*
X134608605Y-116365258D01*
X134600803Y-116365500D01*
X134585931Y-116365500D01*
X134576582Y-116366839D01*
X134566533Y-116367868D01*
X134531748Y-116370026D01*
X134531747Y-116370026D01*
X134522788Y-116370582D01*
X134514348Y-116373629D01*
X134507984Y-116374947D01*
X134500536Y-116376805D01*
X134494339Y-116378617D01*
X134485454Y-116379889D01*
X134477288Y-116383602D01*
X134477284Y-116383603D01*
X134445533Y-116398040D01*
X134436163Y-116401854D01*
X134403390Y-116413685D01*
X134403388Y-116413686D01*
X134394945Y-116416734D01*
X134387696Y-116422030D01*
X134381973Y-116425073D01*
X134375352Y-116428942D01*
X134369899Y-116432430D01*
X134361725Y-116436146D01*
X134354921Y-116442008D01*
X134354922Y-116442008D01*
X134328517Y-116464760D01*
X134320596Y-116471049D01*
X134314545Y-116475469D01*
X134314533Y-116475479D01*
X134310613Y-116478343D01*
X134300597Y-116488359D01*
X134293750Y-116494717D01*
X134265556Y-116519010D01*
X134265554Y-116519012D01*
X134258758Y-116524868D01*
X134253878Y-116532397D01*
X134247973Y-116539166D01*
X134247890Y-116539094D01*
X134239532Y-116549424D01*
X133221352Y-117567603D01*
X133159040Y-117601629D01*
X133088224Y-117596564D01*
X133031389Y-117554017D01*
X133006578Y-117487497D01*
X133022323Y-117416942D01*
X133090053Y-117296002D01*
X133094730Y-117285497D01*
X133155443Y-117106644D01*
X133154210Y-117097993D01*
X133140642Y-117094000D01*
X132352115Y-117094000D01*
X132336876Y-117098475D01*
X132335671Y-117099865D01*
X132334000Y-117107548D01*
X132334000Y-117900681D01*
X132337966Y-117914187D01*
X132346672Y-117915433D01*
X132525497Y-117854730D01*
X132535994Y-117850056D01*
X132656942Y-117782323D01*
X132726151Y-117766490D01*
X132792933Y-117790587D01*
X132836086Y-117846964D01*
X132841908Y-117917722D01*
X132807605Y-117981350D01*
X132550358Y-118238597D01*
X132488048Y-118272621D01*
X132461265Y-118275500D01*
X131343656Y-118275501D01*
X131204934Y-118275501D01*
X131169182Y-118282612D01*
X131142874Y-118287844D01*
X131142872Y-118287845D01*
X131130699Y-118290266D01*
X131120379Y-118297161D01*
X131120378Y-118297162D01*
X131059985Y-118337516D01*
X131046516Y-118346516D01*
X130990266Y-118430699D01*
X130975500Y-118504933D01*
X130975501Y-120255066D01*
X130982612Y-120290818D01*
X130987601Y-120315900D01*
X130990266Y-120329301D01*
X130997161Y-120339621D01*
X130997162Y-120339622D01*
X131017164Y-120369556D01*
X131046516Y-120413484D01*
X131130699Y-120469734D01*
X131204933Y-120484500D01*
X132079858Y-120484500D01*
X132955066Y-120484499D01*
X132990818Y-120477388D01*
X133017126Y-120472156D01*
X133017128Y-120472155D01*
X133029301Y-120469734D01*
X133039621Y-120462839D01*
X133039622Y-120462838D01*
X133103168Y-120420377D01*
X133113484Y-120413484D01*
X133120378Y-120403167D01*
X133122918Y-120399366D01*
X133177397Y-120353840D01*
X133222967Y-120348118D01*
X133195050Y-120315900D01*
X133184912Y-120255067D01*
X133184500Y-120255067D01*
X133184500Y-120252592D01*
X133184499Y-118998735D01*
X133204501Y-118930614D01*
X133221404Y-118909640D01*
X134779639Y-117351405D01*
X134841951Y-117317379D01*
X134868734Y-117314500D01*
X152332746Y-117314500D01*
X152343805Y-117315736D01*
X152343854Y-117315133D01*
X152352798Y-117315853D01*
X152361555Y-117317834D01*
X152411395Y-117314742D01*
X152419197Y-117314500D01*
X152434069Y-117314500D01*
X152443418Y-117313161D01*
X152453467Y-117312132D01*
X152488252Y-117309974D01*
X152488253Y-117309974D01*
X152497212Y-117309418D01*
X152505652Y-117306371D01*
X152512016Y-117305053D01*
X152519457Y-117303197D01*
X152525659Y-117301383D01*
X152534546Y-117300111D01*
X152542717Y-117296396D01*
X152542720Y-117296395D01*
X152574471Y-117281959D01*
X152583835Y-117278147D01*
X152616615Y-117266313D01*
X152616617Y-117266312D01*
X152625054Y-117263266D01*
X152632298Y-117257975D01*
X152638003Y-117254941D01*
X152644678Y-117251040D01*
X152650107Y-117247568D01*
X152658275Y-117243854D01*
X152665071Y-117237998D01*
X152665076Y-117237995D01*
X152691491Y-117215235D01*
X152699406Y-117208950D01*
X152705451Y-117204534D01*
X152705455Y-117204531D01*
X152709387Y-117201658D01*
X152719410Y-117191635D01*
X152726257Y-117185277D01*
X152754440Y-117160993D01*
X152761242Y-117155132D01*
X152766126Y-117147597D01*
X152772025Y-117140835D01*
X152772109Y-117140908D01*
X152780466Y-117130579D01*
X162091097Y-107819948D01*
X162153409Y-107785922D01*
X162224224Y-107790987D01*
X162281060Y-107833534D01*
X162305871Y-107900054D01*
X162303772Y-107933620D01*
X162300514Y-107950000D01*
X162302935Y-107962170D01*
X162303079Y-107962894D01*
X162305500Y-107987476D01*
X162305500Y-120612524D01*
X162303079Y-120637103D01*
X162300514Y-120650000D01*
X162302935Y-120662171D01*
X162302935Y-120673812D01*
X162302456Y-120684793D01*
X162294687Y-120773600D01*
X162291033Y-120815360D01*
X162287219Y-120836989D01*
X162247111Y-120986673D01*
X162239599Y-121007312D01*
X162174107Y-121147760D01*
X162163125Y-121166781D01*
X162074238Y-121293725D01*
X162060120Y-121310549D01*
X161950549Y-121420120D01*
X161933725Y-121434238D01*
X161806781Y-121523125D01*
X161787760Y-121534107D01*
X161647312Y-121599599D01*
X161626672Y-121607111D01*
X161476985Y-121647220D01*
X161455364Y-121651032D01*
X161324794Y-121662456D01*
X161313812Y-121662935D01*
X161302171Y-121662935D01*
X161290000Y-121660514D01*
X161277103Y-121663079D01*
X161252524Y-121665500D01*
X141337126Y-121665500D01*
X141269005Y-121645498D01*
X141222512Y-121591842D01*
X141211269Y-121545492D01*
X141210827Y-121536206D01*
X141210827Y-121536203D01*
X141210684Y-121533207D01*
X141209235Y-121523125D01*
X141156004Y-121152902D01*
X141155575Y-121149916D01*
X141064281Y-120773600D01*
X140964223Y-120484499D01*
X140938609Y-120410493D01*
X140938607Y-120410489D01*
X140937630Y-120407665D01*
X140776768Y-120055426D01*
X140583152Y-119720074D01*
X140581424Y-119717648D01*
X140581418Y-119717638D01*
X140360274Y-119407084D01*
X140360269Y-119407077D01*
X140358536Y-119404644D01*
X140104953Y-119111993D01*
X139824700Y-118844773D01*
X139822348Y-118842924D01*
X139822343Y-118842919D01*
X139522673Y-118607256D01*
X139522668Y-118607253D01*
X139520315Y-118605402D01*
X139194555Y-118396048D01*
X138850369Y-118218608D01*
X138490875Y-118074689D01*
X138119329Y-117965593D01*
X138116383Y-117965025D01*
X138116378Y-117965024D01*
X137852609Y-117914187D01*
X137739095Y-117892309D01*
X137353616Y-117855500D01*
X136966384Y-117855500D01*
X136580905Y-117892309D01*
X136467391Y-117914187D01*
X136203622Y-117965024D01*
X136203617Y-117965025D01*
X136200671Y-117965593D01*
X135829125Y-118074689D01*
X135469631Y-118218608D01*
X135356931Y-118276709D01*
X135128123Y-118394668D01*
X135125446Y-118396048D01*
X134799685Y-118605402D01*
X134797332Y-118607253D01*
X134797327Y-118607256D01*
X134497657Y-118842919D01*
X134497652Y-118842924D01*
X134495300Y-118844773D01*
X134215047Y-119111993D01*
X133961464Y-119404644D01*
X133959731Y-119407077D01*
X133959726Y-119407084D01*
X133738582Y-119717638D01*
X133738576Y-119717648D01*
X133736848Y-119720074D01*
X133543232Y-120055426D01*
X133453190Y-120252592D01*
X133424278Y-120315900D01*
X133377785Y-120369556D01*
X133318821Y-120386869D01*
X133349193Y-120436040D01*
X133346751Y-120510579D01*
X133255719Y-120773600D01*
X133164425Y-121149916D01*
X133163996Y-121152902D01*
X133110766Y-121523125D01*
X133109316Y-121533207D01*
X133109173Y-121536203D01*
X133109173Y-121536206D01*
X133108731Y-121545492D01*
X133085513Y-121612584D01*
X133029707Y-121656473D01*
X132982874Y-121665500D01*
X130847476Y-121665500D01*
X130822897Y-121663079D01*
X130810000Y-121660514D01*
X130797829Y-121662935D01*
X130786188Y-121662935D01*
X130775206Y-121662456D01*
X130644636Y-121651032D01*
X130623015Y-121647220D01*
X130473328Y-121607111D01*
X130452688Y-121599599D01*
X130312240Y-121534107D01*
X130293219Y-121523125D01*
X130166275Y-121434238D01*
X130149451Y-121420120D01*
X130039880Y-121310549D01*
X130025762Y-121293725D01*
X129936875Y-121166781D01*
X129925893Y-121147760D01*
X129860401Y-121007312D01*
X129852889Y-120986673D01*
X129812781Y-120836989D01*
X129808967Y-120815360D01*
X129805314Y-120773600D01*
X129797544Y-120684793D01*
X129797065Y-120673812D01*
X129797065Y-120662171D01*
X129799486Y-120650000D01*
X129796921Y-120637103D01*
X129794500Y-120612524D01*
X129794500Y-117106962D01*
X131008671Y-117106962D01*
X131033443Y-117204502D01*
X131037284Y-117215348D01*
X131117394Y-117389120D01*
X131123145Y-117399081D01*
X131233579Y-117555343D01*
X131241057Y-117564098D01*
X131378114Y-117697612D01*
X131387058Y-117704855D01*
X131546156Y-117811161D01*
X131556266Y-117816651D01*
X131732077Y-117892185D01*
X131743020Y-117895740D01*
X131808332Y-117910519D01*
X131822405Y-117909630D01*
X131826000Y-117900232D01*
X131826000Y-117112115D01*
X131821525Y-117096876D01*
X131820135Y-117095671D01*
X131812452Y-117094000D01*
X131023494Y-117094000D01*
X131009963Y-117097973D01*
X131008671Y-117106962D01*
X129794500Y-117106962D01*
X129794500Y-116582799D01*
X131007943Y-116582799D01*
X131014675Y-116586000D01*
X131807885Y-116586000D01*
X131823124Y-116581525D01*
X131824329Y-116580135D01*
X131826000Y-116572452D01*
X131826000Y-116567885D01*
X132334000Y-116567885D01*
X132338475Y-116583124D01*
X132339865Y-116584329D01*
X132347548Y-116586000D01*
X133137398Y-116586000D01*
X133150929Y-116582027D01*
X133152098Y-116573892D01*
X133116658Y-116448231D01*
X133112533Y-116437484D01*
X133027903Y-116265871D01*
X133021893Y-116256063D01*
X132907400Y-116102739D01*
X132899710Y-116094199D01*
X132759192Y-115964304D01*
X132750067Y-115957303D01*
X132588236Y-115855195D01*
X132577989Y-115849974D01*
X132400260Y-115779068D01*
X132389232Y-115775801D01*
X132351769Y-115768350D01*
X132338894Y-115769502D01*
X132334000Y-115784658D01*
X132334000Y-116567885D01*
X131826000Y-116567885D01*
X131826000Y-115781500D01*
X131822194Y-115768538D01*
X131807279Y-115766602D01*
X131798732Y-115768071D01*
X131787620Y-115771048D01*
X131608095Y-115837279D01*
X131597717Y-115842229D01*
X131433273Y-115940063D01*
X131423961Y-115946829D01*
X131280097Y-116072994D01*
X131272180Y-116081337D01*
X131153718Y-116231605D01*
X131147450Y-116241256D01*
X131058358Y-116410592D01*
X131053953Y-116421227D01*
X131008162Y-116568698D01*
X131007943Y-116582799D01*
X129794500Y-116582799D01*
X129794500Y-114270964D01*
X130971148Y-114270964D01*
X130984424Y-114473522D01*
X130985845Y-114479118D01*
X130985846Y-114479123D01*
X131006119Y-114558945D01*
X131034392Y-114670269D01*
X131036809Y-114675512D01*
X131074010Y-114756208D01*
X131119377Y-114854616D01*
X131236533Y-115020389D01*
X131381938Y-115162035D01*
X131550720Y-115274812D01*
X131556023Y-115277090D01*
X131556026Y-115277092D01*
X131644707Y-115315192D01*
X131737228Y-115354942D01*
X131810244Y-115371464D01*
X131929579Y-115398467D01*
X131929584Y-115398468D01*
X131935216Y-115399742D01*
X131940987Y-115399969D01*
X131940989Y-115399969D01*
X132000756Y-115402317D01*
X132138053Y-115407712D01*
X132238499Y-115393148D01*
X132333231Y-115379413D01*
X132333236Y-115379412D01*
X132338945Y-115378584D01*
X132344409Y-115376729D01*
X132344414Y-115376728D01*
X132525693Y-115315192D01*
X132525698Y-115315190D01*
X132531165Y-115313334D01*
X132708276Y-115214147D01*
X132770934Y-115162035D01*
X132859913Y-115088031D01*
X132864345Y-115084345D01*
X132994147Y-114928276D01*
X133093334Y-114751165D01*
X133095190Y-114745698D01*
X133095192Y-114745693D01*
X133156728Y-114564414D01*
X133156729Y-114564409D01*
X133158584Y-114558945D01*
X133159412Y-114553236D01*
X133159413Y-114553231D01*
X133187179Y-114361727D01*
X133187712Y-114358053D01*
X133189232Y-114300000D01*
X133170658Y-114097859D01*
X133169090Y-114092299D01*
X133117125Y-113908046D01*
X133117124Y-113908044D01*
X133115557Y-113902487D01*
X133104978Y-113881033D01*
X133028331Y-113725609D01*
X133025776Y-113720428D01*
X132904320Y-113557779D01*
X132755258Y-113419987D01*
X132750375Y-113416906D01*
X132750371Y-113416903D01*
X132588464Y-113314748D01*
X132583581Y-113311667D01*
X132395039Y-113236446D01*
X132389379Y-113235320D01*
X132389375Y-113235319D01*
X132201613Y-113197971D01*
X132201610Y-113197971D01*
X132195946Y-113196844D01*
X132190171Y-113196768D01*
X132190167Y-113196768D01*
X132088793Y-113195441D01*
X131992971Y-113194187D01*
X131987274Y-113195166D01*
X131987273Y-113195166D01*
X131798607Y-113227585D01*
X131792910Y-113228564D01*
X131602463Y-113298824D01*
X131428010Y-113402612D01*
X131423670Y-113406418D01*
X131423666Y-113406421D01*
X131403723Y-113423911D01*
X131275392Y-113536455D01*
X131149720Y-113695869D01*
X131147031Y-113700980D01*
X131147029Y-113700983D01*
X131134073Y-113725609D01*
X131055203Y-113875515D01*
X130995007Y-114069378D01*
X130971148Y-114270964D01*
X129794500Y-114270964D01*
X129794500Y-111730964D01*
X130971148Y-111730964D01*
X130984424Y-111933522D01*
X130985845Y-111939118D01*
X130985846Y-111939123D01*
X131006119Y-112018945D01*
X131034392Y-112130269D01*
X131036809Y-112135512D01*
X131074010Y-112216208D01*
X131119377Y-112314616D01*
X131236533Y-112480389D01*
X131381938Y-112622035D01*
X131550720Y-112734812D01*
X131556023Y-112737090D01*
X131556026Y-112737092D01*
X131644707Y-112775192D01*
X131737228Y-112814942D01*
X131810244Y-112831464D01*
X131929579Y-112858467D01*
X131929584Y-112858468D01*
X131935216Y-112859742D01*
X131940987Y-112859969D01*
X131940989Y-112859969D01*
X132000756Y-112862317D01*
X132138053Y-112867712D01*
X132238499Y-112853148D01*
X132333231Y-112839413D01*
X132333236Y-112839412D01*
X132338945Y-112838584D01*
X132344409Y-112836729D01*
X132344414Y-112836728D01*
X132525693Y-112775192D01*
X132525698Y-112775190D01*
X132531165Y-112773334D01*
X132708276Y-112674147D01*
X132770934Y-112622035D01*
X132859913Y-112548031D01*
X132864345Y-112544345D01*
X132994147Y-112388276D01*
X133093334Y-112211165D01*
X133095190Y-112205698D01*
X133095192Y-112205693D01*
X133156728Y-112024414D01*
X133156729Y-112024409D01*
X133158584Y-112018945D01*
X133159412Y-112013236D01*
X133159413Y-112013231D01*
X133187179Y-111821727D01*
X133187712Y-111818053D01*
X133189232Y-111760000D01*
X133170658Y-111557859D01*
X133169090Y-111552299D01*
X133117125Y-111368046D01*
X133117124Y-111368044D01*
X133115557Y-111362487D01*
X133104978Y-111341033D01*
X133028331Y-111185609D01*
X133025776Y-111180428D01*
X132904320Y-111017779D01*
X132755258Y-110879987D01*
X132750375Y-110876906D01*
X132750371Y-110876903D01*
X132588464Y-110774748D01*
X132583581Y-110771667D01*
X132395039Y-110696446D01*
X132389379Y-110695320D01*
X132389375Y-110695319D01*
X132201613Y-110657971D01*
X132201610Y-110657971D01*
X132195946Y-110656844D01*
X132190171Y-110656768D01*
X132190167Y-110656768D01*
X132088793Y-110655441D01*
X131992971Y-110654187D01*
X131987274Y-110655166D01*
X131987273Y-110655166D01*
X131798607Y-110687585D01*
X131792910Y-110688564D01*
X131602463Y-110758824D01*
X131428010Y-110862612D01*
X131423670Y-110866418D01*
X131423666Y-110866421D01*
X131403723Y-110883911D01*
X131275392Y-110996455D01*
X131149720Y-111155869D01*
X131147031Y-111160980D01*
X131147029Y-111160983D01*
X131134073Y-111185609D01*
X131055203Y-111335515D01*
X130995007Y-111529378D01*
X130971148Y-111730964D01*
X129794500Y-111730964D01*
X129794500Y-109190964D01*
X130971148Y-109190964D01*
X130984424Y-109393522D01*
X130985845Y-109399118D01*
X130985846Y-109399123D01*
X131031329Y-109578210D01*
X131034392Y-109590269D01*
X131036809Y-109595512D01*
X131116959Y-109769371D01*
X131119377Y-109774616D01*
X131236533Y-109940389D01*
X131381938Y-110082035D01*
X131550720Y-110194812D01*
X131556023Y-110197090D01*
X131556026Y-110197092D01*
X131644707Y-110235192D01*
X131737228Y-110274942D01*
X131810244Y-110291464D01*
X131929579Y-110318467D01*
X131929584Y-110318468D01*
X131935216Y-110319742D01*
X131940987Y-110319969D01*
X131940989Y-110319969D01*
X132000756Y-110322317D01*
X132138053Y-110327712D01*
X132238499Y-110313148D01*
X132333231Y-110299413D01*
X132333236Y-110299412D01*
X132338945Y-110298584D01*
X132344409Y-110296729D01*
X132344414Y-110296728D01*
X132525693Y-110235192D01*
X132525698Y-110235190D01*
X132531165Y-110233334D01*
X132708276Y-110134147D01*
X132770934Y-110082035D01*
X132859913Y-110008031D01*
X132864345Y-110004345D01*
X132994147Y-109848276D01*
X133044181Y-109758934D01*
X133094918Y-109709272D01*
X133154115Y-109694500D01*
X158047746Y-109694500D01*
X158058805Y-109695736D01*
X158058854Y-109695133D01*
X158067798Y-109695853D01*
X158076555Y-109697834D01*
X158126395Y-109694742D01*
X158134197Y-109694500D01*
X158149069Y-109694500D01*
X158158418Y-109693161D01*
X158168467Y-109692132D01*
X158203252Y-109689974D01*
X158203253Y-109689974D01*
X158212212Y-109689418D01*
X158220652Y-109686371D01*
X158227016Y-109685053D01*
X158234457Y-109683197D01*
X158240659Y-109681383D01*
X158249546Y-109680111D01*
X158257717Y-109676396D01*
X158257720Y-109676395D01*
X158289471Y-109661959D01*
X158298835Y-109658147D01*
X158331615Y-109646313D01*
X158331617Y-109646312D01*
X158340054Y-109643266D01*
X158347298Y-109637975D01*
X158353003Y-109634941D01*
X158359678Y-109631040D01*
X158365107Y-109627568D01*
X158373275Y-109623854D01*
X158380071Y-109617998D01*
X158380076Y-109617995D01*
X158406491Y-109595235D01*
X158414406Y-109588950D01*
X158420451Y-109584534D01*
X158420455Y-109584531D01*
X158424387Y-109581658D01*
X158434410Y-109571635D01*
X158441257Y-109565277D01*
X158469440Y-109540993D01*
X158476242Y-109535132D01*
X158481126Y-109527597D01*
X158487025Y-109520835D01*
X158487109Y-109520908D01*
X158495466Y-109510579D01*
X161577962Y-106428083D01*
X161586659Y-106421133D01*
X161586267Y-106420673D01*
X161593103Y-106414855D01*
X161600695Y-106410065D01*
X161633760Y-106372626D01*
X161639106Y-106366939D01*
X161649613Y-106356432D01*
X161655279Y-106348872D01*
X161661655Y-106341041D01*
X161684726Y-106314918D01*
X161690668Y-106308190D01*
X161694483Y-106300063D01*
X161698047Y-106294638D01*
X161701999Y-106288061D01*
X161705103Y-106282391D01*
X161710486Y-106275209D01*
X161725880Y-106234146D01*
X161729799Y-106224845D01*
X161748432Y-106185157D01*
X161749813Y-106176287D01*
X161751706Y-106170095D01*
X161753658Y-106162656D01*
X161755046Y-106156342D01*
X161758196Y-106147940D01*
X161761445Y-106104217D01*
X161762599Y-106094168D01*
X161763751Y-106086772D01*
X161763751Y-106086770D01*
X161764500Y-106081961D01*
X161764500Y-106067794D01*
X161764846Y-106058456D01*
X161767604Y-106021343D01*
X161768269Y-106012395D01*
X161766396Y-106003619D01*
X161765785Y-105994662D01*
X161765895Y-105994655D01*
X161764500Y-105981439D01*
X161764500Y-105214115D01*
X161784502Y-105145994D01*
X161828934Y-105104181D01*
X161865643Y-105083623D01*
X161918276Y-105054147D01*
X161980934Y-105002035D01*
X162069913Y-104928031D01*
X162074345Y-104924345D01*
X162120699Y-104868611D01*
X162200453Y-104772718D01*
X162200455Y-104772715D01*
X162204147Y-104768276D01*
X162303334Y-104591165D01*
X162305190Y-104585698D01*
X162305192Y-104585693D01*
X162366728Y-104404414D01*
X162366729Y-104404409D01*
X162368584Y-104398945D01*
X162369412Y-104393236D01*
X162369413Y-104393231D01*
X162397179Y-104201727D01*
X162397712Y-104198053D01*
X162399232Y-104140000D01*
X162380658Y-103937859D01*
X162379090Y-103932299D01*
X162327125Y-103748046D01*
X162327124Y-103748044D01*
X162325557Y-103742487D01*
X162320363Y-103731953D01*
X162238331Y-103565609D01*
X162235776Y-103560428D01*
X162114320Y-103397779D01*
X161965258Y-103259987D01*
X161960375Y-103256906D01*
X161960371Y-103256903D01*
X161798464Y-103154748D01*
X161793581Y-103151667D01*
X161605039Y-103076446D01*
X161599379Y-103075320D01*
X161599375Y-103075319D01*
X161411613Y-103037971D01*
X161411610Y-103037971D01*
X161405946Y-103036844D01*
X161400171Y-103036768D01*
X161400167Y-103036768D01*
X161298793Y-103035441D01*
X161202971Y-103034187D01*
X161197274Y-103035166D01*
X161197273Y-103035166D01*
X161008607Y-103067585D01*
X161002910Y-103068564D01*
X160812463Y-103138824D01*
X160638010Y-103242612D01*
X160633670Y-103246418D01*
X160633666Y-103246421D01*
X160521108Y-103345133D01*
X160485392Y-103376455D01*
X160359720Y-103535869D01*
X160357031Y-103540980D01*
X160357029Y-103540983D01*
X160328490Y-103595227D01*
X160265203Y-103715515D01*
X160205007Y-103909378D01*
X160181148Y-104110964D01*
X160194424Y-104313522D01*
X160195845Y-104319118D01*
X160195846Y-104319123D01*
X160242971Y-104504674D01*
X160244392Y-104510269D01*
X160246809Y-104515512D01*
X160284007Y-104596200D01*
X160329377Y-104694616D01*
X160332710Y-104699332D01*
X160441112Y-104852718D01*
X160446533Y-104860389D01*
X160450675Y-104864424D01*
X160487534Y-104900330D01*
X160591938Y-105002035D01*
X160690346Y-105067789D01*
X160759502Y-105113998D01*
X160805030Y-105168475D01*
X160815500Y-105218763D01*
X160815500Y-105796266D01*
X160795498Y-105864387D01*
X160778595Y-105885361D01*
X158266122Y-108397833D01*
X158203810Y-108431859D01*
X158132994Y-108426794D01*
X158076159Y-108384247D01*
X158051348Y-108317727D01*
X158060120Y-108261741D01*
X158076186Y-108221776D01*
X158116842Y-108120641D01*
X158139162Y-107963807D01*
X158139307Y-107950000D01*
X158120276Y-107792733D01*
X158064280Y-107644546D01*
X158005795Y-107559449D01*
X157978855Y-107520251D01*
X157978854Y-107520249D01*
X157974553Y-107513992D01*
X157856275Y-107408611D01*
X157848889Y-107404700D01*
X157722988Y-107338039D01*
X157722989Y-107338039D01*
X157716274Y-107334484D01*
X157562633Y-107295892D01*
X157555034Y-107295852D01*
X157555033Y-107295852D01*
X157489181Y-107295507D01*
X157404221Y-107295062D01*
X157396841Y-107296834D01*
X157396839Y-107296834D01*
X157257563Y-107330271D01*
X157257560Y-107330272D01*
X157250184Y-107332043D01*
X157109414Y-107404700D01*
X157103697Y-107409687D01*
X157103690Y-107409692D01*
X157063848Y-107444449D01*
X156999366Y-107474157D01*
X156981019Y-107475500D01*
X140199339Y-107475500D01*
X140131218Y-107455498D01*
X140115520Y-107443576D01*
X140081951Y-107413667D01*
X140081945Y-107413663D01*
X140076275Y-107408611D01*
X140068889Y-107404700D01*
X139942988Y-107338039D01*
X139942989Y-107338039D01*
X139936274Y-107334484D01*
X139782633Y-107295892D01*
X139775034Y-107295852D01*
X139775033Y-107295852D01*
X139709181Y-107295507D01*
X139624221Y-107295062D01*
X139616841Y-107296834D01*
X139616839Y-107296834D01*
X139477563Y-107330271D01*
X139477560Y-107330272D01*
X139470184Y-107332043D01*
X139329414Y-107404700D01*
X139323697Y-107409687D01*
X139323690Y-107409692D01*
X139283848Y-107444449D01*
X139219366Y-107474157D01*
X139201019Y-107475500D01*
X133598734Y-107475500D01*
X133530613Y-107455498D01*
X133509639Y-107438595D01*
X133176329Y-107105285D01*
X133142303Y-107042973D01*
X133146111Y-106975688D01*
X133156729Y-106944410D01*
X133156729Y-106944409D01*
X133158584Y-106938945D01*
X133159412Y-106933236D01*
X133159413Y-106933231D01*
X133187179Y-106741727D01*
X133187712Y-106738053D01*
X133189232Y-106680000D01*
X133170658Y-106477859D01*
X133169090Y-106472299D01*
X133117125Y-106288046D01*
X133117124Y-106288044D01*
X133115557Y-106282487D01*
X133104978Y-106261033D01*
X133028331Y-106105609D01*
X133025776Y-106100428D01*
X133021102Y-106094168D01*
X132965258Y-106019385D01*
X132904320Y-105937779D01*
X132755258Y-105799987D01*
X132750375Y-105796906D01*
X132750371Y-105796903D01*
X132588464Y-105694748D01*
X132583581Y-105691667D01*
X132395039Y-105616446D01*
X132389379Y-105615320D01*
X132389375Y-105615319D01*
X132201613Y-105577971D01*
X132201610Y-105577971D01*
X132195946Y-105576844D01*
X132190171Y-105576768D01*
X132190167Y-105576768D01*
X132088793Y-105575441D01*
X131992971Y-105574187D01*
X131987274Y-105575166D01*
X131987273Y-105575166D01*
X131798607Y-105607585D01*
X131792910Y-105608564D01*
X131602463Y-105678824D01*
X131428010Y-105782612D01*
X131423670Y-105786418D01*
X131423666Y-105786421D01*
X131334764Y-105864387D01*
X131275392Y-105916455D01*
X131149720Y-106075869D01*
X131147031Y-106080980D01*
X131147029Y-106080983D01*
X131111801Y-106147940D01*
X131055203Y-106255515D01*
X130995007Y-106449378D01*
X130971148Y-106650964D01*
X130984424Y-106853522D01*
X130985845Y-106859118D01*
X130985846Y-106859123D01*
X131031101Y-107037312D01*
X131034392Y-107050269D01*
X131036809Y-107055512D01*
X131101935Y-107196781D01*
X131119377Y-107234616D01*
X131122710Y-107239332D01*
X131194243Y-107340549D01*
X131236533Y-107400389D01*
X131381938Y-107542035D01*
X131550720Y-107654812D01*
X131556023Y-107657090D01*
X131556026Y-107657092D01*
X131639789Y-107693079D01*
X131737228Y-107734942D01*
X131786588Y-107746111D01*
X131929579Y-107778467D01*
X131929584Y-107778468D01*
X131935216Y-107779742D01*
X131940987Y-107779969D01*
X131940989Y-107779969D01*
X132000756Y-107782317D01*
X132138053Y-107787712D01*
X132238499Y-107773148D01*
X132333231Y-107759413D01*
X132333236Y-107759412D01*
X132338945Y-107758584D01*
X132375689Y-107746111D01*
X132446623Y-107743155D01*
X132505285Y-107776329D01*
X132807802Y-108078846D01*
X132841828Y-108141158D01*
X132836763Y-108211973D01*
X132794216Y-108268809D01*
X132727696Y-108293620D01*
X132658322Y-108278529D01*
X132651472Y-108274503D01*
X132588464Y-108234748D01*
X132583581Y-108231667D01*
X132395039Y-108156446D01*
X132389379Y-108155320D01*
X132389375Y-108155319D01*
X132201613Y-108117971D01*
X132201610Y-108117971D01*
X132195946Y-108116844D01*
X132190171Y-108116768D01*
X132190167Y-108116768D01*
X132088793Y-108115441D01*
X131992971Y-108114187D01*
X131987274Y-108115166D01*
X131987273Y-108115166D01*
X131798607Y-108147585D01*
X131792910Y-108148564D01*
X131602463Y-108218824D01*
X131428010Y-108322612D01*
X131423670Y-108326418D01*
X131423666Y-108326421D01*
X131311435Y-108424846D01*
X131275392Y-108456455D01*
X131149720Y-108615869D01*
X131147031Y-108620980D01*
X131147029Y-108620983D01*
X131120271Y-108671842D01*
X131055203Y-108795515D01*
X130995007Y-108989378D01*
X130971148Y-109190964D01*
X129794500Y-109190964D01*
X129794500Y-104110964D01*
X130971148Y-104110964D01*
X130984424Y-104313522D01*
X130985845Y-104319118D01*
X130985846Y-104319123D01*
X131032971Y-104504674D01*
X131034392Y-104510269D01*
X131036809Y-104515512D01*
X131074007Y-104596200D01*
X131119377Y-104694616D01*
X131122710Y-104699332D01*
X131231112Y-104852718D01*
X131236533Y-104860389D01*
X131240675Y-104864424D01*
X131277534Y-104900330D01*
X131381938Y-105002035D01*
X131550720Y-105114812D01*
X131556023Y-105117090D01*
X131556026Y-105117092D01*
X131731921Y-105192662D01*
X131737228Y-105194942D01*
X131810244Y-105211464D01*
X131929579Y-105238467D01*
X131929584Y-105238468D01*
X131935216Y-105239742D01*
X131940987Y-105239969D01*
X131940989Y-105239969D01*
X132000756Y-105242317D01*
X132138053Y-105247712D01*
X132238499Y-105233148D01*
X132333231Y-105219413D01*
X132333236Y-105219412D01*
X132338945Y-105218584D01*
X132344409Y-105216729D01*
X132344414Y-105216728D01*
X132525693Y-105155192D01*
X132525698Y-105155190D01*
X132531165Y-105153334D01*
X132708276Y-105054147D01*
X132770934Y-105002035D01*
X132859913Y-104928031D01*
X132864345Y-104924345D01*
X132910699Y-104868611D01*
X132990453Y-104772718D01*
X132990455Y-104772715D01*
X132994147Y-104768276D01*
X133025210Y-104712809D01*
X133075944Y-104663150D01*
X133145476Y-104648802D01*
X133211726Y-104674324D01*
X133224237Y-104685282D01*
X133931759Y-105392803D01*
X133965784Y-105455116D01*
X133967902Y-105468066D01*
X133971711Y-105502567D01*
X133974856Y-105531050D01*
X133978113Y-105560553D01*
X133980723Y-105567684D01*
X133980723Y-105567686D01*
X134027221Y-105694748D01*
X134032553Y-105709319D01*
X134036789Y-105715622D01*
X134036789Y-105715623D01*
X134076733Y-105775065D01*
X134120908Y-105840805D01*
X134238076Y-105947419D01*
X134377293Y-106023008D01*
X134530522Y-106063207D01*
X134545501Y-106063442D01*
X134552279Y-106063549D01*
X134620077Y-106084619D01*
X134639393Y-106100438D01*
X135379917Y-106840962D01*
X135386867Y-106849659D01*
X135387327Y-106849267D01*
X135393145Y-106856103D01*
X135397935Y-106863695D01*
X135404663Y-106869637D01*
X135435374Y-106896760D01*
X135441061Y-106902106D01*
X135451568Y-106912613D01*
X135459128Y-106918279D01*
X135466959Y-106924655D01*
X135499810Y-106953668D01*
X135507937Y-106957483D01*
X135513362Y-106961047D01*
X135519939Y-106964999D01*
X135525609Y-106968103D01*
X135532791Y-106973486D01*
X135541195Y-106976637D01*
X135541196Y-106976637D01*
X135554565Y-106981649D01*
X135573854Y-106988880D01*
X135583155Y-106992799D01*
X135622843Y-107011432D01*
X135631713Y-107012813D01*
X135637905Y-107014706D01*
X135645344Y-107016658D01*
X135651658Y-107018046D01*
X135660060Y-107021196D01*
X135669006Y-107021861D01*
X135669007Y-107021861D01*
X135703782Y-107024445D01*
X135713827Y-107025598D01*
X135718111Y-107026265D01*
X135721228Y-107026751D01*
X135721230Y-107026751D01*
X135726039Y-107027500D01*
X135740206Y-107027500D01*
X135749544Y-107027846D01*
X135795605Y-107031269D01*
X135804381Y-107029396D01*
X135813338Y-107028785D01*
X135813345Y-107028895D01*
X135826561Y-107027500D01*
X156269746Y-107027500D01*
X156280805Y-107028736D01*
X156280854Y-107028133D01*
X156289798Y-107028853D01*
X156298555Y-107030834D01*
X156348395Y-107027742D01*
X156356197Y-107027500D01*
X156371069Y-107027500D01*
X156380418Y-107026161D01*
X156390467Y-107025132D01*
X156425252Y-107022974D01*
X156425253Y-107022974D01*
X156434212Y-107022418D01*
X156442652Y-107019371D01*
X156449016Y-107018053D01*
X156456457Y-107016197D01*
X156462659Y-107014383D01*
X156471546Y-107013111D01*
X156479717Y-107009396D01*
X156479720Y-107009395D01*
X156511471Y-106994959D01*
X156520835Y-106991147D01*
X156553615Y-106979313D01*
X156553617Y-106979312D01*
X156562054Y-106976266D01*
X156569298Y-106970975D01*
X156575003Y-106967941D01*
X156581678Y-106964040D01*
X156587107Y-106960568D01*
X156595275Y-106956854D01*
X156602071Y-106950998D01*
X156602076Y-106950995D01*
X156628491Y-106928235D01*
X156636406Y-106921950D01*
X156642451Y-106917534D01*
X156642455Y-106917531D01*
X156646387Y-106914658D01*
X156656410Y-106904635D01*
X156663257Y-106898277D01*
X156691440Y-106873993D01*
X156698242Y-106868132D01*
X156703126Y-106860597D01*
X156709025Y-106853835D01*
X156709109Y-106853908D01*
X156717466Y-106843579D01*
X157519450Y-106041595D01*
X158324558Y-105236486D01*
X158386870Y-105202461D01*
X158441460Y-105202688D01*
X158470707Y-105209306D01*
X158599579Y-105238467D01*
X158599584Y-105238468D01*
X158605216Y-105239742D01*
X158610987Y-105239969D01*
X158610989Y-105239969D01*
X158670756Y-105242317D01*
X158808053Y-105247712D01*
X158908499Y-105233148D01*
X159003231Y-105219413D01*
X159003236Y-105219412D01*
X159008945Y-105218584D01*
X159014409Y-105216729D01*
X159014414Y-105216728D01*
X159195693Y-105155192D01*
X159195698Y-105155190D01*
X159201165Y-105153334D01*
X159378276Y-105054147D01*
X159440934Y-105002035D01*
X159529913Y-104928031D01*
X159534345Y-104924345D01*
X159580699Y-104868611D01*
X159660453Y-104772718D01*
X159660455Y-104772715D01*
X159664147Y-104768276D01*
X159763334Y-104591165D01*
X159765190Y-104585698D01*
X159765192Y-104585693D01*
X159826728Y-104404414D01*
X159826729Y-104404409D01*
X159828584Y-104398945D01*
X159829412Y-104393236D01*
X159829413Y-104393231D01*
X159857179Y-104201727D01*
X159857712Y-104198053D01*
X159859232Y-104140000D01*
X159840658Y-103937859D01*
X159839090Y-103932299D01*
X159787125Y-103748046D01*
X159787124Y-103748044D01*
X159785557Y-103742487D01*
X159780363Y-103731953D01*
X159698331Y-103565609D01*
X159695776Y-103560428D01*
X159574320Y-103397779D01*
X159425258Y-103259987D01*
X159420375Y-103256906D01*
X159420371Y-103256903D01*
X159258464Y-103154748D01*
X159253581Y-103151667D01*
X159065039Y-103076446D01*
X159059379Y-103075320D01*
X159059375Y-103075319D01*
X158871613Y-103037971D01*
X158871610Y-103037971D01*
X158865946Y-103036844D01*
X158860171Y-103036768D01*
X158860167Y-103036768D01*
X158758793Y-103035441D01*
X158662971Y-103034187D01*
X158657274Y-103035166D01*
X158657273Y-103035166D01*
X158468607Y-103067585D01*
X158462910Y-103068564D01*
X158272463Y-103138824D01*
X158098010Y-103242612D01*
X158093670Y-103246418D01*
X158093666Y-103246421D01*
X157981108Y-103345133D01*
X157945392Y-103376455D01*
X157819720Y-103535869D01*
X157817031Y-103540980D01*
X157817029Y-103540983D01*
X157788490Y-103595227D01*
X157725203Y-103715515D01*
X157665007Y-103909378D01*
X157641148Y-104110964D01*
X157654424Y-104313522D01*
X157655845Y-104319118D01*
X157655846Y-104319123D01*
X157687625Y-104444248D01*
X157685007Y-104515196D01*
X157654597Y-104564359D01*
X157352652Y-104866304D01*
X157290340Y-104900330D01*
X157219525Y-104895265D01*
X157162689Y-104852718D01*
X157137878Y-104786198D01*
X157153621Y-104715646D01*
X157223334Y-104591165D01*
X157225190Y-104585698D01*
X157225192Y-104585693D01*
X157286728Y-104404414D01*
X157286729Y-104404409D01*
X157288584Y-104398945D01*
X157289412Y-104393236D01*
X157289413Y-104393231D01*
X157317179Y-104201727D01*
X157317712Y-104198053D01*
X157319232Y-104140000D01*
X157300658Y-103937859D01*
X157299090Y-103932299D01*
X157247125Y-103748046D01*
X157247124Y-103748044D01*
X157245557Y-103742487D01*
X157240363Y-103731953D01*
X157158331Y-103565609D01*
X157155776Y-103560428D01*
X157034320Y-103397779D01*
X156885258Y-103259987D01*
X156880375Y-103256906D01*
X156880371Y-103256903D01*
X156718464Y-103154748D01*
X156713581Y-103151667D01*
X156525039Y-103076446D01*
X156519379Y-103075320D01*
X156519375Y-103075319D01*
X156331613Y-103037971D01*
X156331610Y-103037971D01*
X156325946Y-103036844D01*
X156320171Y-103036768D01*
X156320167Y-103036768D01*
X156218793Y-103035441D01*
X156122971Y-103034187D01*
X156117274Y-103035166D01*
X156117273Y-103035166D01*
X155928607Y-103067585D01*
X155922910Y-103068564D01*
X155732463Y-103138824D01*
X155558010Y-103242612D01*
X155553670Y-103246418D01*
X155553666Y-103246421D01*
X155441108Y-103345133D01*
X155405392Y-103376455D01*
X155279720Y-103535869D01*
X155277031Y-103540980D01*
X155277029Y-103540983D01*
X155248490Y-103595227D01*
X155185203Y-103715515D01*
X155125007Y-103909378D01*
X155101148Y-104110964D01*
X155114424Y-104313522D01*
X155115845Y-104319118D01*
X155115846Y-104319123D01*
X155162971Y-104504674D01*
X155164392Y-104510269D01*
X155166809Y-104515512D01*
X155204007Y-104596200D01*
X155249377Y-104694616D01*
X155252710Y-104699332D01*
X155361112Y-104852718D01*
X155366533Y-104860389D01*
X155370675Y-104864424D01*
X155407534Y-104900330D01*
X155511938Y-105002035D01*
X155680720Y-105114812D01*
X155686023Y-105117090D01*
X155686026Y-105117092D01*
X155861921Y-105192662D01*
X155867228Y-105194942D01*
X155940244Y-105211464D01*
X156059579Y-105238467D01*
X156059584Y-105238468D01*
X156065216Y-105239742D01*
X156070987Y-105239969D01*
X156070989Y-105239969D01*
X156130756Y-105242317D01*
X156268053Y-105247712D01*
X156368499Y-105233148D01*
X156463231Y-105219413D01*
X156463236Y-105219412D01*
X156468945Y-105218584D01*
X156474409Y-105216729D01*
X156474414Y-105216728D01*
X156655693Y-105155192D01*
X156655698Y-105155190D01*
X156661165Y-105153334D01*
X156785644Y-105083622D01*
X156854850Y-105067789D01*
X156921632Y-105091886D01*
X156964785Y-105148262D01*
X156970608Y-105219020D01*
X156936303Y-105282652D01*
X156177360Y-106041595D01*
X156115048Y-106075621D01*
X156088265Y-106078500D01*
X136011735Y-106078500D01*
X135943614Y-106058498D01*
X135922639Y-106041595D01*
X135615752Y-105734707D01*
X135308455Y-105427410D01*
X135274430Y-105365098D01*
X135272464Y-105353452D01*
X135271615Y-105346439D01*
X135260276Y-105252733D01*
X135204280Y-105104546D01*
X135179018Y-105067789D01*
X135118855Y-104980251D01*
X135118854Y-104980249D01*
X135114553Y-104973992D01*
X134996275Y-104868611D01*
X134856274Y-104794484D01*
X134702633Y-104755892D01*
X134695033Y-104755852D01*
X134695032Y-104755852D01*
X134688390Y-104755817D01*
X134620376Y-104735457D01*
X134599958Y-104718914D01*
X133992009Y-104110964D01*
X144941148Y-104110964D01*
X144954424Y-104313522D01*
X144955845Y-104319118D01*
X144955846Y-104319123D01*
X145002971Y-104504674D01*
X145004392Y-104510269D01*
X145006809Y-104515512D01*
X145044007Y-104596200D01*
X145089377Y-104694616D01*
X145092710Y-104699332D01*
X145201112Y-104852718D01*
X145206533Y-104860389D01*
X145210675Y-104864424D01*
X145247534Y-104900330D01*
X145351938Y-105002035D01*
X145520720Y-105114812D01*
X145526023Y-105117090D01*
X145526026Y-105117092D01*
X145701921Y-105192662D01*
X145707228Y-105194942D01*
X145780244Y-105211464D01*
X145899579Y-105238467D01*
X145899584Y-105238468D01*
X145905216Y-105239742D01*
X145910987Y-105239969D01*
X145910989Y-105239969D01*
X145970756Y-105242317D01*
X146108053Y-105247712D01*
X146208499Y-105233148D01*
X146303231Y-105219413D01*
X146303236Y-105219412D01*
X146308945Y-105218584D01*
X146314409Y-105216729D01*
X146314414Y-105216728D01*
X146495693Y-105155192D01*
X146495698Y-105155190D01*
X146501165Y-105153334D01*
X146678276Y-105054147D01*
X146740934Y-105002035D01*
X146829913Y-104928031D01*
X146834345Y-104924345D01*
X146880699Y-104868611D01*
X146960453Y-104772718D01*
X146960455Y-104772715D01*
X146964147Y-104768276D01*
X147063334Y-104591165D01*
X147065190Y-104585698D01*
X147065192Y-104585693D01*
X147126728Y-104404414D01*
X147126729Y-104404409D01*
X147128584Y-104398945D01*
X147129412Y-104393236D01*
X147129413Y-104393231D01*
X147157179Y-104201727D01*
X147157712Y-104198053D01*
X147159232Y-104140000D01*
X147156564Y-104110964D01*
X147481148Y-104110964D01*
X147494424Y-104313522D01*
X147495845Y-104319118D01*
X147495846Y-104319123D01*
X147542971Y-104504674D01*
X147544392Y-104510269D01*
X147546809Y-104515512D01*
X147584007Y-104596200D01*
X147629377Y-104694616D01*
X147632710Y-104699332D01*
X147741112Y-104852718D01*
X147746533Y-104860389D01*
X147750675Y-104864424D01*
X147787534Y-104900330D01*
X147891938Y-105002035D01*
X148060720Y-105114812D01*
X148066023Y-105117090D01*
X148066026Y-105117092D01*
X148241921Y-105192662D01*
X148247228Y-105194942D01*
X148320244Y-105211464D01*
X148439579Y-105238467D01*
X148439584Y-105238468D01*
X148445216Y-105239742D01*
X148450987Y-105239969D01*
X148450989Y-105239969D01*
X148510756Y-105242317D01*
X148648053Y-105247712D01*
X148748499Y-105233148D01*
X148843231Y-105219413D01*
X148843236Y-105219412D01*
X148848945Y-105218584D01*
X148854409Y-105216729D01*
X148854414Y-105216728D01*
X149035693Y-105155192D01*
X149035698Y-105155190D01*
X149041165Y-105153334D01*
X149218276Y-105054147D01*
X149280934Y-105002035D01*
X149369913Y-104928031D01*
X149374345Y-104924345D01*
X149420699Y-104868611D01*
X149500453Y-104772718D01*
X149500455Y-104772715D01*
X149504147Y-104768276D01*
X149603334Y-104591165D01*
X149605190Y-104585698D01*
X149605192Y-104585693D01*
X149666728Y-104404414D01*
X149666729Y-104404409D01*
X149668584Y-104398945D01*
X149669412Y-104393236D01*
X149669413Y-104393231D01*
X149697179Y-104201727D01*
X149697712Y-104198053D01*
X149699232Y-104140000D01*
X149680658Y-103937859D01*
X149679090Y-103932299D01*
X149627125Y-103748046D01*
X149627124Y-103748044D01*
X149625557Y-103742487D01*
X149620363Y-103731953D01*
X149538331Y-103565609D01*
X149535776Y-103560428D01*
X149414320Y-103397779D01*
X149265258Y-103259987D01*
X149260375Y-103256906D01*
X149260371Y-103256903D01*
X149098464Y-103154748D01*
X149093581Y-103151667D01*
X148905039Y-103076446D01*
X148899379Y-103075320D01*
X148899375Y-103075319D01*
X148711613Y-103037971D01*
X148711610Y-103037971D01*
X148705946Y-103036844D01*
X148700171Y-103036768D01*
X148700167Y-103036768D01*
X148598793Y-103035441D01*
X148502971Y-103034187D01*
X148497274Y-103035166D01*
X148497273Y-103035166D01*
X148308607Y-103067585D01*
X148302910Y-103068564D01*
X148112463Y-103138824D01*
X147938010Y-103242612D01*
X147933670Y-103246418D01*
X147933666Y-103246421D01*
X147821108Y-103345133D01*
X147785392Y-103376455D01*
X147659720Y-103535869D01*
X147657031Y-103540980D01*
X147657029Y-103540983D01*
X147628490Y-103595227D01*
X147565203Y-103715515D01*
X147505007Y-103909378D01*
X147481148Y-104110964D01*
X147156564Y-104110964D01*
X147140658Y-103937859D01*
X147139090Y-103932299D01*
X147087125Y-103748046D01*
X147087124Y-103748044D01*
X147085557Y-103742487D01*
X147080363Y-103731953D01*
X146998331Y-103565609D01*
X146995776Y-103560428D01*
X146874320Y-103397779D01*
X146725258Y-103259987D01*
X146720375Y-103256906D01*
X146720371Y-103256903D01*
X146558464Y-103154748D01*
X146553581Y-103151667D01*
X146365039Y-103076446D01*
X146359379Y-103075320D01*
X146359375Y-103075319D01*
X146171613Y-103037971D01*
X146171610Y-103037971D01*
X146165946Y-103036844D01*
X146160171Y-103036768D01*
X146160167Y-103036768D01*
X146058793Y-103035441D01*
X145962971Y-103034187D01*
X145957274Y-103035166D01*
X145957273Y-103035166D01*
X145768607Y-103067585D01*
X145762910Y-103068564D01*
X145572463Y-103138824D01*
X145398010Y-103242612D01*
X145393670Y-103246418D01*
X145393666Y-103246421D01*
X145281108Y-103345133D01*
X145245392Y-103376455D01*
X145119720Y-103535869D01*
X145117031Y-103540980D01*
X145117029Y-103540983D01*
X145088490Y-103595227D01*
X145025203Y-103715515D01*
X144965007Y-103909378D01*
X144941148Y-104110964D01*
X133992009Y-104110964D01*
X133733081Y-103852036D01*
X133726133Y-103843341D01*
X133725673Y-103843732D01*
X133719854Y-103836895D01*
X133715065Y-103829305D01*
X133677626Y-103796240D01*
X133671939Y-103790894D01*
X133661432Y-103780387D01*
X133653872Y-103774721D01*
X133646041Y-103768345D01*
X133619918Y-103745274D01*
X133613190Y-103739332D01*
X133605063Y-103735517D01*
X133599638Y-103731953D01*
X133593061Y-103728001D01*
X133587391Y-103724897D01*
X133580209Y-103719514D01*
X133539146Y-103704120D01*
X133529845Y-103700201D01*
X133490157Y-103681568D01*
X133481287Y-103680187D01*
X133475095Y-103678294D01*
X133467656Y-103676342D01*
X133461342Y-103674954D01*
X133452940Y-103671804D01*
X133443994Y-103671139D01*
X133443993Y-103671139D01*
X133409218Y-103668555D01*
X133399173Y-103667402D01*
X133394889Y-103666735D01*
X133391772Y-103666249D01*
X133391770Y-103666249D01*
X133386961Y-103665500D01*
X133372794Y-103665500D01*
X133363456Y-103665154D01*
X133317395Y-103661731D01*
X133308619Y-103663604D01*
X133299662Y-103664215D01*
X133299655Y-103664105D01*
X133286439Y-103665500D01*
X133155943Y-103665500D01*
X133087822Y-103645498D01*
X133042938Y-103595229D01*
X133025776Y-103560428D01*
X132904320Y-103397779D01*
X132755258Y-103259987D01*
X132750375Y-103256906D01*
X132750371Y-103256903D01*
X132588464Y-103154748D01*
X132583581Y-103151667D01*
X132395039Y-103076446D01*
X132389379Y-103075320D01*
X132389375Y-103075319D01*
X132201613Y-103037971D01*
X132201610Y-103037971D01*
X132195946Y-103036844D01*
X132190171Y-103036768D01*
X132190167Y-103036768D01*
X132088793Y-103035441D01*
X131992971Y-103034187D01*
X131987274Y-103035166D01*
X131987273Y-103035166D01*
X131798607Y-103067585D01*
X131792910Y-103068564D01*
X131602463Y-103138824D01*
X131428010Y-103242612D01*
X131423670Y-103246418D01*
X131423666Y-103246421D01*
X131311108Y-103345133D01*
X131275392Y-103376455D01*
X131149720Y-103535869D01*
X131147031Y-103540980D01*
X131147029Y-103540983D01*
X131118490Y-103595227D01*
X131055203Y-103715515D01*
X130995007Y-103909378D01*
X130971148Y-104110964D01*
X129794500Y-104110964D01*
X129794500Y-102863096D01*
X136500729Y-102863096D01*
X136508916Y-102937254D01*
X136516346Y-103004546D01*
X136518113Y-103020553D01*
X136520723Y-103027684D01*
X136520723Y-103027686D01*
X136569355Y-103160579D01*
X136572553Y-103169319D01*
X136576789Y-103175622D01*
X136576789Y-103175623D01*
X136642798Y-103273854D01*
X136660908Y-103300805D01*
X136666527Y-103305918D01*
X136666528Y-103305919D01*
X136739863Y-103372648D01*
X136778076Y-103407419D01*
X136917293Y-103483008D01*
X137070522Y-103523207D01*
X137154477Y-103524526D01*
X137221319Y-103525576D01*
X137221322Y-103525576D01*
X137228916Y-103525695D01*
X137383332Y-103490329D01*
X137500099Y-103431602D01*
X137518072Y-103422563D01*
X137518075Y-103422561D01*
X137524855Y-103419151D01*
X137576914Y-103374689D01*
X137641703Y-103345658D01*
X137658744Y-103344500D01*
X140902746Y-103344500D01*
X140913805Y-103345736D01*
X140913854Y-103345133D01*
X140922798Y-103345853D01*
X140931555Y-103347834D01*
X140981395Y-103344742D01*
X140989197Y-103344500D01*
X141004069Y-103344500D01*
X141013418Y-103343161D01*
X141023467Y-103342132D01*
X141058252Y-103339974D01*
X141058253Y-103339974D01*
X141067212Y-103339418D01*
X141075652Y-103336371D01*
X141082016Y-103335053D01*
X141089457Y-103333197D01*
X141095659Y-103331383D01*
X141104546Y-103330111D01*
X141112717Y-103326396D01*
X141112720Y-103326395D01*
X141144471Y-103311959D01*
X141153835Y-103308147D01*
X141186615Y-103296313D01*
X141186617Y-103296312D01*
X141195054Y-103293266D01*
X141202298Y-103287975D01*
X141208003Y-103284941D01*
X141214678Y-103281040D01*
X141220107Y-103277568D01*
X141228275Y-103273854D01*
X141235071Y-103267998D01*
X141235076Y-103267995D01*
X141261491Y-103245235D01*
X141269406Y-103238950D01*
X141275451Y-103234534D01*
X141275455Y-103234531D01*
X141279387Y-103231658D01*
X141289410Y-103221635D01*
X141296257Y-103215277D01*
X141324440Y-103190993D01*
X141331242Y-103185132D01*
X141336126Y-103177597D01*
X141342025Y-103170835D01*
X141342109Y-103170908D01*
X141350466Y-103160579D01*
X141869356Y-102641689D01*
X142399639Y-102111405D01*
X142461951Y-102077380D01*
X142488734Y-102074500D01*
X144971785Y-102074500D01*
X145039906Y-102094502D01*
X145083538Y-102144674D01*
X145084070Y-102144367D01*
X145085648Y-102147099D01*
X145086209Y-102147745D01*
X145086957Y-102149368D01*
X145086959Y-102149371D01*
X145089377Y-102154616D01*
X145092710Y-102159332D01*
X145198801Y-102309448D01*
X145206533Y-102320389D01*
X145351938Y-102462035D01*
X145356742Y-102465245D01*
X145434157Y-102516972D01*
X145520720Y-102574812D01*
X145526023Y-102577090D01*
X145526026Y-102577092D01*
X145700811Y-102652185D01*
X145707228Y-102654942D01*
X145780244Y-102671464D01*
X145899579Y-102698467D01*
X145899584Y-102698468D01*
X145905216Y-102699742D01*
X145910987Y-102699969D01*
X145910989Y-102699969D01*
X145970756Y-102702317D01*
X146108053Y-102707712D01*
X146208499Y-102693148D01*
X146303231Y-102679413D01*
X146303236Y-102679412D01*
X146308945Y-102678584D01*
X146314409Y-102676729D01*
X146314414Y-102676728D01*
X146495693Y-102615192D01*
X146495698Y-102615190D01*
X146501165Y-102613334D01*
X146507019Y-102610056D01*
X146608499Y-102553224D01*
X146678276Y-102514147D01*
X146707873Y-102489532D01*
X146829913Y-102388031D01*
X146834345Y-102384345D01*
X146908946Y-102294648D01*
X146960453Y-102232718D01*
X146960455Y-102232715D01*
X146964147Y-102228276D01*
X147063334Y-102051165D01*
X147065190Y-102045698D01*
X147065192Y-102045693D01*
X147126728Y-101864414D01*
X147126729Y-101864409D01*
X147128584Y-101858945D01*
X147129412Y-101853236D01*
X147129413Y-101853231D01*
X147157179Y-101661727D01*
X147157712Y-101658053D01*
X147159232Y-101600000D01*
X147144598Y-101440736D01*
X147141187Y-101403613D01*
X147141186Y-101403610D01*
X147140658Y-101397859D01*
X147138812Y-101391313D01*
X147087125Y-101208046D01*
X147087124Y-101208044D01*
X147085557Y-101202487D01*
X147080363Y-101191953D01*
X146998331Y-101025609D01*
X146995776Y-101020428D01*
X146874320Y-100857779D01*
X146725258Y-100719987D01*
X146720375Y-100716906D01*
X146720371Y-100716903D01*
X146558464Y-100614748D01*
X146553581Y-100611667D01*
X146365039Y-100536446D01*
X146359379Y-100535320D01*
X146359375Y-100535319D01*
X146171613Y-100497971D01*
X146171610Y-100497971D01*
X146165946Y-100496844D01*
X146160171Y-100496768D01*
X146160167Y-100496768D01*
X146058793Y-100495441D01*
X145962971Y-100494187D01*
X145957274Y-100495166D01*
X145957273Y-100495166D01*
X145772873Y-100526852D01*
X145762910Y-100528564D01*
X145572463Y-100598824D01*
X145398010Y-100702612D01*
X145393670Y-100706418D01*
X145393666Y-100706421D01*
X145338004Y-100755236D01*
X145245392Y-100836455D01*
X145119720Y-100995869D01*
X145086942Y-101058169D01*
X145037524Y-101109140D01*
X144975435Y-101125500D01*
X142307254Y-101125500D01*
X142296195Y-101124264D01*
X142296146Y-101124867D01*
X142287202Y-101124147D01*
X142278445Y-101122166D01*
X142230281Y-101125154D01*
X142228605Y-101125258D01*
X142220803Y-101125500D01*
X142205931Y-101125500D01*
X142196582Y-101126839D01*
X142186533Y-101127868D01*
X142151748Y-101130026D01*
X142151747Y-101130026D01*
X142142788Y-101130582D01*
X142134348Y-101133629D01*
X142127984Y-101134947D01*
X142120536Y-101136805D01*
X142114339Y-101138617D01*
X142105454Y-101139889D01*
X142097288Y-101143602D01*
X142097284Y-101143603D01*
X142065533Y-101158040D01*
X142056163Y-101161854D01*
X142023390Y-101173685D01*
X142023388Y-101173686D01*
X142014945Y-101176734D01*
X142007696Y-101182030D01*
X142001973Y-101185073D01*
X141995352Y-101188942D01*
X141989899Y-101192430D01*
X141981725Y-101196146D01*
X141967700Y-101208231D01*
X141948517Y-101224760D01*
X141940596Y-101231049D01*
X141934545Y-101235469D01*
X141934533Y-101235479D01*
X141930613Y-101238343D01*
X141920597Y-101248359D01*
X141913750Y-101254717D01*
X141885556Y-101279010D01*
X141885554Y-101279012D01*
X141878758Y-101284868D01*
X141873878Y-101292397D01*
X141867973Y-101299166D01*
X141867890Y-101299094D01*
X141859532Y-101309424D01*
X140810360Y-102358595D01*
X140748048Y-102392621D01*
X140721265Y-102395500D01*
X137659339Y-102395500D01*
X137591218Y-102375498D01*
X137575520Y-102363576D01*
X137541951Y-102333667D01*
X137541945Y-102333663D01*
X137536275Y-102328611D01*
X137528889Y-102324700D01*
X137402988Y-102258039D01*
X137402989Y-102258039D01*
X137396274Y-102254484D01*
X137242633Y-102215892D01*
X137235034Y-102215852D01*
X137235033Y-102215852D01*
X137169181Y-102215507D01*
X137084221Y-102215062D01*
X137076841Y-102216834D01*
X137076839Y-102216834D01*
X136937563Y-102250271D01*
X136937560Y-102250272D01*
X136930184Y-102252043D01*
X136789414Y-102324700D01*
X136670039Y-102428838D01*
X136578950Y-102558444D01*
X136571124Y-102578517D01*
X136524286Y-102698651D01*
X136521406Y-102706037D01*
X136520414Y-102713570D01*
X136520414Y-102713571D01*
X136501834Y-102854704D01*
X136500729Y-102863096D01*
X129794500Y-102863096D01*
X129794500Y-101570964D01*
X130971148Y-101570964D01*
X130984424Y-101773522D01*
X130985845Y-101779118D01*
X130985846Y-101779123D01*
X131006119Y-101858945D01*
X131034392Y-101970269D01*
X131036809Y-101975512D01*
X131073915Y-102056002D01*
X131119377Y-102154616D01*
X131122710Y-102159332D01*
X131228801Y-102309448D01*
X131236533Y-102320389D01*
X131381938Y-102462035D01*
X131386742Y-102465245D01*
X131464157Y-102516972D01*
X131550720Y-102574812D01*
X131556023Y-102577090D01*
X131556026Y-102577092D01*
X131730811Y-102652185D01*
X131737228Y-102654942D01*
X131810244Y-102671464D01*
X131929579Y-102698467D01*
X131929584Y-102698468D01*
X131935216Y-102699742D01*
X131940987Y-102699969D01*
X131940989Y-102699969D01*
X132000756Y-102702317D01*
X132138053Y-102707712D01*
X132238499Y-102693148D01*
X132333231Y-102679413D01*
X132333236Y-102679412D01*
X132338945Y-102678584D01*
X132344409Y-102676729D01*
X132344414Y-102676728D01*
X132525693Y-102615192D01*
X132525698Y-102615190D01*
X132531165Y-102613334D01*
X132537019Y-102610056D01*
X132638499Y-102553224D01*
X132708276Y-102514147D01*
X132737873Y-102489532D01*
X132859913Y-102388031D01*
X132864345Y-102384345D01*
X132938946Y-102294648D01*
X132990453Y-102232718D01*
X132990455Y-102232715D01*
X132994147Y-102228276D01*
X133093334Y-102051165D01*
X133095190Y-102045698D01*
X133095192Y-102045693D01*
X133156728Y-101864414D01*
X133156729Y-101864409D01*
X133158584Y-101858945D01*
X133159412Y-101853236D01*
X133159413Y-101853231D01*
X133187179Y-101661727D01*
X133187712Y-101658053D01*
X133189232Y-101600000D01*
X133188893Y-101596305D01*
X133187121Y-101577031D01*
X133200805Y-101507365D01*
X133249981Y-101456157D01*
X133312592Y-101439500D01*
X134298746Y-101439500D01*
X134309805Y-101440736D01*
X134309854Y-101440133D01*
X134318798Y-101440853D01*
X134327555Y-101442834D01*
X134377395Y-101439742D01*
X134385197Y-101439500D01*
X134400069Y-101439500D01*
X134409418Y-101438161D01*
X134419467Y-101437132D01*
X134454252Y-101434974D01*
X134454253Y-101434974D01*
X134463212Y-101434418D01*
X134471652Y-101431371D01*
X134478016Y-101430053D01*
X134485457Y-101428197D01*
X134491659Y-101426383D01*
X134500546Y-101425111D01*
X134508717Y-101421396D01*
X134508720Y-101421395D01*
X134540471Y-101406959D01*
X134549835Y-101403147D01*
X134582615Y-101391313D01*
X134582617Y-101391312D01*
X134591054Y-101388266D01*
X134598298Y-101382975D01*
X134604003Y-101379941D01*
X134610678Y-101376040D01*
X134616107Y-101372568D01*
X134624275Y-101368854D01*
X134631071Y-101362998D01*
X134631076Y-101362995D01*
X134657491Y-101340235D01*
X134665406Y-101333950D01*
X134671451Y-101329534D01*
X134671455Y-101329531D01*
X134675387Y-101326658D01*
X134685410Y-101316635D01*
X134692257Y-101310277D01*
X134720440Y-101285993D01*
X134727242Y-101280132D01*
X134732126Y-101272597D01*
X134738025Y-101265835D01*
X134738109Y-101265908D01*
X134746466Y-101255579D01*
X135392518Y-100609527D01*
X136049639Y-99952405D01*
X136111951Y-99918380D01*
X136138734Y-99915500D01*
X147071264Y-99915500D01*
X147139385Y-99935502D01*
X147160359Y-99952404D01*
X147496881Y-100288925D01*
X147828263Y-100620307D01*
X147862288Y-100682620D01*
X147857224Y-100753435D01*
X147822245Y-100804135D01*
X147789738Y-100832643D01*
X147789734Y-100832647D01*
X147785392Y-100836455D01*
X147659720Y-100995869D01*
X147657031Y-101000980D01*
X147657029Y-101000983D01*
X147642594Y-101028420D01*
X147565203Y-101175515D01*
X147505007Y-101369378D01*
X147481148Y-101570964D01*
X147494424Y-101773522D01*
X147495845Y-101779118D01*
X147495846Y-101779123D01*
X147516119Y-101858945D01*
X147544392Y-101970269D01*
X147546809Y-101975512D01*
X147583915Y-102056002D01*
X147629377Y-102154616D01*
X147632710Y-102159332D01*
X147738801Y-102309448D01*
X147746533Y-102320389D01*
X147891938Y-102462035D01*
X147896742Y-102465245D01*
X147974157Y-102516972D01*
X148060720Y-102574812D01*
X148066023Y-102577090D01*
X148066026Y-102577092D01*
X148240811Y-102652185D01*
X148247228Y-102654942D01*
X148320244Y-102671464D01*
X148439579Y-102698467D01*
X148439584Y-102698468D01*
X148445216Y-102699742D01*
X148450987Y-102699969D01*
X148450989Y-102699969D01*
X148510756Y-102702317D01*
X148648053Y-102707712D01*
X148748499Y-102693148D01*
X148843231Y-102679413D01*
X148843236Y-102679412D01*
X148848945Y-102678584D01*
X148854409Y-102676729D01*
X148854414Y-102676728D01*
X149035693Y-102615192D01*
X149035698Y-102615190D01*
X149041165Y-102613334D01*
X149047019Y-102610056D01*
X149148499Y-102553224D01*
X149218276Y-102514147D01*
X149247873Y-102489532D01*
X149369913Y-102388031D01*
X149374345Y-102384345D01*
X149448946Y-102294648D01*
X149500453Y-102232718D01*
X149500455Y-102232715D01*
X149504147Y-102228276D01*
X149603334Y-102051165D01*
X149605190Y-102045698D01*
X149605192Y-102045693D01*
X149666728Y-101864414D01*
X149666729Y-101864409D01*
X149668584Y-101858945D01*
X149669412Y-101853236D01*
X149669413Y-101853231D01*
X149697179Y-101661727D01*
X149697712Y-101658053D01*
X149699232Y-101600000D01*
X149697095Y-101576743D01*
X150022028Y-101576743D01*
X150034542Y-101767676D01*
X150036343Y-101779046D01*
X150083443Y-101964502D01*
X150087284Y-101975348D01*
X150167392Y-102149116D01*
X150173146Y-102159083D01*
X150178658Y-102166882D01*
X150189247Y-102175270D01*
X150202548Y-102168242D01*
X150757978Y-101612812D01*
X150765592Y-101598868D01*
X150765461Y-101597035D01*
X150761210Y-101590420D01*
X150201504Y-101030714D01*
X150189124Y-101023954D01*
X150183158Y-101028420D01*
X150108356Y-101170595D01*
X150103953Y-101181228D01*
X150047213Y-101363959D01*
X150044819Y-101375221D01*
X150022329Y-101565241D01*
X150022028Y-101576743D01*
X149697095Y-101576743D01*
X149684598Y-101440736D01*
X149681187Y-101403613D01*
X149681186Y-101403610D01*
X149680658Y-101397859D01*
X149678812Y-101391313D01*
X149627125Y-101208046D01*
X149627124Y-101208044D01*
X149625557Y-101202487D01*
X149620363Y-101191953D01*
X149538331Y-101025609D01*
X149535776Y-101020428D01*
X149414320Y-100857779D01*
X149265258Y-100719987D01*
X149260375Y-100716906D01*
X149260371Y-100716903D01*
X149129317Y-100634215D01*
X149093581Y-100611667D01*
X149094013Y-100610982D01*
X149045840Y-100565488D01*
X149039958Y-100554122D01*
X149031961Y-100536535D01*
X149028146Y-100527163D01*
X149016315Y-100494390D01*
X149016314Y-100494388D01*
X149013266Y-100485945D01*
X149007970Y-100478696D01*
X149004927Y-100472973D01*
X149001058Y-100466352D01*
X148997570Y-100460899D01*
X148993854Y-100452725D01*
X148965240Y-100419517D01*
X148958951Y-100411596D01*
X148954531Y-100405545D01*
X148954521Y-100405533D01*
X148951657Y-100401613D01*
X148941641Y-100391597D01*
X148935283Y-100384750D01*
X148910990Y-100356556D01*
X148910988Y-100356554D01*
X148905132Y-100349758D01*
X148897603Y-100344878D01*
X148890834Y-100338973D01*
X148890906Y-100338890D01*
X148880576Y-100330532D01*
X147703083Y-99153038D01*
X147696134Y-99144340D01*
X147695673Y-99144732D01*
X147689854Y-99137895D01*
X147685065Y-99130305D01*
X147647626Y-99097240D01*
X147641939Y-99091894D01*
X147631432Y-99081387D01*
X147623872Y-99075721D01*
X147616041Y-99069345D01*
X147589918Y-99046274D01*
X147583190Y-99040332D01*
X147575063Y-99036517D01*
X147569638Y-99032953D01*
X147563061Y-99029001D01*
X147557391Y-99025897D01*
X147550209Y-99020514D01*
X147509146Y-99005120D01*
X147499845Y-99001201D01*
X147460157Y-98982568D01*
X147451287Y-98981187D01*
X147445095Y-98979294D01*
X147437656Y-98977342D01*
X147431342Y-98975954D01*
X147422940Y-98972804D01*
X147413994Y-98972139D01*
X147413993Y-98972139D01*
X147379218Y-98969555D01*
X147369173Y-98968402D01*
X147364889Y-98967735D01*
X147361772Y-98967249D01*
X147361770Y-98967249D01*
X147356961Y-98966500D01*
X147342794Y-98966500D01*
X147333456Y-98966154D01*
X147321480Y-98965264D01*
X147287395Y-98962731D01*
X147278619Y-98964604D01*
X147269662Y-98965215D01*
X147269655Y-98965105D01*
X147256439Y-98966500D01*
X135957254Y-98966500D01*
X135946195Y-98965264D01*
X135946146Y-98965867D01*
X135937202Y-98965147D01*
X135928445Y-98963166D01*
X135880281Y-98966154D01*
X135878605Y-98966258D01*
X135870803Y-98966500D01*
X135855931Y-98966500D01*
X135846582Y-98967839D01*
X135836533Y-98968868D01*
X135801748Y-98971026D01*
X135801747Y-98971026D01*
X135792788Y-98971582D01*
X135784348Y-98974629D01*
X135777984Y-98975947D01*
X135770536Y-98977805D01*
X135764339Y-98979617D01*
X135755454Y-98980889D01*
X135747288Y-98984602D01*
X135747284Y-98984603D01*
X135715533Y-98999040D01*
X135706163Y-99002854D01*
X135673390Y-99014685D01*
X135673388Y-99014686D01*
X135664945Y-99017734D01*
X135657696Y-99023030D01*
X135651973Y-99026073D01*
X135645352Y-99029942D01*
X135639899Y-99033430D01*
X135631725Y-99037146D01*
X135624921Y-99043008D01*
X135624922Y-99043008D01*
X135598517Y-99065760D01*
X135590596Y-99072049D01*
X135584545Y-99076469D01*
X135584533Y-99076479D01*
X135580613Y-99079343D01*
X135570597Y-99089359D01*
X135563750Y-99095717D01*
X135535556Y-99120010D01*
X135535554Y-99120012D01*
X135528758Y-99125868D01*
X135523878Y-99133397D01*
X135517973Y-99140166D01*
X135517890Y-99140094D01*
X135509532Y-99150424D01*
X134206360Y-100453595D01*
X134144048Y-100487621D01*
X134117265Y-100490500D01*
X132782261Y-100490500D01*
X132771196Y-100489264D01*
X132771148Y-100489866D01*
X132762202Y-100489146D01*
X132753446Y-100487165D01*
X132703590Y-100490258D01*
X132695788Y-100490500D01*
X132680931Y-100490500D01*
X132676492Y-100491136D01*
X132676487Y-100491136D01*
X132671599Y-100491836D01*
X132661543Y-100492866D01*
X132643066Y-100494013D01*
X132626747Y-100495025D01*
X132626745Y-100495025D01*
X132617789Y-100495581D01*
X132609351Y-100498627D01*
X132603006Y-100499941D01*
X132595535Y-100501804D01*
X132589334Y-100503617D01*
X132580454Y-100504889D01*
X132572286Y-100508603D01*
X132572285Y-100508603D01*
X132540535Y-100523039D01*
X132531183Y-100526846D01*
X132492098Y-100540956D01*
X132421234Y-100545273D01*
X132402632Y-100539475D01*
X132400404Y-100538586D01*
X132400400Y-100538585D01*
X132395039Y-100536446D01*
X132389379Y-100535320D01*
X132389375Y-100535319D01*
X132201613Y-100497971D01*
X132201610Y-100497971D01*
X132195946Y-100496844D01*
X132190171Y-100496768D01*
X132190167Y-100496768D01*
X132088793Y-100495441D01*
X131992971Y-100494187D01*
X131987274Y-100495166D01*
X131987273Y-100495166D01*
X131802873Y-100526852D01*
X131792910Y-100528564D01*
X131602463Y-100598824D01*
X131428010Y-100702612D01*
X131423670Y-100706418D01*
X131423666Y-100706421D01*
X131368004Y-100755236D01*
X131275392Y-100836455D01*
X131149720Y-100995869D01*
X131147031Y-101000980D01*
X131147029Y-101000983D01*
X131132594Y-101028420D01*
X131055203Y-101175515D01*
X130995007Y-101369378D01*
X130971148Y-101570964D01*
X129794500Y-101570964D01*
X129794500Y-99030964D01*
X130971148Y-99030964D01*
X130984424Y-99233522D01*
X130985845Y-99239118D01*
X130985846Y-99239123D01*
X131006119Y-99318945D01*
X131034392Y-99430269D01*
X131036809Y-99435512D01*
X131074010Y-99516208D01*
X131119377Y-99614616D01*
X131122710Y-99619332D01*
X131213340Y-99747571D01*
X131236533Y-99780389D01*
X131240675Y-99784424D01*
X131297637Y-99839913D01*
X131381938Y-99922035D01*
X131550720Y-100034812D01*
X131556023Y-100037090D01*
X131556026Y-100037092D01*
X131644707Y-100075192D01*
X131737228Y-100114942D01*
X131773591Y-100123170D01*
X131929579Y-100158467D01*
X131929584Y-100158468D01*
X131935216Y-100159742D01*
X131940987Y-100159969D01*
X131940989Y-100159969D01*
X132000756Y-100162317D01*
X132138053Y-100167712D01*
X132238499Y-100153148D01*
X132333231Y-100139413D01*
X132333236Y-100139412D01*
X132338945Y-100138584D01*
X132344409Y-100136729D01*
X132344414Y-100136728D01*
X132525693Y-100075192D01*
X132525698Y-100075190D01*
X132531165Y-100073334D01*
X132569862Y-100051663D01*
X132611291Y-100028461D01*
X132708276Y-99974147D01*
X132713548Y-99969763D01*
X132859913Y-99848031D01*
X132864345Y-99844345D01*
X132924802Y-99771654D01*
X132990453Y-99692718D01*
X132990455Y-99692715D01*
X132994147Y-99688276D01*
X133093334Y-99511165D01*
X133095190Y-99505698D01*
X133095192Y-99505693D01*
X133156728Y-99324414D01*
X133156729Y-99324409D01*
X133158584Y-99318945D01*
X133159412Y-99313236D01*
X133159413Y-99313231D01*
X133183844Y-99144732D01*
X133187712Y-99118053D01*
X133189232Y-99060000D01*
X133170658Y-98857859D01*
X133142863Y-98759306D01*
X133143623Y-98688313D01*
X133175036Y-98636009D01*
X133509639Y-98301405D01*
X133571952Y-98267380D01*
X133598735Y-98264500D01*
X139691997Y-98264500D01*
X139692767Y-98264502D01*
X139765059Y-98264944D01*
X139766330Y-98264581D01*
X139767516Y-98264500D01*
X149874291Y-98264500D01*
X149942412Y-98284502D01*
X149963386Y-98301405D01*
X151888595Y-100226613D01*
X151922620Y-100288925D01*
X151925500Y-100315708D01*
X151925500Y-100567961D01*
X151905498Y-100636082D01*
X151851842Y-100682575D01*
X151781568Y-100692679D01*
X151732264Y-100674523D01*
X151638231Y-100615193D01*
X151627989Y-100609974D01*
X151450260Y-100539068D01*
X151439232Y-100535801D01*
X151251561Y-100498471D01*
X151240115Y-100497268D01*
X151048792Y-100494764D01*
X151037312Y-100495667D01*
X150848737Y-100528070D01*
X150837617Y-100531050D01*
X150658095Y-100597279D01*
X150647717Y-100602229D01*
X150565303Y-100651260D01*
X150555705Y-100661593D01*
X150559192Y-100669982D01*
X151400115Y-101510905D01*
X151434141Y-101573217D01*
X151429076Y-101644032D01*
X151400115Y-101689095D01*
X150562146Y-102527064D01*
X150555950Y-102538411D01*
X150565830Y-102550898D01*
X150596159Y-102571163D01*
X150606264Y-102576650D01*
X150782077Y-102652185D01*
X150793020Y-102655740D01*
X150979646Y-102697970D01*
X150991055Y-102699472D01*
X151182258Y-102706984D01*
X151193740Y-102706382D01*
X151383106Y-102678926D01*
X151394302Y-102676238D01*
X151575497Y-102614730D01*
X151585994Y-102610056D01*
X151737934Y-102524966D01*
X151807142Y-102509133D01*
X151873924Y-102533230D01*
X151917077Y-102589607D01*
X151925500Y-102634901D01*
X151925500Y-102802746D01*
X151924264Y-102813805D01*
X151924867Y-102813854D01*
X151924147Y-102822798D01*
X151922166Y-102831555D01*
X151922722Y-102840515D01*
X151925258Y-102881395D01*
X151925500Y-102889197D01*
X151925500Y-102904069D01*
X151926135Y-102908500D01*
X151926838Y-102913409D01*
X151927868Y-102923467D01*
X151930026Y-102958252D01*
X151930582Y-102967212D01*
X151933629Y-102975652D01*
X151934947Y-102982016D01*
X151936803Y-102989457D01*
X151938617Y-102995659D01*
X151939889Y-103004546D01*
X151943604Y-103012717D01*
X151943605Y-103012720D01*
X151958041Y-103044471D01*
X151961853Y-103053835D01*
X151967171Y-103068564D01*
X151975185Y-103090763D01*
X151976734Y-103095054D01*
X151976115Y-103095278D01*
X151989057Y-103158126D01*
X151963509Y-103224367D01*
X151906205Y-103266279D01*
X151835337Y-103270557D01*
X151796251Y-103254304D01*
X151638464Y-103154748D01*
X151633581Y-103151667D01*
X151445039Y-103076446D01*
X151439379Y-103075320D01*
X151439375Y-103075319D01*
X151251613Y-103037971D01*
X151251610Y-103037971D01*
X151245946Y-103036844D01*
X151240171Y-103036768D01*
X151240167Y-103036768D01*
X151138793Y-103035441D01*
X151042971Y-103034187D01*
X151037274Y-103035166D01*
X151037273Y-103035166D01*
X150848607Y-103067585D01*
X150842910Y-103068564D01*
X150652463Y-103138824D01*
X150478010Y-103242612D01*
X150473670Y-103246418D01*
X150473666Y-103246421D01*
X150361108Y-103345133D01*
X150325392Y-103376455D01*
X150199720Y-103535869D01*
X150197031Y-103540980D01*
X150197029Y-103540983D01*
X150168490Y-103595227D01*
X150105203Y-103715515D01*
X150045007Y-103909378D01*
X150021148Y-104110964D01*
X150034424Y-104313522D01*
X150035845Y-104319118D01*
X150035846Y-104319123D01*
X150082971Y-104504674D01*
X150084392Y-104510269D01*
X150086809Y-104515512D01*
X150124007Y-104596200D01*
X150169377Y-104694616D01*
X150172710Y-104699332D01*
X150281112Y-104852718D01*
X150286533Y-104860389D01*
X150290675Y-104864424D01*
X150327534Y-104900330D01*
X150431938Y-105002035D01*
X150600720Y-105114812D01*
X150606023Y-105117090D01*
X150606026Y-105117092D01*
X150781921Y-105192662D01*
X150787228Y-105194942D01*
X150860244Y-105211464D01*
X150979579Y-105238467D01*
X150979584Y-105238468D01*
X150985216Y-105239742D01*
X150990987Y-105239969D01*
X150990989Y-105239969D01*
X151050756Y-105242317D01*
X151188053Y-105247712D01*
X151288499Y-105233148D01*
X151383231Y-105219413D01*
X151383236Y-105219412D01*
X151388945Y-105218584D01*
X151394409Y-105216729D01*
X151394414Y-105216728D01*
X151575693Y-105155192D01*
X151575698Y-105155190D01*
X151581165Y-105153334D01*
X151758276Y-105054147D01*
X151820934Y-105002035D01*
X151909913Y-104928031D01*
X151914345Y-104924345D01*
X151960699Y-104868611D01*
X152040453Y-104772718D01*
X152040455Y-104772715D01*
X152044147Y-104768276D01*
X152143334Y-104591165D01*
X152145190Y-104585698D01*
X152145192Y-104585693D01*
X152206728Y-104404414D01*
X152206729Y-104404409D01*
X152208584Y-104398945D01*
X152209412Y-104393236D01*
X152209413Y-104393231D01*
X152237179Y-104201727D01*
X152237712Y-104198053D01*
X152239232Y-104140000D01*
X152220658Y-103937859D01*
X152219090Y-103932299D01*
X152167125Y-103748046D01*
X152167124Y-103748044D01*
X152165557Y-103742487D01*
X152160363Y-103731953D01*
X152079004Y-103566974D01*
X152066814Y-103497032D01*
X152094373Y-103431602D01*
X152152932Y-103391459D01*
X152223897Y-103389348D01*
X152281105Y-103422150D01*
X152574644Y-103715688D01*
X152608669Y-103778001D01*
X152605882Y-103842147D01*
X152602812Y-103852036D01*
X152585007Y-103909378D01*
X152561148Y-104110964D01*
X152574424Y-104313522D01*
X152575845Y-104319118D01*
X152575846Y-104319123D01*
X152622971Y-104504674D01*
X152624392Y-104510269D01*
X152626809Y-104515512D01*
X152664007Y-104596200D01*
X152709377Y-104694616D01*
X152712710Y-104699332D01*
X152821112Y-104852718D01*
X152826533Y-104860389D01*
X152830675Y-104864424D01*
X152867534Y-104900330D01*
X152971938Y-105002035D01*
X153140720Y-105114812D01*
X153146023Y-105117090D01*
X153146026Y-105117092D01*
X153321921Y-105192662D01*
X153327228Y-105194942D01*
X153400244Y-105211464D01*
X153519579Y-105238467D01*
X153519584Y-105238468D01*
X153525216Y-105239742D01*
X153530987Y-105239969D01*
X153530989Y-105239969D01*
X153590756Y-105242317D01*
X153728053Y-105247712D01*
X153828499Y-105233148D01*
X153923231Y-105219413D01*
X153923236Y-105219412D01*
X153928945Y-105218584D01*
X153934409Y-105216729D01*
X153934414Y-105216728D01*
X154115693Y-105155192D01*
X154115698Y-105155190D01*
X154121165Y-105153334D01*
X154298276Y-105054147D01*
X154360934Y-105002035D01*
X154449913Y-104928031D01*
X154454345Y-104924345D01*
X154500699Y-104868611D01*
X154580453Y-104772718D01*
X154580455Y-104772715D01*
X154584147Y-104768276D01*
X154683334Y-104591165D01*
X154685190Y-104585698D01*
X154685192Y-104585693D01*
X154746728Y-104404414D01*
X154746729Y-104404409D01*
X154748584Y-104398945D01*
X154749412Y-104393236D01*
X154749413Y-104393231D01*
X154777179Y-104201727D01*
X154777712Y-104198053D01*
X154779232Y-104140000D01*
X154760658Y-103937859D01*
X154759090Y-103932299D01*
X154707125Y-103748046D01*
X154707124Y-103748044D01*
X154705557Y-103742487D01*
X154700363Y-103731953D01*
X154618331Y-103565609D01*
X154615776Y-103560428D01*
X154494320Y-103397779D01*
X154345258Y-103259987D01*
X154340375Y-103256906D01*
X154340371Y-103256903D01*
X154178464Y-103154748D01*
X154173581Y-103151667D01*
X153985039Y-103076446D01*
X153979379Y-103075320D01*
X153979375Y-103075319D01*
X153791613Y-103037971D01*
X153791610Y-103037971D01*
X153785946Y-103036844D01*
X153780171Y-103036768D01*
X153780167Y-103036768D01*
X153678793Y-103035441D01*
X153582971Y-103034187D01*
X153577274Y-103035166D01*
X153577273Y-103035166D01*
X153540003Y-103041570D01*
X153382910Y-103068564D01*
X153377496Y-103070561D01*
X153377490Y-103070563D01*
X153375813Y-103071182D01*
X153374967Y-103071239D01*
X153371908Y-103072059D01*
X153371747Y-103071458D01*
X153304980Y-103075993D01*
X153243108Y-103042064D01*
X152943931Y-102742886D01*
X152909906Y-102680574D01*
X152914971Y-102609758D01*
X152957518Y-102552923D01*
X153024038Y-102528112D01*
X153093413Y-102543204D01*
X153103029Y-102549026D01*
X153136157Y-102571161D01*
X153146266Y-102576651D01*
X153322077Y-102652185D01*
X153333020Y-102655740D01*
X153519646Y-102697970D01*
X153531055Y-102699472D01*
X153722258Y-102706984D01*
X153733740Y-102706382D01*
X153923106Y-102678926D01*
X153934302Y-102676238D01*
X154115493Y-102614731D01*
X154126002Y-102610052D01*
X154235091Y-102548959D01*
X154244955Y-102538881D01*
X154244774Y-102538411D01*
X155635950Y-102538411D01*
X155645830Y-102550898D01*
X155676159Y-102571163D01*
X155686264Y-102576650D01*
X155862077Y-102652185D01*
X155873020Y-102655740D01*
X156059646Y-102697970D01*
X156071055Y-102699472D01*
X156262258Y-102706984D01*
X156273740Y-102706382D01*
X156463106Y-102678926D01*
X156474302Y-102676238D01*
X156655493Y-102614731D01*
X156666002Y-102610052D01*
X156775091Y-102548959D01*
X156784955Y-102538881D01*
X156784774Y-102538411D01*
X158175950Y-102538411D01*
X158185830Y-102550898D01*
X158216159Y-102571163D01*
X158226264Y-102576650D01*
X158402077Y-102652185D01*
X158413020Y-102655740D01*
X158599646Y-102697970D01*
X158611055Y-102699472D01*
X158802258Y-102706984D01*
X158813740Y-102706382D01*
X159003106Y-102678926D01*
X159014302Y-102676238D01*
X159195493Y-102614731D01*
X159206002Y-102610052D01*
X159315091Y-102548959D01*
X159324955Y-102538881D01*
X159322000Y-102531210D01*
X158762812Y-101972022D01*
X158748868Y-101964408D01*
X158747035Y-101964539D01*
X158740420Y-101968790D01*
X158182146Y-102527064D01*
X158175950Y-102538411D01*
X156784774Y-102538411D01*
X156782000Y-102531210D01*
X156222812Y-101972022D01*
X156208868Y-101964408D01*
X156207035Y-101964539D01*
X156200420Y-101968790D01*
X155642146Y-102527064D01*
X155635950Y-102538411D01*
X154244774Y-102538411D01*
X154242000Y-102531210D01*
X153399885Y-101689095D01*
X153365859Y-101626783D01*
X153367694Y-101601132D01*
X154034408Y-101601132D01*
X154034539Y-101602965D01*
X154038790Y-101609580D01*
X154597295Y-102168085D01*
X154609675Y-102174845D01*
X154616255Y-102169919D01*
X154680052Y-102056002D01*
X154684731Y-102045493D01*
X154746238Y-101864302D01*
X154748926Y-101853106D01*
X154776678Y-101661699D01*
X154777308Y-101654318D01*
X154778633Y-101603704D01*
X154778390Y-101596305D01*
X154776593Y-101576743D01*
X155102028Y-101576743D01*
X155114542Y-101767676D01*
X155116343Y-101779046D01*
X155163443Y-101964502D01*
X155167284Y-101975348D01*
X155247392Y-102149116D01*
X155253146Y-102159083D01*
X155258658Y-102166882D01*
X155269247Y-102175270D01*
X155282548Y-102168242D01*
X155837978Y-101612812D01*
X155844356Y-101601132D01*
X156574408Y-101601132D01*
X156574539Y-101602965D01*
X156578790Y-101609580D01*
X157137295Y-102168085D01*
X157149675Y-102174845D01*
X157156255Y-102169919D01*
X157220052Y-102056002D01*
X157224731Y-102045493D01*
X157286238Y-101864302D01*
X157288926Y-101853106D01*
X157316678Y-101661699D01*
X157317308Y-101654318D01*
X157318633Y-101603704D01*
X157318390Y-101596305D01*
X157316593Y-101576743D01*
X157642028Y-101576743D01*
X157654542Y-101767676D01*
X157656343Y-101779046D01*
X157703443Y-101964502D01*
X157707284Y-101975348D01*
X157787392Y-102149116D01*
X157793146Y-102159083D01*
X157798658Y-102166882D01*
X157809247Y-102175270D01*
X157822548Y-102168242D01*
X158377978Y-101612812D01*
X158384356Y-101601132D01*
X159114408Y-101601132D01*
X159114539Y-101602965D01*
X159118790Y-101609580D01*
X159677295Y-102168085D01*
X159689675Y-102174845D01*
X159696255Y-102169919D01*
X159760052Y-102056002D01*
X159764731Y-102045493D01*
X159826238Y-101864302D01*
X159828926Y-101853106D01*
X159856678Y-101661699D01*
X159857308Y-101654318D01*
X159858633Y-101603704D01*
X159858390Y-101596305D01*
X159840693Y-101403707D01*
X159838595Y-101392386D01*
X159786658Y-101208231D01*
X159782533Y-101197484D01*
X159698998Y-101028092D01*
X159692010Y-101022847D01*
X159679591Y-101029619D01*
X159122022Y-101587188D01*
X159114408Y-101601132D01*
X158384356Y-101601132D01*
X158385592Y-101598868D01*
X158385461Y-101597035D01*
X158381210Y-101590420D01*
X157821504Y-101030714D01*
X157809124Y-101023954D01*
X157803158Y-101028420D01*
X157728356Y-101170595D01*
X157723953Y-101181228D01*
X157667213Y-101363959D01*
X157664819Y-101375221D01*
X157642329Y-101565241D01*
X157642028Y-101576743D01*
X157316593Y-101576743D01*
X157300693Y-101403707D01*
X157298595Y-101392386D01*
X157246658Y-101208231D01*
X157242533Y-101197484D01*
X157158998Y-101028092D01*
X157152010Y-101022847D01*
X157139591Y-101029619D01*
X156582022Y-101587188D01*
X156574408Y-101601132D01*
X155844356Y-101601132D01*
X155845592Y-101598868D01*
X155845461Y-101597035D01*
X155841210Y-101590420D01*
X155281504Y-101030714D01*
X155269124Y-101023954D01*
X155263158Y-101028420D01*
X155188356Y-101170595D01*
X155183953Y-101181228D01*
X155127213Y-101363959D01*
X155124819Y-101375221D01*
X155102329Y-101565241D01*
X155102028Y-101576743D01*
X154776593Y-101576743D01*
X154760693Y-101403707D01*
X154758595Y-101392386D01*
X154706658Y-101208231D01*
X154702533Y-101197484D01*
X154618998Y-101028092D01*
X154612010Y-101022847D01*
X154599591Y-101029619D01*
X154042022Y-101587188D01*
X154034408Y-101601132D01*
X153367694Y-101601132D01*
X153370924Y-101555968D01*
X153399885Y-101510905D01*
X154237381Y-100673409D01*
X154243833Y-100661593D01*
X155635705Y-100661593D01*
X155639192Y-100669982D01*
X156197188Y-101227978D01*
X156211132Y-101235592D01*
X156212965Y-101235461D01*
X156219580Y-101231210D01*
X156777381Y-100673409D01*
X156783833Y-100661593D01*
X158175705Y-100661593D01*
X158179192Y-100669982D01*
X158737188Y-101227978D01*
X158751132Y-101235592D01*
X158752965Y-101235461D01*
X158759580Y-101231210D01*
X159317381Y-100673409D01*
X159324141Y-100661029D01*
X159318111Y-100652974D01*
X159258239Y-100615197D01*
X159247988Y-100609974D01*
X159070260Y-100539068D01*
X159059232Y-100535801D01*
X158871561Y-100498471D01*
X158860115Y-100497268D01*
X158668792Y-100494764D01*
X158657312Y-100495667D01*
X158468737Y-100528070D01*
X158457617Y-100531050D01*
X158278095Y-100597279D01*
X158267717Y-100602229D01*
X158185303Y-100651260D01*
X158175705Y-100661593D01*
X156783833Y-100661593D01*
X156784141Y-100661029D01*
X156778111Y-100652974D01*
X156718239Y-100615197D01*
X156707988Y-100609974D01*
X156530260Y-100539068D01*
X156519232Y-100535801D01*
X156331561Y-100498471D01*
X156320115Y-100497268D01*
X156128792Y-100494764D01*
X156117312Y-100495667D01*
X155928737Y-100528070D01*
X155917617Y-100531050D01*
X155738095Y-100597279D01*
X155727717Y-100602229D01*
X155645303Y-100651260D01*
X155635705Y-100661593D01*
X154243833Y-100661593D01*
X154244141Y-100661029D01*
X154238111Y-100652974D01*
X154178239Y-100615197D01*
X154167988Y-100609974D01*
X153990260Y-100539068D01*
X153979232Y-100535801D01*
X153791561Y-100498471D01*
X153780115Y-100497268D01*
X153588792Y-100494764D01*
X153577312Y-100495667D01*
X153388737Y-100528070D01*
X153377617Y-100531050D01*
X153198095Y-100597279D01*
X153187717Y-100602229D01*
X153064923Y-100675284D01*
X152996153Y-100692924D01*
X152928763Y-100670584D01*
X152884149Y-100615356D01*
X152874500Y-100566999D01*
X152874500Y-100134235D01*
X152875736Y-100123170D01*
X152875134Y-100123122D01*
X152875854Y-100114176D01*
X152877835Y-100105420D01*
X152874742Y-100055564D01*
X152874500Y-100047762D01*
X152874500Y-100032905D01*
X152873164Y-100023573D01*
X152872133Y-100013511D01*
X152869975Y-99978721D01*
X152869975Y-99978719D01*
X152869419Y-99969763D01*
X152866373Y-99961325D01*
X152865059Y-99954980D01*
X152863196Y-99947509D01*
X152861383Y-99941308D01*
X152860111Y-99932428D01*
X152841961Y-99892508D01*
X152838157Y-99883166D01*
X152823267Y-99841920D01*
X152817971Y-99834671D01*
X152814946Y-99828981D01*
X152811047Y-99822308D01*
X152807570Y-99816870D01*
X152803854Y-99808699D01*
X152775238Y-99775488D01*
X152768951Y-99767570D01*
X152764536Y-99761527D01*
X152764534Y-99761524D01*
X152761658Y-99757588D01*
X152751641Y-99747571D01*
X152745283Y-99740724D01*
X152720990Y-99712530D01*
X152720988Y-99712528D01*
X152715132Y-99705732D01*
X152707603Y-99700852D01*
X152700834Y-99694947D01*
X152700906Y-99694864D01*
X152690576Y-99686506D01*
X150506109Y-97502039D01*
X150499159Y-97493342D01*
X150498699Y-97493734D01*
X150492881Y-97486898D01*
X150488091Y-97479305D01*
X150450652Y-97446240D01*
X150444965Y-97440894D01*
X150434458Y-97430387D01*
X150426898Y-97424721D01*
X150419067Y-97418345D01*
X150392944Y-97395274D01*
X150386216Y-97389332D01*
X150378089Y-97385517D01*
X150372664Y-97381953D01*
X150366087Y-97378001D01*
X150360417Y-97374897D01*
X150353235Y-97369514D01*
X150337684Y-97363684D01*
X150314948Y-97355161D01*
X150312172Y-97354120D01*
X150302871Y-97350201D01*
X150263183Y-97331568D01*
X150254313Y-97330187D01*
X150248121Y-97328294D01*
X150240682Y-97326342D01*
X150234368Y-97324954D01*
X150225966Y-97321804D01*
X150217020Y-97321139D01*
X150217019Y-97321139D01*
X150182244Y-97318555D01*
X150172199Y-97317402D01*
X150167915Y-97316735D01*
X150164798Y-97316249D01*
X150164796Y-97316249D01*
X150159987Y-97315500D01*
X150145820Y-97315500D01*
X150136482Y-97315154D01*
X150124506Y-97314264D01*
X150090421Y-97311731D01*
X150081645Y-97313604D01*
X150072688Y-97314215D01*
X150072681Y-97314105D01*
X150059465Y-97315500D01*
X140300500Y-97315500D01*
X140232379Y-97295498D01*
X140185886Y-97241842D01*
X140174500Y-97189500D01*
X140174500Y-92777261D01*
X140175736Y-92766196D01*
X140175134Y-92766148D01*
X140175854Y-92757202D01*
X140177835Y-92748446D01*
X140174742Y-92698590D01*
X140174500Y-92690788D01*
X140174500Y-92675931D01*
X140173164Y-92666599D01*
X140172133Y-92656537D01*
X140169975Y-92621747D01*
X140169975Y-92621745D01*
X140169419Y-92612789D01*
X140166373Y-92604351D01*
X140165059Y-92598006D01*
X140163196Y-92590535D01*
X140161383Y-92584334D01*
X140160111Y-92575454D01*
X140141961Y-92535534D01*
X140138157Y-92526192D01*
X140123267Y-92484946D01*
X140117976Y-92477704D01*
X140114947Y-92472006D01*
X140111054Y-92465345D01*
X140107568Y-92459895D01*
X140103854Y-92451725D01*
X140075237Y-92418513D01*
X140068951Y-92410596D01*
X140061658Y-92400613D01*
X140051635Y-92390590D01*
X140045277Y-92383743D01*
X140020993Y-92355560D01*
X140015132Y-92348758D01*
X140007597Y-92343874D01*
X140000835Y-92337975D01*
X140000908Y-92337891D01*
X139990579Y-92329534D01*
X136273083Y-88612038D01*
X136266133Y-88603341D01*
X136265673Y-88603733D01*
X136259855Y-88596897D01*
X136255065Y-88589305D01*
X136217626Y-88556240D01*
X136211939Y-88550894D01*
X136201432Y-88540387D01*
X136193872Y-88534721D01*
X136186041Y-88528345D01*
X136159918Y-88505274D01*
X136153190Y-88499332D01*
X136145063Y-88495517D01*
X136139638Y-88491953D01*
X136133061Y-88488001D01*
X136127391Y-88484897D01*
X136120209Y-88479514D01*
X136079146Y-88464120D01*
X136069845Y-88460201D01*
X136030157Y-88441568D01*
X136021287Y-88440187D01*
X136015095Y-88438294D01*
X136007656Y-88436342D01*
X136001342Y-88434954D01*
X135992940Y-88431804D01*
X135983994Y-88431139D01*
X135983993Y-88431139D01*
X135949218Y-88428555D01*
X135939173Y-88427402D01*
X135934889Y-88426735D01*
X135931772Y-88426249D01*
X135931770Y-88426249D01*
X135926961Y-88425500D01*
X135912794Y-88425500D01*
X135903456Y-88425154D01*
X135857395Y-88421731D01*
X135848619Y-88423604D01*
X135839662Y-88424215D01*
X135839655Y-88424105D01*
X135826439Y-88425500D01*
X133155943Y-88425500D01*
X133087822Y-88405498D01*
X133042938Y-88355229D01*
X133025776Y-88320428D01*
X132904320Y-88157779D01*
X132755258Y-88019987D01*
X132750375Y-88016906D01*
X132750371Y-88016903D01*
X132588464Y-87914748D01*
X132583581Y-87911667D01*
X132395039Y-87836446D01*
X132389379Y-87835320D01*
X132389375Y-87835319D01*
X132201613Y-87797971D01*
X132201610Y-87797971D01*
X132195946Y-87796844D01*
X132190171Y-87796768D01*
X132190167Y-87796768D01*
X132088793Y-87795441D01*
X131992971Y-87794187D01*
X131987274Y-87795166D01*
X131987273Y-87795166D01*
X131798607Y-87827585D01*
X131792910Y-87828564D01*
X131602463Y-87898824D01*
X131428010Y-88002612D01*
X131423670Y-88006418D01*
X131423666Y-88006421D01*
X131403723Y-88023911D01*
X131275392Y-88136455D01*
X131149720Y-88295869D01*
X131147031Y-88300980D01*
X131147029Y-88300983D01*
X131118490Y-88355227D01*
X131055203Y-88475515D01*
X130995007Y-88669378D01*
X130971148Y-88870964D01*
X130984424Y-89073522D01*
X131034392Y-89270269D01*
X131036809Y-89275512D01*
X131116959Y-89449371D01*
X131119377Y-89454616D01*
X131236533Y-89620389D01*
X131381938Y-89762035D01*
X131550720Y-89874812D01*
X131556023Y-89877090D01*
X131556026Y-89877092D01*
X131644707Y-89915192D01*
X131737228Y-89954942D01*
X131810244Y-89971464D01*
X131929579Y-89998467D01*
X131929584Y-89998468D01*
X131935216Y-89999742D01*
X131940987Y-89999969D01*
X131940989Y-89999969D01*
X132000756Y-90002317D01*
X132138053Y-90007712D01*
X132238499Y-89993148D01*
X132333231Y-89979413D01*
X132333236Y-89979412D01*
X132338945Y-89978584D01*
X132344409Y-89976729D01*
X132344414Y-89976728D01*
X132525693Y-89915192D01*
X132525698Y-89915190D01*
X132531165Y-89913334D01*
X132708276Y-89814147D01*
X132770934Y-89762035D01*
X132859913Y-89688031D01*
X132864345Y-89684345D01*
X132994147Y-89528276D01*
X133044181Y-89438934D01*
X133094918Y-89389272D01*
X133154115Y-89374500D01*
X135641265Y-89374500D01*
X135709386Y-89394502D01*
X135730360Y-89411405D01*
X139188595Y-92869640D01*
X139222621Y-92931952D01*
X139225500Y-92958735D01*
X139225500Y-97189500D01*
X139205498Y-97257621D01*
X139151842Y-97304114D01*
X139099500Y-97315500D01*
X133417254Y-97315500D01*
X133406195Y-97314264D01*
X133406146Y-97314867D01*
X133397202Y-97314147D01*
X133388445Y-97312166D01*
X133340281Y-97315154D01*
X133338605Y-97315258D01*
X133330803Y-97315500D01*
X133315931Y-97315500D01*
X133306582Y-97316839D01*
X133296533Y-97317868D01*
X133261748Y-97320026D01*
X133261747Y-97320026D01*
X133252788Y-97320582D01*
X133244348Y-97323629D01*
X133237984Y-97324947D01*
X133230536Y-97326805D01*
X133224339Y-97328617D01*
X133215454Y-97329889D01*
X133207288Y-97333602D01*
X133207284Y-97333603D01*
X133175533Y-97348040D01*
X133166163Y-97351854D01*
X133133392Y-97363684D01*
X133133389Y-97363686D01*
X133124945Y-97366734D01*
X133124289Y-97367213D01*
X133058778Y-97380707D01*
X132992536Y-97355161D01*
X132950621Y-97297858D01*
X132946340Y-97226991D01*
X132972282Y-97174566D01*
X132990453Y-97152717D01*
X132994147Y-97148276D01*
X133093334Y-96971165D01*
X133095190Y-96965698D01*
X133095192Y-96965693D01*
X133156728Y-96784414D01*
X133156729Y-96784409D01*
X133158584Y-96778945D01*
X133159412Y-96773236D01*
X133159413Y-96773231D01*
X133187179Y-96581727D01*
X133187712Y-96578053D01*
X133189232Y-96520000D01*
X133170658Y-96317859D01*
X133169090Y-96312299D01*
X133117125Y-96128046D01*
X133117124Y-96128044D01*
X133115557Y-96122487D01*
X133104978Y-96101033D01*
X133028331Y-95945609D01*
X133025776Y-95940428D01*
X132904320Y-95777779D01*
X132755258Y-95639987D01*
X132750375Y-95636906D01*
X132750371Y-95636903D01*
X132588464Y-95534748D01*
X132583581Y-95531667D01*
X132395039Y-95456446D01*
X132389379Y-95455320D01*
X132389375Y-95455319D01*
X132201613Y-95417971D01*
X132201610Y-95417971D01*
X132195946Y-95416844D01*
X132190171Y-95416768D01*
X132190167Y-95416768D01*
X132088793Y-95415441D01*
X131992971Y-95414187D01*
X131987274Y-95415166D01*
X131987273Y-95415166D01*
X131798607Y-95447585D01*
X131792910Y-95448564D01*
X131602463Y-95518824D01*
X131428010Y-95622612D01*
X131423670Y-95626418D01*
X131423666Y-95626421D01*
X131403723Y-95643911D01*
X131275392Y-95756455D01*
X131149720Y-95915869D01*
X131147031Y-95920980D01*
X131147029Y-95920983D01*
X131134073Y-95945609D01*
X131055203Y-96095515D01*
X130995007Y-96289378D01*
X130971148Y-96490964D01*
X130984424Y-96693522D01*
X130985845Y-96699118D01*
X130985846Y-96699123D01*
X131006119Y-96778945D01*
X131034392Y-96890269D01*
X131036809Y-96895512D01*
X131074010Y-96976208D01*
X131119377Y-97074616D01*
X131236533Y-97240389D01*
X131381938Y-97382035D01*
X131386742Y-97385245D01*
X131441292Y-97421694D01*
X131550720Y-97494812D01*
X131556023Y-97497090D01*
X131556026Y-97497092D01*
X131644707Y-97535192D01*
X131737228Y-97574942D01*
X131810244Y-97591464D01*
X131929579Y-97618467D01*
X131929584Y-97618468D01*
X131935216Y-97619742D01*
X131940987Y-97619969D01*
X131940989Y-97619969D01*
X132000756Y-97622317D01*
X132138053Y-97627712D01*
X132238499Y-97613148D01*
X132333231Y-97599413D01*
X132333236Y-97599412D01*
X132338945Y-97598584D01*
X132344409Y-97596729D01*
X132344414Y-97596728D01*
X132525693Y-97535192D01*
X132525698Y-97535190D01*
X132531165Y-97533334D01*
X132655642Y-97463624D01*
X132724848Y-97447791D01*
X132791631Y-97471888D01*
X132834783Y-97528265D01*
X132840606Y-97599022D01*
X132806301Y-97662655D01*
X132507278Y-97961677D01*
X132444966Y-97995702D01*
X132393602Y-97996160D01*
X132201613Y-97957971D01*
X132201610Y-97957971D01*
X132195946Y-97956844D01*
X132190171Y-97956768D01*
X132190167Y-97956768D01*
X132088793Y-97955441D01*
X131992971Y-97954187D01*
X131987274Y-97955166D01*
X131987273Y-97955166D01*
X131949382Y-97961677D01*
X131792910Y-97988564D01*
X131602463Y-98058824D01*
X131428010Y-98162612D01*
X131423670Y-98166418D01*
X131423666Y-98166421D01*
X131289022Y-98284502D01*
X131275392Y-98296455D01*
X131149720Y-98455869D01*
X131055203Y-98635515D01*
X130995007Y-98829378D01*
X130971148Y-99030964D01*
X129794500Y-99030964D01*
X129794500Y-93950964D01*
X130971148Y-93950964D01*
X130984424Y-94153522D01*
X130985845Y-94159118D01*
X130985846Y-94159123D01*
X131006119Y-94238945D01*
X131034392Y-94350269D01*
X131036809Y-94355512D01*
X131074010Y-94436208D01*
X131119377Y-94534616D01*
X131236533Y-94700389D01*
X131381938Y-94842035D01*
X131550720Y-94954812D01*
X131556023Y-94957090D01*
X131556026Y-94957092D01*
X131644707Y-94995192D01*
X131737228Y-95034942D01*
X131810244Y-95051464D01*
X131929579Y-95078467D01*
X131929584Y-95078468D01*
X131935216Y-95079742D01*
X131940987Y-95079969D01*
X131940989Y-95079969D01*
X132000756Y-95082317D01*
X132138053Y-95087712D01*
X132238499Y-95073148D01*
X132333231Y-95059413D01*
X132333236Y-95059412D01*
X132338945Y-95058584D01*
X132344409Y-95056729D01*
X132344414Y-95056728D01*
X132525693Y-94995192D01*
X132525698Y-94995190D01*
X132531165Y-94993334D01*
X132708276Y-94894147D01*
X132770934Y-94842035D01*
X132859913Y-94768031D01*
X132864345Y-94764345D01*
X132994147Y-94608276D01*
X133093334Y-94431165D01*
X133095190Y-94425698D01*
X133095192Y-94425693D01*
X133156728Y-94244414D01*
X133156729Y-94244409D01*
X133158584Y-94238945D01*
X133159412Y-94233236D01*
X133159413Y-94233231D01*
X133187179Y-94041727D01*
X133187712Y-94038053D01*
X133189232Y-93980000D01*
X133170658Y-93777859D01*
X133169090Y-93772299D01*
X133117125Y-93588046D01*
X133117124Y-93588044D01*
X133115557Y-93582487D01*
X133104978Y-93561033D01*
X133028331Y-93405609D01*
X133025776Y-93400428D01*
X132904320Y-93237779D01*
X132755258Y-93099987D01*
X132750375Y-93096906D01*
X132750371Y-93096903D01*
X132588464Y-92994748D01*
X132583581Y-92991667D01*
X132395039Y-92916446D01*
X132389379Y-92915320D01*
X132389375Y-92915319D01*
X132201613Y-92877971D01*
X132201610Y-92877971D01*
X132195946Y-92876844D01*
X132190171Y-92876768D01*
X132190167Y-92876768D01*
X132088793Y-92875441D01*
X131992971Y-92874187D01*
X131987274Y-92875166D01*
X131987273Y-92875166D01*
X131798607Y-92907585D01*
X131792910Y-92908564D01*
X131602463Y-92978824D01*
X131428010Y-93082612D01*
X131423670Y-93086418D01*
X131423666Y-93086421D01*
X131403723Y-93103911D01*
X131275392Y-93216455D01*
X131149720Y-93375869D01*
X131147031Y-93380980D01*
X131147029Y-93380983D01*
X131134073Y-93405609D01*
X131055203Y-93555515D01*
X130995007Y-93749378D01*
X130971148Y-93950964D01*
X129794500Y-93950964D01*
X129794500Y-91410964D01*
X130971148Y-91410964D01*
X130984424Y-91613522D01*
X130985845Y-91619118D01*
X130985846Y-91619123D01*
X131006119Y-91698945D01*
X131034392Y-91810269D01*
X131036809Y-91815512D01*
X131074010Y-91896208D01*
X131119377Y-91994616D01*
X131236533Y-92160389D01*
X131381938Y-92302035D01*
X131550720Y-92414812D01*
X131556023Y-92417090D01*
X131556026Y-92417092D01*
X131731921Y-92492662D01*
X131737228Y-92494942D01*
X131810244Y-92511464D01*
X131929579Y-92538467D01*
X131929584Y-92538468D01*
X131935216Y-92539742D01*
X131940987Y-92539969D01*
X131940989Y-92539969D01*
X132000756Y-92542317D01*
X132138053Y-92547712D01*
X132253755Y-92530936D01*
X132333231Y-92519413D01*
X132333236Y-92519412D01*
X132338945Y-92518584D01*
X132344409Y-92516729D01*
X132344414Y-92516728D01*
X132525693Y-92455192D01*
X132525698Y-92455190D01*
X132531165Y-92453334D01*
X132708276Y-92354147D01*
X132726561Y-92338940D01*
X132859913Y-92228031D01*
X132864345Y-92224345D01*
X132994147Y-92068276D01*
X133093334Y-91891165D01*
X133095190Y-91885698D01*
X133095192Y-91885693D01*
X133156728Y-91704414D01*
X133156729Y-91704409D01*
X133158584Y-91698945D01*
X133159412Y-91693236D01*
X133159413Y-91693231D01*
X133187179Y-91501727D01*
X133187712Y-91498053D01*
X133189232Y-91440000D01*
X133170658Y-91237859D01*
X133169090Y-91232299D01*
X133117125Y-91048046D01*
X133117124Y-91048044D01*
X133115557Y-91042487D01*
X133104978Y-91021033D01*
X133028331Y-90865609D01*
X133025776Y-90860428D01*
X132904320Y-90697779D01*
X132755258Y-90559987D01*
X132750375Y-90556906D01*
X132750371Y-90556903D01*
X132588464Y-90454748D01*
X132583581Y-90451667D01*
X132395039Y-90376446D01*
X132389379Y-90375320D01*
X132389375Y-90375319D01*
X132201613Y-90337971D01*
X132201610Y-90337971D01*
X132195946Y-90336844D01*
X132190171Y-90336768D01*
X132190167Y-90336768D01*
X132088793Y-90335441D01*
X131992971Y-90334187D01*
X131987274Y-90335166D01*
X131987273Y-90335166D01*
X131798607Y-90367585D01*
X131792910Y-90368564D01*
X131602463Y-90438824D01*
X131428010Y-90542612D01*
X131423670Y-90546418D01*
X131423666Y-90546421D01*
X131403723Y-90563911D01*
X131275392Y-90676455D01*
X131149720Y-90835869D01*
X131147031Y-90840980D01*
X131147029Y-90840983D01*
X131134073Y-90865609D01*
X131055203Y-91015515D01*
X130995007Y-91209378D01*
X130971148Y-91410964D01*
X129794500Y-91410964D01*
X129794500Y-86330964D01*
X130971148Y-86330964D01*
X130984424Y-86533522D01*
X130985845Y-86539118D01*
X130985846Y-86539123D01*
X131032971Y-86724674D01*
X131034392Y-86730269D01*
X131036809Y-86735512D01*
X131074010Y-86816208D01*
X131119377Y-86914616D01*
X131122710Y-86919332D01*
X131188303Y-87012144D01*
X131236533Y-87080389D01*
X131381938Y-87222035D01*
X131550720Y-87334812D01*
X131556023Y-87337090D01*
X131556026Y-87337092D01*
X131644707Y-87375192D01*
X131737228Y-87414942D01*
X131810244Y-87431464D01*
X131929579Y-87458467D01*
X131929584Y-87458468D01*
X131935216Y-87459742D01*
X131940987Y-87459969D01*
X131940989Y-87459969D01*
X132000756Y-87462317D01*
X132138053Y-87467712D01*
X132238499Y-87453148D01*
X132333231Y-87439413D01*
X132333236Y-87439412D01*
X132338945Y-87438584D01*
X132344409Y-87436729D01*
X132344414Y-87436728D01*
X132525693Y-87375192D01*
X132525698Y-87375190D01*
X132531165Y-87373334D01*
X132708276Y-87274147D01*
X132722884Y-87261998D01*
X132859913Y-87148031D01*
X132864345Y-87144345D01*
X132994147Y-86988276D01*
X133093334Y-86811165D01*
X133095190Y-86805698D01*
X133095192Y-86805693D01*
X133156728Y-86624414D01*
X133156729Y-86624409D01*
X133158584Y-86618945D01*
X133159412Y-86613236D01*
X133159413Y-86613231D01*
X133187179Y-86421727D01*
X133187712Y-86418053D01*
X133189232Y-86360000D01*
X133170658Y-86157859D01*
X133164480Y-86135955D01*
X133117125Y-85968046D01*
X133117124Y-85968044D01*
X133115557Y-85962487D01*
X133104978Y-85941033D01*
X133028331Y-85785609D01*
X133025776Y-85780428D01*
X132904320Y-85617779D01*
X132755258Y-85479987D01*
X132750375Y-85476906D01*
X132750371Y-85476903D01*
X132588464Y-85374748D01*
X132583581Y-85371667D01*
X132395039Y-85296446D01*
X132389379Y-85295320D01*
X132389375Y-85295319D01*
X132201613Y-85257971D01*
X132201610Y-85257971D01*
X132195946Y-85256844D01*
X132190171Y-85256768D01*
X132190167Y-85256768D01*
X132088793Y-85255441D01*
X131992971Y-85254187D01*
X131987274Y-85255166D01*
X131987273Y-85255166D01*
X131798607Y-85287585D01*
X131792910Y-85288564D01*
X131602463Y-85358824D01*
X131428010Y-85462612D01*
X131423670Y-85466418D01*
X131423666Y-85466421D01*
X131403723Y-85483911D01*
X131275392Y-85596455D01*
X131149720Y-85755869D01*
X131147031Y-85760980D01*
X131147029Y-85760983D01*
X131134073Y-85785609D01*
X131055203Y-85935515D01*
X130995007Y-86129378D01*
X130971148Y-86330964D01*
X129794500Y-86330964D01*
X129794500Y-85127476D01*
X129796921Y-85102894D01*
X129797065Y-85102170D01*
X129799486Y-85090000D01*
X129797065Y-85077829D01*
X129797065Y-85066188D01*
X129797544Y-85055206D01*
X129805065Y-84969241D01*
X129808968Y-84924636D01*
X129812781Y-84903011D01*
X129852889Y-84753327D01*
X129860401Y-84732688D01*
X129925893Y-84592240D01*
X129936875Y-84573219D01*
X130025762Y-84446275D01*
X130039880Y-84429451D01*
X130149451Y-84319880D01*
X130166275Y-84305762D01*
X130293219Y-84216875D01*
X130312240Y-84205893D01*
X130452688Y-84140401D01*
X130473327Y-84132889D01*
X130506943Y-84123881D01*
X130623015Y-84092780D01*
X130644636Y-84088968D01*
X130775207Y-84077544D01*
X130786188Y-84077065D01*
X130797829Y-84077065D01*
X130810000Y-84079486D01*
X130822897Y-84076921D01*
X130847476Y-84074500D01*
X132982874Y-84074500D01*
X133050995Y-84094502D01*
G37*
G04 #@! TD.AperFunction*
M02*
