%TF.GenerationSoftware,KiCad,Pcbnew,(6.0.9)*%
%TF.CreationDate,2022-11-19T16:43:42+01:00*%
%TF.ProjectId,Display Adapter,44697370-6c61-4792-9041-646170746572,V1.0*%
%TF.SameCoordinates,Original*%
%TF.FileFunction,Drillmap*%
%TF.FilePolarity,Positive*%
%FSLAX45Y45*%
G04 Gerber Fmt 4.5, Leading zero omitted, Abs format (unit mm)*
G04 Created by KiCad (PCBNEW (6.0.9)) date 2022-11-19 16:43:42*
%MOMM*%
%LPD*%
G01*
G04 APERTURE LIST*
%ADD10C,0.100000*%
%ADD11C,0.200000*%
G04 APERTURE END LIST*
D10*
X13335000Y-8382000D02*
G75*
G03*
X14097000Y-8382000I381000J0D01*
G01*
X12954000Y-12065000D02*
G75*
G03*
X13081000Y-12192000I127000J0D01*
G01*
X16637000Y-10795000D02*
X16256000Y-10795000D01*
X13081000Y-8382000D02*
G75*
G03*
X12954000Y-8509000I0J-127000D01*
G01*
X16764000Y-8509000D02*
G75*
G03*
X16637000Y-8382000I-127000J0D01*
G01*
X14097000Y-8382000D02*
X16637000Y-8382000D01*
X14097000Y-12192000D02*
G75*
G03*
X13335000Y-12192000I-381000J0D01*
G01*
X16764000Y-8509000D02*
X16764000Y-10668000D01*
X12954000Y-12065000D02*
X12954000Y-8509000D01*
X16129000Y-12192000D02*
X14097000Y-12192000D01*
X13335000Y-8382000D02*
X13081000Y-8382000D01*
X13335000Y-12192000D02*
X13081000Y-12192000D01*
X16256000Y-12065000D02*
X16256000Y-10795000D01*
X16637000Y-10795000D02*
G75*
G03*
X16764000Y-10668000I0J127000D01*
G01*
X16129000Y-12192000D02*
G75*
G03*
X16256000Y-12065000I0J127000D01*
G01*
D11*
X13206619Y-12507476D02*
X13206619Y-12307476D01*
X13254238Y-12307476D01*
X13282809Y-12317000D01*
X13301857Y-12336048D01*
X13311381Y-12355095D01*
X13320905Y-12393190D01*
X13320905Y-12421762D01*
X13311381Y-12459857D01*
X13301857Y-12478905D01*
X13282809Y-12497952D01*
X13254238Y-12507476D01*
X13206619Y-12507476D01*
X13406619Y-12507476D02*
X13406619Y-12374143D01*
X13406619Y-12412238D02*
X13416143Y-12393190D01*
X13425667Y-12383667D01*
X13444714Y-12374143D01*
X13463762Y-12374143D01*
X13530428Y-12507476D02*
X13530428Y-12374143D01*
X13530428Y-12307476D02*
X13520905Y-12317000D01*
X13530428Y-12326524D01*
X13539952Y-12317000D01*
X13530428Y-12307476D01*
X13530428Y-12326524D01*
X13654238Y-12507476D02*
X13635190Y-12497952D01*
X13625667Y-12478905D01*
X13625667Y-12307476D01*
X13759000Y-12507476D02*
X13739952Y-12497952D01*
X13730428Y-12478905D01*
X13730428Y-12307476D01*
X13987571Y-12507476D02*
X13987571Y-12307476D01*
X14054238Y-12450333D01*
X14120905Y-12307476D01*
X14120905Y-12507476D01*
X14301857Y-12507476D02*
X14301857Y-12402714D01*
X14292333Y-12383667D01*
X14273286Y-12374143D01*
X14235190Y-12374143D01*
X14216143Y-12383667D01*
X14301857Y-12497952D02*
X14282809Y-12507476D01*
X14235190Y-12507476D01*
X14216143Y-12497952D01*
X14206619Y-12478905D01*
X14206619Y-12459857D01*
X14216143Y-12440809D01*
X14235190Y-12431286D01*
X14282809Y-12431286D01*
X14301857Y-12421762D01*
X14397095Y-12374143D02*
X14397095Y-12574143D01*
X14397095Y-12383667D02*
X14416143Y-12374143D01*
X14454238Y-12374143D01*
X14473286Y-12383667D01*
X14482809Y-12393190D01*
X14492333Y-12412238D01*
X14492333Y-12469381D01*
X14482809Y-12488428D01*
X14473286Y-12497952D01*
X14454238Y-12507476D01*
X14416143Y-12507476D01*
X14397095Y-12497952D01*
X14578048Y-12488428D02*
X14587571Y-12497952D01*
X14578048Y-12507476D01*
X14568524Y-12497952D01*
X14578048Y-12488428D01*
X14578048Y-12507476D01*
X14578048Y-12383667D02*
X14587571Y-12393190D01*
X14578048Y-12402714D01*
X14568524Y-12393190D01*
X14578048Y-12383667D01*
X14578048Y-12402714D01*
M02*
