M48
; DRILL file {KiCad (5.1.9)-1} date 03/27/21 10:15:34
; FORMAT={-:-/ absolute / inch / decimal}
; #@! TF.CreationDate,2021-03-27T10:15:34+01:00
; #@! TF.GenerationSoftware,Kicad,Pcbnew,(5.1.9)-1
; #@! TF.FileFunction,Plated,1,2,PTH
FMAT,2
INCH
T1C0.0197
T2C0.0472
T3C0.0598
T4C0.0866
T5C0.1260
%
G90
G05
T1
X4.3055Y-2.3
X4.3055Y-4.8
X4.3332Y-2.2332
X4.3332Y-2.3668
X4.3332Y-4.7332
X4.3332Y-4.8668
X4.4Y-2.2055
X4.4Y-2.3945
X4.4Y-4.7055
X4.4Y-4.8945
X4.4668Y-2.2332
X4.4668Y-2.3668
X4.4668Y-4.7332
X4.4668Y-4.8668
X4.4945Y-2.3
X4.4945Y-4.8
X7.5055Y-2.3
X7.5055Y-4.8
X7.5332Y-2.2332
X7.5332Y-2.3668
X7.5332Y-4.7332
X7.5332Y-4.8668
X7.6Y-2.2055
X7.6Y-2.3945
X7.6Y-4.7055
X7.6Y-4.8945
X7.6668Y-2.2332
X7.6668Y-2.3668
X7.6668Y-4.7332
X7.6668Y-4.8668
X7.6945Y-2.3
X7.6945Y-4.8
T2
X4.496Y-2.723
X4.496Y-2.9887
X4.895Y-2.7225
X4.895Y-2.939
X4.895Y-3.943
X5.095Y-2.7225
X5.095Y-3.5414
X6.8667Y-3.2264
X6.8667Y-3.5414
X7.3163Y-2.7225
X7.3163Y-3.0768
T3
X4.8Y-2.3
X5.0Y-2.3
X5.2Y-2.3
X6.7Y-4.8
X6.9Y-4.8
X7.1Y-4.8
T4
X7.4881Y-4.1305
X7.4881Y-4.347
T5
X4.4Y-2.3
X4.4Y-4.8
X7.6Y-2.3
X7.6Y-4.8
T0
M30
