%FSLAX45Y45*%
G04 Gerber Fmt 4.5, Leading zero omitted, Abs format (unit mm)*
G04 Created by KiCad (PCBNEW (5.1.10)-1) date 2021-10-08 18:44:12*
%MOMM*%
%LPD*%
G01*
G04 APERTURE LIST*
%TA.AperFunction,Profile*%
%ADD10C,0.050000*%
%TD*%
%ADD11C,0.200000*%
%ADD12C,0.300000*%
G04 APERTURE END LIST*
D10*
X19304000Y-5334000D02*
G75*
G02*
X19812000Y-5842000I0J-508000D01*
G01*
X19812000Y-12192000D02*
G75*
G02*
X19304000Y-12700000I-508000J0D01*
G01*
X11176000Y-12700000D02*
G75*
G02*
X10668000Y-12192000I0J508000D01*
G01*
X10668000Y-5842000D02*
G75*
G02*
X11176000Y-5334000I508000J0D01*
G01*
X10668000Y-12192000D02*
X10668000Y-5842000D01*
X19304000Y-12700000D02*
X11176000Y-12700000D01*
X19812000Y-5842000D02*
X19812000Y-12192000D01*
X11176000Y-5334000D02*
X19304000Y-5334000D01*
D11*
D12*
X10951928Y-13168214D02*
X10951928Y-12868214D01*
X11023357Y-12868214D01*
X11066214Y-12882500D01*
X11094786Y-12911071D01*
X11109071Y-12939643D01*
X11123357Y-12996786D01*
X11123357Y-13039643D01*
X11109071Y-13096786D01*
X11094786Y-13125357D01*
X11066214Y-13153929D01*
X11023357Y-13168214D01*
X10951928Y-13168214D01*
X11251928Y-13168214D02*
X11251928Y-12968214D01*
X11251928Y-13025357D02*
X11266214Y-12996786D01*
X11280500Y-12982500D01*
X11309071Y-12968214D01*
X11337643Y-12968214D01*
X11437643Y-13168214D02*
X11437643Y-12968214D01*
X11437643Y-12868214D02*
X11423357Y-12882500D01*
X11437643Y-12896786D01*
X11451928Y-12882500D01*
X11437643Y-12868214D01*
X11437643Y-12896786D01*
X11623357Y-13168214D02*
X11594786Y-13153929D01*
X11580500Y-13125357D01*
X11580500Y-12868214D01*
X11780500Y-13168214D02*
X11751928Y-13153929D01*
X11737643Y-13125357D01*
X11737643Y-12868214D01*
X12123357Y-13168214D02*
X12123357Y-12868214D01*
X12223357Y-13082500D01*
X12323357Y-12868214D01*
X12323357Y-13168214D01*
X12594786Y-13168214D02*
X12594786Y-13011071D01*
X12580500Y-12982500D01*
X12551928Y-12968214D01*
X12494786Y-12968214D01*
X12466214Y-12982500D01*
X12594786Y-13153929D02*
X12566214Y-13168214D01*
X12494786Y-13168214D01*
X12466214Y-13153929D01*
X12451928Y-13125357D01*
X12451928Y-13096786D01*
X12466214Y-13068214D01*
X12494786Y-13053929D01*
X12566214Y-13053929D01*
X12594786Y-13039643D01*
X12737643Y-12968214D02*
X12737643Y-13268214D01*
X12737643Y-12982500D02*
X12766214Y-12968214D01*
X12823357Y-12968214D01*
X12851928Y-12982500D01*
X12866214Y-12996786D01*
X12880500Y-13025357D01*
X12880500Y-13111071D01*
X12866214Y-13139643D01*
X12851928Y-13153929D01*
X12823357Y-13168214D01*
X12766214Y-13168214D01*
X12737643Y-13153929D01*
X13009071Y-13139643D02*
X13023357Y-13153929D01*
X13009071Y-13168214D01*
X12994786Y-13153929D01*
X13009071Y-13139643D01*
X13009071Y-13168214D01*
X13009071Y-12982500D02*
X13023357Y-12996786D01*
X13009071Y-13011071D01*
X12994786Y-12996786D01*
X13009071Y-12982500D01*
X13009071Y-13011071D01*
M02*
