M48
; DRILL file {KiCad (5.1.10)-1} date 10/21/21 22:15:57
; FORMAT={-:-/ absolute / metric / decimal}
; #@! TF.CreationDate,2021-10-21T22:15:57+02:00
; #@! TF.GenerationSoftware,Kicad,Pcbnew,(5.1.10)-1
; #@! TF.FileFunction,Plated,1,2,PTH
FMAT,2
METRIC
T1C0.500
T2C1.200
T3C1.520
T4C2.200
T5C3.200
%
G90
G05
T1
X109.36Y-58.42
X109.36Y-121.92
X110.063Y-56.723
X110.063Y-60.117
X110.063Y-120.223
X110.063Y-123.617
X111.76Y-56.02
X111.76Y-60.82
X111.76Y-119.52
X111.76Y-124.32
X113.457Y-56.723
X113.457Y-60.117
X113.457Y-120.223
X113.457Y-123.617
X114.16Y-58.42
X114.16Y-121.92
X190.64Y-58.42
X190.64Y-121.92
X191.343Y-56.723
X191.343Y-60.117
X191.343Y-120.223
X191.343Y-123.617
X193.04Y-56.02
X193.04Y-60.82
X193.04Y-119.52
X193.04Y-124.32
X194.737Y-56.723
X194.737Y-60.117
X194.737Y-120.223
X194.737Y-123.617
X195.44Y-58.42
X195.44Y-121.92
T2
X114.198Y-69.164
X114.198Y-75.914
T3
X121.92Y-58.42
X127.0Y-58.42
X132.08Y-58.42
X170.18Y-121.92
X175.26Y-121.92
X180.34Y-121.92
T4
X190.198Y-104.914
X190.198Y-110.414
T5
X111.76Y-58.42
X111.76Y-121.92
X193.04Y-58.42
X193.04Y-121.92
T0
M30
