G04 #@! TF.GenerationSoftware,KiCad,Pcbnew,(5.1.9)-1*
G04 #@! TF.CreationDate,2021-03-27T10:15:32+01:00*
G04 #@! TF.ProjectId,IoT12 Power Supply,496f5431-3220-4506-9f77-657220537570,rev?*
G04 #@! TF.SameCoordinates,Original*
G04 #@! TF.FileFunction,Legend,Top*
G04 #@! TF.FilePolarity,Positive*
%FSLAX46Y46*%
G04 Gerber Fmt 4.6, Leading zero omitted, Abs format (unit mm)*
G04 Created by KiCad (PCBNEW (5.1.9)-1) date 2021-03-27 10:15:32*
%MOMM*%
%LPD*%
G01*
G04 APERTURE LIST*
%ADD10C,0.300000*%
%ADD11C,0.150000*%
%ADD12C,0.120000*%
G04 APERTURE END LIST*
D10*
X147162380Y-121777142D02*
X147829047Y-121777142D01*
X148114761Y-122824761D02*
X147162380Y-122824761D01*
X147162380Y-120824761D01*
X148114761Y-120824761D01*
X148876666Y-122253333D02*
X149829047Y-122253333D01*
X148686190Y-122824761D02*
X149352857Y-120824761D01*
X150019523Y-122824761D01*
X151829047Y-122824761D02*
X151162380Y-121872380D01*
X150686190Y-122824761D02*
X150686190Y-120824761D01*
X151448095Y-120824761D01*
X151638571Y-120920000D01*
X151733809Y-121015238D01*
X151829047Y-121205714D01*
X151829047Y-121491428D01*
X151733809Y-121681904D01*
X151638571Y-121777142D01*
X151448095Y-121872380D01*
X150686190Y-121872380D01*
X152400476Y-120824761D02*
X153543333Y-120824761D01*
X152971904Y-122824761D02*
X152971904Y-120824761D01*
X154210000Y-122824761D02*
X154210000Y-120824761D01*
X154210000Y-121777142D02*
X155352857Y-121777142D01*
X155352857Y-122824761D02*
X155352857Y-120824761D01*
X156400476Y-122729523D02*
X156400476Y-122824761D01*
X156305238Y-123015238D01*
X156210000Y-123110476D01*
X158781428Y-122062857D02*
X160305238Y-122062857D01*
X161352857Y-122729523D02*
X161352857Y-122824761D01*
X161257619Y-123015238D01*
X161162380Y-123110476D01*
X163733809Y-122062857D02*
X165257619Y-122062857D01*
X164495714Y-122824761D02*
X164495714Y-121300952D01*
X166638095Y-58562857D02*
X165971428Y-58562857D01*
X165685714Y-57515238D02*
X166638095Y-57515238D01*
X166638095Y-59515238D01*
X165685714Y-59515238D01*
X164923809Y-58086666D02*
X163971428Y-58086666D01*
X165114285Y-57515238D02*
X164447619Y-59515238D01*
X163780952Y-57515238D01*
X161971428Y-57515238D02*
X162638095Y-58467619D01*
X163114285Y-57515238D02*
X163114285Y-59515238D01*
X162352380Y-59515238D01*
X162161904Y-59420000D01*
X162066666Y-59324761D01*
X161971428Y-59134285D01*
X161971428Y-58848571D01*
X162066666Y-58658095D01*
X162161904Y-58562857D01*
X162352380Y-58467619D01*
X163114285Y-58467619D01*
X161400000Y-59515238D02*
X160257142Y-59515238D01*
X160828571Y-57515238D02*
X160828571Y-59515238D01*
X159590476Y-57515238D02*
X159590476Y-59515238D01*
X159590476Y-58562857D02*
X158447619Y-58562857D01*
X158447619Y-57515238D02*
X158447619Y-59515238D01*
X157400000Y-57610476D02*
X157400000Y-57515238D01*
X157495238Y-57324761D01*
X157590476Y-57229523D01*
X155114285Y-58086666D02*
X154161904Y-58086666D01*
X155304761Y-57515238D02*
X154638095Y-59515238D01*
X153971428Y-57515238D01*
X152161904Y-57705714D02*
X152257142Y-57610476D01*
X152542857Y-57515238D01*
X152733333Y-57515238D01*
X153019047Y-57610476D01*
X153209523Y-57800952D01*
X153304761Y-57991428D01*
X153400000Y-58372380D01*
X153400000Y-58658095D01*
X153304761Y-59039047D01*
X153209523Y-59229523D01*
X153019047Y-59420000D01*
X152733333Y-59515238D01*
X152542857Y-59515238D01*
X152257142Y-59420000D01*
X152161904Y-59324761D01*
X149876190Y-59610476D02*
X151590476Y-57039047D01*
X149209523Y-57515238D02*
X149209523Y-59515238D01*
X148066666Y-57515238D01*
X148066666Y-59515238D01*
X147019047Y-57610476D02*
X147019047Y-57515238D01*
X147114285Y-57324761D01*
X147209523Y-57229523D01*
X144733333Y-58086666D02*
X143780952Y-58086666D01*
X144923809Y-57515238D02*
X144257142Y-59515238D01*
X143590476Y-57515238D01*
X141780952Y-57705714D02*
X141876190Y-57610476D01*
X142161904Y-57515238D01*
X142352380Y-57515238D01*
X142638095Y-57610476D01*
X142828571Y-57800952D01*
X142923809Y-57991428D01*
X143019047Y-58372380D01*
X143019047Y-58658095D01*
X142923809Y-59039047D01*
X142828571Y-59229523D01*
X142638095Y-59420000D01*
X142352380Y-59515238D01*
X142161904Y-59515238D01*
X141876190Y-59420000D01*
X141780952Y-59324761D01*
X139495238Y-59610476D02*
X141209523Y-57039047D01*
X137876190Y-57515238D02*
X138828571Y-57515238D01*
X138828571Y-59515238D01*
D11*
X123571904Y-120722380D02*
X123571904Y-119722380D01*
X124190952Y-120722380D02*
X124095714Y-120674761D01*
X124048095Y-120627142D01*
X124000476Y-120531904D01*
X124000476Y-120246190D01*
X124048095Y-120150952D01*
X124095714Y-120103333D01*
X124190952Y-120055714D01*
X124333809Y-120055714D01*
X124429047Y-120103333D01*
X124476666Y-120150952D01*
X124524285Y-120246190D01*
X124524285Y-120531904D01*
X124476666Y-120627142D01*
X124429047Y-120674761D01*
X124333809Y-120722380D01*
X124190952Y-120722380D01*
X124810000Y-119722380D02*
X125381428Y-119722380D01*
X125095714Y-120722380D02*
X125095714Y-119722380D01*
X126238571Y-120722380D02*
X125667142Y-120722380D01*
X125952857Y-120722380D02*
X125952857Y-119722380D01*
X125857619Y-119865238D01*
X125762380Y-119960476D01*
X125667142Y-120008095D01*
X126619523Y-119817619D02*
X126667142Y-119770000D01*
X126762380Y-119722380D01*
X127000476Y-119722380D01*
X127095714Y-119770000D01*
X127143333Y-119817619D01*
X127190952Y-119912857D01*
X127190952Y-120008095D01*
X127143333Y-120150952D01*
X126571904Y-120722380D01*
X127190952Y-120722380D01*
X128381428Y-120722380D02*
X128381428Y-119722380D01*
X128762380Y-119722380D01*
X128857619Y-119770000D01*
X128905238Y-119817619D01*
X128952857Y-119912857D01*
X128952857Y-120055714D01*
X128905238Y-120150952D01*
X128857619Y-120198571D01*
X128762380Y-120246190D01*
X128381428Y-120246190D01*
X129524285Y-120722380D02*
X129429047Y-120674761D01*
X129381428Y-120627142D01*
X129333809Y-120531904D01*
X129333809Y-120246190D01*
X129381428Y-120150952D01*
X129429047Y-120103333D01*
X129524285Y-120055714D01*
X129667142Y-120055714D01*
X129762380Y-120103333D01*
X129810000Y-120150952D01*
X129857619Y-120246190D01*
X129857619Y-120531904D01*
X129810000Y-120627142D01*
X129762380Y-120674761D01*
X129667142Y-120722380D01*
X129524285Y-120722380D01*
X130190952Y-120055714D02*
X130381428Y-120722380D01*
X130571904Y-120246190D01*
X130762380Y-120722380D01*
X130952857Y-120055714D01*
X131714761Y-120674761D02*
X131619523Y-120722380D01*
X131429047Y-120722380D01*
X131333809Y-120674761D01*
X131286190Y-120579523D01*
X131286190Y-120198571D01*
X131333809Y-120103333D01*
X131429047Y-120055714D01*
X131619523Y-120055714D01*
X131714761Y-120103333D01*
X131762380Y-120198571D01*
X131762380Y-120293809D01*
X131286190Y-120389047D01*
X132190952Y-120722380D02*
X132190952Y-120055714D01*
X132190952Y-120246190D02*
X132238571Y-120150952D01*
X132286190Y-120103333D01*
X132381428Y-120055714D01*
X132476666Y-120055714D01*
X133524285Y-120674761D02*
X133667142Y-120722380D01*
X133905238Y-120722380D01*
X134000476Y-120674761D01*
X134048095Y-120627142D01*
X134095714Y-120531904D01*
X134095714Y-120436666D01*
X134048095Y-120341428D01*
X134000476Y-120293809D01*
X133905238Y-120246190D01*
X133714761Y-120198571D01*
X133619523Y-120150952D01*
X133571904Y-120103333D01*
X133524285Y-120008095D01*
X133524285Y-119912857D01*
X133571904Y-119817619D01*
X133619523Y-119770000D01*
X133714761Y-119722380D01*
X133952857Y-119722380D01*
X134095714Y-119770000D01*
X134952857Y-120055714D02*
X134952857Y-120722380D01*
X134524285Y-120055714D02*
X134524285Y-120579523D01*
X134571904Y-120674761D01*
X134667142Y-120722380D01*
X134810000Y-120722380D01*
X134905238Y-120674761D01*
X134952857Y-120627142D01*
X135429047Y-120055714D02*
X135429047Y-121055714D01*
X135429047Y-120103333D02*
X135524285Y-120055714D01*
X135714761Y-120055714D01*
X135810000Y-120103333D01*
X135857619Y-120150952D01*
X135905238Y-120246190D01*
X135905238Y-120531904D01*
X135857619Y-120627142D01*
X135810000Y-120674761D01*
X135714761Y-120722380D01*
X135524285Y-120722380D01*
X135429047Y-120674761D01*
X136333809Y-120055714D02*
X136333809Y-121055714D01*
X136333809Y-120103333D02*
X136429047Y-120055714D01*
X136619523Y-120055714D01*
X136714761Y-120103333D01*
X136762380Y-120150952D01*
X136810000Y-120246190D01*
X136810000Y-120531904D01*
X136762380Y-120627142D01*
X136714761Y-120674761D01*
X136619523Y-120722380D01*
X136429047Y-120722380D01*
X136333809Y-120674761D01*
X137381428Y-120722380D02*
X137286190Y-120674761D01*
X137238571Y-120579523D01*
X137238571Y-119722380D01*
X137667142Y-120055714D02*
X137905238Y-120722380D01*
X138143333Y-120055714D02*
X137905238Y-120722380D01*
X137810000Y-120960476D01*
X137762380Y-121008095D01*
X137667142Y-121055714D01*
X123714761Y-121467619D02*
X123762380Y-121420000D01*
X123857619Y-121372380D01*
X124095714Y-121372380D01*
X124190952Y-121420000D01*
X124238571Y-121467619D01*
X124286190Y-121562857D01*
X124286190Y-121658095D01*
X124238571Y-121800952D01*
X123667142Y-122372380D01*
X124286190Y-122372380D01*
X124905238Y-121372380D02*
X125000476Y-121372380D01*
X125095714Y-121420000D01*
X125143333Y-121467619D01*
X125190952Y-121562857D01*
X125238571Y-121753333D01*
X125238571Y-121991428D01*
X125190952Y-122181904D01*
X125143333Y-122277142D01*
X125095714Y-122324761D01*
X125000476Y-122372380D01*
X124905238Y-122372380D01*
X124810000Y-122324761D01*
X124762380Y-122277142D01*
X124714761Y-122181904D01*
X124667142Y-121991428D01*
X124667142Y-121753333D01*
X124714761Y-121562857D01*
X124762380Y-121467619D01*
X124810000Y-121420000D01*
X124905238Y-121372380D01*
X125619523Y-121467619D02*
X125667142Y-121420000D01*
X125762380Y-121372380D01*
X126000476Y-121372380D01*
X126095714Y-121420000D01*
X126143333Y-121467619D01*
X126190952Y-121562857D01*
X126190952Y-121658095D01*
X126143333Y-121800952D01*
X125571904Y-122372380D01*
X126190952Y-122372380D01*
X127143333Y-122372380D02*
X126571904Y-122372380D01*
X126857619Y-122372380D02*
X126857619Y-121372380D01*
X126762380Y-121515238D01*
X126667142Y-121610476D01*
X126571904Y-121658095D01*
X127571904Y-121991428D02*
X128333809Y-121991428D01*
X129000476Y-121372380D02*
X129095714Y-121372380D01*
X129190952Y-121420000D01*
X129238571Y-121467619D01*
X129286190Y-121562857D01*
X129333809Y-121753333D01*
X129333809Y-121991428D01*
X129286190Y-122181904D01*
X129238571Y-122277142D01*
X129190952Y-122324761D01*
X129095714Y-122372380D01*
X129000476Y-122372380D01*
X128905238Y-122324761D01*
X128857619Y-122277142D01*
X128810000Y-122181904D01*
X128762380Y-121991428D01*
X128762380Y-121753333D01*
X128810000Y-121562857D01*
X128857619Y-121467619D01*
X128905238Y-121420000D01*
X129000476Y-121372380D01*
X129714761Y-121467619D02*
X129762380Y-121420000D01*
X129857619Y-121372380D01*
X130095714Y-121372380D01*
X130190952Y-121420000D01*
X130238571Y-121467619D01*
X130286190Y-121562857D01*
X130286190Y-121658095D01*
X130238571Y-121800952D01*
X129667142Y-122372380D01*
X130286190Y-122372380D01*
X130714761Y-121991428D02*
X131476666Y-121991428D01*
X131905238Y-121467619D02*
X131952857Y-121420000D01*
X132048095Y-121372380D01*
X132286190Y-121372380D01*
X132381428Y-121420000D01*
X132429047Y-121467619D01*
X132476666Y-121562857D01*
X132476666Y-121658095D01*
X132429047Y-121800952D01*
X131857619Y-122372380D01*
X132476666Y-122372380D01*
X133333809Y-121372380D02*
X133143333Y-121372380D01*
X133048095Y-121420000D01*
X133000476Y-121467619D01*
X132905238Y-121610476D01*
X132857619Y-121800952D01*
X132857619Y-122181904D01*
X132905238Y-122277142D01*
X132952857Y-122324761D01*
X133048095Y-122372380D01*
X133238571Y-122372380D01*
X133333809Y-122324761D01*
X133381428Y-122277142D01*
X133429047Y-122181904D01*
X133429047Y-121943809D01*
X133381428Y-121848571D01*
X133333809Y-121800952D01*
X133238571Y-121753333D01*
X133048095Y-121753333D01*
X132952857Y-121800952D01*
X132905238Y-121848571D01*
X132857619Y-121943809D01*
X133905238Y-122324761D02*
X133905238Y-122372380D01*
X133857619Y-122467619D01*
X133810000Y-122515238D01*
X134952857Y-121372380D02*
X135286190Y-122372380D01*
X135619523Y-121372380D01*
X136476666Y-122372380D02*
X135905238Y-122372380D01*
X136190952Y-122372380D02*
X136190952Y-121372380D01*
X136095714Y-121515238D01*
X136000476Y-121610476D01*
X135905238Y-121658095D01*
X136905238Y-122277142D02*
X136952857Y-122324761D01*
X136905238Y-122372380D01*
X136857619Y-122324761D01*
X136905238Y-122277142D01*
X136905238Y-122372380D01*
X137571904Y-121372380D02*
X137667142Y-121372380D01*
X137762380Y-121420000D01*
X137810000Y-121467619D01*
X137857619Y-121562857D01*
X137905238Y-121753333D01*
X137905238Y-121991428D01*
X137857619Y-122181904D01*
X137810000Y-122277142D01*
X137762380Y-122324761D01*
X137667142Y-122372380D01*
X137571904Y-122372380D01*
X137476666Y-122324761D01*
X137429047Y-122277142D01*
X137381428Y-122181904D01*
X137333809Y-121991428D01*
X137333809Y-121753333D01*
X137381428Y-121562857D01*
X137429047Y-121467619D01*
X137476666Y-121420000D01*
X137571904Y-121372380D01*
X123000476Y-124022380D02*
X123000476Y-123022380D01*
X123429047Y-124022380D02*
X123429047Y-123498571D01*
X123381428Y-123403333D01*
X123286190Y-123355714D01*
X123143333Y-123355714D01*
X123048095Y-123403333D01*
X123000476Y-123450952D01*
X123762380Y-123355714D02*
X124143333Y-123355714D01*
X123905238Y-123022380D02*
X123905238Y-123879523D01*
X123952857Y-123974761D01*
X124048095Y-124022380D01*
X124143333Y-124022380D01*
X124333809Y-123355714D02*
X124714761Y-123355714D01*
X124476666Y-123022380D02*
X124476666Y-123879523D01*
X124524285Y-123974761D01*
X124619523Y-124022380D01*
X124714761Y-124022380D01*
X125048095Y-123355714D02*
X125048095Y-124355714D01*
X125048095Y-123403333D02*
X125143333Y-123355714D01*
X125333809Y-123355714D01*
X125429047Y-123403333D01*
X125476666Y-123450952D01*
X125524285Y-123546190D01*
X125524285Y-123831904D01*
X125476666Y-123927142D01*
X125429047Y-123974761D01*
X125333809Y-124022380D01*
X125143333Y-124022380D01*
X125048095Y-123974761D01*
X125905238Y-123974761D02*
X126000476Y-124022380D01*
X126190952Y-124022380D01*
X126286190Y-123974761D01*
X126333809Y-123879523D01*
X126333809Y-123831904D01*
X126286190Y-123736666D01*
X126190952Y-123689047D01*
X126048095Y-123689047D01*
X125952857Y-123641428D01*
X125905238Y-123546190D01*
X125905238Y-123498571D01*
X125952857Y-123403333D01*
X126048095Y-123355714D01*
X126190952Y-123355714D01*
X126286190Y-123403333D01*
X126762380Y-123927142D02*
X126810000Y-123974761D01*
X126762380Y-124022380D01*
X126714761Y-123974761D01*
X126762380Y-123927142D01*
X126762380Y-124022380D01*
X126762380Y-123403333D02*
X126810000Y-123450952D01*
X126762380Y-123498571D01*
X126714761Y-123450952D01*
X126762380Y-123403333D01*
X126762380Y-123498571D01*
X127952857Y-122974761D02*
X127095714Y-124260476D01*
X129000476Y-122974761D02*
X128143333Y-124260476D01*
X129762380Y-124022380D02*
X129762380Y-123498571D01*
X129714761Y-123403333D01*
X129619523Y-123355714D01*
X129429047Y-123355714D01*
X129333809Y-123403333D01*
X129762380Y-123974761D02*
X129667142Y-124022380D01*
X129429047Y-124022380D01*
X129333809Y-123974761D01*
X129286190Y-123879523D01*
X129286190Y-123784285D01*
X129333809Y-123689047D01*
X129429047Y-123641428D01*
X129667142Y-123641428D01*
X129762380Y-123593809D01*
X130095714Y-123355714D02*
X130476666Y-123355714D01*
X130238571Y-123022380D02*
X130238571Y-123879523D01*
X130286190Y-123974761D01*
X130381428Y-124022380D01*
X130476666Y-124022380D01*
X130952857Y-124022380D02*
X130857619Y-123974761D01*
X130810000Y-123927142D01*
X130762380Y-123831904D01*
X130762380Y-123546190D01*
X130810000Y-123450952D01*
X130857619Y-123403333D01*
X130952857Y-123355714D01*
X131095714Y-123355714D01*
X131190952Y-123403333D01*
X131238571Y-123450952D01*
X131286190Y-123546190D01*
X131286190Y-123831904D01*
X131238571Y-123927142D01*
X131190952Y-123974761D01*
X131095714Y-124022380D01*
X130952857Y-124022380D01*
X131857619Y-124022380D02*
X131762380Y-123974761D01*
X131714761Y-123927142D01*
X131667142Y-123831904D01*
X131667142Y-123546190D01*
X131714761Y-123450952D01*
X131762380Y-123403333D01*
X131857619Y-123355714D01*
X132000476Y-123355714D01*
X132095714Y-123403333D01*
X132143333Y-123450952D01*
X132190952Y-123546190D01*
X132190952Y-123831904D01*
X132143333Y-123927142D01*
X132095714Y-123974761D01*
X132000476Y-124022380D01*
X131857619Y-124022380D01*
X132619523Y-124022380D02*
X132619523Y-123355714D01*
X132619523Y-123450952D02*
X132667142Y-123403333D01*
X132762380Y-123355714D01*
X132905238Y-123355714D01*
X133000476Y-123403333D01*
X133048095Y-123498571D01*
X133048095Y-124022380D01*
X133048095Y-123498571D02*
X133095714Y-123403333D01*
X133190952Y-123355714D01*
X133333809Y-123355714D01*
X133429047Y-123403333D01*
X133476666Y-123498571D01*
X133476666Y-124022380D01*
X133952857Y-123355714D02*
X133952857Y-124022380D01*
X133952857Y-123450952D02*
X134000476Y-123403333D01*
X134095714Y-123355714D01*
X134238571Y-123355714D01*
X134333809Y-123403333D01*
X134381428Y-123498571D01*
X134381428Y-124022380D01*
X135238571Y-123974761D02*
X135143333Y-124022380D01*
X134952857Y-124022380D01*
X134857619Y-123974761D01*
X134810000Y-123879523D01*
X134810000Y-123498571D01*
X134857619Y-123403333D01*
X134952857Y-123355714D01*
X135143333Y-123355714D01*
X135238571Y-123403333D01*
X135286190Y-123498571D01*
X135286190Y-123593809D01*
X134810000Y-123689047D01*
X135571904Y-123355714D02*
X135952857Y-123355714D01*
X135714761Y-123022380D02*
X135714761Y-123879523D01*
X135762380Y-123974761D01*
X135857619Y-124022380D01*
X135952857Y-124022380D01*
X136286190Y-123927142D02*
X136333809Y-123974761D01*
X136286190Y-124022380D01*
X136238571Y-123974761D01*
X136286190Y-123927142D01*
X136286190Y-124022380D01*
X136762380Y-123355714D02*
X136762380Y-124022380D01*
X136762380Y-123450952D02*
X136810000Y-123403333D01*
X136905238Y-123355714D01*
X137048095Y-123355714D01*
X137143333Y-123403333D01*
X137190952Y-123498571D01*
X137190952Y-124022380D01*
X138048095Y-123974761D02*
X137952857Y-124022380D01*
X137762380Y-124022380D01*
X137667142Y-123974761D01*
X137619523Y-123879523D01*
X137619523Y-123498571D01*
X137667142Y-123403333D01*
X137762380Y-123355714D01*
X137952857Y-123355714D01*
X138048095Y-123403333D01*
X138095714Y-123498571D01*
X138095714Y-123593809D01*
X137619523Y-123689047D01*
X138381428Y-123355714D02*
X138762380Y-123355714D01*
X138524285Y-123022380D02*
X138524285Y-123879523D01*
X138571904Y-123974761D01*
X138667142Y-124022380D01*
X138762380Y-124022380D01*
D12*
X190033000Y-64451500D02*
X120133000Y-64451500D01*
X120133000Y-103851500D02*
X190033000Y-103851500D01*
X190033000Y-103851500D02*
X190033000Y-64451500D01*
X120133000Y-64451500D02*
X120133000Y-103851500D01*
X119777000Y-67935500D02*
X119777000Y-70435500D01*
X185520000Y-122147064D02*
X185520000Y-121692936D01*
X184050000Y-122147064D02*
X184050000Y-121692936D01*
X188285000Y-123780000D02*
X188285000Y-120920000D01*
X186365000Y-123780000D02*
X188285000Y-123780000D01*
X186365000Y-120920000D02*
X186365000Y-123780000D01*
X125893000Y-65831500D02*
X125893000Y-93271500D01*
X125893000Y-93271500D02*
X178533000Y-93271500D01*
X125893000Y-65831500D02*
X178533000Y-65831500D01*
X178533000Y-65831500D02*
X178533000Y-93271500D01*
X130413000Y-65501500D02*
X128413000Y-65501500D01*
X196098400Y-63964200D02*
X108698400Y-63964200D01*
X108698400Y-116364200D02*
X196098400Y-116364200D01*
X196098400Y-116364200D02*
X196098400Y-63964200D01*
X108698400Y-63964200D02*
X108698400Y-116364200D01*
X108210000Y-77220000D02*
X108210000Y-74720000D01*
X167640000Y-125730000D02*
X182880000Y-125730000D01*
X167640000Y-118110000D02*
X182880000Y-118110000D01*
X167640000Y-124460000D02*
X182880000Y-124460000D01*
X182880000Y-125730000D02*
X182880000Y-118110000D01*
X167640000Y-125730000D02*
X167640000Y-118110000D01*
X134620000Y-54610000D02*
X119380000Y-54610000D01*
X134620000Y-62230000D02*
X119380000Y-62230000D01*
X134620000Y-55880000D02*
X119380000Y-55880000D01*
X119380000Y-54610000D02*
X119380000Y-62230000D01*
X134620000Y-54610000D02*
X134620000Y-62230000D01*
D11*
X180538714Y-106193880D02*
X180538714Y-105193880D01*
X180919666Y-105193880D01*
X181014904Y-105241500D01*
X181062523Y-105289119D01*
X181110142Y-105384357D01*
X181110142Y-105527214D01*
X181062523Y-105622452D01*
X181014904Y-105670071D01*
X180919666Y-105717690D01*
X180538714Y-105717690D01*
X181491095Y-106146261D02*
X181633952Y-106193880D01*
X181872047Y-106193880D01*
X181967285Y-106146261D01*
X182014904Y-106098642D01*
X182062523Y-106003404D01*
X182062523Y-105908166D01*
X182014904Y-105812928D01*
X181967285Y-105765309D01*
X181872047Y-105717690D01*
X181681571Y-105670071D01*
X181586333Y-105622452D01*
X181538714Y-105574833D01*
X181491095Y-105479595D01*
X181491095Y-105384357D01*
X181538714Y-105289119D01*
X181586333Y-105241500D01*
X181681571Y-105193880D01*
X181919666Y-105193880D01*
X182062523Y-105241500D01*
X182443476Y-105289119D02*
X182491095Y-105241500D01*
X182586333Y-105193880D01*
X182824428Y-105193880D01*
X182919666Y-105241500D01*
X182967285Y-105289119D01*
X183014904Y-105384357D01*
X183014904Y-105479595D01*
X182967285Y-105622452D01*
X182395857Y-106193880D01*
X183014904Y-106193880D01*
X184618333Y-125166380D02*
X184285000Y-124690190D01*
X184046904Y-125166380D02*
X184046904Y-124166380D01*
X184427857Y-124166380D01*
X184523095Y-124214000D01*
X184570714Y-124261619D01*
X184618333Y-124356857D01*
X184618333Y-124499714D01*
X184570714Y-124594952D01*
X184523095Y-124642571D01*
X184427857Y-124690190D01*
X184046904Y-124690190D01*
X184999285Y-124261619D02*
X185046904Y-124214000D01*
X185142142Y-124166380D01*
X185380238Y-124166380D01*
X185475476Y-124214000D01*
X185523095Y-124261619D01*
X185570714Y-124356857D01*
X185570714Y-124452095D01*
X185523095Y-124594952D01*
X184951666Y-125166380D01*
X185570714Y-125166380D01*
X186586904Y-125166380D02*
X186586904Y-124166380D01*
X186825000Y-124166380D01*
X186967857Y-124214000D01*
X187063095Y-124309238D01*
X187110714Y-124404476D01*
X187158333Y-124594952D01*
X187158333Y-124737809D01*
X187110714Y-124928285D01*
X187063095Y-125023523D01*
X186967857Y-125118761D01*
X186825000Y-125166380D01*
X186586904Y-125166380D01*
X187539285Y-124261619D02*
X187586904Y-124214000D01*
X187682142Y-124166380D01*
X187920238Y-124166380D01*
X188015476Y-124214000D01*
X188063095Y-124261619D01*
X188110714Y-124356857D01*
X188110714Y-124452095D01*
X188063095Y-124594952D01*
X187491666Y-125166380D01*
X188110714Y-125166380D01*
X175128714Y-95243880D02*
X175128714Y-94243880D01*
X175509666Y-94243880D01*
X175604904Y-94291500D01*
X175652523Y-94339119D01*
X175700142Y-94434357D01*
X175700142Y-94577214D01*
X175652523Y-94672452D01*
X175604904Y-94720071D01*
X175509666Y-94767690D01*
X175128714Y-94767690D01*
X176081095Y-95196261D02*
X176223952Y-95243880D01*
X176462047Y-95243880D01*
X176557285Y-95196261D01*
X176604904Y-95148642D01*
X176652523Y-95053404D01*
X176652523Y-94958166D01*
X176604904Y-94862928D01*
X176557285Y-94815309D01*
X176462047Y-94767690D01*
X176271571Y-94720071D01*
X176176333Y-94672452D01*
X176128714Y-94624833D01*
X176081095Y-94529595D01*
X176081095Y-94434357D01*
X176128714Y-94339119D01*
X176176333Y-94291500D01*
X176271571Y-94243880D01*
X176509666Y-94243880D01*
X176652523Y-94291500D01*
X176985857Y-94243880D02*
X177604904Y-94243880D01*
X177271571Y-94624833D01*
X177414428Y-94624833D01*
X177509666Y-94672452D01*
X177557285Y-94720071D01*
X177604904Y-94815309D01*
X177604904Y-95053404D01*
X177557285Y-95148642D01*
X177509666Y-95196261D01*
X177414428Y-95243880D01*
X177128714Y-95243880D01*
X177033476Y-95196261D01*
X176985857Y-95148642D01*
X182300714Y-63063380D02*
X182300714Y-62063380D01*
X182681666Y-62063380D01*
X182776904Y-62111000D01*
X182824523Y-62158619D01*
X182872142Y-62253857D01*
X182872142Y-62396714D01*
X182824523Y-62491952D01*
X182776904Y-62539571D01*
X182681666Y-62587190D01*
X182300714Y-62587190D01*
X183253095Y-63015761D02*
X183395952Y-63063380D01*
X183634047Y-63063380D01*
X183729285Y-63015761D01*
X183776904Y-62968142D01*
X183824523Y-62872904D01*
X183824523Y-62777666D01*
X183776904Y-62682428D01*
X183729285Y-62634809D01*
X183634047Y-62587190D01*
X183443571Y-62539571D01*
X183348333Y-62491952D01*
X183300714Y-62444333D01*
X183253095Y-62349095D01*
X183253095Y-62253857D01*
X183300714Y-62158619D01*
X183348333Y-62111000D01*
X183443571Y-62063380D01*
X183681666Y-62063380D01*
X183824523Y-62111000D01*
X184776904Y-63063380D02*
X184205476Y-63063380D01*
X184491190Y-63063380D02*
X184491190Y-62063380D01*
X184395952Y-62206238D01*
X184300714Y-62301476D01*
X184205476Y-62349095D01*
X183816666Y-125182380D02*
X183816666Y-125896666D01*
X183769047Y-126039523D01*
X183673809Y-126134761D01*
X183530952Y-126182380D01*
X183435714Y-126182380D01*
X184245238Y-125277619D02*
X184292857Y-125230000D01*
X184388095Y-125182380D01*
X184626190Y-125182380D01*
X184721428Y-125230000D01*
X184769047Y-125277619D01*
X184816666Y-125372857D01*
X184816666Y-125468095D01*
X184769047Y-125610952D01*
X184197619Y-126182380D01*
X184816666Y-126182380D01*
X117776666Y-54062380D02*
X117776666Y-54776666D01*
X117729047Y-54919523D01*
X117633809Y-55014761D01*
X117490952Y-55062380D01*
X117395714Y-55062380D01*
X118776666Y-55062380D02*
X118205238Y-55062380D01*
X118490952Y-55062380D02*
X118490952Y-54062380D01*
X118395714Y-54205238D01*
X118300476Y-54300476D01*
X118205238Y-54348095D01*
M02*
