G04 #@! TF.GenerationSoftware,KiCad,Pcbnew,(5.1.10)-1*
G04 #@! TF.CreationDate,2021-10-08T18:43:58+02:00*
G04 #@! TF.ProjectId,IoT12 Power Supply,496f5431-3220-4506-9f77-657220537570,rev?*
G04 #@! TF.SameCoordinates,Original*
G04 #@! TF.FileFunction,Legend,Top*
G04 #@! TF.FilePolarity,Positive*
%FSLAX46Y46*%
G04 Gerber Fmt 4.6, Leading zero omitted, Abs format (unit mm)*
G04 Created by KiCad (PCBNEW (5.1.10)-1) date 2021-10-08 18:43:58*
%MOMM*%
%LPD*%
G01*
G04 APERTURE LIST*
%ADD10C,0.300000*%
%ADD11C,0.150000*%
%ADD12C,0.120000*%
%ADD13C,2.500000*%
%ADD14R,2.500000X2.500000*%
%ADD15C,4.000000*%
%ADD16C,0.800000*%
%ADD17C,6.400000*%
%ADD18C,3.000000*%
%ADD19R,3.000000X3.000000*%
G04 APERTURE END LIST*
D10*
X147162380Y-121777142D02*
X147829047Y-121777142D01*
X148114761Y-122824761D02*
X147162380Y-122824761D01*
X147162380Y-120824761D01*
X148114761Y-120824761D01*
X148876666Y-122253333D02*
X149829047Y-122253333D01*
X148686190Y-122824761D02*
X149352857Y-120824761D01*
X150019523Y-122824761D01*
X151829047Y-122824761D02*
X151162380Y-121872380D01*
X150686190Y-122824761D02*
X150686190Y-120824761D01*
X151448095Y-120824761D01*
X151638571Y-120920000D01*
X151733809Y-121015238D01*
X151829047Y-121205714D01*
X151829047Y-121491428D01*
X151733809Y-121681904D01*
X151638571Y-121777142D01*
X151448095Y-121872380D01*
X150686190Y-121872380D01*
X152400476Y-120824761D02*
X153543333Y-120824761D01*
X152971904Y-122824761D02*
X152971904Y-120824761D01*
X154210000Y-122824761D02*
X154210000Y-120824761D01*
X154210000Y-121777142D02*
X155352857Y-121777142D01*
X155352857Y-122824761D02*
X155352857Y-120824761D01*
X156400476Y-122729523D02*
X156400476Y-122824761D01*
X156305238Y-123015238D01*
X156210000Y-123110476D01*
X158781428Y-122062857D02*
X160305238Y-122062857D01*
X161352857Y-122729523D02*
X161352857Y-122824761D01*
X161257619Y-123015238D01*
X161162380Y-123110476D01*
X163733809Y-122062857D02*
X165257619Y-122062857D01*
X164495714Y-122824761D02*
X164495714Y-121300952D01*
X166638095Y-58562857D02*
X165971428Y-58562857D01*
X165685714Y-57515238D02*
X166638095Y-57515238D01*
X166638095Y-59515238D01*
X165685714Y-59515238D01*
X164923809Y-58086666D02*
X163971428Y-58086666D01*
X165114285Y-57515238D02*
X164447619Y-59515238D01*
X163780952Y-57515238D01*
X161971428Y-57515238D02*
X162638095Y-58467619D01*
X163114285Y-57515238D02*
X163114285Y-59515238D01*
X162352380Y-59515238D01*
X162161904Y-59420000D01*
X162066666Y-59324761D01*
X161971428Y-59134285D01*
X161971428Y-58848571D01*
X162066666Y-58658095D01*
X162161904Y-58562857D01*
X162352380Y-58467619D01*
X163114285Y-58467619D01*
X161400000Y-59515238D02*
X160257142Y-59515238D01*
X160828571Y-57515238D02*
X160828571Y-59515238D01*
X159590476Y-57515238D02*
X159590476Y-59515238D01*
X159590476Y-58562857D02*
X158447619Y-58562857D01*
X158447619Y-57515238D02*
X158447619Y-59515238D01*
X157400000Y-57610476D02*
X157400000Y-57515238D01*
X157495238Y-57324761D01*
X157590476Y-57229523D01*
X155114285Y-58086666D02*
X154161904Y-58086666D01*
X155304761Y-57515238D02*
X154638095Y-59515238D01*
X153971428Y-57515238D01*
X152161904Y-57705714D02*
X152257142Y-57610476D01*
X152542857Y-57515238D01*
X152733333Y-57515238D01*
X153019047Y-57610476D01*
X153209523Y-57800952D01*
X153304761Y-57991428D01*
X153400000Y-58372380D01*
X153400000Y-58658095D01*
X153304761Y-59039047D01*
X153209523Y-59229523D01*
X153019047Y-59420000D01*
X152733333Y-59515238D01*
X152542857Y-59515238D01*
X152257142Y-59420000D01*
X152161904Y-59324761D01*
X149876190Y-59610476D02*
X151590476Y-57039047D01*
X149209523Y-57515238D02*
X149209523Y-59515238D01*
X148066666Y-57515238D01*
X148066666Y-59515238D01*
X147019047Y-57610476D02*
X147019047Y-57515238D01*
X147114285Y-57324761D01*
X147209523Y-57229523D01*
X144733333Y-58086666D02*
X143780952Y-58086666D01*
X144923809Y-57515238D02*
X144257142Y-59515238D01*
X143590476Y-57515238D01*
X141780952Y-57705714D02*
X141876190Y-57610476D01*
X142161904Y-57515238D01*
X142352380Y-57515238D01*
X142638095Y-57610476D01*
X142828571Y-57800952D01*
X142923809Y-57991428D01*
X143019047Y-58372380D01*
X143019047Y-58658095D01*
X142923809Y-59039047D01*
X142828571Y-59229523D01*
X142638095Y-59420000D01*
X142352380Y-59515238D01*
X142161904Y-59515238D01*
X141876190Y-59420000D01*
X141780952Y-59324761D01*
X139495238Y-59610476D02*
X141209523Y-57039047D01*
X137876190Y-57515238D02*
X138828571Y-57515238D01*
X138828571Y-59515238D01*
D11*
X123571904Y-121547380D02*
X123571904Y-120547380D01*
X124190952Y-121547380D02*
X124095714Y-121499761D01*
X124048095Y-121452142D01*
X124000476Y-121356904D01*
X124000476Y-121071190D01*
X124048095Y-120975952D01*
X124095714Y-120928333D01*
X124190952Y-120880714D01*
X124333809Y-120880714D01*
X124429047Y-120928333D01*
X124476666Y-120975952D01*
X124524285Y-121071190D01*
X124524285Y-121356904D01*
X124476666Y-121452142D01*
X124429047Y-121499761D01*
X124333809Y-121547380D01*
X124190952Y-121547380D01*
X124810000Y-120547380D02*
X125381428Y-120547380D01*
X125095714Y-121547380D02*
X125095714Y-120547380D01*
X126238571Y-121547380D02*
X125667142Y-121547380D01*
X125952857Y-121547380D02*
X125952857Y-120547380D01*
X125857619Y-120690238D01*
X125762380Y-120785476D01*
X125667142Y-120833095D01*
X126619523Y-120642619D02*
X126667142Y-120595000D01*
X126762380Y-120547380D01*
X127000476Y-120547380D01*
X127095714Y-120595000D01*
X127143333Y-120642619D01*
X127190952Y-120737857D01*
X127190952Y-120833095D01*
X127143333Y-120975952D01*
X126571904Y-121547380D01*
X127190952Y-121547380D01*
X128381428Y-121547380D02*
X128381428Y-120547380D01*
X128762380Y-120547380D01*
X128857619Y-120595000D01*
X128905238Y-120642619D01*
X128952857Y-120737857D01*
X128952857Y-120880714D01*
X128905238Y-120975952D01*
X128857619Y-121023571D01*
X128762380Y-121071190D01*
X128381428Y-121071190D01*
X129524285Y-121547380D02*
X129429047Y-121499761D01*
X129381428Y-121452142D01*
X129333809Y-121356904D01*
X129333809Y-121071190D01*
X129381428Y-120975952D01*
X129429047Y-120928333D01*
X129524285Y-120880714D01*
X129667142Y-120880714D01*
X129762380Y-120928333D01*
X129810000Y-120975952D01*
X129857619Y-121071190D01*
X129857619Y-121356904D01*
X129810000Y-121452142D01*
X129762380Y-121499761D01*
X129667142Y-121547380D01*
X129524285Y-121547380D01*
X130190952Y-120880714D02*
X130381428Y-121547380D01*
X130571904Y-121071190D01*
X130762380Y-121547380D01*
X130952857Y-120880714D01*
X131714761Y-121499761D02*
X131619523Y-121547380D01*
X131429047Y-121547380D01*
X131333809Y-121499761D01*
X131286190Y-121404523D01*
X131286190Y-121023571D01*
X131333809Y-120928333D01*
X131429047Y-120880714D01*
X131619523Y-120880714D01*
X131714761Y-120928333D01*
X131762380Y-121023571D01*
X131762380Y-121118809D01*
X131286190Y-121214047D01*
X132190952Y-121547380D02*
X132190952Y-120880714D01*
X132190952Y-121071190D02*
X132238571Y-120975952D01*
X132286190Y-120928333D01*
X132381428Y-120880714D01*
X132476666Y-120880714D01*
X133524285Y-121499761D02*
X133667142Y-121547380D01*
X133905238Y-121547380D01*
X134000476Y-121499761D01*
X134048095Y-121452142D01*
X134095714Y-121356904D01*
X134095714Y-121261666D01*
X134048095Y-121166428D01*
X134000476Y-121118809D01*
X133905238Y-121071190D01*
X133714761Y-121023571D01*
X133619523Y-120975952D01*
X133571904Y-120928333D01*
X133524285Y-120833095D01*
X133524285Y-120737857D01*
X133571904Y-120642619D01*
X133619523Y-120595000D01*
X133714761Y-120547380D01*
X133952857Y-120547380D01*
X134095714Y-120595000D01*
X134952857Y-120880714D02*
X134952857Y-121547380D01*
X134524285Y-120880714D02*
X134524285Y-121404523D01*
X134571904Y-121499761D01*
X134667142Y-121547380D01*
X134810000Y-121547380D01*
X134905238Y-121499761D01*
X134952857Y-121452142D01*
X135429047Y-120880714D02*
X135429047Y-121880714D01*
X135429047Y-120928333D02*
X135524285Y-120880714D01*
X135714761Y-120880714D01*
X135810000Y-120928333D01*
X135857619Y-120975952D01*
X135905238Y-121071190D01*
X135905238Y-121356904D01*
X135857619Y-121452142D01*
X135810000Y-121499761D01*
X135714761Y-121547380D01*
X135524285Y-121547380D01*
X135429047Y-121499761D01*
X136333809Y-120880714D02*
X136333809Y-121880714D01*
X136333809Y-120928333D02*
X136429047Y-120880714D01*
X136619523Y-120880714D01*
X136714761Y-120928333D01*
X136762380Y-120975952D01*
X136810000Y-121071190D01*
X136810000Y-121356904D01*
X136762380Y-121452142D01*
X136714761Y-121499761D01*
X136619523Y-121547380D01*
X136429047Y-121547380D01*
X136333809Y-121499761D01*
X137381428Y-121547380D02*
X137286190Y-121499761D01*
X137238571Y-121404523D01*
X137238571Y-120547380D01*
X137667142Y-120880714D02*
X137905238Y-121547380D01*
X138143333Y-120880714D02*
X137905238Y-121547380D01*
X137810000Y-121785476D01*
X137762380Y-121833095D01*
X137667142Y-121880714D01*
X123714761Y-122292619D02*
X123762380Y-122245000D01*
X123857619Y-122197380D01*
X124095714Y-122197380D01*
X124190952Y-122245000D01*
X124238571Y-122292619D01*
X124286190Y-122387857D01*
X124286190Y-122483095D01*
X124238571Y-122625952D01*
X123667142Y-123197380D01*
X124286190Y-123197380D01*
X124905238Y-122197380D02*
X125000476Y-122197380D01*
X125095714Y-122245000D01*
X125143333Y-122292619D01*
X125190952Y-122387857D01*
X125238571Y-122578333D01*
X125238571Y-122816428D01*
X125190952Y-123006904D01*
X125143333Y-123102142D01*
X125095714Y-123149761D01*
X125000476Y-123197380D01*
X124905238Y-123197380D01*
X124810000Y-123149761D01*
X124762380Y-123102142D01*
X124714761Y-123006904D01*
X124667142Y-122816428D01*
X124667142Y-122578333D01*
X124714761Y-122387857D01*
X124762380Y-122292619D01*
X124810000Y-122245000D01*
X124905238Y-122197380D01*
X125619523Y-122292619D02*
X125667142Y-122245000D01*
X125762380Y-122197380D01*
X126000476Y-122197380D01*
X126095714Y-122245000D01*
X126143333Y-122292619D01*
X126190952Y-122387857D01*
X126190952Y-122483095D01*
X126143333Y-122625952D01*
X125571904Y-123197380D01*
X126190952Y-123197380D01*
X127143333Y-123197380D02*
X126571904Y-123197380D01*
X126857619Y-123197380D02*
X126857619Y-122197380D01*
X126762380Y-122340238D01*
X126667142Y-122435476D01*
X126571904Y-122483095D01*
X127571904Y-122816428D02*
X128333809Y-122816428D01*
X129333809Y-123197380D02*
X128762380Y-123197380D01*
X129048095Y-123197380D02*
X129048095Y-122197380D01*
X128952857Y-122340238D01*
X128857619Y-122435476D01*
X128762380Y-122483095D01*
X129952857Y-122197380D02*
X130048095Y-122197380D01*
X130143333Y-122245000D01*
X130190952Y-122292619D01*
X130238571Y-122387857D01*
X130286190Y-122578333D01*
X130286190Y-122816428D01*
X130238571Y-123006904D01*
X130190952Y-123102142D01*
X130143333Y-123149761D01*
X130048095Y-123197380D01*
X129952857Y-123197380D01*
X129857619Y-123149761D01*
X129810000Y-123102142D01*
X129762380Y-123006904D01*
X129714761Y-122816428D01*
X129714761Y-122578333D01*
X129762380Y-122387857D01*
X129810000Y-122292619D01*
X129857619Y-122245000D01*
X129952857Y-122197380D01*
X130714761Y-122816428D02*
X131476666Y-122816428D01*
X132143333Y-122197380D02*
X132238571Y-122197380D01*
X132333809Y-122245000D01*
X132381428Y-122292619D01*
X132429047Y-122387857D01*
X132476666Y-122578333D01*
X132476666Y-122816428D01*
X132429047Y-123006904D01*
X132381428Y-123102142D01*
X132333809Y-123149761D01*
X132238571Y-123197380D01*
X132143333Y-123197380D01*
X132048095Y-123149761D01*
X132000476Y-123102142D01*
X131952857Y-123006904D01*
X131905238Y-122816428D01*
X131905238Y-122578333D01*
X131952857Y-122387857D01*
X132000476Y-122292619D01*
X132048095Y-122245000D01*
X132143333Y-122197380D01*
X133048095Y-122625952D02*
X132952857Y-122578333D01*
X132905238Y-122530714D01*
X132857619Y-122435476D01*
X132857619Y-122387857D01*
X132905238Y-122292619D01*
X132952857Y-122245000D01*
X133048095Y-122197380D01*
X133238571Y-122197380D01*
X133333809Y-122245000D01*
X133381428Y-122292619D01*
X133429047Y-122387857D01*
X133429047Y-122435476D01*
X133381428Y-122530714D01*
X133333809Y-122578333D01*
X133238571Y-122625952D01*
X133048095Y-122625952D01*
X132952857Y-122673571D01*
X132905238Y-122721190D01*
X132857619Y-122816428D01*
X132857619Y-123006904D01*
X132905238Y-123102142D01*
X132952857Y-123149761D01*
X133048095Y-123197380D01*
X133238571Y-123197380D01*
X133333809Y-123149761D01*
X133381428Y-123102142D01*
X133429047Y-123006904D01*
X133429047Y-122816428D01*
X133381428Y-122721190D01*
X133333809Y-122673571D01*
X133238571Y-122625952D01*
X133905238Y-123149761D02*
X133905238Y-123197380D01*
X133857619Y-123292619D01*
X133810000Y-123340238D01*
X134952857Y-122197380D02*
X135286190Y-123197380D01*
X135619523Y-122197380D01*
X136476666Y-123197380D02*
X135905238Y-123197380D01*
X136190952Y-123197380D02*
X136190952Y-122197380D01*
X136095714Y-122340238D01*
X136000476Y-122435476D01*
X135905238Y-122483095D01*
X136905238Y-123102142D02*
X136952857Y-123149761D01*
X136905238Y-123197380D01*
X136857619Y-123149761D01*
X136905238Y-123102142D01*
X136905238Y-123197380D01*
X137571904Y-122197380D02*
X137667142Y-122197380D01*
X137762380Y-122245000D01*
X137810000Y-122292619D01*
X137857619Y-122387857D01*
X137905238Y-122578333D01*
X137905238Y-122816428D01*
X137857619Y-123006904D01*
X137810000Y-123102142D01*
X137762380Y-123149761D01*
X137667142Y-123197380D01*
X137571904Y-123197380D01*
X137476666Y-123149761D01*
X137429047Y-123102142D01*
X137381428Y-123006904D01*
X137333809Y-122816428D01*
X137333809Y-122578333D01*
X137381428Y-122387857D01*
X137429047Y-122292619D01*
X137476666Y-122245000D01*
X137571904Y-122197380D01*
D12*
X119777000Y-67935500D02*
X119777000Y-70435500D01*
X120133000Y-64451500D02*
X120133000Y-103851500D01*
X190033000Y-103851500D02*
X190033000Y-64451500D01*
X120133000Y-103851500D02*
X190033000Y-103851500D01*
X190033000Y-64451500D02*
X120133000Y-64451500D01*
X184050000Y-122147064D02*
X184050000Y-121692936D01*
X185520000Y-122147064D02*
X185520000Y-121692936D01*
X186365000Y-120920000D02*
X186365000Y-123780000D01*
X186365000Y-123780000D02*
X188285000Y-123780000D01*
X188285000Y-123780000D02*
X188285000Y-120920000D01*
X130413000Y-65501500D02*
X128413000Y-65501500D01*
X178533000Y-65831500D02*
X178533000Y-93271500D01*
X125893000Y-65831500D02*
X178533000Y-65831500D01*
X125893000Y-93271500D02*
X178533000Y-93271500D01*
X125893000Y-65831500D02*
X125893000Y-93271500D01*
X108210000Y-77220000D02*
X108210000Y-74720000D01*
X108698400Y-63964200D02*
X108698400Y-116364200D01*
X196098400Y-116364200D02*
X196098400Y-63964200D01*
X108698400Y-116364200D02*
X196098400Y-116364200D01*
X196098400Y-63964200D02*
X108698400Y-63964200D01*
X167640000Y-125730000D02*
X167640000Y-118110000D01*
X182880000Y-125730000D02*
X182880000Y-118110000D01*
X167640000Y-124460000D02*
X182880000Y-124460000D01*
X167640000Y-118110000D02*
X182880000Y-118110000D01*
X167640000Y-125730000D02*
X182880000Y-125730000D01*
X134620000Y-54610000D02*
X134620000Y-62230000D01*
X119380000Y-54610000D02*
X119380000Y-62230000D01*
X134620000Y-55880000D02*
X119380000Y-55880000D01*
X134620000Y-62230000D02*
X119380000Y-62230000D01*
X134620000Y-54610000D02*
X119380000Y-54610000D01*
D11*
X180538714Y-106193880D02*
X180538714Y-105193880D01*
X180919666Y-105193880D01*
X181014904Y-105241500D01*
X181062523Y-105289119D01*
X181110142Y-105384357D01*
X181110142Y-105527214D01*
X181062523Y-105622452D01*
X181014904Y-105670071D01*
X180919666Y-105717690D01*
X180538714Y-105717690D01*
X181491095Y-106146261D02*
X181633952Y-106193880D01*
X181872047Y-106193880D01*
X181967285Y-106146261D01*
X182014904Y-106098642D01*
X182062523Y-106003404D01*
X182062523Y-105908166D01*
X182014904Y-105812928D01*
X181967285Y-105765309D01*
X181872047Y-105717690D01*
X181681571Y-105670071D01*
X181586333Y-105622452D01*
X181538714Y-105574833D01*
X181491095Y-105479595D01*
X181491095Y-105384357D01*
X181538714Y-105289119D01*
X181586333Y-105241500D01*
X181681571Y-105193880D01*
X181919666Y-105193880D01*
X182062523Y-105241500D01*
X182443476Y-105289119D02*
X182491095Y-105241500D01*
X182586333Y-105193880D01*
X182824428Y-105193880D01*
X182919666Y-105241500D01*
X182967285Y-105289119D01*
X183014904Y-105384357D01*
X183014904Y-105479595D01*
X182967285Y-105622452D01*
X182395857Y-106193880D01*
X183014904Y-106193880D01*
X184618333Y-125166380D02*
X184285000Y-124690190D01*
X184046904Y-125166380D02*
X184046904Y-124166380D01*
X184427857Y-124166380D01*
X184523095Y-124214000D01*
X184570714Y-124261619D01*
X184618333Y-124356857D01*
X184618333Y-124499714D01*
X184570714Y-124594952D01*
X184523095Y-124642571D01*
X184427857Y-124690190D01*
X184046904Y-124690190D01*
X184999285Y-124261619D02*
X185046904Y-124214000D01*
X185142142Y-124166380D01*
X185380238Y-124166380D01*
X185475476Y-124214000D01*
X185523095Y-124261619D01*
X185570714Y-124356857D01*
X185570714Y-124452095D01*
X185523095Y-124594952D01*
X184951666Y-125166380D01*
X185570714Y-125166380D01*
X186586904Y-125166380D02*
X186586904Y-124166380D01*
X186825000Y-124166380D01*
X186967857Y-124214000D01*
X187063095Y-124309238D01*
X187110714Y-124404476D01*
X187158333Y-124594952D01*
X187158333Y-124737809D01*
X187110714Y-124928285D01*
X187063095Y-125023523D01*
X186967857Y-125118761D01*
X186825000Y-125166380D01*
X186586904Y-125166380D01*
X187539285Y-124261619D02*
X187586904Y-124214000D01*
X187682142Y-124166380D01*
X187920238Y-124166380D01*
X188015476Y-124214000D01*
X188063095Y-124261619D01*
X188110714Y-124356857D01*
X188110714Y-124452095D01*
X188063095Y-124594952D01*
X187491666Y-125166380D01*
X188110714Y-125166380D01*
X175128714Y-95243880D02*
X175128714Y-94243880D01*
X175509666Y-94243880D01*
X175604904Y-94291500D01*
X175652523Y-94339119D01*
X175700142Y-94434357D01*
X175700142Y-94577214D01*
X175652523Y-94672452D01*
X175604904Y-94720071D01*
X175509666Y-94767690D01*
X175128714Y-94767690D01*
X176081095Y-95196261D02*
X176223952Y-95243880D01*
X176462047Y-95243880D01*
X176557285Y-95196261D01*
X176604904Y-95148642D01*
X176652523Y-95053404D01*
X176652523Y-94958166D01*
X176604904Y-94862928D01*
X176557285Y-94815309D01*
X176462047Y-94767690D01*
X176271571Y-94720071D01*
X176176333Y-94672452D01*
X176128714Y-94624833D01*
X176081095Y-94529595D01*
X176081095Y-94434357D01*
X176128714Y-94339119D01*
X176176333Y-94291500D01*
X176271571Y-94243880D01*
X176509666Y-94243880D01*
X176652523Y-94291500D01*
X176985857Y-94243880D02*
X177604904Y-94243880D01*
X177271571Y-94624833D01*
X177414428Y-94624833D01*
X177509666Y-94672452D01*
X177557285Y-94720071D01*
X177604904Y-94815309D01*
X177604904Y-95053404D01*
X177557285Y-95148642D01*
X177509666Y-95196261D01*
X177414428Y-95243880D01*
X177128714Y-95243880D01*
X177033476Y-95196261D01*
X176985857Y-95148642D01*
X182300714Y-63063380D02*
X182300714Y-62063380D01*
X182681666Y-62063380D01*
X182776904Y-62111000D01*
X182824523Y-62158619D01*
X182872142Y-62253857D01*
X182872142Y-62396714D01*
X182824523Y-62491952D01*
X182776904Y-62539571D01*
X182681666Y-62587190D01*
X182300714Y-62587190D01*
X183253095Y-63015761D02*
X183395952Y-63063380D01*
X183634047Y-63063380D01*
X183729285Y-63015761D01*
X183776904Y-62968142D01*
X183824523Y-62872904D01*
X183824523Y-62777666D01*
X183776904Y-62682428D01*
X183729285Y-62634809D01*
X183634047Y-62587190D01*
X183443571Y-62539571D01*
X183348333Y-62491952D01*
X183300714Y-62444333D01*
X183253095Y-62349095D01*
X183253095Y-62253857D01*
X183300714Y-62158619D01*
X183348333Y-62111000D01*
X183443571Y-62063380D01*
X183681666Y-62063380D01*
X183824523Y-62111000D01*
X184776904Y-63063380D02*
X184205476Y-63063380D01*
X184491190Y-63063380D02*
X184491190Y-62063380D01*
X184395952Y-62206238D01*
X184300714Y-62301476D01*
X184205476Y-62349095D01*
X166036666Y-118832380D02*
X166036666Y-119546666D01*
X165989047Y-119689523D01*
X165893809Y-119784761D01*
X165750952Y-119832380D01*
X165655714Y-119832380D01*
X166465238Y-118927619D02*
X166512857Y-118880000D01*
X166608095Y-118832380D01*
X166846190Y-118832380D01*
X166941428Y-118880000D01*
X166989047Y-118927619D01*
X167036666Y-119022857D01*
X167036666Y-119118095D01*
X166989047Y-119260952D01*
X166417619Y-119832380D01*
X167036666Y-119832380D01*
X117776666Y-54062380D02*
X117776666Y-54776666D01*
X117729047Y-54919523D01*
X117633809Y-55014761D01*
X117490952Y-55062380D01*
X117395714Y-55062380D01*
X118776666Y-55062380D02*
X118205238Y-55062380D01*
X118490952Y-55062380D02*
X118490952Y-54062380D01*
X118395714Y-54205238D01*
X118300476Y-54300476D01*
X118205238Y-54348095D01*
%LPC*%
D13*
X124333000Y-74651500D03*
X185833000Y-78151500D03*
D14*
X124333000Y-69151500D03*
D13*
X185833000Y-69151500D03*
X124333000Y-100151500D03*
G36*
G01*
X185235001Y-121520000D02*
X184334999Y-121520000D01*
G75*
G02*
X184085000Y-121270001I0J249999D01*
G01*
X184085000Y-120569999D01*
G75*
G02*
X184334999Y-120320000I249999J0D01*
G01*
X185235001Y-120320000D01*
G75*
G02*
X185485000Y-120569999I0J-249999D01*
G01*
X185485000Y-121270001D01*
G75*
G02*
X185235001Y-121520000I-249999J0D01*
G01*
G37*
G36*
G01*
X185235001Y-123520000D02*
X184334999Y-123520000D01*
G75*
G02*
X184085000Y-123270001I0J249999D01*
G01*
X184085000Y-122569999D01*
G75*
G02*
X184334999Y-122320000I249999J0D01*
G01*
X185235001Y-122320000D01*
G75*
G02*
X185485000Y-122569999I0J-249999D01*
G01*
X185485000Y-123270001D01*
G75*
G02*
X185235001Y-123520000I-249999J0D01*
G01*
G37*
G36*
G01*
X187775001Y-121470000D02*
X186874999Y-121470000D01*
G75*
G02*
X186625000Y-121220001I0J249999D01*
G01*
X186625000Y-120569999D01*
G75*
G02*
X186874999Y-120320000I249999J0D01*
G01*
X187775001Y-120320000D01*
G75*
G02*
X188025000Y-120569999I0J-249999D01*
G01*
X188025000Y-121220001D01*
G75*
G02*
X187775001Y-121470000I-249999J0D01*
G01*
G37*
G36*
G01*
X187775001Y-123520000D02*
X186874999Y-123520000D01*
G75*
G02*
X186625000Y-123270001I0J249999D01*
G01*
X186625000Y-122619999D01*
G75*
G02*
X186874999Y-122370000I249999J0D01*
G01*
X187775001Y-122370000D01*
G75*
G02*
X188025000Y-122619999I0J-249999D01*
G01*
X188025000Y-123270001D01*
G75*
G02*
X187775001Y-123520000I-249999J0D01*
G01*
G37*
D14*
X129413000Y-69151500D03*
D13*
X174413000Y-81951500D03*
X129413000Y-89951500D03*
X174413000Y-89951500D03*
D15*
X190198400Y-104914200D03*
D13*
X114198400Y-69164200D03*
D15*
X190198400Y-110414200D03*
D14*
X114198400Y-75914200D03*
D16*
X113457056Y-120222944D03*
X111760000Y-119520000D03*
X110062944Y-120222944D03*
X109360000Y-121920000D03*
X110062944Y-123617056D03*
X111760000Y-124320000D03*
X113457056Y-123617056D03*
X114160000Y-121920000D03*
D17*
X111760000Y-121920000D03*
D16*
X113457056Y-56722944D03*
X111760000Y-56020000D03*
X110062944Y-56722944D03*
X109360000Y-58420000D03*
X110062944Y-60117056D03*
X111760000Y-60820000D03*
X113457056Y-60117056D03*
X114160000Y-58420000D03*
D17*
X111760000Y-58420000D03*
D16*
X194737056Y-120222944D03*
X193040000Y-119520000D03*
X191342944Y-120222944D03*
X190640000Y-121920000D03*
X191342944Y-123617056D03*
X193040000Y-124320000D03*
X194737056Y-123617056D03*
X195440000Y-121920000D03*
D17*
X193040000Y-121920000D03*
D16*
X194737056Y-56722944D03*
X193040000Y-56020000D03*
X191342944Y-56722944D03*
X190640000Y-58420000D03*
X191342944Y-60117056D03*
X193040000Y-60820000D03*
X194737056Y-60117056D03*
X195440000Y-58420000D03*
D17*
X193040000Y-58420000D03*
D18*
X180340000Y-121920000D03*
X175260000Y-121920000D03*
D19*
X170180000Y-121920000D03*
D18*
X121920000Y-58420000D03*
X127000000Y-58420000D03*
D19*
X132080000Y-58420000D03*
M02*
