G04 #@! TF.GenerationSoftware,KiCad,Pcbnew,(5.1.9)-1*
G04 #@! TF.CreationDate,2021-03-27T10:15:32+01:00*
G04 #@! TF.ProjectId,IoT12 Power Supply,496f5431-3220-4506-9f77-657220537570,rev?*
G04 #@! TF.SameCoordinates,Original*
G04 #@! TF.FileFunction,Soldermask,Bot*
G04 #@! TF.FilePolarity,Negative*
%FSLAX46Y46*%
G04 Gerber Fmt 4.6, Leading zero omitted, Abs format (unit mm)*
G04 Created by KiCad (PCBNEW (5.1.9)-1) date 2021-03-27 10:15:32*
%MOMM*%
%LPD*%
G01*
G04 APERTURE LIST*
%ADD10C,2.500000*%
%ADD11R,2.500000X2.500000*%
%ADD12C,4.000000*%
%ADD13C,0.800000*%
%ADD14C,6.400000*%
%ADD15C,3.000000*%
%ADD16R,3.000000X3.000000*%
G04 APERTURE END LIST*
D10*
X124333000Y-74651500D03*
X185833000Y-78151500D03*
D11*
X124333000Y-69151500D03*
D10*
X185833000Y-69151500D03*
X124333000Y-100151500D03*
D11*
X129413000Y-69151500D03*
D10*
X174413000Y-81951500D03*
X129413000Y-89951500D03*
X174413000Y-89951500D03*
D12*
X190198400Y-104914200D03*
D10*
X114198400Y-69164200D03*
D12*
X190198400Y-110414200D03*
D11*
X114198400Y-75914200D03*
D13*
X113457056Y-120222944D03*
X111760000Y-119520000D03*
X110062944Y-120222944D03*
X109360000Y-121920000D03*
X110062944Y-123617056D03*
X111760000Y-124320000D03*
X113457056Y-123617056D03*
X114160000Y-121920000D03*
D14*
X111760000Y-121920000D03*
D13*
X113457056Y-56722944D03*
X111760000Y-56020000D03*
X110062944Y-56722944D03*
X109360000Y-58420000D03*
X110062944Y-60117056D03*
X111760000Y-60820000D03*
X113457056Y-60117056D03*
X114160000Y-58420000D03*
D14*
X111760000Y-58420000D03*
D13*
X194737056Y-120222944D03*
X193040000Y-119520000D03*
X191342944Y-120222944D03*
X190640000Y-121920000D03*
X191342944Y-123617056D03*
X193040000Y-124320000D03*
X194737056Y-123617056D03*
X195440000Y-121920000D03*
D14*
X193040000Y-121920000D03*
D13*
X194737056Y-56722944D03*
X193040000Y-56020000D03*
X191342944Y-56722944D03*
X190640000Y-58420000D03*
X191342944Y-60117056D03*
X193040000Y-60820000D03*
X194737056Y-60117056D03*
X195440000Y-58420000D03*
D14*
X193040000Y-58420000D03*
D15*
X180340000Y-121920000D03*
X175260000Y-121920000D03*
D16*
X170180000Y-121920000D03*
D15*
X121920000Y-58420000D03*
X127000000Y-58420000D03*
D16*
X132080000Y-58420000D03*
M02*
