G04 #@! TF.GenerationSoftware,KiCad,Pcbnew,(5.1.10)-1*
G04 #@! TF.CreationDate,2021-10-08T18:43:58+02:00*
G04 #@! TF.ProjectId,IoT12 Power Supply,496f5431-3220-4506-9f77-657220537570,rev?*
G04 #@! TF.SameCoordinates,Original*
G04 #@! TF.FileFunction,Copper,L1,Top*
G04 #@! TF.FilePolarity,Positive*
%FSLAX46Y46*%
G04 Gerber Fmt 4.6, Leading zero omitted, Abs format (unit mm)*
G04 Created by KiCad (PCBNEW (5.1.10)-1) date 2021-10-08 18:43:58*
%MOMM*%
%LPD*%
G01*
G04 APERTURE LIST*
G04 #@! TA.AperFunction,EtchedComponent*
%ADD10C,0.381000*%
G04 #@! TD*
G04 #@! TA.AperFunction,ComponentPad*
%ADD11C,2.500000*%
G04 #@! TD*
G04 #@! TA.AperFunction,ComponentPad*
%ADD12R,2.500000X2.500000*%
G04 #@! TD*
G04 #@! TA.AperFunction,ComponentPad*
%ADD13C,4.000000*%
G04 #@! TD*
G04 #@! TA.AperFunction,ComponentPad*
%ADD14C,0.800000*%
G04 #@! TD*
G04 #@! TA.AperFunction,ComponentPad*
%ADD15C,6.400000*%
G04 #@! TD*
G04 #@! TA.AperFunction,ComponentPad*
%ADD16C,3.000000*%
G04 #@! TD*
G04 #@! TA.AperFunction,ComponentPad*
%ADD17R,3.000000X3.000000*%
G04 #@! TD*
G04 #@! TA.AperFunction,Conductor*
%ADD18C,0.250000*%
G04 #@! TD*
G04 APERTURE END LIST*
D10*
X116967000Y-99822000D02*
X116967000Y-100203000D01*
X116967000Y-100203000D02*
X117094000Y-100203000D01*
X116078000Y-98933000D02*
X116967000Y-99822000D01*
X116967000Y-99822000D02*
X117221000Y-99822000D01*
X111379000Y-95758000D02*
X110998000Y-95885000D01*
X111379000Y-95758000D02*
X111379000Y-95377000D01*
X111887000Y-96139000D02*
X111379000Y-95758000D01*
X111633000Y-99822000D02*
X111633000Y-100330000D01*
X111633000Y-99822000D02*
X111252000Y-99822000D01*
X112649000Y-98933000D02*
X111633000Y-99822000D01*
X117221000Y-95631000D02*
X117729000Y-95504000D01*
X117221000Y-95631000D02*
X117221000Y-95123000D01*
X116586000Y-96139000D02*
X117221000Y-95631000D01*
X114427000Y-99060000D02*
X114427000Y-99314000D01*
X113792000Y-98933000D02*
X114935000Y-98933000D01*
X114935000Y-98933000D02*
X114935000Y-99441000D01*
X114935000Y-99441000D02*
X113792000Y-99441000D01*
X113792000Y-99441000D02*
X113792000Y-98933000D01*
X113567981Y-97409000D02*
G75*
G03*
X113567981Y-97409000I-283981J0D01*
G01*
X115599981Y-97409000D02*
G75*
G03*
X115599981Y-97409000I-283981J0D01*
G01*
X114300000Y-97409000D02*
X114554000Y-98171000D01*
X114554000Y-98171000D02*
X114046000Y-98171000D01*
X114046000Y-98171000D02*
X114300000Y-97409000D01*
X113284000Y-99695000D02*
X113411000Y-99949000D01*
X113411000Y-99949000D02*
X113665000Y-100203000D01*
X113665000Y-100203000D02*
X114046000Y-100330000D01*
X115443000Y-98552000D02*
X115443000Y-99314000D01*
X115443000Y-99314000D02*
X115443000Y-99695000D01*
X115443000Y-99695000D02*
X115316000Y-100076000D01*
X115316000Y-100076000D02*
X114935000Y-100203000D01*
X114935000Y-100203000D02*
X114427000Y-100330000D01*
X114427000Y-100330000D02*
X114046000Y-100330000D01*
X113284000Y-99695000D02*
X113284000Y-99314000D01*
X113284000Y-99314000D02*
X113284000Y-98552000D01*
X111760000Y-97790000D02*
X111887000Y-98044000D01*
X111887000Y-98044000D02*
X112014000Y-98298000D01*
X112014000Y-98298000D02*
X112522000Y-98425000D01*
X112522000Y-98425000D02*
X113157000Y-98552000D01*
X113157000Y-98552000D02*
X113538000Y-98552000D01*
X111760000Y-97790000D02*
X111760000Y-97536000D01*
X111760000Y-97536000D02*
X111887000Y-97028000D01*
X111887000Y-97028000D02*
X112141000Y-96393000D01*
X112141000Y-96393000D02*
X112649000Y-95885000D01*
X112649000Y-95885000D02*
X113284000Y-95504000D01*
X113284000Y-95504000D02*
X113919000Y-95250000D01*
X113919000Y-95250000D02*
X114427000Y-95250000D01*
X114427000Y-95250000D02*
X115062000Y-95377000D01*
X115062000Y-95377000D02*
X115697000Y-95631000D01*
X115697000Y-95631000D02*
X116205000Y-96139000D01*
X116205000Y-96139000D02*
X116459000Y-96520000D01*
X116459000Y-96520000D02*
X116713000Y-97028000D01*
X116713000Y-97028000D02*
X116840000Y-97409000D01*
X116840000Y-97409000D02*
X116840000Y-97790000D01*
X116840000Y-97790000D02*
X116713000Y-98171000D01*
X116713000Y-98171000D02*
X116459000Y-98298000D01*
X116459000Y-98298000D02*
X115951000Y-98552000D01*
X115951000Y-98552000D02*
X115570000Y-98552000D01*
X115570000Y-98552000D02*
X115189000Y-98552000D01*
X113802160Y-92369640D02*
X115001040Y-89270840D01*
X115001040Y-89270840D02*
X114401600Y-89669620D01*
X113400840Y-90370660D02*
X114701320Y-87569040D01*
X113802160Y-92369640D02*
X114401600Y-91671140D01*
X114200940Y-87370920D02*
X113400840Y-90370660D01*
X113400840Y-90370660D02*
X114599720Y-89570560D01*
X114599720Y-89570560D02*
X113802160Y-92369640D01*
X113802160Y-92369640D02*
X113700560Y-91470480D01*
X114300000Y-85979000D02*
X118999000Y-92964000D01*
X118999000Y-92964000D02*
X109601000Y-92964000D01*
X109601000Y-92964000D02*
X114300000Y-85979000D01*
D11*
X124333000Y-74651500D03*
X185833000Y-78151500D03*
D12*
X124333000Y-69151500D03*
D11*
X185833000Y-69151500D03*
X124333000Y-100151500D03*
G04 #@! TA.AperFunction,SMDPad,CuDef*
G36*
G01*
X185235001Y-121520000D02*
X184334999Y-121520000D01*
G75*
G02*
X184085000Y-121270001I0J249999D01*
G01*
X184085000Y-120569999D01*
G75*
G02*
X184334999Y-120320000I249999J0D01*
G01*
X185235001Y-120320000D01*
G75*
G02*
X185485000Y-120569999I0J-249999D01*
G01*
X185485000Y-121270001D01*
G75*
G02*
X185235001Y-121520000I-249999J0D01*
G01*
G37*
G04 #@! TD.AperFunction*
G04 #@! TA.AperFunction,SMDPad,CuDef*
G36*
G01*
X185235001Y-123520000D02*
X184334999Y-123520000D01*
G75*
G02*
X184085000Y-123270001I0J249999D01*
G01*
X184085000Y-122569999D01*
G75*
G02*
X184334999Y-122320000I249999J0D01*
G01*
X185235001Y-122320000D01*
G75*
G02*
X185485000Y-122569999I0J-249999D01*
G01*
X185485000Y-123270001D01*
G75*
G02*
X185235001Y-123520000I-249999J0D01*
G01*
G37*
G04 #@! TD.AperFunction*
G04 #@! TA.AperFunction,SMDPad,CuDef*
G36*
G01*
X187775001Y-121470000D02*
X186874999Y-121470000D01*
G75*
G02*
X186625000Y-121220001I0J249999D01*
G01*
X186625000Y-120569999D01*
G75*
G02*
X186874999Y-120320000I249999J0D01*
G01*
X187775001Y-120320000D01*
G75*
G02*
X188025000Y-120569999I0J-249999D01*
G01*
X188025000Y-121220001D01*
G75*
G02*
X187775001Y-121470000I-249999J0D01*
G01*
G37*
G04 #@! TD.AperFunction*
G04 #@! TA.AperFunction,SMDPad,CuDef*
G36*
G01*
X187775001Y-123520000D02*
X186874999Y-123520000D01*
G75*
G02*
X186625000Y-123270001I0J249999D01*
G01*
X186625000Y-122619999D01*
G75*
G02*
X186874999Y-122370000I249999J0D01*
G01*
X187775001Y-122370000D01*
G75*
G02*
X188025000Y-122619999I0J-249999D01*
G01*
X188025000Y-123270001D01*
G75*
G02*
X187775001Y-123520000I-249999J0D01*
G01*
G37*
G04 #@! TD.AperFunction*
D12*
X129413000Y-69151500D03*
D11*
X174413000Y-81951500D03*
X129413000Y-89951500D03*
X174413000Y-89951500D03*
D13*
X190198400Y-104914200D03*
D11*
X114198400Y-69164200D03*
D13*
X190198400Y-110414200D03*
D12*
X114198400Y-75914200D03*
D14*
X113457056Y-120222944D03*
X111760000Y-119520000D03*
X110062944Y-120222944D03*
X109360000Y-121920000D03*
X110062944Y-123617056D03*
X111760000Y-124320000D03*
X113457056Y-123617056D03*
X114160000Y-121920000D03*
D15*
X111760000Y-121920000D03*
D14*
X113457056Y-56722944D03*
X111760000Y-56020000D03*
X110062944Y-56722944D03*
X109360000Y-58420000D03*
X110062944Y-60117056D03*
X111760000Y-60820000D03*
X113457056Y-60117056D03*
X114160000Y-58420000D03*
D15*
X111760000Y-58420000D03*
D14*
X194737056Y-120222944D03*
X193040000Y-119520000D03*
X191342944Y-120222944D03*
X190640000Y-121920000D03*
X191342944Y-123617056D03*
X193040000Y-124320000D03*
X194737056Y-123617056D03*
X195440000Y-121920000D03*
D15*
X193040000Y-121920000D03*
D14*
X194737056Y-56722944D03*
X193040000Y-56020000D03*
X191342944Y-56722944D03*
X190640000Y-58420000D03*
X191342944Y-60117056D03*
X193040000Y-60820000D03*
X194737056Y-60117056D03*
X195440000Y-58420000D03*
D15*
X193040000Y-58420000D03*
D16*
X180340000Y-121920000D03*
X175260000Y-121920000D03*
D17*
X170180000Y-121920000D03*
D16*
X121920000Y-58420000D03*
X127000000Y-58420000D03*
D17*
X132080000Y-58420000D03*
D18*
X186182000Y-125095000D02*
X187325000Y-123952000D01*
X176530000Y-125095000D02*
X186182000Y-125095000D01*
X175260000Y-123825000D02*
X176530000Y-125095000D01*
X187325000Y-123952000D02*
X187325000Y-122945000D01*
X175260000Y-121920000D02*
X175260000Y-123825000D01*
X182499000Y-121920000D02*
X180340000Y-121920000D01*
X183499000Y-122920000D02*
X182499000Y-121920000D01*
X184785000Y-122920000D02*
X183499000Y-122920000D01*
X187300000Y-120920000D02*
X187325000Y-120895000D01*
X184785000Y-120920000D02*
X187300000Y-120920000D01*
M02*
