%TF.GenerationSoftware,KiCad,Pcbnew,7.0.2*%
%TF.CreationDate,2023-05-16T20:51:57+02:00*%
%TF.ProjectId,Display Adapter,44697370-6c61-4792-9041-646170746572,V1.0*%
%TF.SameCoordinates,Original*%
%TF.FileFunction,Drillmap*%
%TF.FilePolarity,Positive*%
%FSLAX45Y45*%
G04 Gerber Fmt 4.5, Leading zero omitted, Abs format (unit mm)*
G04 Created by KiCad (PCBNEW 7.0.2) date 2023-05-16 20:51:57*
%MOMM*%
%LPD*%
G01*
G04 APERTURE LIST*
%ADD10C,0.100000*%
%ADD11C,0.200000*%
G04 APERTURE END LIST*
D10*
X13335000Y-8382000D02*
G75*
G03*
X14097000Y-8382000I381000J0D01*
G01*
X12954000Y-12065000D02*
G75*
G03*
X13081000Y-12192000I127000J0D01*
G01*
X16637000Y-10795000D02*
X16256000Y-10795000D01*
X13081000Y-8382000D02*
G75*
G03*
X12954000Y-8509000I0J-127000D01*
G01*
X16764000Y-8509000D02*
G75*
G03*
X16637000Y-8382000I-127000J0D01*
G01*
X14097000Y-8382000D02*
X16637000Y-8382000D01*
X14097000Y-12192000D02*
G75*
G03*
X13335000Y-12192000I-381000J0D01*
G01*
X16764000Y-8509000D02*
X16764000Y-10668000D01*
X12954000Y-12065000D02*
X12954000Y-8509000D01*
X16129000Y-12192000D02*
X14097000Y-12192000D01*
X13335000Y-8382000D02*
X13081000Y-8382000D01*
X13335000Y-12192000D02*
X13081000Y-12192000D01*
X16256000Y-12065000D02*
X16256000Y-10795000D01*
X16637000Y-10795000D02*
G75*
G03*
X16764000Y-10668000I0J127000D01*
G01*
X16129000Y-12192000D02*
G75*
G03*
X16256000Y-12065000I0J127000D01*
G01*
D11*
X13196619Y-12509524D02*
X13196619Y-12309524D01*
X13196619Y-12309524D02*
X13244238Y-12309524D01*
X13244238Y-12309524D02*
X13272809Y-12319048D01*
X13272809Y-12319048D02*
X13291857Y-12338095D01*
X13291857Y-12338095D02*
X13301381Y-12357143D01*
X13301381Y-12357143D02*
X13310905Y-12395238D01*
X13310905Y-12395238D02*
X13310905Y-12423809D01*
X13310905Y-12423809D02*
X13301381Y-12461905D01*
X13301381Y-12461905D02*
X13291857Y-12480952D01*
X13291857Y-12480952D02*
X13272809Y-12500000D01*
X13272809Y-12500000D02*
X13244238Y-12509524D01*
X13244238Y-12509524D02*
X13196619Y-12509524D01*
X13396619Y-12509524D02*
X13396619Y-12376190D01*
X13396619Y-12414286D02*
X13406143Y-12395238D01*
X13406143Y-12395238D02*
X13415667Y-12385714D01*
X13415667Y-12385714D02*
X13434714Y-12376190D01*
X13434714Y-12376190D02*
X13453762Y-12376190D01*
X13520428Y-12509524D02*
X13520428Y-12376190D01*
X13520428Y-12309524D02*
X13510905Y-12319048D01*
X13510905Y-12319048D02*
X13520428Y-12328571D01*
X13520428Y-12328571D02*
X13529952Y-12319048D01*
X13529952Y-12319048D02*
X13520428Y-12309524D01*
X13520428Y-12309524D02*
X13520428Y-12328571D01*
X13644238Y-12509524D02*
X13625190Y-12500000D01*
X13625190Y-12500000D02*
X13615667Y-12480952D01*
X13615667Y-12480952D02*
X13615667Y-12309524D01*
X13749000Y-12509524D02*
X13729952Y-12500000D01*
X13729952Y-12500000D02*
X13720428Y-12480952D01*
X13720428Y-12480952D02*
X13720428Y-12309524D01*
X13977571Y-12509524D02*
X13977571Y-12309524D01*
X13977571Y-12309524D02*
X14044238Y-12452381D01*
X14044238Y-12452381D02*
X14110905Y-12309524D01*
X14110905Y-12309524D02*
X14110905Y-12509524D01*
X14291857Y-12509524D02*
X14291857Y-12404762D01*
X14291857Y-12404762D02*
X14282333Y-12385714D01*
X14282333Y-12385714D02*
X14263286Y-12376190D01*
X14263286Y-12376190D02*
X14225190Y-12376190D01*
X14225190Y-12376190D02*
X14206143Y-12385714D01*
X14291857Y-12500000D02*
X14272809Y-12509524D01*
X14272809Y-12509524D02*
X14225190Y-12509524D01*
X14225190Y-12509524D02*
X14206143Y-12500000D01*
X14206143Y-12500000D02*
X14196619Y-12480952D01*
X14196619Y-12480952D02*
X14196619Y-12461905D01*
X14196619Y-12461905D02*
X14206143Y-12442857D01*
X14206143Y-12442857D02*
X14225190Y-12433333D01*
X14225190Y-12433333D02*
X14272809Y-12433333D01*
X14272809Y-12433333D02*
X14291857Y-12423809D01*
X14387095Y-12376190D02*
X14387095Y-12576190D01*
X14387095Y-12385714D02*
X14406143Y-12376190D01*
X14406143Y-12376190D02*
X14444238Y-12376190D01*
X14444238Y-12376190D02*
X14463286Y-12385714D01*
X14463286Y-12385714D02*
X14472809Y-12395238D01*
X14472809Y-12395238D02*
X14482333Y-12414286D01*
X14482333Y-12414286D02*
X14482333Y-12471428D01*
X14482333Y-12471428D02*
X14472809Y-12490476D01*
X14472809Y-12490476D02*
X14463286Y-12500000D01*
X14463286Y-12500000D02*
X14444238Y-12509524D01*
X14444238Y-12509524D02*
X14406143Y-12509524D01*
X14406143Y-12509524D02*
X14387095Y-12500000D01*
X14568048Y-12490476D02*
X14577571Y-12500000D01*
X14577571Y-12500000D02*
X14568048Y-12509524D01*
X14568048Y-12509524D02*
X14558524Y-12500000D01*
X14558524Y-12500000D02*
X14568048Y-12490476D01*
X14568048Y-12490476D02*
X14568048Y-12509524D01*
X14568048Y-12385714D02*
X14577571Y-12395238D01*
X14577571Y-12395238D02*
X14568048Y-12404762D01*
X14568048Y-12404762D02*
X14558524Y-12395238D01*
X14558524Y-12395238D02*
X14568048Y-12385714D01*
X14568048Y-12385714D02*
X14568048Y-12404762D01*
M02*
