%TF.GenerationSoftware,KiCad,Pcbnew,7.0.2*%
%TF.CreationDate,2023-05-16T20:51:57+02:00*%
%TF.ProjectId,Display Adapter,44697370-6c61-4792-9041-646170746572,V1.0*%
%TF.SameCoordinates,Original*%
%TF.FileFunction,Drillmap*%
%TF.FilePolarity,Positive*%
%FSLAX45Y45*%
G04 Gerber Fmt 4.5, Leading zero omitted, Abs format (unit mm)*
G04 Created by KiCad (PCBNEW 7.0.2) date 2023-05-16 20:51:57*
%MOMM*%
%LPD*%
G01*
G04 APERTURE LIST*
%ADD10C,0.100000*%
%ADD11C,0.200000*%
%ADD12C,0.040000*%
G04 APERTURE END LIST*
D10*
X13335000Y-8382000D02*
G75*
G03*
X14097000Y-8382000I381000J0D01*
G01*
X12954000Y-12065000D02*
G75*
G03*
X13081000Y-12192000I127000J0D01*
G01*
X16637000Y-10795000D02*
X16256000Y-10795000D01*
X13081000Y-8382000D02*
G75*
G03*
X12954000Y-8509000I0J-127000D01*
G01*
X16764000Y-8509000D02*
G75*
G03*
X16637000Y-8382000I-127000J0D01*
G01*
X14097000Y-8382000D02*
X16637000Y-8382000D01*
X14097000Y-12192000D02*
G75*
G03*
X13335000Y-12192000I-381000J0D01*
G01*
X16764000Y-8509000D02*
X16764000Y-10668000D01*
X12954000Y-12065000D02*
X12954000Y-8509000D01*
X16129000Y-12192000D02*
X14097000Y-12192000D01*
X13335000Y-8382000D02*
X13081000Y-8382000D01*
X13335000Y-12192000D02*
X13081000Y-12192000D01*
X16256000Y-12065000D02*
X16256000Y-10795000D01*
X16637000Y-10795000D02*
G75*
G03*
X16764000Y-10668000I0J127000D01*
G01*
X16129000Y-12192000D02*
G75*
G03*
X16256000Y-12065000I0J127000D01*
G01*
D11*
D12*
X13061000Y-8489000D02*
X13101000Y-8529000D01*
X13101000Y-8489000D02*
X13061000Y-8529000D01*
X13442000Y-10521000D02*
X13482000Y-10561000D01*
X13482000Y-10521000D02*
X13442000Y-10561000D01*
X13696000Y-10267000D02*
X13736000Y-10307000D01*
X13736000Y-10267000D02*
X13696000Y-10307000D01*
X13823000Y-9505000D02*
X13863000Y-9545000D01*
X13863000Y-9505000D02*
X13823000Y-9545000D01*
X13823000Y-10140000D02*
X13863000Y-10180000D01*
X13863000Y-10140000D02*
X13823000Y-10180000D01*
X13950000Y-8743000D02*
X13990000Y-8783000D01*
X13990000Y-8743000D02*
X13950000Y-8783000D01*
X13950000Y-10775000D02*
X13990000Y-10815000D01*
X13990000Y-10775000D02*
X13950000Y-10815000D01*
X14204000Y-9378000D02*
X14244000Y-9418000D01*
X14244000Y-9378000D02*
X14204000Y-9418000D01*
X14331000Y-10521000D02*
X14371000Y-10561000D01*
X14371000Y-10521000D02*
X14331000Y-10561000D01*
X14966000Y-9886000D02*
X15006000Y-9926000D01*
X15006000Y-9886000D02*
X14966000Y-9926000D01*
X15220000Y-11029000D02*
X15260000Y-11069000D01*
X15260000Y-11029000D02*
X15220000Y-11069000D01*
X15347000Y-9886000D02*
X15387000Y-9926000D01*
X15387000Y-9886000D02*
X15347000Y-9926000D01*
X15728000Y-10775000D02*
X15768000Y-10815000D01*
X15768000Y-10775000D02*
X15728000Y-10815000D01*
X15855000Y-10648000D02*
X15895000Y-10688000D01*
X15895000Y-10648000D02*
X15855000Y-10688000D01*
X15855000Y-11283000D02*
X15895000Y-11323000D01*
X15895000Y-11283000D02*
X15855000Y-11323000D01*
X16363000Y-10648000D02*
X16403000Y-10688000D01*
X16403000Y-10648000D02*
X16363000Y-10688000D01*
D10*
X13258000Y-8636000D02*
G75*
G03*
X13258000Y-8636000I-50000J0D01*
G01*
X13258000Y-8890000D02*
G75*
G03*
X13258000Y-8890000I-50000J0D01*
G01*
X13258000Y-9144000D02*
G75*
G03*
X13258000Y-9144000I-50000J0D01*
G01*
X13258000Y-9398000D02*
G75*
G03*
X13258000Y-9398000I-50000J0D01*
G01*
X13258000Y-9652000D02*
G75*
G03*
X13258000Y-9652000I-50000J0D01*
G01*
X13258000Y-9906000D02*
G75*
G03*
X13258000Y-9906000I-50000J0D01*
G01*
X13258000Y-10160000D02*
G75*
G03*
X13258000Y-10160000I-50000J0D01*
G01*
X13258000Y-10414000D02*
G75*
G03*
X13258000Y-10414000I-50000J0D01*
G01*
X13258000Y-10668000D02*
G75*
G03*
X13258000Y-10668000I-50000J0D01*
G01*
X13258000Y-10922000D02*
G75*
G03*
X13258000Y-10922000I-50000J0D01*
G01*
X13258000Y-11176000D02*
G75*
G03*
X13258000Y-11176000I-50000J0D01*
G01*
X13258000Y-11430000D02*
G75*
G03*
X13258000Y-11430000I-50000J0D01*
G01*
X13258000Y-11684000D02*
G75*
G03*
X13258000Y-11684000I-50000J0D01*
G01*
X13258000Y-11938000D02*
G75*
G03*
X13258000Y-11938000I-50000J0D01*
G01*
X14655000Y-10160000D02*
G75*
G03*
X14655000Y-10160000I-50000J0D01*
G01*
X14655000Y-10414000D02*
G75*
G03*
X14655000Y-10414000I-50000J0D01*
G01*
X14909000Y-10160000D02*
G75*
G03*
X14909000Y-10160000I-50000J0D01*
G01*
X14909000Y-10414000D02*
G75*
G03*
X14909000Y-10414000I-50000J0D01*
G01*
X15163000Y-10160000D02*
G75*
G03*
X15163000Y-10160000I-50000J0D01*
G01*
X15163000Y-10414000D02*
G75*
G03*
X15163000Y-10414000I-50000J0D01*
G01*
X15417000Y-10160000D02*
G75*
G03*
X15417000Y-10160000I-50000J0D01*
G01*
X15417000Y-10414000D02*
G75*
G03*
X15417000Y-10414000I-50000J0D01*
G01*
X15671000Y-10160000D02*
G75*
G03*
X15671000Y-10160000I-50000J0D01*
G01*
X15671000Y-10414000D02*
G75*
G03*
X15671000Y-10414000I-50000J0D01*
G01*
X15925000Y-10160000D02*
G75*
G03*
X15925000Y-10160000I-50000J0D01*
G01*
X15925000Y-10414000D02*
G75*
G03*
X15925000Y-10414000I-50000J0D01*
G01*
X16179000Y-10160000D02*
G75*
G03*
X16179000Y-10160000I-50000J0D01*
G01*
X16179000Y-10414000D02*
G75*
G03*
X16179000Y-10414000I-50000J0D01*
G01*
D11*
X13196619Y-12509524D02*
X13196619Y-12309524D01*
X13196619Y-12309524D02*
X13244238Y-12309524D01*
X13244238Y-12309524D02*
X13272809Y-12319048D01*
X13272809Y-12319048D02*
X13291857Y-12338095D01*
X13291857Y-12338095D02*
X13301381Y-12357143D01*
X13301381Y-12357143D02*
X13310905Y-12395238D01*
X13310905Y-12395238D02*
X13310905Y-12423809D01*
X13310905Y-12423809D02*
X13301381Y-12461905D01*
X13301381Y-12461905D02*
X13291857Y-12480952D01*
X13291857Y-12480952D02*
X13272809Y-12500000D01*
X13272809Y-12500000D02*
X13244238Y-12509524D01*
X13244238Y-12509524D02*
X13196619Y-12509524D01*
X13396619Y-12509524D02*
X13396619Y-12376190D01*
X13396619Y-12414286D02*
X13406143Y-12395238D01*
X13406143Y-12395238D02*
X13415667Y-12385714D01*
X13415667Y-12385714D02*
X13434714Y-12376190D01*
X13434714Y-12376190D02*
X13453762Y-12376190D01*
X13520428Y-12509524D02*
X13520428Y-12376190D01*
X13520428Y-12309524D02*
X13510905Y-12319048D01*
X13510905Y-12319048D02*
X13520428Y-12328571D01*
X13520428Y-12328571D02*
X13529952Y-12319048D01*
X13529952Y-12319048D02*
X13520428Y-12309524D01*
X13520428Y-12309524D02*
X13520428Y-12328571D01*
X13644238Y-12509524D02*
X13625190Y-12500000D01*
X13625190Y-12500000D02*
X13615667Y-12480952D01*
X13615667Y-12480952D02*
X13615667Y-12309524D01*
X13749000Y-12509524D02*
X13729952Y-12500000D01*
X13729952Y-12500000D02*
X13720428Y-12480952D01*
X13720428Y-12480952D02*
X13720428Y-12309524D01*
X13977571Y-12509524D02*
X13977571Y-12309524D01*
X13977571Y-12309524D02*
X14044238Y-12452381D01*
X14044238Y-12452381D02*
X14110905Y-12309524D01*
X14110905Y-12309524D02*
X14110905Y-12509524D01*
X14291857Y-12509524D02*
X14291857Y-12404762D01*
X14291857Y-12404762D02*
X14282333Y-12385714D01*
X14282333Y-12385714D02*
X14263286Y-12376190D01*
X14263286Y-12376190D02*
X14225190Y-12376190D01*
X14225190Y-12376190D02*
X14206143Y-12385714D01*
X14291857Y-12500000D02*
X14272809Y-12509524D01*
X14272809Y-12509524D02*
X14225190Y-12509524D01*
X14225190Y-12509524D02*
X14206143Y-12500000D01*
X14206143Y-12500000D02*
X14196619Y-12480952D01*
X14196619Y-12480952D02*
X14196619Y-12461905D01*
X14196619Y-12461905D02*
X14206143Y-12442857D01*
X14206143Y-12442857D02*
X14225190Y-12433333D01*
X14225190Y-12433333D02*
X14272809Y-12433333D01*
X14272809Y-12433333D02*
X14291857Y-12423809D01*
X14387095Y-12376190D02*
X14387095Y-12576190D01*
X14387095Y-12385714D02*
X14406143Y-12376190D01*
X14406143Y-12376190D02*
X14444238Y-12376190D01*
X14444238Y-12376190D02*
X14463286Y-12385714D01*
X14463286Y-12385714D02*
X14472809Y-12395238D01*
X14472809Y-12395238D02*
X14482333Y-12414286D01*
X14482333Y-12414286D02*
X14482333Y-12471428D01*
X14482333Y-12471428D02*
X14472809Y-12490476D01*
X14472809Y-12490476D02*
X14463286Y-12500000D01*
X14463286Y-12500000D02*
X14444238Y-12509524D01*
X14444238Y-12509524D02*
X14406143Y-12509524D01*
X14406143Y-12509524D02*
X14387095Y-12500000D01*
X14568048Y-12490476D02*
X14577571Y-12500000D01*
X14577571Y-12500000D02*
X14568048Y-12509524D01*
X14568048Y-12509524D02*
X14558524Y-12500000D01*
X14558524Y-12500000D02*
X14568048Y-12490476D01*
X14568048Y-12490476D02*
X14568048Y-12509524D01*
X14568048Y-12385714D02*
X14577571Y-12395238D01*
X14577571Y-12395238D02*
X14568048Y-12404762D01*
X14568048Y-12404762D02*
X14558524Y-12395238D01*
X14558524Y-12395238D02*
X14568048Y-12385714D01*
X14568048Y-12385714D02*
X14568048Y-12404762D01*
D12*
X12909000Y-12817000D02*
X12949000Y-12857000D01*
X12949000Y-12817000D02*
X12909000Y-12857000D01*
D11*
X13234714Y-12729524D02*
X13253762Y-12729524D01*
X13253762Y-12729524D02*
X13272809Y-12739048D01*
X13272809Y-12739048D02*
X13282333Y-12748571D01*
X13282333Y-12748571D02*
X13291857Y-12767619D01*
X13291857Y-12767619D02*
X13301381Y-12805714D01*
X13301381Y-12805714D02*
X13301381Y-12853333D01*
X13301381Y-12853333D02*
X13291857Y-12891428D01*
X13291857Y-12891428D02*
X13282333Y-12910476D01*
X13282333Y-12910476D02*
X13272809Y-12920000D01*
X13272809Y-12920000D02*
X13253762Y-12929524D01*
X13253762Y-12929524D02*
X13234714Y-12929524D01*
X13234714Y-12929524D02*
X13215667Y-12920000D01*
X13215667Y-12920000D02*
X13206143Y-12910476D01*
X13206143Y-12910476D02*
X13196619Y-12891428D01*
X13196619Y-12891428D02*
X13187095Y-12853333D01*
X13187095Y-12853333D02*
X13187095Y-12805714D01*
X13187095Y-12805714D02*
X13196619Y-12767619D01*
X13196619Y-12767619D02*
X13206143Y-12748571D01*
X13206143Y-12748571D02*
X13215667Y-12739048D01*
X13215667Y-12739048D02*
X13234714Y-12729524D01*
X13387095Y-12910476D02*
X13396619Y-12920000D01*
X13396619Y-12920000D02*
X13387095Y-12929524D01*
X13387095Y-12929524D02*
X13377571Y-12920000D01*
X13377571Y-12920000D02*
X13387095Y-12910476D01*
X13387095Y-12910476D02*
X13387095Y-12929524D01*
X13568048Y-12796190D02*
X13568048Y-12929524D01*
X13520428Y-12720000D02*
X13472809Y-12862857D01*
X13472809Y-12862857D02*
X13596619Y-12862857D01*
X13710905Y-12729524D02*
X13729952Y-12729524D01*
X13729952Y-12729524D02*
X13749000Y-12739048D01*
X13749000Y-12739048D02*
X13758524Y-12748571D01*
X13758524Y-12748571D02*
X13768048Y-12767619D01*
X13768048Y-12767619D02*
X13777571Y-12805714D01*
X13777571Y-12805714D02*
X13777571Y-12853333D01*
X13777571Y-12853333D02*
X13768048Y-12891428D01*
X13768048Y-12891428D02*
X13758524Y-12910476D01*
X13758524Y-12910476D02*
X13749000Y-12920000D01*
X13749000Y-12920000D02*
X13729952Y-12929524D01*
X13729952Y-12929524D02*
X13710905Y-12929524D01*
X13710905Y-12929524D02*
X13691857Y-12920000D01*
X13691857Y-12920000D02*
X13682333Y-12910476D01*
X13682333Y-12910476D02*
X13672809Y-12891428D01*
X13672809Y-12891428D02*
X13663286Y-12853333D01*
X13663286Y-12853333D02*
X13663286Y-12805714D01*
X13663286Y-12805714D02*
X13672809Y-12767619D01*
X13672809Y-12767619D02*
X13682333Y-12748571D01*
X13682333Y-12748571D02*
X13691857Y-12739048D01*
X13691857Y-12739048D02*
X13710905Y-12729524D01*
X13901381Y-12729524D02*
X13920429Y-12729524D01*
X13920429Y-12729524D02*
X13939476Y-12739048D01*
X13939476Y-12739048D02*
X13949000Y-12748571D01*
X13949000Y-12748571D02*
X13958524Y-12767619D01*
X13958524Y-12767619D02*
X13968048Y-12805714D01*
X13968048Y-12805714D02*
X13968048Y-12853333D01*
X13968048Y-12853333D02*
X13958524Y-12891428D01*
X13958524Y-12891428D02*
X13949000Y-12910476D01*
X13949000Y-12910476D02*
X13939476Y-12920000D01*
X13939476Y-12920000D02*
X13920429Y-12929524D01*
X13920429Y-12929524D02*
X13901381Y-12929524D01*
X13901381Y-12929524D02*
X13882333Y-12920000D01*
X13882333Y-12920000D02*
X13872809Y-12910476D01*
X13872809Y-12910476D02*
X13863286Y-12891428D01*
X13863286Y-12891428D02*
X13853762Y-12853333D01*
X13853762Y-12853333D02*
X13853762Y-12805714D01*
X13853762Y-12805714D02*
X13863286Y-12767619D01*
X13863286Y-12767619D02*
X13872809Y-12748571D01*
X13872809Y-12748571D02*
X13882333Y-12739048D01*
X13882333Y-12739048D02*
X13901381Y-12729524D01*
X14053762Y-12929524D02*
X14053762Y-12796190D01*
X14053762Y-12815238D02*
X14063286Y-12805714D01*
X14063286Y-12805714D02*
X14082333Y-12796190D01*
X14082333Y-12796190D02*
X14110905Y-12796190D01*
X14110905Y-12796190D02*
X14129952Y-12805714D01*
X14129952Y-12805714D02*
X14139476Y-12824762D01*
X14139476Y-12824762D02*
X14139476Y-12929524D01*
X14139476Y-12824762D02*
X14149000Y-12805714D01*
X14149000Y-12805714D02*
X14168048Y-12796190D01*
X14168048Y-12796190D02*
X14196619Y-12796190D01*
X14196619Y-12796190D02*
X14215667Y-12805714D01*
X14215667Y-12805714D02*
X14225190Y-12824762D01*
X14225190Y-12824762D02*
X14225190Y-12929524D01*
X14320429Y-12929524D02*
X14320429Y-12796190D01*
X14320429Y-12815238D02*
X14329952Y-12805714D01*
X14329952Y-12805714D02*
X14349000Y-12796190D01*
X14349000Y-12796190D02*
X14377571Y-12796190D01*
X14377571Y-12796190D02*
X14396619Y-12805714D01*
X14396619Y-12805714D02*
X14406143Y-12824762D01*
X14406143Y-12824762D02*
X14406143Y-12929524D01*
X14406143Y-12824762D02*
X14415667Y-12805714D01*
X14415667Y-12805714D02*
X14434714Y-12796190D01*
X14434714Y-12796190D02*
X14463286Y-12796190D01*
X14463286Y-12796190D02*
X14482333Y-12805714D01*
X14482333Y-12805714D02*
X14491857Y-12824762D01*
X14491857Y-12824762D02*
X14491857Y-12929524D01*
X14882333Y-12720000D02*
X14710905Y-12977143D01*
X15139476Y-12729524D02*
X15158524Y-12729524D01*
X15158524Y-12729524D02*
X15177572Y-12739048D01*
X15177572Y-12739048D02*
X15187095Y-12748571D01*
X15187095Y-12748571D02*
X15196619Y-12767619D01*
X15196619Y-12767619D02*
X15206143Y-12805714D01*
X15206143Y-12805714D02*
X15206143Y-12853333D01*
X15206143Y-12853333D02*
X15196619Y-12891428D01*
X15196619Y-12891428D02*
X15187095Y-12910476D01*
X15187095Y-12910476D02*
X15177572Y-12920000D01*
X15177572Y-12920000D02*
X15158524Y-12929524D01*
X15158524Y-12929524D02*
X15139476Y-12929524D01*
X15139476Y-12929524D02*
X15120429Y-12920000D01*
X15120429Y-12920000D02*
X15110905Y-12910476D01*
X15110905Y-12910476D02*
X15101381Y-12891428D01*
X15101381Y-12891428D02*
X15091857Y-12853333D01*
X15091857Y-12853333D02*
X15091857Y-12805714D01*
X15091857Y-12805714D02*
X15101381Y-12767619D01*
X15101381Y-12767619D02*
X15110905Y-12748571D01*
X15110905Y-12748571D02*
X15120429Y-12739048D01*
X15120429Y-12739048D02*
X15139476Y-12729524D01*
X15291857Y-12910476D02*
X15301381Y-12920000D01*
X15301381Y-12920000D02*
X15291857Y-12929524D01*
X15291857Y-12929524D02*
X15282333Y-12920000D01*
X15282333Y-12920000D02*
X15291857Y-12910476D01*
X15291857Y-12910476D02*
X15291857Y-12929524D01*
X15425191Y-12729524D02*
X15444238Y-12729524D01*
X15444238Y-12729524D02*
X15463286Y-12739048D01*
X15463286Y-12739048D02*
X15472810Y-12748571D01*
X15472810Y-12748571D02*
X15482333Y-12767619D01*
X15482333Y-12767619D02*
X15491857Y-12805714D01*
X15491857Y-12805714D02*
X15491857Y-12853333D01*
X15491857Y-12853333D02*
X15482333Y-12891428D01*
X15482333Y-12891428D02*
X15472810Y-12910476D01*
X15472810Y-12910476D02*
X15463286Y-12920000D01*
X15463286Y-12920000D02*
X15444238Y-12929524D01*
X15444238Y-12929524D02*
X15425191Y-12929524D01*
X15425191Y-12929524D02*
X15406143Y-12920000D01*
X15406143Y-12920000D02*
X15396619Y-12910476D01*
X15396619Y-12910476D02*
X15387095Y-12891428D01*
X15387095Y-12891428D02*
X15377572Y-12853333D01*
X15377572Y-12853333D02*
X15377572Y-12805714D01*
X15377572Y-12805714D02*
X15387095Y-12767619D01*
X15387095Y-12767619D02*
X15396619Y-12748571D01*
X15396619Y-12748571D02*
X15406143Y-12739048D01*
X15406143Y-12739048D02*
X15425191Y-12729524D01*
X15682333Y-12929524D02*
X15568048Y-12929524D01*
X15625191Y-12929524D02*
X15625191Y-12729524D01*
X15625191Y-12729524D02*
X15606143Y-12758095D01*
X15606143Y-12758095D02*
X15587095Y-12777143D01*
X15587095Y-12777143D02*
X15568048Y-12786667D01*
X15863286Y-12729524D02*
X15768048Y-12729524D01*
X15768048Y-12729524D02*
X15758524Y-12824762D01*
X15758524Y-12824762D02*
X15768048Y-12815238D01*
X15768048Y-12815238D02*
X15787095Y-12805714D01*
X15787095Y-12805714D02*
X15834714Y-12805714D01*
X15834714Y-12805714D02*
X15853762Y-12815238D01*
X15853762Y-12815238D02*
X15863286Y-12824762D01*
X15863286Y-12824762D02*
X15872810Y-12843809D01*
X15872810Y-12843809D02*
X15872810Y-12891428D01*
X15872810Y-12891428D02*
X15863286Y-12910476D01*
X15863286Y-12910476D02*
X15853762Y-12920000D01*
X15853762Y-12920000D02*
X15834714Y-12929524D01*
X15834714Y-12929524D02*
X15787095Y-12929524D01*
X15787095Y-12929524D02*
X15768048Y-12920000D01*
X15768048Y-12920000D02*
X15758524Y-12910476D01*
X15939476Y-12729524D02*
X16072810Y-12729524D01*
X16072810Y-12729524D02*
X15987095Y-12929524D01*
X16139476Y-12729524D02*
X16139476Y-12767619D01*
X16215667Y-12729524D02*
X16215667Y-12767619D01*
X16510905Y-13005714D02*
X16501381Y-12996190D01*
X16501381Y-12996190D02*
X16482334Y-12967619D01*
X16482334Y-12967619D02*
X16472810Y-12948571D01*
X16472810Y-12948571D02*
X16463286Y-12920000D01*
X16463286Y-12920000D02*
X16453762Y-12872381D01*
X16453762Y-12872381D02*
X16453762Y-12834286D01*
X16453762Y-12834286D02*
X16463286Y-12786667D01*
X16463286Y-12786667D02*
X16472810Y-12758095D01*
X16472810Y-12758095D02*
X16482334Y-12739048D01*
X16482334Y-12739048D02*
X16501381Y-12710476D01*
X16501381Y-12710476D02*
X16510905Y-12700952D01*
X16691857Y-12929524D02*
X16577572Y-12929524D01*
X16634714Y-12929524D02*
X16634714Y-12729524D01*
X16634714Y-12729524D02*
X16615667Y-12758095D01*
X16615667Y-12758095D02*
X16596619Y-12777143D01*
X16596619Y-12777143D02*
X16577572Y-12786667D01*
X16863286Y-12729524D02*
X16825191Y-12729524D01*
X16825191Y-12729524D02*
X16806143Y-12739048D01*
X16806143Y-12739048D02*
X16796619Y-12748571D01*
X16796619Y-12748571D02*
X16777572Y-12777143D01*
X16777572Y-12777143D02*
X16768048Y-12815238D01*
X16768048Y-12815238D02*
X16768048Y-12891428D01*
X16768048Y-12891428D02*
X16777572Y-12910476D01*
X16777572Y-12910476D02*
X16787096Y-12920000D01*
X16787096Y-12920000D02*
X16806143Y-12929524D01*
X16806143Y-12929524D02*
X16844238Y-12929524D01*
X16844238Y-12929524D02*
X16863286Y-12920000D01*
X16863286Y-12920000D02*
X16872810Y-12910476D01*
X16872810Y-12910476D02*
X16882334Y-12891428D01*
X16882334Y-12891428D02*
X16882334Y-12843809D01*
X16882334Y-12843809D02*
X16872810Y-12824762D01*
X16872810Y-12824762D02*
X16863286Y-12815238D01*
X16863286Y-12815238D02*
X16844238Y-12805714D01*
X16844238Y-12805714D02*
X16806143Y-12805714D01*
X16806143Y-12805714D02*
X16787096Y-12815238D01*
X16787096Y-12815238D02*
X16777572Y-12824762D01*
X16777572Y-12824762D02*
X16768048Y-12843809D01*
X17120429Y-12929524D02*
X17120429Y-12729524D01*
X17206143Y-12929524D02*
X17206143Y-12824762D01*
X17206143Y-12824762D02*
X17196619Y-12805714D01*
X17196619Y-12805714D02*
X17177572Y-12796190D01*
X17177572Y-12796190D02*
X17149000Y-12796190D01*
X17149000Y-12796190D02*
X17129953Y-12805714D01*
X17129953Y-12805714D02*
X17120429Y-12815238D01*
X17329953Y-12929524D02*
X17310905Y-12920000D01*
X17310905Y-12920000D02*
X17301381Y-12910476D01*
X17301381Y-12910476D02*
X17291858Y-12891428D01*
X17291858Y-12891428D02*
X17291858Y-12834286D01*
X17291858Y-12834286D02*
X17301381Y-12815238D01*
X17301381Y-12815238D02*
X17310905Y-12805714D01*
X17310905Y-12805714D02*
X17329953Y-12796190D01*
X17329953Y-12796190D02*
X17358524Y-12796190D01*
X17358524Y-12796190D02*
X17377572Y-12805714D01*
X17377572Y-12805714D02*
X17387096Y-12815238D01*
X17387096Y-12815238D02*
X17396619Y-12834286D01*
X17396619Y-12834286D02*
X17396619Y-12891428D01*
X17396619Y-12891428D02*
X17387096Y-12910476D01*
X17387096Y-12910476D02*
X17377572Y-12920000D01*
X17377572Y-12920000D02*
X17358524Y-12929524D01*
X17358524Y-12929524D02*
X17329953Y-12929524D01*
X17510905Y-12929524D02*
X17491858Y-12920000D01*
X17491858Y-12920000D02*
X17482334Y-12900952D01*
X17482334Y-12900952D02*
X17482334Y-12729524D01*
X17663286Y-12920000D02*
X17644239Y-12929524D01*
X17644239Y-12929524D02*
X17606143Y-12929524D01*
X17606143Y-12929524D02*
X17587096Y-12920000D01*
X17587096Y-12920000D02*
X17577572Y-12900952D01*
X17577572Y-12900952D02*
X17577572Y-12824762D01*
X17577572Y-12824762D02*
X17587096Y-12805714D01*
X17587096Y-12805714D02*
X17606143Y-12796190D01*
X17606143Y-12796190D02*
X17644239Y-12796190D01*
X17644239Y-12796190D02*
X17663286Y-12805714D01*
X17663286Y-12805714D02*
X17672810Y-12824762D01*
X17672810Y-12824762D02*
X17672810Y-12843809D01*
X17672810Y-12843809D02*
X17577572Y-12862857D01*
X17749000Y-12920000D02*
X17768048Y-12929524D01*
X17768048Y-12929524D02*
X17806143Y-12929524D01*
X17806143Y-12929524D02*
X17825191Y-12920000D01*
X17825191Y-12920000D02*
X17834715Y-12900952D01*
X17834715Y-12900952D02*
X17834715Y-12891428D01*
X17834715Y-12891428D02*
X17825191Y-12872381D01*
X17825191Y-12872381D02*
X17806143Y-12862857D01*
X17806143Y-12862857D02*
X17777572Y-12862857D01*
X17777572Y-12862857D02*
X17758524Y-12853333D01*
X17758524Y-12853333D02*
X17749000Y-12834286D01*
X17749000Y-12834286D02*
X17749000Y-12824762D01*
X17749000Y-12824762D02*
X17758524Y-12805714D01*
X17758524Y-12805714D02*
X17777572Y-12796190D01*
X17777572Y-12796190D02*
X17806143Y-12796190D01*
X17806143Y-12796190D02*
X17825191Y-12805714D01*
X17901381Y-13005714D02*
X17910905Y-12996190D01*
X17910905Y-12996190D02*
X17929953Y-12967619D01*
X17929953Y-12967619D02*
X17939477Y-12948571D01*
X17939477Y-12948571D02*
X17949000Y-12920000D01*
X17949000Y-12920000D02*
X17958524Y-12872381D01*
X17958524Y-12872381D02*
X17958524Y-12834286D01*
X17958524Y-12834286D02*
X17949000Y-12786667D01*
X17949000Y-12786667D02*
X17939477Y-12758095D01*
X17939477Y-12758095D02*
X17929953Y-12739048D01*
X17929953Y-12739048D02*
X17910905Y-12710476D01*
X17910905Y-12710476D02*
X17901381Y-12700952D01*
D10*
X12949000Y-13101000D02*
G75*
G03*
X12949000Y-13101000I-50000J0D01*
G01*
D11*
X13301381Y-13193524D02*
X13187095Y-13193524D01*
X13244238Y-13193524D02*
X13244238Y-12993524D01*
X13244238Y-12993524D02*
X13225190Y-13022095D01*
X13225190Y-13022095D02*
X13206143Y-13041143D01*
X13206143Y-13041143D02*
X13187095Y-13050667D01*
X13387095Y-13174476D02*
X13396619Y-13184000D01*
X13396619Y-13184000D02*
X13387095Y-13193524D01*
X13387095Y-13193524D02*
X13377571Y-13184000D01*
X13377571Y-13184000D02*
X13387095Y-13174476D01*
X13387095Y-13174476D02*
X13387095Y-13193524D01*
X13520428Y-12993524D02*
X13539476Y-12993524D01*
X13539476Y-12993524D02*
X13558524Y-13003048D01*
X13558524Y-13003048D02*
X13568048Y-13012571D01*
X13568048Y-13012571D02*
X13577571Y-13031619D01*
X13577571Y-13031619D02*
X13587095Y-13069714D01*
X13587095Y-13069714D02*
X13587095Y-13117333D01*
X13587095Y-13117333D02*
X13577571Y-13155428D01*
X13577571Y-13155428D02*
X13568048Y-13174476D01*
X13568048Y-13174476D02*
X13558524Y-13184000D01*
X13558524Y-13184000D02*
X13539476Y-13193524D01*
X13539476Y-13193524D02*
X13520428Y-13193524D01*
X13520428Y-13193524D02*
X13501381Y-13184000D01*
X13501381Y-13184000D02*
X13491857Y-13174476D01*
X13491857Y-13174476D02*
X13482333Y-13155428D01*
X13482333Y-13155428D02*
X13472809Y-13117333D01*
X13472809Y-13117333D02*
X13472809Y-13069714D01*
X13472809Y-13069714D02*
X13482333Y-13031619D01*
X13482333Y-13031619D02*
X13491857Y-13012571D01*
X13491857Y-13012571D02*
X13501381Y-13003048D01*
X13501381Y-13003048D02*
X13520428Y-12993524D01*
X13710905Y-12993524D02*
X13729952Y-12993524D01*
X13729952Y-12993524D02*
X13749000Y-13003048D01*
X13749000Y-13003048D02*
X13758524Y-13012571D01*
X13758524Y-13012571D02*
X13768048Y-13031619D01*
X13768048Y-13031619D02*
X13777571Y-13069714D01*
X13777571Y-13069714D02*
X13777571Y-13117333D01*
X13777571Y-13117333D02*
X13768048Y-13155428D01*
X13768048Y-13155428D02*
X13758524Y-13174476D01*
X13758524Y-13174476D02*
X13749000Y-13184000D01*
X13749000Y-13184000D02*
X13729952Y-13193524D01*
X13729952Y-13193524D02*
X13710905Y-13193524D01*
X13710905Y-13193524D02*
X13691857Y-13184000D01*
X13691857Y-13184000D02*
X13682333Y-13174476D01*
X13682333Y-13174476D02*
X13672809Y-13155428D01*
X13672809Y-13155428D02*
X13663286Y-13117333D01*
X13663286Y-13117333D02*
X13663286Y-13069714D01*
X13663286Y-13069714D02*
X13672809Y-13031619D01*
X13672809Y-13031619D02*
X13682333Y-13012571D01*
X13682333Y-13012571D02*
X13691857Y-13003048D01*
X13691857Y-13003048D02*
X13710905Y-12993524D01*
X13901381Y-12993524D02*
X13920429Y-12993524D01*
X13920429Y-12993524D02*
X13939476Y-13003048D01*
X13939476Y-13003048D02*
X13949000Y-13012571D01*
X13949000Y-13012571D02*
X13958524Y-13031619D01*
X13958524Y-13031619D02*
X13968048Y-13069714D01*
X13968048Y-13069714D02*
X13968048Y-13117333D01*
X13968048Y-13117333D02*
X13958524Y-13155428D01*
X13958524Y-13155428D02*
X13949000Y-13174476D01*
X13949000Y-13174476D02*
X13939476Y-13184000D01*
X13939476Y-13184000D02*
X13920429Y-13193524D01*
X13920429Y-13193524D02*
X13901381Y-13193524D01*
X13901381Y-13193524D02*
X13882333Y-13184000D01*
X13882333Y-13184000D02*
X13872809Y-13174476D01*
X13872809Y-13174476D02*
X13863286Y-13155428D01*
X13863286Y-13155428D02*
X13853762Y-13117333D01*
X13853762Y-13117333D02*
X13853762Y-13069714D01*
X13853762Y-13069714D02*
X13863286Y-13031619D01*
X13863286Y-13031619D02*
X13872809Y-13012571D01*
X13872809Y-13012571D02*
X13882333Y-13003048D01*
X13882333Y-13003048D02*
X13901381Y-12993524D01*
X14053762Y-13193524D02*
X14053762Y-13060190D01*
X14053762Y-13079238D02*
X14063286Y-13069714D01*
X14063286Y-13069714D02*
X14082333Y-13060190D01*
X14082333Y-13060190D02*
X14110905Y-13060190D01*
X14110905Y-13060190D02*
X14129952Y-13069714D01*
X14129952Y-13069714D02*
X14139476Y-13088762D01*
X14139476Y-13088762D02*
X14139476Y-13193524D01*
X14139476Y-13088762D02*
X14149000Y-13069714D01*
X14149000Y-13069714D02*
X14168048Y-13060190D01*
X14168048Y-13060190D02*
X14196619Y-13060190D01*
X14196619Y-13060190D02*
X14215667Y-13069714D01*
X14215667Y-13069714D02*
X14225190Y-13088762D01*
X14225190Y-13088762D02*
X14225190Y-13193524D01*
X14320429Y-13193524D02*
X14320429Y-13060190D01*
X14320429Y-13079238D02*
X14329952Y-13069714D01*
X14329952Y-13069714D02*
X14349000Y-13060190D01*
X14349000Y-13060190D02*
X14377571Y-13060190D01*
X14377571Y-13060190D02*
X14396619Y-13069714D01*
X14396619Y-13069714D02*
X14406143Y-13088762D01*
X14406143Y-13088762D02*
X14406143Y-13193524D01*
X14406143Y-13088762D02*
X14415667Y-13069714D01*
X14415667Y-13069714D02*
X14434714Y-13060190D01*
X14434714Y-13060190D02*
X14463286Y-13060190D01*
X14463286Y-13060190D02*
X14482333Y-13069714D01*
X14482333Y-13069714D02*
X14491857Y-13088762D01*
X14491857Y-13088762D02*
X14491857Y-13193524D01*
X14882333Y-12984000D02*
X14710905Y-13241143D01*
X15139476Y-12993524D02*
X15158524Y-12993524D01*
X15158524Y-12993524D02*
X15177572Y-13003048D01*
X15177572Y-13003048D02*
X15187095Y-13012571D01*
X15187095Y-13012571D02*
X15196619Y-13031619D01*
X15196619Y-13031619D02*
X15206143Y-13069714D01*
X15206143Y-13069714D02*
X15206143Y-13117333D01*
X15206143Y-13117333D02*
X15196619Y-13155428D01*
X15196619Y-13155428D02*
X15187095Y-13174476D01*
X15187095Y-13174476D02*
X15177572Y-13184000D01*
X15177572Y-13184000D02*
X15158524Y-13193524D01*
X15158524Y-13193524D02*
X15139476Y-13193524D01*
X15139476Y-13193524D02*
X15120429Y-13184000D01*
X15120429Y-13184000D02*
X15110905Y-13174476D01*
X15110905Y-13174476D02*
X15101381Y-13155428D01*
X15101381Y-13155428D02*
X15091857Y-13117333D01*
X15091857Y-13117333D02*
X15091857Y-13069714D01*
X15091857Y-13069714D02*
X15101381Y-13031619D01*
X15101381Y-13031619D02*
X15110905Y-13012571D01*
X15110905Y-13012571D02*
X15120429Y-13003048D01*
X15120429Y-13003048D02*
X15139476Y-12993524D01*
X15291857Y-13174476D02*
X15301381Y-13184000D01*
X15301381Y-13184000D02*
X15291857Y-13193524D01*
X15291857Y-13193524D02*
X15282333Y-13184000D01*
X15282333Y-13184000D02*
X15291857Y-13174476D01*
X15291857Y-13174476D02*
X15291857Y-13193524D01*
X15425191Y-12993524D02*
X15444238Y-12993524D01*
X15444238Y-12993524D02*
X15463286Y-13003048D01*
X15463286Y-13003048D02*
X15472810Y-13012571D01*
X15472810Y-13012571D02*
X15482333Y-13031619D01*
X15482333Y-13031619D02*
X15491857Y-13069714D01*
X15491857Y-13069714D02*
X15491857Y-13117333D01*
X15491857Y-13117333D02*
X15482333Y-13155428D01*
X15482333Y-13155428D02*
X15472810Y-13174476D01*
X15472810Y-13174476D02*
X15463286Y-13184000D01*
X15463286Y-13184000D02*
X15444238Y-13193524D01*
X15444238Y-13193524D02*
X15425191Y-13193524D01*
X15425191Y-13193524D02*
X15406143Y-13184000D01*
X15406143Y-13184000D02*
X15396619Y-13174476D01*
X15396619Y-13174476D02*
X15387095Y-13155428D01*
X15387095Y-13155428D02*
X15377572Y-13117333D01*
X15377572Y-13117333D02*
X15377572Y-13069714D01*
X15377572Y-13069714D02*
X15387095Y-13031619D01*
X15387095Y-13031619D02*
X15396619Y-13012571D01*
X15396619Y-13012571D02*
X15406143Y-13003048D01*
X15406143Y-13003048D02*
X15425191Y-12993524D01*
X15558524Y-12993524D02*
X15682333Y-12993524D01*
X15682333Y-12993524D02*
X15615667Y-13069714D01*
X15615667Y-13069714D02*
X15644238Y-13069714D01*
X15644238Y-13069714D02*
X15663286Y-13079238D01*
X15663286Y-13079238D02*
X15672810Y-13088762D01*
X15672810Y-13088762D02*
X15682333Y-13107809D01*
X15682333Y-13107809D02*
X15682333Y-13155428D01*
X15682333Y-13155428D02*
X15672810Y-13174476D01*
X15672810Y-13174476D02*
X15663286Y-13184000D01*
X15663286Y-13184000D02*
X15644238Y-13193524D01*
X15644238Y-13193524D02*
X15587095Y-13193524D01*
X15587095Y-13193524D02*
X15568048Y-13184000D01*
X15568048Y-13184000D02*
X15558524Y-13174476D01*
X15777572Y-13193524D02*
X15815667Y-13193524D01*
X15815667Y-13193524D02*
X15834714Y-13184000D01*
X15834714Y-13184000D02*
X15844238Y-13174476D01*
X15844238Y-13174476D02*
X15863286Y-13145905D01*
X15863286Y-13145905D02*
X15872810Y-13107809D01*
X15872810Y-13107809D02*
X15872810Y-13031619D01*
X15872810Y-13031619D02*
X15863286Y-13012571D01*
X15863286Y-13012571D02*
X15853762Y-13003048D01*
X15853762Y-13003048D02*
X15834714Y-12993524D01*
X15834714Y-12993524D02*
X15796619Y-12993524D01*
X15796619Y-12993524D02*
X15777572Y-13003048D01*
X15777572Y-13003048D02*
X15768048Y-13012571D01*
X15768048Y-13012571D02*
X15758524Y-13031619D01*
X15758524Y-13031619D02*
X15758524Y-13079238D01*
X15758524Y-13079238D02*
X15768048Y-13098286D01*
X15768048Y-13098286D02*
X15777572Y-13107809D01*
X15777572Y-13107809D02*
X15796619Y-13117333D01*
X15796619Y-13117333D02*
X15834714Y-13117333D01*
X15834714Y-13117333D02*
X15853762Y-13107809D01*
X15853762Y-13107809D02*
X15863286Y-13098286D01*
X15863286Y-13098286D02*
X15872810Y-13079238D01*
X16044238Y-13060190D02*
X16044238Y-13193524D01*
X15996619Y-12984000D02*
X15949000Y-13126857D01*
X15949000Y-13126857D02*
X16072810Y-13126857D01*
X16139476Y-12993524D02*
X16139476Y-13031619D01*
X16215667Y-12993524D02*
X16215667Y-13031619D01*
X16510905Y-13269714D02*
X16501381Y-13260190D01*
X16501381Y-13260190D02*
X16482334Y-13231619D01*
X16482334Y-13231619D02*
X16472810Y-13212571D01*
X16472810Y-13212571D02*
X16463286Y-13184000D01*
X16463286Y-13184000D02*
X16453762Y-13136381D01*
X16453762Y-13136381D02*
X16453762Y-13098286D01*
X16453762Y-13098286D02*
X16463286Y-13050667D01*
X16463286Y-13050667D02*
X16472810Y-13022095D01*
X16472810Y-13022095D02*
X16482334Y-13003048D01*
X16482334Y-13003048D02*
X16501381Y-12974476D01*
X16501381Y-12974476D02*
X16510905Y-12964952D01*
X16577572Y-13012571D02*
X16587095Y-13003048D01*
X16587095Y-13003048D02*
X16606143Y-12993524D01*
X16606143Y-12993524D02*
X16653762Y-12993524D01*
X16653762Y-12993524D02*
X16672810Y-13003048D01*
X16672810Y-13003048D02*
X16682334Y-13012571D01*
X16682334Y-13012571D02*
X16691857Y-13031619D01*
X16691857Y-13031619D02*
X16691857Y-13050667D01*
X16691857Y-13050667D02*
X16682334Y-13079238D01*
X16682334Y-13079238D02*
X16568048Y-13193524D01*
X16568048Y-13193524D02*
X16691857Y-13193524D01*
X16806143Y-13079238D02*
X16787096Y-13069714D01*
X16787096Y-13069714D02*
X16777572Y-13060190D01*
X16777572Y-13060190D02*
X16768048Y-13041143D01*
X16768048Y-13041143D02*
X16768048Y-13031619D01*
X16768048Y-13031619D02*
X16777572Y-13012571D01*
X16777572Y-13012571D02*
X16787096Y-13003048D01*
X16787096Y-13003048D02*
X16806143Y-12993524D01*
X16806143Y-12993524D02*
X16844238Y-12993524D01*
X16844238Y-12993524D02*
X16863286Y-13003048D01*
X16863286Y-13003048D02*
X16872810Y-13012571D01*
X16872810Y-13012571D02*
X16882334Y-13031619D01*
X16882334Y-13031619D02*
X16882334Y-13041143D01*
X16882334Y-13041143D02*
X16872810Y-13060190D01*
X16872810Y-13060190D02*
X16863286Y-13069714D01*
X16863286Y-13069714D02*
X16844238Y-13079238D01*
X16844238Y-13079238D02*
X16806143Y-13079238D01*
X16806143Y-13079238D02*
X16787096Y-13088762D01*
X16787096Y-13088762D02*
X16777572Y-13098286D01*
X16777572Y-13098286D02*
X16768048Y-13117333D01*
X16768048Y-13117333D02*
X16768048Y-13155428D01*
X16768048Y-13155428D02*
X16777572Y-13174476D01*
X16777572Y-13174476D02*
X16787096Y-13184000D01*
X16787096Y-13184000D02*
X16806143Y-13193524D01*
X16806143Y-13193524D02*
X16844238Y-13193524D01*
X16844238Y-13193524D02*
X16863286Y-13184000D01*
X16863286Y-13184000D02*
X16872810Y-13174476D01*
X16872810Y-13174476D02*
X16882334Y-13155428D01*
X16882334Y-13155428D02*
X16882334Y-13117333D01*
X16882334Y-13117333D02*
X16872810Y-13098286D01*
X16872810Y-13098286D02*
X16863286Y-13088762D01*
X16863286Y-13088762D02*
X16844238Y-13079238D01*
X17120429Y-13193524D02*
X17120429Y-12993524D01*
X17206143Y-13193524D02*
X17206143Y-13088762D01*
X17206143Y-13088762D02*
X17196619Y-13069714D01*
X17196619Y-13069714D02*
X17177572Y-13060190D01*
X17177572Y-13060190D02*
X17149000Y-13060190D01*
X17149000Y-13060190D02*
X17129953Y-13069714D01*
X17129953Y-13069714D02*
X17120429Y-13079238D01*
X17329953Y-13193524D02*
X17310905Y-13184000D01*
X17310905Y-13184000D02*
X17301381Y-13174476D01*
X17301381Y-13174476D02*
X17291858Y-13155428D01*
X17291858Y-13155428D02*
X17291858Y-13098286D01*
X17291858Y-13098286D02*
X17301381Y-13079238D01*
X17301381Y-13079238D02*
X17310905Y-13069714D01*
X17310905Y-13069714D02*
X17329953Y-13060190D01*
X17329953Y-13060190D02*
X17358524Y-13060190D01*
X17358524Y-13060190D02*
X17377572Y-13069714D01*
X17377572Y-13069714D02*
X17387096Y-13079238D01*
X17387096Y-13079238D02*
X17396619Y-13098286D01*
X17396619Y-13098286D02*
X17396619Y-13155428D01*
X17396619Y-13155428D02*
X17387096Y-13174476D01*
X17387096Y-13174476D02*
X17377572Y-13184000D01*
X17377572Y-13184000D02*
X17358524Y-13193524D01*
X17358524Y-13193524D02*
X17329953Y-13193524D01*
X17510905Y-13193524D02*
X17491858Y-13184000D01*
X17491858Y-13184000D02*
X17482334Y-13164952D01*
X17482334Y-13164952D02*
X17482334Y-12993524D01*
X17663286Y-13184000D02*
X17644239Y-13193524D01*
X17644239Y-13193524D02*
X17606143Y-13193524D01*
X17606143Y-13193524D02*
X17587096Y-13184000D01*
X17587096Y-13184000D02*
X17577572Y-13164952D01*
X17577572Y-13164952D02*
X17577572Y-13088762D01*
X17577572Y-13088762D02*
X17587096Y-13069714D01*
X17587096Y-13069714D02*
X17606143Y-13060190D01*
X17606143Y-13060190D02*
X17644239Y-13060190D01*
X17644239Y-13060190D02*
X17663286Y-13069714D01*
X17663286Y-13069714D02*
X17672810Y-13088762D01*
X17672810Y-13088762D02*
X17672810Y-13107809D01*
X17672810Y-13107809D02*
X17577572Y-13126857D01*
X17749000Y-13184000D02*
X17768048Y-13193524D01*
X17768048Y-13193524D02*
X17806143Y-13193524D01*
X17806143Y-13193524D02*
X17825191Y-13184000D01*
X17825191Y-13184000D02*
X17834715Y-13164952D01*
X17834715Y-13164952D02*
X17834715Y-13155428D01*
X17834715Y-13155428D02*
X17825191Y-13136381D01*
X17825191Y-13136381D02*
X17806143Y-13126857D01*
X17806143Y-13126857D02*
X17777572Y-13126857D01*
X17777572Y-13126857D02*
X17758524Y-13117333D01*
X17758524Y-13117333D02*
X17749000Y-13098286D01*
X17749000Y-13098286D02*
X17749000Y-13088762D01*
X17749000Y-13088762D02*
X17758524Y-13069714D01*
X17758524Y-13069714D02*
X17777572Y-13060190D01*
X17777572Y-13060190D02*
X17806143Y-13060190D01*
X17806143Y-13060190D02*
X17825191Y-13069714D01*
X17901381Y-13269714D02*
X17910905Y-13260190D01*
X17910905Y-13260190D02*
X17929953Y-13231619D01*
X17929953Y-13231619D02*
X17939477Y-13212571D01*
X17939477Y-13212571D02*
X17949000Y-13184000D01*
X17949000Y-13184000D02*
X17958524Y-13136381D01*
X17958524Y-13136381D02*
X17958524Y-13098286D01*
X17958524Y-13098286D02*
X17949000Y-13050667D01*
X17949000Y-13050667D02*
X17939477Y-13022095D01*
X17939477Y-13022095D02*
X17929953Y-13003048D01*
X17929953Y-13003048D02*
X17910905Y-12974476D01*
X17910905Y-12974476D02*
X17901381Y-12964952D01*
M02*
