M48
; DRILL file {KiCad 7.0.2} date Tue May 16 20:51:56 2023
; FORMAT={-:-/ absolute / metric / decimal}
; #@! TF.CreationDate,2023-05-16T20:51:56+02:00
; #@! TF.GenerationSoftware,Kicad,Pcbnew,7.0.2
; #@! TF.FileFunction,Plated,1,2,PTH
FMAT,2
METRIC
; #@! TA.AperFunction,Plated,PTH,ViaDrill
T1C0.400
; #@! TA.AperFunction,Plated,PTH,ComponentDrill
T2C1.000
%
G90
G05
T1
X130.81Y-85.09
X134.62Y-105.41
X137.16Y-102.87
X138.43Y-95.25
X138.43Y-101.6
X139.7Y-87.63
X139.7Y-107.95
X142.24Y-93.98
X143.51Y-105.41
X149.86Y-99.06
X152.4Y-110.49
X153.67Y-99.06
X157.48Y-107.95
X158.75Y-106.68
X158.75Y-113.03
X163.83Y-106.68
T2
X132.08Y-86.36
X132.08Y-88.9
X132.08Y-91.44
X132.08Y-93.98
X132.08Y-96.52
X132.08Y-99.06
X132.08Y-101.6
X132.08Y-104.14
X132.08Y-106.68
X132.08Y-109.22
X132.08Y-111.76
X132.08Y-114.3
X132.08Y-116.84
X132.08Y-119.38
X146.05Y-101.6
X146.05Y-104.14
X148.59Y-101.6
X148.59Y-104.14
X151.13Y-101.6
X151.13Y-104.14
X153.67Y-101.6
X153.67Y-104.14
X156.21Y-101.6
X156.21Y-104.14
X158.75Y-101.6
X158.75Y-104.14
X161.29Y-101.6
X161.29Y-104.14
T0
M30
