G04 #@! TF.GenerationSoftware,KiCad,Pcbnew,7.0.2*
G04 #@! TF.CreationDate,2023-05-16T20:51:55+02:00*
G04 #@! TF.ProjectId,Display Adapter,44697370-6c61-4792-9041-646170746572,V1.0*
G04 #@! TF.SameCoordinates,Original*
G04 #@! TF.FileFunction,Legend,Top*
G04 #@! TF.FilePolarity,Positive*
%FSLAX46Y46*%
G04 Gerber Fmt 4.6, Leading zero omitted, Abs format (unit mm)*
G04 Created by KiCad (PCBNEW 7.0.2) date 2023-05-16 20:51:55*
%MOMM*%
%LPD*%
G01*
G04 APERTURE LIST*
G04 Aperture macros list*
%AMRoundRect*
0 Rectangle with rounded corners*
0 $1 Rounding radius*
0 $2 $3 $4 $5 $6 $7 $8 $9 X,Y pos of 4 corners*
0 Add a 4 corners polygon primitive as box body*
4,1,4,$2,$3,$4,$5,$6,$7,$8,$9,$2,$3,0*
0 Add four circle primitives for the rounded corners*
1,1,$1+$1,$2,$3*
1,1,$1+$1,$4,$5*
1,1,$1+$1,$6,$7*
1,1,$1+$1,$8,$9*
0 Add four rect primitives between the rounded corners*
20,1,$1+$1,$2,$3,$4,$5,0*
20,1,$1+$1,$4,$5,$6,$7,0*
20,1,$1+$1,$6,$7,$8,$9,0*
20,1,$1+$1,$8,$9,$2,$3,0*%
G04 Aperture macros list end*
%ADD10C,0.150000*%
%ADD11C,0.120000*%
%ADD12RoundRect,0.250000X-0.600000X0.600000X-0.600000X-0.600000X0.600000X-0.600000X0.600000X0.600000X0*%
%ADD13C,1.700000*%
%ADD14R,1.700000X1.700000*%
%ADD15O,1.700000X1.700000*%
G04 APERTURE END LIST*
D10*
X148127380Y-95789999D02*
X148127380Y-95313809D01*
X148127380Y-95313809D02*
X149127380Y-95313809D01*
X148651190Y-96123333D02*
X148651190Y-96456666D01*
X148127380Y-96599523D02*
X148127380Y-96123333D01*
X148127380Y-96123333D02*
X149127380Y-96123333D01*
X149127380Y-96123333D02*
X149127380Y-96599523D01*
X148127380Y-97028095D02*
X149127380Y-97028095D01*
X149127380Y-97028095D02*
X149127380Y-97266190D01*
X149127380Y-97266190D02*
X149079761Y-97409047D01*
X149079761Y-97409047D02*
X148984523Y-97504285D01*
X148984523Y-97504285D02*
X148889285Y-97551904D01*
X148889285Y-97551904D02*
X148698809Y-97599523D01*
X148698809Y-97599523D02*
X148555952Y-97599523D01*
X148555952Y-97599523D02*
X148365476Y-97551904D01*
X148365476Y-97551904D02*
X148270238Y-97504285D01*
X148270238Y-97504285D02*
X148175000Y-97409047D01*
X148175000Y-97409047D02*
X148127380Y-97266190D01*
X148127380Y-97266190D02*
X148127380Y-97028095D01*
X145622380Y-89822619D02*
X145622380Y-88822619D01*
X146241427Y-89822619D02*
X146146189Y-89775000D01*
X146146189Y-89775000D02*
X146098570Y-89727380D01*
X146098570Y-89727380D02*
X146050951Y-89632142D01*
X146050951Y-89632142D02*
X146050951Y-89346428D01*
X146050951Y-89346428D02*
X146098570Y-89251190D01*
X146098570Y-89251190D02*
X146146189Y-89203571D01*
X146146189Y-89203571D02*
X146241427Y-89155952D01*
X146241427Y-89155952D02*
X146384284Y-89155952D01*
X146384284Y-89155952D02*
X146479522Y-89203571D01*
X146479522Y-89203571D02*
X146527141Y-89251190D01*
X146527141Y-89251190D02*
X146574760Y-89346428D01*
X146574760Y-89346428D02*
X146574760Y-89632142D01*
X146574760Y-89632142D02*
X146527141Y-89727380D01*
X146527141Y-89727380D02*
X146479522Y-89775000D01*
X146479522Y-89775000D02*
X146384284Y-89822619D01*
X146384284Y-89822619D02*
X146241427Y-89822619D01*
X146860475Y-88822619D02*
X147431903Y-88822619D01*
X147146189Y-89822619D02*
X147146189Y-88822619D01*
X148289046Y-89822619D02*
X147717618Y-89822619D01*
X148003332Y-89822619D02*
X148003332Y-88822619D01*
X148003332Y-88822619D02*
X147908094Y-88965476D01*
X147908094Y-88965476D02*
X147812856Y-89060714D01*
X147812856Y-89060714D02*
X147717618Y-89108333D01*
X148669999Y-88917857D02*
X148717618Y-88870238D01*
X148717618Y-88870238D02*
X148812856Y-88822619D01*
X148812856Y-88822619D02*
X149050951Y-88822619D01*
X149050951Y-88822619D02*
X149146189Y-88870238D01*
X149146189Y-88870238D02*
X149193808Y-88917857D01*
X149193808Y-88917857D02*
X149241427Y-89013095D01*
X149241427Y-89013095D02*
X149241427Y-89108333D01*
X149241427Y-89108333D02*
X149193808Y-89251190D01*
X149193808Y-89251190D02*
X148622380Y-89822619D01*
X148622380Y-89822619D02*
X149241427Y-89822619D01*
X150431904Y-89822619D02*
X150431904Y-88822619D01*
X150431904Y-88822619D02*
X150669999Y-88822619D01*
X150669999Y-88822619D02*
X150812856Y-88870238D01*
X150812856Y-88870238D02*
X150908094Y-88965476D01*
X150908094Y-88965476D02*
X150955713Y-89060714D01*
X150955713Y-89060714D02*
X151003332Y-89251190D01*
X151003332Y-89251190D02*
X151003332Y-89394047D01*
X151003332Y-89394047D02*
X150955713Y-89584523D01*
X150955713Y-89584523D02*
X150908094Y-89679761D01*
X150908094Y-89679761D02*
X150812856Y-89775000D01*
X150812856Y-89775000D02*
X150669999Y-89822619D01*
X150669999Y-89822619D02*
X150431904Y-89822619D01*
X151431904Y-89822619D02*
X151431904Y-89155952D01*
X151431904Y-88822619D02*
X151384285Y-88870238D01*
X151384285Y-88870238D02*
X151431904Y-88917857D01*
X151431904Y-88917857D02*
X151479523Y-88870238D01*
X151479523Y-88870238D02*
X151431904Y-88822619D01*
X151431904Y-88822619D02*
X151431904Y-88917857D01*
X151860475Y-89775000D02*
X151955713Y-89822619D01*
X151955713Y-89822619D02*
X152146189Y-89822619D01*
X152146189Y-89822619D02*
X152241427Y-89775000D01*
X152241427Y-89775000D02*
X152289046Y-89679761D01*
X152289046Y-89679761D02*
X152289046Y-89632142D01*
X152289046Y-89632142D02*
X152241427Y-89536904D01*
X152241427Y-89536904D02*
X152146189Y-89489285D01*
X152146189Y-89489285D02*
X152003332Y-89489285D01*
X152003332Y-89489285D02*
X151908094Y-89441666D01*
X151908094Y-89441666D02*
X151860475Y-89346428D01*
X151860475Y-89346428D02*
X151860475Y-89298809D01*
X151860475Y-89298809D02*
X151908094Y-89203571D01*
X151908094Y-89203571D02*
X152003332Y-89155952D01*
X152003332Y-89155952D02*
X152146189Y-89155952D01*
X152146189Y-89155952D02*
X152241427Y-89203571D01*
X152717618Y-89155952D02*
X152717618Y-90155952D01*
X152717618Y-89203571D02*
X152812856Y-89155952D01*
X152812856Y-89155952D02*
X153003332Y-89155952D01*
X153003332Y-89155952D02*
X153098570Y-89203571D01*
X153098570Y-89203571D02*
X153146189Y-89251190D01*
X153146189Y-89251190D02*
X153193808Y-89346428D01*
X153193808Y-89346428D02*
X153193808Y-89632142D01*
X153193808Y-89632142D02*
X153146189Y-89727380D01*
X153146189Y-89727380D02*
X153098570Y-89775000D01*
X153098570Y-89775000D02*
X153003332Y-89822619D01*
X153003332Y-89822619D02*
X152812856Y-89822619D01*
X152812856Y-89822619D02*
X152717618Y-89775000D01*
X153765237Y-89822619D02*
X153669999Y-89775000D01*
X153669999Y-89775000D02*
X153622380Y-89679761D01*
X153622380Y-89679761D02*
X153622380Y-88822619D01*
X154574761Y-89822619D02*
X154574761Y-89298809D01*
X154574761Y-89298809D02*
X154527142Y-89203571D01*
X154527142Y-89203571D02*
X154431904Y-89155952D01*
X154431904Y-89155952D02*
X154241428Y-89155952D01*
X154241428Y-89155952D02*
X154146190Y-89203571D01*
X154574761Y-89775000D02*
X154479523Y-89822619D01*
X154479523Y-89822619D02*
X154241428Y-89822619D01*
X154241428Y-89822619D02*
X154146190Y-89775000D01*
X154146190Y-89775000D02*
X154098571Y-89679761D01*
X154098571Y-89679761D02*
X154098571Y-89584523D01*
X154098571Y-89584523D02*
X154146190Y-89489285D01*
X154146190Y-89489285D02*
X154241428Y-89441666D01*
X154241428Y-89441666D02*
X154479523Y-89441666D01*
X154479523Y-89441666D02*
X154574761Y-89394047D01*
X154955714Y-89155952D02*
X155193809Y-89822619D01*
X155431904Y-89155952D02*
X155193809Y-89822619D01*
X155193809Y-89822619D02*
X155098571Y-90060714D01*
X155098571Y-90060714D02*
X155050952Y-90108333D01*
X155050952Y-90108333D02*
X154955714Y-90155952D01*
X156527143Y-89536904D02*
X157003333Y-89536904D01*
X156431905Y-89822619D02*
X156765238Y-88822619D01*
X156765238Y-88822619D02*
X157098571Y-89822619D01*
X157860476Y-89822619D02*
X157860476Y-88822619D01*
X157860476Y-89775000D02*
X157765238Y-89822619D01*
X157765238Y-89822619D02*
X157574762Y-89822619D01*
X157574762Y-89822619D02*
X157479524Y-89775000D01*
X157479524Y-89775000D02*
X157431905Y-89727380D01*
X157431905Y-89727380D02*
X157384286Y-89632142D01*
X157384286Y-89632142D02*
X157384286Y-89346428D01*
X157384286Y-89346428D02*
X157431905Y-89251190D01*
X157431905Y-89251190D02*
X157479524Y-89203571D01*
X157479524Y-89203571D02*
X157574762Y-89155952D01*
X157574762Y-89155952D02*
X157765238Y-89155952D01*
X157765238Y-89155952D02*
X157860476Y-89203571D01*
X158765238Y-89822619D02*
X158765238Y-89298809D01*
X158765238Y-89298809D02*
X158717619Y-89203571D01*
X158717619Y-89203571D02*
X158622381Y-89155952D01*
X158622381Y-89155952D02*
X158431905Y-89155952D01*
X158431905Y-89155952D02*
X158336667Y-89203571D01*
X158765238Y-89775000D02*
X158670000Y-89822619D01*
X158670000Y-89822619D02*
X158431905Y-89822619D01*
X158431905Y-89822619D02*
X158336667Y-89775000D01*
X158336667Y-89775000D02*
X158289048Y-89679761D01*
X158289048Y-89679761D02*
X158289048Y-89584523D01*
X158289048Y-89584523D02*
X158336667Y-89489285D01*
X158336667Y-89489285D02*
X158431905Y-89441666D01*
X158431905Y-89441666D02*
X158670000Y-89441666D01*
X158670000Y-89441666D02*
X158765238Y-89394047D01*
X159241429Y-89155952D02*
X159241429Y-90155952D01*
X159241429Y-89203571D02*
X159336667Y-89155952D01*
X159336667Y-89155952D02*
X159527143Y-89155952D01*
X159527143Y-89155952D02*
X159622381Y-89203571D01*
X159622381Y-89203571D02*
X159670000Y-89251190D01*
X159670000Y-89251190D02*
X159717619Y-89346428D01*
X159717619Y-89346428D02*
X159717619Y-89632142D01*
X159717619Y-89632142D02*
X159670000Y-89727380D01*
X159670000Y-89727380D02*
X159622381Y-89775000D01*
X159622381Y-89775000D02*
X159527143Y-89822619D01*
X159527143Y-89822619D02*
X159336667Y-89822619D01*
X159336667Y-89822619D02*
X159241429Y-89775000D01*
X160003334Y-89155952D02*
X160384286Y-89155952D01*
X160146191Y-88822619D02*
X160146191Y-89679761D01*
X160146191Y-89679761D02*
X160193810Y-89775000D01*
X160193810Y-89775000D02*
X160289048Y-89822619D01*
X160289048Y-89822619D02*
X160384286Y-89822619D01*
X161098572Y-89775000D02*
X161003334Y-89822619D01*
X161003334Y-89822619D02*
X160812858Y-89822619D01*
X160812858Y-89822619D02*
X160717620Y-89775000D01*
X160717620Y-89775000D02*
X160670001Y-89679761D01*
X160670001Y-89679761D02*
X160670001Y-89298809D01*
X160670001Y-89298809D02*
X160717620Y-89203571D01*
X160717620Y-89203571D02*
X160812858Y-89155952D01*
X160812858Y-89155952D02*
X161003334Y-89155952D01*
X161003334Y-89155952D02*
X161098572Y-89203571D01*
X161098572Y-89203571D02*
X161146191Y-89298809D01*
X161146191Y-89298809D02*
X161146191Y-89394047D01*
X161146191Y-89394047D02*
X160670001Y-89489285D01*
X161574763Y-89822619D02*
X161574763Y-89155952D01*
X161574763Y-89346428D02*
X161622382Y-89251190D01*
X161622382Y-89251190D02*
X161670001Y-89203571D01*
X161670001Y-89203571D02*
X161765239Y-89155952D01*
X161765239Y-89155952D02*
X161860477Y-89155952D01*
X146479524Y-90442619D02*
X146812857Y-91442619D01*
X146812857Y-91442619D02*
X147146190Y-90442619D01*
X148003333Y-91442619D02*
X147431905Y-91442619D01*
X147717619Y-91442619D02*
X147717619Y-90442619D01*
X147717619Y-90442619D02*
X147622381Y-90585476D01*
X147622381Y-90585476D02*
X147527143Y-90680714D01*
X147527143Y-90680714D02*
X147431905Y-90728333D01*
X148431905Y-91347380D02*
X148479524Y-91395000D01*
X148479524Y-91395000D02*
X148431905Y-91442619D01*
X148431905Y-91442619D02*
X148384286Y-91395000D01*
X148384286Y-91395000D02*
X148431905Y-91347380D01*
X148431905Y-91347380D02*
X148431905Y-91442619D01*
X149098571Y-90442619D02*
X149193809Y-90442619D01*
X149193809Y-90442619D02*
X149289047Y-90490238D01*
X149289047Y-90490238D02*
X149336666Y-90537857D01*
X149336666Y-90537857D02*
X149384285Y-90633095D01*
X149384285Y-90633095D02*
X149431904Y-90823571D01*
X149431904Y-90823571D02*
X149431904Y-91061666D01*
X149431904Y-91061666D02*
X149384285Y-91252142D01*
X149384285Y-91252142D02*
X149336666Y-91347380D01*
X149336666Y-91347380D02*
X149289047Y-91395000D01*
X149289047Y-91395000D02*
X149193809Y-91442619D01*
X149193809Y-91442619D02*
X149098571Y-91442619D01*
X149098571Y-91442619D02*
X149003333Y-91395000D01*
X149003333Y-91395000D02*
X148955714Y-91347380D01*
X148955714Y-91347380D02*
X148908095Y-91252142D01*
X148908095Y-91252142D02*
X148860476Y-91061666D01*
X148860476Y-91061666D02*
X148860476Y-90823571D01*
X148860476Y-90823571D02*
X148908095Y-90633095D01*
X148908095Y-90633095D02*
X148955714Y-90537857D01*
X148955714Y-90537857D02*
X149003333Y-90490238D01*
X149003333Y-90490238D02*
X149098571Y-90442619D01*
X149908095Y-91395000D02*
X149908095Y-91442619D01*
X149908095Y-91442619D02*
X149860476Y-91537857D01*
X149860476Y-91537857D02*
X149812857Y-91585476D01*
X151050952Y-90537857D02*
X151098571Y-90490238D01*
X151098571Y-90490238D02*
X151193809Y-90442619D01*
X151193809Y-90442619D02*
X151431904Y-90442619D01*
X151431904Y-90442619D02*
X151527142Y-90490238D01*
X151527142Y-90490238D02*
X151574761Y-90537857D01*
X151574761Y-90537857D02*
X151622380Y-90633095D01*
X151622380Y-90633095D02*
X151622380Y-90728333D01*
X151622380Y-90728333D02*
X151574761Y-90871190D01*
X151574761Y-90871190D02*
X151003333Y-91442619D01*
X151003333Y-91442619D02*
X151622380Y-91442619D01*
X152241428Y-90442619D02*
X152336666Y-90442619D01*
X152336666Y-90442619D02*
X152431904Y-90490238D01*
X152431904Y-90490238D02*
X152479523Y-90537857D01*
X152479523Y-90537857D02*
X152527142Y-90633095D01*
X152527142Y-90633095D02*
X152574761Y-90823571D01*
X152574761Y-90823571D02*
X152574761Y-91061666D01*
X152574761Y-91061666D02*
X152527142Y-91252142D01*
X152527142Y-91252142D02*
X152479523Y-91347380D01*
X152479523Y-91347380D02*
X152431904Y-91395000D01*
X152431904Y-91395000D02*
X152336666Y-91442619D01*
X152336666Y-91442619D02*
X152241428Y-91442619D01*
X152241428Y-91442619D02*
X152146190Y-91395000D01*
X152146190Y-91395000D02*
X152098571Y-91347380D01*
X152098571Y-91347380D02*
X152050952Y-91252142D01*
X152050952Y-91252142D02*
X152003333Y-91061666D01*
X152003333Y-91061666D02*
X152003333Y-90823571D01*
X152003333Y-90823571D02*
X152050952Y-90633095D01*
X152050952Y-90633095D02*
X152098571Y-90537857D01*
X152098571Y-90537857D02*
X152146190Y-90490238D01*
X152146190Y-90490238D02*
X152241428Y-90442619D01*
X152955714Y-90537857D02*
X153003333Y-90490238D01*
X153003333Y-90490238D02*
X153098571Y-90442619D01*
X153098571Y-90442619D02*
X153336666Y-90442619D01*
X153336666Y-90442619D02*
X153431904Y-90490238D01*
X153431904Y-90490238D02*
X153479523Y-90537857D01*
X153479523Y-90537857D02*
X153527142Y-90633095D01*
X153527142Y-90633095D02*
X153527142Y-90728333D01*
X153527142Y-90728333D02*
X153479523Y-90871190D01*
X153479523Y-90871190D02*
X152908095Y-91442619D01*
X152908095Y-91442619D02*
X153527142Y-91442619D01*
X153908095Y-90537857D02*
X153955714Y-90490238D01*
X153955714Y-90490238D02*
X154050952Y-90442619D01*
X154050952Y-90442619D02*
X154289047Y-90442619D01*
X154289047Y-90442619D02*
X154384285Y-90490238D01*
X154384285Y-90490238D02*
X154431904Y-90537857D01*
X154431904Y-90537857D02*
X154479523Y-90633095D01*
X154479523Y-90633095D02*
X154479523Y-90728333D01*
X154479523Y-90728333D02*
X154431904Y-90871190D01*
X154431904Y-90871190D02*
X153860476Y-91442619D01*
X153860476Y-91442619D02*
X154479523Y-91442619D01*
X154908095Y-91061666D02*
X155670000Y-91061666D01*
X156669999Y-91442619D02*
X156098571Y-91442619D01*
X156384285Y-91442619D02*
X156384285Y-90442619D01*
X156384285Y-90442619D02*
X156289047Y-90585476D01*
X156289047Y-90585476D02*
X156193809Y-90680714D01*
X156193809Y-90680714D02*
X156098571Y-90728333D01*
X157050952Y-90537857D02*
X157098571Y-90490238D01*
X157098571Y-90490238D02*
X157193809Y-90442619D01*
X157193809Y-90442619D02*
X157431904Y-90442619D01*
X157431904Y-90442619D02*
X157527142Y-90490238D01*
X157527142Y-90490238D02*
X157574761Y-90537857D01*
X157574761Y-90537857D02*
X157622380Y-90633095D01*
X157622380Y-90633095D02*
X157622380Y-90728333D01*
X157622380Y-90728333D02*
X157574761Y-90871190D01*
X157574761Y-90871190D02*
X157003333Y-91442619D01*
X157003333Y-91442619D02*
X157622380Y-91442619D01*
X158050952Y-91061666D02*
X158812857Y-91061666D01*
X159241428Y-90537857D02*
X159289047Y-90490238D01*
X159289047Y-90490238D02*
X159384285Y-90442619D01*
X159384285Y-90442619D02*
X159622380Y-90442619D01*
X159622380Y-90442619D02*
X159717618Y-90490238D01*
X159717618Y-90490238D02*
X159765237Y-90537857D01*
X159765237Y-90537857D02*
X159812856Y-90633095D01*
X159812856Y-90633095D02*
X159812856Y-90728333D01*
X159812856Y-90728333D02*
X159765237Y-90871190D01*
X159765237Y-90871190D02*
X159193809Y-91442619D01*
X159193809Y-91442619D02*
X159812856Y-91442619D01*
X160431904Y-90442619D02*
X160527142Y-90442619D01*
X160527142Y-90442619D02*
X160622380Y-90490238D01*
X160622380Y-90490238D02*
X160669999Y-90537857D01*
X160669999Y-90537857D02*
X160717618Y-90633095D01*
X160717618Y-90633095D02*
X160765237Y-90823571D01*
X160765237Y-90823571D02*
X160765237Y-91061666D01*
X160765237Y-91061666D02*
X160717618Y-91252142D01*
X160717618Y-91252142D02*
X160669999Y-91347380D01*
X160669999Y-91347380D02*
X160622380Y-91395000D01*
X160622380Y-91395000D02*
X160527142Y-91442619D01*
X160527142Y-91442619D02*
X160431904Y-91442619D01*
X160431904Y-91442619D02*
X160336666Y-91395000D01*
X160336666Y-91395000D02*
X160289047Y-91347380D01*
X160289047Y-91347380D02*
X160241428Y-91252142D01*
X160241428Y-91252142D02*
X160193809Y-91061666D01*
X160193809Y-91061666D02*
X160193809Y-90823571D01*
X160193809Y-90823571D02*
X160241428Y-90633095D01*
X160241428Y-90633095D02*
X160289047Y-90537857D01*
X160289047Y-90537857D02*
X160336666Y-90490238D01*
X160336666Y-90490238D02*
X160431904Y-90442619D01*
X146587380Y-108045238D02*
X146587380Y-108616666D01*
X145587380Y-108330952D02*
X146587380Y-108330952D01*
X145492142Y-108711905D02*
X145492142Y-109473809D01*
X145587380Y-109711905D02*
X146587380Y-109711905D01*
X145587380Y-110759523D02*
X146063571Y-110426190D01*
X145587380Y-110188095D02*
X146587380Y-110188095D01*
X146587380Y-110188095D02*
X146587380Y-110569047D01*
X146587380Y-110569047D02*
X146539761Y-110664285D01*
X146539761Y-110664285D02*
X146492142Y-110711904D01*
X146492142Y-110711904D02*
X146396904Y-110759523D01*
X146396904Y-110759523D02*
X146254047Y-110759523D01*
X146254047Y-110759523D02*
X146158809Y-110711904D01*
X146158809Y-110711904D02*
X146111190Y-110664285D01*
X146111190Y-110664285D02*
X146063571Y-110569047D01*
X146063571Y-110569047D02*
X146063571Y-110188095D01*
X145492142Y-111854761D02*
X145539761Y-111759523D01*
X145539761Y-111759523D02*
X145635000Y-111664285D01*
X145635000Y-111664285D02*
X145777857Y-111521428D01*
X145777857Y-111521428D02*
X145825476Y-111426190D01*
X145825476Y-111426190D02*
X145825476Y-111330952D01*
X145587380Y-111378571D02*
X145635000Y-111283333D01*
X145635000Y-111283333D02*
X145730238Y-111188095D01*
X145730238Y-111188095D02*
X145920714Y-111140476D01*
X145920714Y-111140476D02*
X146254047Y-111140476D01*
X146254047Y-111140476D02*
X146444523Y-111188095D01*
X146444523Y-111188095D02*
X146539761Y-111283333D01*
X146539761Y-111283333D02*
X146587380Y-111378571D01*
X146587380Y-111378571D02*
X146587380Y-111569047D01*
X146587380Y-111569047D02*
X146539761Y-111664285D01*
X146539761Y-111664285D02*
X146444523Y-111759523D01*
X146444523Y-111759523D02*
X146254047Y-111807142D01*
X146254047Y-111807142D02*
X145920714Y-111807142D01*
X145920714Y-111807142D02*
X145730238Y-111759523D01*
X145730238Y-111759523D02*
X145635000Y-111664285D01*
X145635000Y-111664285D02*
X145587380Y-111569047D01*
X145587380Y-111569047D02*
X145587380Y-111378571D01*
X159239761Y-95504285D02*
X159287380Y-95409047D01*
X159287380Y-95409047D02*
X159287380Y-95266190D01*
X159287380Y-95266190D02*
X159239761Y-95123333D01*
X159239761Y-95123333D02*
X159144523Y-95028095D01*
X159144523Y-95028095D02*
X159049285Y-94980476D01*
X159049285Y-94980476D02*
X158858809Y-94932857D01*
X158858809Y-94932857D02*
X158715952Y-94932857D01*
X158715952Y-94932857D02*
X158525476Y-94980476D01*
X158525476Y-94980476D02*
X158430238Y-95028095D01*
X158430238Y-95028095D02*
X158335000Y-95123333D01*
X158335000Y-95123333D02*
X158287380Y-95266190D01*
X158287380Y-95266190D02*
X158287380Y-95361428D01*
X158287380Y-95361428D02*
X158335000Y-95504285D01*
X158335000Y-95504285D02*
X158382619Y-95551904D01*
X158382619Y-95551904D02*
X158715952Y-95551904D01*
X158715952Y-95551904D02*
X158715952Y-95361428D01*
X158287380Y-95980476D02*
X159287380Y-95980476D01*
X159287380Y-95980476D02*
X158287380Y-96551904D01*
X158287380Y-96551904D02*
X159287380Y-96551904D01*
X158287380Y-97028095D02*
X159287380Y-97028095D01*
X159287380Y-97028095D02*
X159287380Y-97266190D01*
X159287380Y-97266190D02*
X159239761Y-97409047D01*
X159239761Y-97409047D02*
X159144523Y-97504285D01*
X159144523Y-97504285D02*
X159049285Y-97551904D01*
X159049285Y-97551904D02*
X158858809Y-97599523D01*
X158858809Y-97599523D02*
X158715952Y-97599523D01*
X158715952Y-97599523D02*
X158525476Y-97551904D01*
X158525476Y-97551904D02*
X158430238Y-97504285D01*
X158430238Y-97504285D02*
X158335000Y-97409047D01*
X158335000Y-97409047D02*
X158287380Y-97266190D01*
X158287380Y-97266190D02*
X158287380Y-97028095D01*
X142502856Y-114698809D02*
X142645713Y-114746428D01*
X142645713Y-114746428D02*
X142693332Y-114794047D01*
X142693332Y-114794047D02*
X142740951Y-114889285D01*
X142740951Y-114889285D02*
X142740951Y-115032142D01*
X142740951Y-115032142D02*
X142693332Y-115127380D01*
X142693332Y-115127380D02*
X142645713Y-115175000D01*
X142645713Y-115175000D02*
X142550475Y-115222619D01*
X142550475Y-115222619D02*
X142169523Y-115222619D01*
X142169523Y-115222619D02*
X142169523Y-114222619D01*
X142169523Y-114222619D02*
X142502856Y-114222619D01*
X142502856Y-114222619D02*
X142598094Y-114270238D01*
X142598094Y-114270238D02*
X142645713Y-114317857D01*
X142645713Y-114317857D02*
X142693332Y-114413095D01*
X142693332Y-114413095D02*
X142693332Y-114508333D01*
X142693332Y-114508333D02*
X142645713Y-114603571D01*
X142645713Y-114603571D02*
X142598094Y-114651190D01*
X142598094Y-114651190D02*
X142502856Y-114698809D01*
X142502856Y-114698809D02*
X142169523Y-114698809D01*
X143169523Y-115222619D02*
X143169523Y-114555952D01*
X143169523Y-114746428D02*
X143217142Y-114651190D01*
X143217142Y-114651190D02*
X143264761Y-114603571D01*
X143264761Y-114603571D02*
X143359999Y-114555952D01*
X143359999Y-114555952D02*
X143455237Y-114555952D01*
X143788571Y-115222619D02*
X143788571Y-114555952D01*
X143788571Y-114222619D02*
X143740952Y-114270238D01*
X143740952Y-114270238D02*
X143788571Y-114317857D01*
X143788571Y-114317857D02*
X143836190Y-114270238D01*
X143836190Y-114270238D02*
X143788571Y-114222619D01*
X143788571Y-114222619D02*
X143788571Y-114317857D01*
X144693332Y-115222619D02*
X144693332Y-114222619D01*
X144693332Y-115175000D02*
X144598094Y-115222619D01*
X144598094Y-115222619D02*
X144407618Y-115222619D01*
X144407618Y-115222619D02*
X144312380Y-115175000D01*
X144312380Y-115175000D02*
X144264761Y-115127380D01*
X144264761Y-115127380D02*
X144217142Y-115032142D01*
X144217142Y-115032142D02*
X144217142Y-114746428D01*
X144217142Y-114746428D02*
X144264761Y-114651190D01*
X144264761Y-114651190D02*
X144312380Y-114603571D01*
X144312380Y-114603571D02*
X144407618Y-114555952D01*
X144407618Y-114555952D02*
X144598094Y-114555952D01*
X144598094Y-114555952D02*
X144693332Y-114603571D01*
X145598094Y-114555952D02*
X145598094Y-115365476D01*
X145598094Y-115365476D02*
X145550475Y-115460714D01*
X145550475Y-115460714D02*
X145502856Y-115508333D01*
X145502856Y-115508333D02*
X145407618Y-115555952D01*
X145407618Y-115555952D02*
X145264761Y-115555952D01*
X145264761Y-115555952D02*
X145169523Y-115508333D01*
X145598094Y-115175000D02*
X145502856Y-115222619D01*
X145502856Y-115222619D02*
X145312380Y-115222619D01*
X145312380Y-115222619D02*
X145217142Y-115175000D01*
X145217142Y-115175000D02*
X145169523Y-115127380D01*
X145169523Y-115127380D02*
X145121904Y-115032142D01*
X145121904Y-115032142D02*
X145121904Y-114746428D01*
X145121904Y-114746428D02*
X145169523Y-114651190D01*
X145169523Y-114651190D02*
X145217142Y-114603571D01*
X145217142Y-114603571D02*
X145312380Y-114555952D01*
X145312380Y-114555952D02*
X145502856Y-114555952D01*
X145502856Y-114555952D02*
X145598094Y-114603571D01*
X146455237Y-115175000D02*
X146359999Y-115222619D01*
X146359999Y-115222619D02*
X146169523Y-115222619D01*
X146169523Y-115222619D02*
X146074285Y-115175000D01*
X146074285Y-115175000D02*
X146026666Y-115079761D01*
X146026666Y-115079761D02*
X146026666Y-114698809D01*
X146026666Y-114698809D02*
X146074285Y-114603571D01*
X146074285Y-114603571D02*
X146169523Y-114555952D01*
X146169523Y-114555952D02*
X146359999Y-114555952D01*
X146359999Y-114555952D02*
X146455237Y-114603571D01*
X146455237Y-114603571D02*
X146502856Y-114698809D01*
X146502856Y-114698809D02*
X146502856Y-114794047D01*
X146502856Y-114794047D02*
X146026666Y-114889285D01*
X147979047Y-114222619D02*
X147979047Y-114936904D01*
X147979047Y-114936904D02*
X147931428Y-115079761D01*
X147931428Y-115079761D02*
X147836190Y-115175000D01*
X147836190Y-115175000D02*
X147693333Y-115222619D01*
X147693333Y-115222619D02*
X147598095Y-115222619D01*
X148979047Y-115222619D02*
X148407619Y-115222619D01*
X148693333Y-115222619D02*
X148693333Y-114222619D01*
X148693333Y-114222619D02*
X148598095Y-114365476D01*
X148598095Y-114365476D02*
X148502857Y-114460714D01*
X148502857Y-114460714D02*
X148407619Y-114508333D01*
X150312381Y-115222619D02*
X150217143Y-115175000D01*
X150217143Y-115175000D02*
X150169524Y-115127380D01*
X150169524Y-115127380D02*
X150121905Y-115032142D01*
X150121905Y-115032142D02*
X150121905Y-114746428D01*
X150121905Y-114746428D02*
X150169524Y-114651190D01*
X150169524Y-114651190D02*
X150217143Y-114603571D01*
X150217143Y-114603571D02*
X150312381Y-114555952D01*
X150312381Y-114555952D02*
X150455238Y-114555952D01*
X150455238Y-114555952D02*
X150550476Y-114603571D01*
X150550476Y-114603571D02*
X150598095Y-114651190D01*
X150598095Y-114651190D02*
X150645714Y-114746428D01*
X150645714Y-114746428D02*
X150645714Y-115032142D01*
X150645714Y-115032142D02*
X150598095Y-115127380D01*
X150598095Y-115127380D02*
X150550476Y-115175000D01*
X150550476Y-115175000D02*
X150455238Y-115222619D01*
X150455238Y-115222619D02*
X150312381Y-115222619D01*
X151074286Y-114555952D02*
X151074286Y-115222619D01*
X151074286Y-114651190D02*
X151121905Y-114603571D01*
X151121905Y-114603571D02*
X151217143Y-114555952D01*
X151217143Y-114555952D02*
X151360000Y-114555952D01*
X151360000Y-114555952D02*
X151455238Y-114603571D01*
X151455238Y-114603571D02*
X151502857Y-114698809D01*
X151502857Y-114698809D02*
X151502857Y-115222619D01*
X153169524Y-115222619D02*
X153169524Y-114222619D01*
X153169524Y-115175000D02*
X153074286Y-115222619D01*
X153074286Y-115222619D02*
X152883810Y-115222619D01*
X152883810Y-115222619D02*
X152788572Y-115175000D01*
X152788572Y-115175000D02*
X152740953Y-115127380D01*
X152740953Y-115127380D02*
X152693334Y-115032142D01*
X152693334Y-115032142D02*
X152693334Y-114746428D01*
X152693334Y-114746428D02*
X152740953Y-114651190D01*
X152740953Y-114651190D02*
X152788572Y-114603571D01*
X152788572Y-114603571D02*
X152883810Y-114555952D01*
X152883810Y-114555952D02*
X153074286Y-114555952D01*
X153074286Y-114555952D02*
X153169524Y-114603571D01*
X153645715Y-115222619D02*
X153645715Y-114555952D01*
X153645715Y-114222619D02*
X153598096Y-114270238D01*
X153598096Y-114270238D02*
X153645715Y-114317857D01*
X153645715Y-114317857D02*
X153693334Y-114270238D01*
X153693334Y-114270238D02*
X153645715Y-114222619D01*
X153645715Y-114222619D02*
X153645715Y-114317857D01*
X154074286Y-115175000D02*
X154169524Y-115222619D01*
X154169524Y-115222619D02*
X154360000Y-115222619D01*
X154360000Y-115222619D02*
X154455238Y-115175000D01*
X154455238Y-115175000D02*
X154502857Y-115079761D01*
X154502857Y-115079761D02*
X154502857Y-115032142D01*
X154502857Y-115032142D02*
X154455238Y-114936904D01*
X154455238Y-114936904D02*
X154360000Y-114889285D01*
X154360000Y-114889285D02*
X154217143Y-114889285D01*
X154217143Y-114889285D02*
X154121905Y-114841666D01*
X154121905Y-114841666D02*
X154074286Y-114746428D01*
X154074286Y-114746428D02*
X154074286Y-114698809D01*
X154074286Y-114698809D02*
X154121905Y-114603571D01*
X154121905Y-114603571D02*
X154217143Y-114555952D01*
X154217143Y-114555952D02*
X154360000Y-114555952D01*
X154360000Y-114555952D02*
X154455238Y-114603571D01*
X154931429Y-114555952D02*
X154931429Y-115555952D01*
X154931429Y-114603571D02*
X155026667Y-114555952D01*
X155026667Y-114555952D02*
X155217143Y-114555952D01*
X155217143Y-114555952D02*
X155312381Y-114603571D01*
X155312381Y-114603571D02*
X155360000Y-114651190D01*
X155360000Y-114651190D02*
X155407619Y-114746428D01*
X155407619Y-114746428D02*
X155407619Y-115032142D01*
X155407619Y-115032142D02*
X155360000Y-115127380D01*
X155360000Y-115127380D02*
X155312381Y-115175000D01*
X155312381Y-115175000D02*
X155217143Y-115222619D01*
X155217143Y-115222619D02*
X155026667Y-115222619D01*
X155026667Y-115222619D02*
X154931429Y-115175000D01*
X155979048Y-115222619D02*
X155883810Y-115175000D01*
X155883810Y-115175000D02*
X155836191Y-115079761D01*
X155836191Y-115079761D02*
X155836191Y-114222619D01*
X156788572Y-115222619D02*
X156788572Y-114698809D01*
X156788572Y-114698809D02*
X156740953Y-114603571D01*
X156740953Y-114603571D02*
X156645715Y-114555952D01*
X156645715Y-114555952D02*
X156455239Y-114555952D01*
X156455239Y-114555952D02*
X156360001Y-114603571D01*
X156788572Y-115175000D02*
X156693334Y-115222619D01*
X156693334Y-115222619D02*
X156455239Y-115222619D01*
X156455239Y-115222619D02*
X156360001Y-115175000D01*
X156360001Y-115175000D02*
X156312382Y-115079761D01*
X156312382Y-115079761D02*
X156312382Y-114984523D01*
X156312382Y-114984523D02*
X156360001Y-114889285D01*
X156360001Y-114889285D02*
X156455239Y-114841666D01*
X156455239Y-114841666D02*
X156693334Y-114841666D01*
X156693334Y-114841666D02*
X156788572Y-114794047D01*
X157169525Y-114555952D02*
X157407620Y-115222619D01*
X157645715Y-114555952D02*
X157407620Y-115222619D01*
X157407620Y-115222619D02*
X157312382Y-115460714D01*
X157312382Y-115460714D02*
X157264763Y-115508333D01*
X157264763Y-115508333D02*
X157169525Y-115555952D01*
X142550475Y-116175952D02*
X142931427Y-116175952D01*
X142693332Y-115842619D02*
X142693332Y-116699761D01*
X142693332Y-116699761D02*
X142740951Y-116795000D01*
X142740951Y-116795000D02*
X142836189Y-116842619D01*
X142836189Y-116842619D02*
X142931427Y-116842619D01*
X143407618Y-116842619D02*
X143312380Y-116795000D01*
X143312380Y-116795000D02*
X143264761Y-116747380D01*
X143264761Y-116747380D02*
X143217142Y-116652142D01*
X143217142Y-116652142D02*
X143217142Y-116366428D01*
X143217142Y-116366428D02*
X143264761Y-116271190D01*
X143264761Y-116271190D02*
X143312380Y-116223571D01*
X143312380Y-116223571D02*
X143407618Y-116175952D01*
X143407618Y-116175952D02*
X143550475Y-116175952D01*
X143550475Y-116175952D02*
X143645713Y-116223571D01*
X143645713Y-116223571D02*
X143693332Y-116271190D01*
X143693332Y-116271190D02*
X143740951Y-116366428D01*
X143740951Y-116366428D02*
X143740951Y-116652142D01*
X143740951Y-116652142D02*
X143693332Y-116747380D01*
X143693332Y-116747380D02*
X143645713Y-116795000D01*
X143645713Y-116795000D02*
X143550475Y-116842619D01*
X143550475Y-116842619D02*
X143407618Y-116842619D01*
X145312380Y-116795000D02*
X145217142Y-116842619D01*
X145217142Y-116842619D02*
X145026666Y-116842619D01*
X145026666Y-116842619D02*
X144931428Y-116795000D01*
X144931428Y-116795000D02*
X144883809Y-116699761D01*
X144883809Y-116699761D02*
X144883809Y-116318809D01*
X144883809Y-116318809D02*
X144931428Y-116223571D01*
X144931428Y-116223571D02*
X145026666Y-116175952D01*
X145026666Y-116175952D02*
X145217142Y-116175952D01*
X145217142Y-116175952D02*
X145312380Y-116223571D01*
X145312380Y-116223571D02*
X145359999Y-116318809D01*
X145359999Y-116318809D02*
X145359999Y-116414047D01*
X145359999Y-116414047D02*
X144883809Y-116509285D01*
X145788571Y-116175952D02*
X145788571Y-116842619D01*
X145788571Y-116271190D02*
X145836190Y-116223571D01*
X145836190Y-116223571D02*
X145931428Y-116175952D01*
X145931428Y-116175952D02*
X146074285Y-116175952D01*
X146074285Y-116175952D02*
X146169523Y-116223571D01*
X146169523Y-116223571D02*
X146217142Y-116318809D01*
X146217142Y-116318809D02*
X146217142Y-116842619D01*
X147121904Y-116842619D02*
X147121904Y-116318809D01*
X147121904Y-116318809D02*
X147074285Y-116223571D01*
X147074285Y-116223571D02*
X146979047Y-116175952D01*
X146979047Y-116175952D02*
X146788571Y-116175952D01*
X146788571Y-116175952D02*
X146693333Y-116223571D01*
X147121904Y-116795000D02*
X147026666Y-116842619D01*
X147026666Y-116842619D02*
X146788571Y-116842619D01*
X146788571Y-116842619D02*
X146693333Y-116795000D01*
X146693333Y-116795000D02*
X146645714Y-116699761D01*
X146645714Y-116699761D02*
X146645714Y-116604523D01*
X146645714Y-116604523D02*
X146693333Y-116509285D01*
X146693333Y-116509285D02*
X146788571Y-116461666D01*
X146788571Y-116461666D02*
X147026666Y-116461666D01*
X147026666Y-116461666D02*
X147121904Y-116414047D01*
X147598095Y-116842619D02*
X147598095Y-115842619D01*
X147598095Y-116223571D02*
X147693333Y-116175952D01*
X147693333Y-116175952D02*
X147883809Y-116175952D01*
X147883809Y-116175952D02*
X147979047Y-116223571D01*
X147979047Y-116223571D02*
X148026666Y-116271190D01*
X148026666Y-116271190D02*
X148074285Y-116366428D01*
X148074285Y-116366428D02*
X148074285Y-116652142D01*
X148074285Y-116652142D02*
X148026666Y-116747380D01*
X148026666Y-116747380D02*
X147979047Y-116795000D01*
X147979047Y-116795000D02*
X147883809Y-116842619D01*
X147883809Y-116842619D02*
X147693333Y-116842619D01*
X147693333Y-116842619D02*
X147598095Y-116795000D01*
X148645714Y-116842619D02*
X148550476Y-116795000D01*
X148550476Y-116795000D02*
X148502857Y-116699761D01*
X148502857Y-116699761D02*
X148502857Y-115842619D01*
X149407619Y-116795000D02*
X149312381Y-116842619D01*
X149312381Y-116842619D02*
X149121905Y-116842619D01*
X149121905Y-116842619D02*
X149026667Y-116795000D01*
X149026667Y-116795000D02*
X148979048Y-116699761D01*
X148979048Y-116699761D02*
X148979048Y-116318809D01*
X148979048Y-116318809D02*
X149026667Y-116223571D01*
X149026667Y-116223571D02*
X149121905Y-116175952D01*
X149121905Y-116175952D02*
X149312381Y-116175952D01*
X149312381Y-116175952D02*
X149407619Y-116223571D01*
X149407619Y-116223571D02*
X149455238Y-116318809D01*
X149455238Y-116318809D02*
X149455238Y-116414047D01*
X149455238Y-116414047D02*
X148979048Y-116509285D01*
X150550477Y-115842619D02*
X151169524Y-115842619D01*
X151169524Y-115842619D02*
X150836191Y-116223571D01*
X150836191Y-116223571D02*
X150979048Y-116223571D01*
X150979048Y-116223571D02*
X151074286Y-116271190D01*
X151074286Y-116271190D02*
X151121905Y-116318809D01*
X151121905Y-116318809D02*
X151169524Y-116414047D01*
X151169524Y-116414047D02*
X151169524Y-116652142D01*
X151169524Y-116652142D02*
X151121905Y-116747380D01*
X151121905Y-116747380D02*
X151074286Y-116795000D01*
X151074286Y-116795000D02*
X150979048Y-116842619D01*
X150979048Y-116842619D02*
X150693334Y-116842619D01*
X150693334Y-116842619D02*
X150598096Y-116795000D01*
X150598096Y-116795000D02*
X150550477Y-116747380D01*
X151455239Y-115842619D02*
X151788572Y-116842619D01*
X151788572Y-116842619D02*
X152121905Y-115842619D01*
X152360001Y-115842619D02*
X152979048Y-115842619D01*
X152979048Y-115842619D02*
X152645715Y-116223571D01*
X152645715Y-116223571D02*
X152788572Y-116223571D01*
X152788572Y-116223571D02*
X152883810Y-116271190D01*
X152883810Y-116271190D02*
X152931429Y-116318809D01*
X152931429Y-116318809D02*
X152979048Y-116414047D01*
X152979048Y-116414047D02*
X152979048Y-116652142D01*
X152979048Y-116652142D02*
X152931429Y-116747380D01*
X152931429Y-116747380D02*
X152883810Y-116795000D01*
X152883810Y-116795000D02*
X152788572Y-116842619D01*
X152788572Y-116842619D02*
X152502858Y-116842619D01*
X152502858Y-116842619D02*
X152407620Y-116795000D01*
X152407620Y-116795000D02*
X152360001Y-116747380D01*
X154026668Y-115842619D02*
X154360001Y-116842619D01*
X154360001Y-116842619D02*
X154693334Y-115842619D01*
X155598096Y-116747380D02*
X155550477Y-116795000D01*
X155550477Y-116795000D02*
X155407620Y-116842619D01*
X155407620Y-116842619D02*
X155312382Y-116842619D01*
X155312382Y-116842619D02*
X155169525Y-116795000D01*
X155169525Y-116795000D02*
X155074287Y-116699761D01*
X155074287Y-116699761D02*
X155026668Y-116604523D01*
X155026668Y-116604523D02*
X154979049Y-116414047D01*
X154979049Y-116414047D02*
X154979049Y-116271190D01*
X154979049Y-116271190D02*
X155026668Y-116080714D01*
X155026668Y-116080714D02*
X155074287Y-115985476D01*
X155074287Y-115985476D02*
X155169525Y-115890238D01*
X155169525Y-115890238D02*
X155312382Y-115842619D01*
X155312382Y-115842619D02*
X155407620Y-115842619D01*
X155407620Y-115842619D02*
X155550477Y-115890238D01*
X155550477Y-115890238D02*
X155598096Y-115937857D01*
X156598096Y-116747380D02*
X156550477Y-116795000D01*
X156550477Y-116795000D02*
X156407620Y-116842619D01*
X156407620Y-116842619D02*
X156312382Y-116842619D01*
X156312382Y-116842619D02*
X156169525Y-116795000D01*
X156169525Y-116795000D02*
X156074287Y-116699761D01*
X156074287Y-116699761D02*
X156026668Y-116604523D01*
X156026668Y-116604523D02*
X155979049Y-116414047D01*
X155979049Y-116414047D02*
X155979049Y-116271190D01*
X155979049Y-116271190D02*
X156026668Y-116080714D01*
X156026668Y-116080714D02*
X156074287Y-115985476D01*
X156074287Y-115985476D02*
X156169525Y-115890238D01*
X156169525Y-115890238D02*
X156312382Y-115842619D01*
X156312382Y-115842619D02*
X156407620Y-115842619D01*
X156407620Y-115842619D02*
X156550477Y-115890238D01*
X156550477Y-115890238D02*
X156598096Y-115937857D01*
X157026668Y-116747380D02*
X157074287Y-116795000D01*
X157074287Y-116795000D02*
X157026668Y-116842619D01*
X157026668Y-116842619D02*
X156979049Y-116795000D01*
X156979049Y-116795000D02*
X157026668Y-116747380D01*
X157026668Y-116747380D02*
X157026668Y-116842619D01*
X153207380Y-108188095D02*
X154207380Y-108188095D01*
X154207380Y-108188095D02*
X153493095Y-108521428D01*
X153493095Y-108521428D02*
X154207380Y-108854761D01*
X154207380Y-108854761D02*
X153207380Y-108854761D01*
X153207380Y-109330952D02*
X154207380Y-109330952D01*
X153255000Y-109759523D02*
X153207380Y-109902380D01*
X153207380Y-109902380D02*
X153207380Y-110140475D01*
X153207380Y-110140475D02*
X153255000Y-110235713D01*
X153255000Y-110235713D02*
X153302619Y-110283332D01*
X153302619Y-110283332D02*
X153397857Y-110330951D01*
X153397857Y-110330951D02*
X153493095Y-110330951D01*
X153493095Y-110330951D02*
X153588333Y-110283332D01*
X153588333Y-110283332D02*
X153635952Y-110235713D01*
X153635952Y-110235713D02*
X153683571Y-110140475D01*
X153683571Y-110140475D02*
X153731190Y-109949999D01*
X153731190Y-109949999D02*
X153778809Y-109854761D01*
X153778809Y-109854761D02*
X153826428Y-109807142D01*
X153826428Y-109807142D02*
X153921666Y-109759523D01*
X153921666Y-109759523D02*
X154016904Y-109759523D01*
X154016904Y-109759523D02*
X154112142Y-109807142D01*
X154112142Y-109807142D02*
X154159761Y-109854761D01*
X154159761Y-109854761D02*
X154207380Y-109949999D01*
X154207380Y-109949999D02*
X154207380Y-110188094D01*
X154207380Y-110188094D02*
X154159761Y-110330951D01*
X154207380Y-110949999D02*
X154207380Y-111140475D01*
X154207380Y-111140475D02*
X154159761Y-111235713D01*
X154159761Y-111235713D02*
X154064523Y-111330951D01*
X154064523Y-111330951D02*
X153874047Y-111378570D01*
X153874047Y-111378570D02*
X153540714Y-111378570D01*
X153540714Y-111378570D02*
X153350238Y-111330951D01*
X153350238Y-111330951D02*
X153255000Y-111235713D01*
X153255000Y-111235713D02*
X153207380Y-111140475D01*
X153207380Y-111140475D02*
X153207380Y-110949999D01*
X153207380Y-110949999D02*
X153255000Y-110854761D01*
X153255000Y-110854761D02*
X153350238Y-110759523D01*
X153350238Y-110759523D02*
X153540714Y-110711904D01*
X153540714Y-110711904D02*
X153874047Y-110711904D01*
X153874047Y-110711904D02*
X154064523Y-110759523D01*
X154064523Y-110759523D02*
X154159761Y-110854761D01*
X154159761Y-110854761D02*
X154207380Y-110949999D01*
X141065238Y-85822619D02*
X141636666Y-85822619D01*
X141350952Y-86822619D02*
X141350952Y-85822619D01*
X141731905Y-86917857D02*
X142493809Y-86917857D01*
X142731905Y-86822619D02*
X142731905Y-85822619D01*
X143779523Y-86822619D02*
X143446190Y-86346428D01*
X143208095Y-86822619D02*
X143208095Y-85822619D01*
X143208095Y-85822619D02*
X143589047Y-85822619D01*
X143589047Y-85822619D02*
X143684285Y-85870238D01*
X143684285Y-85870238D02*
X143731904Y-85917857D01*
X143731904Y-85917857D02*
X143779523Y-86013095D01*
X143779523Y-86013095D02*
X143779523Y-86155952D01*
X143779523Y-86155952D02*
X143731904Y-86251190D01*
X143731904Y-86251190D02*
X143684285Y-86298809D01*
X143684285Y-86298809D02*
X143589047Y-86346428D01*
X143589047Y-86346428D02*
X143208095Y-86346428D01*
X144874761Y-86917857D02*
X144779523Y-86870238D01*
X144779523Y-86870238D02*
X144684285Y-86775000D01*
X144684285Y-86775000D02*
X144541428Y-86632142D01*
X144541428Y-86632142D02*
X144446190Y-86584523D01*
X144446190Y-86584523D02*
X144350952Y-86584523D01*
X144398571Y-86822619D02*
X144303333Y-86775000D01*
X144303333Y-86775000D02*
X144208095Y-86679761D01*
X144208095Y-86679761D02*
X144160476Y-86489285D01*
X144160476Y-86489285D02*
X144160476Y-86155952D01*
X144160476Y-86155952D02*
X144208095Y-85965476D01*
X144208095Y-85965476D02*
X144303333Y-85870238D01*
X144303333Y-85870238D02*
X144398571Y-85822619D01*
X144398571Y-85822619D02*
X144589047Y-85822619D01*
X144589047Y-85822619D02*
X144684285Y-85870238D01*
X144684285Y-85870238D02*
X144779523Y-85965476D01*
X144779523Y-85965476D02*
X144827142Y-86155952D01*
X144827142Y-86155952D02*
X144827142Y-86489285D01*
X144827142Y-86489285D02*
X144779523Y-86679761D01*
X144779523Y-86679761D02*
X144684285Y-86775000D01*
X144684285Y-86775000D02*
X144589047Y-86822619D01*
X144589047Y-86822619D02*
X144398571Y-86822619D01*
X150762619Y-108759523D02*
X150715000Y-108711904D01*
X150715000Y-108711904D02*
X150667380Y-108569047D01*
X150667380Y-108569047D02*
X150667380Y-108473809D01*
X150667380Y-108473809D02*
X150715000Y-108330952D01*
X150715000Y-108330952D02*
X150810238Y-108235714D01*
X150810238Y-108235714D02*
X150905476Y-108188095D01*
X150905476Y-108188095D02*
X151095952Y-108140476D01*
X151095952Y-108140476D02*
X151238809Y-108140476D01*
X151238809Y-108140476D02*
X151429285Y-108188095D01*
X151429285Y-108188095D02*
X151524523Y-108235714D01*
X151524523Y-108235714D02*
X151619761Y-108330952D01*
X151619761Y-108330952D02*
X151667380Y-108473809D01*
X151667380Y-108473809D02*
X151667380Y-108569047D01*
X151667380Y-108569047D02*
X151619761Y-108711904D01*
X151619761Y-108711904D02*
X151572142Y-108759523D01*
X150715000Y-109140476D02*
X150667380Y-109283333D01*
X150667380Y-109283333D02*
X150667380Y-109521428D01*
X150667380Y-109521428D02*
X150715000Y-109616666D01*
X150715000Y-109616666D02*
X150762619Y-109664285D01*
X150762619Y-109664285D02*
X150857857Y-109711904D01*
X150857857Y-109711904D02*
X150953095Y-109711904D01*
X150953095Y-109711904D02*
X151048333Y-109664285D01*
X151048333Y-109664285D02*
X151095952Y-109616666D01*
X151095952Y-109616666D02*
X151143571Y-109521428D01*
X151143571Y-109521428D02*
X151191190Y-109330952D01*
X151191190Y-109330952D02*
X151238809Y-109235714D01*
X151238809Y-109235714D02*
X151286428Y-109188095D01*
X151286428Y-109188095D02*
X151381666Y-109140476D01*
X151381666Y-109140476D02*
X151476904Y-109140476D01*
X151476904Y-109140476D02*
X151572142Y-109188095D01*
X151572142Y-109188095D02*
X151619761Y-109235714D01*
X151619761Y-109235714D02*
X151667380Y-109330952D01*
X151667380Y-109330952D02*
X151667380Y-109569047D01*
X151667380Y-109569047D02*
X151619761Y-109711904D01*
X152115000Y-108050000D02*
X152115000Y-109802381D01*
X135381904Y-116350238D02*
X135286666Y-116302619D01*
X135286666Y-116302619D02*
X135143809Y-116302619D01*
X135143809Y-116302619D02*
X135000952Y-116350238D01*
X135000952Y-116350238D02*
X134905714Y-116445476D01*
X134905714Y-116445476D02*
X134858095Y-116540714D01*
X134858095Y-116540714D02*
X134810476Y-116731190D01*
X134810476Y-116731190D02*
X134810476Y-116874047D01*
X134810476Y-116874047D02*
X134858095Y-117064523D01*
X134858095Y-117064523D02*
X134905714Y-117159761D01*
X134905714Y-117159761D02*
X135000952Y-117255000D01*
X135000952Y-117255000D02*
X135143809Y-117302619D01*
X135143809Y-117302619D02*
X135239047Y-117302619D01*
X135239047Y-117302619D02*
X135381904Y-117255000D01*
X135381904Y-117255000D02*
X135429523Y-117207380D01*
X135429523Y-117207380D02*
X135429523Y-116874047D01*
X135429523Y-116874047D02*
X135239047Y-116874047D01*
X135858095Y-117302619D02*
X135858095Y-116302619D01*
X135858095Y-116302619D02*
X136429523Y-117302619D01*
X136429523Y-117302619D02*
X136429523Y-116302619D01*
X136905714Y-117302619D02*
X136905714Y-116302619D01*
X136905714Y-116302619D02*
X137143809Y-116302619D01*
X137143809Y-116302619D02*
X137286666Y-116350238D01*
X137286666Y-116350238D02*
X137381904Y-116445476D01*
X137381904Y-116445476D02*
X137429523Y-116540714D01*
X137429523Y-116540714D02*
X137477142Y-116731190D01*
X137477142Y-116731190D02*
X137477142Y-116874047D01*
X137477142Y-116874047D02*
X137429523Y-117064523D01*
X137429523Y-117064523D02*
X137381904Y-117159761D01*
X137381904Y-117159761D02*
X137286666Y-117255000D01*
X137286666Y-117255000D02*
X137143809Y-117302619D01*
X137143809Y-117302619D02*
X136905714Y-117302619D01*
X134858095Y-107142619D02*
X134858095Y-106142619D01*
X134858095Y-106142619D02*
X135191428Y-106856904D01*
X135191428Y-106856904D02*
X135524761Y-106142619D01*
X135524761Y-106142619D02*
X135524761Y-107142619D01*
X136191428Y-106142619D02*
X136381904Y-106142619D01*
X136381904Y-106142619D02*
X136477142Y-106190238D01*
X136477142Y-106190238D02*
X136572380Y-106285476D01*
X136572380Y-106285476D02*
X136619999Y-106475952D01*
X136619999Y-106475952D02*
X136619999Y-106809285D01*
X136619999Y-106809285D02*
X136572380Y-106999761D01*
X136572380Y-106999761D02*
X136477142Y-107095000D01*
X136477142Y-107095000D02*
X136381904Y-107142619D01*
X136381904Y-107142619D02*
X136191428Y-107142619D01*
X136191428Y-107142619D02*
X136096190Y-107095000D01*
X136096190Y-107095000D02*
X136000952Y-106999761D01*
X136000952Y-106999761D02*
X135953333Y-106809285D01*
X135953333Y-106809285D02*
X135953333Y-106475952D01*
X135953333Y-106475952D02*
X136000952Y-106285476D01*
X136000952Y-106285476D02*
X136096190Y-106190238D01*
X136096190Y-106190238D02*
X136191428Y-106142619D01*
X137000952Y-107095000D02*
X137143809Y-107142619D01*
X137143809Y-107142619D02*
X137381904Y-107142619D01*
X137381904Y-107142619D02*
X137477142Y-107095000D01*
X137477142Y-107095000D02*
X137524761Y-107047380D01*
X137524761Y-107047380D02*
X137572380Y-106952142D01*
X137572380Y-106952142D02*
X137572380Y-106856904D01*
X137572380Y-106856904D02*
X137524761Y-106761666D01*
X137524761Y-106761666D02*
X137477142Y-106714047D01*
X137477142Y-106714047D02*
X137381904Y-106666428D01*
X137381904Y-106666428D02*
X137191428Y-106618809D01*
X137191428Y-106618809D02*
X137096190Y-106571190D01*
X137096190Y-106571190D02*
X137048571Y-106523571D01*
X137048571Y-106523571D02*
X137000952Y-106428333D01*
X137000952Y-106428333D02*
X137000952Y-106333095D01*
X137000952Y-106333095D02*
X137048571Y-106237857D01*
X137048571Y-106237857D02*
X137096190Y-106190238D01*
X137096190Y-106190238D02*
X137191428Y-106142619D01*
X137191428Y-106142619D02*
X137429523Y-106142619D01*
X137429523Y-106142619D02*
X137572380Y-106190238D01*
X138000952Y-107142619D02*
X138000952Y-106142619D01*
X148127380Y-108759523D02*
X148603571Y-108426190D01*
X148127380Y-108188095D02*
X149127380Y-108188095D01*
X149127380Y-108188095D02*
X149127380Y-108569047D01*
X149127380Y-108569047D02*
X149079761Y-108664285D01*
X149079761Y-108664285D02*
X149032142Y-108711904D01*
X149032142Y-108711904D02*
X148936904Y-108759523D01*
X148936904Y-108759523D02*
X148794047Y-108759523D01*
X148794047Y-108759523D02*
X148698809Y-108711904D01*
X148698809Y-108711904D02*
X148651190Y-108664285D01*
X148651190Y-108664285D02*
X148603571Y-108569047D01*
X148603571Y-108569047D02*
X148603571Y-108188095D01*
X148175000Y-109140476D02*
X148127380Y-109283333D01*
X148127380Y-109283333D02*
X148127380Y-109521428D01*
X148127380Y-109521428D02*
X148175000Y-109616666D01*
X148175000Y-109616666D02*
X148222619Y-109664285D01*
X148222619Y-109664285D02*
X148317857Y-109711904D01*
X148317857Y-109711904D02*
X148413095Y-109711904D01*
X148413095Y-109711904D02*
X148508333Y-109664285D01*
X148508333Y-109664285D02*
X148555952Y-109616666D01*
X148555952Y-109616666D02*
X148603571Y-109521428D01*
X148603571Y-109521428D02*
X148651190Y-109330952D01*
X148651190Y-109330952D02*
X148698809Y-109235714D01*
X148698809Y-109235714D02*
X148746428Y-109188095D01*
X148746428Y-109188095D02*
X148841666Y-109140476D01*
X148841666Y-109140476D02*
X148936904Y-109140476D01*
X148936904Y-109140476D02*
X149032142Y-109188095D01*
X149032142Y-109188095D02*
X149079761Y-109235714D01*
X149079761Y-109235714D02*
X149127380Y-109330952D01*
X149127380Y-109330952D02*
X149127380Y-109569047D01*
X149127380Y-109569047D02*
X149079761Y-109711904D01*
X149127380Y-109997619D02*
X149127380Y-110569047D01*
X148127380Y-110283333D02*
X149127380Y-110283333D01*
X149575000Y-108050000D02*
X149575000Y-110564286D01*
X135334285Y-102062619D02*
X134858095Y-102062619D01*
X134858095Y-102062619D02*
X134858095Y-101062619D01*
X135667619Y-101538809D02*
X136000952Y-101538809D01*
X136143809Y-102062619D02*
X135667619Y-102062619D01*
X135667619Y-102062619D02*
X135667619Y-101062619D01*
X135667619Y-101062619D02*
X136143809Y-101062619D01*
X136572381Y-102062619D02*
X136572381Y-101062619D01*
X136572381Y-101062619D02*
X136810476Y-101062619D01*
X136810476Y-101062619D02*
X136953333Y-101110238D01*
X136953333Y-101110238D02*
X137048571Y-101205476D01*
X137048571Y-101205476D02*
X137096190Y-101300714D01*
X137096190Y-101300714D02*
X137143809Y-101491190D01*
X137143809Y-101491190D02*
X137143809Y-101634047D01*
X137143809Y-101634047D02*
X137096190Y-101824523D01*
X137096190Y-101824523D02*
X137048571Y-101919761D01*
X137048571Y-101919761D02*
X136953333Y-102015000D01*
X136953333Y-102015000D02*
X136810476Y-102062619D01*
X136810476Y-102062619D02*
X136572381Y-102062619D01*
X135429523Y-112222619D02*
X135096190Y-111746428D01*
X134858095Y-112222619D02*
X134858095Y-111222619D01*
X134858095Y-111222619D02*
X135239047Y-111222619D01*
X135239047Y-111222619D02*
X135334285Y-111270238D01*
X135334285Y-111270238D02*
X135381904Y-111317857D01*
X135381904Y-111317857D02*
X135429523Y-111413095D01*
X135429523Y-111413095D02*
X135429523Y-111555952D01*
X135429523Y-111555952D02*
X135381904Y-111651190D01*
X135381904Y-111651190D02*
X135334285Y-111698809D01*
X135334285Y-111698809D02*
X135239047Y-111746428D01*
X135239047Y-111746428D02*
X134858095Y-111746428D01*
X135810476Y-112175000D02*
X135953333Y-112222619D01*
X135953333Y-112222619D02*
X136191428Y-112222619D01*
X136191428Y-112222619D02*
X136286666Y-112175000D01*
X136286666Y-112175000D02*
X136334285Y-112127380D01*
X136334285Y-112127380D02*
X136381904Y-112032142D01*
X136381904Y-112032142D02*
X136381904Y-111936904D01*
X136381904Y-111936904D02*
X136334285Y-111841666D01*
X136334285Y-111841666D02*
X136286666Y-111794047D01*
X136286666Y-111794047D02*
X136191428Y-111746428D01*
X136191428Y-111746428D02*
X136000952Y-111698809D01*
X136000952Y-111698809D02*
X135905714Y-111651190D01*
X135905714Y-111651190D02*
X135858095Y-111603571D01*
X135858095Y-111603571D02*
X135810476Y-111508333D01*
X135810476Y-111508333D02*
X135810476Y-111413095D01*
X135810476Y-111413095D02*
X135858095Y-111317857D01*
X135858095Y-111317857D02*
X135905714Y-111270238D01*
X135905714Y-111270238D02*
X136000952Y-111222619D01*
X136000952Y-111222619D02*
X136239047Y-111222619D01*
X136239047Y-111222619D02*
X136381904Y-111270238D01*
X136667619Y-111222619D02*
X137239047Y-111222619D01*
X136953333Y-112222619D02*
X136953333Y-111222619D01*
X134720000Y-110775000D02*
X137234286Y-110775000D01*
X141065238Y-118842619D02*
X141398571Y-119842619D01*
X141398571Y-119842619D02*
X141731904Y-118842619D01*
X142636666Y-119747380D02*
X142589047Y-119795000D01*
X142589047Y-119795000D02*
X142446190Y-119842619D01*
X142446190Y-119842619D02*
X142350952Y-119842619D01*
X142350952Y-119842619D02*
X142208095Y-119795000D01*
X142208095Y-119795000D02*
X142112857Y-119699761D01*
X142112857Y-119699761D02*
X142065238Y-119604523D01*
X142065238Y-119604523D02*
X142017619Y-119414047D01*
X142017619Y-119414047D02*
X142017619Y-119271190D01*
X142017619Y-119271190D02*
X142065238Y-119080714D01*
X142065238Y-119080714D02*
X142112857Y-118985476D01*
X142112857Y-118985476D02*
X142208095Y-118890238D01*
X142208095Y-118890238D02*
X142350952Y-118842619D01*
X142350952Y-118842619D02*
X142446190Y-118842619D01*
X142446190Y-118842619D02*
X142589047Y-118890238D01*
X142589047Y-118890238D02*
X142636666Y-118937857D01*
X143636666Y-119747380D02*
X143589047Y-119795000D01*
X143589047Y-119795000D02*
X143446190Y-119842619D01*
X143446190Y-119842619D02*
X143350952Y-119842619D01*
X143350952Y-119842619D02*
X143208095Y-119795000D01*
X143208095Y-119795000D02*
X143112857Y-119699761D01*
X143112857Y-119699761D02*
X143065238Y-119604523D01*
X143065238Y-119604523D02*
X143017619Y-119414047D01*
X143017619Y-119414047D02*
X143017619Y-119271190D01*
X143017619Y-119271190D02*
X143065238Y-119080714D01*
X143065238Y-119080714D02*
X143112857Y-118985476D01*
X143112857Y-118985476D02*
X143208095Y-118890238D01*
X143208095Y-118890238D02*
X143350952Y-118842619D01*
X143350952Y-118842619D02*
X143446190Y-118842619D01*
X143446190Y-118842619D02*
X143589047Y-118890238D01*
X143589047Y-118890238D02*
X143636666Y-118937857D01*
X134715238Y-88362619D02*
X135286666Y-88362619D01*
X135000952Y-89362619D02*
X135000952Y-88362619D01*
X135381905Y-89457857D02*
X136143809Y-89457857D01*
X136381905Y-89362619D02*
X136381905Y-88362619D01*
X136381905Y-88362619D02*
X136715238Y-89076904D01*
X136715238Y-89076904D02*
X137048571Y-88362619D01*
X137048571Y-88362619D02*
X137048571Y-89362619D01*
X137524762Y-89362619D02*
X137524762Y-88362619D01*
X137953333Y-89315000D02*
X138096190Y-89362619D01*
X138096190Y-89362619D02*
X138334285Y-89362619D01*
X138334285Y-89362619D02*
X138429523Y-89315000D01*
X138429523Y-89315000D02*
X138477142Y-89267380D01*
X138477142Y-89267380D02*
X138524761Y-89172142D01*
X138524761Y-89172142D02*
X138524761Y-89076904D01*
X138524761Y-89076904D02*
X138477142Y-88981666D01*
X138477142Y-88981666D02*
X138429523Y-88934047D01*
X138429523Y-88934047D02*
X138334285Y-88886428D01*
X138334285Y-88886428D02*
X138143809Y-88838809D01*
X138143809Y-88838809D02*
X138048571Y-88791190D01*
X138048571Y-88791190D02*
X138000952Y-88743571D01*
X138000952Y-88743571D02*
X137953333Y-88648333D01*
X137953333Y-88648333D02*
X137953333Y-88553095D01*
X137953333Y-88553095D02*
X138000952Y-88457857D01*
X138000952Y-88457857D02*
X138048571Y-88410238D01*
X138048571Y-88410238D02*
X138143809Y-88362619D01*
X138143809Y-88362619D02*
X138381904Y-88362619D01*
X138381904Y-88362619D02*
X138524761Y-88410238D01*
X139143809Y-88362619D02*
X139334285Y-88362619D01*
X139334285Y-88362619D02*
X139429523Y-88410238D01*
X139429523Y-88410238D02*
X139524761Y-88505476D01*
X139524761Y-88505476D02*
X139572380Y-88695952D01*
X139572380Y-88695952D02*
X139572380Y-89029285D01*
X139572380Y-89029285D02*
X139524761Y-89219761D01*
X139524761Y-89219761D02*
X139429523Y-89315000D01*
X139429523Y-89315000D02*
X139334285Y-89362619D01*
X139334285Y-89362619D02*
X139143809Y-89362619D01*
X139143809Y-89362619D02*
X139048571Y-89315000D01*
X139048571Y-89315000D02*
X138953333Y-89219761D01*
X138953333Y-89219761D02*
X138905714Y-89029285D01*
X138905714Y-89029285D02*
X138905714Y-88695952D01*
X138905714Y-88695952D02*
X138953333Y-88505476D01*
X138953333Y-88505476D02*
X139048571Y-88410238D01*
X139048571Y-88410238D02*
X139143809Y-88362619D01*
X151619761Y-95504285D02*
X151667380Y-95409047D01*
X151667380Y-95409047D02*
X151667380Y-95266190D01*
X151667380Y-95266190D02*
X151619761Y-95123333D01*
X151619761Y-95123333D02*
X151524523Y-95028095D01*
X151524523Y-95028095D02*
X151429285Y-94980476D01*
X151429285Y-94980476D02*
X151238809Y-94932857D01*
X151238809Y-94932857D02*
X151095952Y-94932857D01*
X151095952Y-94932857D02*
X150905476Y-94980476D01*
X150905476Y-94980476D02*
X150810238Y-95028095D01*
X150810238Y-95028095D02*
X150715000Y-95123333D01*
X150715000Y-95123333D02*
X150667380Y-95266190D01*
X150667380Y-95266190D02*
X150667380Y-95361428D01*
X150667380Y-95361428D02*
X150715000Y-95504285D01*
X150715000Y-95504285D02*
X150762619Y-95551904D01*
X150762619Y-95551904D02*
X151095952Y-95551904D01*
X151095952Y-95551904D02*
X151095952Y-95361428D01*
X150667380Y-95980476D02*
X151667380Y-95980476D01*
X151667380Y-95980476D02*
X150667380Y-96551904D01*
X150667380Y-96551904D02*
X151667380Y-96551904D01*
X150667380Y-97028095D02*
X151667380Y-97028095D01*
X151667380Y-97028095D02*
X151667380Y-97266190D01*
X151667380Y-97266190D02*
X151619761Y-97409047D01*
X151619761Y-97409047D02*
X151524523Y-97504285D01*
X151524523Y-97504285D02*
X151429285Y-97551904D01*
X151429285Y-97551904D02*
X151238809Y-97599523D01*
X151238809Y-97599523D02*
X151095952Y-97599523D01*
X151095952Y-97599523D02*
X150905476Y-97551904D01*
X150905476Y-97551904D02*
X150810238Y-97504285D01*
X150810238Y-97504285D02*
X150715000Y-97409047D01*
X150715000Y-97409047D02*
X150667380Y-97266190D01*
X150667380Y-97266190D02*
X150667380Y-97028095D01*
X134715238Y-95982619D02*
X135286666Y-95982619D01*
X135000952Y-96982619D02*
X135000952Y-95982619D01*
X135381905Y-97077857D02*
X136143809Y-97077857D01*
X136334286Y-96935000D02*
X136477143Y-96982619D01*
X136477143Y-96982619D02*
X136715238Y-96982619D01*
X136715238Y-96982619D02*
X136810476Y-96935000D01*
X136810476Y-96935000D02*
X136858095Y-96887380D01*
X136858095Y-96887380D02*
X136905714Y-96792142D01*
X136905714Y-96792142D02*
X136905714Y-96696904D01*
X136905714Y-96696904D02*
X136858095Y-96601666D01*
X136858095Y-96601666D02*
X136810476Y-96554047D01*
X136810476Y-96554047D02*
X136715238Y-96506428D01*
X136715238Y-96506428D02*
X136524762Y-96458809D01*
X136524762Y-96458809D02*
X136429524Y-96411190D01*
X136429524Y-96411190D02*
X136381905Y-96363571D01*
X136381905Y-96363571D02*
X136334286Y-96268333D01*
X136334286Y-96268333D02*
X136334286Y-96173095D01*
X136334286Y-96173095D02*
X136381905Y-96077857D01*
X136381905Y-96077857D02*
X136429524Y-96030238D01*
X136429524Y-96030238D02*
X136524762Y-95982619D01*
X136524762Y-95982619D02*
X136762857Y-95982619D01*
X136762857Y-95982619D02*
X136905714Y-96030238D01*
X137905714Y-96887380D02*
X137858095Y-96935000D01*
X137858095Y-96935000D02*
X137715238Y-96982619D01*
X137715238Y-96982619D02*
X137620000Y-96982619D01*
X137620000Y-96982619D02*
X137477143Y-96935000D01*
X137477143Y-96935000D02*
X137381905Y-96839761D01*
X137381905Y-96839761D02*
X137334286Y-96744523D01*
X137334286Y-96744523D02*
X137286667Y-96554047D01*
X137286667Y-96554047D02*
X137286667Y-96411190D01*
X137286667Y-96411190D02*
X137334286Y-96220714D01*
X137334286Y-96220714D02*
X137381905Y-96125476D01*
X137381905Y-96125476D02*
X137477143Y-96030238D01*
X137477143Y-96030238D02*
X137620000Y-95982619D01*
X137620000Y-95982619D02*
X137715238Y-95982619D01*
X137715238Y-95982619D02*
X137858095Y-96030238D01*
X137858095Y-96030238D02*
X137905714Y-96077857D01*
X138810476Y-96982619D02*
X138334286Y-96982619D01*
X138334286Y-96982619D02*
X138334286Y-95982619D01*
X139143810Y-96982619D02*
X139143810Y-95982619D01*
X139715238Y-96982619D02*
X139286667Y-96411190D01*
X139715238Y-95982619D02*
X139143810Y-96554047D01*
X134858095Y-99522619D02*
X134858095Y-98522619D01*
X134858095Y-98522619D02*
X135191428Y-99236904D01*
X135191428Y-99236904D02*
X135524761Y-98522619D01*
X135524761Y-98522619D02*
X135524761Y-99522619D01*
X136000952Y-99522619D02*
X136000952Y-98522619D01*
X136429523Y-99475000D02*
X136572380Y-99522619D01*
X136572380Y-99522619D02*
X136810475Y-99522619D01*
X136810475Y-99522619D02*
X136905713Y-99475000D01*
X136905713Y-99475000D02*
X136953332Y-99427380D01*
X136953332Y-99427380D02*
X137000951Y-99332142D01*
X137000951Y-99332142D02*
X137000951Y-99236904D01*
X137000951Y-99236904D02*
X136953332Y-99141666D01*
X136953332Y-99141666D02*
X136905713Y-99094047D01*
X136905713Y-99094047D02*
X136810475Y-99046428D01*
X136810475Y-99046428D02*
X136619999Y-98998809D01*
X136619999Y-98998809D02*
X136524761Y-98951190D01*
X136524761Y-98951190D02*
X136477142Y-98903571D01*
X136477142Y-98903571D02*
X136429523Y-98808333D01*
X136429523Y-98808333D02*
X136429523Y-98713095D01*
X136429523Y-98713095D02*
X136477142Y-98617857D01*
X136477142Y-98617857D02*
X136524761Y-98570238D01*
X136524761Y-98570238D02*
X136619999Y-98522619D01*
X136619999Y-98522619D02*
X136858094Y-98522619D01*
X136858094Y-98522619D02*
X137000951Y-98570238D01*
X137619999Y-98522619D02*
X137810475Y-98522619D01*
X137810475Y-98522619D02*
X137905713Y-98570238D01*
X137905713Y-98570238D02*
X138000951Y-98665476D01*
X138000951Y-98665476D02*
X138048570Y-98855952D01*
X138048570Y-98855952D02*
X138048570Y-99189285D01*
X138048570Y-99189285D02*
X138000951Y-99379761D01*
X138000951Y-99379761D02*
X137905713Y-99475000D01*
X137905713Y-99475000D02*
X137810475Y-99522619D01*
X137810475Y-99522619D02*
X137619999Y-99522619D01*
X137619999Y-99522619D02*
X137524761Y-99475000D01*
X137524761Y-99475000D02*
X137429523Y-99379761D01*
X137429523Y-99379761D02*
X137381904Y-99189285D01*
X137381904Y-99189285D02*
X137381904Y-98855952D01*
X137381904Y-98855952D02*
X137429523Y-98665476D01*
X137429523Y-98665476D02*
X137524761Y-98570238D01*
X137524761Y-98570238D02*
X137619999Y-98522619D01*
X154159761Y-95504285D02*
X154207380Y-95409047D01*
X154207380Y-95409047D02*
X154207380Y-95266190D01*
X154207380Y-95266190D02*
X154159761Y-95123333D01*
X154159761Y-95123333D02*
X154064523Y-95028095D01*
X154064523Y-95028095D02*
X153969285Y-94980476D01*
X153969285Y-94980476D02*
X153778809Y-94932857D01*
X153778809Y-94932857D02*
X153635952Y-94932857D01*
X153635952Y-94932857D02*
X153445476Y-94980476D01*
X153445476Y-94980476D02*
X153350238Y-95028095D01*
X153350238Y-95028095D02*
X153255000Y-95123333D01*
X153255000Y-95123333D02*
X153207380Y-95266190D01*
X153207380Y-95266190D02*
X153207380Y-95361428D01*
X153207380Y-95361428D02*
X153255000Y-95504285D01*
X153255000Y-95504285D02*
X153302619Y-95551904D01*
X153302619Y-95551904D02*
X153635952Y-95551904D01*
X153635952Y-95551904D02*
X153635952Y-95361428D01*
X153207380Y-95980476D02*
X154207380Y-95980476D01*
X154207380Y-95980476D02*
X153207380Y-96551904D01*
X153207380Y-96551904D02*
X154207380Y-96551904D01*
X153207380Y-97028095D02*
X154207380Y-97028095D01*
X154207380Y-97028095D02*
X154207380Y-97266190D01*
X154207380Y-97266190D02*
X154159761Y-97409047D01*
X154159761Y-97409047D02*
X154064523Y-97504285D01*
X154064523Y-97504285D02*
X153969285Y-97551904D01*
X153969285Y-97551904D02*
X153778809Y-97599523D01*
X153778809Y-97599523D02*
X153635952Y-97599523D01*
X153635952Y-97599523D02*
X153445476Y-97551904D01*
X153445476Y-97551904D02*
X153350238Y-97504285D01*
X153350238Y-97504285D02*
X153255000Y-97409047D01*
X153255000Y-97409047D02*
X153207380Y-97266190D01*
X153207380Y-97266190D02*
X153207380Y-97028095D01*
X155747380Y-108188095D02*
X156747380Y-108188095D01*
X156747380Y-108188095D02*
X156033095Y-108521428D01*
X156033095Y-108521428D02*
X156747380Y-108854761D01*
X156747380Y-108854761D02*
X155747380Y-108854761D01*
X156747380Y-109521428D02*
X156747380Y-109711904D01*
X156747380Y-109711904D02*
X156699761Y-109807142D01*
X156699761Y-109807142D02*
X156604523Y-109902380D01*
X156604523Y-109902380D02*
X156414047Y-109949999D01*
X156414047Y-109949999D02*
X156080714Y-109949999D01*
X156080714Y-109949999D02*
X155890238Y-109902380D01*
X155890238Y-109902380D02*
X155795000Y-109807142D01*
X155795000Y-109807142D02*
X155747380Y-109711904D01*
X155747380Y-109711904D02*
X155747380Y-109521428D01*
X155747380Y-109521428D02*
X155795000Y-109426190D01*
X155795000Y-109426190D02*
X155890238Y-109330952D01*
X155890238Y-109330952D02*
X156080714Y-109283333D01*
X156080714Y-109283333D02*
X156414047Y-109283333D01*
X156414047Y-109283333D02*
X156604523Y-109330952D01*
X156604523Y-109330952D02*
X156699761Y-109426190D01*
X156699761Y-109426190D02*
X156747380Y-109521428D01*
X155795000Y-110330952D02*
X155747380Y-110473809D01*
X155747380Y-110473809D02*
X155747380Y-110711904D01*
X155747380Y-110711904D02*
X155795000Y-110807142D01*
X155795000Y-110807142D02*
X155842619Y-110854761D01*
X155842619Y-110854761D02*
X155937857Y-110902380D01*
X155937857Y-110902380D02*
X156033095Y-110902380D01*
X156033095Y-110902380D02*
X156128333Y-110854761D01*
X156128333Y-110854761D02*
X156175952Y-110807142D01*
X156175952Y-110807142D02*
X156223571Y-110711904D01*
X156223571Y-110711904D02*
X156271190Y-110521428D01*
X156271190Y-110521428D02*
X156318809Y-110426190D01*
X156318809Y-110426190D02*
X156366428Y-110378571D01*
X156366428Y-110378571D02*
X156461666Y-110330952D01*
X156461666Y-110330952D02*
X156556904Y-110330952D01*
X156556904Y-110330952D02*
X156652142Y-110378571D01*
X156652142Y-110378571D02*
X156699761Y-110426190D01*
X156699761Y-110426190D02*
X156747380Y-110521428D01*
X156747380Y-110521428D02*
X156747380Y-110759523D01*
X156747380Y-110759523D02*
X156699761Y-110902380D01*
X155747380Y-111330952D02*
X156747380Y-111330952D01*
X134810476Y-104555000D02*
X134953333Y-104602619D01*
X134953333Y-104602619D02*
X135191428Y-104602619D01*
X135191428Y-104602619D02*
X135286666Y-104555000D01*
X135286666Y-104555000D02*
X135334285Y-104507380D01*
X135334285Y-104507380D02*
X135381904Y-104412142D01*
X135381904Y-104412142D02*
X135381904Y-104316904D01*
X135381904Y-104316904D02*
X135334285Y-104221666D01*
X135334285Y-104221666D02*
X135286666Y-104174047D01*
X135286666Y-104174047D02*
X135191428Y-104126428D01*
X135191428Y-104126428D02*
X135000952Y-104078809D01*
X135000952Y-104078809D02*
X134905714Y-104031190D01*
X134905714Y-104031190D02*
X134858095Y-103983571D01*
X134858095Y-103983571D02*
X134810476Y-103888333D01*
X134810476Y-103888333D02*
X134810476Y-103793095D01*
X134810476Y-103793095D02*
X134858095Y-103697857D01*
X134858095Y-103697857D02*
X134905714Y-103650238D01*
X134905714Y-103650238D02*
X135000952Y-103602619D01*
X135000952Y-103602619D02*
X135239047Y-103602619D01*
X135239047Y-103602619D02*
X135381904Y-103650238D01*
X136381904Y-104507380D02*
X136334285Y-104555000D01*
X136334285Y-104555000D02*
X136191428Y-104602619D01*
X136191428Y-104602619D02*
X136096190Y-104602619D01*
X136096190Y-104602619D02*
X135953333Y-104555000D01*
X135953333Y-104555000D02*
X135858095Y-104459761D01*
X135858095Y-104459761D02*
X135810476Y-104364523D01*
X135810476Y-104364523D02*
X135762857Y-104174047D01*
X135762857Y-104174047D02*
X135762857Y-104031190D01*
X135762857Y-104031190D02*
X135810476Y-103840714D01*
X135810476Y-103840714D02*
X135858095Y-103745476D01*
X135858095Y-103745476D02*
X135953333Y-103650238D01*
X135953333Y-103650238D02*
X136096190Y-103602619D01*
X136096190Y-103602619D02*
X136191428Y-103602619D01*
X136191428Y-103602619D02*
X136334285Y-103650238D01*
X136334285Y-103650238D02*
X136381904Y-103697857D01*
X137286666Y-104602619D02*
X136810476Y-104602619D01*
X136810476Y-104602619D02*
X136810476Y-103602619D01*
X137620000Y-104602619D02*
X137620000Y-103602619D01*
X138191428Y-104602619D02*
X137762857Y-104031190D01*
X138191428Y-103602619D02*
X137620000Y-104174047D01*
X161827380Y-94158095D02*
X160827380Y-94491428D01*
X160827380Y-94491428D02*
X161827380Y-94824761D01*
X160922619Y-95729523D02*
X160875000Y-95681904D01*
X160875000Y-95681904D02*
X160827380Y-95539047D01*
X160827380Y-95539047D02*
X160827380Y-95443809D01*
X160827380Y-95443809D02*
X160875000Y-95300952D01*
X160875000Y-95300952D02*
X160970238Y-95205714D01*
X160970238Y-95205714D02*
X161065476Y-95158095D01*
X161065476Y-95158095D02*
X161255952Y-95110476D01*
X161255952Y-95110476D02*
X161398809Y-95110476D01*
X161398809Y-95110476D02*
X161589285Y-95158095D01*
X161589285Y-95158095D02*
X161684523Y-95205714D01*
X161684523Y-95205714D02*
X161779761Y-95300952D01*
X161779761Y-95300952D02*
X161827380Y-95443809D01*
X161827380Y-95443809D02*
X161827380Y-95539047D01*
X161827380Y-95539047D02*
X161779761Y-95681904D01*
X161779761Y-95681904D02*
X161732142Y-95729523D01*
X160922619Y-96729523D02*
X160875000Y-96681904D01*
X160875000Y-96681904D02*
X160827380Y-96539047D01*
X160827380Y-96539047D02*
X160827380Y-96443809D01*
X160827380Y-96443809D02*
X160875000Y-96300952D01*
X160875000Y-96300952D02*
X160970238Y-96205714D01*
X160970238Y-96205714D02*
X161065476Y-96158095D01*
X161065476Y-96158095D02*
X161255952Y-96110476D01*
X161255952Y-96110476D02*
X161398809Y-96110476D01*
X161398809Y-96110476D02*
X161589285Y-96158095D01*
X161589285Y-96158095D02*
X161684523Y-96205714D01*
X161684523Y-96205714D02*
X161779761Y-96300952D01*
X161779761Y-96300952D02*
X161827380Y-96443809D01*
X161827380Y-96443809D02*
X161827380Y-96539047D01*
X161827380Y-96539047D02*
X161779761Y-96681904D01*
X161779761Y-96681904D02*
X161732142Y-96729523D01*
X134715238Y-93442619D02*
X135286666Y-93442619D01*
X135000952Y-94442619D02*
X135000952Y-93442619D01*
X135381905Y-94537857D02*
X136143809Y-94537857D01*
X136953333Y-94347380D02*
X136905714Y-94395000D01*
X136905714Y-94395000D02*
X136762857Y-94442619D01*
X136762857Y-94442619D02*
X136667619Y-94442619D01*
X136667619Y-94442619D02*
X136524762Y-94395000D01*
X136524762Y-94395000D02*
X136429524Y-94299761D01*
X136429524Y-94299761D02*
X136381905Y-94204523D01*
X136381905Y-94204523D02*
X136334286Y-94014047D01*
X136334286Y-94014047D02*
X136334286Y-93871190D01*
X136334286Y-93871190D02*
X136381905Y-93680714D01*
X136381905Y-93680714D02*
X136429524Y-93585476D01*
X136429524Y-93585476D02*
X136524762Y-93490238D01*
X136524762Y-93490238D02*
X136667619Y-93442619D01*
X136667619Y-93442619D02*
X136762857Y-93442619D01*
X136762857Y-93442619D02*
X136905714Y-93490238D01*
X136905714Y-93490238D02*
X136953333Y-93537857D01*
X137334286Y-94395000D02*
X137477143Y-94442619D01*
X137477143Y-94442619D02*
X137715238Y-94442619D01*
X137715238Y-94442619D02*
X137810476Y-94395000D01*
X137810476Y-94395000D02*
X137858095Y-94347380D01*
X137858095Y-94347380D02*
X137905714Y-94252142D01*
X137905714Y-94252142D02*
X137905714Y-94156904D01*
X137905714Y-94156904D02*
X137858095Y-94061666D01*
X137858095Y-94061666D02*
X137810476Y-94014047D01*
X137810476Y-94014047D02*
X137715238Y-93966428D01*
X137715238Y-93966428D02*
X137524762Y-93918809D01*
X137524762Y-93918809D02*
X137429524Y-93871190D01*
X137429524Y-93871190D02*
X137381905Y-93823571D01*
X137381905Y-93823571D02*
X137334286Y-93728333D01*
X137334286Y-93728333D02*
X137334286Y-93633095D01*
X137334286Y-93633095D02*
X137381905Y-93537857D01*
X137381905Y-93537857D02*
X137429524Y-93490238D01*
X137429524Y-93490238D02*
X137524762Y-93442619D01*
X137524762Y-93442619D02*
X137762857Y-93442619D01*
X137762857Y-93442619D02*
X137905714Y-93490238D01*
X136243810Y-92995000D02*
X137996191Y-92995000D01*
X145682619Y-96647142D02*
X145635000Y-96599523D01*
X145635000Y-96599523D02*
X145587380Y-96456666D01*
X145587380Y-96456666D02*
X145587380Y-96361428D01*
X145587380Y-96361428D02*
X145635000Y-96218571D01*
X145635000Y-96218571D02*
X145730238Y-96123333D01*
X145730238Y-96123333D02*
X145825476Y-96075714D01*
X145825476Y-96075714D02*
X146015952Y-96028095D01*
X146015952Y-96028095D02*
X146158809Y-96028095D01*
X146158809Y-96028095D02*
X146349285Y-96075714D01*
X146349285Y-96075714D02*
X146444523Y-96123333D01*
X146444523Y-96123333D02*
X146539761Y-96218571D01*
X146539761Y-96218571D02*
X146587380Y-96361428D01*
X146587380Y-96361428D02*
X146587380Y-96456666D01*
X146587380Y-96456666D02*
X146539761Y-96599523D01*
X146539761Y-96599523D02*
X146492142Y-96647142D01*
X145635000Y-97028095D02*
X145587380Y-97170952D01*
X145587380Y-97170952D02*
X145587380Y-97409047D01*
X145587380Y-97409047D02*
X145635000Y-97504285D01*
X145635000Y-97504285D02*
X145682619Y-97551904D01*
X145682619Y-97551904D02*
X145777857Y-97599523D01*
X145777857Y-97599523D02*
X145873095Y-97599523D01*
X145873095Y-97599523D02*
X145968333Y-97551904D01*
X145968333Y-97551904D02*
X146015952Y-97504285D01*
X146015952Y-97504285D02*
X146063571Y-97409047D01*
X146063571Y-97409047D02*
X146111190Y-97218571D01*
X146111190Y-97218571D02*
X146158809Y-97123333D01*
X146158809Y-97123333D02*
X146206428Y-97075714D01*
X146206428Y-97075714D02*
X146301666Y-97028095D01*
X146301666Y-97028095D02*
X146396904Y-97028095D01*
X146396904Y-97028095D02*
X146492142Y-97075714D01*
X146492142Y-97075714D02*
X146539761Y-97123333D01*
X146539761Y-97123333D02*
X146587380Y-97218571D01*
X146587380Y-97218571D02*
X146587380Y-97456666D01*
X146587380Y-97456666D02*
X146539761Y-97599523D01*
X147035000Y-95937619D02*
X147035000Y-97690000D01*
X135429523Y-114667380D02*
X135381904Y-114715000D01*
X135381904Y-114715000D02*
X135239047Y-114762619D01*
X135239047Y-114762619D02*
X135143809Y-114762619D01*
X135143809Y-114762619D02*
X135000952Y-114715000D01*
X135000952Y-114715000D02*
X134905714Y-114619761D01*
X134905714Y-114619761D02*
X134858095Y-114524523D01*
X134858095Y-114524523D02*
X134810476Y-114334047D01*
X134810476Y-114334047D02*
X134810476Y-114191190D01*
X134810476Y-114191190D02*
X134858095Y-114000714D01*
X134858095Y-114000714D02*
X134905714Y-113905476D01*
X134905714Y-113905476D02*
X135000952Y-113810238D01*
X135000952Y-113810238D02*
X135143809Y-113762619D01*
X135143809Y-113762619D02*
X135239047Y-113762619D01*
X135239047Y-113762619D02*
X135381904Y-113810238D01*
X135381904Y-113810238D02*
X135429523Y-113857857D01*
X135810476Y-114715000D02*
X135953333Y-114762619D01*
X135953333Y-114762619D02*
X136191428Y-114762619D01*
X136191428Y-114762619D02*
X136286666Y-114715000D01*
X136286666Y-114715000D02*
X136334285Y-114667380D01*
X136334285Y-114667380D02*
X136381904Y-114572142D01*
X136381904Y-114572142D02*
X136381904Y-114476904D01*
X136381904Y-114476904D02*
X136334285Y-114381666D01*
X136334285Y-114381666D02*
X136286666Y-114334047D01*
X136286666Y-114334047D02*
X136191428Y-114286428D01*
X136191428Y-114286428D02*
X136000952Y-114238809D01*
X136000952Y-114238809D02*
X135905714Y-114191190D01*
X135905714Y-114191190D02*
X135858095Y-114143571D01*
X135858095Y-114143571D02*
X135810476Y-114048333D01*
X135810476Y-114048333D02*
X135810476Y-113953095D01*
X135810476Y-113953095D02*
X135858095Y-113857857D01*
X135858095Y-113857857D02*
X135905714Y-113810238D01*
X135905714Y-113810238D02*
X136000952Y-113762619D01*
X136000952Y-113762619D02*
X136239047Y-113762619D01*
X136239047Y-113762619D02*
X136381904Y-113810238D01*
X134720000Y-113315000D02*
X136472381Y-113315000D01*
X134858095Y-109682619D02*
X134858095Y-108682619D01*
X134858095Y-108682619D02*
X135096190Y-108682619D01*
X135096190Y-108682619D02*
X135239047Y-108730238D01*
X135239047Y-108730238D02*
X135334285Y-108825476D01*
X135334285Y-108825476D02*
X135381904Y-108920714D01*
X135381904Y-108920714D02*
X135429523Y-109111190D01*
X135429523Y-109111190D02*
X135429523Y-109254047D01*
X135429523Y-109254047D02*
X135381904Y-109444523D01*
X135381904Y-109444523D02*
X135334285Y-109539761D01*
X135334285Y-109539761D02*
X135239047Y-109635000D01*
X135239047Y-109635000D02*
X135096190Y-109682619D01*
X135096190Y-109682619D02*
X134858095Y-109682619D01*
X136429523Y-109587380D02*
X136381904Y-109635000D01*
X136381904Y-109635000D02*
X136239047Y-109682619D01*
X136239047Y-109682619D02*
X136143809Y-109682619D01*
X136143809Y-109682619D02*
X136000952Y-109635000D01*
X136000952Y-109635000D02*
X135905714Y-109539761D01*
X135905714Y-109539761D02*
X135858095Y-109444523D01*
X135858095Y-109444523D02*
X135810476Y-109254047D01*
X135810476Y-109254047D02*
X135810476Y-109111190D01*
X135810476Y-109111190D02*
X135858095Y-108920714D01*
X135858095Y-108920714D02*
X135905714Y-108825476D01*
X135905714Y-108825476D02*
X136000952Y-108730238D01*
X136000952Y-108730238D02*
X136143809Y-108682619D01*
X136143809Y-108682619D02*
X136239047Y-108682619D01*
X136239047Y-108682619D02*
X136381904Y-108730238D01*
X136381904Y-108730238D02*
X136429523Y-108777857D01*
X135720000Y-108235000D02*
X136520000Y-108235000D01*
X158335000Y-108140476D02*
X158287380Y-108283333D01*
X158287380Y-108283333D02*
X158287380Y-108521428D01*
X158287380Y-108521428D02*
X158335000Y-108616666D01*
X158335000Y-108616666D02*
X158382619Y-108664285D01*
X158382619Y-108664285D02*
X158477857Y-108711904D01*
X158477857Y-108711904D02*
X158573095Y-108711904D01*
X158573095Y-108711904D02*
X158668333Y-108664285D01*
X158668333Y-108664285D02*
X158715952Y-108616666D01*
X158715952Y-108616666D02*
X158763571Y-108521428D01*
X158763571Y-108521428D02*
X158811190Y-108330952D01*
X158811190Y-108330952D02*
X158858809Y-108235714D01*
X158858809Y-108235714D02*
X158906428Y-108188095D01*
X158906428Y-108188095D02*
X159001666Y-108140476D01*
X159001666Y-108140476D02*
X159096904Y-108140476D01*
X159096904Y-108140476D02*
X159192142Y-108188095D01*
X159192142Y-108188095D02*
X159239761Y-108235714D01*
X159239761Y-108235714D02*
X159287380Y-108330952D01*
X159287380Y-108330952D02*
X159287380Y-108569047D01*
X159287380Y-108569047D02*
X159239761Y-108711904D01*
X158382619Y-109711904D02*
X158335000Y-109664285D01*
X158335000Y-109664285D02*
X158287380Y-109521428D01*
X158287380Y-109521428D02*
X158287380Y-109426190D01*
X158287380Y-109426190D02*
X158335000Y-109283333D01*
X158335000Y-109283333D02*
X158430238Y-109188095D01*
X158430238Y-109188095D02*
X158525476Y-109140476D01*
X158525476Y-109140476D02*
X158715952Y-109092857D01*
X158715952Y-109092857D02*
X158858809Y-109092857D01*
X158858809Y-109092857D02*
X159049285Y-109140476D01*
X159049285Y-109140476D02*
X159144523Y-109188095D01*
X159144523Y-109188095D02*
X159239761Y-109283333D01*
X159239761Y-109283333D02*
X159287380Y-109426190D01*
X159287380Y-109426190D02*
X159287380Y-109521428D01*
X159287380Y-109521428D02*
X159239761Y-109664285D01*
X159239761Y-109664285D02*
X159192142Y-109711904D01*
X158287380Y-110616666D02*
X158287380Y-110140476D01*
X158287380Y-110140476D02*
X159287380Y-110140476D01*
X158287380Y-110950000D02*
X159287380Y-110950000D01*
X158287380Y-111521428D02*
X158858809Y-111092857D01*
X159287380Y-111521428D02*
X158715952Y-110950000D01*
X160827380Y-108188095D02*
X161827380Y-108188095D01*
X161827380Y-108188095D02*
X161827380Y-108426190D01*
X161827380Y-108426190D02*
X161779761Y-108569047D01*
X161779761Y-108569047D02*
X161684523Y-108664285D01*
X161684523Y-108664285D02*
X161589285Y-108711904D01*
X161589285Y-108711904D02*
X161398809Y-108759523D01*
X161398809Y-108759523D02*
X161255952Y-108759523D01*
X161255952Y-108759523D02*
X161065476Y-108711904D01*
X161065476Y-108711904D02*
X160970238Y-108664285D01*
X160970238Y-108664285D02*
X160875000Y-108569047D01*
X160875000Y-108569047D02*
X160827380Y-108426190D01*
X160827380Y-108426190D02*
X160827380Y-108188095D01*
X160922619Y-109759523D02*
X160875000Y-109711904D01*
X160875000Y-109711904D02*
X160827380Y-109569047D01*
X160827380Y-109569047D02*
X160827380Y-109473809D01*
X160827380Y-109473809D02*
X160875000Y-109330952D01*
X160875000Y-109330952D02*
X160970238Y-109235714D01*
X160970238Y-109235714D02*
X161065476Y-109188095D01*
X161065476Y-109188095D02*
X161255952Y-109140476D01*
X161255952Y-109140476D02*
X161398809Y-109140476D01*
X161398809Y-109140476D02*
X161589285Y-109188095D01*
X161589285Y-109188095D02*
X161684523Y-109235714D01*
X161684523Y-109235714D02*
X161779761Y-109330952D01*
X161779761Y-109330952D02*
X161827380Y-109473809D01*
X161827380Y-109473809D02*
X161827380Y-109569047D01*
X161827380Y-109569047D02*
X161779761Y-109711904D01*
X161779761Y-109711904D02*
X161732142Y-109759523D01*
X162275000Y-109050000D02*
X162275000Y-109850000D01*
X156699761Y-95504285D02*
X156747380Y-95409047D01*
X156747380Y-95409047D02*
X156747380Y-95266190D01*
X156747380Y-95266190D02*
X156699761Y-95123333D01*
X156699761Y-95123333D02*
X156604523Y-95028095D01*
X156604523Y-95028095D02*
X156509285Y-94980476D01*
X156509285Y-94980476D02*
X156318809Y-94932857D01*
X156318809Y-94932857D02*
X156175952Y-94932857D01*
X156175952Y-94932857D02*
X155985476Y-94980476D01*
X155985476Y-94980476D02*
X155890238Y-95028095D01*
X155890238Y-95028095D02*
X155795000Y-95123333D01*
X155795000Y-95123333D02*
X155747380Y-95266190D01*
X155747380Y-95266190D02*
X155747380Y-95361428D01*
X155747380Y-95361428D02*
X155795000Y-95504285D01*
X155795000Y-95504285D02*
X155842619Y-95551904D01*
X155842619Y-95551904D02*
X156175952Y-95551904D01*
X156175952Y-95551904D02*
X156175952Y-95361428D01*
X155747380Y-95980476D02*
X156747380Y-95980476D01*
X156747380Y-95980476D02*
X155747380Y-96551904D01*
X155747380Y-96551904D02*
X156747380Y-96551904D01*
X155747380Y-97028095D02*
X156747380Y-97028095D01*
X156747380Y-97028095D02*
X156747380Y-97266190D01*
X156747380Y-97266190D02*
X156699761Y-97409047D01*
X156699761Y-97409047D02*
X156604523Y-97504285D01*
X156604523Y-97504285D02*
X156509285Y-97551904D01*
X156509285Y-97551904D02*
X156318809Y-97599523D01*
X156318809Y-97599523D02*
X156175952Y-97599523D01*
X156175952Y-97599523D02*
X155985476Y-97551904D01*
X155985476Y-97551904D02*
X155890238Y-97504285D01*
X155890238Y-97504285D02*
X155795000Y-97409047D01*
X155795000Y-97409047D02*
X155747380Y-97266190D01*
X155747380Y-97266190D02*
X155747380Y-97028095D01*
X134715238Y-90902619D02*
X135286666Y-90902619D01*
X135000952Y-91902619D02*
X135000952Y-90902619D01*
X135381905Y-91997857D02*
X136143809Y-91997857D01*
X136381905Y-91902619D02*
X136381905Y-90902619D01*
X136381905Y-90902619D02*
X136715238Y-91616904D01*
X136715238Y-91616904D02*
X137048571Y-90902619D01*
X137048571Y-90902619D02*
X137048571Y-91902619D01*
X137715238Y-90902619D02*
X137905714Y-90902619D01*
X137905714Y-90902619D02*
X138000952Y-90950238D01*
X138000952Y-90950238D02*
X138096190Y-91045476D01*
X138096190Y-91045476D02*
X138143809Y-91235952D01*
X138143809Y-91235952D02*
X138143809Y-91569285D01*
X138143809Y-91569285D02*
X138096190Y-91759761D01*
X138096190Y-91759761D02*
X138000952Y-91855000D01*
X138000952Y-91855000D02*
X137905714Y-91902619D01*
X137905714Y-91902619D02*
X137715238Y-91902619D01*
X137715238Y-91902619D02*
X137620000Y-91855000D01*
X137620000Y-91855000D02*
X137524762Y-91759761D01*
X137524762Y-91759761D02*
X137477143Y-91569285D01*
X137477143Y-91569285D02*
X137477143Y-91235952D01*
X137477143Y-91235952D02*
X137524762Y-91045476D01*
X137524762Y-91045476D02*
X137620000Y-90950238D01*
X137620000Y-90950238D02*
X137715238Y-90902619D01*
X138524762Y-91855000D02*
X138667619Y-91902619D01*
X138667619Y-91902619D02*
X138905714Y-91902619D01*
X138905714Y-91902619D02*
X139000952Y-91855000D01*
X139000952Y-91855000D02*
X139048571Y-91807380D01*
X139048571Y-91807380D02*
X139096190Y-91712142D01*
X139096190Y-91712142D02*
X139096190Y-91616904D01*
X139096190Y-91616904D02*
X139048571Y-91521666D01*
X139048571Y-91521666D02*
X139000952Y-91474047D01*
X139000952Y-91474047D02*
X138905714Y-91426428D01*
X138905714Y-91426428D02*
X138715238Y-91378809D01*
X138715238Y-91378809D02*
X138620000Y-91331190D01*
X138620000Y-91331190D02*
X138572381Y-91283571D01*
X138572381Y-91283571D02*
X138524762Y-91188333D01*
X138524762Y-91188333D02*
X138524762Y-91093095D01*
X138524762Y-91093095D02*
X138572381Y-90997857D01*
X138572381Y-90997857D02*
X138620000Y-90950238D01*
X138620000Y-90950238D02*
X138715238Y-90902619D01*
X138715238Y-90902619D02*
X138953333Y-90902619D01*
X138953333Y-90902619D02*
X139096190Y-90950238D01*
X139524762Y-91902619D02*
X139524762Y-90902619D01*
X164766666Y-95982619D02*
X164766666Y-96696904D01*
X164766666Y-96696904D02*
X164719047Y-96839761D01*
X164719047Y-96839761D02*
X164623809Y-96935000D01*
X164623809Y-96935000D02*
X164480952Y-96982619D01*
X164480952Y-96982619D02*
X164385714Y-96982619D01*
X165766666Y-96982619D02*
X165195238Y-96982619D01*
X165480952Y-96982619D02*
X165480952Y-95982619D01*
X165480952Y-95982619D02*
X165385714Y-96125476D01*
X165385714Y-96125476D02*
X165290476Y-96220714D01*
X165290476Y-96220714D02*
X165195238Y-96268333D01*
D11*
X161790000Y-96920000D02*
X160790000Y-96920000D01*
X160790000Y-96920000D02*
X161290000Y-97920000D01*
X161290000Y-97920000D02*
X161790000Y-96920000D01*
X166500000Y-98310000D02*
X166500000Y-107430000D01*
X155720000Y-98310000D02*
X155720000Y-99620000D01*
X140840000Y-98310000D02*
X166500000Y-98310000D01*
X165200000Y-99620000D02*
X165200000Y-106120000D01*
X155720000Y-99620000D02*
X165200000Y-99620000D01*
X151620000Y-99620000D02*
X151620000Y-98310000D01*
X151620000Y-99620000D02*
X151620000Y-99620000D01*
X142140000Y-99620000D02*
X151620000Y-99620000D01*
X165200000Y-106120000D02*
X142140000Y-106120000D01*
X142140000Y-106120000D02*
X142140000Y-99620000D01*
X166500000Y-107430000D02*
X140840000Y-107430000D01*
X140840000Y-107430000D02*
X140840000Y-98310000D01*
%LPC*%
D12*
X161290000Y-101600000D03*
D13*
X161290000Y-104140000D03*
X158750000Y-101600000D03*
X158750000Y-104140000D03*
X156210000Y-101600000D03*
X156210000Y-104140000D03*
X153670000Y-101600000D03*
X153670000Y-104140000D03*
X151130000Y-101600000D03*
X151130000Y-104140000D03*
X148590000Y-101600000D03*
X148590000Y-104140000D03*
X146050000Y-101600000D03*
X146050000Y-104140000D03*
D14*
X132080000Y-119380000D03*
D15*
X132080000Y-116840000D03*
X132080000Y-114300000D03*
X132080000Y-111760000D03*
X132080000Y-109220000D03*
X132080000Y-106680000D03*
X132080000Y-104140000D03*
X132080000Y-101600000D03*
X132080000Y-99060000D03*
X132080000Y-96520000D03*
X132080000Y-93980000D03*
X132080000Y-91440000D03*
X132080000Y-88900000D03*
X132080000Y-86360000D03*
%LPD*%
M02*
