G04 #@! TF.GenerationSoftware,KiCad,Pcbnew,7.0.2*
G04 #@! TF.CreationDate,2023-05-16T20:51:55+02:00*
G04 #@! TF.ProjectId,Display Adapter,44697370-6c61-4792-9041-646170746572,V1.0*
G04 #@! TF.SameCoordinates,Original*
G04 #@! TF.FileFunction,Copper,L1,Top*
G04 #@! TF.FilePolarity,Positive*
%FSLAX46Y46*%
G04 Gerber Fmt 4.6, Leading zero omitted, Abs format (unit mm)*
G04 Created by KiCad (PCBNEW 7.0.2) date 2023-05-16 20:51:55*
%MOMM*%
%LPD*%
G01*
G04 APERTURE LIST*
G04 Aperture macros list*
%AMRoundRect*
0 Rectangle with rounded corners*
0 $1 Rounding radius*
0 $2 $3 $4 $5 $6 $7 $8 $9 X,Y pos of 4 corners*
0 Add a 4 corners polygon primitive as box body*
4,1,4,$2,$3,$4,$5,$6,$7,$8,$9,$2,$3,0*
0 Add four circle primitives for the rounded corners*
1,1,$1+$1,$2,$3*
1,1,$1+$1,$4,$5*
1,1,$1+$1,$6,$7*
1,1,$1+$1,$8,$9*
0 Add four rect primitives between the rounded corners*
20,1,$1+$1,$2,$3,$4,$5,0*
20,1,$1+$1,$4,$5,$6,$7,0*
20,1,$1+$1,$6,$7,$8,$9,0*
20,1,$1+$1,$8,$9,$2,$3,0*%
G04 Aperture macros list end*
G04 #@! TA.AperFunction,ComponentPad*
%ADD10RoundRect,0.250000X-0.600000X0.600000X-0.600000X-0.600000X0.600000X-0.600000X0.600000X0.600000X0*%
G04 #@! TD*
G04 #@! TA.AperFunction,ComponentPad*
%ADD11C,1.700000*%
G04 #@! TD*
G04 #@! TA.AperFunction,ComponentPad*
%ADD12R,1.700000X1.700000*%
G04 #@! TD*
G04 #@! TA.AperFunction,ComponentPad*
%ADD13O,1.700000X1.700000*%
G04 #@! TD*
G04 #@! TA.AperFunction,ViaPad*
%ADD14C,0.800000*%
G04 #@! TD*
G04 #@! TA.AperFunction,Conductor*
%ADD15C,0.440000*%
G04 #@! TD*
G04 APERTURE END LIST*
D10*
X161290000Y-101600000D03*
D11*
X161290000Y-104140000D03*
X158750000Y-101600000D03*
X158750000Y-104140000D03*
X156210000Y-101600000D03*
X156210000Y-104140000D03*
X153670000Y-101600000D03*
X153670000Y-104140000D03*
X151130000Y-101600000D03*
X151130000Y-104140000D03*
X148590000Y-101600000D03*
X148590000Y-104140000D03*
X146050000Y-101600000D03*
X146050000Y-104140000D03*
D12*
X132080000Y-119380000D03*
D13*
X132080000Y-116840000D03*
X132080000Y-114300000D03*
X132080000Y-111760000D03*
X132080000Y-109220000D03*
X132080000Y-106680000D03*
X132080000Y-104140000D03*
X132080000Y-101600000D03*
X132080000Y-99060000D03*
X132080000Y-96520000D03*
X132080000Y-93980000D03*
X132080000Y-91440000D03*
X132080000Y-88900000D03*
X132080000Y-86360000D03*
D14*
X158750000Y-106680000D03*
X130810000Y-85090000D03*
X158750000Y-113030000D03*
X142240000Y-93980000D03*
X163830000Y-106680000D03*
X138430000Y-95250000D03*
X149860000Y-99060000D03*
X139700000Y-87630000D03*
X152400000Y-110490000D03*
X143510000Y-105410000D03*
X153670000Y-99060000D03*
X138430000Y-101600000D03*
X157480000Y-107950000D03*
X139700000Y-107950000D03*
X134620000Y-105410000D03*
X137160000Y-102870000D03*
D15*
X162560000Y-101600000D02*
X161290000Y-101600000D01*
X135255000Y-116840000D02*
X152400000Y-116840000D01*
X163830000Y-102870000D02*
X162560000Y-101600000D01*
X132715000Y-119380000D02*
X135255000Y-116840000D01*
X163830000Y-105410000D02*
X163830000Y-102870000D01*
X132080000Y-119380000D02*
X132715000Y-119380000D01*
X152400000Y-116840000D02*
X163830000Y-105410000D01*
X158115000Y-109220000D02*
X161290000Y-106045000D01*
X161290000Y-106045000D02*
X161290000Y-104140000D01*
X132080000Y-109220000D02*
X158115000Y-109220000D01*
X133350000Y-107950000D02*
X157480000Y-107950000D01*
X134620000Y-107950000D02*
X139700000Y-107950000D01*
X132080000Y-106680000D02*
X133350000Y-107950000D01*
X156337000Y-106553000D02*
X135763000Y-106553000D01*
X135763000Y-106553000D02*
X134620000Y-105410000D01*
X132080000Y-104140000D02*
X133350000Y-104140000D01*
X133350000Y-104140000D02*
X134620000Y-105410000D01*
X158750000Y-104140000D02*
X156337000Y-106553000D01*
X147320000Y-99441000D02*
X148590000Y-100711000D01*
X148590000Y-100711000D02*
X148590000Y-101600000D01*
X132715000Y-100965000D02*
X134366000Y-100965000D01*
X132080000Y-101600000D02*
X132715000Y-100965000D01*
X134366000Y-100965000D02*
X135890000Y-99441000D01*
X135890000Y-99441000D02*
X147320000Y-99441000D01*
X133985000Y-97790000D02*
X150123026Y-97790000D01*
X139700000Y-92710000D02*
X139700000Y-97790000D01*
X132715000Y-98425000D02*
X133350000Y-98425000D01*
X132080000Y-99060000D02*
X132715000Y-98425000D01*
X135890000Y-88900000D02*
X139700000Y-92710000D01*
X150123026Y-97790000D02*
X152400000Y-100066974D01*
X133350000Y-98425000D02*
X133985000Y-97790000D01*
X152400000Y-100066974D02*
X152400000Y-102870000D01*
X132080000Y-88900000D02*
X135890000Y-88900000D01*
X152400000Y-102870000D02*
X153670000Y-104140000D01*
X140970000Y-102870000D02*
X137160000Y-102870000D01*
X146050000Y-101600000D02*
X142240000Y-101600000D01*
X142240000Y-101600000D02*
X140970000Y-102870000D01*
G04 #@! TA.AperFunction,Conductor*
G36*
X133291621Y-83840502D02*
G01*
X133338114Y-83894158D01*
X133349500Y-83946500D01*
X133349500Y-84007198D01*
X133349802Y-84010270D01*
X133349803Y-84010278D01*
X133369805Y-84213359D01*
X133370250Y-84219328D01*
X133374429Y-84301743D01*
X133380298Y-84319896D01*
X133385538Y-84373094D01*
X133386198Y-84379791D01*
X133386799Y-84382814D01*
X133386802Y-84382832D01*
X133429411Y-84597037D01*
X133430379Y-84602538D01*
X133442070Y-84678857D01*
X133448709Y-84694058D01*
X133459239Y-84746992D01*
X133460128Y-84749925D01*
X133460132Y-84749938D01*
X133528066Y-84973886D01*
X133529469Y-84978879D01*
X133547171Y-85047249D01*
X133554038Y-85059504D01*
X133567023Y-85102313D01*
X133567920Y-85105267D01*
X133569096Y-85108107D01*
X133569100Y-85108117D01*
X133665222Y-85340175D01*
X133666969Y-85344632D01*
X133688692Y-85403284D01*
X133695252Y-85412674D01*
X133711195Y-85451163D01*
X133712656Y-85453896D01*
X133840056Y-85692246D01*
X133842057Y-85696152D01*
X133865199Y-85743330D01*
X133870941Y-85750028D01*
X133884859Y-85776066D01*
X133887684Y-85781351D01*
X133889402Y-85783923D01*
X133889405Y-85783927D01*
X134051606Y-86026678D01*
X134053770Y-86030030D01*
X134074938Y-86063990D01*
X134079364Y-86068221D01*
X134093958Y-86090062D01*
X134095687Y-86092649D01*
X134097660Y-86095053D01*
X134298819Y-86340167D01*
X134301057Y-86342973D01*
X134315800Y-86362019D01*
X134318459Y-86364098D01*
X134333201Y-86382061D01*
X134335404Y-86384264D01*
X134580688Y-86629548D01*
X134582917Y-86631833D01*
X134585343Y-86634385D01*
X134585835Y-86634695D01*
X134597939Y-86646799D01*
X134887351Y-86884313D01*
X135198649Y-87092316D01*
X135528837Y-87268805D01*
X135874733Y-87412080D01*
X136233008Y-87520761D01*
X136600209Y-87593802D01*
X136972802Y-87630500D01*
X136975894Y-87630500D01*
X137344106Y-87630500D01*
X137347198Y-87630500D01*
X137719791Y-87593802D01*
X138086992Y-87520761D01*
X138445267Y-87412080D01*
X138791163Y-87268805D01*
X139121351Y-87092316D01*
X139432649Y-86884313D01*
X139722061Y-86646799D01*
X139734163Y-86634696D01*
X139734568Y-86634475D01*
X139737033Y-86631882D01*
X139739192Y-86629667D01*
X139986799Y-86382061D01*
X140001537Y-86364101D01*
X140003755Y-86362590D01*
X140018917Y-86343003D01*
X140021091Y-86340275D01*
X140224313Y-86092649D01*
X140240631Y-86068226D01*
X140244366Y-86065105D01*
X140266217Y-86030048D01*
X140268359Y-86026728D01*
X140432316Y-85781351D01*
X140449056Y-85750031D01*
X140453960Y-85745038D01*
X140477929Y-85696176D01*
X140479931Y-85692269D01*
X140608805Y-85451163D01*
X140624745Y-85412679D01*
X140630447Y-85405603D01*
X140653020Y-85344655D01*
X140654755Y-85340227D01*
X140752080Y-85105267D01*
X140765960Y-85059509D01*
X140772064Y-85050195D01*
X140790519Y-84978916D01*
X140791923Y-84973921D01*
X140859862Y-84749957D01*
X140859867Y-84749938D01*
X140860761Y-84746992D01*
X140871288Y-84694068D01*
X140877382Y-84682417D01*
X140889614Y-84602570D01*
X140890574Y-84597110D01*
X140933802Y-84379791D01*
X140939694Y-84319962D01*
X140945357Y-84305938D01*
X140949747Y-84219345D01*
X140950188Y-84213418D01*
X140970500Y-84007198D01*
X140970500Y-83946499D01*
X140990502Y-83878379D01*
X141044158Y-83831886D01*
X141096500Y-83820500D01*
X166365045Y-83820500D01*
X166374929Y-83820887D01*
X166427001Y-83824986D01*
X166567429Y-83837272D01*
X166585846Y-83840271D01*
X166664452Y-83859143D01*
X166667537Y-83859927D01*
X166772681Y-83888100D01*
X166788265Y-83893390D01*
X166868446Y-83926602D01*
X166873413Y-83928787D01*
X166966686Y-83972282D01*
X166979237Y-83979026D01*
X167055121Y-84025528D01*
X167061505Y-84029713D01*
X167144082Y-84087534D01*
X167153630Y-84094928D01*
X167221919Y-84153252D01*
X167229184Y-84159968D01*
X167300030Y-84230814D01*
X167306746Y-84238079D01*
X167365070Y-84306368D01*
X167372469Y-84315923D01*
X167430275Y-84398479D01*
X167434482Y-84404895D01*
X167480963Y-84480744D01*
X167487726Y-84493330D01*
X167531200Y-84586561D01*
X167533414Y-84591593D01*
X167566603Y-84671719D01*
X167571901Y-84687326D01*
X167600057Y-84792406D01*
X167600869Y-84795604D01*
X167619724Y-84874144D01*
X167622725Y-84892574D01*
X167635019Y-85033082D01*
X167636135Y-85047249D01*
X167639112Y-85085065D01*
X167639500Y-85094940D01*
X167639500Y-106675055D01*
X167639111Y-106684942D01*
X167635020Y-106736916D01*
X167622726Y-106877426D01*
X167619725Y-106895853D01*
X167600869Y-106974395D01*
X167600057Y-106977592D01*
X167571901Y-107082672D01*
X167566603Y-107098279D01*
X167533414Y-107178405D01*
X167531200Y-107183437D01*
X167487726Y-107276668D01*
X167480963Y-107289254D01*
X167434482Y-107365103D01*
X167430263Y-107371538D01*
X167372472Y-107454071D01*
X167365070Y-107463630D01*
X167306746Y-107531919D01*
X167300030Y-107539184D01*
X167229184Y-107610030D01*
X167221919Y-107616746D01*
X167153630Y-107675070D01*
X167144071Y-107682472D01*
X167061538Y-107740263D01*
X167055103Y-107744482D01*
X166979254Y-107790963D01*
X166966668Y-107797726D01*
X166873437Y-107841200D01*
X166868405Y-107843414D01*
X166788279Y-107876603D01*
X166772672Y-107881901D01*
X166667592Y-107910057D01*
X166664394Y-107910869D01*
X166585854Y-107929724D01*
X166567424Y-107932725D01*
X166426917Y-107945019D01*
X166390836Y-107947860D01*
X166374921Y-107949112D01*
X166365059Y-107949500D01*
X162585158Y-107949500D01*
X162584952Y-107949459D01*
X162559999Y-107949459D01*
X162559900Y-107949500D01*
X162559618Y-107949615D01*
X162559617Y-107949617D01*
X162559459Y-107950000D01*
X162559476Y-107975014D01*
X162559471Y-107975014D01*
X162559500Y-107975157D01*
X162559500Y-120645055D01*
X162559111Y-120654942D01*
X162555020Y-120706916D01*
X162542726Y-120847426D01*
X162539725Y-120865853D01*
X162520869Y-120944395D01*
X162520057Y-120947592D01*
X162491901Y-121052672D01*
X162486603Y-121068279D01*
X162453414Y-121148405D01*
X162451200Y-121153437D01*
X162407726Y-121246668D01*
X162400963Y-121259254D01*
X162354482Y-121335103D01*
X162350263Y-121341538D01*
X162292472Y-121424071D01*
X162285070Y-121433630D01*
X162226746Y-121501919D01*
X162220030Y-121509184D01*
X162149184Y-121580030D01*
X162141919Y-121586746D01*
X162073630Y-121645070D01*
X162064071Y-121652472D01*
X161981538Y-121710263D01*
X161975103Y-121714482D01*
X161899254Y-121760963D01*
X161886668Y-121767726D01*
X161793437Y-121811200D01*
X161788405Y-121813414D01*
X161708279Y-121846603D01*
X161692672Y-121851901D01*
X161587592Y-121880057D01*
X161584394Y-121880869D01*
X161505854Y-121899724D01*
X161487424Y-121902725D01*
X161346917Y-121915019D01*
X161310836Y-121917860D01*
X161294921Y-121919112D01*
X161285059Y-121919500D01*
X141096500Y-121919500D01*
X141028379Y-121899498D01*
X140981886Y-121845842D01*
X140970500Y-121793500D01*
X140970500Y-121735894D01*
X140970500Y-121732802D01*
X140950190Y-121526603D01*
X140949747Y-121520650D01*
X140945565Y-121438197D01*
X140939695Y-121420043D01*
X140934106Y-121363297D01*
X140934106Y-121363296D01*
X140933802Y-121360209D01*
X140890581Y-121142927D01*
X140889617Y-121137442D01*
X140877928Y-121061140D01*
X140871288Y-121045932D01*
X140870565Y-121042297D01*
X140860761Y-120993008D01*
X140791925Y-120766086D01*
X140790524Y-120761098D01*
X140772827Y-120692751D01*
X140765960Y-120680490D01*
X140752976Y-120637686D01*
X140752974Y-120637681D01*
X140752080Y-120634733D01*
X140654766Y-120399797D01*
X140653028Y-120395364D01*
X140631308Y-120336718D01*
X140624745Y-120327320D01*
X140609990Y-120291698D01*
X140608805Y-120288837D01*
X140479942Y-120047751D01*
X140477941Y-120043845D01*
X140454801Y-119996671D01*
X140449057Y-119989969D01*
X140432316Y-119958649D01*
X140268383Y-119713306D01*
X140266232Y-119709974D01*
X140245068Y-119676019D01*
X140240631Y-119671773D01*
X140226040Y-119649936D01*
X140226038Y-119649933D01*
X140224313Y-119647351D01*
X140106076Y-119503279D01*
X140021176Y-119399827D01*
X140018938Y-119397021D01*
X140004204Y-119377986D01*
X140001538Y-119375899D01*
X139986799Y-119357939D01*
X139739310Y-119110450D01*
X139737081Y-119108164D01*
X139734663Y-119105620D01*
X139734163Y-119105303D01*
X139724264Y-119095404D01*
X139722061Y-119093201D01*
X139432649Y-118855687D01*
X139121351Y-118647684D01*
X138791163Y-118471195D01*
X138788309Y-118470013D01*
X138788301Y-118470009D01*
X138448117Y-118329100D01*
X138448107Y-118329096D01*
X138445267Y-118327920D01*
X138442325Y-118327027D01*
X138442318Y-118327025D01*
X138089938Y-118220132D01*
X138089925Y-118220128D01*
X138086992Y-118219239D01*
X138083966Y-118218637D01*
X137722832Y-118146802D01*
X137722814Y-118146799D01*
X137719791Y-118146198D01*
X137716714Y-118145894D01*
X137716701Y-118145893D01*
X137350278Y-118109803D01*
X137350270Y-118109802D01*
X137347198Y-118109500D01*
X136972802Y-118109500D01*
X136969730Y-118109802D01*
X136969721Y-118109803D01*
X136603298Y-118145893D01*
X136603282Y-118145895D01*
X136600209Y-118146198D01*
X136597188Y-118146798D01*
X136597167Y-118146802D01*
X136236033Y-118218637D01*
X136236027Y-118218638D01*
X136233008Y-118219239D01*
X136230079Y-118220127D01*
X136230061Y-118220132D01*
X135877681Y-118327025D01*
X135877667Y-118327029D01*
X135874733Y-118327920D01*
X135871898Y-118329094D01*
X135871882Y-118329100D01*
X135531698Y-118470009D01*
X135531682Y-118470016D01*
X135528837Y-118471195D01*
X135526108Y-118472653D01*
X135526103Y-118472656D01*
X135201381Y-118646223D01*
X135201369Y-118646229D01*
X135198649Y-118647684D01*
X135196085Y-118649397D01*
X135196072Y-118649405D01*
X134889932Y-118853962D01*
X134889926Y-118853966D01*
X134887351Y-118855687D01*
X134884955Y-118857653D01*
X134884946Y-118857660D01*
X134600347Y-119091224D01*
X134600337Y-119091232D01*
X134597939Y-119093201D01*
X134595744Y-119095395D01*
X134595744Y-119095396D01*
X134585832Y-119105308D01*
X134585417Y-119105534D01*
X134582889Y-119108194D01*
X134580668Y-119110471D01*
X134333201Y-119357939D01*
X134331228Y-119360341D01*
X134331228Y-119360343D01*
X134318458Y-119375903D01*
X134316237Y-119377415D01*
X134301054Y-119397029D01*
X134298819Y-119399833D01*
X134179982Y-119544637D01*
X134095687Y-119647351D01*
X134093968Y-119649922D01*
X134093961Y-119649933D01*
X134079363Y-119671780D01*
X134075626Y-119674902D01*
X134053755Y-119709991D01*
X134051592Y-119713342D01*
X133889405Y-119956072D01*
X133889397Y-119956085D01*
X133887684Y-119958649D01*
X133886229Y-119961369D01*
X133886223Y-119961381D01*
X133870941Y-119989972D01*
X133866034Y-119994967D01*
X133842046Y-120043869D01*
X133840045Y-120047774D01*
X133712656Y-120286103D01*
X133711195Y-120288837D01*
X133710017Y-120291680D01*
X133710007Y-120291702D01*
X133695252Y-120327325D01*
X133689547Y-120334404D01*
X133666961Y-120395387D01*
X133665214Y-120399844D01*
X133569100Y-120631882D01*
X133569094Y-120631898D01*
X133567920Y-120634733D01*
X133567030Y-120637663D01*
X133567018Y-120637700D01*
X133554037Y-120680495D01*
X133547933Y-120689808D01*
X133529469Y-120761121D01*
X133528066Y-120766114D01*
X133460132Y-120990061D01*
X133460127Y-120990079D01*
X133459239Y-120993008D01*
X133458641Y-120996012D01*
X133458639Y-120996022D01*
X133448709Y-121045944D01*
X133442614Y-121057594D01*
X133430379Y-121137460D01*
X133429411Y-121142960D01*
X133386802Y-121357167D01*
X133386798Y-121357188D01*
X133386198Y-121360209D01*
X133385895Y-121363276D01*
X133385893Y-121363296D01*
X133380298Y-121420109D01*
X133374640Y-121434120D01*
X133370251Y-121520666D01*
X133369806Y-121526634D01*
X133351719Y-121710275D01*
X133349500Y-121732802D01*
X133349500Y-121735893D01*
X133349500Y-121735894D01*
X133349500Y-121793500D01*
X133329498Y-121861621D01*
X133275842Y-121908114D01*
X133223500Y-121919500D01*
X130814945Y-121919500D01*
X130805058Y-121919111D01*
X130753083Y-121915020D01*
X130612572Y-121902726D01*
X130594145Y-121899725D01*
X130515603Y-121880869D01*
X130512406Y-121880057D01*
X130407326Y-121851901D01*
X130391719Y-121846603D01*
X130311593Y-121813414D01*
X130306561Y-121811200D01*
X130248426Y-121784091D01*
X130213326Y-121767723D01*
X130200749Y-121760966D01*
X130124894Y-121714481D01*
X130118479Y-121710275D01*
X130035923Y-121652469D01*
X130026368Y-121645070D01*
X129958079Y-121586746D01*
X129950814Y-121580030D01*
X129879968Y-121509184D01*
X129873252Y-121501919D01*
X129814928Y-121433630D01*
X129807534Y-121424082D01*
X129749713Y-121341505D01*
X129745528Y-121335121D01*
X129699026Y-121259237D01*
X129692282Y-121246686D01*
X129648787Y-121153413D01*
X129646602Y-121148446D01*
X129613390Y-121068265D01*
X129608100Y-121052681D01*
X129579927Y-120947537D01*
X129579139Y-120944434D01*
X129560274Y-120865853D01*
X129557272Y-120847423D01*
X129551323Y-120779427D01*
X129544979Y-120706916D01*
X129540888Y-120654924D01*
X129540500Y-120645050D01*
X129540500Y-120255068D01*
X130975500Y-120255068D01*
X130990265Y-120329300D01*
X131046515Y-120413484D01*
X131102764Y-120451068D01*
X131130699Y-120469734D01*
X131204933Y-120484500D01*
X132955066Y-120484499D01*
X132955068Y-120484499D01*
X133004555Y-120474655D01*
X133029301Y-120469734D01*
X133113484Y-120413484D01*
X133169734Y-120329301D01*
X133184500Y-120255067D01*
X133184499Y-119633732D01*
X133204501Y-119565612D01*
X133221395Y-119544647D01*
X135414642Y-117351402D01*
X135476952Y-117317379D01*
X135503735Y-117314500D01*
X152335443Y-117314500D01*
X152362224Y-117317378D01*
X152365801Y-117318157D01*
X152410659Y-117314948D01*
X152412449Y-117314821D01*
X152421436Y-117314500D01*
X152433935Y-117314500D01*
X152446309Y-117312720D01*
X152455231Y-117311760D01*
X152501899Y-117308424D01*
X152505326Y-117307146D01*
X152531434Y-117300482D01*
X152532355Y-117300349D01*
X152535057Y-117299961D01*
X152577625Y-117280520D01*
X152585912Y-117277088D01*
X152629742Y-117260741D01*
X152632674Y-117258545D01*
X152655842Y-117244799D01*
X152659172Y-117243279D01*
X152694552Y-117212620D01*
X152701497Y-117207024D01*
X152711526Y-117199518D01*
X152720361Y-117190681D01*
X152726948Y-117184550D01*
X152762287Y-117153929D01*
X152762287Y-117153928D01*
X152762290Y-117153926D01*
X152764269Y-117150844D01*
X152781168Y-117129874D01*
X164119876Y-105791167D01*
X164140851Y-105774265D01*
X164143926Y-105772290D01*
X164174561Y-105736934D01*
X164180661Y-105730382D01*
X164189518Y-105721527D01*
X164197023Y-105711498D01*
X164202653Y-105704513D01*
X164233279Y-105669172D01*
X164234800Y-105665839D01*
X164248548Y-105642671D01*
X164250741Y-105639742D01*
X164267088Y-105595912D01*
X164270520Y-105587625D01*
X164289961Y-105545057D01*
X164290482Y-105541434D01*
X164297146Y-105515326D01*
X164298424Y-105511899D01*
X164301760Y-105465231D01*
X164302720Y-105456309D01*
X164304500Y-105443935D01*
X164304500Y-105431436D01*
X164304821Y-105422449D01*
X164308157Y-105375802D01*
X164307379Y-105372224D01*
X164304500Y-105345444D01*
X164304500Y-102934554D01*
X164307380Y-102907770D01*
X164307456Y-102907418D01*
X164308157Y-102904198D01*
X164304821Y-102857554D01*
X164304500Y-102848566D01*
X164304500Y-102836067D01*
X164304462Y-102835801D01*
X164302718Y-102823677D01*
X164301759Y-102814748D01*
X164298423Y-102768102D01*
X164297145Y-102764675D01*
X164290482Y-102738568D01*
X164289961Y-102734943D01*
X164270524Y-102692383D01*
X164267084Y-102684077D01*
X164264310Y-102676639D01*
X164250741Y-102640258D01*
X164248547Y-102637327D01*
X164234800Y-102614157D01*
X164233280Y-102610829D01*
X164202655Y-102575487D01*
X164197006Y-102568477D01*
X164189518Y-102558473D01*
X164180667Y-102549622D01*
X164174549Y-102543051D01*
X164143924Y-102507707D01*
X164140848Y-102505731D01*
X164119871Y-102488827D01*
X162941172Y-101310128D01*
X162924269Y-101289154D01*
X162922290Y-101286074D01*
X162886936Y-101255439D01*
X162880368Y-101249324D01*
X162871526Y-101240482D01*
X162861518Y-101232989D01*
X162854521Y-101227351D01*
X162854504Y-101227336D01*
X162819172Y-101196721D01*
X162819168Y-101196719D01*
X162815838Y-101195198D01*
X162792673Y-101181453D01*
X162789740Y-101179257D01*
X162745917Y-101162912D01*
X162737609Y-101159471D01*
X162695056Y-101140038D01*
X162691419Y-101139515D01*
X162665338Y-101132857D01*
X162661902Y-101131575D01*
X162615240Y-101128238D01*
X162606306Y-101127278D01*
X162597790Y-101126054D01*
X162593935Y-101125500D01*
X162593934Y-101125500D01*
X162581436Y-101125500D01*
X162572448Y-101125179D01*
X162511511Y-101120821D01*
X162444991Y-101096011D01*
X162402444Y-101039175D01*
X162394499Y-100995142D01*
X162394499Y-100955116D01*
X162394499Y-100955112D01*
X162394499Y-100951746D01*
X162388040Y-100891658D01*
X162337342Y-100755733D01*
X162306711Y-100714814D01*
X162250404Y-100639595D01*
X162134268Y-100552658D01*
X161998339Y-100501959D01*
X161941603Y-100495859D01*
X161941585Y-100495858D01*
X161938255Y-100495500D01*
X161934887Y-100495500D01*
X160645116Y-100495500D01*
X160645097Y-100495500D01*
X160641746Y-100495501D01*
X160638404Y-100495860D01*
X160638389Y-100495861D01*
X160581661Y-100501959D01*
X160445731Y-100552658D01*
X160329595Y-100639595D01*
X160242658Y-100755731D01*
X160191959Y-100891660D01*
X160185859Y-100948396D01*
X160185857Y-100948415D01*
X160185500Y-100951745D01*
X160185500Y-100955111D01*
X160185500Y-100955112D01*
X160185500Y-102244883D01*
X160185500Y-102244901D01*
X160185501Y-102248254D01*
X160185860Y-102251596D01*
X160185861Y-102251610D01*
X160191959Y-102308338D01*
X160191959Y-102308340D01*
X160191960Y-102308342D01*
X160217008Y-102375498D01*
X160242658Y-102444268D01*
X160329595Y-102560404D01*
X160445731Y-102647341D01*
X160445732Y-102647341D01*
X160445733Y-102647342D01*
X160581658Y-102698040D01*
X160627076Y-102702923D01*
X160638377Y-102704138D01*
X160641745Y-102704500D01*
X161938254Y-102704499D01*
X161998342Y-102698040D01*
X162134267Y-102647342D01*
X162250404Y-102560404D01*
X162337342Y-102444267D01*
X162376371Y-102339625D01*
X162418915Y-102282793D01*
X162485435Y-102257982D01*
X162554810Y-102273073D01*
X162583520Y-102294565D01*
X163318595Y-103029639D01*
X163352620Y-103091952D01*
X163355500Y-103118735D01*
X163355500Y-105161265D01*
X163335498Y-105229386D01*
X163318595Y-105250360D01*
X152240361Y-116328595D01*
X152178049Y-116362621D01*
X152151266Y-116365500D01*
X135319556Y-116365500D01*
X135292776Y-116362621D01*
X135289199Y-116361843D01*
X135289198Y-116361843D01*
X135267185Y-116363417D01*
X135242554Y-116365179D01*
X135233566Y-116365500D01*
X135221062Y-116365500D01*
X135208691Y-116367278D01*
X135199759Y-116368239D01*
X135153097Y-116371577D01*
X135149664Y-116372858D01*
X135123578Y-116379516D01*
X135119943Y-116380038D01*
X135077382Y-116399475D01*
X135069084Y-116402911D01*
X135043670Y-116412391D01*
X135025252Y-116419261D01*
X135022314Y-116421461D01*
X134999169Y-116435194D01*
X134995829Y-116436719D01*
X134971531Y-116457773D01*
X134960488Y-116467342D01*
X134953495Y-116472979D01*
X134943470Y-116480483D01*
X134934622Y-116489331D01*
X134928047Y-116495452D01*
X134892710Y-116526073D01*
X134890729Y-116529156D01*
X134873830Y-116550123D01*
X133163992Y-118259962D01*
X133101680Y-118293987D01*
X133050316Y-118294446D01*
X132955067Y-118275500D01*
X131204931Y-118275500D01*
X131130699Y-118290265D01*
X131046515Y-118346515D01*
X130990266Y-118430698D01*
X130975500Y-118504933D01*
X130975500Y-120255068D01*
X129540500Y-120255068D01*
X129540500Y-116585999D01*
X131004450Y-116585999D01*
X131004451Y-116586000D01*
X131648884Y-116586000D01*
X131620507Y-116630156D01*
X131580000Y-116768111D01*
X131580000Y-116911889D01*
X131620507Y-117049844D01*
X131648884Y-117094000D01*
X131004451Y-117094000D01*
X131046140Y-117240522D01*
X131137337Y-117423669D01*
X131260638Y-117586945D01*
X131411844Y-117724788D01*
X131585792Y-117832492D01*
X131776581Y-117906404D01*
X131825999Y-117915641D01*
X131825999Y-117273674D01*
X131937685Y-117324680D01*
X132044237Y-117340000D01*
X132115763Y-117340000D01*
X132222315Y-117324680D01*
X132334000Y-117273674D01*
X132334000Y-117915642D01*
X132383419Y-117906404D01*
X132574204Y-117832493D01*
X132748155Y-117724788D01*
X132899361Y-117586945D01*
X133022662Y-117423669D01*
X133113859Y-117240522D01*
X133155549Y-117094000D01*
X132511116Y-117094000D01*
X132539493Y-117049844D01*
X132580000Y-116911889D01*
X132580000Y-116768111D01*
X132539493Y-116630156D01*
X132511116Y-116586000D01*
X133155549Y-116586000D01*
X133155549Y-116585999D01*
X133113859Y-116439477D01*
X133022662Y-116256330D01*
X132899361Y-116093054D01*
X132748155Y-115955211D01*
X132574204Y-115847506D01*
X132383422Y-115773596D01*
X132334000Y-115764357D01*
X132334000Y-116406325D01*
X132222315Y-116355320D01*
X132115763Y-116340000D01*
X132044237Y-116340000D01*
X131937685Y-116355320D01*
X131825999Y-116406325D01*
X131825999Y-115764357D01*
X131776577Y-115773596D01*
X131585795Y-115847506D01*
X131411844Y-115955211D01*
X131260638Y-116093054D01*
X131137337Y-116256330D01*
X131046140Y-116439477D01*
X131004450Y-116585999D01*
X129540500Y-116585999D01*
X129540500Y-114299999D01*
X130970767Y-114299999D01*
X130989654Y-114503819D01*
X131045672Y-114700702D01*
X131136910Y-114883933D01*
X131136912Y-114883935D01*
X131260268Y-115047285D01*
X131411538Y-115185186D01*
X131585573Y-115292944D01*
X131776444Y-115366888D01*
X131977653Y-115404500D01*
X131977655Y-115404500D01*
X132182345Y-115404500D01*
X132182347Y-115404500D01*
X132383556Y-115366888D01*
X132574427Y-115292944D01*
X132748462Y-115185186D01*
X132899732Y-115047285D01*
X133023088Y-114883935D01*
X133114328Y-114700701D01*
X133170345Y-114503821D01*
X133189232Y-114300000D01*
X133170345Y-114096179D01*
X133114328Y-113899299D01*
X133113585Y-113897807D01*
X133023089Y-113716066D01*
X132992886Y-113676072D01*
X132899732Y-113552715D01*
X132748462Y-113414814D01*
X132700087Y-113384861D01*
X132574428Y-113307056D01*
X132478991Y-113270083D01*
X132383556Y-113233112D01*
X132182347Y-113195500D01*
X131977653Y-113195500D01*
X131776444Y-113233111D01*
X131776444Y-113233112D01*
X131585571Y-113307056D01*
X131411539Y-113414813D01*
X131260267Y-113552716D01*
X131136910Y-113716066D01*
X131045672Y-113899297D01*
X130989654Y-114096180D01*
X130970767Y-114299999D01*
X129540500Y-114299999D01*
X129540500Y-111759999D01*
X130970767Y-111759999D01*
X130989654Y-111963819D01*
X131045672Y-112160702D01*
X131136910Y-112343933D01*
X131136912Y-112343935D01*
X131260268Y-112507285D01*
X131411538Y-112645186D01*
X131585573Y-112752944D01*
X131776444Y-112826888D01*
X131977653Y-112864500D01*
X131977655Y-112864500D01*
X132182345Y-112864500D01*
X132182347Y-112864500D01*
X132383556Y-112826888D01*
X132574427Y-112752944D01*
X132748462Y-112645186D01*
X132899732Y-112507285D01*
X133023088Y-112343935D01*
X133114328Y-112160701D01*
X133170345Y-111963821D01*
X133189232Y-111760000D01*
X133170345Y-111556179D01*
X133114328Y-111359299D01*
X133113585Y-111357807D01*
X133023089Y-111176066D01*
X132992886Y-111136071D01*
X132899732Y-111012715D01*
X132748462Y-110874814D01*
X132700087Y-110844861D01*
X132574428Y-110767056D01*
X132478991Y-110730083D01*
X132383556Y-110693112D01*
X132182347Y-110655500D01*
X131977653Y-110655500D01*
X131776443Y-110693111D01*
X131776444Y-110693112D01*
X131585571Y-110767056D01*
X131411539Y-110874813D01*
X131260267Y-111012716D01*
X131136910Y-111176066D01*
X131045672Y-111359297D01*
X130989654Y-111556180D01*
X130970767Y-111759999D01*
X129540500Y-111759999D01*
X129540500Y-109220000D01*
X130970767Y-109220000D01*
X130989654Y-109423819D01*
X131045672Y-109620702D01*
X131136910Y-109803933D01*
X131197314Y-109883920D01*
X131260268Y-109967285D01*
X131411538Y-110105186D01*
X131585573Y-110212944D01*
X131776444Y-110286888D01*
X131977653Y-110324500D01*
X131977655Y-110324500D01*
X132182345Y-110324500D01*
X132182347Y-110324500D01*
X132383556Y-110286888D01*
X132574427Y-110212944D01*
X132748462Y-110105186D01*
X132899732Y-109967285D01*
X133023088Y-109803935D01*
X133042805Y-109764336D01*
X133091075Y-109712273D01*
X133155596Y-109694500D01*
X158050443Y-109694500D01*
X158077224Y-109697378D01*
X158080801Y-109698157D01*
X158125659Y-109694948D01*
X158127449Y-109694821D01*
X158136436Y-109694500D01*
X158148935Y-109694500D01*
X158161309Y-109692720D01*
X158170231Y-109691760D01*
X158216899Y-109688424D01*
X158220326Y-109687146D01*
X158246434Y-109680482D01*
X158247355Y-109680349D01*
X158250057Y-109679961D01*
X158292625Y-109660520D01*
X158300912Y-109657088D01*
X158344742Y-109640741D01*
X158347674Y-109638545D01*
X158370842Y-109624799D01*
X158374172Y-109623279D01*
X158409552Y-109592620D01*
X158416497Y-109587024D01*
X158426526Y-109579518D01*
X158435361Y-109570681D01*
X158441948Y-109564550D01*
X158477287Y-109533929D01*
X158477287Y-109533928D01*
X158477290Y-109533926D01*
X158479269Y-109530844D01*
X158496168Y-109509874D01*
X161579876Y-106426167D01*
X161600851Y-106409265D01*
X161603926Y-106407290D01*
X161634561Y-106371934D01*
X161640661Y-106365382D01*
X161649518Y-106356527D01*
X161657023Y-106346498D01*
X161662653Y-106339513D01*
X161693279Y-106304172D01*
X161694800Y-106300839D01*
X161708548Y-106277671D01*
X161710741Y-106274742D01*
X161727088Y-106230912D01*
X161730520Y-106222625D01*
X161749961Y-106180057D01*
X161750482Y-106176434D01*
X161757146Y-106150326D01*
X161758424Y-106146899D01*
X161761760Y-106100231D01*
X161762720Y-106091309D01*
X161764500Y-106078935D01*
X161764500Y-106066436D01*
X161764821Y-106057450D01*
X161768157Y-106010799D01*
X161767379Y-106007223D01*
X161764500Y-105980443D01*
X161764500Y-105215463D01*
X161784502Y-105147342D01*
X161824166Y-105108338D01*
X161958462Y-105025186D01*
X162109732Y-104887285D01*
X162233088Y-104723935D01*
X162324328Y-104540701D01*
X162380345Y-104343821D01*
X162399232Y-104140000D01*
X162380345Y-103936179D01*
X162324328Y-103739299D01*
X162294820Y-103680039D01*
X162233089Y-103556066D01*
X162180527Y-103486463D01*
X162109732Y-103392715D01*
X161958462Y-103254814D01*
X161898196Y-103217499D01*
X161784428Y-103147056D01*
X161660073Y-103098881D01*
X161593556Y-103073112D01*
X161392347Y-103035500D01*
X161187653Y-103035500D01*
X161021580Y-103066544D01*
X160986444Y-103073112D01*
X160795571Y-103147056D01*
X160621539Y-103254813D01*
X160564073Y-103307200D01*
X160472537Y-103390647D01*
X160470267Y-103392716D01*
X160346910Y-103556066D01*
X160255672Y-103739297D01*
X160199654Y-103936180D01*
X160180767Y-104140000D01*
X160199654Y-104343819D01*
X160255672Y-104540702D01*
X160346910Y-104723933D01*
X160388271Y-104778703D01*
X160470268Y-104887285D01*
X160621538Y-105025186D01*
X160755832Y-105108337D01*
X160803218Y-105161202D01*
X160815500Y-105215463D01*
X160815500Y-105796265D01*
X160795498Y-105864386D01*
X160778595Y-105885360D01*
X158268805Y-108395150D01*
X158206493Y-108429176D01*
X158135678Y-108424111D01*
X158078842Y-108381564D01*
X158054031Y-108315044D01*
X158061898Y-108261374D01*
X158063785Y-108256397D01*
X158063787Y-108256395D01*
X158120149Y-108107782D01*
X158139307Y-107950000D01*
X158120149Y-107792218D01*
X158063787Y-107643605D01*
X157973498Y-107512799D01*
X157854529Y-107407401D01*
X157713793Y-107333537D01*
X157559471Y-107295500D01*
X157400529Y-107295500D01*
X157246207Y-107333537D01*
X157246206Y-107333537D01*
X157246204Y-107333538D01*
X157105470Y-107407401D01*
X157064371Y-107443812D01*
X157000118Y-107474013D01*
X156980818Y-107475500D01*
X140199182Y-107475500D01*
X140131061Y-107455498D01*
X140115629Y-107443812D01*
X140074529Y-107407401D01*
X139933795Y-107333538D01*
X139933794Y-107333537D01*
X139933793Y-107333537D01*
X139779471Y-107295500D01*
X139620529Y-107295500D01*
X139466207Y-107333537D01*
X139466206Y-107333537D01*
X139466204Y-107333538D01*
X139325470Y-107407401D01*
X139284371Y-107443812D01*
X139220118Y-107474013D01*
X139200818Y-107475500D01*
X133598735Y-107475500D01*
X133530614Y-107455498D01*
X133509640Y-107438595D01*
X133174974Y-107103929D01*
X133140948Y-107041617D01*
X133142878Y-106980354D01*
X133170345Y-106883821D01*
X133189232Y-106680000D01*
X133170345Y-106476179D01*
X133114328Y-106279299D01*
X133050107Y-106150326D01*
X133023089Y-106096066D01*
X132970527Y-106026463D01*
X132899732Y-105932715D01*
X132748462Y-105794814D01*
X132630100Y-105721527D01*
X132574428Y-105687056D01*
X132452293Y-105639741D01*
X132383556Y-105613112D01*
X132182347Y-105575500D01*
X131977653Y-105575500D01*
X131776444Y-105613111D01*
X131776444Y-105613112D01*
X131585571Y-105687056D01*
X131411539Y-105794813D01*
X131260267Y-105932716D01*
X131136910Y-106096066D01*
X131045672Y-106279297D01*
X130989654Y-106476180D01*
X130970767Y-106680000D01*
X130989654Y-106883819D01*
X131045672Y-107080702D01*
X131136910Y-107263933D01*
X131189473Y-107333537D01*
X131260268Y-107427285D01*
X131411538Y-107565186D01*
X131585573Y-107672944D01*
X131776444Y-107746888D01*
X131977653Y-107784500D01*
X131977655Y-107784500D01*
X132182345Y-107784500D01*
X132182347Y-107784500D01*
X132383556Y-107746888D01*
X132383558Y-107746887D01*
X132395034Y-107744742D01*
X132395812Y-107748905D01*
X132444203Y-107744807D01*
X132506955Y-107778013D01*
X132508129Y-107779173D01*
X132808463Y-108079507D01*
X132842489Y-108141819D01*
X132837424Y-108212634D01*
X132794877Y-108269470D01*
X132728357Y-108294281D01*
X132658983Y-108279190D01*
X132653037Y-108275729D01*
X132574428Y-108227056D01*
X132478991Y-108190083D01*
X132383556Y-108153112D01*
X132182347Y-108115500D01*
X131977653Y-108115500D01*
X131776444Y-108153111D01*
X131776444Y-108153112D01*
X131585571Y-108227056D01*
X131411539Y-108334813D01*
X131260267Y-108472716D01*
X131136910Y-108636066D01*
X131045672Y-108819297D01*
X130989654Y-109016180D01*
X130970767Y-109220000D01*
X129540500Y-109220000D01*
X129540500Y-104140000D01*
X130970767Y-104140000D01*
X130989654Y-104343819D01*
X131045672Y-104540702D01*
X131136910Y-104723933D01*
X131178271Y-104778703D01*
X131260268Y-104887285D01*
X131411538Y-105025186D01*
X131585573Y-105132944D01*
X131776444Y-105206888D01*
X131977653Y-105244500D01*
X131977655Y-105244500D01*
X132182345Y-105244500D01*
X132182347Y-105244500D01*
X132383556Y-105206888D01*
X132574427Y-105132944D01*
X132748462Y-105025186D01*
X132899732Y-104887285D01*
X133023088Y-104723935D01*
X133024743Y-104720610D01*
X133029357Y-104715632D01*
X133030124Y-104714618D01*
X133030226Y-104714695D01*
X133073006Y-104668547D01*
X133141760Y-104650840D01*
X133209171Y-104673115D01*
X133226630Y-104687674D01*
X133931569Y-105392613D01*
X133965595Y-105454925D01*
X133967555Y-105466520D01*
X133979850Y-105567780D01*
X134036212Y-105716394D01*
X134076156Y-105774262D01*
X134126502Y-105847201D01*
X134245471Y-105952599D01*
X134386207Y-106026463D01*
X134540529Y-106064500D01*
X134551266Y-106064500D01*
X134619387Y-106084502D01*
X134640361Y-106101405D01*
X135381827Y-106842871D01*
X135398731Y-106863848D01*
X135400707Y-106866924D01*
X135420203Y-106883817D01*
X135434093Y-106895853D01*
X135436051Y-106897549D01*
X135442622Y-106903667D01*
X135451469Y-106912514D01*
X135451473Y-106912518D01*
X135461477Y-106920006D01*
X135468487Y-106925655D01*
X135503829Y-106956280D01*
X135507157Y-106957800D01*
X135530327Y-106971547D01*
X135533258Y-106973741D01*
X135577078Y-106990085D01*
X135577089Y-106990089D01*
X135585386Y-106993525D01*
X135627943Y-107012961D01*
X135631573Y-107013483D01*
X135657669Y-107020144D01*
X135661100Y-107021424D01*
X135664965Y-107021700D01*
X135707772Y-107024761D01*
X135716684Y-107025719D01*
X135729065Y-107027500D01*
X135741563Y-107027500D01*
X135750550Y-107027821D01*
X135752471Y-107027958D01*
X135797198Y-107031157D01*
X135800774Y-107030378D01*
X135827556Y-107027500D01*
X156272443Y-107027500D01*
X156299224Y-107030378D01*
X156302801Y-107031157D01*
X156347659Y-107027948D01*
X156349449Y-107027821D01*
X156358436Y-107027500D01*
X156370935Y-107027500D01*
X156383309Y-107025720D01*
X156392231Y-107024760D01*
X156438899Y-107021424D01*
X156442326Y-107020146D01*
X156468434Y-107013482D01*
X156469355Y-107013349D01*
X156472057Y-107012961D01*
X156514625Y-106993520D01*
X156522912Y-106990088D01*
X156566742Y-106973741D01*
X156569674Y-106971545D01*
X156592842Y-106957799D01*
X156596172Y-106956279D01*
X156631552Y-106925620D01*
X156638497Y-106920024D01*
X156648526Y-106912518D01*
X156657361Y-106903681D01*
X156663948Y-106897550D01*
X156699287Y-106866929D01*
X156699287Y-106866928D01*
X156699290Y-106866926D01*
X156701269Y-106863844D01*
X156718168Y-106842874D01*
X158321872Y-105239170D01*
X158384182Y-105205146D01*
X158434222Y-105208725D01*
X158434967Y-105204742D01*
X158446441Y-105206886D01*
X158446444Y-105206888D01*
X158647653Y-105244500D01*
X158647655Y-105244500D01*
X158852345Y-105244500D01*
X158852347Y-105244500D01*
X159053556Y-105206888D01*
X159244427Y-105132944D01*
X159418462Y-105025186D01*
X159569732Y-104887285D01*
X159693088Y-104723935D01*
X159784328Y-104540701D01*
X159840345Y-104343821D01*
X159859232Y-104140000D01*
X159840345Y-103936179D01*
X159784328Y-103739299D01*
X159754820Y-103680039D01*
X159693089Y-103556066D01*
X159640527Y-103486463D01*
X159569732Y-103392715D01*
X159418462Y-103254814D01*
X159358196Y-103217499D01*
X159244428Y-103147056D01*
X159120073Y-103098881D01*
X159053556Y-103073112D01*
X158852347Y-103035500D01*
X158647653Y-103035500D01*
X158481580Y-103066544D01*
X158446444Y-103073112D01*
X158255571Y-103147056D01*
X158081539Y-103254813D01*
X158024073Y-103307200D01*
X157932537Y-103390647D01*
X157930267Y-103392716D01*
X157806910Y-103556066D01*
X157715672Y-103739297D01*
X157659654Y-103936180D01*
X157640767Y-104139999D01*
X157659654Y-104343815D01*
X157659655Y-104343821D01*
X157682252Y-104423246D01*
X157687120Y-104440353D01*
X157686522Y-104511347D01*
X157655024Y-104563928D01*
X157360143Y-104858809D01*
X157297831Y-104892835D01*
X157227016Y-104887770D01*
X157170180Y-104845223D01*
X157145369Y-104778703D01*
X157158257Y-104713553D01*
X157244328Y-104540701D01*
X157300345Y-104343821D01*
X157319232Y-104140000D01*
X157300345Y-103936179D01*
X157244328Y-103739299D01*
X157214820Y-103680039D01*
X157153089Y-103556066D01*
X157100527Y-103486463D01*
X157029732Y-103392715D01*
X156878462Y-103254814D01*
X156818196Y-103217499D01*
X156704428Y-103147056D01*
X156580073Y-103098881D01*
X156513556Y-103073112D01*
X156312347Y-103035500D01*
X156107653Y-103035500D01*
X155941580Y-103066544D01*
X155906444Y-103073112D01*
X155715571Y-103147056D01*
X155541539Y-103254813D01*
X155484073Y-103307200D01*
X155392537Y-103390647D01*
X155390267Y-103392716D01*
X155266910Y-103556066D01*
X155175672Y-103739297D01*
X155119654Y-103936180D01*
X155100767Y-104140000D01*
X155119654Y-104343819D01*
X155175672Y-104540702D01*
X155266910Y-104723933D01*
X155308271Y-104778703D01*
X155390268Y-104887285D01*
X155541538Y-105025186D01*
X155715573Y-105132944D01*
X155906444Y-105206888D01*
X156107653Y-105244500D01*
X156107655Y-105244500D01*
X156312345Y-105244500D01*
X156312347Y-105244500D01*
X156513556Y-105206888D01*
X156704427Y-105132944D01*
X156783032Y-105084273D01*
X156851478Y-105065419D01*
X156919253Y-105086562D01*
X156964838Y-105140991D01*
X156973761Y-105211424D01*
X156943188Y-105275501D01*
X156938458Y-105280496D01*
X156177361Y-106041595D01*
X156115048Y-106075620D01*
X156088265Y-106078500D01*
X136011736Y-106078500D01*
X135943615Y-106058498D01*
X135922641Y-106041596D01*
X135308429Y-105427385D01*
X135274404Y-105365072D01*
X135272443Y-105353475D01*
X135260149Y-105252219D01*
X135246209Y-105215463D01*
X135203787Y-105103605D01*
X135113498Y-104972799D01*
X134994529Y-104867401D01*
X134853793Y-104793537D01*
X134699471Y-104755500D01*
X134699469Y-104755500D01*
X134688736Y-104755500D01*
X134620615Y-104735498D01*
X134599641Y-104718596D01*
X134021044Y-104140000D01*
X144940767Y-104140000D01*
X144959654Y-104343819D01*
X145015672Y-104540702D01*
X145106910Y-104723933D01*
X145148271Y-104778703D01*
X145230268Y-104887285D01*
X145381538Y-105025186D01*
X145555573Y-105132944D01*
X145746444Y-105206888D01*
X145947653Y-105244500D01*
X145947655Y-105244500D01*
X146152345Y-105244500D01*
X146152347Y-105244500D01*
X146353556Y-105206888D01*
X146544427Y-105132944D01*
X146718462Y-105025186D01*
X146869732Y-104887285D01*
X146993088Y-104723935D01*
X147084328Y-104540701D01*
X147140345Y-104343821D01*
X147159232Y-104140000D01*
X147480767Y-104140000D01*
X147499654Y-104343819D01*
X147555672Y-104540702D01*
X147646910Y-104723933D01*
X147688271Y-104778703D01*
X147770268Y-104887285D01*
X147921538Y-105025186D01*
X148095573Y-105132944D01*
X148286444Y-105206888D01*
X148487653Y-105244500D01*
X148487655Y-105244500D01*
X148692345Y-105244500D01*
X148692347Y-105244500D01*
X148893556Y-105206888D01*
X149084427Y-105132944D01*
X149258462Y-105025186D01*
X149409732Y-104887285D01*
X149533088Y-104723935D01*
X149624328Y-104540701D01*
X149680345Y-104343821D01*
X149699232Y-104140000D01*
X149680345Y-103936179D01*
X149624328Y-103739299D01*
X149594820Y-103680039D01*
X149533089Y-103556066D01*
X149480527Y-103486463D01*
X149409732Y-103392715D01*
X149258462Y-103254814D01*
X149198196Y-103217499D01*
X149084428Y-103147056D01*
X148960073Y-103098881D01*
X148893556Y-103073112D01*
X148692347Y-103035500D01*
X148487653Y-103035500D01*
X148321580Y-103066544D01*
X148286444Y-103073112D01*
X148095571Y-103147056D01*
X147921539Y-103254813D01*
X147864073Y-103307200D01*
X147772537Y-103390647D01*
X147770267Y-103392716D01*
X147646910Y-103556066D01*
X147555672Y-103739297D01*
X147499654Y-103936180D01*
X147480767Y-104140000D01*
X147159232Y-104140000D01*
X147140345Y-103936179D01*
X147084328Y-103739299D01*
X147054820Y-103680039D01*
X146993089Y-103556066D01*
X146940527Y-103486463D01*
X146869732Y-103392715D01*
X146718462Y-103254814D01*
X146658196Y-103217499D01*
X146544428Y-103147056D01*
X146420073Y-103098881D01*
X146353556Y-103073112D01*
X146152347Y-103035500D01*
X145947653Y-103035500D01*
X145781580Y-103066544D01*
X145746444Y-103073112D01*
X145555571Y-103147056D01*
X145381539Y-103254813D01*
X145324073Y-103307200D01*
X145232537Y-103390647D01*
X145230267Y-103392716D01*
X145106910Y-103556066D01*
X145015672Y-103739297D01*
X144959654Y-103936180D01*
X144940767Y-104140000D01*
X134021044Y-104140000D01*
X133731170Y-103850126D01*
X133714267Y-103829151D01*
X133712290Y-103826074D01*
X133676936Y-103795439D01*
X133670368Y-103789324D01*
X133661526Y-103780482D01*
X133651518Y-103772989D01*
X133644521Y-103767351D01*
X133609172Y-103736721D01*
X133609170Y-103736720D01*
X133605838Y-103735198D01*
X133582673Y-103721453D01*
X133579740Y-103719257D01*
X133535917Y-103702912D01*
X133527609Y-103699471D01*
X133485056Y-103680038D01*
X133481419Y-103679515D01*
X133455338Y-103672857D01*
X133451902Y-103671575D01*
X133405240Y-103668238D01*
X133396306Y-103667278D01*
X133387790Y-103666054D01*
X133383935Y-103665500D01*
X133383934Y-103665500D01*
X133371436Y-103665500D01*
X133362449Y-103665179D01*
X133315801Y-103661843D01*
X133312225Y-103662621D01*
X133285443Y-103665500D01*
X133155596Y-103665500D01*
X133087475Y-103645498D01*
X133042805Y-103595663D01*
X133023088Y-103556065D01*
X132899732Y-103392715D01*
X132748462Y-103254814D01*
X132688196Y-103217499D01*
X132574428Y-103147056D01*
X132450073Y-103098881D01*
X132383556Y-103073112D01*
X132182347Y-103035500D01*
X131977653Y-103035500D01*
X131811580Y-103066544D01*
X131776444Y-103073112D01*
X131585571Y-103147056D01*
X131411539Y-103254813D01*
X131354073Y-103307200D01*
X131262537Y-103390647D01*
X131260267Y-103392716D01*
X131136910Y-103556066D01*
X131045672Y-103739297D01*
X130989654Y-103936180D01*
X130970767Y-104140000D01*
X129540500Y-104140000D01*
X129540500Y-102882448D01*
X129540500Y-102870000D01*
X136500693Y-102870000D01*
X136519850Y-103027780D01*
X136576212Y-103176394D01*
X136644134Y-103274795D01*
X136666502Y-103307201D01*
X136785471Y-103412599D01*
X136926207Y-103486463D01*
X137080529Y-103524500D01*
X137080531Y-103524500D01*
X137239469Y-103524500D01*
X137239471Y-103524500D01*
X137393793Y-103486463D01*
X137534529Y-103412599D01*
X137556973Y-103392715D01*
X137575629Y-103376188D01*
X137639882Y-103345987D01*
X137659182Y-103344500D01*
X140905443Y-103344500D01*
X140932224Y-103347378D01*
X140935801Y-103348157D01*
X140980659Y-103344948D01*
X140982449Y-103344821D01*
X140991436Y-103344500D01*
X141003935Y-103344500D01*
X141016309Y-103342720D01*
X141025231Y-103341760D01*
X141071899Y-103338424D01*
X141075326Y-103337146D01*
X141101434Y-103330482D01*
X141102355Y-103330349D01*
X141105057Y-103329961D01*
X141147625Y-103310520D01*
X141155912Y-103307088D01*
X141199742Y-103290741D01*
X141202674Y-103288545D01*
X141225842Y-103274799D01*
X141229172Y-103273279D01*
X141264552Y-103242620D01*
X141271497Y-103237024D01*
X141281526Y-103229518D01*
X141290361Y-103220681D01*
X141296948Y-103214550D01*
X141321190Y-103193544D01*
X141332290Y-103183926D01*
X141334268Y-103180847D01*
X141351166Y-103159876D01*
X142399640Y-102111404D01*
X142461953Y-102077379D01*
X142488736Y-102074500D01*
X144974404Y-102074500D01*
X145042525Y-102094502D01*
X145087195Y-102144337D01*
X145106913Y-102183937D01*
X145152938Y-102244883D01*
X145230268Y-102347285D01*
X145381538Y-102485186D01*
X145503019Y-102560404D01*
X145554844Y-102592493D01*
X145555573Y-102592944D01*
X145746444Y-102666888D01*
X145947653Y-102704500D01*
X145947655Y-102704500D01*
X146152345Y-102704500D01*
X146152347Y-102704500D01*
X146353556Y-102666888D01*
X146544427Y-102592944D01*
X146718462Y-102485186D01*
X146869732Y-102347285D01*
X146993088Y-102183935D01*
X147084328Y-102000701D01*
X147140345Y-101803821D01*
X147159232Y-101600000D01*
X147140345Y-101396179D01*
X147084328Y-101199299D01*
X147054820Y-101140039D01*
X146993089Y-101016066D01*
X146962886Y-100976071D01*
X146869732Y-100852715D01*
X146718462Y-100714814D01*
X146654120Y-100674975D01*
X146544428Y-100607056D01*
X146426550Y-100561390D01*
X146353556Y-100533112D01*
X146152347Y-100495500D01*
X145947653Y-100495500D01*
X145792686Y-100524468D01*
X145746444Y-100533112D01*
X145555571Y-100607056D01*
X145381539Y-100714813D01*
X145381537Y-100714814D01*
X145381538Y-100714814D01*
X145284665Y-100803126D01*
X145230267Y-100852716D01*
X145106913Y-101016062D01*
X145087195Y-101055663D01*
X145038925Y-101107727D01*
X144974404Y-101125500D01*
X142304556Y-101125500D01*
X142277776Y-101122621D01*
X142274199Y-101121843D01*
X142274198Y-101121843D01*
X142252185Y-101123417D01*
X142227554Y-101125179D01*
X142218566Y-101125500D01*
X142206062Y-101125500D01*
X142193691Y-101127278D01*
X142184759Y-101128239D01*
X142138097Y-101131577D01*
X142134664Y-101132858D01*
X142108578Y-101139516D01*
X142104943Y-101140038D01*
X142062382Y-101159475D01*
X142054084Y-101162911D01*
X142028670Y-101172391D01*
X142010252Y-101179261D01*
X142007314Y-101181461D01*
X141984169Y-101195194D01*
X141980829Y-101196719D01*
X141956531Y-101217773D01*
X141945488Y-101227342D01*
X141938495Y-101232979D01*
X141928470Y-101240483D01*
X141919622Y-101249331D01*
X141913047Y-101255452D01*
X141877708Y-101286074D01*
X141875729Y-101289155D01*
X141858829Y-101310125D01*
X140810359Y-102358596D01*
X140748049Y-102392620D01*
X140721266Y-102395500D01*
X137659182Y-102395500D01*
X137591061Y-102375498D01*
X137575629Y-102363812D01*
X137534529Y-102327401D01*
X137393795Y-102253538D01*
X137393794Y-102253537D01*
X137393793Y-102253537D01*
X137239471Y-102215500D01*
X137080529Y-102215500D01*
X136926207Y-102253537D01*
X136926206Y-102253537D01*
X136926204Y-102253538D01*
X136785472Y-102327400D01*
X136666501Y-102432799D01*
X136576212Y-102563605D01*
X136519850Y-102712219D01*
X136500693Y-102870000D01*
X129540500Y-102870000D01*
X129540500Y-101600000D01*
X130970767Y-101600000D01*
X130989654Y-101803819D01*
X131045672Y-102000702D01*
X131136910Y-102183933D01*
X131182938Y-102244883D01*
X131260268Y-102347285D01*
X131411538Y-102485186D01*
X131533019Y-102560404D01*
X131584844Y-102592493D01*
X131585573Y-102592944D01*
X131776444Y-102666888D01*
X131977653Y-102704500D01*
X131977655Y-102704500D01*
X132182345Y-102704500D01*
X132182347Y-102704500D01*
X132383556Y-102666888D01*
X132574427Y-102592944D01*
X132748462Y-102485186D01*
X132899732Y-102347285D01*
X133023088Y-102183935D01*
X133114328Y-102000701D01*
X133170345Y-101803821D01*
X133189232Y-101600000D01*
X133189232Y-101599999D01*
X133187113Y-101577126D01*
X133200744Y-101507450D01*
X133249880Y-101456205D01*
X133312575Y-101439500D01*
X134301443Y-101439500D01*
X134328224Y-101442378D01*
X134331801Y-101443157D01*
X134376659Y-101439948D01*
X134378449Y-101439821D01*
X134387436Y-101439500D01*
X134399935Y-101439500D01*
X134412309Y-101437720D01*
X134421231Y-101436760D01*
X134467899Y-101433424D01*
X134471326Y-101432146D01*
X134497434Y-101425482D01*
X134498355Y-101425349D01*
X134501057Y-101424961D01*
X134543625Y-101405520D01*
X134551912Y-101402088D01*
X134595742Y-101385741D01*
X134598674Y-101383545D01*
X134621842Y-101369799D01*
X134625172Y-101368279D01*
X134660552Y-101337620D01*
X134667497Y-101332024D01*
X134677526Y-101324518D01*
X134686361Y-101315681D01*
X134692948Y-101309550D01*
X134716486Y-101289154D01*
X134728290Y-101278926D01*
X134730268Y-101275847D01*
X134747166Y-101254876D01*
X136049640Y-99952404D01*
X136111953Y-99918379D01*
X136138736Y-99915500D01*
X147071265Y-99915500D01*
X147139386Y-99935502D01*
X147160360Y-99952405D01*
X147828872Y-100620917D01*
X147862898Y-100683229D01*
X147857833Y-100754044D01*
X147824663Y-100803126D01*
X147770269Y-100852712D01*
X147646910Y-101016066D01*
X147555672Y-101199297D01*
X147499654Y-101396180D01*
X147480767Y-101600000D01*
X147499654Y-101803819D01*
X147555672Y-102000702D01*
X147646910Y-102183933D01*
X147692938Y-102244883D01*
X147770268Y-102347285D01*
X147921538Y-102485186D01*
X148043019Y-102560404D01*
X148094844Y-102592493D01*
X148095573Y-102592944D01*
X148286444Y-102666888D01*
X148487653Y-102704500D01*
X148487655Y-102704500D01*
X148692345Y-102704500D01*
X148692347Y-102704500D01*
X148893556Y-102666888D01*
X149084427Y-102592944D01*
X149258462Y-102485186D01*
X149409732Y-102347285D01*
X149533088Y-102183935D01*
X149624328Y-102000701D01*
X149680345Y-101803821D01*
X149699232Y-101600000D01*
X149680345Y-101396179D01*
X149624328Y-101199299D01*
X149594820Y-101140039D01*
X149533089Y-101016066D01*
X149502886Y-100976072D01*
X149409732Y-100852715D01*
X149258462Y-100714814D01*
X149194120Y-100674975D01*
X149088618Y-100609650D01*
X149041231Y-100556783D01*
X149040337Y-100554869D01*
X149035491Y-100544258D01*
X149030522Y-100533378D01*
X149027084Y-100525077D01*
X149026857Y-100524468D01*
X149010741Y-100481258D01*
X149008547Y-100478327D01*
X148994800Y-100455157D01*
X148993280Y-100451829D01*
X148962655Y-100416487D01*
X148957006Y-100409477D01*
X148949518Y-100399473D01*
X148940667Y-100390622D01*
X148934549Y-100384051D01*
X148903924Y-100348707D01*
X148900848Y-100346731D01*
X148879871Y-100329827D01*
X147701172Y-99151128D01*
X147684269Y-99130154D01*
X147682290Y-99127074D01*
X147646936Y-99096439D01*
X147640368Y-99090324D01*
X147631526Y-99081482D01*
X147621518Y-99073989D01*
X147614521Y-99068351D01*
X147614504Y-99068336D01*
X147579172Y-99037721D01*
X147579168Y-99037719D01*
X147575838Y-99036198D01*
X147552673Y-99022453D01*
X147549740Y-99020257D01*
X147505917Y-99003912D01*
X147497609Y-99000471D01*
X147455056Y-98981038D01*
X147451419Y-98980515D01*
X147425338Y-98973857D01*
X147421902Y-98972575D01*
X147375240Y-98969238D01*
X147366306Y-98968278D01*
X147357790Y-98967054D01*
X147353935Y-98966500D01*
X147353934Y-98966500D01*
X147341436Y-98966500D01*
X147332449Y-98966179D01*
X147285801Y-98962843D01*
X147282225Y-98963621D01*
X147255443Y-98966500D01*
X135954556Y-98966500D01*
X135927776Y-98963621D01*
X135924199Y-98962843D01*
X135924198Y-98962843D01*
X135902185Y-98964417D01*
X135877554Y-98966179D01*
X135868566Y-98966500D01*
X135856062Y-98966500D01*
X135843691Y-98968278D01*
X135834759Y-98969239D01*
X135788097Y-98972577D01*
X135784664Y-98973858D01*
X135758578Y-98980516D01*
X135754943Y-98981038D01*
X135712382Y-99000475D01*
X135704084Y-99003911D01*
X135678670Y-99013391D01*
X135660252Y-99020261D01*
X135657314Y-99022461D01*
X135634169Y-99036194D01*
X135630829Y-99037719D01*
X135606531Y-99058773D01*
X135595488Y-99068342D01*
X135588495Y-99073979D01*
X135578470Y-99081483D01*
X135569622Y-99090331D01*
X135563047Y-99096452D01*
X135527708Y-99127074D01*
X135525729Y-99130155D01*
X135508829Y-99151125D01*
X134206359Y-100453596D01*
X134144049Y-100487620D01*
X134117266Y-100490500D01*
X132779557Y-100490500D01*
X132752775Y-100487621D01*
X132749199Y-100486843D01*
X132749198Y-100486843D01*
X132702551Y-100490179D01*
X132693564Y-100490500D01*
X132681065Y-100490500D01*
X132668693Y-100492278D01*
X132659761Y-100493238D01*
X132613099Y-100496575D01*
X132609656Y-100497860D01*
X132583575Y-100504516D01*
X132579943Y-100505038D01*
X132537397Y-100524468D01*
X132529089Y-100527909D01*
X132492983Y-100541376D01*
X132422167Y-100546442D01*
X132403435Y-100540813D01*
X132384805Y-100533596D01*
X132383556Y-100533112D01*
X132182347Y-100495500D01*
X131977653Y-100495500D01*
X131822686Y-100524468D01*
X131776444Y-100533112D01*
X131585571Y-100607056D01*
X131411539Y-100714813D01*
X131411537Y-100714814D01*
X131411538Y-100714814D01*
X131314665Y-100803126D01*
X131260267Y-100852716D01*
X131136910Y-101016066D01*
X131045672Y-101199297D01*
X130989654Y-101396180D01*
X130970767Y-101600000D01*
X129540500Y-101600000D01*
X129540500Y-99059999D01*
X130970767Y-99059999D01*
X130989654Y-99263819D01*
X131045672Y-99460702D01*
X131136910Y-99643933D01*
X131136912Y-99643935D01*
X131260268Y-99807285D01*
X131411538Y-99945186D01*
X131526257Y-100016217D01*
X131573608Y-100045536D01*
X131585573Y-100052944D01*
X131776444Y-100126888D01*
X131977653Y-100164500D01*
X131977655Y-100164500D01*
X132182345Y-100164500D01*
X132182347Y-100164500D01*
X132383556Y-100126888D01*
X132574427Y-100052944D01*
X132748462Y-99945186D01*
X132899732Y-99807285D01*
X133023088Y-99643935D01*
X133114328Y-99460701D01*
X133170345Y-99263821D01*
X133187241Y-99081482D01*
X133189232Y-99060001D01*
X133187500Y-99041309D01*
X133201130Y-98971633D01*
X133250266Y-98920387D01*
X133303976Y-98904002D01*
X133315799Y-98903156D01*
X133315801Y-98903157D01*
X133354080Y-98900419D01*
X133362450Y-98899821D01*
X133371436Y-98899500D01*
X133383935Y-98899500D01*
X133396309Y-98897720D01*
X133405231Y-98896760D01*
X133451899Y-98893424D01*
X133455326Y-98892146D01*
X133481434Y-98885482D01*
X133482355Y-98885349D01*
X133485057Y-98884961D01*
X133527625Y-98865520D01*
X133535912Y-98862088D01*
X133579742Y-98845741D01*
X133582674Y-98843545D01*
X133605842Y-98829799D01*
X133609172Y-98828279D01*
X133644552Y-98797620D01*
X133651497Y-98792024D01*
X133661526Y-98784518D01*
X133670361Y-98775681D01*
X133676948Y-98769550D01*
X133695754Y-98753254D01*
X133712290Y-98738926D01*
X133714268Y-98735847D01*
X133731166Y-98714876D01*
X134144639Y-98301404D01*
X134206952Y-98267379D01*
X134233735Y-98264500D01*
X139631777Y-98264500D01*
X139768223Y-98264500D01*
X149874292Y-98264500D01*
X149942413Y-98284502D01*
X149963387Y-98301405D01*
X151888595Y-100226613D01*
X151922621Y-100288925D01*
X151925500Y-100315708D01*
X151925500Y-100567847D01*
X151905498Y-100635968D01*
X151851842Y-100682461D01*
X151781568Y-100692565D01*
X151733170Y-100674975D01*
X151624203Y-100607506D01*
X151433417Y-100533595D01*
X151232300Y-100496000D01*
X151027700Y-100496000D01*
X150826579Y-100533596D01*
X150635797Y-100607505D01*
X150549899Y-100660689D01*
X151002413Y-101113202D01*
X150987685Y-101115320D01*
X150856900Y-101175048D01*
X150748239Y-101269202D01*
X150670507Y-101390156D01*
X150645639Y-101474848D01*
X150187265Y-101016474D01*
X150096140Y-101199480D01*
X150040148Y-101396268D01*
X150021270Y-101599999D01*
X150040148Y-101803731D01*
X150096139Y-102000517D01*
X150187264Y-102183523D01*
X150645638Y-101725149D01*
X150670507Y-101809844D01*
X150748239Y-101930798D01*
X150856900Y-102024952D01*
X150987685Y-102084680D01*
X151002410Y-102086797D01*
X150549899Y-102539308D01*
X150635795Y-102592493D01*
X150826582Y-102666404D01*
X151027700Y-102704000D01*
X151232300Y-102704000D01*
X151433417Y-102666404D01*
X151624204Y-102592493D01*
X151733169Y-102525025D01*
X151801616Y-102506170D01*
X151869391Y-102527313D01*
X151914977Y-102581742D01*
X151925500Y-102632152D01*
X151925500Y-102805443D01*
X151922621Y-102832223D01*
X151921843Y-102835799D01*
X151925179Y-102882448D01*
X151925500Y-102891436D01*
X151925500Y-102903934D01*
X151927278Y-102916306D01*
X151928238Y-102925240D01*
X151931575Y-102971902D01*
X151932857Y-102975338D01*
X151939515Y-103001419D01*
X151940038Y-103005056D01*
X151959471Y-103047609D01*
X151962909Y-103055908D01*
X151968580Y-103071111D01*
X151980078Y-103101938D01*
X151985143Y-103172754D01*
X151951118Y-103235066D01*
X151888805Y-103269091D01*
X151817990Y-103264027D01*
X151795691Y-103253098D01*
X151624428Y-103147056D01*
X151500073Y-103098881D01*
X151433556Y-103073112D01*
X151232347Y-103035500D01*
X151027653Y-103035500D01*
X150861580Y-103066544D01*
X150826444Y-103073112D01*
X150635571Y-103147056D01*
X150461539Y-103254813D01*
X150404073Y-103307200D01*
X150312537Y-103390647D01*
X150310267Y-103392716D01*
X150186910Y-103556066D01*
X150095672Y-103739297D01*
X150039654Y-103936180D01*
X150020767Y-104140000D01*
X150039654Y-104343819D01*
X150095672Y-104540702D01*
X150186910Y-104723933D01*
X150228271Y-104778703D01*
X150310268Y-104887285D01*
X150461538Y-105025186D01*
X150635573Y-105132944D01*
X150826444Y-105206888D01*
X151027653Y-105244500D01*
X151027655Y-105244500D01*
X151232345Y-105244500D01*
X151232347Y-105244500D01*
X151433556Y-105206888D01*
X151624427Y-105132944D01*
X151798462Y-105025186D01*
X151949732Y-104887285D01*
X152073088Y-104723935D01*
X152164328Y-104540701D01*
X152220345Y-104343821D01*
X152239232Y-104140000D01*
X152220345Y-103936179D01*
X152164328Y-103739299D01*
X152134820Y-103680039D01*
X152078257Y-103566445D01*
X152065797Y-103496550D01*
X152093104Y-103431015D01*
X152151507Y-103390647D01*
X152222464Y-103388262D01*
X152280142Y-103421187D01*
X152575025Y-103716070D01*
X152609051Y-103778382D01*
X152607120Y-103839645D01*
X152579654Y-103936179D01*
X152560767Y-104140000D01*
X152579654Y-104343819D01*
X152635672Y-104540702D01*
X152726910Y-104723933D01*
X152768271Y-104778703D01*
X152850268Y-104887285D01*
X153001538Y-105025186D01*
X153175573Y-105132944D01*
X153366444Y-105206888D01*
X153567653Y-105244500D01*
X153567655Y-105244500D01*
X153772345Y-105244500D01*
X153772347Y-105244500D01*
X153973556Y-105206888D01*
X154164427Y-105132944D01*
X154338462Y-105025186D01*
X154489732Y-104887285D01*
X154613088Y-104723935D01*
X154704328Y-104540701D01*
X154760345Y-104343821D01*
X154779232Y-104140000D01*
X154760345Y-103936179D01*
X154704328Y-103739299D01*
X154674820Y-103680039D01*
X154613089Y-103556066D01*
X154560527Y-103486463D01*
X154489732Y-103392715D01*
X154338462Y-103254814D01*
X154278196Y-103217499D01*
X154164428Y-103147056D01*
X154040073Y-103098881D01*
X153973556Y-103073112D01*
X153772347Y-103035500D01*
X153567653Y-103035500D01*
X153366444Y-103073112D01*
X153366441Y-103073113D01*
X153354967Y-103075258D01*
X153354191Y-103071111D01*
X153305622Y-103075156D01*
X153242917Y-103041860D01*
X153241870Y-103040826D01*
X152939996Y-102738951D01*
X152905971Y-102676639D01*
X152911036Y-102605823D01*
X152953583Y-102548988D01*
X153020103Y-102524177D01*
X153089478Y-102539269D01*
X153095422Y-102542729D01*
X153175792Y-102592492D01*
X153366582Y-102666404D01*
X153567700Y-102704000D01*
X153772300Y-102704000D01*
X153973417Y-102666404D01*
X154164204Y-102592493D01*
X154250099Y-102539308D01*
X153797588Y-102086797D01*
X153812315Y-102084680D01*
X153943100Y-102024952D01*
X154051761Y-101930798D01*
X154129493Y-101809844D01*
X154154361Y-101725150D01*
X154612733Y-102183523D01*
X154703859Y-102000520D01*
X154759851Y-101803731D01*
X154778729Y-101600000D01*
X155101270Y-101600000D01*
X155120148Y-101803731D01*
X155176139Y-102000517D01*
X155267264Y-102183523D01*
X155725638Y-101725149D01*
X155750507Y-101809844D01*
X155828239Y-101930798D01*
X155936900Y-102024952D01*
X156067685Y-102084680D01*
X156082412Y-102086797D01*
X155629900Y-102539308D01*
X155715795Y-102592493D01*
X155906582Y-102666404D01*
X156107700Y-102704000D01*
X156312300Y-102704000D01*
X156513417Y-102666404D01*
X156704204Y-102592493D01*
X156790099Y-102539308D01*
X156337588Y-102086797D01*
X156352315Y-102084680D01*
X156483100Y-102024952D01*
X156591761Y-101930798D01*
X156669493Y-101809844D01*
X156694360Y-101725151D01*
X157152733Y-102183524D01*
X157243859Y-102000520D01*
X157299851Y-101803731D01*
X157318729Y-101599999D01*
X157641270Y-101599999D01*
X157660148Y-101803731D01*
X157716139Y-102000517D01*
X157807264Y-102183523D01*
X158265638Y-101725149D01*
X158290507Y-101809844D01*
X158368239Y-101930798D01*
X158476900Y-102024952D01*
X158607685Y-102084680D01*
X158622412Y-102086797D01*
X158169900Y-102539308D01*
X158255795Y-102592493D01*
X158446582Y-102666404D01*
X158647700Y-102704000D01*
X158852300Y-102704000D01*
X159053417Y-102666404D01*
X159244204Y-102592493D01*
X159330099Y-102539308D01*
X158877588Y-102086797D01*
X158892315Y-102084680D01*
X159023100Y-102024952D01*
X159131761Y-101930798D01*
X159209493Y-101809844D01*
X159234360Y-101725151D01*
X159692733Y-102183524D01*
X159783859Y-102000520D01*
X159839851Y-101803731D01*
X159858729Y-101600000D01*
X159839851Y-101396268D01*
X159783860Y-101199481D01*
X159692733Y-101016475D01*
X159234360Y-101474848D01*
X159209493Y-101390156D01*
X159131761Y-101269202D01*
X159023100Y-101175048D01*
X158892315Y-101115320D01*
X158877587Y-101113202D01*
X159330098Y-100660690D01*
X159244199Y-100607504D01*
X159053420Y-100533596D01*
X158852300Y-100496000D01*
X158647700Y-100496000D01*
X158446579Y-100533596D01*
X158255797Y-100607505D01*
X158169899Y-100660690D01*
X158622411Y-101113202D01*
X158607685Y-101115320D01*
X158476900Y-101175048D01*
X158368239Y-101269202D01*
X158290507Y-101390156D01*
X158265639Y-101474848D01*
X157807265Y-101016474D01*
X157716140Y-101199480D01*
X157660148Y-101396268D01*
X157641270Y-101599999D01*
X157318729Y-101599999D01*
X157299851Y-101396268D01*
X157243860Y-101199481D01*
X157152733Y-101016475D01*
X156694360Y-101474848D01*
X156669493Y-101390156D01*
X156591761Y-101269202D01*
X156483100Y-101175048D01*
X156352315Y-101115320D01*
X156337587Y-101113202D01*
X156790098Y-100660690D01*
X156704199Y-100607504D01*
X156513420Y-100533596D01*
X156312300Y-100496000D01*
X156107700Y-100496000D01*
X155906579Y-100533596D01*
X155715797Y-100607505D01*
X155629899Y-100660690D01*
X156082411Y-101113202D01*
X156067685Y-101115320D01*
X155936900Y-101175048D01*
X155828239Y-101269202D01*
X155750507Y-101390156D01*
X155725639Y-101474848D01*
X155267265Y-101016474D01*
X155176140Y-101199480D01*
X155120148Y-101396268D01*
X155101270Y-101600000D01*
X154778729Y-101600000D01*
X154759851Y-101396268D01*
X154703860Y-101199481D01*
X154612734Y-101016475D01*
X154154360Y-101474848D01*
X154129493Y-101390156D01*
X154051761Y-101269202D01*
X153943100Y-101175048D01*
X153812315Y-101115320D01*
X153797586Y-101113202D01*
X154250099Y-100660690D01*
X154164199Y-100607504D01*
X153973420Y-100533596D01*
X153772300Y-100496000D01*
X153567700Y-100496000D01*
X153366582Y-100533595D01*
X153175796Y-100607506D01*
X153066830Y-100674975D01*
X152998383Y-100693829D01*
X152930608Y-100672685D01*
X152885023Y-100618256D01*
X152874500Y-100567847D01*
X152874500Y-100131531D01*
X152877379Y-100104749D01*
X152878157Y-100101173D01*
X152874821Y-100054523D01*
X152874500Y-100045536D01*
X152874500Y-100033039D01*
X152872720Y-100020661D01*
X152871761Y-100011743D01*
X152868424Y-99965075D01*
X152867143Y-99961640D01*
X152860482Y-99935545D01*
X152859961Y-99931917D01*
X152840530Y-99889370D01*
X152837087Y-99881057D01*
X152820742Y-99837233D01*
X152818545Y-99834298D01*
X152804798Y-99811129D01*
X152803279Y-99807802D01*
X152803277Y-99807800D01*
X152803277Y-99807799D01*
X152772647Y-99772451D01*
X152767000Y-99765443D01*
X152759520Y-99755450D01*
X152759518Y-99755448D01*
X152750674Y-99746604D01*
X152744556Y-99740033D01*
X152713925Y-99704683D01*
X152710844Y-99702703D01*
X152689870Y-99685800D01*
X150504198Y-97500128D01*
X150487295Y-97479154D01*
X150485316Y-97476074D01*
X150449962Y-97445439D01*
X150443394Y-97439324D01*
X150434552Y-97430482D01*
X150424542Y-97422988D01*
X150417547Y-97417351D01*
X150382198Y-97386721D01*
X150382196Y-97386720D01*
X150378864Y-97385198D01*
X150355699Y-97371453D01*
X150352766Y-97369257D01*
X150308943Y-97352912D01*
X150300635Y-97349471D01*
X150258082Y-97330038D01*
X150254445Y-97329515D01*
X150228364Y-97322857D01*
X150224928Y-97321575D01*
X150178266Y-97318238D01*
X150169332Y-97317278D01*
X150160816Y-97316054D01*
X150156961Y-97315500D01*
X150156960Y-97315500D01*
X150144462Y-97315500D01*
X150135475Y-97315179D01*
X150088827Y-97311843D01*
X150085251Y-97312621D01*
X150058469Y-97315500D01*
X140300500Y-97315500D01*
X140232379Y-97295498D01*
X140185886Y-97241842D01*
X140174500Y-97189500D01*
X140174500Y-92774557D01*
X140177379Y-92747775D01*
X140178157Y-92744199D01*
X140174821Y-92697549D01*
X140174500Y-92688562D01*
X140174500Y-92676066D01*
X140174500Y-92676065D01*
X140172719Y-92663684D01*
X140171761Y-92654772D01*
X140168424Y-92608101D01*
X140167144Y-92604669D01*
X140160483Y-92578573D01*
X140159961Y-92574943D01*
X140140525Y-92532386D01*
X140137089Y-92524089D01*
X140120741Y-92480259D01*
X140120741Y-92480258D01*
X140118542Y-92477321D01*
X140104801Y-92454162D01*
X140103279Y-92450828D01*
X140072647Y-92415477D01*
X140067007Y-92408478D01*
X140059518Y-92398474D01*
X140050674Y-92389630D01*
X140044556Y-92383059D01*
X140013925Y-92347709D01*
X140010844Y-92345729D01*
X139989870Y-92328826D01*
X136271172Y-88610128D01*
X136254269Y-88589154D01*
X136252290Y-88586074D01*
X136216936Y-88555439D01*
X136210368Y-88549324D01*
X136201526Y-88540482D01*
X136191518Y-88532989D01*
X136184521Y-88527351D01*
X136149172Y-88496721D01*
X136149170Y-88496720D01*
X136145838Y-88495198D01*
X136122673Y-88481453D01*
X136119740Y-88479257D01*
X136075917Y-88462912D01*
X136067609Y-88459471D01*
X136025056Y-88440038D01*
X136021419Y-88439515D01*
X135995338Y-88432857D01*
X135991902Y-88431575D01*
X135945240Y-88428238D01*
X135936306Y-88427278D01*
X135927790Y-88426054D01*
X135923935Y-88425500D01*
X135923934Y-88425500D01*
X135911436Y-88425500D01*
X135902449Y-88425179D01*
X135855801Y-88421843D01*
X135852225Y-88422621D01*
X135825443Y-88425500D01*
X133155596Y-88425500D01*
X133087475Y-88405498D01*
X133042805Y-88355663D01*
X133023088Y-88316066D01*
X133023088Y-88316065D01*
X132899732Y-88152715D01*
X132748462Y-88014814D01*
X132700087Y-87984861D01*
X132574428Y-87907056D01*
X132478991Y-87870084D01*
X132383556Y-87833112D01*
X132182347Y-87795500D01*
X131977653Y-87795500D01*
X131776443Y-87833111D01*
X131776444Y-87833112D01*
X131585571Y-87907056D01*
X131411539Y-88014813D01*
X131260267Y-88152716D01*
X131136910Y-88316066D01*
X131045672Y-88499297D01*
X130989654Y-88696180D01*
X130970767Y-88900000D01*
X130989654Y-89103819D01*
X131045672Y-89300702D01*
X131136910Y-89483933D01*
X131197314Y-89563920D01*
X131260268Y-89647285D01*
X131411538Y-89785186D01*
X131585573Y-89892944D01*
X131776444Y-89966888D01*
X131977653Y-90004500D01*
X131977655Y-90004500D01*
X132182345Y-90004500D01*
X132182347Y-90004500D01*
X132383556Y-89966888D01*
X132574427Y-89892944D01*
X132748462Y-89785186D01*
X132899732Y-89647285D01*
X133023088Y-89483935D01*
X133042805Y-89444336D01*
X133091075Y-89392273D01*
X133155596Y-89374500D01*
X135641266Y-89374500D01*
X135709387Y-89394502D01*
X135730361Y-89411405D01*
X139188595Y-92869639D01*
X139222621Y-92931951D01*
X139225500Y-92958734D01*
X139225500Y-97189500D01*
X139205498Y-97257621D01*
X139151842Y-97304114D01*
X139099500Y-97315500D01*
X134049557Y-97315500D01*
X134022775Y-97312621D01*
X134019199Y-97311843D01*
X134019198Y-97311843D01*
X133972551Y-97315179D01*
X133963564Y-97315500D01*
X133951065Y-97315500D01*
X133938693Y-97317278D01*
X133929761Y-97318238D01*
X133883099Y-97321575D01*
X133879656Y-97322860D01*
X133853575Y-97329516D01*
X133849943Y-97330038D01*
X133807397Y-97349468D01*
X133799089Y-97352909D01*
X133755255Y-97369258D01*
X133752307Y-97371465D01*
X133729166Y-97385195D01*
X133725831Y-97386718D01*
X133690474Y-97417354D01*
X133683482Y-97422988D01*
X133673475Y-97430480D01*
X133664628Y-97439326D01*
X133658056Y-97445444D01*
X133622711Y-97476072D01*
X133622709Y-97476074D01*
X133622710Y-97476074D01*
X133620731Y-97479154D01*
X133620730Y-97479155D01*
X133603832Y-97500122D01*
X133190361Y-97913595D01*
X133128049Y-97947620D01*
X133101265Y-97950500D01*
X132779557Y-97950500D01*
X132752775Y-97947621D01*
X132749199Y-97946843D01*
X132749198Y-97946843D01*
X132702551Y-97950179D01*
X132693564Y-97950500D01*
X132681065Y-97950500D01*
X132668693Y-97952278D01*
X132659761Y-97953238D01*
X132613099Y-97956575D01*
X132609656Y-97957860D01*
X132583575Y-97964516D01*
X132579943Y-97965038D01*
X132537397Y-97984468D01*
X132529089Y-97987909D01*
X132492983Y-98001376D01*
X132422167Y-98006442D01*
X132403435Y-98000813D01*
X132399649Y-97999346D01*
X132383556Y-97993112D01*
X132182347Y-97955500D01*
X131977653Y-97955500D01*
X131822686Y-97984468D01*
X131776444Y-97993112D01*
X131585571Y-98067056D01*
X131411539Y-98174813D01*
X131411537Y-98174814D01*
X131411538Y-98174814D01*
X131272675Y-98301405D01*
X131260267Y-98312716D01*
X131136910Y-98476066D01*
X131045672Y-98659297D01*
X130989654Y-98856180D01*
X130970767Y-99059999D01*
X129540500Y-99059999D01*
X129540500Y-96519999D01*
X130970767Y-96519999D01*
X130989654Y-96723819D01*
X131045672Y-96920702D01*
X131136910Y-97103933D01*
X131136912Y-97103935D01*
X131260268Y-97267285D01*
X131411538Y-97405186D01*
X131585573Y-97512944D01*
X131776444Y-97586888D01*
X131977653Y-97624500D01*
X131977655Y-97624500D01*
X132182345Y-97624500D01*
X132182347Y-97624500D01*
X132383556Y-97586888D01*
X132574427Y-97512944D01*
X132748462Y-97405186D01*
X132899732Y-97267285D01*
X133023088Y-97103935D01*
X133114328Y-96920701D01*
X133170345Y-96723821D01*
X133189232Y-96520000D01*
X133170345Y-96316179D01*
X133114328Y-96119299D01*
X133113585Y-96117807D01*
X133023089Y-95936066D01*
X132992886Y-95896072D01*
X132899732Y-95772715D01*
X132748462Y-95634814D01*
X132700087Y-95604861D01*
X132574428Y-95527056D01*
X132478991Y-95490083D01*
X132383556Y-95453112D01*
X132182347Y-95415500D01*
X131977653Y-95415500D01*
X131776444Y-95453111D01*
X131776444Y-95453112D01*
X131585571Y-95527056D01*
X131411539Y-95634813D01*
X131260267Y-95772716D01*
X131136910Y-95936066D01*
X131045672Y-96119297D01*
X130989654Y-96316180D01*
X130970767Y-96519999D01*
X129540500Y-96519999D01*
X129540500Y-93979999D01*
X130970767Y-93979999D01*
X130989654Y-94183819D01*
X131045672Y-94380702D01*
X131136910Y-94563933D01*
X131136912Y-94563935D01*
X131260268Y-94727285D01*
X131411538Y-94865186D01*
X131585573Y-94972944D01*
X131776444Y-95046888D01*
X131977653Y-95084500D01*
X131977655Y-95084500D01*
X132182345Y-95084500D01*
X132182347Y-95084500D01*
X132383556Y-95046888D01*
X132574427Y-94972944D01*
X132748462Y-94865186D01*
X132899732Y-94727285D01*
X133023088Y-94563935D01*
X133114328Y-94380701D01*
X133170345Y-94183821D01*
X133189232Y-93980000D01*
X133170345Y-93776179D01*
X133114328Y-93579299D01*
X133113585Y-93577807D01*
X133023089Y-93396066D01*
X132992886Y-93356072D01*
X132899732Y-93232715D01*
X132748462Y-93094814D01*
X132700087Y-93064861D01*
X132574428Y-92987056D01*
X132478991Y-92950083D01*
X132383556Y-92913112D01*
X132182347Y-92875500D01*
X131977653Y-92875500D01*
X131811580Y-92906544D01*
X131776444Y-92913112D01*
X131585571Y-92987056D01*
X131411539Y-93094813D01*
X131260267Y-93232716D01*
X131136910Y-93396066D01*
X131045672Y-93579297D01*
X130989654Y-93776180D01*
X130970767Y-93979999D01*
X129540500Y-93979999D01*
X129540500Y-91440000D01*
X130970767Y-91440000D01*
X130989654Y-91643819D01*
X131045672Y-91840702D01*
X131136910Y-92023933D01*
X131136912Y-92023935D01*
X131260268Y-92187285D01*
X131411538Y-92325186D01*
X131585573Y-92432944D01*
X131776444Y-92506888D01*
X131977653Y-92544500D01*
X131977655Y-92544500D01*
X132182345Y-92544500D01*
X132182347Y-92544500D01*
X132383556Y-92506888D01*
X132574427Y-92432944D01*
X132748462Y-92325186D01*
X132899732Y-92187285D01*
X133023088Y-92023935D01*
X133114328Y-91840701D01*
X133170345Y-91643821D01*
X133189232Y-91440000D01*
X133170345Y-91236179D01*
X133114328Y-91039299D01*
X133113585Y-91037807D01*
X133023089Y-90856066D01*
X132992886Y-90816071D01*
X132899732Y-90692715D01*
X132748462Y-90554814D01*
X132700087Y-90524861D01*
X132574428Y-90447056D01*
X132478991Y-90410084D01*
X132383556Y-90373112D01*
X132182347Y-90335500D01*
X131977653Y-90335500D01*
X131776444Y-90373111D01*
X131776444Y-90373112D01*
X131585571Y-90447056D01*
X131411539Y-90554813D01*
X131260267Y-90692716D01*
X131136910Y-90856066D01*
X131045672Y-91039297D01*
X130989654Y-91236180D01*
X130970767Y-91440000D01*
X129540500Y-91440000D01*
X129540500Y-86360000D01*
X130970767Y-86360000D01*
X130989654Y-86563819D01*
X131045672Y-86760702D01*
X131136910Y-86943933D01*
X131136912Y-86943935D01*
X131260268Y-87107285D01*
X131411538Y-87245186D01*
X131585573Y-87352944D01*
X131776444Y-87426888D01*
X131977653Y-87464500D01*
X131977655Y-87464500D01*
X132182345Y-87464500D01*
X132182347Y-87464500D01*
X132383556Y-87426888D01*
X132574427Y-87352944D01*
X132748462Y-87245186D01*
X132899732Y-87107285D01*
X133023088Y-86943935D01*
X133114328Y-86760701D01*
X133170345Y-86563821D01*
X133189232Y-86360000D01*
X133170345Y-86156179D01*
X133114328Y-85959299D01*
X133027003Y-85783927D01*
X133023089Y-85776066D01*
X132992886Y-85736072D01*
X132899732Y-85612715D01*
X132748462Y-85474814D01*
X132700087Y-85444861D01*
X132574428Y-85367056D01*
X132478991Y-85330084D01*
X132383556Y-85293112D01*
X132182347Y-85255500D01*
X131977653Y-85255500D01*
X131776444Y-85293111D01*
X131776444Y-85293112D01*
X131585571Y-85367056D01*
X131411539Y-85474813D01*
X131260267Y-85612716D01*
X131136910Y-85776066D01*
X131045672Y-85959297D01*
X130989654Y-86156180D01*
X130970767Y-86360000D01*
X129540500Y-86360000D01*
X129540500Y-85094925D01*
X129540885Y-85085098D01*
X129544980Y-85033064D01*
X129557273Y-84892566D01*
X129560272Y-84874152D01*
X129560274Y-84874144D01*
X129579148Y-84795527D01*
X129579917Y-84792498D01*
X129608102Y-84687309D01*
X129613386Y-84671743D01*
X129646616Y-84591519D01*
X129648772Y-84586620D01*
X129692289Y-84493298D01*
X129699017Y-84480776D01*
X129745547Y-84404847D01*
X129749693Y-84398523D01*
X129807549Y-84315896D01*
X129814919Y-84306378D01*
X129873265Y-84238064D01*
X129879943Y-84230840D01*
X129950840Y-84159943D01*
X129958064Y-84153265D01*
X130026378Y-84094919D01*
X130035896Y-84087549D01*
X130118523Y-84029693D01*
X130124847Y-84025547D01*
X130200776Y-83979017D01*
X130213298Y-83972289D01*
X130306620Y-83928772D01*
X130311519Y-83926616D01*
X130391743Y-83893386D01*
X130407309Y-83888102D01*
X130512498Y-83859917D01*
X130515527Y-83859148D01*
X130594147Y-83840273D01*
X130612570Y-83837272D01*
X130753078Y-83824979D01*
X130784663Y-83822494D01*
X130805075Y-83820888D01*
X130814949Y-83820500D01*
X133223500Y-83820500D01*
X133291621Y-83840502D01*
G37*
G04 #@! TD.AperFunction*
M02*
