G04 #@! TF.GenerationSoftware,KiCad,Pcbnew,(6.0.9)*
G04 #@! TF.CreationDate,2022-11-19T16:43:32+01:00*
G04 #@! TF.ProjectId,Display Adapter,44697370-6c61-4792-9041-646170746572,V1.0*
G04 #@! TF.SameCoordinates,Original*
G04 #@! TF.FileFunction,Legend,Bot*
G04 #@! TF.FilePolarity,Positive*
%FSLAX46Y46*%
G04 Gerber Fmt 4.6, Leading zero omitted, Abs format (unit mm)*
G04 Created by KiCad (PCBNEW (6.0.9)) date 2022-11-19 16:43:32*
%MOMM*%
%LPD*%
G01*
G04 APERTURE LIST*
G04 Aperture macros list*
%AMRoundRect*
0 Rectangle with rounded corners*
0 $1 Rounding radius*
0 $2 $3 $4 $5 $6 $7 $8 $9 X,Y pos of 4 corners*
0 Add a 4 corners polygon primitive as box body*
4,1,4,$2,$3,$4,$5,$6,$7,$8,$9,$2,$3,0*
0 Add four circle primitives for the rounded corners*
1,1,$1+$1,$2,$3*
1,1,$1+$1,$4,$5*
1,1,$1+$1,$6,$7*
1,1,$1+$1,$8,$9*
0 Add four rect primitives between the rounded corners*
20,1,$1+$1,$2,$3,$4,$5,0*
20,1,$1+$1,$4,$5,$6,$7,0*
20,1,$1+$1,$6,$7,$8,$9,0*
20,1,$1+$1,$8,$9,$2,$3,0*%
G04 Aperture macros list end*
%ADD10C,0.150000*%
%ADD11C,0.120000*%
%ADD12RoundRect,0.250000X-0.600000X0.600000X-0.600000X-0.600000X0.600000X-0.600000X0.600000X0.600000X0*%
%ADD13C,1.700000*%
%ADD14R,1.700000X1.700000*%
%ADD15O,1.700000X1.700000*%
G04 APERTURE END LIST*
D10*
X159613809Y-114317142D02*
X159661428Y-114364761D01*
X159804285Y-114412380D01*
X159899523Y-114412380D01*
X160042380Y-114364761D01*
X160137619Y-114269523D01*
X160185238Y-114174285D01*
X160232857Y-113983809D01*
X160232857Y-113840952D01*
X160185238Y-113650476D01*
X160137619Y-113555238D01*
X160042380Y-113460000D01*
X159899523Y-113412380D01*
X159804285Y-113412380D01*
X159661428Y-113460000D01*
X159613809Y-113507619D01*
X159042380Y-114412380D02*
X159137619Y-114364761D01*
X159185238Y-114317142D01*
X159232857Y-114221904D01*
X159232857Y-113936190D01*
X159185238Y-113840952D01*
X159137619Y-113793333D01*
X159042380Y-113745714D01*
X158899523Y-113745714D01*
X158804285Y-113793333D01*
X158756666Y-113840952D01*
X158709047Y-113936190D01*
X158709047Y-114221904D01*
X158756666Y-114317142D01*
X158804285Y-114364761D01*
X158899523Y-114412380D01*
X159042380Y-114412380D01*
X158280476Y-113745714D02*
X158280476Y-114412380D01*
X158280476Y-113840952D02*
X158232857Y-113793333D01*
X158137619Y-113745714D01*
X157994761Y-113745714D01*
X157899523Y-113793333D01*
X157851904Y-113888571D01*
X157851904Y-114412380D01*
X157375714Y-113745714D02*
X157375714Y-114412380D01*
X157375714Y-113840952D02*
X157328095Y-113793333D01*
X157232857Y-113745714D01*
X157090000Y-113745714D01*
X156994761Y-113793333D01*
X156947142Y-113888571D01*
X156947142Y-114412380D01*
X156090000Y-114364761D02*
X156185238Y-114412380D01*
X156375714Y-114412380D01*
X156470952Y-114364761D01*
X156518571Y-114269523D01*
X156518571Y-113888571D01*
X156470952Y-113793333D01*
X156375714Y-113745714D01*
X156185238Y-113745714D01*
X156090000Y-113793333D01*
X156042380Y-113888571D01*
X156042380Y-113983809D01*
X156518571Y-114079047D01*
X155185238Y-114364761D02*
X155280476Y-114412380D01*
X155470952Y-114412380D01*
X155566190Y-114364761D01*
X155613809Y-114317142D01*
X155661428Y-114221904D01*
X155661428Y-113936190D01*
X155613809Y-113840952D01*
X155566190Y-113793333D01*
X155470952Y-113745714D01*
X155280476Y-113745714D01*
X155185238Y-113793333D01*
X154899523Y-113745714D02*
X154518571Y-113745714D01*
X154756666Y-113412380D02*
X154756666Y-114269523D01*
X154709047Y-114364761D01*
X154613809Y-114412380D01*
X154518571Y-114412380D01*
X153566190Y-113745714D02*
X153185238Y-113745714D01*
X153423333Y-113412380D02*
X153423333Y-114269523D01*
X153375714Y-114364761D01*
X153280476Y-114412380D01*
X153185238Y-114412380D01*
X152851904Y-114412380D02*
X152851904Y-113412380D01*
X152423333Y-114412380D02*
X152423333Y-113888571D01*
X152470952Y-113793333D01*
X152566190Y-113745714D01*
X152709047Y-113745714D01*
X152804285Y-113793333D01*
X152851904Y-113840952D01*
X151947142Y-114412380D02*
X151947142Y-113745714D01*
X151947142Y-113412380D02*
X151994761Y-113460000D01*
X151947142Y-113507619D01*
X151899523Y-113460000D01*
X151947142Y-113412380D01*
X151947142Y-113507619D01*
X151518571Y-114364761D02*
X151423333Y-114412380D01*
X151232857Y-114412380D01*
X151137619Y-114364761D01*
X151090000Y-114269523D01*
X151090000Y-114221904D01*
X151137619Y-114126666D01*
X151232857Y-114079047D01*
X151375714Y-114079047D01*
X151470952Y-114031428D01*
X151518571Y-113936190D01*
X151518571Y-113888571D01*
X151470952Y-113793333D01*
X151375714Y-113745714D01*
X151232857Y-113745714D01*
X151137619Y-113793333D01*
X149470952Y-114412380D02*
X149470952Y-113888571D01*
X149518571Y-113793333D01*
X149613809Y-113745714D01*
X149804285Y-113745714D01*
X149899523Y-113793333D01*
X149470952Y-114364761D02*
X149566190Y-114412380D01*
X149804285Y-114412380D01*
X149899523Y-114364761D01*
X149947142Y-114269523D01*
X149947142Y-114174285D01*
X149899523Y-114079047D01*
X149804285Y-114031428D01*
X149566190Y-114031428D01*
X149470952Y-113983809D01*
X148566190Y-114412380D02*
X148566190Y-113412380D01*
X148566190Y-114364761D02*
X148661428Y-114412380D01*
X148851904Y-114412380D01*
X148947142Y-114364761D01*
X148994761Y-114317142D01*
X149042380Y-114221904D01*
X149042380Y-113936190D01*
X148994761Y-113840952D01*
X148947142Y-113793333D01*
X148851904Y-113745714D01*
X148661428Y-113745714D01*
X148566190Y-113793333D01*
X147661428Y-114412380D02*
X147661428Y-113888571D01*
X147709047Y-113793333D01*
X147804285Y-113745714D01*
X147994761Y-113745714D01*
X148090000Y-113793333D01*
X147661428Y-114364761D02*
X147756666Y-114412380D01*
X147994761Y-114412380D01*
X148090000Y-114364761D01*
X148137619Y-114269523D01*
X148137619Y-114174285D01*
X148090000Y-114079047D01*
X147994761Y-114031428D01*
X147756666Y-114031428D01*
X147661428Y-113983809D01*
X147185238Y-113745714D02*
X147185238Y-114745714D01*
X147185238Y-113793333D02*
X147090000Y-113745714D01*
X146899523Y-113745714D01*
X146804285Y-113793333D01*
X146756666Y-113840952D01*
X146709047Y-113936190D01*
X146709047Y-114221904D01*
X146756666Y-114317142D01*
X146804285Y-114364761D01*
X146899523Y-114412380D01*
X147090000Y-114412380D01*
X147185238Y-114364761D01*
X146423333Y-113745714D02*
X146042380Y-113745714D01*
X146280476Y-113412380D02*
X146280476Y-114269523D01*
X146232857Y-114364761D01*
X146137619Y-114412380D01*
X146042380Y-114412380D01*
X145328095Y-114364761D02*
X145423333Y-114412380D01*
X145613809Y-114412380D01*
X145709047Y-114364761D01*
X145756666Y-114269523D01*
X145756666Y-113888571D01*
X145709047Y-113793333D01*
X145613809Y-113745714D01*
X145423333Y-113745714D01*
X145328095Y-113793333D01*
X145280476Y-113888571D01*
X145280476Y-113983809D01*
X145756666Y-114079047D01*
X144851904Y-114412380D02*
X144851904Y-113745714D01*
X144851904Y-113936190D02*
X144804285Y-113840952D01*
X144756666Y-113793333D01*
X144661428Y-113745714D01*
X144566190Y-113745714D01*
X143470952Y-114412380D02*
X143470952Y-113412380D01*
X143470952Y-113793333D02*
X143375714Y-113745714D01*
X143185238Y-113745714D01*
X143090000Y-113793333D01*
X143042380Y-113840952D01*
X142994761Y-113936190D01*
X142994761Y-114221904D01*
X143042380Y-114317142D01*
X143090000Y-114364761D01*
X143185238Y-114412380D01*
X143375714Y-114412380D01*
X143470952Y-114364761D01*
X142423333Y-114412380D02*
X142518571Y-114364761D01*
X142566190Y-114317142D01*
X142613809Y-114221904D01*
X142613809Y-113936190D01*
X142566190Y-113840952D01*
X142518571Y-113793333D01*
X142423333Y-113745714D01*
X142280476Y-113745714D01*
X142185238Y-113793333D01*
X142137619Y-113840952D01*
X142090000Y-113936190D01*
X142090000Y-114221904D01*
X142137619Y-114317142D01*
X142185238Y-114364761D01*
X142280476Y-114412380D01*
X142423333Y-114412380D01*
X141232857Y-114412380D02*
X141232857Y-113888571D01*
X141280476Y-113793333D01*
X141375714Y-113745714D01*
X141566190Y-113745714D01*
X141661428Y-113793333D01*
X141232857Y-114364761D02*
X141328095Y-114412380D01*
X141566190Y-114412380D01*
X141661428Y-114364761D01*
X141709047Y-114269523D01*
X141709047Y-114174285D01*
X141661428Y-114079047D01*
X141566190Y-114031428D01*
X141328095Y-114031428D01*
X141232857Y-113983809D01*
X140756666Y-114412380D02*
X140756666Y-113745714D01*
X140756666Y-113936190D02*
X140709047Y-113840952D01*
X140661428Y-113793333D01*
X140566190Y-113745714D01*
X140470952Y-113745714D01*
X139709047Y-114412380D02*
X139709047Y-113412380D01*
X139709047Y-114364761D02*
X139804285Y-114412380D01*
X139994761Y-114412380D01*
X140090000Y-114364761D01*
X140137619Y-114317142D01*
X140185238Y-114221904D01*
X140185238Y-113936190D01*
X140137619Y-113840952D01*
X140090000Y-113793333D01*
X139994761Y-113745714D01*
X139804285Y-113745714D01*
X139709047Y-113793333D01*
X138613809Y-113745714D02*
X138232857Y-113745714D01*
X138470952Y-113412380D02*
X138470952Y-114269523D01*
X138423333Y-114364761D01*
X138328095Y-114412380D01*
X138232857Y-114412380D01*
X137756666Y-114412380D02*
X137851904Y-114364761D01*
X137899523Y-114317142D01*
X137947142Y-114221904D01*
X137947142Y-113936190D01*
X137899523Y-113840952D01*
X137851904Y-113793333D01*
X137756666Y-113745714D01*
X137613809Y-113745714D01*
X137518571Y-113793333D01*
X137470952Y-113840952D01*
X137423333Y-113936190D01*
X137423333Y-114221904D01*
X137470952Y-114317142D01*
X137518571Y-114364761D01*
X137613809Y-114412380D01*
X137756666Y-114412380D01*
X136994761Y-114317142D02*
X136947142Y-114364761D01*
X136994761Y-114412380D01*
X137042380Y-114364761D01*
X136994761Y-114317142D01*
X136994761Y-114412380D01*
X136994761Y-113793333D02*
X136947142Y-113840952D01*
X136994761Y-113888571D01*
X137042380Y-113840952D01*
X136994761Y-113793333D01*
X136994761Y-113888571D01*
X161328095Y-115117619D02*
X161280476Y-115070000D01*
X161185238Y-115022380D01*
X160947142Y-115022380D01*
X160851904Y-115070000D01*
X160804285Y-115117619D01*
X160756666Y-115212857D01*
X160756666Y-115308095D01*
X160804285Y-115450952D01*
X161375714Y-116022380D01*
X160756666Y-116022380D01*
X160328095Y-115927142D02*
X160280476Y-115974761D01*
X160328095Y-116022380D01*
X160375714Y-115974761D01*
X160328095Y-115927142D01*
X160328095Y-116022380D01*
X159709047Y-115450952D02*
X159804285Y-115403333D01*
X159851904Y-115355714D01*
X159899523Y-115260476D01*
X159899523Y-115212857D01*
X159851904Y-115117619D01*
X159804285Y-115070000D01*
X159709047Y-115022380D01*
X159518571Y-115022380D01*
X159423333Y-115070000D01*
X159375714Y-115117619D01*
X159328095Y-115212857D01*
X159328095Y-115260476D01*
X159375714Y-115355714D01*
X159423333Y-115403333D01*
X159518571Y-115450952D01*
X159709047Y-115450952D01*
X159804285Y-115498571D01*
X159851904Y-115546190D01*
X159899523Y-115641428D01*
X159899523Y-115831904D01*
X159851904Y-115927142D01*
X159804285Y-115974761D01*
X159709047Y-116022380D01*
X159518571Y-116022380D01*
X159423333Y-115974761D01*
X159375714Y-115927142D01*
X159328095Y-115831904D01*
X159328095Y-115641428D01*
X159375714Y-115546190D01*
X159423333Y-115498571D01*
X159518571Y-115450952D01*
X158947142Y-115022380D02*
X158947142Y-115212857D01*
X158566190Y-115022380D02*
X158566190Y-115212857D01*
X157470952Y-115022380D02*
X156851904Y-115022380D01*
X157185238Y-115403333D01*
X157042380Y-115403333D01*
X156947142Y-115450952D01*
X156899523Y-115498571D01*
X156851904Y-115593809D01*
X156851904Y-115831904D01*
X156899523Y-115927142D01*
X156947142Y-115974761D01*
X157042380Y-116022380D01*
X157328095Y-116022380D01*
X157423333Y-115974761D01*
X157470952Y-115927142D01*
X156470952Y-115117619D02*
X156423333Y-115070000D01*
X156328095Y-115022380D01*
X156090000Y-115022380D01*
X155994761Y-115070000D01*
X155947142Y-115117619D01*
X155899523Y-115212857D01*
X155899523Y-115308095D01*
X155947142Y-115450952D01*
X156518571Y-116022380D01*
X155899523Y-116022380D01*
X155280476Y-115022380D02*
X155185238Y-115022380D01*
X155090000Y-115070000D01*
X155042380Y-115117619D01*
X154994761Y-115212857D01*
X154947142Y-115403333D01*
X154947142Y-115641428D01*
X154994761Y-115831904D01*
X155042380Y-115927142D01*
X155090000Y-115974761D01*
X155185238Y-116022380D01*
X155280476Y-116022380D01*
X155375714Y-115974761D01*
X155423333Y-115927142D01*
X155470952Y-115831904D01*
X155518571Y-115641428D01*
X155518571Y-115403333D01*
X155470952Y-115212857D01*
X155423333Y-115117619D01*
X155375714Y-115070000D01*
X155280476Y-115022380D01*
X154613809Y-116022380D02*
X154090000Y-115355714D01*
X154613809Y-115355714D02*
X154090000Y-116022380D01*
X153756666Y-115117619D02*
X153709047Y-115070000D01*
X153613809Y-115022380D01*
X153375714Y-115022380D01*
X153280476Y-115070000D01*
X153232857Y-115117619D01*
X153185238Y-115212857D01*
X153185238Y-115308095D01*
X153232857Y-115450952D01*
X153804285Y-116022380D01*
X153185238Y-116022380D01*
X152328095Y-115355714D02*
X152328095Y-116022380D01*
X152566190Y-114974761D02*
X152804285Y-115689047D01*
X152185238Y-115689047D01*
X151613809Y-115022380D02*
X151518571Y-115022380D01*
X151423333Y-115070000D01*
X151375714Y-115117619D01*
X151328095Y-115212857D01*
X151280476Y-115403333D01*
X151280476Y-115641428D01*
X151328095Y-115831904D01*
X151375714Y-115927142D01*
X151423333Y-115974761D01*
X151518571Y-116022380D01*
X151613809Y-116022380D01*
X151709047Y-115974761D01*
X151756666Y-115927142D01*
X151804285Y-115831904D01*
X151851904Y-115641428D01*
X151851904Y-115403333D01*
X151804285Y-115212857D01*
X151756666Y-115117619D01*
X151709047Y-115070000D01*
X151613809Y-115022380D01*
X150137619Y-115974761D02*
X149994761Y-116022380D01*
X149756666Y-116022380D01*
X149661428Y-115974761D01*
X149613809Y-115927142D01*
X149566190Y-115831904D01*
X149566190Y-115736666D01*
X149613809Y-115641428D01*
X149661428Y-115593809D01*
X149756666Y-115546190D01*
X149947142Y-115498571D01*
X150042380Y-115450952D01*
X150090000Y-115403333D01*
X150137619Y-115308095D01*
X150137619Y-115212857D01*
X150090000Y-115117619D01*
X150042380Y-115070000D01*
X149947142Y-115022380D01*
X149709047Y-115022380D01*
X149566190Y-115070000D01*
X149137619Y-116022380D02*
X149137619Y-115022380D01*
X148756666Y-115022380D01*
X148661428Y-115070000D01*
X148613809Y-115117619D01*
X148566190Y-115212857D01*
X148566190Y-115355714D01*
X148613809Y-115450952D01*
X148661428Y-115498571D01*
X148756666Y-115546190D01*
X149137619Y-115546190D01*
X148137619Y-116022380D02*
X148137619Y-115022380D01*
X146470952Y-116022380D02*
X146470952Y-115022380D01*
X146470952Y-115974761D02*
X146566190Y-116022380D01*
X146756666Y-116022380D01*
X146851904Y-115974761D01*
X146899523Y-115927142D01*
X146947142Y-115831904D01*
X146947142Y-115546190D01*
X146899523Y-115450952D01*
X146851904Y-115403333D01*
X146756666Y-115355714D01*
X146566190Y-115355714D01*
X146470952Y-115403333D01*
X145994761Y-116022380D02*
X145994761Y-115355714D01*
X145994761Y-115022380D02*
X146042380Y-115070000D01*
X145994761Y-115117619D01*
X145947142Y-115070000D01*
X145994761Y-115022380D01*
X145994761Y-115117619D01*
X145566190Y-115974761D02*
X145470952Y-116022380D01*
X145280476Y-116022380D01*
X145185238Y-115974761D01*
X145137619Y-115879523D01*
X145137619Y-115831904D01*
X145185238Y-115736666D01*
X145280476Y-115689047D01*
X145423333Y-115689047D01*
X145518571Y-115641428D01*
X145566190Y-115546190D01*
X145566190Y-115498571D01*
X145518571Y-115403333D01*
X145423333Y-115355714D01*
X145280476Y-115355714D01*
X145185238Y-115403333D01*
X144709047Y-115355714D02*
X144709047Y-116355714D01*
X144709047Y-115403333D02*
X144613809Y-115355714D01*
X144423333Y-115355714D01*
X144328095Y-115403333D01*
X144280476Y-115450952D01*
X144232857Y-115546190D01*
X144232857Y-115831904D01*
X144280476Y-115927142D01*
X144328095Y-115974761D01*
X144423333Y-116022380D01*
X144613809Y-116022380D01*
X144709047Y-115974761D01*
X143661428Y-116022380D02*
X143756666Y-115974761D01*
X143804285Y-115879523D01*
X143804285Y-115022380D01*
X142851904Y-116022380D02*
X142851904Y-115498571D01*
X142899523Y-115403333D01*
X142994761Y-115355714D01*
X143185238Y-115355714D01*
X143280476Y-115403333D01*
X142851904Y-115974761D02*
X142947142Y-116022380D01*
X143185238Y-116022380D01*
X143280476Y-115974761D01*
X143328095Y-115879523D01*
X143328095Y-115784285D01*
X143280476Y-115689047D01*
X143185238Y-115641428D01*
X142947142Y-115641428D01*
X142851904Y-115593809D01*
X142470952Y-115355714D02*
X142232857Y-116022380D01*
X141994761Y-115355714D02*
X142232857Y-116022380D01*
X142328095Y-116260476D01*
X142375714Y-116308095D01*
X142470952Y-116355714D01*
X140851904Y-116022380D02*
X140851904Y-115355714D01*
X140851904Y-115450952D02*
X140804285Y-115403333D01*
X140709047Y-115355714D01*
X140566190Y-115355714D01*
X140470952Y-115403333D01*
X140423333Y-115498571D01*
X140423333Y-116022380D01*
X140423333Y-115498571D02*
X140375714Y-115403333D01*
X140280476Y-115355714D01*
X140137619Y-115355714D01*
X140042380Y-115403333D01*
X139994761Y-115498571D01*
X139994761Y-116022380D01*
X139375714Y-116022380D02*
X139470952Y-115974761D01*
X139518571Y-115927142D01*
X139566190Y-115831904D01*
X139566190Y-115546190D01*
X139518571Y-115450952D01*
X139470952Y-115403333D01*
X139375714Y-115355714D01*
X139232857Y-115355714D01*
X139137619Y-115403333D01*
X139090000Y-115450952D01*
X139042380Y-115546190D01*
X139042380Y-115831904D01*
X139090000Y-115927142D01*
X139137619Y-115974761D01*
X139232857Y-116022380D01*
X139375714Y-116022380D01*
X138185238Y-116022380D02*
X138185238Y-115022380D01*
X138185238Y-115974761D02*
X138280476Y-116022380D01*
X138470952Y-116022380D01*
X138566190Y-115974761D01*
X138613809Y-115927142D01*
X138661428Y-115831904D01*
X138661428Y-115546190D01*
X138613809Y-115450952D01*
X138566190Y-115403333D01*
X138470952Y-115355714D01*
X138280476Y-115355714D01*
X138185238Y-115403333D01*
X137280476Y-115355714D02*
X137280476Y-116022380D01*
X137709047Y-115355714D02*
X137709047Y-115879523D01*
X137661428Y-115974761D01*
X137566190Y-116022380D01*
X137423333Y-116022380D01*
X137328095Y-115974761D01*
X137280476Y-115927142D01*
X136661428Y-116022380D02*
X136756666Y-115974761D01*
X136804285Y-115879523D01*
X136804285Y-115022380D01*
X135899523Y-115974761D02*
X135994761Y-116022380D01*
X136185238Y-116022380D01*
X136280476Y-115974761D01*
X136328095Y-115879523D01*
X136328095Y-115498571D01*
X136280476Y-115403333D01*
X136185238Y-115355714D01*
X135994761Y-115355714D01*
X135899523Y-115403333D01*
X135851904Y-115498571D01*
X135851904Y-115593809D01*
X136328095Y-115689047D01*
X159351904Y-116632380D02*
X158780476Y-116632380D01*
X159066190Y-117632380D02*
X159066190Y-116632380D01*
X158542380Y-116965714D02*
X158304285Y-117632380D01*
X158066190Y-116965714D02*
X158304285Y-117632380D01*
X158399523Y-117870476D01*
X158447142Y-117918095D01*
X158542380Y-117965714D01*
X157685238Y-116965714D02*
X157685238Y-117965714D01*
X157685238Y-117013333D02*
X157590000Y-116965714D01*
X157399523Y-116965714D01*
X157304285Y-117013333D01*
X157256666Y-117060952D01*
X157209047Y-117156190D01*
X157209047Y-117441904D01*
X157256666Y-117537142D01*
X157304285Y-117584761D01*
X157399523Y-117632380D01*
X157590000Y-117632380D01*
X157685238Y-117584761D01*
X156399523Y-117584761D02*
X156494761Y-117632380D01*
X156685238Y-117632380D01*
X156780476Y-117584761D01*
X156828095Y-117489523D01*
X156828095Y-117108571D01*
X156780476Y-117013333D01*
X156685238Y-116965714D01*
X156494761Y-116965714D01*
X156399523Y-117013333D01*
X156351904Y-117108571D01*
X156351904Y-117203809D01*
X156828095Y-117299047D01*
X155923333Y-117537142D02*
X155875714Y-117584761D01*
X155923333Y-117632380D01*
X155970952Y-117584761D01*
X155923333Y-117537142D01*
X155923333Y-117632380D01*
X155923333Y-117013333D02*
X155875714Y-117060952D01*
X155923333Y-117108571D01*
X155970952Y-117060952D01*
X155923333Y-117013333D01*
X155923333Y-117108571D01*
X154685238Y-117632380D02*
X154685238Y-116632380D01*
X153732857Y-117632380D02*
X154209047Y-117632380D01*
X154209047Y-116632380D01*
X153399523Y-117632380D02*
X153399523Y-116632380D01*
X152875714Y-117632380D02*
X152685238Y-117632380D01*
X152590000Y-117584761D01*
X152542380Y-117537142D01*
X152447142Y-117394285D01*
X152399523Y-117203809D01*
X152399523Y-116822857D01*
X152447142Y-116727619D01*
X152494761Y-116680000D01*
X152590000Y-116632380D01*
X152780476Y-116632380D01*
X152875714Y-116680000D01*
X152923333Y-116727619D01*
X152970952Y-116822857D01*
X152970952Y-117060952D01*
X152923333Y-117156190D01*
X152875714Y-117203809D01*
X152780476Y-117251428D01*
X152590000Y-117251428D01*
X152494761Y-117203809D01*
X152447142Y-117156190D01*
X152399523Y-117060952D01*
X152066190Y-116632380D02*
X151447142Y-116632380D01*
X151780476Y-117013333D01*
X151637619Y-117013333D01*
X151542380Y-117060952D01*
X151494761Y-117108571D01*
X151447142Y-117203809D01*
X151447142Y-117441904D01*
X151494761Y-117537142D01*
X151542380Y-117584761D01*
X151637619Y-117632380D01*
X151923333Y-117632380D01*
X152018571Y-117584761D01*
X152066190Y-117537142D01*
X150590000Y-116965714D02*
X150590000Y-117632380D01*
X150828095Y-116584761D02*
X151066190Y-117299047D01*
X150447142Y-117299047D01*
X149542380Y-117632380D02*
X150113809Y-117632380D01*
X149828095Y-117632380D02*
X149828095Y-116632380D01*
X149923333Y-116775238D01*
X150018571Y-116870476D01*
X150113809Y-116918095D01*
X149066190Y-117584761D02*
X149066190Y-117632380D01*
X149113809Y-117727619D01*
X149161428Y-117775238D01*
X147923333Y-117584761D02*
X147780476Y-117632380D01*
X147542380Y-117632380D01*
X147447142Y-117584761D01*
X147399523Y-117537142D01*
X147351904Y-117441904D01*
X147351904Y-117346666D01*
X147399523Y-117251428D01*
X147447142Y-117203809D01*
X147542380Y-117156190D01*
X147732857Y-117108571D01*
X147828095Y-117060952D01*
X147875714Y-117013333D01*
X147923333Y-116918095D01*
X147923333Y-116822857D01*
X147875714Y-116727619D01*
X147828095Y-116680000D01*
X147732857Y-116632380D01*
X147494761Y-116632380D01*
X147351904Y-116680000D01*
X146923333Y-117632380D02*
X146923333Y-116632380D01*
X146351904Y-117632380D02*
X146780476Y-117060952D01*
X146351904Y-116632380D02*
X146923333Y-117203809D01*
X145923333Y-116632380D02*
X145923333Y-117441904D01*
X145875714Y-117537142D01*
X145828095Y-117584761D01*
X145732857Y-117632380D01*
X145542380Y-117632380D01*
X145447142Y-117584761D01*
X145399523Y-117537142D01*
X145351904Y-117441904D01*
X145351904Y-116632380D01*
X144875714Y-117537142D02*
X144828095Y-117584761D01*
X144875714Y-117632380D01*
X144923333Y-117584761D01*
X144875714Y-117537142D01*
X144875714Y-117632380D01*
X144875714Y-117013333D02*
X144828095Y-117060952D01*
X144875714Y-117108571D01*
X144923333Y-117060952D01*
X144875714Y-117013333D01*
X144875714Y-117108571D01*
X144399523Y-117632380D02*
X144399523Y-116632380D01*
X144066190Y-117346666D01*
X143732857Y-116632380D01*
X143732857Y-117632380D01*
X143304285Y-117584761D02*
X143161428Y-117632380D01*
X142923333Y-117632380D01*
X142828095Y-117584761D01*
X142780476Y-117537142D01*
X142732857Y-117441904D01*
X142732857Y-117346666D01*
X142780476Y-117251428D01*
X142828095Y-117203809D01*
X142923333Y-117156190D01*
X143113809Y-117108571D01*
X143209047Y-117060952D01*
X143256666Y-117013333D01*
X143304285Y-116918095D01*
X143304285Y-116822857D01*
X143256666Y-116727619D01*
X143209047Y-116680000D01*
X143113809Y-116632380D01*
X142875714Y-116632380D01*
X142732857Y-116680000D01*
X142304285Y-117632380D02*
X142304285Y-116632380D01*
X141923333Y-116632380D01*
X141828095Y-116680000D01*
X141780476Y-116727619D01*
X141732857Y-116822857D01*
X141732857Y-116965714D01*
X141780476Y-117060952D01*
X141828095Y-117108571D01*
X141923333Y-117156190D01*
X142304285Y-117156190D01*
X141351904Y-116727619D02*
X141304285Y-116680000D01*
X141209047Y-116632380D01*
X140970952Y-116632380D01*
X140875714Y-116680000D01*
X140828095Y-116727619D01*
X140780476Y-116822857D01*
X140780476Y-116918095D01*
X140828095Y-117060952D01*
X141399523Y-117632380D01*
X140780476Y-117632380D01*
X140209047Y-117060952D02*
X140304285Y-117013333D01*
X140351904Y-116965714D01*
X140399523Y-116870476D01*
X140399523Y-116822857D01*
X140351904Y-116727619D01*
X140304285Y-116680000D01*
X140209047Y-116632380D01*
X140018571Y-116632380D01*
X139923333Y-116680000D01*
X139875714Y-116727619D01*
X139828095Y-116822857D01*
X139828095Y-116870476D01*
X139875714Y-116965714D01*
X139923333Y-117013333D01*
X140018571Y-117060952D01*
X140209047Y-117060952D01*
X140304285Y-117108571D01*
X140351904Y-117156190D01*
X140399523Y-117251428D01*
X140399523Y-117441904D01*
X140351904Y-117537142D01*
X140304285Y-117584761D01*
X140209047Y-117632380D01*
X140018571Y-117632380D01*
X139923333Y-117584761D01*
X139875714Y-117537142D01*
X139828095Y-117441904D01*
X139828095Y-117251428D01*
X139875714Y-117156190D01*
X139923333Y-117108571D01*
X140018571Y-117060952D01*
X139209047Y-116632380D02*
X139113809Y-116632380D01*
X139018571Y-116680000D01*
X138970952Y-116727619D01*
X138923333Y-116822857D01*
X138875714Y-117013333D01*
X138875714Y-117251428D01*
X138923333Y-117441904D01*
X138970952Y-117537142D01*
X139018571Y-117584761D01*
X139113809Y-117632380D01*
X139209047Y-117632380D01*
X139304285Y-117584761D01*
X139351904Y-117537142D01*
X139399523Y-117441904D01*
X139447142Y-117251428D01*
X139447142Y-117013333D01*
X139399523Y-116822857D01*
X139351904Y-116727619D01*
X139304285Y-116680000D01*
X139209047Y-116632380D01*
X138542380Y-116632380D02*
X137875714Y-116632380D01*
X138304285Y-117632380D01*
X161653809Y-95881666D02*
X161177619Y-95881666D01*
X161749047Y-96167380D02*
X161415714Y-95167380D01*
X161082380Y-96167380D01*
X160749047Y-95500714D02*
X160749047Y-96500714D01*
X160749047Y-95548333D02*
X160653809Y-95500714D01*
X160463333Y-95500714D01*
X160368095Y-95548333D01*
X160320476Y-95595952D01*
X160272857Y-95691190D01*
X160272857Y-95976904D01*
X160320476Y-96072142D01*
X160368095Y-96119761D01*
X160463333Y-96167380D01*
X160653809Y-96167380D01*
X160749047Y-96119761D01*
X159415714Y-96167380D02*
X159415714Y-95643571D01*
X159463333Y-95548333D01*
X159558571Y-95500714D01*
X159749047Y-95500714D01*
X159844285Y-95548333D01*
X159415714Y-96119761D02*
X159510952Y-96167380D01*
X159749047Y-96167380D01*
X159844285Y-96119761D01*
X159891904Y-96024523D01*
X159891904Y-95929285D01*
X159844285Y-95834047D01*
X159749047Y-95786428D01*
X159510952Y-95786428D01*
X159415714Y-95738809D01*
X158510952Y-96119761D02*
X158606190Y-96167380D01*
X158796666Y-96167380D01*
X158891904Y-96119761D01*
X158939523Y-96072142D01*
X158987142Y-95976904D01*
X158987142Y-95691190D01*
X158939523Y-95595952D01*
X158891904Y-95548333D01*
X158796666Y-95500714D01*
X158606190Y-95500714D01*
X158510952Y-95548333D01*
X158082380Y-96167380D02*
X158082380Y-95167380D01*
X157653809Y-96167380D02*
X157653809Y-95643571D01*
X157701428Y-95548333D01*
X157796666Y-95500714D01*
X157939523Y-95500714D01*
X158034761Y-95548333D01*
X158082380Y-95595952D01*
X156796666Y-96119761D02*
X156891904Y-96167380D01*
X157082380Y-96167380D01*
X157177619Y-96119761D01*
X157225238Y-96024523D01*
X157225238Y-95643571D01*
X157177619Y-95548333D01*
X157082380Y-95500714D01*
X156891904Y-95500714D01*
X156796666Y-95548333D01*
X156749047Y-95643571D01*
X156749047Y-95738809D01*
X157225238Y-95834047D01*
X155082380Y-96167380D02*
X155558571Y-96167380D01*
X155558571Y-95167380D01*
X154749047Y-96167380D02*
X154749047Y-95500714D01*
X154749047Y-95167380D02*
X154796666Y-95215000D01*
X154749047Y-95262619D01*
X154701428Y-95215000D01*
X154749047Y-95167380D01*
X154749047Y-95262619D01*
X153844285Y-96119761D02*
X153939523Y-96167380D01*
X154130000Y-96167380D01*
X154225238Y-96119761D01*
X154272857Y-96072142D01*
X154320476Y-95976904D01*
X154320476Y-95691190D01*
X154272857Y-95595952D01*
X154225238Y-95548333D01*
X154130000Y-95500714D01*
X153939523Y-95500714D01*
X153844285Y-95548333D01*
X153034761Y-96119761D02*
X153130000Y-96167380D01*
X153320476Y-96167380D01*
X153415714Y-96119761D01*
X153463333Y-96024523D01*
X153463333Y-95643571D01*
X153415714Y-95548333D01*
X153320476Y-95500714D01*
X153130000Y-95500714D01*
X153034761Y-95548333D01*
X152987142Y-95643571D01*
X152987142Y-95738809D01*
X153463333Y-95834047D01*
X152558571Y-95500714D02*
X152558571Y-96167380D01*
X152558571Y-95595952D02*
X152510952Y-95548333D01*
X152415714Y-95500714D01*
X152272857Y-95500714D01*
X152177619Y-95548333D01*
X152130000Y-95643571D01*
X152130000Y-96167380D01*
X151701428Y-96119761D02*
X151606190Y-96167380D01*
X151415714Y-96167380D01*
X151320476Y-96119761D01*
X151272857Y-96024523D01*
X151272857Y-95976904D01*
X151320476Y-95881666D01*
X151415714Y-95834047D01*
X151558571Y-95834047D01*
X151653809Y-95786428D01*
X151701428Y-95691190D01*
X151701428Y-95643571D01*
X151653809Y-95548333D01*
X151558571Y-95500714D01*
X151415714Y-95500714D01*
X151320476Y-95548333D01*
X150463333Y-96119761D02*
X150558571Y-96167380D01*
X150749047Y-96167380D01*
X150844285Y-96119761D01*
X150891904Y-96024523D01*
X150891904Y-95643571D01*
X150844285Y-95548333D01*
X150749047Y-95500714D01*
X150558571Y-95500714D01*
X150463333Y-95548333D01*
X150415714Y-95643571D01*
X150415714Y-95738809D01*
X150891904Y-95834047D01*
X149939523Y-96119761D02*
X149939523Y-96167380D01*
X149987142Y-96262619D01*
X150034761Y-96310238D01*
X148891904Y-95167380D02*
X148558571Y-96167380D01*
X148225238Y-95167380D01*
X147510952Y-96119761D02*
X147606190Y-96167380D01*
X147796666Y-96167380D01*
X147891904Y-96119761D01*
X147939523Y-96024523D01*
X147939523Y-95643571D01*
X147891904Y-95548333D01*
X147796666Y-95500714D01*
X147606190Y-95500714D01*
X147510952Y-95548333D01*
X147463333Y-95643571D01*
X147463333Y-95738809D01*
X147939523Y-95834047D01*
X147034761Y-96167380D02*
X147034761Y-95500714D01*
X147034761Y-95691190D02*
X146987142Y-95595952D01*
X146939523Y-95548333D01*
X146844285Y-95500714D01*
X146749047Y-95500714D01*
X146463333Y-96119761D02*
X146368095Y-96167380D01*
X146177619Y-96167380D01*
X146082380Y-96119761D01*
X146034761Y-96024523D01*
X146034761Y-95976904D01*
X146082380Y-95881666D01*
X146177619Y-95834047D01*
X146320476Y-95834047D01*
X146415714Y-95786428D01*
X146463333Y-95691190D01*
X146463333Y-95643571D01*
X146415714Y-95548333D01*
X146320476Y-95500714D01*
X146177619Y-95500714D01*
X146082380Y-95548333D01*
X145606190Y-96167380D02*
X145606190Y-95500714D01*
X145606190Y-95167380D02*
X145653809Y-95215000D01*
X145606190Y-95262619D01*
X145558571Y-95215000D01*
X145606190Y-95167380D01*
X145606190Y-95262619D01*
X144987142Y-96167380D02*
X145082380Y-96119761D01*
X145130000Y-96072142D01*
X145177619Y-95976904D01*
X145177619Y-95691190D01*
X145130000Y-95595952D01*
X145082380Y-95548333D01*
X144987142Y-95500714D01*
X144844285Y-95500714D01*
X144749047Y-95548333D01*
X144701428Y-95595952D01*
X144653809Y-95691190D01*
X144653809Y-95976904D01*
X144701428Y-96072142D01*
X144749047Y-96119761D01*
X144844285Y-96167380D01*
X144987142Y-96167380D01*
X144225238Y-95500714D02*
X144225238Y-96167380D01*
X144225238Y-95595952D02*
X144177619Y-95548333D01*
X144082380Y-95500714D01*
X143939523Y-95500714D01*
X143844285Y-95548333D01*
X143796666Y-95643571D01*
X143796666Y-96167380D01*
X142606190Y-95262619D02*
X142558571Y-95215000D01*
X142463333Y-95167380D01*
X142225238Y-95167380D01*
X142130000Y-95215000D01*
X142082380Y-95262619D01*
X142034761Y-95357857D01*
X142034761Y-95453095D01*
X142082380Y-95595952D01*
X142653809Y-96167380D01*
X142034761Y-96167380D01*
X141606190Y-96072142D02*
X141558571Y-96119761D01*
X141606190Y-96167380D01*
X141653809Y-96119761D01*
X141606190Y-96072142D01*
X141606190Y-96167380D01*
X140939523Y-95167380D02*
X140844285Y-95167380D01*
X140749047Y-95215000D01*
X140701428Y-95262619D01*
X140653809Y-95357857D01*
X140606190Y-95548333D01*
X140606190Y-95786428D01*
X140653809Y-95976904D01*
X140701428Y-96072142D01*
X140749047Y-96119761D01*
X140844285Y-96167380D01*
X140939523Y-96167380D01*
X141034761Y-96119761D01*
X141082380Y-96072142D01*
X141130000Y-95976904D01*
X141177619Y-95786428D01*
X141177619Y-95548333D01*
X141130000Y-95357857D01*
X141082380Y-95262619D01*
X141034761Y-95215000D01*
X140939523Y-95167380D01*
X166582380Y-97777380D02*
X166582380Y-96777380D01*
X166153809Y-97777380D02*
X166153809Y-97253571D01*
X166201428Y-97158333D01*
X166296666Y-97110714D01*
X166439523Y-97110714D01*
X166534761Y-97158333D01*
X166582380Y-97205952D01*
X165820476Y-97110714D02*
X165439523Y-97110714D01*
X165677619Y-96777380D02*
X165677619Y-97634523D01*
X165630000Y-97729761D01*
X165534761Y-97777380D01*
X165439523Y-97777380D01*
X165249047Y-97110714D02*
X164868095Y-97110714D01*
X165106190Y-96777380D02*
X165106190Y-97634523D01*
X165058571Y-97729761D01*
X164963333Y-97777380D01*
X164868095Y-97777380D01*
X164534761Y-97110714D02*
X164534761Y-98110714D01*
X164534761Y-97158333D02*
X164439523Y-97110714D01*
X164249047Y-97110714D01*
X164153809Y-97158333D01*
X164106190Y-97205952D01*
X164058571Y-97301190D01*
X164058571Y-97586904D01*
X164106190Y-97682142D01*
X164153809Y-97729761D01*
X164249047Y-97777380D01*
X164439523Y-97777380D01*
X164534761Y-97729761D01*
X163677619Y-97729761D02*
X163582380Y-97777380D01*
X163391904Y-97777380D01*
X163296666Y-97729761D01*
X163249047Y-97634523D01*
X163249047Y-97586904D01*
X163296666Y-97491666D01*
X163391904Y-97444047D01*
X163534761Y-97444047D01*
X163630000Y-97396428D01*
X163677619Y-97301190D01*
X163677619Y-97253571D01*
X163630000Y-97158333D01*
X163534761Y-97110714D01*
X163391904Y-97110714D01*
X163296666Y-97158333D01*
X162820476Y-97682142D02*
X162772857Y-97729761D01*
X162820476Y-97777380D01*
X162868095Y-97729761D01*
X162820476Y-97682142D01*
X162820476Y-97777380D01*
X162820476Y-97158333D02*
X162772857Y-97205952D01*
X162820476Y-97253571D01*
X162868095Y-97205952D01*
X162820476Y-97158333D01*
X162820476Y-97253571D01*
X161630000Y-96729761D02*
X162487142Y-98015476D01*
X160582380Y-96729761D02*
X161439523Y-98015476D01*
X159820476Y-97110714D02*
X159820476Y-97920238D01*
X159868095Y-98015476D01*
X159915714Y-98063095D01*
X160010952Y-98110714D01*
X160153809Y-98110714D01*
X160249047Y-98063095D01*
X159820476Y-97729761D02*
X159915714Y-97777380D01*
X160106190Y-97777380D01*
X160201428Y-97729761D01*
X160249047Y-97682142D01*
X160296666Y-97586904D01*
X160296666Y-97301190D01*
X160249047Y-97205952D01*
X160201428Y-97158333D01*
X160106190Y-97110714D01*
X159915714Y-97110714D01*
X159820476Y-97158333D01*
X159344285Y-97777380D02*
X159344285Y-97110714D01*
X159344285Y-96777380D02*
X159391904Y-96825000D01*
X159344285Y-96872619D01*
X159296666Y-96825000D01*
X159344285Y-96777380D01*
X159344285Y-96872619D01*
X159010952Y-97110714D02*
X158630000Y-97110714D01*
X158868095Y-96777380D02*
X158868095Y-97634523D01*
X158820476Y-97729761D01*
X158725238Y-97777380D01*
X158630000Y-97777380D01*
X158296666Y-97777380D02*
X158296666Y-96777380D01*
X157868095Y-97777380D02*
X157868095Y-97253571D01*
X157915714Y-97158333D01*
X158010952Y-97110714D01*
X158153809Y-97110714D01*
X158249047Y-97158333D01*
X158296666Y-97205952D01*
X156963333Y-97110714D02*
X156963333Y-97777380D01*
X157391904Y-97110714D02*
X157391904Y-97634523D01*
X157344285Y-97729761D01*
X157249047Y-97777380D01*
X157106190Y-97777380D01*
X157010952Y-97729761D01*
X156963333Y-97682142D01*
X156487142Y-97777380D02*
X156487142Y-96777380D01*
X156487142Y-97158333D02*
X156391904Y-97110714D01*
X156201428Y-97110714D01*
X156106190Y-97158333D01*
X156058571Y-97205952D01*
X156010952Y-97301190D01*
X156010952Y-97586904D01*
X156058571Y-97682142D01*
X156106190Y-97729761D01*
X156201428Y-97777380D01*
X156391904Y-97777380D01*
X156487142Y-97729761D01*
X155582380Y-97682142D02*
X155534761Y-97729761D01*
X155582380Y-97777380D01*
X155630000Y-97729761D01*
X155582380Y-97682142D01*
X155582380Y-97777380D01*
X154677619Y-97729761D02*
X154772857Y-97777380D01*
X154963333Y-97777380D01*
X155058571Y-97729761D01*
X155106190Y-97682142D01*
X155153809Y-97586904D01*
X155153809Y-97301190D01*
X155106190Y-97205952D01*
X155058571Y-97158333D01*
X154963333Y-97110714D01*
X154772857Y-97110714D01*
X154677619Y-97158333D01*
X154106190Y-97777380D02*
X154201428Y-97729761D01*
X154249047Y-97682142D01*
X154296666Y-97586904D01*
X154296666Y-97301190D01*
X154249047Y-97205952D01*
X154201428Y-97158333D01*
X154106190Y-97110714D01*
X153963333Y-97110714D01*
X153868095Y-97158333D01*
X153820476Y-97205952D01*
X153772857Y-97301190D01*
X153772857Y-97586904D01*
X153820476Y-97682142D01*
X153868095Y-97729761D01*
X153963333Y-97777380D01*
X154106190Y-97777380D01*
X153344285Y-97777380D02*
X153344285Y-97110714D01*
X153344285Y-97205952D02*
X153296666Y-97158333D01*
X153201428Y-97110714D01*
X153058571Y-97110714D01*
X152963333Y-97158333D01*
X152915714Y-97253571D01*
X152915714Y-97777380D01*
X152915714Y-97253571D02*
X152868095Y-97158333D01*
X152772857Y-97110714D01*
X152630000Y-97110714D01*
X152534761Y-97158333D01*
X152487142Y-97253571D01*
X152487142Y-97777380D01*
X151296666Y-96729761D02*
X152153809Y-98015476D01*
X150534761Y-97777380D02*
X150534761Y-97253571D01*
X150582380Y-97158333D01*
X150677619Y-97110714D01*
X150868095Y-97110714D01*
X150963333Y-97158333D01*
X150534761Y-97729761D02*
X150630000Y-97777380D01*
X150868095Y-97777380D01*
X150963333Y-97729761D01*
X151010952Y-97634523D01*
X151010952Y-97539285D01*
X150963333Y-97444047D01*
X150868095Y-97396428D01*
X150630000Y-97396428D01*
X150534761Y-97348809D01*
X150201428Y-97110714D02*
X149820476Y-97110714D01*
X150058571Y-96777380D02*
X150058571Y-97634523D01*
X150010952Y-97729761D01*
X149915714Y-97777380D01*
X149820476Y-97777380D01*
X149344285Y-97777380D02*
X149439523Y-97729761D01*
X149487142Y-97682142D01*
X149534761Y-97586904D01*
X149534761Y-97301190D01*
X149487142Y-97205952D01*
X149439523Y-97158333D01*
X149344285Y-97110714D01*
X149201428Y-97110714D01*
X149106190Y-97158333D01*
X149058571Y-97205952D01*
X149010952Y-97301190D01*
X149010952Y-97586904D01*
X149058571Y-97682142D01*
X149106190Y-97729761D01*
X149201428Y-97777380D01*
X149344285Y-97777380D01*
X148439523Y-97777380D02*
X148534761Y-97729761D01*
X148582380Y-97682142D01*
X148630000Y-97586904D01*
X148630000Y-97301190D01*
X148582380Y-97205952D01*
X148534761Y-97158333D01*
X148439523Y-97110714D01*
X148296666Y-97110714D01*
X148201428Y-97158333D01*
X148153809Y-97205952D01*
X148106190Y-97301190D01*
X148106190Y-97586904D01*
X148153809Y-97682142D01*
X148201428Y-97729761D01*
X148296666Y-97777380D01*
X148439523Y-97777380D01*
X147677619Y-97777380D02*
X147677619Y-97110714D01*
X147677619Y-97205952D02*
X147630000Y-97158333D01*
X147534761Y-97110714D01*
X147391904Y-97110714D01*
X147296666Y-97158333D01*
X147249047Y-97253571D01*
X147249047Y-97777380D01*
X147249047Y-97253571D02*
X147201428Y-97158333D01*
X147106190Y-97110714D01*
X146963333Y-97110714D01*
X146868095Y-97158333D01*
X146820476Y-97253571D01*
X146820476Y-97777380D01*
X146344285Y-97110714D02*
X146344285Y-97777380D01*
X146344285Y-97205952D02*
X146296666Y-97158333D01*
X146201428Y-97110714D01*
X146058571Y-97110714D01*
X145963333Y-97158333D01*
X145915714Y-97253571D01*
X145915714Y-97777380D01*
X145058571Y-97729761D02*
X145153809Y-97777380D01*
X145344285Y-97777380D01*
X145439523Y-97729761D01*
X145487142Y-97634523D01*
X145487142Y-97253571D01*
X145439523Y-97158333D01*
X145344285Y-97110714D01*
X145153809Y-97110714D01*
X145058571Y-97158333D01*
X145010952Y-97253571D01*
X145010952Y-97348809D01*
X145487142Y-97444047D01*
X144725238Y-97110714D02*
X144344285Y-97110714D01*
X144582380Y-96777380D02*
X144582380Y-97634523D01*
X144534761Y-97729761D01*
X144439523Y-97777380D01*
X144344285Y-97777380D01*
X144010952Y-97777380D02*
X144010952Y-97110714D01*
X144010952Y-97205952D02*
X143963333Y-97158333D01*
X143868095Y-97110714D01*
X143725238Y-97110714D01*
X143630000Y-97158333D01*
X143582380Y-97253571D01*
X143582380Y-97777380D01*
X143582380Y-97253571D02*
X143534761Y-97158333D01*
X143439523Y-97110714D01*
X143296666Y-97110714D01*
X143201428Y-97158333D01*
X143153809Y-97253571D01*
X143153809Y-97777380D01*
X142249047Y-97777380D02*
X142249047Y-97253571D01*
X142296666Y-97158333D01*
X142391904Y-97110714D01*
X142582380Y-97110714D01*
X142677619Y-97158333D01*
X142249047Y-97729761D02*
X142344285Y-97777380D01*
X142582380Y-97777380D01*
X142677619Y-97729761D01*
X142725238Y-97634523D01*
X142725238Y-97539285D01*
X142677619Y-97444047D01*
X142582380Y-97396428D01*
X142344285Y-97396428D01*
X142249047Y-97348809D01*
X141772857Y-97777380D02*
X141772857Y-97110714D01*
X141772857Y-97301190D02*
X141725238Y-97205952D01*
X141677619Y-97158333D01*
X141582380Y-97110714D01*
X141487142Y-97110714D01*
X140725238Y-97729761D02*
X140820476Y-97777380D01*
X141010952Y-97777380D01*
X141106190Y-97729761D01*
X141153809Y-97682142D01*
X141201428Y-97586904D01*
X141201428Y-97301190D01*
X141153809Y-97205952D01*
X141106190Y-97158333D01*
X141010952Y-97110714D01*
X140820476Y-97110714D01*
X140725238Y-97158333D01*
X139582380Y-96729761D02*
X140439523Y-98015476D01*
X139249047Y-97777380D02*
X139249047Y-96777380D01*
X138630000Y-97777380D02*
X138725238Y-97729761D01*
X138772857Y-97682142D01*
X138820476Y-97586904D01*
X138820476Y-97301190D01*
X138772857Y-97205952D01*
X138725238Y-97158333D01*
X138630000Y-97110714D01*
X138487142Y-97110714D01*
X138391904Y-97158333D01*
X138344285Y-97205952D01*
X138296666Y-97301190D01*
X138296666Y-97586904D01*
X138344285Y-97682142D01*
X138391904Y-97729761D01*
X138487142Y-97777380D01*
X138630000Y-97777380D01*
X138010952Y-96777380D02*
X137439523Y-96777380D01*
X137725238Y-97777380D02*
X137725238Y-96777380D01*
X136582380Y-97777380D02*
X137153809Y-97777380D01*
X136868095Y-97777380D02*
X136868095Y-96777380D01*
X136963333Y-96920238D01*
X137058571Y-97015476D01*
X137153809Y-97063095D01*
X136201428Y-96872619D02*
X136153809Y-96825000D01*
X136058571Y-96777380D01*
X135820476Y-96777380D01*
X135725238Y-96825000D01*
X135677619Y-96872619D01*
X135630000Y-96967857D01*
X135630000Y-97063095D01*
X135677619Y-97205952D01*
X136249047Y-97777380D01*
X135630000Y-97777380D01*
X134953333Y-108672380D02*
X134953333Y-109386666D01*
X135000952Y-109529523D01*
X135096190Y-109624761D01*
X135239047Y-109672380D01*
X135334285Y-109672380D01*
X134524761Y-108767619D02*
X134477142Y-108720000D01*
X134381904Y-108672380D01*
X134143809Y-108672380D01*
X134048571Y-108720000D01*
X134000952Y-108767619D01*
X133953333Y-108862857D01*
X133953333Y-108958095D01*
X134000952Y-109100952D01*
X134572380Y-109672380D01*
X133953333Y-109672380D01*
D11*
X130750000Y-118110000D02*
X133410000Y-118110000D01*
X130750000Y-120710000D02*
X132080000Y-120710000D01*
X130750000Y-118110000D02*
X130750000Y-85030000D01*
X133410000Y-118110000D02*
X133410000Y-85030000D01*
X130750000Y-85030000D02*
X133410000Y-85030000D01*
X130750000Y-119380000D02*
X130750000Y-120710000D01*
%LPC*%
D12*
X161290000Y-101600000D03*
D13*
X161290000Y-104140000D03*
X158750000Y-101600000D03*
X158750000Y-104140000D03*
X156210000Y-101600000D03*
X156210000Y-104140000D03*
X153670000Y-101600000D03*
X153670000Y-104140000D03*
X151130000Y-101600000D03*
X151130000Y-104140000D03*
X148590000Y-101600000D03*
X148590000Y-104140000D03*
X146050000Y-101600000D03*
X146050000Y-104140000D03*
D14*
X132080000Y-119380000D03*
D15*
X132080000Y-116840000D03*
X132080000Y-114300000D03*
X132080000Y-111760000D03*
X132080000Y-109220000D03*
X132080000Y-106680000D03*
X132080000Y-104140000D03*
X132080000Y-101600000D03*
X132080000Y-99060000D03*
X132080000Y-96520000D03*
X132080000Y-93980000D03*
X132080000Y-91440000D03*
X132080000Y-88900000D03*
X132080000Y-86360000D03*
M02*
