G04 #@! TF.GenerationSoftware,KiCad,Pcbnew,7.0.2*
G04 #@! TF.CreationDate,2023-05-16T20:51:55+02:00*
G04 #@! TF.ProjectId,Display Adapter,44697370-6c61-4792-9041-646170746572,V1.0*
G04 #@! TF.SameCoordinates,Original*
G04 #@! TF.FileFunction,Copper,L2,Bot*
G04 #@! TF.FilePolarity,Positive*
%FSLAX46Y46*%
G04 Gerber Fmt 4.6, Leading zero omitted, Abs format (unit mm)*
G04 Created by KiCad (PCBNEW 7.0.2) date 2023-05-16 20:51:55*
%MOMM*%
%LPD*%
G01*
G04 APERTURE LIST*
G04 Aperture macros list*
%AMRoundRect*
0 Rectangle with rounded corners*
0 $1 Rounding radius*
0 $2 $3 $4 $5 $6 $7 $8 $9 X,Y pos of 4 corners*
0 Add a 4 corners polygon primitive as box body*
4,1,4,$2,$3,$4,$5,$6,$7,$8,$9,$2,$3,0*
0 Add four circle primitives for the rounded corners*
1,1,$1+$1,$2,$3*
1,1,$1+$1,$4,$5*
1,1,$1+$1,$6,$7*
1,1,$1+$1,$8,$9*
0 Add four rect primitives between the rounded corners*
20,1,$1+$1,$2,$3,$4,$5,0*
20,1,$1+$1,$4,$5,$6,$7,0*
20,1,$1+$1,$6,$7,$8,$9,0*
20,1,$1+$1,$8,$9,$2,$3,0*%
G04 Aperture macros list end*
G04 #@! TA.AperFunction,ComponentPad*
%ADD10RoundRect,0.250000X-0.600000X0.600000X-0.600000X-0.600000X0.600000X-0.600000X0.600000X0.600000X0*%
G04 #@! TD*
G04 #@! TA.AperFunction,ComponentPad*
%ADD11C,1.700000*%
G04 #@! TD*
G04 #@! TA.AperFunction,ComponentPad*
%ADD12R,1.700000X1.700000*%
G04 #@! TD*
G04 #@! TA.AperFunction,ComponentPad*
%ADD13O,1.700000X1.700000*%
G04 #@! TD*
G04 #@! TA.AperFunction,ViaPad*
%ADD14C,0.800000*%
G04 #@! TD*
G04 #@! TA.AperFunction,Conductor*
%ADD15C,0.440000*%
G04 #@! TD*
G04 APERTURE END LIST*
D10*
X161290000Y-101600000D03*
D11*
X161290000Y-104140000D03*
X158750000Y-101600000D03*
X158750000Y-104140000D03*
X156210000Y-101600000D03*
X156210000Y-104140000D03*
X153670000Y-101600000D03*
X153670000Y-104140000D03*
X151130000Y-101600000D03*
X151130000Y-104140000D03*
X148590000Y-101600000D03*
X148590000Y-104140000D03*
X146050000Y-101600000D03*
X146050000Y-104140000D03*
D12*
X132080000Y-119380000D03*
D13*
X132080000Y-116840000D03*
X132080000Y-114300000D03*
X132080000Y-111760000D03*
X132080000Y-109220000D03*
X132080000Y-106680000D03*
X132080000Y-104140000D03*
X132080000Y-101600000D03*
X132080000Y-99060000D03*
X132080000Y-96520000D03*
X132080000Y-93980000D03*
X132080000Y-91440000D03*
X132080000Y-88900000D03*
X132080000Y-86360000D03*
D14*
X158750000Y-106680000D03*
X130810000Y-85090000D03*
X158750000Y-113030000D03*
X142240000Y-93980000D03*
X163830000Y-106680000D03*
X138430000Y-95250000D03*
X149860000Y-99060000D03*
X139700000Y-87630000D03*
X152400000Y-110490000D03*
X143510000Y-105410000D03*
X153670000Y-99060000D03*
X138430000Y-101600000D03*
X157480000Y-107950000D03*
X139700000Y-107950000D03*
X134620000Y-105410000D03*
X137160000Y-102870000D03*
D15*
X151130000Y-111760000D02*
X148590000Y-114300000D01*
X148590000Y-114300000D02*
X132080000Y-114300000D01*
X151130000Y-104140000D02*
X151130000Y-111760000D01*
X148590000Y-104140000D02*
X148590000Y-109220000D01*
X146050000Y-111760000D02*
X132080000Y-111760000D01*
X148590000Y-109220000D02*
X146050000Y-111760000D01*
X156210000Y-106680000D02*
X157480000Y-107950000D01*
X139700000Y-107950000D02*
X139700000Y-93980000D01*
X156210000Y-104140000D02*
X156210000Y-106680000D01*
X137160000Y-91440000D02*
X132080000Y-91440000D01*
X139700000Y-93980000D02*
X137160000Y-91440000D01*
X134620000Y-97790000D02*
X134620000Y-105410000D01*
X134620000Y-97790000D02*
X133350000Y-96520000D01*
X133350000Y-96520000D02*
X132080000Y-96520000D01*
X135890000Y-93980000D02*
X132080000Y-93980000D01*
X137160000Y-95250000D02*
X135890000Y-93980000D01*
X137160000Y-102870000D02*
X137160000Y-95250000D01*
X139700000Y-88900000D02*
X135890000Y-88900000D01*
X133350000Y-86360000D02*
X132080000Y-86360000D01*
X143510000Y-92710000D02*
X139700000Y-88900000D01*
X144780000Y-104140000D02*
X143510000Y-102870000D01*
X143510000Y-102870000D02*
X143510000Y-92710000D01*
X146050000Y-104140000D02*
X144780000Y-104140000D01*
X135890000Y-88900000D02*
X133350000Y-86360000D01*
G04 #@! TA.AperFunction,Conductor*
G36*
X133291621Y-83840502D02*
G01*
X133338114Y-83894158D01*
X133349500Y-83946500D01*
X133349500Y-84007198D01*
X133349802Y-84010270D01*
X133349803Y-84010278D01*
X133369805Y-84213359D01*
X133370250Y-84219328D01*
X133374429Y-84301743D01*
X133380298Y-84319896D01*
X133385538Y-84373094D01*
X133386198Y-84379791D01*
X133386799Y-84382814D01*
X133386802Y-84382832D01*
X133429411Y-84597037D01*
X133430379Y-84602538D01*
X133442070Y-84678857D01*
X133448709Y-84694058D01*
X133459239Y-84746992D01*
X133460128Y-84749925D01*
X133460132Y-84749938D01*
X133528066Y-84973886D01*
X133529469Y-84978879D01*
X133547171Y-85047249D01*
X133554038Y-85059504D01*
X133567023Y-85102313D01*
X133567920Y-85105267D01*
X133569096Y-85108107D01*
X133569100Y-85108117D01*
X133665222Y-85340175D01*
X133666969Y-85344632D01*
X133688692Y-85403284D01*
X133695252Y-85412674D01*
X133711195Y-85451163D01*
X133712656Y-85453896D01*
X133840056Y-85692246D01*
X133842057Y-85696152D01*
X133865199Y-85743330D01*
X133870941Y-85750028D01*
X133884859Y-85776066D01*
X133887684Y-85781351D01*
X133889402Y-85783923D01*
X133889405Y-85783927D01*
X134051606Y-86026678D01*
X134053770Y-86030030D01*
X134071851Y-86059038D01*
X134090910Y-86127429D01*
X134069969Y-86195267D01*
X134015676Y-86241014D01*
X133945269Y-86250146D01*
X133881102Y-86219763D01*
X133875827Y-86214783D01*
X133731172Y-86070128D01*
X133714269Y-86049154D01*
X133712290Y-86046074D01*
X133676936Y-86015439D01*
X133670368Y-86009324D01*
X133661526Y-86000482D01*
X133651518Y-85992989D01*
X133644521Y-85987351D01*
X133609172Y-85956721D01*
X133609170Y-85956720D01*
X133605838Y-85955198D01*
X133582673Y-85941453D01*
X133579740Y-85939257D01*
X133535917Y-85922912D01*
X133527609Y-85919471D01*
X133485056Y-85900038D01*
X133481419Y-85899515D01*
X133455338Y-85892857D01*
X133451902Y-85891575D01*
X133405240Y-85888238D01*
X133396306Y-85887278D01*
X133387790Y-85886054D01*
X133383935Y-85885500D01*
X133383934Y-85885500D01*
X133371436Y-85885500D01*
X133362449Y-85885179D01*
X133315801Y-85881843D01*
X133312225Y-85882621D01*
X133285443Y-85885500D01*
X133155596Y-85885500D01*
X133087475Y-85865498D01*
X133042805Y-85815663D01*
X133023088Y-85776065D01*
X132899732Y-85612715D01*
X132748462Y-85474814D01*
X132700087Y-85444861D01*
X132574428Y-85367056D01*
X132478991Y-85330084D01*
X132383556Y-85293112D01*
X132182347Y-85255500D01*
X131977653Y-85255500D01*
X131776444Y-85293111D01*
X131776444Y-85293112D01*
X131585571Y-85367056D01*
X131411539Y-85474813D01*
X131260267Y-85612716D01*
X131136910Y-85776066D01*
X131045672Y-85959297D01*
X130989654Y-86156180D01*
X130970767Y-86360000D01*
X130989654Y-86563819D01*
X131045672Y-86760702D01*
X131136910Y-86943933D01*
X131136912Y-86943935D01*
X131260268Y-87107285D01*
X131411538Y-87245186D01*
X131585573Y-87352944D01*
X131776444Y-87426888D01*
X131977653Y-87464500D01*
X131977655Y-87464500D01*
X132182345Y-87464500D01*
X132182347Y-87464500D01*
X132383556Y-87426888D01*
X132574427Y-87352944D01*
X132748462Y-87245186D01*
X132899732Y-87107285D01*
X133023088Y-86943935D01*
X133024743Y-86940610D01*
X133029357Y-86935632D01*
X133030124Y-86934618D01*
X133030226Y-86934695D01*
X133073006Y-86888547D01*
X133141760Y-86870840D01*
X133209171Y-86893115D01*
X133226630Y-86907674D01*
X135508828Y-89189873D01*
X135525731Y-89210847D01*
X135527709Y-89213925D01*
X135563051Y-89244549D01*
X135569622Y-89250667D01*
X135578473Y-89259518D01*
X135588477Y-89267006D01*
X135595487Y-89272655D01*
X135630829Y-89303280D01*
X135634157Y-89304800D01*
X135657327Y-89318547D01*
X135660258Y-89320741D01*
X135704087Y-89337088D01*
X135712383Y-89340524D01*
X135754943Y-89359961D01*
X135758568Y-89360482D01*
X135784673Y-89367144D01*
X135788101Y-89368423D01*
X135834752Y-89371759D01*
X135843677Y-89372718D01*
X135856065Y-89374500D01*
X135868566Y-89374500D01*
X135877554Y-89374821D01*
X135880795Y-89375052D01*
X135924198Y-89378157D01*
X135926682Y-89377616D01*
X135927776Y-89377379D01*
X135954556Y-89374500D01*
X139451266Y-89374500D01*
X139519387Y-89394502D01*
X139540361Y-89411405D01*
X142998595Y-92869638D01*
X143032621Y-92931950D01*
X143035500Y-92958733D01*
X143035500Y-102805443D01*
X143032621Y-102832223D01*
X143031843Y-102835799D01*
X143035179Y-102882448D01*
X143035500Y-102891436D01*
X143035500Y-102903934D01*
X143037278Y-102916306D01*
X143038238Y-102925240D01*
X143041575Y-102971902D01*
X143042857Y-102975338D01*
X143049515Y-103001419D01*
X143050038Y-103005056D01*
X143069471Y-103047609D01*
X143072912Y-103055917D01*
X143089257Y-103099740D01*
X143091453Y-103102673D01*
X143105198Y-103125838D01*
X143106721Y-103129172D01*
X143137351Y-103164521D01*
X143142989Y-103171518D01*
X143150482Y-103181526D01*
X143159324Y-103190368D01*
X143165439Y-103196936D01*
X143196074Y-103232290D01*
X143199156Y-103234270D01*
X143220128Y-103251172D01*
X144398827Y-104429871D01*
X144415731Y-104450848D01*
X144417707Y-104453924D01*
X144453051Y-104484549D01*
X144459622Y-104490667D01*
X144468473Y-104499518D01*
X144478477Y-104507006D01*
X144485487Y-104512655D01*
X144520829Y-104543280D01*
X144524157Y-104544800D01*
X144547327Y-104558547D01*
X144550258Y-104560741D01*
X144594087Y-104577088D01*
X144602383Y-104580524D01*
X144644943Y-104599961D01*
X144648568Y-104600482D01*
X144674673Y-104607144D01*
X144678101Y-104608423D01*
X144724752Y-104611759D01*
X144733677Y-104612718D01*
X144746065Y-104614500D01*
X144758566Y-104614500D01*
X144767554Y-104614821D01*
X144770795Y-104615052D01*
X144814198Y-104618157D01*
X144816682Y-104617616D01*
X144817776Y-104617379D01*
X144844556Y-104614500D01*
X144974404Y-104614500D01*
X145042525Y-104634502D01*
X145087195Y-104684337D01*
X145106913Y-104723937D01*
X145168590Y-104805609D01*
X145230268Y-104887285D01*
X145381538Y-105025186D01*
X145555573Y-105132944D01*
X145746444Y-105206888D01*
X145947653Y-105244500D01*
X145947655Y-105244500D01*
X146152345Y-105244500D01*
X146152347Y-105244500D01*
X146353556Y-105206888D01*
X146544427Y-105132944D01*
X146718462Y-105025186D01*
X146869732Y-104887285D01*
X146993088Y-104723935D01*
X147084328Y-104540701D01*
X147140345Y-104343821D01*
X147159232Y-104140000D01*
X147140345Y-103936179D01*
X147084328Y-103739299D01*
X147083585Y-103737807D01*
X146993089Y-103556066D01*
X146940527Y-103486463D01*
X146869732Y-103392715D01*
X146718462Y-103254814D01*
X146600095Y-103181524D01*
X146544428Y-103147056D01*
X146448991Y-103110083D01*
X146353556Y-103073112D01*
X146152347Y-103035500D01*
X145947653Y-103035500D01*
X145746444Y-103073111D01*
X145746444Y-103073112D01*
X145555571Y-103147056D01*
X145381539Y-103254813D01*
X145230267Y-103392716D01*
X145106911Y-103556065D01*
X145105252Y-103559398D01*
X145100633Y-103564379D01*
X145099876Y-103565382D01*
X145099774Y-103565305D01*
X145056980Y-103611459D01*
X144988225Y-103629158D01*
X144920816Y-103606875D01*
X144903369Y-103592324D01*
X144021405Y-102710360D01*
X143987379Y-102648048D01*
X143984500Y-102621265D01*
X143984500Y-101600000D01*
X144940767Y-101600000D01*
X144959654Y-101803819D01*
X145015672Y-102000702D01*
X145106910Y-102183933D01*
X145106912Y-102183935D01*
X145230268Y-102347285D01*
X145381538Y-102485186D01*
X145468948Y-102539308D01*
X145554844Y-102592493D01*
X145555573Y-102592944D01*
X145746444Y-102666888D01*
X145947653Y-102704500D01*
X145947655Y-102704500D01*
X146152345Y-102704500D01*
X146152347Y-102704500D01*
X146353556Y-102666888D01*
X146544427Y-102592944D01*
X146718462Y-102485186D01*
X146869732Y-102347285D01*
X146993088Y-102183935D01*
X147084328Y-102000701D01*
X147140345Y-101803821D01*
X147159232Y-101600000D01*
X147480767Y-101600000D01*
X147499654Y-101803819D01*
X147555672Y-102000702D01*
X147646910Y-102183933D01*
X147646912Y-102183935D01*
X147770268Y-102347285D01*
X147921538Y-102485186D01*
X148008948Y-102539308D01*
X148094844Y-102592493D01*
X148095573Y-102592944D01*
X148286444Y-102666888D01*
X148487653Y-102704500D01*
X148487655Y-102704500D01*
X148692345Y-102704500D01*
X148692347Y-102704500D01*
X148893556Y-102666888D01*
X149084427Y-102592944D01*
X149258462Y-102485186D01*
X149409732Y-102347285D01*
X149533088Y-102183935D01*
X149624328Y-102000701D01*
X149680345Y-101803821D01*
X149699232Y-101600000D01*
X149699232Y-101599999D01*
X150021270Y-101599999D01*
X150040148Y-101803731D01*
X150096139Y-102000517D01*
X150187264Y-102183523D01*
X150645638Y-101725149D01*
X150670507Y-101809844D01*
X150748239Y-101930798D01*
X150856900Y-102024952D01*
X150987685Y-102084680D01*
X151002412Y-102086797D01*
X150549900Y-102539308D01*
X150635795Y-102592493D01*
X150826582Y-102666404D01*
X151027700Y-102704000D01*
X151232300Y-102704000D01*
X151433417Y-102666404D01*
X151624204Y-102592493D01*
X151710099Y-102539308D01*
X151257588Y-102086797D01*
X151272315Y-102084680D01*
X151403100Y-102024952D01*
X151511761Y-101930798D01*
X151589493Y-101809844D01*
X151614360Y-101725151D01*
X152072733Y-102183524D01*
X152163859Y-102000520D01*
X152219851Y-101803731D01*
X152238729Y-101600000D01*
X152561270Y-101600000D01*
X152580148Y-101803731D01*
X152636139Y-102000517D01*
X152727264Y-102183523D01*
X153185638Y-101725148D01*
X153210507Y-101809844D01*
X153288239Y-101930798D01*
X153396900Y-102024952D01*
X153527685Y-102084680D01*
X153542412Y-102086797D01*
X153089900Y-102539308D01*
X153175795Y-102592493D01*
X153366582Y-102666404D01*
X153567700Y-102704000D01*
X153772300Y-102704000D01*
X153973417Y-102666404D01*
X154164204Y-102592493D01*
X154250099Y-102539308D01*
X153797588Y-102086797D01*
X153812315Y-102084680D01*
X153943100Y-102024952D01*
X154051761Y-101930798D01*
X154129493Y-101809844D01*
X154154361Y-101725150D01*
X154612733Y-102183523D01*
X154703859Y-102000520D01*
X154759851Y-101803731D01*
X154778729Y-101600000D01*
X155101270Y-101600000D01*
X155120148Y-101803731D01*
X155176139Y-102000517D01*
X155267264Y-102183523D01*
X155725638Y-101725149D01*
X155750507Y-101809844D01*
X155828239Y-101930798D01*
X155936900Y-102024952D01*
X156067685Y-102084680D01*
X156082412Y-102086797D01*
X155629900Y-102539308D01*
X155715795Y-102592493D01*
X155906582Y-102666404D01*
X156107700Y-102704000D01*
X156312300Y-102704000D01*
X156513417Y-102666404D01*
X156704204Y-102592493D01*
X156790099Y-102539308D01*
X156337588Y-102086797D01*
X156352315Y-102084680D01*
X156483100Y-102024952D01*
X156591761Y-101930798D01*
X156669493Y-101809844D01*
X156694360Y-101725151D01*
X157152733Y-102183524D01*
X157243859Y-102000520D01*
X157299851Y-101803731D01*
X157318729Y-101599999D01*
X157641270Y-101599999D01*
X157660148Y-101803731D01*
X157716139Y-102000517D01*
X157807264Y-102183523D01*
X158265638Y-101725149D01*
X158290507Y-101809844D01*
X158368239Y-101930798D01*
X158476900Y-102024952D01*
X158607685Y-102084680D01*
X158622412Y-102086797D01*
X158169900Y-102539308D01*
X158255795Y-102592493D01*
X158446582Y-102666404D01*
X158647700Y-102704000D01*
X158852300Y-102704000D01*
X159053417Y-102666404D01*
X159244204Y-102592493D01*
X159330099Y-102539308D01*
X159035692Y-102244901D01*
X160185500Y-102244901D01*
X160185501Y-102248254D01*
X160185860Y-102251596D01*
X160185861Y-102251610D01*
X160191959Y-102308338D01*
X160191959Y-102308340D01*
X160191960Y-102308342D01*
X160206485Y-102347285D01*
X160242658Y-102444268D01*
X160329595Y-102560404D01*
X160445731Y-102647341D01*
X160445732Y-102647341D01*
X160445733Y-102647342D01*
X160581658Y-102698040D01*
X160627076Y-102702923D01*
X160638377Y-102704138D01*
X160641745Y-102704500D01*
X161938254Y-102704499D01*
X161998342Y-102698040D01*
X162134267Y-102647342D01*
X162250404Y-102560404D01*
X162337342Y-102444267D01*
X162388040Y-102308342D01*
X162394500Y-102248255D01*
X162394499Y-100951746D01*
X162388040Y-100891658D01*
X162337342Y-100755733D01*
X162306711Y-100714814D01*
X162250404Y-100639595D01*
X162134268Y-100552658D01*
X161998339Y-100501959D01*
X161941603Y-100495859D01*
X161941585Y-100495858D01*
X161938255Y-100495500D01*
X161934887Y-100495500D01*
X160645116Y-100495500D01*
X160645097Y-100495500D01*
X160641746Y-100495501D01*
X160638404Y-100495860D01*
X160638389Y-100495861D01*
X160581661Y-100501959D01*
X160445731Y-100552658D01*
X160329595Y-100639595D01*
X160242658Y-100755731D01*
X160191959Y-100891660D01*
X160185859Y-100948396D01*
X160185857Y-100948415D01*
X160185500Y-100951745D01*
X160185500Y-100955111D01*
X160185500Y-100955112D01*
X160185500Y-102244883D01*
X160185500Y-102244901D01*
X159035692Y-102244901D01*
X158877588Y-102086797D01*
X158892315Y-102084680D01*
X159023100Y-102024952D01*
X159131761Y-101930798D01*
X159209493Y-101809844D01*
X159234360Y-101725151D01*
X159692733Y-102183524D01*
X159783859Y-102000520D01*
X159839851Y-101803731D01*
X159858729Y-101600000D01*
X159839851Y-101396268D01*
X159783860Y-101199481D01*
X159692733Y-101016475D01*
X159234360Y-101474848D01*
X159209493Y-101390156D01*
X159131761Y-101269202D01*
X159023100Y-101175048D01*
X158892315Y-101115320D01*
X158877587Y-101113202D01*
X159330098Y-100660690D01*
X159244199Y-100607504D01*
X159053420Y-100533596D01*
X158852300Y-100496000D01*
X158647700Y-100496000D01*
X158446579Y-100533596D01*
X158255797Y-100607505D01*
X158169899Y-100660690D01*
X158622411Y-101113202D01*
X158607685Y-101115320D01*
X158476900Y-101175048D01*
X158368239Y-101269202D01*
X158290507Y-101390156D01*
X158265639Y-101474848D01*
X157807265Y-101016474D01*
X157716140Y-101199480D01*
X157660148Y-101396268D01*
X157641270Y-101599999D01*
X157318729Y-101599999D01*
X157299851Y-101396268D01*
X157243860Y-101199481D01*
X157152733Y-101016475D01*
X156694360Y-101474848D01*
X156669493Y-101390156D01*
X156591761Y-101269202D01*
X156483100Y-101175048D01*
X156352315Y-101115320D01*
X156337587Y-101113202D01*
X156790098Y-100660690D01*
X156704199Y-100607504D01*
X156513420Y-100533596D01*
X156312300Y-100496000D01*
X156107700Y-100496000D01*
X155906579Y-100533596D01*
X155715797Y-100607505D01*
X155629899Y-100660690D01*
X156082411Y-101113202D01*
X156067685Y-101115320D01*
X155936900Y-101175048D01*
X155828239Y-101269202D01*
X155750507Y-101390156D01*
X155725639Y-101474848D01*
X155267265Y-101016474D01*
X155176140Y-101199480D01*
X155120148Y-101396268D01*
X155101270Y-101600000D01*
X154778729Y-101600000D01*
X154759851Y-101396268D01*
X154703860Y-101199481D01*
X154612734Y-101016475D01*
X154154360Y-101474848D01*
X154129493Y-101390156D01*
X154051761Y-101269202D01*
X153943100Y-101175048D01*
X153812315Y-101115320D01*
X153797587Y-101113202D01*
X154250099Y-100660690D01*
X154164199Y-100607504D01*
X153973420Y-100533596D01*
X153772300Y-100496000D01*
X153567700Y-100496000D01*
X153366579Y-100533596D01*
X153175797Y-100607505D01*
X153089899Y-100660689D01*
X153542413Y-101113202D01*
X153527685Y-101115320D01*
X153396900Y-101175048D01*
X153288239Y-101269202D01*
X153210507Y-101390156D01*
X153185639Y-101474848D01*
X152727264Y-101016474D01*
X152636140Y-101199480D01*
X152580148Y-101396268D01*
X152561270Y-101600000D01*
X152238729Y-101600000D01*
X152219851Y-101396268D01*
X152163860Y-101199481D01*
X152072733Y-101016475D01*
X151614360Y-101474848D01*
X151589493Y-101390156D01*
X151511761Y-101269202D01*
X151403100Y-101175048D01*
X151272315Y-101115320D01*
X151257587Y-101113202D01*
X151710099Y-100660690D01*
X151624199Y-100607504D01*
X151433420Y-100533596D01*
X151232300Y-100496000D01*
X151027700Y-100496000D01*
X150826579Y-100533596D01*
X150635797Y-100607505D01*
X150549899Y-100660689D01*
X151002411Y-101113202D01*
X150987685Y-101115320D01*
X150856900Y-101175048D01*
X150748239Y-101269202D01*
X150670507Y-101390156D01*
X150645639Y-101474848D01*
X150187265Y-101016474D01*
X150096140Y-101199480D01*
X150040148Y-101396268D01*
X150021270Y-101599999D01*
X149699232Y-101599999D01*
X149680345Y-101396179D01*
X149624328Y-101199299D01*
X149612252Y-101175048D01*
X149533089Y-101016066D01*
X149502886Y-100976072D01*
X149409732Y-100852715D01*
X149258462Y-100714814D01*
X149171049Y-100660690D01*
X149084428Y-100607056D01*
X148988991Y-100570083D01*
X148893556Y-100533112D01*
X148692347Y-100495500D01*
X148487653Y-100495500D01*
X148286443Y-100533111D01*
X148286444Y-100533112D01*
X148095571Y-100607056D01*
X147921539Y-100714813D01*
X147770267Y-100852716D01*
X147646910Y-101016066D01*
X147555672Y-101199297D01*
X147499654Y-101396180D01*
X147480767Y-101600000D01*
X147159232Y-101600000D01*
X147140345Y-101396179D01*
X147084328Y-101199299D01*
X147072252Y-101175048D01*
X146993089Y-101016066D01*
X146962886Y-100976071D01*
X146869732Y-100852715D01*
X146718462Y-100714814D01*
X146631049Y-100660690D01*
X146544428Y-100607056D01*
X146448991Y-100570083D01*
X146353556Y-100533112D01*
X146152347Y-100495500D01*
X145947653Y-100495500D01*
X145746444Y-100533111D01*
X145746444Y-100533112D01*
X145555571Y-100607056D01*
X145381539Y-100714813D01*
X145230267Y-100852716D01*
X145106910Y-101016066D01*
X145015672Y-101199297D01*
X144959654Y-101396180D01*
X144940767Y-101600000D01*
X143984500Y-101600000D01*
X143984500Y-92774557D01*
X143987379Y-92747775D01*
X143988157Y-92744199D01*
X143984821Y-92697549D01*
X143984500Y-92688562D01*
X143984500Y-92676066D01*
X143984500Y-92676065D01*
X143982719Y-92663684D01*
X143981761Y-92654772D01*
X143978424Y-92608101D01*
X143977144Y-92604669D01*
X143970483Y-92578573D01*
X143969961Y-92574943D01*
X143950525Y-92532386D01*
X143947089Y-92524089D01*
X143930741Y-92480259D01*
X143930741Y-92480258D01*
X143928542Y-92477321D01*
X143914801Y-92454162D01*
X143913279Y-92450828D01*
X143882647Y-92415477D01*
X143877007Y-92408478D01*
X143869518Y-92398474D01*
X143860674Y-92389630D01*
X143854556Y-92383059D01*
X143823925Y-92347709D01*
X143820844Y-92345729D01*
X143799870Y-92328826D01*
X140081172Y-88610128D01*
X140064269Y-88589154D01*
X140062290Y-88586074D01*
X140026936Y-88555439D01*
X140020368Y-88549324D01*
X140011526Y-88540482D01*
X140001518Y-88532989D01*
X139994521Y-88527351D01*
X139959172Y-88496721D01*
X139959170Y-88496720D01*
X139955838Y-88495198D01*
X139932673Y-88481453D01*
X139929740Y-88479257D01*
X139885917Y-88462912D01*
X139877609Y-88459471D01*
X139835056Y-88440038D01*
X139831419Y-88439515D01*
X139805338Y-88432857D01*
X139801902Y-88431575D01*
X139755240Y-88428238D01*
X139746306Y-88427278D01*
X139737790Y-88426054D01*
X139733935Y-88425500D01*
X139733934Y-88425500D01*
X139721436Y-88425500D01*
X139712449Y-88425179D01*
X139665801Y-88421843D01*
X139662225Y-88422621D01*
X139635443Y-88425500D01*
X136138735Y-88425500D01*
X136070614Y-88405498D01*
X136049640Y-88388595D01*
X134761294Y-87100249D01*
X134727268Y-87037937D01*
X134732333Y-86967122D01*
X134774880Y-86910286D01*
X134841400Y-86885475D01*
X134910774Y-86900566D01*
X134920380Y-86906382D01*
X135198649Y-87092316D01*
X135528837Y-87268805D01*
X135874733Y-87412080D01*
X136233008Y-87520761D01*
X136600209Y-87593802D01*
X136972802Y-87630500D01*
X136975894Y-87630500D01*
X137344106Y-87630500D01*
X137347198Y-87630500D01*
X137719791Y-87593802D01*
X138086992Y-87520761D01*
X138445267Y-87412080D01*
X138791163Y-87268805D01*
X139121351Y-87092316D01*
X139432649Y-86884313D01*
X139722061Y-86646799D01*
X139734163Y-86634696D01*
X139734568Y-86634475D01*
X139737033Y-86631882D01*
X139739192Y-86629667D01*
X139986799Y-86382061D01*
X140001537Y-86364101D01*
X140003755Y-86362590D01*
X140018917Y-86343003D01*
X140021091Y-86340275D01*
X140224313Y-86092649D01*
X140240631Y-86068226D01*
X140244366Y-86065105D01*
X140266217Y-86030048D01*
X140268359Y-86026728D01*
X140432316Y-85781351D01*
X140449056Y-85750031D01*
X140453960Y-85745038D01*
X140477929Y-85696176D01*
X140479931Y-85692269D01*
X140608805Y-85451163D01*
X140624745Y-85412679D01*
X140630447Y-85405603D01*
X140653020Y-85344655D01*
X140654755Y-85340227D01*
X140752080Y-85105267D01*
X140765960Y-85059509D01*
X140772064Y-85050195D01*
X140790519Y-84978916D01*
X140791923Y-84973921D01*
X140859862Y-84749957D01*
X140859867Y-84749938D01*
X140860761Y-84746992D01*
X140871288Y-84694068D01*
X140877382Y-84682417D01*
X140889614Y-84602570D01*
X140890574Y-84597110D01*
X140933802Y-84379791D01*
X140939694Y-84319962D01*
X140945357Y-84305938D01*
X140949747Y-84219345D01*
X140950188Y-84213418D01*
X140970500Y-84007198D01*
X140970500Y-83946499D01*
X140990502Y-83878379D01*
X141044158Y-83831886D01*
X141096500Y-83820500D01*
X166365045Y-83820500D01*
X166374929Y-83820887D01*
X166427001Y-83824986D01*
X166567429Y-83837272D01*
X166585846Y-83840271D01*
X166664452Y-83859143D01*
X166667537Y-83859927D01*
X166772681Y-83888100D01*
X166788265Y-83893390D01*
X166868446Y-83926602D01*
X166873413Y-83928787D01*
X166966686Y-83972282D01*
X166979237Y-83979026D01*
X167055121Y-84025528D01*
X167061505Y-84029713D01*
X167144082Y-84087534D01*
X167153630Y-84094928D01*
X167221919Y-84153252D01*
X167229184Y-84159968D01*
X167300030Y-84230814D01*
X167306746Y-84238079D01*
X167365070Y-84306368D01*
X167372469Y-84315923D01*
X167430275Y-84398479D01*
X167434482Y-84404895D01*
X167480963Y-84480744D01*
X167487726Y-84493330D01*
X167531200Y-84586561D01*
X167533414Y-84591593D01*
X167566603Y-84671719D01*
X167571901Y-84687326D01*
X167600057Y-84792406D01*
X167600869Y-84795604D01*
X167619724Y-84874144D01*
X167622725Y-84892574D01*
X167635019Y-85033082D01*
X167636135Y-85047249D01*
X167639112Y-85085065D01*
X167639500Y-85094940D01*
X167639500Y-106675055D01*
X167639111Y-106684942D01*
X167635020Y-106736916D01*
X167622726Y-106877426D01*
X167619725Y-106895853D01*
X167600869Y-106974395D01*
X167600057Y-106977592D01*
X167571901Y-107082672D01*
X167566603Y-107098279D01*
X167533414Y-107178405D01*
X167531200Y-107183437D01*
X167487726Y-107276668D01*
X167480963Y-107289254D01*
X167434482Y-107365103D01*
X167430263Y-107371538D01*
X167372472Y-107454071D01*
X167365070Y-107463630D01*
X167306746Y-107531919D01*
X167300030Y-107539184D01*
X167229184Y-107610030D01*
X167221919Y-107616746D01*
X167153630Y-107675070D01*
X167144071Y-107682472D01*
X167061538Y-107740263D01*
X167055103Y-107744482D01*
X166979254Y-107790963D01*
X166966668Y-107797726D01*
X166873437Y-107841200D01*
X166868405Y-107843414D01*
X166788279Y-107876603D01*
X166772672Y-107881901D01*
X166667592Y-107910057D01*
X166664394Y-107910869D01*
X166585854Y-107929724D01*
X166567424Y-107932725D01*
X166426917Y-107945019D01*
X166390836Y-107947860D01*
X166374921Y-107949112D01*
X166365059Y-107949500D01*
X162585158Y-107949500D01*
X162584952Y-107949459D01*
X162559999Y-107949459D01*
X162559900Y-107949500D01*
X162559618Y-107949615D01*
X162559617Y-107949617D01*
X162559459Y-107950000D01*
X162559476Y-107975014D01*
X162559471Y-107975014D01*
X162559500Y-107975157D01*
X162559500Y-120645055D01*
X162559111Y-120654942D01*
X162555020Y-120706916D01*
X162542726Y-120847426D01*
X162539725Y-120865853D01*
X162520869Y-120944395D01*
X162520057Y-120947592D01*
X162491901Y-121052672D01*
X162486603Y-121068279D01*
X162453414Y-121148405D01*
X162451200Y-121153437D01*
X162407726Y-121246668D01*
X162400963Y-121259254D01*
X162354482Y-121335103D01*
X162350263Y-121341538D01*
X162292472Y-121424071D01*
X162285070Y-121433630D01*
X162226746Y-121501919D01*
X162220030Y-121509184D01*
X162149184Y-121580030D01*
X162141919Y-121586746D01*
X162073630Y-121645070D01*
X162064071Y-121652472D01*
X161981538Y-121710263D01*
X161975103Y-121714482D01*
X161899254Y-121760963D01*
X161886668Y-121767726D01*
X161793437Y-121811200D01*
X161788405Y-121813414D01*
X161708279Y-121846603D01*
X161692672Y-121851901D01*
X161587592Y-121880057D01*
X161584394Y-121880869D01*
X161505854Y-121899724D01*
X161487424Y-121902725D01*
X161346917Y-121915019D01*
X161310836Y-121917860D01*
X161294921Y-121919112D01*
X161285059Y-121919500D01*
X141096500Y-121919500D01*
X141028379Y-121899498D01*
X140981886Y-121845842D01*
X140970500Y-121793500D01*
X140970500Y-121735894D01*
X140970500Y-121732802D01*
X140950190Y-121526603D01*
X140949747Y-121520650D01*
X140945565Y-121438197D01*
X140939695Y-121420043D01*
X140934106Y-121363297D01*
X140934106Y-121363296D01*
X140933802Y-121360209D01*
X140890581Y-121142927D01*
X140889617Y-121137442D01*
X140877928Y-121061140D01*
X140871288Y-121045932D01*
X140870565Y-121042297D01*
X140860761Y-120993008D01*
X140791925Y-120766086D01*
X140790524Y-120761098D01*
X140772827Y-120692751D01*
X140765960Y-120680490D01*
X140752976Y-120637686D01*
X140752974Y-120637681D01*
X140752080Y-120634733D01*
X140654766Y-120399797D01*
X140653028Y-120395364D01*
X140631308Y-120336718D01*
X140624745Y-120327320D01*
X140609990Y-120291698D01*
X140608805Y-120288837D01*
X140479942Y-120047751D01*
X140477941Y-120043845D01*
X140454801Y-119996671D01*
X140449057Y-119989969D01*
X140432316Y-119958649D01*
X140268383Y-119713306D01*
X140266232Y-119709974D01*
X140245068Y-119676019D01*
X140240631Y-119671773D01*
X140226040Y-119649936D01*
X140226038Y-119649933D01*
X140224313Y-119647351D01*
X140106076Y-119503279D01*
X140021176Y-119399827D01*
X140018938Y-119397021D01*
X140004204Y-119377986D01*
X140001538Y-119375899D01*
X139986799Y-119357939D01*
X139739310Y-119110450D01*
X139737081Y-119108164D01*
X139734663Y-119105620D01*
X139734163Y-119105303D01*
X139724264Y-119095404D01*
X139722061Y-119093201D01*
X139432649Y-118855687D01*
X139121351Y-118647684D01*
X138791163Y-118471195D01*
X138788309Y-118470013D01*
X138788301Y-118470009D01*
X138448117Y-118329100D01*
X138448107Y-118329096D01*
X138445267Y-118327920D01*
X138442325Y-118327027D01*
X138442318Y-118327025D01*
X138089938Y-118220132D01*
X138089925Y-118220128D01*
X138086992Y-118219239D01*
X138083966Y-118218637D01*
X137722832Y-118146802D01*
X137722814Y-118146799D01*
X137719791Y-118146198D01*
X137716714Y-118145894D01*
X137716701Y-118145893D01*
X137350278Y-118109803D01*
X137350270Y-118109802D01*
X137347198Y-118109500D01*
X136972802Y-118109500D01*
X136969730Y-118109802D01*
X136969721Y-118109803D01*
X136603298Y-118145893D01*
X136603282Y-118145895D01*
X136600209Y-118146198D01*
X136597188Y-118146798D01*
X136597167Y-118146802D01*
X136236033Y-118218637D01*
X136236027Y-118218638D01*
X136233008Y-118219239D01*
X136230079Y-118220127D01*
X136230061Y-118220132D01*
X135877681Y-118327025D01*
X135877667Y-118327029D01*
X135874733Y-118327920D01*
X135871898Y-118329094D01*
X135871882Y-118329100D01*
X135531698Y-118470009D01*
X135531682Y-118470016D01*
X135528837Y-118471195D01*
X135526108Y-118472653D01*
X135526103Y-118472656D01*
X135201381Y-118646223D01*
X135201369Y-118646229D01*
X135198649Y-118647684D01*
X135196085Y-118649397D01*
X135196072Y-118649405D01*
X134889932Y-118853962D01*
X134889926Y-118853966D01*
X134887351Y-118855687D01*
X134884955Y-118857653D01*
X134884946Y-118857660D01*
X134600347Y-119091224D01*
X134600337Y-119091232D01*
X134597939Y-119093201D01*
X134595744Y-119095395D01*
X134595744Y-119095396D01*
X134585832Y-119105308D01*
X134585417Y-119105534D01*
X134582889Y-119108194D01*
X134580668Y-119110471D01*
X134333201Y-119357939D01*
X134331228Y-119360341D01*
X134331228Y-119360343D01*
X134318458Y-119375903D01*
X134316237Y-119377415D01*
X134301054Y-119397029D01*
X134298819Y-119399833D01*
X134097661Y-119644946D01*
X134095687Y-119647351D01*
X134093968Y-119649922D01*
X134093961Y-119649933D01*
X134079363Y-119671780D01*
X134075626Y-119674902D01*
X134053755Y-119709991D01*
X134051592Y-119713342D01*
X133889405Y-119956072D01*
X133889397Y-119956085D01*
X133887684Y-119958649D01*
X133886229Y-119961369D01*
X133886223Y-119961381D01*
X133870941Y-119989972D01*
X133866034Y-119994967D01*
X133842046Y-120043869D01*
X133840045Y-120047774D01*
X133712656Y-120286103D01*
X133711195Y-120288837D01*
X133710017Y-120291680D01*
X133710007Y-120291702D01*
X133695252Y-120327325D01*
X133689547Y-120334404D01*
X133666961Y-120395387D01*
X133665214Y-120399844D01*
X133569100Y-120631882D01*
X133569094Y-120631898D01*
X133567920Y-120634733D01*
X133567030Y-120637663D01*
X133567018Y-120637700D01*
X133554037Y-120680495D01*
X133547933Y-120689808D01*
X133529469Y-120761121D01*
X133528066Y-120766114D01*
X133460132Y-120990061D01*
X133460127Y-120990079D01*
X133459239Y-120993008D01*
X133458641Y-120996012D01*
X133458639Y-120996022D01*
X133448709Y-121045944D01*
X133442614Y-121057594D01*
X133430379Y-121137460D01*
X133429411Y-121142960D01*
X133386802Y-121357167D01*
X133386798Y-121357188D01*
X133386198Y-121360209D01*
X133385895Y-121363276D01*
X133385893Y-121363296D01*
X133380298Y-121420109D01*
X133374640Y-121434120D01*
X133370251Y-121520666D01*
X133369806Y-121526634D01*
X133351719Y-121710275D01*
X133349500Y-121732802D01*
X133349500Y-121735893D01*
X133349500Y-121735894D01*
X133349500Y-121793500D01*
X133329498Y-121861621D01*
X133275842Y-121908114D01*
X133223500Y-121919500D01*
X130814945Y-121919500D01*
X130805058Y-121919111D01*
X130753083Y-121915020D01*
X130612572Y-121902726D01*
X130594145Y-121899725D01*
X130515603Y-121880869D01*
X130512406Y-121880057D01*
X130407326Y-121851901D01*
X130391719Y-121846603D01*
X130311593Y-121813414D01*
X130306561Y-121811200D01*
X130248426Y-121784091D01*
X130213326Y-121767723D01*
X130200749Y-121760966D01*
X130124894Y-121714481D01*
X130118479Y-121710275D01*
X130035923Y-121652469D01*
X130026368Y-121645070D01*
X129958079Y-121586746D01*
X129950814Y-121580030D01*
X129879968Y-121509184D01*
X129873252Y-121501919D01*
X129814928Y-121433630D01*
X129807534Y-121424082D01*
X129749713Y-121341505D01*
X129745528Y-121335121D01*
X129699026Y-121259237D01*
X129692282Y-121246686D01*
X129648787Y-121153413D01*
X129646602Y-121148446D01*
X129613390Y-121068265D01*
X129608100Y-121052681D01*
X129579927Y-120947537D01*
X129579139Y-120944434D01*
X129560274Y-120865853D01*
X129557272Y-120847423D01*
X129551323Y-120779427D01*
X129544979Y-120706916D01*
X129540888Y-120654924D01*
X129540500Y-120645050D01*
X129540500Y-120255068D01*
X130975500Y-120255068D01*
X130990265Y-120329300D01*
X131046515Y-120413484D01*
X131102764Y-120451068D01*
X131130699Y-120469734D01*
X131204933Y-120484500D01*
X132955066Y-120484499D01*
X132955068Y-120484499D01*
X133004555Y-120474655D01*
X133029301Y-120469734D01*
X133113484Y-120413484D01*
X133169734Y-120329301D01*
X133184500Y-120255067D01*
X133184499Y-118504934D01*
X133184499Y-118504933D01*
X133184499Y-118504931D01*
X133169734Y-118430699D01*
X133113484Y-118346515D01*
X133029301Y-118290266D01*
X133029296Y-118290265D01*
X132955067Y-118275500D01*
X132955066Y-118275500D01*
X131204931Y-118275500D01*
X131130699Y-118290265D01*
X131046515Y-118346515D01*
X130990266Y-118430698D01*
X130975500Y-118504933D01*
X130975500Y-120255068D01*
X129540500Y-120255068D01*
X129540500Y-116585999D01*
X131004450Y-116585999D01*
X131004451Y-116586000D01*
X131648884Y-116586000D01*
X131620507Y-116630156D01*
X131580000Y-116768111D01*
X131580000Y-116911889D01*
X131620507Y-117049844D01*
X131648884Y-117094000D01*
X131004451Y-117094000D01*
X131046140Y-117240522D01*
X131137337Y-117423669D01*
X131260638Y-117586945D01*
X131411844Y-117724788D01*
X131585792Y-117832492D01*
X131776581Y-117906404D01*
X131825999Y-117915641D01*
X131825999Y-117273674D01*
X131937685Y-117324680D01*
X132044237Y-117340000D01*
X132115763Y-117340000D01*
X132222315Y-117324680D01*
X132334000Y-117273674D01*
X132334000Y-117915642D01*
X132383419Y-117906404D01*
X132574204Y-117832493D01*
X132748155Y-117724788D01*
X132899361Y-117586945D01*
X133022662Y-117423669D01*
X133113859Y-117240522D01*
X133155549Y-117094000D01*
X132511116Y-117094000D01*
X132539493Y-117049844D01*
X132580000Y-116911889D01*
X132580000Y-116768111D01*
X132539493Y-116630156D01*
X132511116Y-116586000D01*
X133155549Y-116586000D01*
X133155549Y-116585999D01*
X133113859Y-116439477D01*
X133022662Y-116256330D01*
X132899361Y-116093054D01*
X132748155Y-115955211D01*
X132574204Y-115847506D01*
X132383422Y-115773596D01*
X132334000Y-115764357D01*
X132334000Y-116406325D01*
X132222315Y-116355320D01*
X132115763Y-116340000D01*
X132044237Y-116340000D01*
X131937685Y-116355320D01*
X131825999Y-116406325D01*
X131825999Y-115764357D01*
X131776577Y-115773596D01*
X131585795Y-115847506D01*
X131411844Y-115955211D01*
X131260638Y-116093054D01*
X131137337Y-116256330D01*
X131046140Y-116439477D01*
X131004450Y-116585999D01*
X129540500Y-116585999D01*
X129540500Y-114299999D01*
X130970767Y-114299999D01*
X130989654Y-114503819D01*
X131045672Y-114700702D01*
X131136910Y-114883933D01*
X131197314Y-114963921D01*
X131260268Y-115047285D01*
X131411538Y-115185186D01*
X131585573Y-115292944D01*
X131776444Y-115366888D01*
X131977653Y-115404500D01*
X131977655Y-115404500D01*
X132182345Y-115404500D01*
X132182347Y-115404500D01*
X132383556Y-115366888D01*
X132574427Y-115292944D01*
X132748462Y-115185186D01*
X132899732Y-115047285D01*
X133023088Y-114883935D01*
X133042805Y-114844336D01*
X133091075Y-114792273D01*
X133155596Y-114774500D01*
X148525443Y-114774500D01*
X148552224Y-114777378D01*
X148555801Y-114778157D01*
X148600659Y-114774948D01*
X148602449Y-114774821D01*
X148611436Y-114774500D01*
X148623935Y-114774500D01*
X148636309Y-114772720D01*
X148645231Y-114771760D01*
X148691899Y-114768424D01*
X148695326Y-114767146D01*
X148721434Y-114760482D01*
X148722355Y-114760349D01*
X148725057Y-114759961D01*
X148767625Y-114740520D01*
X148775912Y-114737088D01*
X148819742Y-114720741D01*
X148822674Y-114718545D01*
X148845842Y-114704799D01*
X148849172Y-114703279D01*
X148884552Y-114672620D01*
X148891497Y-114667024D01*
X148901526Y-114659518D01*
X148910361Y-114650681D01*
X148916948Y-114644550D01*
X148952287Y-114613929D01*
X148952287Y-114613928D01*
X148952290Y-114613926D01*
X148954269Y-114610844D01*
X148971168Y-114589874D01*
X151419876Y-112141167D01*
X151440851Y-112124265D01*
X151443926Y-112122290D01*
X151474561Y-112086934D01*
X151480661Y-112080382D01*
X151489518Y-112071527D01*
X151497023Y-112061498D01*
X151502653Y-112054513D01*
X151533279Y-112019172D01*
X151534800Y-112015839D01*
X151548548Y-111992671D01*
X151550741Y-111989742D01*
X151567086Y-111945915D01*
X151570513Y-111937641D01*
X151589961Y-111895057D01*
X151590482Y-111891427D01*
X151597143Y-111865330D01*
X151598423Y-111861899D01*
X151601759Y-111815249D01*
X151602719Y-111806319D01*
X151604500Y-111793935D01*
X151604500Y-111781432D01*
X151604821Y-111772444D01*
X151605711Y-111759999D01*
X151608157Y-111725802D01*
X151607379Y-111722224D01*
X151604500Y-111695444D01*
X151604500Y-105215463D01*
X151624502Y-105147342D01*
X151664166Y-105108338D01*
X151798462Y-105025186D01*
X151949732Y-104887285D01*
X152073088Y-104723935D01*
X152164328Y-104540701D01*
X152220345Y-104343821D01*
X152239232Y-104140000D01*
X152560767Y-104140000D01*
X152579654Y-104343819D01*
X152635672Y-104540702D01*
X152726910Y-104723933D01*
X152787314Y-104803921D01*
X152850268Y-104887285D01*
X153001538Y-105025186D01*
X153175573Y-105132944D01*
X153366444Y-105206888D01*
X153567653Y-105244500D01*
X153567655Y-105244500D01*
X153772345Y-105244500D01*
X153772347Y-105244500D01*
X153973556Y-105206888D01*
X154164427Y-105132944D01*
X154338462Y-105025186D01*
X154489732Y-104887285D01*
X154613088Y-104723935D01*
X154704328Y-104540701D01*
X154760345Y-104343821D01*
X154779232Y-104140000D01*
X155100767Y-104140000D01*
X155119654Y-104343819D01*
X155175672Y-104540702D01*
X155266910Y-104723933D01*
X155327314Y-104803921D01*
X155390268Y-104887285D01*
X155541538Y-105025186D01*
X155675832Y-105108337D01*
X155723218Y-105161202D01*
X155735500Y-105215463D01*
X155735500Y-106615443D01*
X155732621Y-106642223D01*
X155731843Y-106645799D01*
X155735179Y-106692448D01*
X155735500Y-106701436D01*
X155735500Y-106713934D01*
X155737278Y-106726306D01*
X155738238Y-106735240D01*
X155741575Y-106781902D01*
X155742857Y-106785338D01*
X155749515Y-106811419D01*
X155750038Y-106815056D01*
X155769471Y-106857609D01*
X155772912Y-106865917D01*
X155789257Y-106909740D01*
X155791453Y-106912673D01*
X155805198Y-106935838D01*
X155806721Y-106939172D01*
X155837242Y-106974395D01*
X155837351Y-106974521D01*
X155842989Y-106981518D01*
X155850482Y-106991526D01*
X155859324Y-107000368D01*
X155865439Y-107006936D01*
X155896074Y-107042290D01*
X155899156Y-107044270D01*
X155920128Y-107061172D01*
X156791569Y-107932613D01*
X156825595Y-107994925D01*
X156827555Y-108006520D01*
X156839850Y-108107780D01*
X156896212Y-108256394D01*
X156896213Y-108256395D01*
X156986502Y-108387201D01*
X157105471Y-108492599D01*
X157246207Y-108566463D01*
X157400529Y-108604500D01*
X157400531Y-108604500D01*
X157559469Y-108604500D01*
X157559471Y-108604500D01*
X157713793Y-108566463D01*
X157854529Y-108492599D01*
X157973498Y-108387201D01*
X158063787Y-108256395D01*
X158120149Y-108107782D01*
X158139307Y-107950000D01*
X158120149Y-107792218D01*
X158063787Y-107643605D01*
X157973498Y-107512799D01*
X157854529Y-107407401D01*
X157713793Y-107333537D01*
X157559471Y-107295500D01*
X157559469Y-107295500D01*
X157548735Y-107295500D01*
X157480614Y-107275498D01*
X157459640Y-107258595D01*
X156721405Y-106520360D01*
X156687379Y-106458048D01*
X156684500Y-106431265D01*
X156684500Y-105215463D01*
X156704502Y-105147342D01*
X156744166Y-105108338D01*
X156878462Y-105025186D01*
X157029732Y-104887285D01*
X157153088Y-104723935D01*
X157244328Y-104540701D01*
X157300345Y-104343821D01*
X157319232Y-104140000D01*
X157640767Y-104140000D01*
X157659654Y-104343819D01*
X157715672Y-104540702D01*
X157806910Y-104723933D01*
X157867314Y-104803921D01*
X157930268Y-104887285D01*
X158081538Y-105025186D01*
X158255573Y-105132944D01*
X158446444Y-105206888D01*
X158647653Y-105244500D01*
X158647655Y-105244500D01*
X158852345Y-105244500D01*
X158852347Y-105244500D01*
X159053556Y-105206888D01*
X159244427Y-105132944D01*
X159418462Y-105025186D01*
X159569732Y-104887285D01*
X159693088Y-104723935D01*
X159784328Y-104540701D01*
X159840345Y-104343821D01*
X159859232Y-104140000D01*
X160180767Y-104140000D01*
X160199654Y-104343819D01*
X160255672Y-104540702D01*
X160346910Y-104723933D01*
X160407314Y-104803921D01*
X160470268Y-104887285D01*
X160621538Y-105025186D01*
X160795573Y-105132944D01*
X160986444Y-105206888D01*
X161187653Y-105244500D01*
X161187655Y-105244500D01*
X161392345Y-105244500D01*
X161392347Y-105244500D01*
X161593556Y-105206888D01*
X161784427Y-105132944D01*
X161958462Y-105025186D01*
X162109732Y-104887285D01*
X162233088Y-104723935D01*
X162324328Y-104540701D01*
X162380345Y-104343821D01*
X162399232Y-104140000D01*
X162380345Y-103936179D01*
X162324328Y-103739299D01*
X162323585Y-103737807D01*
X162233089Y-103556066D01*
X162180527Y-103486463D01*
X162109732Y-103392715D01*
X161958462Y-103254814D01*
X161840095Y-103181524D01*
X161784428Y-103147056D01*
X161688991Y-103110084D01*
X161593556Y-103073112D01*
X161392347Y-103035500D01*
X161187653Y-103035500D01*
X160986443Y-103073111D01*
X160986444Y-103073112D01*
X160795571Y-103147056D01*
X160621539Y-103254813D01*
X160470267Y-103392716D01*
X160346910Y-103556066D01*
X160255672Y-103739297D01*
X160199654Y-103936180D01*
X160180767Y-104140000D01*
X159859232Y-104140000D01*
X159840345Y-103936179D01*
X159784328Y-103739299D01*
X159783585Y-103737807D01*
X159693089Y-103556066D01*
X159640527Y-103486463D01*
X159569732Y-103392715D01*
X159418462Y-103254814D01*
X159300095Y-103181524D01*
X159244428Y-103147056D01*
X159148991Y-103110083D01*
X159053556Y-103073112D01*
X158852347Y-103035500D01*
X158647653Y-103035500D01*
X158446443Y-103073111D01*
X158446444Y-103073112D01*
X158255571Y-103147056D01*
X158081539Y-103254813D01*
X157930267Y-103392716D01*
X157806910Y-103556066D01*
X157715672Y-103739297D01*
X157659654Y-103936180D01*
X157640767Y-104140000D01*
X157319232Y-104140000D01*
X157300345Y-103936179D01*
X157244328Y-103739299D01*
X157243585Y-103737807D01*
X157153089Y-103556066D01*
X157100527Y-103486463D01*
X157029732Y-103392715D01*
X156878462Y-103254814D01*
X156760095Y-103181524D01*
X156704428Y-103147056D01*
X156608991Y-103110083D01*
X156513556Y-103073112D01*
X156312347Y-103035500D01*
X156107653Y-103035500D01*
X155906443Y-103073111D01*
X155906444Y-103073112D01*
X155715571Y-103147056D01*
X155541539Y-103254813D01*
X155390267Y-103392716D01*
X155266910Y-103556066D01*
X155175672Y-103739297D01*
X155119654Y-103936180D01*
X155100767Y-104140000D01*
X154779232Y-104140000D01*
X154760345Y-103936179D01*
X154704328Y-103739299D01*
X154703585Y-103737807D01*
X154613089Y-103556066D01*
X154560527Y-103486463D01*
X154489732Y-103392715D01*
X154338462Y-103254814D01*
X154220095Y-103181524D01*
X154164428Y-103147056D01*
X154068991Y-103110083D01*
X153973556Y-103073112D01*
X153772347Y-103035500D01*
X153567653Y-103035500D01*
X153366444Y-103073111D01*
X153366444Y-103073112D01*
X153175571Y-103147056D01*
X153001539Y-103254813D01*
X152850267Y-103392716D01*
X152726910Y-103556066D01*
X152635672Y-103739297D01*
X152579654Y-103936180D01*
X152560767Y-104140000D01*
X152239232Y-104140000D01*
X152220345Y-103936179D01*
X152164328Y-103739299D01*
X152163585Y-103737807D01*
X152073089Y-103556066D01*
X152020527Y-103486463D01*
X151949732Y-103392715D01*
X151798462Y-103254814D01*
X151680095Y-103181524D01*
X151624428Y-103147056D01*
X151528991Y-103110083D01*
X151433556Y-103073112D01*
X151232347Y-103035500D01*
X151027653Y-103035500D01*
X150826443Y-103073111D01*
X150826444Y-103073112D01*
X150635571Y-103147056D01*
X150461539Y-103254813D01*
X150310267Y-103392716D01*
X150186910Y-103556066D01*
X150095672Y-103739297D01*
X150039654Y-103936180D01*
X150020767Y-104140000D01*
X150039654Y-104343819D01*
X150095672Y-104540702D01*
X150186910Y-104723933D01*
X150247314Y-104803921D01*
X150310268Y-104887285D01*
X150461538Y-105025186D01*
X150595832Y-105108337D01*
X150643218Y-105161202D01*
X150655500Y-105215463D01*
X150655500Y-111511265D01*
X150635498Y-111579386D01*
X150618595Y-111600360D01*
X148430361Y-113788595D01*
X148368049Y-113822620D01*
X148341266Y-113825500D01*
X133155596Y-113825500D01*
X133087475Y-113805498D01*
X133042805Y-113755663D01*
X133023088Y-113716066D01*
X133023088Y-113716065D01*
X132899732Y-113552715D01*
X132748462Y-113414814D01*
X132700087Y-113384861D01*
X132574428Y-113307056D01*
X132478991Y-113270083D01*
X132383556Y-113233112D01*
X132182347Y-113195500D01*
X131977653Y-113195500D01*
X131776444Y-113233111D01*
X131776444Y-113233112D01*
X131585571Y-113307056D01*
X131411539Y-113414813D01*
X131260267Y-113552716D01*
X131136910Y-113716066D01*
X131045672Y-113899297D01*
X130989654Y-114096180D01*
X130970767Y-114299999D01*
X129540500Y-114299999D01*
X129540500Y-111759999D01*
X130970767Y-111759999D01*
X130989654Y-111963819D01*
X131045672Y-112160702D01*
X131136910Y-112343933D01*
X131197314Y-112423921D01*
X131260268Y-112507285D01*
X131411538Y-112645186D01*
X131585573Y-112752944D01*
X131776444Y-112826888D01*
X131977653Y-112864500D01*
X131977655Y-112864500D01*
X132182345Y-112864500D01*
X132182347Y-112864500D01*
X132383556Y-112826888D01*
X132574427Y-112752944D01*
X132748462Y-112645186D01*
X132899732Y-112507285D01*
X133023088Y-112343935D01*
X133042805Y-112304336D01*
X133091075Y-112252273D01*
X133155596Y-112234500D01*
X145985443Y-112234500D01*
X146012224Y-112237378D01*
X146015801Y-112238157D01*
X146060659Y-112234948D01*
X146062449Y-112234821D01*
X146071436Y-112234500D01*
X146083935Y-112234500D01*
X146096309Y-112232720D01*
X146105231Y-112231760D01*
X146151899Y-112228424D01*
X146155326Y-112227146D01*
X146181434Y-112220482D01*
X146182355Y-112220349D01*
X146185057Y-112219961D01*
X146227625Y-112200520D01*
X146235912Y-112197088D01*
X146279742Y-112180741D01*
X146282674Y-112178545D01*
X146305842Y-112164799D01*
X146309172Y-112163279D01*
X146344552Y-112132620D01*
X146351497Y-112127024D01*
X146361526Y-112119518D01*
X146370361Y-112110681D01*
X146376948Y-112104550D01*
X146412287Y-112073929D01*
X146412287Y-112073928D01*
X146412290Y-112073926D01*
X146414269Y-112070844D01*
X146431168Y-112049874D01*
X148879876Y-109601167D01*
X148900851Y-109584265D01*
X148903926Y-109582290D01*
X148934561Y-109546934D01*
X148940661Y-109540382D01*
X148949518Y-109531527D01*
X148957023Y-109521498D01*
X148962653Y-109514513D01*
X148993279Y-109479172D01*
X148994800Y-109475839D01*
X149008548Y-109452671D01*
X149010741Y-109449742D01*
X149027086Y-109405915D01*
X149030513Y-109397641D01*
X149049961Y-109355057D01*
X149050482Y-109351427D01*
X149057143Y-109325330D01*
X149058423Y-109321899D01*
X149061759Y-109275249D01*
X149062719Y-109266319D01*
X149064500Y-109253935D01*
X149064500Y-109241432D01*
X149064821Y-109232444D01*
X149065711Y-109220000D01*
X149068157Y-109185802D01*
X149067379Y-109182224D01*
X149064500Y-109155444D01*
X149064500Y-105215463D01*
X149084502Y-105147342D01*
X149124166Y-105108338D01*
X149258462Y-105025186D01*
X149409732Y-104887285D01*
X149533088Y-104723935D01*
X149624328Y-104540701D01*
X149680345Y-104343821D01*
X149699232Y-104140000D01*
X149680345Y-103936179D01*
X149624328Y-103739299D01*
X149623585Y-103737807D01*
X149533089Y-103556066D01*
X149480527Y-103486463D01*
X149409732Y-103392715D01*
X149258462Y-103254814D01*
X149140095Y-103181524D01*
X149084428Y-103147056D01*
X148988991Y-103110083D01*
X148893556Y-103073112D01*
X148692347Y-103035500D01*
X148487653Y-103035500D01*
X148286444Y-103073111D01*
X148286444Y-103073112D01*
X148095571Y-103147056D01*
X147921539Y-103254813D01*
X147770267Y-103392716D01*
X147646910Y-103556066D01*
X147555672Y-103739297D01*
X147499654Y-103936180D01*
X147480767Y-104140000D01*
X147499654Y-104343819D01*
X147555672Y-104540702D01*
X147646910Y-104723933D01*
X147707314Y-104803921D01*
X147770268Y-104887285D01*
X147921538Y-105025186D01*
X148055832Y-105108337D01*
X148103218Y-105161202D01*
X148115500Y-105215463D01*
X148115500Y-108971265D01*
X148095498Y-109039386D01*
X148078595Y-109060360D01*
X145890361Y-111248595D01*
X145828049Y-111282620D01*
X145801266Y-111285500D01*
X133155596Y-111285500D01*
X133087475Y-111265498D01*
X133042805Y-111215663D01*
X133023088Y-111176066D01*
X133023088Y-111176065D01*
X132899732Y-111012715D01*
X132748462Y-110874814D01*
X132700087Y-110844861D01*
X132574428Y-110767056D01*
X132478991Y-110730083D01*
X132383556Y-110693112D01*
X132182347Y-110655500D01*
X131977653Y-110655500D01*
X131776443Y-110693111D01*
X131776444Y-110693112D01*
X131585571Y-110767056D01*
X131411539Y-110874813D01*
X131260267Y-111012716D01*
X131136910Y-111176066D01*
X131045672Y-111359297D01*
X130989654Y-111556180D01*
X130970767Y-111759999D01*
X129540500Y-111759999D01*
X129540500Y-109220000D01*
X130970767Y-109220000D01*
X130989654Y-109423819D01*
X131045672Y-109620702D01*
X131136910Y-109803933D01*
X131136912Y-109803935D01*
X131260268Y-109967285D01*
X131411538Y-110105186D01*
X131585573Y-110212944D01*
X131776444Y-110286888D01*
X131977653Y-110324500D01*
X131977655Y-110324500D01*
X132182345Y-110324500D01*
X132182347Y-110324500D01*
X132383556Y-110286888D01*
X132574427Y-110212944D01*
X132748462Y-110105186D01*
X132899732Y-109967285D01*
X133023088Y-109803935D01*
X133114328Y-109620701D01*
X133170345Y-109423821D01*
X133189232Y-109220000D01*
X133170345Y-109016179D01*
X133114328Y-108819299D01*
X133113585Y-108817807D01*
X133023089Y-108636066D01*
X132970527Y-108566463D01*
X132899732Y-108472715D01*
X132748462Y-108334814D01*
X132700087Y-108304861D01*
X132574428Y-108227056D01*
X132478991Y-108190083D01*
X132383556Y-108153112D01*
X132182347Y-108115500D01*
X131977653Y-108115500D01*
X131776444Y-108153111D01*
X131776444Y-108153112D01*
X131585571Y-108227056D01*
X131411539Y-108334813D01*
X131260267Y-108472716D01*
X131136910Y-108636066D01*
X131045672Y-108819297D01*
X130989654Y-109016180D01*
X130970767Y-109220000D01*
X129540500Y-109220000D01*
X129540500Y-106680000D01*
X130970767Y-106680000D01*
X130989654Y-106883819D01*
X131045672Y-107080702D01*
X131136910Y-107263933D01*
X131189473Y-107333537D01*
X131260268Y-107427285D01*
X131411538Y-107565186D01*
X131585573Y-107672944D01*
X131776444Y-107746888D01*
X131977653Y-107784500D01*
X131977655Y-107784500D01*
X132182345Y-107784500D01*
X132182347Y-107784500D01*
X132383556Y-107746888D01*
X132574427Y-107672944D01*
X132748462Y-107565186D01*
X132899732Y-107427285D01*
X133023088Y-107263935D01*
X133114328Y-107080701D01*
X133170345Y-106883821D01*
X133189232Y-106680000D01*
X133170345Y-106476179D01*
X133114328Y-106279299D01*
X133113585Y-106277807D01*
X133023089Y-106096066D01*
X132970527Y-106026463D01*
X132899732Y-105932715D01*
X132748462Y-105794814D01*
X132700087Y-105764861D01*
X132574428Y-105687056D01*
X132478991Y-105650083D01*
X132383556Y-105613112D01*
X132182347Y-105575500D01*
X131977653Y-105575500D01*
X131776444Y-105613111D01*
X131776444Y-105613112D01*
X131585571Y-105687056D01*
X131411539Y-105794813D01*
X131260267Y-105932716D01*
X131136910Y-106096066D01*
X131045672Y-106279297D01*
X130989654Y-106476180D01*
X130970767Y-106680000D01*
X129540500Y-106680000D01*
X129540500Y-104140000D01*
X130970767Y-104140000D01*
X130989654Y-104343819D01*
X131045672Y-104540702D01*
X131136910Y-104723933D01*
X131197314Y-104803921D01*
X131260268Y-104887285D01*
X131411538Y-105025186D01*
X131585573Y-105132944D01*
X131776444Y-105206888D01*
X131977653Y-105244500D01*
X131977655Y-105244500D01*
X132182345Y-105244500D01*
X132182347Y-105244500D01*
X132383556Y-105206888D01*
X132574427Y-105132944D01*
X132748462Y-105025186D01*
X132899732Y-104887285D01*
X133023088Y-104723935D01*
X133114328Y-104540701D01*
X133170345Y-104343821D01*
X133189232Y-104140000D01*
X133170345Y-103936179D01*
X133114328Y-103739299D01*
X133113585Y-103737807D01*
X133023089Y-103556066D01*
X132970527Y-103486463D01*
X132899732Y-103392715D01*
X132748462Y-103254814D01*
X132630095Y-103181524D01*
X132574428Y-103147056D01*
X132478991Y-103110083D01*
X132383556Y-103073112D01*
X132182347Y-103035500D01*
X131977653Y-103035500D01*
X131776444Y-103073111D01*
X131776444Y-103073112D01*
X131585571Y-103147056D01*
X131411539Y-103254813D01*
X131260267Y-103392716D01*
X131136910Y-103556066D01*
X131045672Y-103739297D01*
X130989654Y-103936180D01*
X130970767Y-104140000D01*
X129540500Y-104140000D01*
X129540500Y-102882448D01*
X129540500Y-101600000D01*
X130970767Y-101600000D01*
X130989654Y-101803819D01*
X131045672Y-102000702D01*
X131136910Y-102183933D01*
X131136912Y-102183935D01*
X131260268Y-102347285D01*
X131411538Y-102485186D01*
X131498948Y-102539308D01*
X131584844Y-102592493D01*
X131585573Y-102592944D01*
X131776444Y-102666888D01*
X131977653Y-102704500D01*
X131977655Y-102704500D01*
X132182345Y-102704500D01*
X132182347Y-102704500D01*
X132383556Y-102666888D01*
X132574427Y-102592944D01*
X132748462Y-102485186D01*
X132899732Y-102347285D01*
X133023088Y-102183935D01*
X133114328Y-102000701D01*
X133170345Y-101803821D01*
X133189232Y-101600000D01*
X133170345Y-101396179D01*
X133114328Y-101199299D01*
X133102252Y-101175048D01*
X133023089Y-101016066D01*
X132992886Y-100976071D01*
X132899732Y-100852715D01*
X132748462Y-100714814D01*
X132661049Y-100660690D01*
X132574428Y-100607056D01*
X132478991Y-100570083D01*
X132383556Y-100533112D01*
X132182347Y-100495500D01*
X131977653Y-100495500D01*
X131776444Y-100533111D01*
X131776444Y-100533112D01*
X131585571Y-100607056D01*
X131411539Y-100714813D01*
X131260267Y-100852716D01*
X131136910Y-101016066D01*
X131045672Y-101199297D01*
X130989654Y-101396180D01*
X130970767Y-101600000D01*
X129540500Y-101600000D01*
X129540500Y-99059999D01*
X130970767Y-99059999D01*
X130989654Y-99263819D01*
X131045672Y-99460702D01*
X131136910Y-99643933D01*
X131136912Y-99643935D01*
X131260268Y-99807285D01*
X131411538Y-99945186D01*
X131585573Y-100052944D01*
X131776444Y-100126888D01*
X131977653Y-100164500D01*
X131977655Y-100164500D01*
X132182345Y-100164500D01*
X132182347Y-100164500D01*
X132383556Y-100126888D01*
X132574427Y-100052944D01*
X132748462Y-99945186D01*
X132899732Y-99807285D01*
X133023088Y-99643935D01*
X133114328Y-99460701D01*
X133170345Y-99263821D01*
X133189232Y-99060000D01*
X133170345Y-98856179D01*
X133114328Y-98659299D01*
X133113585Y-98657807D01*
X133023089Y-98476066D01*
X132992886Y-98436072D01*
X132899732Y-98312715D01*
X132748462Y-98174814D01*
X132700087Y-98144861D01*
X132574428Y-98067056D01*
X132432182Y-98011950D01*
X132383556Y-97993112D01*
X132182347Y-97955500D01*
X131977653Y-97955500D01*
X131811580Y-97986544D01*
X131776444Y-97993112D01*
X131585571Y-98067056D01*
X131411539Y-98174813D01*
X131260267Y-98312716D01*
X131136910Y-98476066D01*
X131045672Y-98659297D01*
X130989654Y-98856180D01*
X130970767Y-99059999D01*
X129540500Y-99059999D01*
X129540500Y-96519999D01*
X130970767Y-96519999D01*
X130989654Y-96723819D01*
X131045672Y-96920702D01*
X131136910Y-97103933D01*
X131136912Y-97103935D01*
X131260268Y-97267285D01*
X131411538Y-97405186D01*
X131537198Y-97482991D01*
X131551884Y-97492085D01*
X131585573Y-97512944D01*
X131776444Y-97586888D01*
X131977653Y-97624500D01*
X131977655Y-97624500D01*
X132182345Y-97624500D01*
X132182347Y-97624500D01*
X132383556Y-97586888D01*
X132574427Y-97512944D01*
X132748462Y-97405186D01*
X132899732Y-97267285D01*
X133023088Y-97103935D01*
X133024743Y-97100610D01*
X133029357Y-97095632D01*
X133030124Y-97094618D01*
X133030226Y-97094695D01*
X133073006Y-97048547D01*
X133141760Y-97030840D01*
X133209171Y-97053115D01*
X133226629Y-97067673D01*
X134108595Y-97949640D01*
X134142620Y-98011950D01*
X134145499Y-98038733D01*
X134145499Y-104906012D01*
X134125497Y-104974133D01*
X134123195Y-104977588D01*
X134036212Y-105103605D01*
X133979850Y-105252219D01*
X133960693Y-105410000D01*
X133979850Y-105567780D01*
X134036212Y-105716394D01*
X134036213Y-105716395D01*
X134126502Y-105847201D01*
X134245471Y-105952599D01*
X134386207Y-106026463D01*
X134540529Y-106064500D01*
X134540531Y-106064500D01*
X134699469Y-106064500D01*
X134699471Y-106064500D01*
X134853793Y-106026463D01*
X134994529Y-105952599D01*
X135113498Y-105847201D01*
X135203787Y-105716395D01*
X135260149Y-105567782D01*
X135279307Y-105410000D01*
X135260149Y-105252218D01*
X135203787Y-105103605D01*
X135149658Y-105025186D01*
X135116804Y-104977588D01*
X135094568Y-104910163D01*
X135094500Y-104906012D01*
X135094500Y-97854554D01*
X135097380Y-97827770D01*
X135097456Y-97827418D01*
X135098157Y-97824198D01*
X135094821Y-97777554D01*
X135094500Y-97768566D01*
X135094500Y-97756067D01*
X135094500Y-97756065D01*
X135092718Y-97743677D01*
X135091759Y-97734748D01*
X135088423Y-97688102D01*
X135087145Y-97684675D01*
X135080482Y-97658568D01*
X135079961Y-97654943D01*
X135060524Y-97612383D01*
X135057084Y-97604077D01*
X135050673Y-97586888D01*
X135040741Y-97560258D01*
X135038547Y-97557327D01*
X135024800Y-97534157D01*
X135023280Y-97530829D01*
X134992655Y-97495487D01*
X134987006Y-97488477D01*
X134979518Y-97478473D01*
X134970667Y-97469622D01*
X134964549Y-97463051D01*
X134933924Y-97427707D01*
X134930848Y-97425731D01*
X134909871Y-97408827D01*
X133731172Y-96230128D01*
X133714269Y-96209154D01*
X133712290Y-96206074D01*
X133676936Y-96175439D01*
X133670368Y-96169324D01*
X133661526Y-96160482D01*
X133651518Y-96152989D01*
X133644521Y-96147351D01*
X133609172Y-96116721D01*
X133609170Y-96116720D01*
X133605838Y-96115198D01*
X133582673Y-96101453D01*
X133579740Y-96099257D01*
X133535917Y-96082912D01*
X133527609Y-96079471D01*
X133485056Y-96060038D01*
X133481419Y-96059515D01*
X133455338Y-96052857D01*
X133451902Y-96051575D01*
X133405240Y-96048238D01*
X133396306Y-96047278D01*
X133387790Y-96046054D01*
X133383935Y-96045500D01*
X133383934Y-96045500D01*
X133371436Y-96045500D01*
X133362449Y-96045179D01*
X133315801Y-96041843D01*
X133312225Y-96042621D01*
X133285443Y-96045500D01*
X133155596Y-96045500D01*
X133087475Y-96025498D01*
X133042805Y-95975663D01*
X133023088Y-95936066D01*
X133023088Y-95936065D01*
X132899732Y-95772715D01*
X132748462Y-95634814D01*
X132700087Y-95604861D01*
X132574428Y-95527056D01*
X132478991Y-95490083D01*
X132383556Y-95453112D01*
X132182347Y-95415500D01*
X131977653Y-95415500D01*
X131811580Y-95446544D01*
X131776444Y-95453112D01*
X131585571Y-95527056D01*
X131411539Y-95634813D01*
X131260267Y-95772716D01*
X131136910Y-95936066D01*
X131045672Y-96119297D01*
X130989654Y-96316180D01*
X130970767Y-96519999D01*
X129540500Y-96519999D01*
X129540500Y-93979999D01*
X130970767Y-93979999D01*
X130989654Y-94183819D01*
X131045672Y-94380702D01*
X131136910Y-94563933D01*
X131197314Y-94643921D01*
X131260268Y-94727285D01*
X131411538Y-94865186D01*
X131537198Y-94942991D01*
X131551884Y-94952085D01*
X131585573Y-94972944D01*
X131776444Y-95046888D01*
X131977653Y-95084500D01*
X131977655Y-95084500D01*
X132182345Y-95084500D01*
X132182347Y-95084500D01*
X132383556Y-95046888D01*
X132574427Y-94972944D01*
X132748462Y-94865186D01*
X132899732Y-94727285D01*
X133023088Y-94563935D01*
X133042805Y-94524336D01*
X133091075Y-94472273D01*
X133155596Y-94454500D01*
X135641266Y-94454500D01*
X135709387Y-94474502D01*
X135730361Y-94491405D01*
X136648595Y-95409639D01*
X136682621Y-95471951D01*
X136685500Y-95498734D01*
X136685500Y-102366012D01*
X136665498Y-102434133D01*
X136663196Y-102437588D01*
X136576212Y-102563605D01*
X136519850Y-102712219D01*
X136500693Y-102870000D01*
X136519850Y-103027780D01*
X136576212Y-103176394D01*
X136621215Y-103241591D01*
X136666502Y-103307201D01*
X136785471Y-103412599D01*
X136926207Y-103486463D01*
X137080529Y-103524500D01*
X137080531Y-103524500D01*
X137239469Y-103524500D01*
X137239471Y-103524500D01*
X137393793Y-103486463D01*
X137534529Y-103412599D01*
X137653498Y-103307201D01*
X137743787Y-103176395D01*
X137800149Y-103027782D01*
X137819307Y-102870000D01*
X137800149Y-102712218D01*
X137743787Y-102563605D01*
X137689658Y-102485186D01*
X137656804Y-102437588D01*
X137634568Y-102370163D01*
X137634500Y-102366012D01*
X137634500Y-95314554D01*
X137637380Y-95287770D01*
X137637456Y-95287418D01*
X137638157Y-95284198D01*
X137634821Y-95237554D01*
X137634500Y-95228566D01*
X137634500Y-95216067D01*
X137634500Y-95216065D01*
X137632718Y-95203677D01*
X137631759Y-95194748D01*
X137628423Y-95148102D01*
X137627145Y-95144675D01*
X137620482Y-95118568D01*
X137619961Y-95114943D01*
X137600524Y-95072383D01*
X137597084Y-95064077D01*
X137590673Y-95046888D01*
X137580741Y-95020258D01*
X137578547Y-95017327D01*
X137564800Y-94994157D01*
X137563280Y-94990829D01*
X137532655Y-94955487D01*
X137527006Y-94948477D01*
X137519518Y-94938473D01*
X137510667Y-94929622D01*
X137504549Y-94923051D01*
X137473924Y-94887707D01*
X137470848Y-94885731D01*
X137449871Y-94868827D01*
X136271172Y-93690128D01*
X136254269Y-93669154D01*
X136252290Y-93666074D01*
X136216936Y-93635439D01*
X136210368Y-93629324D01*
X136201526Y-93620482D01*
X136191518Y-93612989D01*
X136184521Y-93607351D01*
X136174685Y-93598828D01*
X136149172Y-93576721D01*
X136149170Y-93576720D01*
X136145838Y-93575198D01*
X136122673Y-93561453D01*
X136119740Y-93559257D01*
X136075917Y-93542912D01*
X136067609Y-93539471D01*
X136025056Y-93520038D01*
X136021419Y-93519515D01*
X135995338Y-93512857D01*
X135991902Y-93511575D01*
X135945240Y-93508238D01*
X135936306Y-93507278D01*
X135927790Y-93506054D01*
X135923935Y-93505500D01*
X135923934Y-93505500D01*
X135911436Y-93505500D01*
X135902449Y-93505179D01*
X135855801Y-93501843D01*
X135852225Y-93502621D01*
X135825443Y-93505500D01*
X133155596Y-93505500D01*
X133087475Y-93485498D01*
X133042805Y-93435663D01*
X133023088Y-93396066D01*
X133023088Y-93396065D01*
X132899732Y-93232715D01*
X132748462Y-93094814D01*
X132700087Y-93064861D01*
X132574428Y-92987056D01*
X132432182Y-92931950D01*
X132383556Y-92913112D01*
X132182347Y-92875500D01*
X131977653Y-92875500D01*
X131776443Y-92913111D01*
X131776444Y-92913112D01*
X131585571Y-92987056D01*
X131411539Y-93094813D01*
X131260267Y-93232716D01*
X131136910Y-93396066D01*
X131045672Y-93579297D01*
X130989654Y-93776180D01*
X130970767Y-93979999D01*
X129540500Y-93979999D01*
X129540500Y-91440000D01*
X130970767Y-91440000D01*
X130989654Y-91643819D01*
X131045672Y-91840702D01*
X131136910Y-92023933D01*
X131197314Y-92103921D01*
X131260268Y-92187285D01*
X131411538Y-92325186D01*
X131585573Y-92432944D01*
X131776444Y-92506888D01*
X131977653Y-92544500D01*
X131977655Y-92544500D01*
X132182345Y-92544500D01*
X132182347Y-92544500D01*
X132383556Y-92506888D01*
X132574427Y-92432944D01*
X132748462Y-92325186D01*
X132899732Y-92187285D01*
X133023088Y-92023935D01*
X133042805Y-91984336D01*
X133091075Y-91932273D01*
X133155596Y-91914500D01*
X136911266Y-91914500D01*
X136979387Y-91934502D01*
X137000361Y-91951405D01*
X139188595Y-94139639D01*
X139222621Y-94201951D01*
X139225500Y-94228734D01*
X139225500Y-107446012D01*
X139205498Y-107514133D01*
X139203196Y-107517588D01*
X139116212Y-107643605D01*
X139059850Y-107792219D01*
X139040693Y-107950000D01*
X139059850Y-108107780D01*
X139116212Y-108256394D01*
X139116213Y-108256395D01*
X139206502Y-108387201D01*
X139325471Y-108492599D01*
X139466207Y-108566463D01*
X139620529Y-108604500D01*
X139620531Y-108604500D01*
X139779469Y-108604500D01*
X139779471Y-108604500D01*
X139933793Y-108566463D01*
X140074529Y-108492599D01*
X140193498Y-108387201D01*
X140283787Y-108256395D01*
X140340149Y-108107782D01*
X140359307Y-107950000D01*
X140340149Y-107792218D01*
X140283787Y-107643605D01*
X140229658Y-107565186D01*
X140196804Y-107517588D01*
X140174568Y-107450163D01*
X140174500Y-107446012D01*
X140174500Y-94044554D01*
X140177380Y-94017770D01*
X140177456Y-94017418D01*
X140178157Y-94014198D01*
X140174821Y-93967554D01*
X140174500Y-93958566D01*
X140174500Y-93946067D01*
X140174500Y-93946065D01*
X140172718Y-93933677D01*
X140171759Y-93924748D01*
X140168423Y-93878102D01*
X140167145Y-93874675D01*
X140160482Y-93848568D01*
X140159961Y-93844943D01*
X140140524Y-93802383D01*
X140137084Y-93794077D01*
X140130409Y-93776180D01*
X140120741Y-93750258D01*
X140118547Y-93747327D01*
X140104800Y-93724157D01*
X140103280Y-93720829D01*
X140072655Y-93685487D01*
X140067006Y-93678477D01*
X140059518Y-93668473D01*
X140057119Y-93666074D01*
X140050667Y-93659622D01*
X140044549Y-93653051D01*
X140026741Y-93632500D01*
X140013926Y-93617710D01*
X140013925Y-93617709D01*
X140010847Y-93615731D01*
X139989873Y-93598828D01*
X137541172Y-91150128D01*
X137524269Y-91129154D01*
X137522290Y-91126074D01*
X137486936Y-91095439D01*
X137480368Y-91089324D01*
X137471526Y-91080482D01*
X137461518Y-91072989D01*
X137454521Y-91067351D01*
X137419172Y-91036721D01*
X137419170Y-91036720D01*
X137415838Y-91035198D01*
X137392673Y-91021453D01*
X137389740Y-91019257D01*
X137345917Y-91002912D01*
X137337609Y-90999471D01*
X137295056Y-90980038D01*
X137291419Y-90979515D01*
X137265338Y-90972857D01*
X137261902Y-90971575D01*
X137215240Y-90968238D01*
X137206306Y-90967278D01*
X137197790Y-90966054D01*
X137193935Y-90965500D01*
X137193934Y-90965500D01*
X137181436Y-90965500D01*
X137172449Y-90965179D01*
X137125801Y-90961843D01*
X137122225Y-90962621D01*
X137095443Y-90965500D01*
X133155596Y-90965500D01*
X133087475Y-90945498D01*
X133042805Y-90895663D01*
X133023088Y-90856066D01*
X133023088Y-90856065D01*
X132899732Y-90692715D01*
X132748462Y-90554814D01*
X132700087Y-90524861D01*
X132574428Y-90447056D01*
X132478991Y-90410084D01*
X132383556Y-90373112D01*
X132182347Y-90335500D01*
X131977653Y-90335500D01*
X131776444Y-90373111D01*
X131776444Y-90373112D01*
X131585571Y-90447056D01*
X131411539Y-90554813D01*
X131260267Y-90692716D01*
X131136910Y-90856066D01*
X131045672Y-91039297D01*
X130989654Y-91236180D01*
X130970767Y-91440000D01*
X129540500Y-91440000D01*
X129540500Y-88900000D01*
X130970767Y-88900000D01*
X130989654Y-89103819D01*
X131045672Y-89300702D01*
X131136910Y-89483933D01*
X131136912Y-89483935D01*
X131260268Y-89647285D01*
X131411538Y-89785186D01*
X131585573Y-89892944D01*
X131776444Y-89966888D01*
X131977653Y-90004500D01*
X131977655Y-90004500D01*
X132182345Y-90004500D01*
X132182347Y-90004500D01*
X132383556Y-89966888D01*
X132574427Y-89892944D01*
X132748462Y-89785186D01*
X132899732Y-89647285D01*
X133023088Y-89483935D01*
X133114328Y-89300701D01*
X133170345Y-89103821D01*
X133189232Y-88900000D01*
X133170345Y-88696179D01*
X133114328Y-88499299D01*
X133084820Y-88440039D01*
X133023089Y-88316066D01*
X132992886Y-88276072D01*
X132899732Y-88152715D01*
X132748462Y-88014814D01*
X132700087Y-87984861D01*
X132574428Y-87907056D01*
X132478991Y-87870084D01*
X132383556Y-87833112D01*
X132182347Y-87795500D01*
X131977653Y-87795500D01*
X131776443Y-87833111D01*
X131776444Y-87833112D01*
X131585571Y-87907056D01*
X131411539Y-88014813D01*
X131260267Y-88152716D01*
X131136910Y-88316066D01*
X131045672Y-88499297D01*
X130989654Y-88696180D01*
X130970767Y-88900000D01*
X129540500Y-88900000D01*
X129540500Y-85094925D01*
X129540885Y-85085098D01*
X129544980Y-85033064D01*
X129557273Y-84892566D01*
X129560272Y-84874152D01*
X129560274Y-84874144D01*
X129579148Y-84795527D01*
X129579917Y-84792498D01*
X129608102Y-84687309D01*
X129613386Y-84671743D01*
X129646616Y-84591519D01*
X129648772Y-84586620D01*
X129692289Y-84493298D01*
X129699017Y-84480776D01*
X129745547Y-84404847D01*
X129749693Y-84398523D01*
X129807549Y-84315896D01*
X129814919Y-84306378D01*
X129873265Y-84238064D01*
X129879943Y-84230840D01*
X129950840Y-84159943D01*
X129958064Y-84153265D01*
X130026378Y-84094919D01*
X130035896Y-84087549D01*
X130118523Y-84029693D01*
X130124847Y-84025547D01*
X130200776Y-83979017D01*
X130213298Y-83972289D01*
X130306620Y-83928772D01*
X130311519Y-83926616D01*
X130391743Y-83893386D01*
X130407309Y-83888102D01*
X130512498Y-83859917D01*
X130515527Y-83859148D01*
X130594147Y-83840273D01*
X130612570Y-83837272D01*
X130753078Y-83824979D01*
X130784663Y-83822494D01*
X130805075Y-83820888D01*
X130814949Y-83820500D01*
X133223500Y-83820500D01*
X133291621Y-83840502D01*
G37*
G04 #@! TD.AperFunction*
M02*
