M48
; DRILL file {KiCad (6.0.9)} date Sat Nov 19 16:36:22 2022
; FORMAT={-:-/ absolute / metric / decimal}
; #@! TF.CreationDate,2022-11-19T16:36:22+01:00
; #@! TF.GenerationSoftware,Kicad,Pcbnew,(6.0.9)
; #@! TF.FileFunction,Plated,1,2,PTH
FMAT,2
METRIC
; #@! TA.AperFunction,Plated,PTH,ViaDrill
T1C0.400
; #@! TA.AperFunction,Plated,PTH,ComponentDrill
T2C0.500
; #@! TA.AperFunction,Plated,PTH,ComponentDrill
T3C0.762
; #@! TA.AperFunction,Plated,PTH,ViaDrill
T4C0.800
; #@! TA.AperFunction,Plated,PTH,ComponentDrill
T5C0.950
; #@! TA.AperFunction,Plated,PTH,ComponentDrill
T6C1.000
; #@! TA.AperFunction,Plated,PTH,ComponentDrill
T7C3.200
%
G90
G05
T1
X107.061Y-121.666
X109.728Y-116.713
X115.062Y-84.455
X115.189Y-102.489
X115.316Y-107.95
X116.078Y-68.58
X117.094Y-86.868
X117.094Y-89.662
X117.484Y-73.778
X118.618Y-110.109
X120.65Y-75.565
X120.65Y-77.724
X121.031Y-118.872
X121.539Y-121.666
X121.65Y-104.775
X122.563Y-73.668
X123.206Y-104.775
X123.571Y-108.966
X124.206Y-84.328
X124.413Y-72.31
X124.46Y-77.724
X124.841Y-107.823
X125.095Y-113.03
X125.095Y-121.285
X126.111Y-98.425
X126.365Y-119.38
X127.0Y-116.205
X128.524Y-70.739
X128.524Y-73.66
X129.032Y-68.129
X129.667Y-75.946
X130.048Y-82.677
X130.302Y-116.332
X130.356Y-96.774
X130.81Y-115.316
X130.937Y-110.871
X131.064Y-100.457
X131.064Y-119.634
X131.318Y-122.682
X131.572Y-92.71
X131.572Y-95.123
X132.588Y-82.677
X132.675Y-105.987
X134.62Y-102.235
X134.747Y-96.52
X136.271Y-95.631
X136.525Y-84.328
X136.779Y-111.76
X136.906Y-120.269
X137.09Y-108.966
X137.16Y-74.422
X137.795Y-104.521
X137.841Y-96.45
X137.922Y-80.137
X137.922Y-94.488
X138.43Y-70.669
X139.319Y-98.044
X139.7Y-72.39
X140.843Y-80.01
X140.843Y-83.82
X141.351Y-94.488
X141.732Y-97.409
X142.24Y-75.184
X142.24Y-105.537
X143.51Y-130.048
X143.637Y-113.792
X143.764Y-106.807
X143.891Y-83.947
X143.891Y-97.79
X144.743Y-80.206
X144.907Y-109.22
X145.034Y-66.675
X145.415Y-122.809
X145.796Y-118.999
X145.923Y-72.263
X146.912Y-104.14
X147.574Y-94.488
X148.209Y-119.804
X149.098Y-78.994
X149.479Y-96.393
X149.479Y-101.981
X149.606Y-94.234
X149.606Y-109.22
X149.733Y-106.934
X149.987Y-75.184
X150.009Y-122.025
X150.241Y-129.032
X151.13Y-86.233
X151.257Y-119.126
X152.019Y-122.047
X152.527Y-94.234
X153.67Y-118.237
X153.862Y-102.8
X155.067Y-70.739
X155.127Y-111.145
X155.221Y-103.632
X155.758Y-93.401
X155.829Y-82.423
X156.337Y-129.032
X156.416Y-100.945
X156.494Y-97.028
X157.199Y-106.807
X157.48Y-82.042
X157.48Y-94.361
X157.48Y-119.165
X159.131Y-128.397
X159.887Y-87.187
X160.47Y-99.571
X160.47Y-104.719
X161.29Y-127.508
X161.317Y-107.103
X162.179Y-70.739
X162.219Y-101.011
X162.433Y-103.505
X162.433Y-105.41
X162.433Y-107.061
X162.433Y-113.792
X162.539Y-87.826
X162.752Y-118.537
X163.545Y-106.01
X163.563Y-98.84
X164.057Y-108.966
X164.4Y-103.575
X165.1Y-87.503
X165.327Y-96.971
X165.327Y-99.06
X165.327Y-109.22
X165.454Y-105.348
X166.37Y-95.25
X166.751Y-119.38
X167.115Y-102.812
X167.513Y-70.739
X167.513Y-127.254
X167.595Y-94.312
X167.64Y-78.867
X167.64Y-81.026
X168.91Y-94.234
X168.91Y-119.253
X168.91Y-125.857
X169.868Y-107.97
X169.926Y-110.538
X169.936Y-96.356
X169.953Y-97.79
X170.053Y-78.105
X170.053Y-114.173
X170.104Y-128.708
X171.196Y-93.345
X171.323Y-71.501
X171.323Y-121.92
X171.45Y-129.032
X171.704Y-102.616
X171.704Y-105.283
X172.566Y-100.711
X172.72Y-70.485
X172.72Y-126.111
X172.847Y-89.281
X172.968Y-97.557
X172.974Y-114.173
X173.101Y-79.121
X173.101Y-121.539
X173.455Y-108.331
X173.99Y-71.501
X174.117Y-87.376
X174.244Y-99.314
X175.006Y-72.898
X175.133Y-94.361
X175.26Y-113.538
X175.26Y-119.888
X175.514Y-88.138
X175.641Y-108.712
X176.276Y-93.472
X176.276Y-94.869
X176.657Y-107.95
X176.657Y-114.808
X177.038Y-73.279
X177.165Y-119.634
X177.546Y-69.185
X178.181Y-76.835
X178.943Y-130.175
X179.07Y-66.675
X179.07Y-89.789
X179.197Y-113.411
X179.959Y-97.79
X180.213Y-80.264
X180.213Y-125.857
X180.34Y-99.441
X180.467Y-112.268
X180.594Y-93.599
X180.594Y-120.396
X181.483Y-129.54
X181.61Y-88.265
X181.611Y-76.835
X181.991Y-71.628
X182.626Y-108.077
X182.88Y-119.888
X183.134Y-94.742
X184.277Y-77.343
X184.785Y-69.342
X184.785Y-100.076
X184.912Y-95.885
X185.42Y-88.9
X185.547Y-127.889
X186.055Y-80.137
X186.235Y-82.154
X186.817Y-95.25
X187.833Y-106.426
X188.214Y-76.581
X188.341Y-94.742
X188.722Y-88.9
X190.373Y-83.185
X192.659Y-72.898
T2
X99.2Y-67.31
X99.2Y-127.0
X99.903Y-65.613
X99.903Y-69.007
X99.903Y-125.303
X99.903Y-128.697
X101.6Y-64.91
X101.6Y-69.71
X101.6Y-124.6
X101.6Y-129.4
X103.297Y-65.613
X103.297Y-69.007
X103.297Y-125.303
X103.297Y-128.697
X104.0Y-67.31
X104.0Y-127.0
X188.1Y-67.31
X188.1Y-127.0
X188.803Y-65.613
X188.803Y-69.007
X188.803Y-125.303
X188.803Y-128.697
X190.5Y-64.91
X190.5Y-69.71
X190.5Y-124.6
X190.5Y-129.4
X192.197Y-65.613
X192.197Y-69.007
X192.197Y-125.303
X192.197Y-128.697
X192.9Y-67.31
X192.9Y-127.0
T3
X121.75Y-84.61
X121.75Y-88.11
X134.62Y-78.74
X134.62Y-81.28
X134.62Y-83.82
X134.62Y-86.36
X134.62Y-88.9
X134.62Y-91.44
X134.62Y-93.98
T4
X101.6Y-82.804
X101.6Y-118.11
X115.57Y-128.27
X118.364Y-65.532
X118.745Y-69.977
X118.745Y-83.058
X121.285Y-102.87
X122.809Y-65.532
X123.698Y-102.87
X125.857Y-109.855
X127.635Y-102.87
X127.635Y-104.775
X129.54Y-102.87
X129.54Y-104.775
X131.544Y-109.27
X136.398Y-115.824
X139.319Y-76.454
X141.605Y-119.634
X142.24Y-78.74
X147.32Y-78.74
X152.4Y-76.454
X166.37Y-121.031
T5
X111.76Y-67.31
X111.76Y-69.81
X111.76Y-72.31
X111.76Y-74.81
X111.76Y-77.31
X111.76Y-79.81
X111.76Y-97.79
X111.76Y-100.29
X111.76Y-102.79
X111.76Y-105.29
X111.76Y-107.79
X111.76Y-115.57
X111.76Y-118.07
X111.76Y-120.57
X111.76Y-123.07
T6
X111.76Y-87.63
X111.76Y-90.13
X137.16Y-64.77
X139.7Y-64.77
X142.24Y-64.77
X142.24Y-91.44
X142.24Y-116.84
X144.78Y-64.77
X144.78Y-91.44
X144.78Y-116.84
X147.32Y-64.77
X147.32Y-85.09
X147.32Y-91.44
X147.32Y-116.84
X149.86Y-64.77
X149.86Y-85.09
X149.86Y-91.44
X149.86Y-116.84
X149.86Y-123.707
X149.86Y-126.247
X152.4Y-64.77
X152.4Y-85.09
X152.4Y-91.44
X152.4Y-116.84
X152.4Y-123.707
X152.4Y-126.247
X154.94Y-64.77
X154.94Y-85.09
X154.94Y-91.44
X154.94Y-116.84
X154.94Y-123.707
X154.94Y-126.247
X157.48Y-64.77
X157.48Y-85.09
X157.48Y-91.44
X157.48Y-116.84
X157.48Y-123.707
X157.48Y-126.247
X160.02Y-64.77
X160.02Y-85.09
X160.02Y-91.44
X160.02Y-116.84
X160.02Y-123.707
X160.02Y-126.247
X162.56Y-64.77
X162.56Y-85.09
X162.56Y-91.44
X162.56Y-116.84
X162.56Y-123.707
X162.56Y-126.247
X165.1Y-64.77
X165.1Y-85.09
X165.1Y-91.44
X165.1Y-116.84
X165.1Y-123.707
X165.1Y-126.247
X167.64Y-64.77
X167.64Y-85.09
X167.64Y-91.44
X167.64Y-116.84
X170.18Y-64.77
X170.18Y-85.09
X170.18Y-91.44
X170.18Y-116.84
X172.72Y-64.77
X172.72Y-85.09
X172.72Y-91.44
X172.72Y-116.84
X175.26Y-64.77
X175.26Y-85.09
X175.26Y-91.44
X175.26Y-116.84
X177.8Y-64.77
X177.8Y-85.09
X177.8Y-91.44
X177.8Y-116.84
X180.34Y-64.77
X180.34Y-85.09
X180.34Y-91.44
X180.34Y-116.84
X182.88Y-91.44
X182.88Y-116.84
X185.42Y-91.44
X185.42Y-116.84
X187.96Y-91.44
X187.96Y-116.84
T7
X101.6Y-67.31
X101.6Y-127.0
X190.5Y-67.31
X190.5Y-127.0
T0
M30
