G04 #@! TF.GenerationSoftware,KiCad,Pcbnew,(6.0.9)*
G04 #@! TF.CreationDate,2022-12-10T14:55:34+01:00*
G04 #@! TF.ProjectId,IoT12 Control Board,496f5431-3220-4436-9f6e-74726f6c2042,V2.2*
G04 #@! TF.SameCoordinates,Original*
G04 #@! TF.FileFunction,Soldermask,Top*
G04 #@! TF.FilePolarity,Negative*
%FSLAX46Y46*%
G04 Gerber Fmt 4.6, Leading zero omitted, Abs format (unit mm)*
G04 Created by KiCad (PCBNEW (6.0.9)) date 2022-12-10 14:55:34*
%MOMM*%
%LPD*%
G01*
G04 APERTURE LIST*
G04 Aperture macros list*
%AMRoundRect*
0 Rectangle with rounded corners*
0 $1 Rounding radius*
0 $2 $3 $4 $5 $6 $7 $8 $9 X,Y pos of 4 corners*
0 Add a 4 corners polygon primitive as box body*
4,1,4,$2,$3,$4,$5,$6,$7,$8,$9,$2,$3,0*
0 Add four circle primitives for the rounded corners*
1,1,$1+$1,$2,$3*
1,1,$1+$1,$4,$5*
1,1,$1+$1,$6,$7*
1,1,$1+$1,$8,$9*
0 Add four rect primitives between the rounded corners*
20,1,$1+$1,$2,$3,$4,$5,0*
20,1,$1+$1,$4,$5,$6,$7,0*
20,1,$1+$1,$6,$7,$8,$9,0*
20,1,$1+$1,$8,$9,$2,$3,0*%
G04 Aperture macros list end*
%ADD10RoundRect,0.150000X-0.650000X-0.150000X0.650000X-0.150000X0.650000X0.150000X-0.650000X0.150000X0*%
%ADD11C,1.524000*%
%ADD12RoundRect,0.250000X0.475000X-0.337500X0.475000X0.337500X-0.475000X0.337500X-0.475000X-0.337500X0*%
%ADD13RoundRect,0.250000X-0.337500X-0.475000X0.337500X-0.475000X0.337500X0.475000X-0.337500X0.475000X0*%
%ADD14RoundRect,0.250000X0.550000X-1.500000X0.550000X1.500000X-0.550000X1.500000X-0.550000X-1.500000X0*%
%ADD15RoundRect,0.150000X-0.587500X-0.150000X0.587500X-0.150000X0.587500X0.150000X-0.587500X0.150000X0*%
%ADD16R,1.800000X2.500000*%
%ADD17RoundRect,0.150000X-0.150000X0.587500X-0.150000X-0.587500X0.150000X-0.587500X0.150000X0.587500X0*%
%ADD18RoundRect,0.250000X-0.325000X-0.450000X0.325000X-0.450000X0.325000X0.450000X-0.325000X0.450000X0*%
%ADD19C,0.800000*%
%ADD20C,6.400000*%
%ADD21R,1.200000X2.200000*%
%ADD22R,5.800000X6.400000*%
%ADD23RoundRect,0.249999X-0.450001X-1.425001X0.450001X-1.425001X0.450001X1.425001X-0.450001X1.425001X0*%
%ADD24RoundRect,0.250000X-0.350000X-0.450000X0.350000X-0.450000X0.350000X0.450000X-0.350000X0.450000X0*%
%ADD25RoundRect,0.250000X0.450000X-0.350000X0.450000X0.350000X-0.450000X0.350000X-0.450000X-0.350000X0*%
%ADD26RoundRect,0.250000X0.350000X0.450000X-0.350000X0.450000X-0.350000X-0.450000X0.350000X-0.450000X0*%
%ADD27RoundRect,0.250000X-0.450000X0.350000X-0.450000X-0.350000X0.450000X-0.350000X0.450000X0.350000X0*%
%ADD28R,0.250000X1.100000*%
%ADD29R,1.700000X2.100000*%
%ADD30O,1.700000X2.100000*%
%ADD31RoundRect,0.150000X0.650000X0.150000X-0.650000X0.150000X-0.650000X-0.150000X0.650000X-0.150000X0*%
%ADD32RoundRect,0.250000X-0.725000X0.600000X-0.725000X-0.600000X0.725000X-0.600000X0.725000X0.600000X0*%
%ADD33O,1.950000X1.700000*%
%ADD34RoundRect,0.250000X-0.750000X0.600000X-0.750000X-0.600000X0.750000X-0.600000X0.750000X0.600000X0*%
%ADD35O,2.000000X1.700000*%
%ADD36RoundRect,0.250000X-0.600000X0.600000X-0.600000X-0.600000X0.600000X-0.600000X0.600000X0.600000X0*%
%ADD37C,1.700000*%
G04 APERTURE END LIST*
D10*
X156420000Y-97155000D03*
X156420000Y-98425000D03*
X156420000Y-99695000D03*
X156420000Y-100965000D03*
X163620000Y-100965000D03*
X163620000Y-99695000D03*
X163620000Y-98425000D03*
X163620000Y-97155000D03*
X156420000Y-107315000D03*
X156420000Y-108585000D03*
X156420000Y-109855000D03*
X156420000Y-111125000D03*
X163620000Y-111125000D03*
X163620000Y-109855000D03*
X163620000Y-108585000D03*
X163620000Y-107315000D03*
D11*
X134620000Y-93980000D03*
X134620000Y-91440000D03*
X134620000Y-88900000D03*
X134620000Y-86360000D03*
X134620000Y-83820000D03*
X134620000Y-81280000D03*
X134620000Y-78740000D03*
X121750000Y-88110000D03*
X121750000Y-84610000D03*
D12*
X128905000Y-100097500D03*
X128905000Y-98022500D03*
X151130000Y-110257500D03*
X151130000Y-108182500D03*
X151130000Y-100097500D03*
X151130000Y-98022500D03*
D13*
X166602500Y-110490000D03*
X168677500Y-110490000D03*
X166602500Y-100330000D03*
X168677500Y-100330000D03*
X174222500Y-110490000D03*
X176297500Y-110490000D03*
D14*
X190500000Y-80170000D03*
X190500000Y-74770000D03*
D15*
X156542500Y-103190000D03*
X156542500Y-105090000D03*
X158417500Y-104140000D03*
X150192500Y-103190000D03*
X150192500Y-105090000D03*
X152067500Y-104140000D03*
D16*
X128805000Y-122650000D03*
X128805000Y-118650000D03*
X128805000Y-113760000D03*
X128805000Y-109760000D03*
D17*
X134835000Y-122252500D03*
X132935000Y-122252500D03*
X133885000Y-124127500D03*
D18*
X120160000Y-109220000D03*
X122210000Y-109220000D03*
D19*
X192197056Y-125302944D03*
D20*
X190500000Y-127000000D03*
D19*
X192900000Y-127000000D03*
X188100000Y-127000000D03*
X190500000Y-124600000D03*
X190500000Y-129400000D03*
X188802944Y-125302944D03*
X192197056Y-128697056D03*
X188802944Y-128697056D03*
X192197056Y-69007056D03*
X188802944Y-69007056D03*
X188100000Y-67310000D03*
X190500000Y-64910000D03*
X190500000Y-69710000D03*
X188802944Y-65612944D03*
X192900000Y-67310000D03*
D20*
X190500000Y-67310000D03*
D19*
X192197056Y-65612944D03*
X101600000Y-129400000D03*
X103297056Y-125302944D03*
X99902944Y-128697056D03*
X99902944Y-125302944D03*
X103297056Y-128697056D03*
X99200000Y-127000000D03*
X101600000Y-124600000D03*
D20*
X101600000Y-127000000D03*
D19*
X104000000Y-127000000D03*
X101600000Y-64910000D03*
X103297056Y-69007056D03*
X99200000Y-67310000D03*
X99902944Y-69007056D03*
X104000000Y-67310000D03*
X101600000Y-69710000D03*
D20*
X101600000Y-67310000D03*
D19*
X99902944Y-65612944D03*
X103297056Y-65612944D03*
D17*
X139915000Y-114632500D03*
X138015000Y-114632500D03*
X138965000Y-116507500D03*
D21*
X118905000Y-121040000D03*
D22*
X121185000Y-114740000D03*
D21*
X123465000Y-121040000D03*
D23*
X119380000Y-103630000D03*
X125480000Y-103630000D03*
D24*
X166640000Y-107950000D03*
X168640000Y-107950000D03*
D25*
X153670000Y-110220000D03*
X153670000Y-108220000D03*
X153670000Y-100060000D03*
X153670000Y-98060000D03*
X140235000Y-124190000D03*
X140235000Y-122190000D03*
D26*
X139965000Y-111760000D03*
X137965000Y-111760000D03*
D24*
X174260000Y-97790000D03*
X176260000Y-97790000D03*
D25*
X136525000Y-104505000D03*
X136525000Y-102505000D03*
D27*
X182880000Y-120920000D03*
X182880000Y-122920000D03*
X175260000Y-120920000D03*
X175260000Y-122920000D03*
X132615000Y-112030000D03*
X132615000Y-114030000D03*
D26*
X148320000Y-110490000D03*
X146320000Y-110490000D03*
X148320000Y-107950000D03*
X146320000Y-107950000D03*
X148320000Y-100330000D03*
X146320000Y-100330000D03*
X148320000Y-97790000D03*
X146320000Y-97790000D03*
D27*
X136525000Y-98060000D03*
X136525000Y-100060000D03*
X135155000Y-112030000D03*
X135155000Y-114030000D03*
X128270000Y-85360000D03*
X128270000Y-87360000D03*
X132715000Y-98060000D03*
X132715000Y-100060000D03*
D25*
X124460000Y-100060000D03*
X124460000Y-98060000D03*
X120650000Y-100060000D03*
X120650000Y-98060000D03*
D28*
X176260000Y-101990000D03*
X175760000Y-101990000D03*
X175260000Y-101990000D03*
X174760000Y-101990000D03*
X174260000Y-101990000D03*
X174260000Y-106290000D03*
X174760000Y-106290000D03*
X175260000Y-106290000D03*
X175760000Y-106290000D03*
X176260000Y-106290000D03*
D25*
X137695000Y-124190000D03*
X137695000Y-122190000D03*
D29*
X187960000Y-91440000D03*
D30*
X185420000Y-91440000D03*
X182880000Y-91440000D03*
X180340000Y-91440000D03*
X177800000Y-91440000D03*
X175260000Y-91440000D03*
X172720000Y-91440000D03*
X170180000Y-91440000D03*
X167640000Y-91440000D03*
X165100000Y-91440000D03*
X162560000Y-91440000D03*
X160020000Y-91440000D03*
X157480000Y-91440000D03*
X154940000Y-91440000D03*
X152400000Y-91440000D03*
X149860000Y-91440000D03*
X147320000Y-91440000D03*
X144780000Y-91440000D03*
X142240000Y-91440000D03*
X142240000Y-116840000D03*
X144780000Y-116840000D03*
X147320000Y-116840000D03*
X149860000Y-116840000D03*
X152400000Y-116840000D03*
X154940000Y-116840000D03*
X157480000Y-116840000D03*
X160020000Y-116840000D03*
X162560000Y-116840000D03*
X165100000Y-116840000D03*
X167640000Y-116840000D03*
X170180000Y-116840000D03*
X172720000Y-116840000D03*
X175260000Y-116840000D03*
X177800000Y-116840000D03*
X180340000Y-116840000D03*
X182880000Y-116840000D03*
X185420000Y-116840000D03*
X187960000Y-116840000D03*
D17*
X183830000Y-101662500D03*
X181930000Y-101662500D03*
X182880000Y-103537500D03*
D25*
X182880000Y-98520000D03*
X182880000Y-96520000D03*
D17*
X185735000Y-109552500D03*
X183835000Y-109552500D03*
X184785000Y-111427500D03*
D24*
X183785000Y-106680000D03*
X185785000Y-106680000D03*
X166640000Y-97790000D03*
X168640000Y-97790000D03*
D27*
X125730000Y-85360000D03*
X125730000Y-87360000D03*
D31*
X180130000Y-76835000D03*
X180130000Y-75565000D03*
X180130000Y-74295000D03*
X180130000Y-73025000D03*
X172930000Y-73025000D03*
X172930000Y-74295000D03*
X172930000Y-75565000D03*
X172930000Y-76835000D03*
D12*
X170180000Y-75967500D03*
X170180000Y-73892500D03*
D32*
X111760000Y-97790000D03*
D33*
X111760000Y-100290000D03*
X111760000Y-102790000D03*
X111760000Y-105290000D03*
X111760000Y-107790000D03*
D25*
X182880000Y-75930000D03*
X182880000Y-73930000D03*
D34*
X111760000Y-87630000D03*
D35*
X111760000Y-90130000D03*
D25*
X186690000Y-98520000D03*
X186690000Y-96520000D03*
D27*
X124460000Y-79010000D03*
X124460000Y-81010000D03*
D26*
X177530000Y-70485000D03*
X175530000Y-70485000D03*
D27*
X132715000Y-102505000D03*
X132715000Y-104505000D03*
D25*
X112395000Y-129905000D03*
X112395000Y-127905000D03*
D14*
X120650000Y-70170000D03*
X120650000Y-64770000D03*
D27*
X120650000Y-79010000D03*
X120650000Y-81010000D03*
D29*
X147320000Y-85090000D03*
D30*
X149860000Y-85090000D03*
X152400000Y-85090000D03*
X154940000Y-85090000D03*
X157480000Y-85090000D03*
X160020000Y-85090000D03*
X162560000Y-85090000D03*
X165100000Y-85090000D03*
X167640000Y-85090000D03*
X170180000Y-85090000D03*
X172720000Y-85090000D03*
X175260000Y-85090000D03*
X177800000Y-85090000D03*
X180340000Y-85090000D03*
X180340000Y-64770000D03*
X177800000Y-64770000D03*
X175260000Y-64770000D03*
X172720000Y-64770000D03*
X170180000Y-64770000D03*
X167640000Y-64770000D03*
X165100000Y-64770000D03*
X162560000Y-64770000D03*
X160020000Y-64770000D03*
X157480000Y-64770000D03*
X154940000Y-64770000D03*
X152400000Y-64770000D03*
X149860000Y-64770000D03*
X147320000Y-64770000D03*
X144780000Y-64770000D03*
X142240000Y-64770000D03*
X139700000Y-64770000D03*
X137160000Y-64770000D03*
D32*
X111760000Y-67310000D03*
D33*
X111760000Y-69810000D03*
X111760000Y-72310000D03*
X111760000Y-74810000D03*
X111760000Y-77310000D03*
X111760000Y-79810000D03*
D36*
X165100000Y-123707500D03*
D37*
X165100000Y-126247500D03*
X162560000Y-123707500D03*
X162560000Y-126247500D03*
X160020000Y-123707500D03*
X160020000Y-126247500D03*
X157480000Y-123707500D03*
X157480000Y-126247500D03*
X154940000Y-123707500D03*
X154940000Y-126247500D03*
X152400000Y-123707500D03*
X152400000Y-126247500D03*
X149860000Y-123707500D03*
X149860000Y-126247500D03*
D32*
X111760000Y-115570000D03*
D33*
X111760000Y-118070000D03*
X111760000Y-120570000D03*
X111760000Y-123070000D03*
D17*
X187640000Y-101662500D03*
X185740000Y-101662500D03*
X186690000Y-103537500D03*
D27*
X108585000Y-127905000D03*
X108585000Y-129905000D03*
M02*
