G04 #@! TF.GenerationSoftware,KiCad,Pcbnew,(6.0.9)*
G04 #@! TF.CreationDate,2022-12-10T11:36:41+01:00*
G04 #@! TF.ProjectId,IoT12 Power Supply,496f5431-3220-4506-9f77-657220537570,V1.2*
G04 #@! TF.SameCoordinates,Original*
G04 #@! TF.FileFunction,Copper,L2,Bot*
G04 #@! TF.FilePolarity,Positive*
%FSLAX46Y46*%
G04 Gerber Fmt 4.6, Leading zero omitted, Abs format (unit mm)*
G04 Created by KiCad (PCBNEW (6.0.9)) date 2022-12-10 11:36:41*
%MOMM*%
%LPD*%
G01*
G04 APERTURE LIST*
G04 Aperture macros list*
%AMRoundRect*
0 Rectangle with rounded corners*
0 $1 Rounding radius*
0 $2 $3 $4 $5 $6 $7 $8 $9 X,Y pos of 4 corners*
0 Add a 4 corners polygon primitive as box body*
4,1,4,$2,$3,$4,$5,$6,$7,$8,$9,$2,$3,0*
0 Add four circle primitives for the rounded corners*
1,1,$1+$1,$2,$3*
1,1,$1+$1,$4,$5*
1,1,$1+$1,$6,$7*
1,1,$1+$1,$8,$9*
0 Add four rect primitives between the rounded corners*
20,1,$1+$1,$2,$3,$4,$5,0*
20,1,$1+$1,$4,$5,$6,$7,0*
20,1,$1+$1,$6,$7,$8,$9,0*
20,1,$1+$1,$8,$9,$2,$3,0*%
G04 Aperture macros list end*
G04 #@! TA.AperFunction,EtchedComponent*
%ADD10C,0.381000*%
G04 #@! TD*
G04 #@! TA.AperFunction,ComponentPad*
%ADD11R,3.000000X3.000000*%
G04 #@! TD*
G04 #@! TA.AperFunction,ComponentPad*
%ADD12C,3.000000*%
G04 #@! TD*
G04 #@! TA.AperFunction,ComponentPad*
%ADD13RoundRect,0.250000X-0.600000X-0.725000X0.600000X-0.725000X0.600000X0.725000X-0.600000X0.725000X0*%
G04 #@! TD*
G04 #@! TA.AperFunction,ComponentPad*
%ADD14O,1.700000X1.950000*%
G04 #@! TD*
G04 #@! TA.AperFunction,ComponentPad*
%ADD15C,0.800000*%
G04 #@! TD*
G04 #@! TA.AperFunction,ComponentPad*
%ADD16C,6.400000*%
G04 #@! TD*
G04 #@! TA.AperFunction,ComponentPad*
%ADD17R,2.500000X2.500000*%
G04 #@! TD*
G04 #@! TA.AperFunction,ComponentPad*
%ADD18C,2.500000*%
G04 #@! TD*
G04 #@! TA.AperFunction,ComponentPad*
%ADD19C,4.000000*%
G04 #@! TD*
G04 #@! TA.AperFunction,ComponentPad*
%ADD20O,2.500000X2.500000*%
G04 #@! TD*
G04 #@! TA.AperFunction,ComponentPad*
%ADD21RoundRect,0.250000X-0.600000X-0.750000X0.600000X-0.750000X0.600000X0.750000X-0.600000X0.750000X0*%
G04 #@! TD*
G04 #@! TA.AperFunction,ComponentPad*
%ADD22O,1.700000X2.000000*%
G04 #@! TD*
G04 #@! TA.AperFunction,ComponentPad*
%ADD23C,1.800000*%
G04 #@! TD*
G04 #@! TA.AperFunction,ComponentPad*
%ADD24C,1.700000*%
G04 #@! TD*
G04 #@! TA.AperFunction,ComponentPad*
%ADD25C,1.600000*%
G04 #@! TD*
G04 #@! TA.AperFunction,ViaPad*
%ADD26C,1.600000*%
G04 #@! TD*
G04 #@! TA.AperFunction,ViaPad*
%ADD27C,0.800000*%
G04 #@! TD*
G04 #@! TA.AperFunction,Conductor*
%ADD28C,2.000000*%
G04 #@! TD*
G04 #@! TA.AperFunction,Conductor*
%ADD29C,0.440000*%
G04 #@! TD*
G04 APERTURE END LIST*
D10*
X153899870Y-70142100D02*
X149200870Y-77127100D01*
X154397710Y-76532740D02*
X154499310Y-75633580D01*
X154799030Y-74533760D02*
X153600150Y-73733660D01*
X149200870Y-77127100D02*
X158598870Y-77127100D01*
X158598870Y-77127100D02*
X153899870Y-70142100D01*
X153998930Y-71534020D02*
X154799030Y-74533760D01*
X154397710Y-76532740D02*
X153798270Y-75834240D01*
X153198830Y-73433940D02*
X153798270Y-73832720D01*
X154799030Y-74533760D02*
X153498550Y-71732140D01*
X153600150Y-73733660D02*
X154397710Y-76532740D01*
X154397710Y-76532740D02*
X153198830Y-73433940D01*
D11*
X132080000Y-58420000D03*
D12*
X127000000Y-58420000D03*
X121920000Y-58420000D03*
D13*
X153750000Y-132080000D03*
D14*
X156250000Y-132080000D03*
X158750000Y-132080000D03*
X161250000Y-132080000D03*
D15*
X191342944Y-56722944D03*
X194737056Y-60117056D03*
X193040000Y-60820000D03*
X194737056Y-56722944D03*
D16*
X193040000Y-58420000D03*
D15*
X190640000Y-58420000D03*
X193040000Y-56020000D03*
X191342944Y-60117056D03*
X195440000Y-58420000D03*
X195440000Y-139700000D03*
X193040000Y-142100000D03*
X194737056Y-141397056D03*
D16*
X193040000Y-139700000D03*
D15*
X190640000Y-139700000D03*
X191342944Y-138002944D03*
X193040000Y-137300000D03*
X194737056Y-138002944D03*
X191342944Y-141397056D03*
X111760000Y-60820000D03*
X111760000Y-56020000D03*
X113457056Y-56722944D03*
X110062944Y-60117056D03*
X113457056Y-60117056D03*
X110062944Y-56722944D03*
X109360000Y-58420000D03*
X114160000Y-58420000D03*
D16*
X111760000Y-58420000D03*
D15*
X111760000Y-137300000D03*
X113457056Y-138002944D03*
X113457056Y-141397056D03*
X109360000Y-139700000D03*
D16*
X111760000Y-139700000D03*
D15*
X110062944Y-138002944D03*
X110062944Y-141397056D03*
X111760000Y-142100000D03*
X114160000Y-139700000D03*
D17*
X114198400Y-75914200D03*
D18*
X114198400Y-69164200D03*
D19*
X190198400Y-110414200D03*
X190198400Y-104914200D03*
D17*
X174752000Y-122174000D03*
D20*
X168752000Y-124174000D03*
X168752000Y-136374000D03*
X180752000Y-136374000D03*
X180752000Y-124174000D03*
D21*
X140970000Y-132080000D03*
D22*
X143470000Y-132080000D03*
D23*
X143860000Y-57360000D03*
X151360000Y-59360000D03*
D24*
X188214000Y-119380000D03*
X193214000Y-120580000D03*
D25*
X189270000Y-125080000D03*
X194270000Y-126380000D03*
D26*
X132080000Y-118745000D03*
X125095000Y-123190000D03*
X117475000Y-135255000D03*
D27*
X153797000Y-130175000D03*
D26*
X177800000Y-130810000D03*
X129540000Y-140335000D03*
X188595000Y-142875000D03*
X129540000Y-131445000D03*
X149225000Y-128905000D03*
X117475000Y-130175000D03*
X195580000Y-133985000D03*
X117475000Y-115570000D03*
X125095000Y-119380000D03*
X163322000Y-137414000D03*
X120650000Y-142875000D03*
X141605000Y-120650000D03*
X191135000Y-123190000D03*
X132715000Y-125095000D03*
D27*
X162433000Y-126999999D03*
X140970000Y-127000000D03*
X159385000Y-125730000D03*
X151130000Y-125730000D03*
D28*
X194270000Y-123531000D02*
X194270000Y-126380000D01*
X193214000Y-122475000D02*
X194270000Y-123531000D01*
X193214000Y-120580000D02*
X193214000Y-122475000D01*
X180475500Y-119507000D02*
X177808500Y-122174000D01*
X188087000Y-119507000D02*
X180475500Y-119507000D01*
X188214000Y-119380000D02*
X188087000Y-119507000D01*
X177808500Y-122174000D02*
X174752000Y-122174000D01*
X193167000Y-120533000D02*
X193214000Y-120580000D01*
X193167000Y-116967000D02*
X193167000Y-120533000D01*
X190198400Y-110414200D02*
X190198400Y-113998400D01*
X190198400Y-113998400D02*
X193167000Y-116967000D01*
X153750000Y-137875000D02*
X153750000Y-132080000D01*
X156210000Y-140335000D02*
X153750000Y-137875000D01*
X165989000Y-140335000D02*
X156210000Y-140335000D01*
X168752000Y-137572000D02*
X165989000Y-140335000D01*
X168752000Y-136374000D02*
X168752000Y-137572000D01*
D29*
X140970000Y-127000000D02*
X162433000Y-126999999D01*
X151130000Y-125730000D02*
X159385000Y-125730000D01*
D28*
X173850800Y-104914200D02*
X190198400Y-104914200D01*
X165735000Y-113030000D02*
X173850800Y-104914200D01*
X160020000Y-128905000D02*
X164211000Y-128905000D01*
X164211000Y-128905000D02*
X165735000Y-127381000D01*
X158750000Y-130175000D02*
X160020000Y-128905000D01*
X165735000Y-127381000D02*
X165735000Y-113030000D01*
X158750000Y-132080000D02*
X158750000Y-130175000D01*
X121920000Y-61442600D02*
X114198400Y-69164200D01*
X121920000Y-58420000D02*
X121920000Y-61442600D01*
X143860000Y-61880000D02*
X143860000Y-57360000D01*
X139700000Y-66040000D02*
X143860000Y-61880000D01*
X127000000Y-58420000D02*
X127000000Y-63500000D01*
X127000000Y-63500000D02*
X129540000Y-66040000D01*
X129540000Y-66040000D02*
X139700000Y-66040000D01*
X151360000Y-59360000D02*
X151360000Y-62000000D01*
X151360000Y-62000000D02*
X137445800Y-75914200D01*
X137445800Y-75914200D02*
X114198400Y-75914200D01*
G04 #@! TA.AperFunction,Conductor*
G36*
X197553621Y-64155002D02*
G01*
X197600114Y-64208658D01*
X197611500Y-64261000D01*
X197611500Y-139650633D01*
X197610000Y-139670018D01*
X197607690Y-139684851D01*
X197607690Y-139684855D01*
X197606309Y-139693724D01*
X197608984Y-139714183D01*
X197609928Y-139736012D01*
X197594344Y-140092936D01*
X197593386Y-140103886D01*
X197542767Y-140488379D01*
X197540858Y-140499205D01*
X197456920Y-140877822D01*
X197454075Y-140888439D01*
X197337461Y-141258294D01*
X197333705Y-141268615D01*
X197192503Y-141609508D01*
X197185289Y-141626923D01*
X197180647Y-141636876D01*
X197054070Y-141880029D01*
X197001577Y-141980867D01*
X196996081Y-141990387D01*
X196787708Y-142317468D01*
X196781403Y-142326472D01*
X196545322Y-142634138D01*
X196538257Y-142642558D01*
X196287638Y-142916062D01*
X196276256Y-142928483D01*
X196268483Y-142936256D01*
X195982558Y-143198257D01*
X195974138Y-143205322D01*
X195666472Y-143441403D01*
X195657468Y-143447708D01*
X195330387Y-143656081D01*
X195320868Y-143661576D01*
X194976876Y-143840647D01*
X194966932Y-143845285D01*
X194608615Y-143993705D01*
X194598302Y-143997458D01*
X194398702Y-144060392D01*
X194228439Y-144114075D01*
X194217822Y-144116920D01*
X193839205Y-144200858D01*
X193828379Y-144202767D01*
X193443886Y-144253386D01*
X193432937Y-144254344D01*
X193083446Y-144269603D01*
X193058571Y-144268223D01*
X193046276Y-144266309D01*
X193037374Y-144267473D01*
X193037372Y-144267473D01*
X193022323Y-144269441D01*
X193014714Y-144270436D01*
X192998379Y-144271500D01*
X111809367Y-144271500D01*
X111789982Y-144270000D01*
X111775149Y-144267690D01*
X111775145Y-144267690D01*
X111766276Y-144266309D01*
X111745817Y-144268984D01*
X111723992Y-144269928D01*
X111367063Y-144254344D01*
X111356114Y-144253386D01*
X110971621Y-144202767D01*
X110960795Y-144200858D01*
X110582178Y-144116920D01*
X110571561Y-144114075D01*
X110401298Y-144060392D01*
X110201698Y-143997458D01*
X110191385Y-143993705D01*
X109833068Y-143845285D01*
X109823124Y-143840647D01*
X109479132Y-143661576D01*
X109469613Y-143656081D01*
X109142532Y-143447708D01*
X109133528Y-143441403D01*
X108825862Y-143205322D01*
X108817442Y-143198257D01*
X108531517Y-142936256D01*
X108523744Y-142928483D01*
X108512363Y-142916062D01*
X108261743Y-142642558D01*
X108254678Y-142634138D01*
X108018597Y-142326472D01*
X108012292Y-142317468D01*
X107803919Y-141990387D01*
X107798423Y-141980867D01*
X107745930Y-141880029D01*
X107619353Y-141636876D01*
X107614711Y-141626923D01*
X107607498Y-141609508D01*
X107466295Y-141268615D01*
X107462539Y-141258294D01*
X107345925Y-140888439D01*
X107343080Y-140877822D01*
X107259142Y-140499205D01*
X107257233Y-140488379D01*
X107206614Y-140103886D01*
X107205656Y-140092936D01*
X107190561Y-139747208D01*
X107192188Y-139720805D01*
X107192769Y-139717352D01*
X107192770Y-139717345D01*
X107193576Y-139712552D01*
X107193729Y-139700000D01*
X108046411Y-139700000D01*
X108066754Y-140088176D01*
X108067267Y-140091416D01*
X108067268Y-140091424D01*
X108068378Y-140098432D01*
X108127562Y-140472099D01*
X108228167Y-140847562D01*
X108367468Y-141210453D01*
X108368966Y-141213393D01*
X108538863Y-141546833D01*
X108543938Y-141556794D01*
X108545734Y-141559560D01*
X108545736Y-141559563D01*
X108724883Y-141835426D01*
X108755643Y-141882793D01*
X109000266Y-142184876D01*
X109275124Y-142459734D01*
X109577207Y-142704357D01*
X109903205Y-142916062D01*
X109906139Y-142917557D01*
X109906146Y-142917561D01*
X110246607Y-143091034D01*
X110249547Y-143092532D01*
X110470547Y-143177366D01*
X110543375Y-143205322D01*
X110612438Y-143231833D01*
X110987901Y-143332438D01*
X111191793Y-143364732D01*
X111368576Y-143392732D01*
X111368584Y-143392733D01*
X111371824Y-143393246D01*
X111760000Y-143413589D01*
X112148176Y-143393246D01*
X112151416Y-143392733D01*
X112151424Y-143392732D01*
X112328207Y-143364732D01*
X112532099Y-143332438D01*
X112907562Y-143231833D01*
X112976626Y-143205322D01*
X113049453Y-143177366D01*
X113270453Y-143092532D01*
X113273393Y-143091034D01*
X113613854Y-142917561D01*
X113613861Y-142917557D01*
X113616795Y-142916062D01*
X113942793Y-142704357D01*
X114244876Y-142459734D01*
X114519734Y-142184876D01*
X114764357Y-141882793D01*
X114795117Y-141835426D01*
X114974264Y-141559563D01*
X114974266Y-141559560D01*
X114976062Y-141556794D01*
X114981138Y-141546833D01*
X115151034Y-141213393D01*
X115152532Y-141210453D01*
X115291833Y-140847562D01*
X115392438Y-140472099D01*
X115451622Y-140098432D01*
X115452732Y-140091424D01*
X115452733Y-140091416D01*
X115453246Y-140088176D01*
X115473589Y-139700000D01*
X115453246Y-139311824D01*
X115392438Y-138927901D01*
X115291833Y-138552438D01*
X115152532Y-138189547D01*
X115115550Y-138116965D01*
X115032619Y-137954205D01*
X152238666Y-137954205D01*
X152248682Y-138029266D01*
X152249058Y-138032086D01*
X152249758Y-138038639D01*
X152249977Y-138041357D01*
X152254985Y-138103599D01*
X152256060Y-138116965D01*
X152263897Y-138148870D01*
X152266426Y-138162258D01*
X152270771Y-138194820D01*
X152272232Y-138199661D01*
X152272233Y-138199663D01*
X152293478Y-138270029D01*
X152295219Y-138276390D01*
X152313963Y-138352706D01*
X152315941Y-138357366D01*
X152326801Y-138382951D01*
X152331438Y-138395761D01*
X152340933Y-138427208D01*
X152343151Y-138431756D01*
X152343154Y-138431763D01*
X152375371Y-138497818D01*
X152378107Y-138503820D01*
X152385927Y-138522243D01*
X152408812Y-138576156D01*
X152416358Y-138588138D01*
X152426319Y-138603956D01*
X152432945Y-138615860D01*
X152447346Y-138645388D01*
X152450265Y-138649525D01*
X152450265Y-138649526D01*
X152492641Y-138709597D01*
X152496301Y-138715086D01*
X152538167Y-138781567D01*
X152541508Y-138785356D01*
X152541512Y-138785362D01*
X152559898Y-138806217D01*
X152568344Y-138816912D01*
X152587274Y-138843747D01*
X152606909Y-138865250D01*
X152646625Y-138904966D01*
X152652044Y-138910736D01*
X152695350Y-138959858D01*
X152695353Y-138959861D01*
X152698698Y-138963655D01*
X152702612Y-138966870D01*
X152702613Y-138966871D01*
X152730987Y-138990178D01*
X152740107Y-138998448D01*
X155126342Y-141384684D01*
X155128796Y-141387206D01*
X155197332Y-141459681D01*
X155201349Y-141462752D01*
X155201352Y-141462755D01*
X155259761Y-141507412D01*
X155264893Y-141511554D01*
X155318051Y-141556794D01*
X155324720Y-141562470D01*
X155329046Y-141565090D01*
X155329053Y-141565095D01*
X155352824Y-141579491D01*
X155364071Y-141587163D01*
X155390174Y-141607120D01*
X155459416Y-141644247D01*
X155465137Y-141647510D01*
X155508045Y-141673496D01*
X155532357Y-141688220D01*
X155562834Y-141700534D01*
X155575150Y-141706303D01*
X155604109Y-141721831D01*
X155678433Y-141747423D01*
X155684561Y-141749714D01*
X155716906Y-141762782D01*
X155752733Y-141777258D01*
X155752737Y-141777259D01*
X155757429Y-141779155D01*
X155762368Y-141780277D01*
X155762371Y-141780278D01*
X155789460Y-141786432D01*
X155802559Y-141790163D01*
X155833631Y-141800862D01*
X155911100Y-141814243D01*
X155917504Y-141815523D01*
X155994144Y-141832935D01*
X156026953Y-141834999D01*
X156040453Y-141836585D01*
X156072836Y-141842179D01*
X156076793Y-141842359D01*
X156076796Y-141842359D01*
X156100506Y-141843436D01*
X156100525Y-141843436D01*
X156101925Y-141843500D01*
X156158107Y-141843500D01*
X156166018Y-141843749D01*
X156236412Y-141848178D01*
X156277991Y-141844101D01*
X156290287Y-141843500D01*
X165964984Y-141843500D01*
X165968502Y-141843549D01*
X166063150Y-141846193D01*
X166063153Y-141846193D01*
X166068205Y-141846334D01*
X166146098Y-141835941D01*
X166152639Y-141835242D01*
X166181332Y-141832933D01*
X166225923Y-141829346D01*
X166225927Y-141829345D01*
X166230965Y-141828940D01*
X166262878Y-141821101D01*
X166276258Y-141818574D01*
X166308820Y-141814229D01*
X166313661Y-141812768D01*
X166313663Y-141812767D01*
X166384029Y-141791522D01*
X166390392Y-141789781D01*
X166429082Y-141780278D01*
X166466706Y-141771037D01*
X166496952Y-141758199D01*
X166509763Y-141753561D01*
X166541208Y-141744067D01*
X166545756Y-141741849D01*
X166545763Y-141741846D01*
X166611818Y-141709629D01*
X166617820Y-141706893D01*
X166667978Y-141685602D01*
X166690156Y-141676188D01*
X166717956Y-141658681D01*
X166729860Y-141652055D01*
X166759388Y-141637654D01*
X166823600Y-141592357D01*
X166829086Y-141588699D01*
X166891286Y-141549529D01*
X166891287Y-141549528D01*
X166895567Y-141546833D01*
X166899356Y-141543492D01*
X166899362Y-141543488D01*
X166920217Y-141525102D01*
X166930912Y-141516656D01*
X166944016Y-141507412D01*
X166957747Y-141497726D01*
X166979250Y-141478091D01*
X167018966Y-141438375D01*
X167024736Y-141432956D01*
X167073858Y-141389650D01*
X167073861Y-141389647D01*
X167077655Y-141386302D01*
X167104179Y-141354011D01*
X167112449Y-141344892D01*
X168757341Y-139700000D01*
X189326411Y-139700000D01*
X189346754Y-140088176D01*
X189347267Y-140091416D01*
X189347268Y-140091424D01*
X189348378Y-140098432D01*
X189407562Y-140472099D01*
X189508167Y-140847562D01*
X189647468Y-141210453D01*
X189648966Y-141213393D01*
X189818863Y-141546833D01*
X189823938Y-141556794D01*
X189825734Y-141559560D01*
X189825736Y-141559563D01*
X190004883Y-141835426D01*
X190035643Y-141882793D01*
X190280266Y-142184876D01*
X190555124Y-142459734D01*
X190857207Y-142704357D01*
X191183205Y-142916062D01*
X191186139Y-142917557D01*
X191186146Y-142917561D01*
X191526607Y-143091034D01*
X191529547Y-143092532D01*
X191750547Y-143177366D01*
X191823375Y-143205322D01*
X191892438Y-143231833D01*
X192267901Y-143332438D01*
X192471793Y-143364732D01*
X192648576Y-143392732D01*
X192648584Y-143392733D01*
X192651824Y-143393246D01*
X193040000Y-143413589D01*
X193428176Y-143393246D01*
X193431416Y-143392733D01*
X193431424Y-143392732D01*
X193608207Y-143364732D01*
X193812099Y-143332438D01*
X194187562Y-143231833D01*
X194256626Y-143205322D01*
X194329452Y-143177366D01*
X194550453Y-143092532D01*
X194553393Y-143091034D01*
X194893854Y-142917561D01*
X194893861Y-142917557D01*
X194896795Y-142916062D01*
X195222793Y-142704357D01*
X195524876Y-142459734D01*
X195799734Y-142184876D01*
X196044357Y-141882793D01*
X196075117Y-141835426D01*
X196254264Y-141559563D01*
X196254266Y-141559560D01*
X196256062Y-141556794D01*
X196261138Y-141546833D01*
X196431034Y-141213393D01*
X196432532Y-141210453D01*
X196571833Y-140847562D01*
X196672438Y-140472099D01*
X196731622Y-140098432D01*
X196732732Y-140091424D01*
X196732733Y-140091416D01*
X196733246Y-140088176D01*
X196753589Y-139700000D01*
X196733246Y-139311824D01*
X196672438Y-138927901D01*
X196571833Y-138552438D01*
X196432532Y-138189547D01*
X196395550Y-138116965D01*
X196257561Y-137846147D01*
X196257557Y-137846140D01*
X196256062Y-137843206D01*
X196228424Y-137800646D01*
X196046152Y-137519971D01*
X196046152Y-137519970D01*
X196044357Y-137517207D01*
X195799734Y-137215124D01*
X195524876Y-136940266D01*
X195412983Y-136849656D01*
X195259752Y-136725572D01*
X195222793Y-136695643D01*
X194896795Y-136483938D01*
X194893861Y-136482443D01*
X194893854Y-136482439D01*
X194553393Y-136308966D01*
X194550453Y-136307468D01*
X194187562Y-136168167D01*
X193812099Y-136067562D01*
X193608207Y-136035268D01*
X193431424Y-136007268D01*
X193431416Y-136007267D01*
X193428176Y-136006754D01*
X193040000Y-135986411D01*
X192651824Y-136006754D01*
X192648584Y-136007267D01*
X192648576Y-136007268D01*
X192471793Y-136035268D01*
X192267901Y-136067562D01*
X191892438Y-136168167D01*
X191529547Y-136307468D01*
X191526607Y-136308966D01*
X191186147Y-136482439D01*
X191186140Y-136482443D01*
X191183206Y-136483938D01*
X190857207Y-136695643D01*
X190820248Y-136725572D01*
X190667018Y-136849656D01*
X190555124Y-136940266D01*
X190280266Y-137215124D01*
X190035643Y-137517207D01*
X190033848Y-137519970D01*
X190033848Y-137519971D01*
X189851577Y-137800646D01*
X189823938Y-137843206D01*
X189822443Y-137846140D01*
X189822439Y-137846147D01*
X189684450Y-138116965D01*
X189647468Y-138189547D01*
X189508167Y-138552438D01*
X189407562Y-138927901D01*
X189346754Y-139311824D01*
X189326411Y-139700000D01*
X168757341Y-139700000D01*
X169801666Y-138655675D01*
X169804188Y-138653221D01*
X169873012Y-138588138D01*
X169873014Y-138588135D01*
X169876681Y-138584668D01*
X169924411Y-138522239D01*
X169928552Y-138517108D01*
X169976191Y-138461133D01*
X169976192Y-138461132D01*
X169979470Y-138457280D01*
X169982089Y-138452955D01*
X169982093Y-138452950D01*
X169996491Y-138429176D01*
X170004163Y-138417929D01*
X170024120Y-138391826D01*
X170061243Y-138322592D01*
X170064507Y-138316868D01*
X170105221Y-138249642D01*
X170117528Y-138219181D01*
X170123308Y-138206841D01*
X170132581Y-138189547D01*
X170138831Y-138177891D01*
X170144213Y-138162262D01*
X170164412Y-138103599D01*
X170166722Y-138097421D01*
X170194258Y-138029266D01*
X170196155Y-138024571D01*
X170203432Y-137992539D01*
X170207163Y-137979441D01*
X170217862Y-137948369D01*
X170231243Y-137870900D01*
X170232526Y-137864482D01*
X170234794Y-137854502D01*
X170249935Y-137787856D01*
X170251999Y-137755047D01*
X170253585Y-137741547D01*
X170259179Y-137709164D01*
X170260500Y-137680075D01*
X170260500Y-137623892D01*
X170260749Y-137615980D01*
X170264860Y-137550641D01*
X170265178Y-137545587D01*
X170261101Y-137504008D01*
X170260500Y-137491712D01*
X170260500Y-137316565D01*
X170280529Y-137248402D01*
X170299205Y-137219367D01*
X170301733Y-137215437D01*
X170409083Y-136977129D01*
X170420065Y-136938191D01*
X170478760Y-136730076D01*
X170478761Y-136730073D01*
X170480030Y-136725572D01*
X170496832Y-136593496D01*
X170512616Y-136469421D01*
X170512616Y-136469417D01*
X170513014Y-136466291D01*
X170515431Y-136374000D01*
X170512001Y-136327839D01*
X178989173Y-136327839D01*
X179001713Y-136588908D01*
X179052704Y-136845256D01*
X179141026Y-137091252D01*
X179143242Y-137095376D01*
X179242197Y-137279541D01*
X179264737Y-137321491D01*
X179267532Y-137325234D01*
X179267534Y-137325237D01*
X179418330Y-137527177D01*
X179418335Y-137527183D01*
X179421122Y-137530915D01*
X179424431Y-137534195D01*
X179424436Y-137534201D01*
X179603426Y-137711635D01*
X179606743Y-137714923D01*
X179610505Y-137717681D01*
X179610508Y-137717684D01*
X179813750Y-137866707D01*
X179817524Y-137869474D01*
X179821667Y-137871654D01*
X179821669Y-137871655D01*
X180044684Y-137988989D01*
X180044689Y-137988991D01*
X180048834Y-137991172D01*
X180295590Y-138077344D01*
X180300183Y-138078216D01*
X180547785Y-138125224D01*
X180547788Y-138125224D01*
X180552374Y-138126095D01*
X180682958Y-138131226D01*
X180808875Y-138136174D01*
X180808881Y-138136174D01*
X180813543Y-138136357D01*
X180892977Y-138127657D01*
X181068707Y-138108412D01*
X181068712Y-138108411D01*
X181073360Y-138107902D01*
X181089704Y-138103599D01*
X181321594Y-138042548D01*
X181321596Y-138042547D01*
X181326117Y-138041357D01*
X181354260Y-138029266D01*
X181517297Y-137959219D01*
X181566262Y-137938182D01*
X181719743Y-137843206D01*
X181784547Y-137803104D01*
X181784548Y-137803104D01*
X181788519Y-137800646D01*
X181792082Y-137797629D01*
X181792087Y-137797626D01*
X181984439Y-137634787D01*
X181984440Y-137634786D01*
X181988005Y-137631768D01*
X182063584Y-137545587D01*
X182157257Y-137438774D01*
X182157261Y-137438769D01*
X182160339Y-137435259D01*
X182301733Y-137215437D01*
X182409083Y-136977129D01*
X182420065Y-136938191D01*
X182478760Y-136730076D01*
X182478761Y-136730073D01*
X182480030Y-136725572D01*
X182496832Y-136593496D01*
X182512616Y-136469421D01*
X182512616Y-136469417D01*
X182513014Y-136466291D01*
X182515431Y-136374000D01*
X182496061Y-136113348D01*
X182484725Y-136063248D01*
X182439408Y-135862980D01*
X182438377Y-135858423D01*
X182343647Y-135614823D01*
X182213951Y-135387902D01*
X182052138Y-135182643D01*
X181861763Y-135003557D01*
X181647009Y-134854576D01*
X181642816Y-134852508D01*
X181416781Y-134741040D01*
X181416778Y-134741039D01*
X181412593Y-134738975D01*
X181366449Y-134724204D01*
X181168123Y-134660720D01*
X181163665Y-134659293D01*
X180905693Y-134617279D01*
X180791942Y-134615790D01*
X180649022Y-134613919D01*
X180649019Y-134613919D01*
X180644345Y-134613858D01*
X180385362Y-134649104D01*
X180134433Y-134722243D01*
X180130180Y-134724203D01*
X180130179Y-134724204D01*
X180093659Y-134741040D01*
X179897072Y-134831668D01*
X179858067Y-134857241D01*
X179682404Y-134972410D01*
X179682399Y-134972414D01*
X179678491Y-134974976D01*
X179483494Y-135149018D01*
X179316363Y-135349970D01*
X179180771Y-135573419D01*
X179079697Y-135814455D01*
X179015359Y-136067783D01*
X178989173Y-136327839D01*
X170512001Y-136327839D01*
X170496061Y-136113348D01*
X170484725Y-136063248D01*
X170439408Y-135862980D01*
X170438377Y-135858423D01*
X170343647Y-135614823D01*
X170213951Y-135387902D01*
X170052138Y-135182643D01*
X169861763Y-135003557D01*
X169647009Y-134854576D01*
X169642816Y-134852508D01*
X169416781Y-134741040D01*
X169416778Y-134741039D01*
X169412593Y-134738975D01*
X169366449Y-134724204D01*
X169168123Y-134660720D01*
X169163665Y-134659293D01*
X168905693Y-134617279D01*
X168791942Y-134615790D01*
X168649022Y-134613919D01*
X168649019Y-134613919D01*
X168644345Y-134613858D01*
X168385362Y-134649104D01*
X168134433Y-134722243D01*
X168130180Y-134724203D01*
X168130179Y-134724204D01*
X168093659Y-134741040D01*
X167897072Y-134831668D01*
X167858067Y-134857241D01*
X167682404Y-134972410D01*
X167682399Y-134972414D01*
X167678491Y-134974976D01*
X167483494Y-135149018D01*
X167316363Y-135349970D01*
X167180771Y-135573419D01*
X167079697Y-135814455D01*
X167015359Y-136067783D01*
X166989173Y-136327839D01*
X167001713Y-136588908D01*
X167052704Y-136845256D01*
X167054280Y-136849647D01*
X167054283Y-136849656D01*
X167103036Y-136985444D01*
X167107230Y-137056316D01*
X167073543Y-137117116D01*
X165401064Y-138789595D01*
X165338752Y-138823621D01*
X165311969Y-138826500D01*
X156887031Y-138826500D01*
X156818910Y-138806498D01*
X156797936Y-138789595D01*
X155295405Y-137287064D01*
X155261379Y-137224752D01*
X155258500Y-137197969D01*
X155258500Y-133411401D01*
X155278502Y-133343280D01*
X155332158Y-133296787D01*
X155402432Y-133286683D01*
X155459713Y-133310311D01*
X155531542Y-133363754D01*
X155536293Y-133366170D01*
X155536297Y-133366172D01*
X155580713Y-133388754D01*
X155737051Y-133468240D01*
X155742145Y-133469822D01*
X155742148Y-133469823D01*
X155942020Y-133531885D01*
X155957227Y-133536607D01*
X155962516Y-133537308D01*
X156180489Y-133566198D01*
X156180494Y-133566198D01*
X156185774Y-133566898D01*
X156191103Y-133566698D01*
X156191105Y-133566698D01*
X156308038Y-133562308D01*
X156416158Y-133558249D01*
X156641791Y-133510907D01*
X156646750Y-133508949D01*
X156646752Y-133508948D01*
X156851256Y-133428185D01*
X156851258Y-133428184D01*
X156856221Y-133426224D01*
X156861047Y-133423296D01*
X157048757Y-133309390D01*
X157048756Y-133309390D01*
X157053317Y-133306623D01*
X157076296Y-133286683D01*
X157223412Y-133159023D01*
X157223414Y-133159021D01*
X157227445Y-133155523D01*
X157285829Y-133084319D01*
X157370240Y-132981373D01*
X157370244Y-132981367D01*
X157373624Y-132977245D01*
X157376424Y-132972326D01*
X157391829Y-132945265D01*
X157442912Y-132895959D01*
X157512542Y-132882098D01*
X157578613Y-132908082D01*
X157605851Y-132937232D01*
X157684852Y-133054578D01*
X157691519Y-133062870D01*
X157843228Y-133221900D01*
X157851186Y-133228941D01*
X158027525Y-133360141D01*
X158036562Y-133365745D01*
X158232484Y-133465357D01*
X158242335Y-133469357D01*
X158452240Y-133534534D01*
X158462624Y-133536817D01*
X158478043Y-133538861D01*
X158492207Y-133536665D01*
X158496000Y-133523478D01*
X158496000Y-133521192D01*
X159004000Y-133521192D01*
X159007973Y-133534723D01*
X159018580Y-133536248D01*
X159136421Y-133511523D01*
X159146617Y-133508463D01*
X159351029Y-133427737D01*
X159360561Y-133423006D01*
X159548462Y-133308984D01*
X159557052Y-133302720D01*
X159723052Y-133158673D01*
X159730472Y-133151042D01*
X159869826Y-132981089D01*
X159875848Y-132972326D01*
X159891238Y-132945289D01*
X159942320Y-132895982D01*
X160011951Y-132882120D01*
X160078022Y-132908103D01*
X160105261Y-132937253D01*
X160141131Y-132990532D01*
X160187441Y-133059319D01*
X160346576Y-133226135D01*
X160531542Y-133363754D01*
X160536293Y-133366170D01*
X160536297Y-133366172D01*
X160580713Y-133388754D01*
X160737051Y-133468240D01*
X160742145Y-133469822D01*
X160742148Y-133469823D01*
X160942020Y-133531885D01*
X160957227Y-133536607D01*
X160962516Y-133537308D01*
X161180489Y-133566198D01*
X161180494Y-133566198D01*
X161185774Y-133566898D01*
X161191103Y-133566698D01*
X161191105Y-133566698D01*
X161308038Y-133562308D01*
X161416158Y-133558249D01*
X161641791Y-133510907D01*
X161646750Y-133508949D01*
X161646752Y-133508948D01*
X161851256Y-133428185D01*
X161851258Y-133428184D01*
X161856221Y-133426224D01*
X161861047Y-133423296D01*
X162048757Y-133309390D01*
X162048756Y-133309390D01*
X162053317Y-133306623D01*
X162076296Y-133286683D01*
X162223412Y-133159023D01*
X162223414Y-133159021D01*
X162227445Y-133155523D01*
X162285829Y-133084319D01*
X162370240Y-132981373D01*
X162370244Y-132981367D01*
X162373624Y-132977245D01*
X162391815Y-132945289D01*
X162485032Y-132781529D01*
X162487675Y-132776886D01*
X162566337Y-132560175D01*
X162602102Y-132362392D01*
X162606623Y-132337392D01*
X162606624Y-132337385D01*
X162607361Y-132333308D01*
X162608500Y-132309156D01*
X162608500Y-131897110D01*
X162593920Y-131725280D01*
X162592582Y-131720125D01*
X162592581Y-131720119D01*
X162537343Y-131507297D01*
X162537342Y-131507293D01*
X162536001Y-131502128D01*
X162524740Y-131477128D01*
X162443507Y-131296798D01*
X162441312Y-131291925D01*
X162312559Y-131100681D01*
X162292934Y-131080108D01*
X162224725Y-131008608D01*
X162153424Y-130933865D01*
X161968458Y-130796246D01*
X161963707Y-130793830D01*
X161963703Y-130793828D01*
X161845588Y-130733776D01*
X161762949Y-130691760D01*
X161757855Y-130690178D01*
X161757852Y-130690177D01*
X161547871Y-130624976D01*
X161542773Y-130623393D01*
X161537484Y-130622692D01*
X161319511Y-130593802D01*
X161319506Y-130593802D01*
X161314226Y-130593102D01*
X161308897Y-130593302D01*
X161308895Y-130593302D01*
X161199034Y-130597426D01*
X161083842Y-130601751D01*
X161078623Y-130602846D01*
X161056566Y-130607474D01*
X160858209Y-130649093D01*
X160853250Y-130651051D01*
X160853248Y-130651052D01*
X160648744Y-130731815D01*
X160648742Y-130731816D01*
X160643779Y-130733776D01*
X160639220Y-130736543D01*
X160639217Y-130736544D01*
X160544113Y-130794255D01*
X160446683Y-130853377D01*
X160442653Y-130856874D01*
X160296607Y-130983606D01*
X160272555Y-131004477D01*
X160269168Y-131008608D01*
X160129760Y-131178627D01*
X160129756Y-131178633D01*
X160126376Y-131182755D01*
X160123733Y-131187398D01*
X160108171Y-131214735D01*
X160057088Y-131264041D01*
X159987458Y-131277902D01*
X159921387Y-131251918D01*
X159894149Y-131222768D01*
X159815148Y-131105422D01*
X159808481Y-131097130D01*
X159656772Y-130938100D01*
X159648814Y-130931059D01*
X159472475Y-130799859D01*
X159463438Y-130794255D01*
X159267516Y-130694643D01*
X159257665Y-130690643D01*
X159047760Y-130625466D01*
X159037376Y-130623183D01*
X159021957Y-130621139D01*
X159007793Y-130623335D01*
X159004000Y-130636522D01*
X159004000Y-133521192D01*
X158496000Y-133521192D01*
X158496000Y-130638808D01*
X158492027Y-130625277D01*
X158481420Y-130623752D01*
X158363579Y-130648477D01*
X158353383Y-130651537D01*
X158148971Y-130732263D01*
X158139439Y-130736994D01*
X157951538Y-130851016D01*
X157942948Y-130857280D01*
X157776948Y-131001327D01*
X157769528Y-131008958D01*
X157630174Y-131178911D01*
X157624152Y-131187674D01*
X157608762Y-131214711D01*
X157557680Y-131264018D01*
X157488049Y-131277880D01*
X157421978Y-131251897D01*
X157394739Y-131222747D01*
X157350983Y-131157755D01*
X157312559Y-131100681D01*
X157292934Y-131080108D01*
X157224725Y-131008608D01*
X157153424Y-130933865D01*
X156968458Y-130796246D01*
X156963707Y-130793830D01*
X156963703Y-130793828D01*
X156845588Y-130733776D01*
X156762949Y-130691760D01*
X156757855Y-130690178D01*
X156757852Y-130690177D01*
X156547871Y-130624976D01*
X156542773Y-130623393D01*
X156537484Y-130622692D01*
X156319511Y-130593802D01*
X156319506Y-130593802D01*
X156314226Y-130593102D01*
X156308897Y-130593302D01*
X156308895Y-130593302D01*
X156199034Y-130597426D01*
X156083842Y-130601751D01*
X156078623Y-130602846D01*
X156056566Y-130607474D01*
X155858209Y-130649093D01*
X155853250Y-130651051D01*
X155853248Y-130651052D01*
X155648744Y-130731815D01*
X155648742Y-130731816D01*
X155643779Y-130733776D01*
X155639220Y-130736543D01*
X155639217Y-130736544D01*
X155544113Y-130794255D01*
X155446683Y-130853377D01*
X155442653Y-130856874D01*
X155296607Y-130983606D01*
X155272555Y-131004477D01*
X155243330Y-131040120D01*
X155184671Y-131080114D01*
X155113701Y-131082046D01*
X155052952Y-131045302D01*
X155038752Y-131026532D01*
X154952332Y-130886880D01*
X154948478Y-130880652D01*
X154823303Y-130755695D01*
X154792494Y-130736704D01*
X154678968Y-130666725D01*
X154678966Y-130666724D01*
X154672738Y-130662885D01*
X154590419Y-130635581D01*
X154511389Y-130609368D01*
X154511387Y-130609368D01*
X154504861Y-130607203D01*
X154498025Y-130606503D01*
X154498022Y-130606502D01*
X154454969Y-130602091D01*
X154400400Y-130596500D01*
X154038736Y-130596500D01*
X154012970Y-130593837D01*
X153944634Y-130579561D01*
X153944635Y-130579561D01*
X153939680Y-130578526D01*
X153934631Y-130578297D01*
X153934625Y-130578296D01*
X153824035Y-130573274D01*
X153697183Y-130567514D01*
X153692163Y-130568095D01*
X153692159Y-130568095D01*
X153456044Y-130595415D01*
X153455992Y-130594962D01*
X153440299Y-130596500D01*
X153099600Y-130596500D01*
X153096354Y-130596837D01*
X153096350Y-130596837D01*
X153000692Y-130606762D01*
X153000688Y-130606763D01*
X152993834Y-130607474D01*
X152987298Y-130609655D01*
X152987296Y-130609655D01*
X152855194Y-130653728D01*
X152826054Y-130663450D01*
X152675652Y-130756522D01*
X152550695Y-130881697D01*
X152546855Y-130887927D01*
X152546854Y-130887928D01*
X152472466Y-131008608D01*
X152457885Y-131032262D01*
X152402203Y-131200139D01*
X152401503Y-131206975D01*
X152401502Y-131206978D01*
X152399884Y-131222768D01*
X152391500Y-131304600D01*
X152391500Y-131389624D01*
X152376545Y-131449164D01*
X152363169Y-131474109D01*
X152284138Y-131703631D01*
X152283276Y-131708623D01*
X152250260Y-131899770D01*
X152242821Y-131942836D01*
X152241500Y-131971925D01*
X152241500Y-137850984D01*
X152241451Y-137854502D01*
X152239114Y-137938182D01*
X152238666Y-137954205D01*
X115032619Y-137954205D01*
X114977561Y-137846147D01*
X114977557Y-137846140D01*
X114976062Y-137843206D01*
X114948424Y-137800646D01*
X114766152Y-137519971D01*
X114766152Y-137519970D01*
X114764357Y-137517207D01*
X114519734Y-137215124D01*
X114244876Y-136940266D01*
X114132983Y-136849656D01*
X113979752Y-136725572D01*
X113942793Y-136695643D01*
X113616795Y-136483938D01*
X113613861Y-136482443D01*
X113613854Y-136482439D01*
X113273393Y-136308966D01*
X113270453Y-136307468D01*
X112907562Y-136168167D01*
X112532099Y-136067562D01*
X112328207Y-136035268D01*
X112151424Y-136007268D01*
X112151416Y-136007267D01*
X112148176Y-136006754D01*
X111760000Y-135986411D01*
X111371824Y-136006754D01*
X111368584Y-136007267D01*
X111368576Y-136007268D01*
X111191793Y-136035268D01*
X110987901Y-136067562D01*
X110612438Y-136168167D01*
X110249547Y-136307468D01*
X110246607Y-136308966D01*
X109906147Y-136482439D01*
X109906140Y-136482443D01*
X109903206Y-136483938D01*
X109577207Y-136695643D01*
X109540248Y-136725572D01*
X109387018Y-136849656D01*
X109275124Y-136940266D01*
X109000266Y-137215124D01*
X108755643Y-137517207D01*
X108753848Y-137519970D01*
X108753848Y-137519971D01*
X108571577Y-137800646D01*
X108543938Y-137843206D01*
X108542443Y-137846140D01*
X108542439Y-137846147D01*
X108404450Y-138116965D01*
X108367468Y-138189547D01*
X108228167Y-138552438D01*
X108127562Y-138927901D01*
X108066754Y-139311824D01*
X108046411Y-139700000D01*
X107193729Y-139700000D01*
X107189773Y-139672376D01*
X107188500Y-139654514D01*
X107188500Y-132880400D01*
X139611500Y-132880400D01*
X139611837Y-132883646D01*
X139611837Y-132883650D01*
X139621067Y-132972602D01*
X139622474Y-132986166D01*
X139624655Y-132992702D01*
X139624655Y-132992704D01*
X139660033Y-133098744D01*
X139678450Y-133153946D01*
X139771522Y-133304348D01*
X139896697Y-133429305D01*
X139902927Y-133433145D01*
X139902928Y-133433146D01*
X140040090Y-133517694D01*
X140047262Y-133522115D01*
X140092145Y-133537002D01*
X140208611Y-133575632D01*
X140208613Y-133575632D01*
X140215139Y-133577797D01*
X140221975Y-133578497D01*
X140221978Y-133578498D01*
X140257663Y-133582154D01*
X140319600Y-133588500D01*
X141620400Y-133588500D01*
X141623646Y-133588163D01*
X141623650Y-133588163D01*
X141719308Y-133578238D01*
X141719312Y-133578237D01*
X141726166Y-133577526D01*
X141732702Y-133575345D01*
X141732704Y-133575345D01*
X141864806Y-133531272D01*
X141893946Y-133521550D01*
X142044348Y-133428478D01*
X142169305Y-133303303D01*
X142259081Y-133157660D01*
X142311852Y-133110168D01*
X142381924Y-133098744D01*
X142447048Y-133127018D01*
X142457510Y-133136805D01*
X142499215Y-133180523D01*
X142566576Y-133251135D01*
X142751542Y-133388754D01*
X142756293Y-133391170D01*
X142756297Y-133391172D01*
X142819481Y-133423296D01*
X142957051Y-133493240D01*
X142962145Y-133494822D01*
X142962148Y-133494823D01*
X143098972Y-133537308D01*
X143177227Y-133561607D01*
X143182516Y-133562308D01*
X143400489Y-133591198D01*
X143400494Y-133591198D01*
X143405774Y-133591898D01*
X143411103Y-133591698D01*
X143411105Y-133591698D01*
X143520966Y-133587574D01*
X143636158Y-133583249D01*
X143658802Y-133578498D01*
X143856572Y-133537002D01*
X143861791Y-133535907D01*
X143866750Y-133533949D01*
X143866752Y-133533948D01*
X144071256Y-133453185D01*
X144071258Y-133453184D01*
X144076221Y-133451224D01*
X144112343Y-133429305D01*
X144268757Y-133334390D01*
X144268756Y-133334390D01*
X144273317Y-133331623D01*
X144325106Y-133286683D01*
X144443412Y-133184023D01*
X144443414Y-133184021D01*
X144447445Y-133180523D01*
X144514500Y-133098744D01*
X144590240Y-133006373D01*
X144590244Y-133006367D01*
X144593624Y-133002245D01*
X144654113Y-132895982D01*
X144705032Y-132806529D01*
X144707675Y-132801886D01*
X144786337Y-132585175D01*
X144790858Y-132560175D01*
X144826623Y-132362392D01*
X144826624Y-132362385D01*
X144827361Y-132358308D01*
X144828197Y-132340586D01*
X144828430Y-132335644D01*
X144828430Y-132335637D01*
X144828500Y-132334156D01*
X144828500Y-131872110D01*
X144816492Y-131730591D01*
X144814371Y-131705591D01*
X144814370Y-131705587D01*
X144813920Y-131700280D01*
X144812582Y-131695125D01*
X144812581Y-131695119D01*
X144757343Y-131482297D01*
X144757342Y-131482293D01*
X144756001Y-131477128D01*
X144752635Y-131469654D01*
X144663507Y-131271798D01*
X144661312Y-131266925D01*
X144532559Y-131075681D01*
X144498635Y-131040119D01*
X144461295Y-131000977D01*
X144373424Y-130908865D01*
X144335505Y-130880652D01*
X144192740Y-130774432D01*
X144192741Y-130774432D01*
X144188458Y-130771246D01*
X144183707Y-130768830D01*
X144183703Y-130768828D01*
X144061731Y-130706815D01*
X143982949Y-130666760D01*
X143977855Y-130665178D01*
X143977852Y-130665177D01*
X143767871Y-130599976D01*
X143762773Y-130598393D01*
X143728134Y-130593802D01*
X143539511Y-130568802D01*
X143539506Y-130568802D01*
X143534226Y-130568102D01*
X143528897Y-130568302D01*
X143528895Y-130568302D01*
X143419034Y-130572427D01*
X143303842Y-130576751D01*
X143298623Y-130577846D01*
X143276566Y-130582474D01*
X143078209Y-130624093D01*
X143073250Y-130626051D01*
X143073248Y-130626052D01*
X142868744Y-130706815D01*
X142868742Y-130706816D01*
X142863779Y-130708776D01*
X142859220Y-130711543D01*
X142859217Y-130711544D01*
X142760832Y-130771246D01*
X142666683Y-130828377D01*
X142662653Y-130831874D01*
X142540674Y-130937722D01*
X142492555Y-130979477D01*
X142463330Y-131015120D01*
X142404671Y-131055114D01*
X142333701Y-131057046D01*
X142272952Y-131020302D01*
X142258752Y-131001532D01*
X142172332Y-130861880D01*
X142168478Y-130855652D01*
X142043303Y-130730695D01*
X142037072Y-130726854D01*
X141898968Y-130641725D01*
X141898966Y-130641724D01*
X141892738Y-130637885D01*
X141783194Y-130601551D01*
X141731389Y-130584368D01*
X141731387Y-130584368D01*
X141724861Y-130582203D01*
X141718025Y-130581503D01*
X141718022Y-130581502D01*
X141674969Y-130577091D01*
X141620400Y-130571500D01*
X140319600Y-130571500D01*
X140316354Y-130571837D01*
X140316350Y-130571837D01*
X140220692Y-130581762D01*
X140220688Y-130581763D01*
X140213834Y-130582474D01*
X140207298Y-130584655D01*
X140207296Y-130584655D01*
X140141034Y-130606762D01*
X140046054Y-130638450D01*
X139895652Y-130731522D01*
X139770695Y-130856697D01*
X139766855Y-130862927D01*
X139766854Y-130862928D01*
X139736161Y-130912722D01*
X139677885Y-131007262D01*
X139622203Y-131175139D01*
X139621503Y-131181975D01*
X139621502Y-131181978D01*
X139619338Y-131203102D01*
X139611500Y-131279600D01*
X139611500Y-132880400D01*
X107188500Y-132880400D01*
X107188500Y-127000000D01*
X140056496Y-127000000D01*
X140076458Y-127189928D01*
X140135473Y-127371556D01*
X140230960Y-127536944D01*
X140235378Y-127541851D01*
X140235379Y-127541852D01*
X140310494Y-127625276D01*
X140358747Y-127678866D01*
X140513248Y-127791118D01*
X140519276Y-127793802D01*
X140519278Y-127793803D01*
X140681679Y-127866108D01*
X140687712Y-127868794D01*
X140781112Y-127888647D01*
X140868056Y-127907128D01*
X140868061Y-127907128D01*
X140874513Y-127908500D01*
X141065487Y-127908500D01*
X141071939Y-127907128D01*
X141071944Y-127907128D01*
X141158888Y-127888647D01*
X141252288Y-127868794D01*
X141258321Y-127866108D01*
X141420722Y-127793803D01*
X141420724Y-127793802D01*
X141426752Y-127791118D01*
X141479817Y-127752564D01*
X141546685Y-127728705D01*
X141553878Y-127728500D01*
X151701500Y-127728500D01*
X161849122Y-127728499D01*
X161917243Y-127748501D01*
X161923183Y-127752563D01*
X161923185Y-127752564D01*
X161976248Y-127791117D01*
X161982276Y-127793801D01*
X161982278Y-127793802D01*
X162144681Y-127866108D01*
X162150712Y-127868793D01*
X162244113Y-127888646D01*
X162331056Y-127907127D01*
X162331061Y-127907127D01*
X162337513Y-127908499D01*
X162528487Y-127908499D01*
X162534939Y-127907127D01*
X162534944Y-127907127D01*
X162621887Y-127888646D01*
X162715288Y-127868793D01*
X162721319Y-127866108D01*
X162883722Y-127793802D01*
X162883724Y-127793801D01*
X162889752Y-127791117D01*
X163044253Y-127678865D01*
X163172040Y-127536943D01*
X163253328Y-127396148D01*
X163264223Y-127377278D01*
X163264224Y-127377277D01*
X163267527Y-127371555D01*
X163326542Y-127189927D01*
X163346504Y-126999999D01*
X163326542Y-126810071D01*
X163267527Y-126628443D01*
X163260877Y-126616924D01*
X163200992Y-126513202D01*
X163172040Y-126463055D01*
X163149915Y-126438482D01*
X163048675Y-126326044D01*
X163048674Y-126326043D01*
X163044253Y-126321133D01*
X162901647Y-126217523D01*
X162895094Y-126212762D01*
X162895093Y-126212761D01*
X162889752Y-126208881D01*
X162883724Y-126206197D01*
X162883722Y-126206196D01*
X162721319Y-126133890D01*
X162721318Y-126133890D01*
X162715288Y-126131205D01*
X162621888Y-126111352D01*
X162534944Y-126092871D01*
X162534939Y-126092871D01*
X162528487Y-126091499D01*
X162337513Y-126091499D01*
X162331061Y-126092871D01*
X162331056Y-126092871D01*
X162244112Y-126111352D01*
X162150712Y-126131205D01*
X162144682Y-126133890D01*
X162144681Y-126133890D01*
X161982278Y-126206196D01*
X161982276Y-126206197D01*
X161976248Y-126208881D01*
X161970907Y-126212761D01*
X161970906Y-126212762D01*
X161923183Y-126247435D01*
X161856315Y-126271294D01*
X161849122Y-126271499D01*
X160337131Y-126271499D01*
X160269010Y-126251497D01*
X160222517Y-126197841D01*
X160212413Y-126127567D01*
X160219883Y-126101672D01*
X160219527Y-126101556D01*
X160276502Y-125926206D01*
X160278542Y-125919928D01*
X160279753Y-125908412D01*
X160297814Y-125736565D01*
X160298504Y-125730000D01*
X160278542Y-125540072D01*
X160219527Y-125358444D01*
X160124040Y-125193056D01*
X159996253Y-125051134D01*
X159841752Y-124938882D01*
X159835724Y-124936198D01*
X159835722Y-124936197D01*
X159673319Y-124863891D01*
X159673318Y-124863891D01*
X159667288Y-124861206D01*
X159573888Y-124841353D01*
X159486944Y-124822872D01*
X159486939Y-124822872D01*
X159480487Y-124821500D01*
X159289513Y-124821500D01*
X159283061Y-124822872D01*
X159283056Y-124822872D01*
X159196112Y-124841353D01*
X159102712Y-124861206D01*
X159096682Y-124863891D01*
X159096681Y-124863891D01*
X158934278Y-124936197D01*
X158934276Y-124936198D01*
X158928248Y-124938882D01*
X158922907Y-124942762D01*
X158922906Y-124942763D01*
X158875183Y-124977436D01*
X158808315Y-125001295D01*
X158801122Y-125001500D01*
X151713878Y-125001500D01*
X151645757Y-124981498D01*
X151639817Y-124977436D01*
X151592094Y-124942763D01*
X151592093Y-124942762D01*
X151586752Y-124938882D01*
X151580724Y-124936198D01*
X151580722Y-124936197D01*
X151418319Y-124863891D01*
X151418318Y-124863891D01*
X151412288Y-124861206D01*
X151318888Y-124841353D01*
X151231944Y-124822872D01*
X151231939Y-124822872D01*
X151225487Y-124821500D01*
X151034513Y-124821500D01*
X151028061Y-124822872D01*
X151028056Y-124822872D01*
X150941112Y-124841353D01*
X150847712Y-124861206D01*
X150841682Y-124863891D01*
X150841681Y-124863891D01*
X150679278Y-124936197D01*
X150679276Y-124936198D01*
X150673248Y-124938882D01*
X150518747Y-125051134D01*
X150390960Y-125193056D01*
X150295473Y-125358444D01*
X150236458Y-125540072D01*
X150216496Y-125730000D01*
X150217186Y-125736565D01*
X150235248Y-125908412D01*
X150236458Y-125919928D01*
X150238498Y-125926206D01*
X150295473Y-126101556D01*
X150294018Y-126102029D01*
X150302412Y-126164612D01*
X150272309Y-126228911D01*
X150212222Y-126266727D01*
X150177870Y-126271500D01*
X141553878Y-126271500D01*
X141485757Y-126251498D01*
X141479817Y-126247436D01*
X141432094Y-126212763D01*
X141432093Y-126212762D01*
X141426752Y-126208882D01*
X141420724Y-126206198D01*
X141420722Y-126206197D01*
X141258319Y-126133891D01*
X141258316Y-126133890D01*
X141252288Y-126131206D01*
X141158887Y-126111353D01*
X141071944Y-126092872D01*
X141071939Y-126092872D01*
X141065487Y-126091500D01*
X140874513Y-126091500D01*
X140868061Y-126092872D01*
X140868056Y-126092872D01*
X140781113Y-126111353D01*
X140687712Y-126131206D01*
X140681684Y-126133890D01*
X140681681Y-126133891D01*
X140519278Y-126206197D01*
X140519276Y-126206198D01*
X140513248Y-126208882D01*
X140507907Y-126212762D01*
X140507906Y-126212763D01*
X140460185Y-126247435D01*
X140358747Y-126321134D01*
X140354326Y-126326044D01*
X140354325Y-126326045D01*
X140253087Y-126438482D01*
X140230960Y-126463056D01*
X140227659Y-126468774D01*
X140139214Y-126621965D01*
X140135473Y-126628444D01*
X140076458Y-126810072D01*
X140075768Y-126816633D01*
X140075768Y-126816635D01*
X140070962Y-126862362D01*
X140056496Y-127000000D01*
X107188500Y-127000000D01*
X107188500Y-124127839D01*
X166989173Y-124127839D01*
X167001713Y-124388908D01*
X167052704Y-124645256D01*
X167141026Y-124891252D01*
X167143242Y-124895376D01*
X167207753Y-125015437D01*
X167264737Y-125121491D01*
X167267532Y-125125234D01*
X167267534Y-125125237D01*
X167418330Y-125327177D01*
X167418335Y-125327183D01*
X167421122Y-125330915D01*
X167424431Y-125334195D01*
X167424436Y-125334201D01*
X167603426Y-125511635D01*
X167606743Y-125514923D01*
X167610505Y-125517681D01*
X167610508Y-125517684D01*
X167813750Y-125666707D01*
X167817524Y-125669474D01*
X167821667Y-125671654D01*
X167821669Y-125671655D01*
X168044684Y-125788989D01*
X168044689Y-125788991D01*
X168048834Y-125791172D01*
X168295590Y-125877344D01*
X168300183Y-125878216D01*
X168547785Y-125925224D01*
X168547788Y-125925224D01*
X168552374Y-125926095D01*
X168682958Y-125931226D01*
X168808875Y-125936174D01*
X168808881Y-125936174D01*
X168813543Y-125936357D01*
X168892977Y-125927657D01*
X169068707Y-125908412D01*
X169068712Y-125908411D01*
X169073360Y-125907902D01*
X169186116Y-125878216D01*
X169321594Y-125842548D01*
X169321596Y-125842547D01*
X169326117Y-125841357D01*
X169566262Y-125738182D01*
X169788519Y-125600646D01*
X169792082Y-125597629D01*
X169792087Y-125597626D01*
X169984439Y-125434787D01*
X169984440Y-125434786D01*
X169988005Y-125431768D01*
X170052309Y-125358444D01*
X170157257Y-125238774D01*
X170157261Y-125238769D01*
X170160339Y-125235259D01*
X170301733Y-125015437D01*
X170409083Y-124777129D01*
X170480030Y-124525572D01*
X170496832Y-124393496D01*
X170512616Y-124269421D01*
X170512616Y-124269417D01*
X170513014Y-124266291D01*
X170515431Y-124174000D01*
X170507750Y-124070643D01*
X170496407Y-123918000D01*
X170496406Y-123917996D01*
X170496061Y-123913348D01*
X170484725Y-123863248D01*
X170440530Y-123667940D01*
X170438377Y-123658423D01*
X170436684Y-123654069D01*
X170365934Y-123472134D01*
X172993500Y-123472134D01*
X173000255Y-123534316D01*
X173051385Y-123670705D01*
X173138739Y-123787261D01*
X173255295Y-123874615D01*
X173391684Y-123925745D01*
X173453866Y-123932500D01*
X176050134Y-123932500D01*
X176112316Y-123925745D01*
X176248705Y-123874615D01*
X176365261Y-123787261D01*
X176405976Y-123732935D01*
X176462835Y-123690420D01*
X176506802Y-123682500D01*
X177784484Y-123682500D01*
X177788002Y-123682549D01*
X177882650Y-123685193D01*
X177882653Y-123685193D01*
X177887705Y-123685334D01*
X177965598Y-123674941D01*
X177972139Y-123674242D01*
X178000832Y-123671933D01*
X178045423Y-123668346D01*
X178045427Y-123668345D01*
X178050465Y-123667940D01*
X178082378Y-123660101D01*
X178095758Y-123657574D01*
X178128320Y-123653229D01*
X178133161Y-123651768D01*
X178133163Y-123651767D01*
X178203529Y-123630522D01*
X178209892Y-123628781D01*
X178286206Y-123610037D01*
X178316452Y-123597199D01*
X178329263Y-123592561D01*
X178360708Y-123583067D01*
X178365256Y-123580849D01*
X178365263Y-123580846D01*
X178431318Y-123548629D01*
X178437320Y-123545893D01*
X178483101Y-123526460D01*
X178509656Y-123515188D01*
X178537456Y-123497681D01*
X178549360Y-123491055D01*
X178578888Y-123476654D01*
X178585296Y-123472134D01*
X178643097Y-123431359D01*
X178648586Y-123427699D01*
X178710786Y-123388529D01*
X178710787Y-123388528D01*
X178715067Y-123385833D01*
X178718856Y-123382492D01*
X178718862Y-123382488D01*
X178739717Y-123364102D01*
X178750412Y-123355656D01*
X178753363Y-123353574D01*
X178777247Y-123336726D01*
X178798750Y-123317091D01*
X178838466Y-123277375D01*
X178844236Y-123271956D01*
X178893358Y-123228650D01*
X178893361Y-123228647D01*
X178897155Y-123225302D01*
X178923679Y-123193011D01*
X178931949Y-123183892D01*
X179118342Y-122997499D01*
X179180654Y-122963473D01*
X179251469Y-122968538D01*
X179308305Y-123011085D01*
X179333116Y-123077605D01*
X179315156Y-123151959D01*
X179186425Y-123364102D01*
X179180771Y-123373419D01*
X179079697Y-123614455D01*
X179015359Y-123867783D01*
X179014891Y-123872434D01*
X179014890Y-123872438D01*
X179008842Y-123932500D01*
X178989173Y-124127839D01*
X179001713Y-124388908D01*
X179052704Y-124645256D01*
X179141026Y-124891252D01*
X179143242Y-124895376D01*
X179207753Y-125015437D01*
X179264737Y-125121491D01*
X179267532Y-125125234D01*
X179267534Y-125125237D01*
X179418330Y-125327177D01*
X179418335Y-125327183D01*
X179421122Y-125330915D01*
X179424431Y-125334195D01*
X179424436Y-125334201D01*
X179603426Y-125511635D01*
X179606743Y-125514923D01*
X179610505Y-125517681D01*
X179610508Y-125517684D01*
X179813750Y-125666707D01*
X179817524Y-125669474D01*
X179821667Y-125671654D01*
X179821669Y-125671655D01*
X180044684Y-125788989D01*
X180044689Y-125788991D01*
X180048834Y-125791172D01*
X180295590Y-125877344D01*
X180300183Y-125878216D01*
X180547785Y-125925224D01*
X180547788Y-125925224D01*
X180552374Y-125926095D01*
X180682958Y-125931226D01*
X180808875Y-125936174D01*
X180808881Y-125936174D01*
X180813543Y-125936357D01*
X180892977Y-125927657D01*
X181068707Y-125908412D01*
X181068712Y-125908411D01*
X181073360Y-125907902D01*
X181186116Y-125878216D01*
X181321594Y-125842548D01*
X181321596Y-125842547D01*
X181326117Y-125841357D01*
X181566262Y-125738182D01*
X181788519Y-125600646D01*
X181792082Y-125597629D01*
X181792087Y-125597626D01*
X181984439Y-125434787D01*
X181984440Y-125434786D01*
X181988005Y-125431768D01*
X182052309Y-125358444D01*
X182157257Y-125238774D01*
X182157261Y-125238769D01*
X182160339Y-125235259D01*
X182260205Y-125080000D01*
X187956502Y-125080000D01*
X187976457Y-125308087D01*
X188035716Y-125529243D01*
X188038039Y-125534224D01*
X188038039Y-125534225D01*
X188130151Y-125731762D01*
X188130154Y-125731767D01*
X188132477Y-125736749D01*
X188204432Y-125839511D01*
X188231534Y-125878216D01*
X188263802Y-125924300D01*
X188425700Y-126086198D01*
X188430208Y-126089355D01*
X188430211Y-126089357D01*
X188433272Y-126091500D01*
X188613251Y-126217523D01*
X188618233Y-126219846D01*
X188618238Y-126219849D01*
X188815775Y-126311961D01*
X188820757Y-126314284D01*
X188826065Y-126315706D01*
X188826067Y-126315707D01*
X189036598Y-126372119D01*
X189036600Y-126372119D01*
X189041913Y-126373543D01*
X189270000Y-126393498D01*
X189498087Y-126373543D01*
X189503400Y-126372119D01*
X189503402Y-126372119D01*
X189713933Y-126315707D01*
X189713935Y-126315706D01*
X189719243Y-126314284D01*
X189724225Y-126311961D01*
X189921762Y-126219849D01*
X189921767Y-126219846D01*
X189926749Y-126217523D01*
X190106728Y-126091500D01*
X190109789Y-126089357D01*
X190109792Y-126089355D01*
X190114300Y-126086198D01*
X190276198Y-125924300D01*
X190308467Y-125878216D01*
X190335568Y-125839511D01*
X190407523Y-125736749D01*
X190409846Y-125731767D01*
X190409849Y-125731762D01*
X190501961Y-125534225D01*
X190501961Y-125534224D01*
X190504284Y-125529243D01*
X190563543Y-125308087D01*
X190583498Y-125080000D01*
X190563543Y-124851913D01*
X190562119Y-124846598D01*
X190505707Y-124636067D01*
X190505706Y-124636065D01*
X190504284Y-124630757D01*
X190453073Y-124520934D01*
X190409849Y-124428238D01*
X190409846Y-124428233D01*
X190407523Y-124423251D01*
X190276198Y-124235700D01*
X190114300Y-124073802D01*
X190109792Y-124070645D01*
X190109789Y-124070643D01*
X190031611Y-124015902D01*
X189926749Y-123942477D01*
X189921767Y-123940154D01*
X189921762Y-123940151D01*
X189724225Y-123848039D01*
X189724224Y-123848039D01*
X189719243Y-123845716D01*
X189713935Y-123844294D01*
X189713933Y-123844293D01*
X189503402Y-123787881D01*
X189503400Y-123787881D01*
X189498087Y-123786457D01*
X189270000Y-123766502D01*
X189041913Y-123786457D01*
X189036600Y-123787881D01*
X189036598Y-123787881D01*
X188826067Y-123844293D01*
X188826065Y-123844294D01*
X188820757Y-123845716D01*
X188815776Y-123848039D01*
X188815775Y-123848039D01*
X188618238Y-123940151D01*
X188618233Y-123940154D01*
X188613251Y-123942477D01*
X188508389Y-124015902D01*
X188430211Y-124070643D01*
X188430208Y-124070645D01*
X188425700Y-124073802D01*
X188263802Y-124235700D01*
X188132477Y-124423251D01*
X188130154Y-124428233D01*
X188130151Y-124428238D01*
X188086927Y-124520934D01*
X188035716Y-124630757D01*
X188034294Y-124636065D01*
X188034293Y-124636067D01*
X187977881Y-124846598D01*
X187976457Y-124851913D01*
X187956502Y-125080000D01*
X182260205Y-125080000D01*
X182301733Y-125015437D01*
X182409083Y-124777129D01*
X182480030Y-124525572D01*
X182496832Y-124393496D01*
X182512616Y-124269421D01*
X182512616Y-124269417D01*
X182513014Y-124266291D01*
X182515431Y-124174000D01*
X182507750Y-124070643D01*
X182496407Y-123918000D01*
X182496406Y-123917996D01*
X182496061Y-123913348D01*
X182484725Y-123863248D01*
X182440530Y-123667940D01*
X182438377Y-123658423D01*
X182436684Y-123654069D01*
X182345340Y-123419176D01*
X182345339Y-123419173D01*
X182343647Y-123414823D01*
X182213951Y-123187902D01*
X182052138Y-122982643D01*
X181861763Y-122803557D01*
X181647009Y-122654576D01*
X181642816Y-122652508D01*
X181416781Y-122541040D01*
X181416778Y-122541039D01*
X181412593Y-122538975D01*
X181366449Y-122524204D01*
X181168123Y-122460720D01*
X181163665Y-122459293D01*
X180905693Y-122417279D01*
X180791942Y-122415790D01*
X180649022Y-122413919D01*
X180649019Y-122413919D01*
X180644345Y-122413858D01*
X180385362Y-122449104D01*
X180134433Y-122522243D01*
X180130180Y-122524203D01*
X180130179Y-122524204D01*
X180096507Y-122539727D01*
X179897072Y-122631668D01*
X179858067Y-122657241D01*
X179722110Y-122746378D01*
X179654174Y-122767001D01*
X179585874Y-122747621D01*
X179538894Y-122694392D01*
X179528149Y-122624213D01*
X179557052Y-122559366D01*
X179563930Y-122551911D01*
X181063436Y-121052405D01*
X181125748Y-121018379D01*
X181152531Y-121015500D01*
X188062984Y-121015500D01*
X188066502Y-121015549D01*
X188161150Y-121018193D01*
X188161153Y-121018193D01*
X188166205Y-121018334D01*
X188244098Y-121007941D01*
X188250639Y-121007242D01*
X188279332Y-121004933D01*
X188323923Y-121001346D01*
X188323927Y-121001345D01*
X188328965Y-121000940D01*
X188360878Y-120993101D01*
X188374258Y-120990574D01*
X188406820Y-120986229D01*
X188411661Y-120984768D01*
X188411663Y-120984767D01*
X188482029Y-120963522D01*
X188488392Y-120961781D01*
X188564706Y-120943037D01*
X188594952Y-120930199D01*
X188607763Y-120925561D01*
X188634362Y-120917530D01*
X188639208Y-120916067D01*
X188643756Y-120913849D01*
X188643763Y-120913846D01*
X188709818Y-120881629D01*
X188715820Y-120878893D01*
X188765834Y-120857663D01*
X188788156Y-120848188D01*
X188815956Y-120830681D01*
X188827860Y-120824055D01*
X188857388Y-120809654D01*
X188921600Y-120764357D01*
X188927086Y-120760699D01*
X188989286Y-120721529D01*
X188989287Y-120721528D01*
X188993567Y-120718833D01*
X188997356Y-120715492D01*
X188997362Y-120715488D01*
X189018217Y-120697102D01*
X189028912Y-120688656D01*
X189045017Y-120677295D01*
X189055747Y-120669726D01*
X189077250Y-120650091D01*
X189116966Y-120610375D01*
X189122736Y-120604956D01*
X189171858Y-120561650D01*
X189171861Y-120561647D01*
X189175655Y-120558302D01*
X189202179Y-120526011D01*
X189210449Y-120516892D01*
X189323805Y-120403536D01*
X189325431Y-120401626D01*
X189325437Y-120401619D01*
X189438192Y-120269132D01*
X189438194Y-120269130D01*
X189441470Y-120265280D01*
X189567221Y-120057642D01*
X189658155Y-119832571D01*
X189711935Y-119595856D01*
X189727178Y-119353588D01*
X189703489Y-119111998D01*
X189641481Y-118877304D01*
X189542746Y-118655544D01*
X189409826Y-118452422D01*
X189290192Y-118321405D01*
X189249551Y-118276897D01*
X189249549Y-118276895D01*
X189246142Y-118273164D01*
X189114105Y-118168513D01*
X189059871Y-118125527D01*
X189059865Y-118125523D01*
X189055902Y-118122382D01*
X188874311Y-118020894D01*
X188848422Y-118006425D01*
X188848419Y-118006424D01*
X188844002Y-118003955D01*
X188729949Y-117962443D01*
X188620652Y-117922661D01*
X188620647Y-117922660D01*
X188615895Y-117920930D01*
X188610926Y-117919982D01*
X188610922Y-117919981D01*
X188382422Y-117876393D01*
X188377447Y-117875444D01*
X188221949Y-117871100D01*
X188139850Y-117868807D01*
X188139847Y-117868807D01*
X188134795Y-117868666D01*
X188129782Y-117869335D01*
X188129780Y-117869335D01*
X187917526Y-117897656D01*
X187894180Y-117900771D01*
X187889339Y-117902233D01*
X187889337Y-117902233D01*
X187666643Y-117969468D01*
X187666639Y-117969470D01*
X187661792Y-117970933D01*
X187631417Y-117985748D01*
X187576182Y-117998500D01*
X180499516Y-117998500D01*
X180495998Y-117998451D01*
X180401351Y-117995807D01*
X180401348Y-117995807D01*
X180396295Y-117995666D01*
X180391282Y-117996335D01*
X180391279Y-117996335D01*
X180318411Y-118006057D01*
X180311854Y-118006758D01*
X180238580Y-118012654D01*
X180238579Y-118012654D01*
X180233535Y-118013060D01*
X180228624Y-118014266D01*
X180228619Y-118014267D01*
X180201639Y-118020894D01*
X180188250Y-118023424D01*
X180175815Y-118025083D01*
X180155680Y-118027770D01*
X180080449Y-118050484D01*
X180074104Y-118052220D01*
X179997794Y-118070963D01*
X179993142Y-118072938D01*
X179993138Y-118072939D01*
X179967552Y-118083800D01*
X179954739Y-118088438D01*
X179923292Y-118097932D01*
X179852638Y-118132392D01*
X179846704Y-118135097D01*
X179774344Y-118165812D01*
X179770064Y-118168507D01*
X179770053Y-118168513D01*
X179746547Y-118183316D01*
X179734640Y-118189944D01*
X179722587Y-118195823D01*
X179705112Y-118204346D01*
X179700983Y-118207259D01*
X179640903Y-118249641D01*
X179635414Y-118253301D01*
X179603873Y-118273164D01*
X179568933Y-118295167D01*
X179565144Y-118298508D01*
X179565138Y-118298512D01*
X179544283Y-118316898D01*
X179533588Y-118325344D01*
X179506753Y-118344274D01*
X179485250Y-118363909D01*
X179445534Y-118403625D01*
X179439764Y-118409044D01*
X179390642Y-118452350D01*
X179390639Y-118452353D01*
X179386845Y-118455698D01*
X179383635Y-118459606D01*
X179383634Y-118459607D01*
X179360321Y-118487989D01*
X179352051Y-118497108D01*
X177220564Y-120628595D01*
X177158252Y-120662621D01*
X177131469Y-120665500D01*
X176506802Y-120665500D01*
X176438681Y-120645498D01*
X176405976Y-120615065D01*
X176370642Y-120567919D01*
X176365261Y-120560739D01*
X176248705Y-120473385D01*
X176112316Y-120422255D01*
X176050134Y-120415500D01*
X173453866Y-120415500D01*
X173391684Y-120422255D01*
X173255295Y-120473385D01*
X173138739Y-120560739D01*
X173051385Y-120677295D01*
X173000255Y-120813684D01*
X172993500Y-120875866D01*
X172993500Y-123472134D01*
X170365934Y-123472134D01*
X170345340Y-123419176D01*
X170345339Y-123419173D01*
X170343647Y-123414823D01*
X170213951Y-123187902D01*
X170052138Y-122982643D01*
X169861763Y-122803557D01*
X169647009Y-122654576D01*
X169642816Y-122652508D01*
X169416781Y-122541040D01*
X169416778Y-122541039D01*
X169412593Y-122538975D01*
X169366449Y-122524204D01*
X169168123Y-122460720D01*
X169163665Y-122459293D01*
X168905693Y-122417279D01*
X168791942Y-122415790D01*
X168649022Y-122413919D01*
X168649019Y-122413919D01*
X168644345Y-122413858D01*
X168385362Y-122449104D01*
X168134433Y-122522243D01*
X168130180Y-122524203D01*
X168130179Y-122524204D01*
X168096507Y-122539727D01*
X167897072Y-122631668D01*
X167858067Y-122657241D01*
X167682404Y-122772410D01*
X167682399Y-122772414D01*
X167678491Y-122774976D01*
X167483494Y-122949018D01*
X167316363Y-123149970D01*
X167313934Y-123153973D01*
X167186425Y-123364102D01*
X167180771Y-123373419D01*
X167079697Y-123614455D01*
X167015359Y-123867783D01*
X167014891Y-123872434D01*
X167014890Y-123872438D01*
X167008842Y-123932500D01*
X166989173Y-124127839D01*
X107188500Y-124127839D01*
X107188500Y-110414200D01*
X187684940Y-110414200D01*
X187704759Y-110729220D01*
X187763905Y-111039272D01*
X187861444Y-111339466D01*
X187863131Y-111343052D01*
X187863133Y-111343056D01*
X187994150Y-111621483D01*
X187994154Y-111621490D01*
X187995838Y-111625069D01*
X188164968Y-111891575D01*
X188366167Y-112134782D01*
X188596260Y-112350854D01*
X188637961Y-112381151D01*
X188681314Y-112437372D01*
X188689900Y-112483087D01*
X188689900Y-113974384D01*
X188689851Y-113977902D01*
X188687066Y-114077605D01*
X188687735Y-114082619D01*
X188697458Y-114155486D01*
X188698158Y-114162039D01*
X188704460Y-114240365D01*
X188712297Y-114272270D01*
X188714826Y-114285658D01*
X188719171Y-114318220D01*
X188720632Y-114323061D01*
X188720633Y-114323063D01*
X188741878Y-114393429D01*
X188743619Y-114399790D01*
X188762363Y-114476106D01*
X188764341Y-114480766D01*
X188775201Y-114506351D01*
X188779838Y-114519161D01*
X188789333Y-114550608D01*
X188791551Y-114555156D01*
X188791554Y-114555163D01*
X188823771Y-114621218D01*
X188826507Y-114627220D01*
X188857212Y-114699556D01*
X188859904Y-114703830D01*
X188874719Y-114727356D01*
X188881345Y-114739260D01*
X188895746Y-114768788D01*
X188898665Y-114772925D01*
X188898665Y-114772926D01*
X188941041Y-114832997D01*
X188944701Y-114838486D01*
X188986567Y-114904967D01*
X188989908Y-114908756D01*
X188989912Y-114908762D01*
X189008298Y-114929617D01*
X189016744Y-114940312D01*
X189035674Y-114967147D01*
X189055309Y-114988650D01*
X189095025Y-115028366D01*
X189100444Y-115034136D01*
X189143750Y-115083258D01*
X189143753Y-115083261D01*
X189147098Y-115087055D01*
X189151012Y-115090270D01*
X189151013Y-115090271D01*
X189179387Y-115113578D01*
X189188507Y-115121848D01*
X191621595Y-117554937D01*
X191655621Y-117617249D01*
X191658500Y-117644032D01*
X191658500Y-120508984D01*
X191658451Y-120512502D01*
X191657104Y-120560739D01*
X191655666Y-120612205D01*
X191656335Y-120617219D01*
X191666058Y-120690086D01*
X191666758Y-120696639D01*
X191668275Y-120715488D01*
X191672207Y-120764359D01*
X191673060Y-120774965D01*
X191680897Y-120806870D01*
X191683426Y-120820258D01*
X191687771Y-120852820D01*
X191689233Y-120857661D01*
X191689233Y-120857663D01*
X191700122Y-120893728D01*
X191705500Y-120930146D01*
X191705500Y-122450984D01*
X191705451Y-122454502D01*
X191704230Y-122498229D01*
X191702666Y-122554205D01*
X191708748Y-122599783D01*
X191713058Y-122632086D01*
X191713759Y-122638647D01*
X191718406Y-122696403D01*
X191720060Y-122716965D01*
X191727590Y-122747621D01*
X191727897Y-122748870D01*
X191730426Y-122762258D01*
X191734771Y-122794820D01*
X191736232Y-122799661D01*
X191736233Y-122799663D01*
X191757478Y-122870029D01*
X191759219Y-122876390D01*
X191777963Y-122952706D01*
X191779941Y-122957366D01*
X191790801Y-122982951D01*
X191795438Y-122995761D01*
X191804933Y-123027208D01*
X191807151Y-123031756D01*
X191807154Y-123031763D01*
X191839371Y-123097818D01*
X191842107Y-123103820D01*
X191872812Y-123176156D01*
X191888123Y-123200468D01*
X191890319Y-123203956D01*
X191896945Y-123215860D01*
X191911346Y-123245388D01*
X191914265Y-123249525D01*
X191914265Y-123249526D01*
X191956641Y-123309597D01*
X191960301Y-123315086D01*
X191994519Y-123369422D01*
X192002167Y-123381567D01*
X192005508Y-123385356D01*
X192005512Y-123385362D01*
X192023898Y-123406217D01*
X192032344Y-123416912D01*
X192051274Y-123443747D01*
X192053944Y-123446671D01*
X192063240Y-123456851D01*
X192070909Y-123465250D01*
X192110625Y-123504966D01*
X192116044Y-123510736D01*
X192159350Y-123559858D01*
X192159353Y-123559861D01*
X192162698Y-123563655D01*
X192166606Y-123566865D01*
X192166607Y-123566866D01*
X192194989Y-123590179D01*
X192204108Y-123598449D01*
X192724595Y-124118936D01*
X192758621Y-124181248D01*
X192761500Y-124208031D01*
X192761500Y-126441001D01*
X192761702Y-126443509D01*
X192761702Y-126443514D01*
X192767943Y-126521074D01*
X192776060Y-126621965D01*
X192833963Y-126857706D01*
X192928812Y-127081156D01*
X193058167Y-127286567D01*
X193061512Y-127290361D01*
X193215350Y-127464858D01*
X193215353Y-127464861D01*
X193218698Y-127468655D01*
X193222606Y-127471865D01*
X193222607Y-127471866D01*
X193329242Y-127559456D01*
X193406278Y-127622734D01*
X193410646Y-127625276D01*
X193588354Y-127728705D01*
X193616078Y-127744841D01*
X193620801Y-127746654D01*
X193837978Y-127830020D01*
X193837982Y-127830021D01*
X193842702Y-127831833D01*
X193847652Y-127832867D01*
X193847655Y-127832868D01*
X194075369Y-127880440D01*
X194075373Y-127880440D01*
X194080320Y-127881474D01*
X194322817Y-127892486D01*
X194327837Y-127891905D01*
X194327841Y-127891905D01*
X194558929Y-127865167D01*
X194558933Y-127865166D01*
X194563956Y-127864585D01*
X194568820Y-127863209D01*
X194568823Y-127863208D01*
X194792669Y-127799866D01*
X194792668Y-127799866D01*
X194797532Y-127798490D01*
X194802108Y-127796356D01*
X194802114Y-127796354D01*
X195012954Y-127698038D01*
X195012958Y-127698036D01*
X195017536Y-127695901D01*
X195036889Y-127682749D01*
X195214119Y-127562302D01*
X195218307Y-127559456D01*
X195394681Y-127392668D01*
X195406448Y-127377278D01*
X195539047Y-127203846D01*
X195539050Y-127203842D01*
X195542120Y-127199826D01*
X195656831Y-126985891D01*
X195735862Y-126756369D01*
X195777179Y-126517164D01*
X195778500Y-126488075D01*
X195778500Y-123555016D01*
X195778549Y-123551498D01*
X195781193Y-123456851D01*
X195781193Y-123456848D01*
X195781334Y-123451795D01*
X195780651Y-123446671D01*
X195770943Y-123373911D01*
X195770242Y-123367354D01*
X195764346Y-123294080D01*
X195764346Y-123294079D01*
X195763940Y-123289035D01*
X195760388Y-123274570D01*
X195756106Y-123257139D01*
X195753576Y-123243750D01*
X195749899Y-123216195D01*
X195749230Y-123211180D01*
X195726516Y-123135949D01*
X195724778Y-123129595D01*
X195707244Y-123058208D01*
X195706037Y-123053294D01*
X195693200Y-123023052D01*
X195688562Y-123010238D01*
X195680532Y-122983642D01*
X195679068Y-122978792D01*
X195644608Y-122908138D01*
X195641903Y-122902204D01*
X195611188Y-122829844D01*
X195608493Y-122825564D01*
X195608487Y-122825553D01*
X195593684Y-122802047D01*
X195587056Y-122790140D01*
X195574869Y-122765154D01*
X195572654Y-122760612D01*
X195527357Y-122696400D01*
X195523699Y-122690914D01*
X195484529Y-122628714D01*
X195484528Y-122628713D01*
X195481833Y-122624433D01*
X195478492Y-122620644D01*
X195478488Y-122620638D01*
X195460102Y-122599783D01*
X195451656Y-122589088D01*
X195435009Y-122565490D01*
X195432726Y-122562253D01*
X195425377Y-122554205D01*
X195414062Y-122541813D01*
X195414054Y-122541805D01*
X195413091Y-122540750D01*
X195373375Y-122501034D01*
X195367956Y-122495264D01*
X195324650Y-122446142D01*
X195324647Y-122446139D01*
X195321302Y-122442345D01*
X195289011Y-122415821D01*
X195279892Y-122407551D01*
X194759405Y-121887064D01*
X194725379Y-121824752D01*
X194722500Y-121797969D01*
X194722500Y-120604016D01*
X194722549Y-120600498D01*
X194725193Y-120505850D01*
X194725193Y-120505847D01*
X194725334Y-120500795D01*
X194714941Y-120422902D01*
X194714241Y-120416353D01*
X194714173Y-120415500D01*
X194707940Y-120338035D01*
X194700101Y-120306122D01*
X194697573Y-120292738D01*
X194693898Y-120265194D01*
X194693229Y-120260180D01*
X194680878Y-120219271D01*
X194675500Y-120182854D01*
X194675500Y-116991002D01*
X194675549Y-116987483D01*
X194678193Y-116892850D01*
X194678193Y-116892847D01*
X194678334Y-116887795D01*
X194667941Y-116809902D01*
X194667241Y-116803353D01*
X194661346Y-116730077D01*
X194661345Y-116730073D01*
X194660940Y-116725035D01*
X194653101Y-116693122D01*
X194650573Y-116679738D01*
X194646898Y-116652194D01*
X194646229Y-116647180D01*
X194623522Y-116571971D01*
X194621781Y-116565608D01*
X194604244Y-116494209D01*
X194603037Y-116489294D01*
X194590199Y-116459048D01*
X194585561Y-116446237D01*
X194577530Y-116419638D01*
X194576067Y-116414792D01*
X194573849Y-116410244D01*
X194573846Y-116410237D01*
X194541629Y-116344182D01*
X194538893Y-116338180D01*
X194510162Y-116270495D01*
X194508188Y-116265844D01*
X194490681Y-116238044D01*
X194484052Y-116226134D01*
X194469654Y-116196612D01*
X194424357Y-116132400D01*
X194420699Y-116126914D01*
X194381529Y-116064714D01*
X194381528Y-116064713D01*
X194378833Y-116060433D01*
X194375492Y-116056644D01*
X194375488Y-116056638D01*
X194357102Y-116035783D01*
X194348656Y-116025088D01*
X194332009Y-116001490D01*
X194329726Y-115998253D01*
X194310091Y-115976750D01*
X194270375Y-115937034D01*
X194264956Y-115931264D01*
X194221650Y-115882142D01*
X194221647Y-115882139D01*
X194218302Y-115878345D01*
X194186011Y-115851821D01*
X194176892Y-115843551D01*
X191743805Y-113410464D01*
X191709779Y-113348152D01*
X191706900Y-113321369D01*
X191706900Y-112483087D01*
X191726902Y-112414966D01*
X191758838Y-112381152D01*
X191800540Y-112350854D01*
X192030633Y-112134782D01*
X192231832Y-111891575D01*
X192400962Y-111625069D01*
X192402646Y-111621490D01*
X192402650Y-111621483D01*
X192533667Y-111343056D01*
X192533669Y-111343052D01*
X192535356Y-111339466D01*
X192632895Y-111039272D01*
X192692041Y-110729220D01*
X192711860Y-110414200D01*
X192692041Y-110099180D01*
X192632895Y-109789128D01*
X192535356Y-109488934D01*
X192533667Y-109485344D01*
X192402650Y-109206917D01*
X192402646Y-109206910D01*
X192400962Y-109203331D01*
X192231832Y-108936825D01*
X192030633Y-108693618D01*
X191800540Y-108477546D01*
X191545179Y-108292016D01*
X191268579Y-108139953D01*
X191264910Y-108138500D01*
X191264905Y-108138498D01*
X190978772Y-108025210D01*
X190978771Y-108025210D01*
X190975102Y-108023757D01*
X190669375Y-107945260D01*
X190356221Y-107905700D01*
X190040579Y-107905700D01*
X189727425Y-107945260D01*
X189421698Y-108023757D01*
X189418029Y-108025210D01*
X189418028Y-108025210D01*
X189131895Y-108138498D01*
X189131890Y-108138500D01*
X189128221Y-108139953D01*
X188851621Y-108292016D01*
X188596260Y-108477546D01*
X188366167Y-108693618D01*
X188164968Y-108936825D01*
X187995838Y-109203331D01*
X187994154Y-109206910D01*
X187994150Y-109206917D01*
X187863133Y-109485344D01*
X187861444Y-109488934D01*
X187763905Y-109789128D01*
X187704759Y-110099180D01*
X187684940Y-110414200D01*
X107188500Y-110414200D01*
X107188500Y-106860187D01*
X188617121Y-106860187D01*
X188625948Y-106871805D01*
X188848681Y-107033630D01*
X188855361Y-107037870D01*
X189124972Y-107186090D01*
X189132107Y-107189447D01*
X189418170Y-107302708D01*
X189425696Y-107305153D01*
X189723679Y-107381662D01*
X189731450Y-107383145D01*
X190036678Y-107421703D01*
X190044569Y-107422200D01*
X190352231Y-107422200D01*
X190360122Y-107421703D01*
X190665350Y-107383145D01*
X190673121Y-107381662D01*
X190971104Y-107305153D01*
X190978630Y-107302708D01*
X191264693Y-107189447D01*
X191271828Y-107186090D01*
X191541439Y-107037870D01*
X191548119Y-107033630D01*
X191771223Y-106871536D01*
X191779646Y-106860613D01*
X191772742Y-106847752D01*
X190211212Y-105286222D01*
X190197268Y-105278608D01*
X190195435Y-105278739D01*
X190188820Y-105282990D01*
X188623734Y-106848076D01*
X188617121Y-106860187D01*
X107188500Y-106860187D01*
X107188500Y-104918158D01*
X187685690Y-104918158D01*
X187705007Y-105225194D01*
X187706000Y-105233055D01*
X187763646Y-105535246D01*
X187765617Y-105542923D01*
X187860684Y-105835509D01*
X187863599Y-105842872D01*
X187994589Y-106121241D01*
X187998401Y-106128174D01*
X188163251Y-106387936D01*
X188167895Y-106394329D01*
X188242897Y-106484990D01*
X188255414Y-106493445D01*
X188266152Y-106487238D01*
X189826378Y-104927012D01*
X189832756Y-104915332D01*
X190562808Y-104915332D01*
X190562939Y-104917165D01*
X190567190Y-104923780D01*
X192129545Y-106486135D01*
X192142807Y-106493377D01*
X192152912Y-106486188D01*
X192228905Y-106394329D01*
X192233549Y-106387936D01*
X192398399Y-106128174D01*
X192402211Y-106121241D01*
X192533201Y-105842872D01*
X192536116Y-105835509D01*
X192631183Y-105542923D01*
X192633154Y-105535246D01*
X192690800Y-105233055D01*
X192691793Y-105225194D01*
X192711110Y-104918158D01*
X192711110Y-104910242D01*
X192691793Y-104603206D01*
X192690800Y-104595345D01*
X192633154Y-104293154D01*
X192631183Y-104285477D01*
X192536116Y-103992891D01*
X192533201Y-103985528D01*
X192402211Y-103707159D01*
X192398399Y-103700226D01*
X192233549Y-103440464D01*
X192228905Y-103434071D01*
X192153903Y-103343410D01*
X192141386Y-103334955D01*
X192130648Y-103341162D01*
X190570422Y-104901388D01*
X190562808Y-104915332D01*
X189832756Y-104915332D01*
X189833992Y-104913068D01*
X189833861Y-104911235D01*
X189829610Y-104904620D01*
X188267255Y-103342265D01*
X188253993Y-103335023D01*
X188243888Y-103342212D01*
X188167895Y-103434071D01*
X188163251Y-103440464D01*
X187998401Y-103700226D01*
X187994589Y-103707159D01*
X187863599Y-103985528D01*
X187860684Y-103992891D01*
X187765617Y-104285477D01*
X187763646Y-104293154D01*
X187706000Y-104595345D01*
X187705007Y-104603206D01*
X187685690Y-104910242D01*
X187685690Y-104918158D01*
X107188500Y-104918158D01*
X107188500Y-102967787D01*
X188617154Y-102967787D01*
X188624058Y-102980648D01*
X190185588Y-104542178D01*
X190199532Y-104549792D01*
X190201365Y-104549661D01*
X190207980Y-104545410D01*
X191773066Y-102980324D01*
X191779679Y-102968213D01*
X191770852Y-102956595D01*
X191548119Y-102794770D01*
X191541439Y-102790530D01*
X191271828Y-102642310D01*
X191264693Y-102638953D01*
X190978630Y-102525692D01*
X190971104Y-102523247D01*
X190673121Y-102446738D01*
X190665350Y-102445255D01*
X190360122Y-102406697D01*
X190352231Y-102406200D01*
X190044569Y-102406200D01*
X190036678Y-102406697D01*
X189731450Y-102445255D01*
X189723679Y-102446738D01*
X189425696Y-102523247D01*
X189418170Y-102525692D01*
X189132107Y-102638953D01*
X189124972Y-102642310D01*
X188855361Y-102790530D01*
X188848681Y-102794770D01*
X188625577Y-102956864D01*
X188617154Y-102967787D01*
X107188500Y-102967787D01*
X107188500Y-81406000D01*
X107208502Y-81337879D01*
X107262158Y-81291386D01*
X107314500Y-81280000D01*
X162560000Y-81280000D01*
X162560000Y-64261000D01*
X162580002Y-64192879D01*
X162633658Y-64146386D01*
X162686000Y-64135000D01*
X197485500Y-64135000D01*
X197553621Y-64155002D01*
G37*
G04 #@! TD.AperFunction*
M02*
