%TF.GenerationSoftware,KiCad,Pcbnew,7.0.2*%
%TF.CreationDate,2023-05-16T20:04:30+02:00*%
%TF.ProjectId,IoT12 Power Supply,496f5431-3220-4506-9f77-657220537570,V1.2*%
%TF.SameCoordinates,Original*%
%TF.FileFunction,Drillmap*%
%TF.FilePolarity,Positive*%
%FSLAX45Y45*%
G04 Gerber Fmt 4.5, Leading zero omitted, Abs format (unit mm)*
G04 Created by KiCad (PCBNEW 7.0.2) date 2023-05-16 20:04:30*
%MOMM*%
%LPD*%
G01*
G04 APERTURE LIST*
%ADD10C,0.050000*%
%ADD11C,0.200000*%
%ADD12C,0.040000*%
%ADD13C,0.060000*%
%ADD14C,0.080000*%
%ADD15C,0.095000*%
%ADD16C,0.100000*%
%ADD17C,0.120000*%
%ADD18C,0.130000*%
%ADD19C,0.152000*%
%ADD20C,0.220000*%
%ADD21C,0.320000*%
G04 APERTURE END LIST*
D10*
X10668000Y-13970000D02*
X10668000Y-5842000D01*
X10668000Y-13970000D02*
G75*
G03*
X11176000Y-14478000I508000J0D01*
G01*
X11176000Y-5334000D02*
G75*
G03*
X10668000Y-5842000I0J-508000D01*
G01*
X19304000Y-14478000D02*
G75*
G03*
X19812000Y-13970000I0J508000D01*
G01*
X19812000Y-5842000D02*
X19812000Y-13970000D01*
X19812000Y-5842000D02*
G75*
G03*
X19304000Y-5334000I-508000J0D01*
G01*
X11176000Y-5334000D02*
X19304000Y-5334000D01*
X19304000Y-14478000D02*
X11176000Y-14478000D01*
D11*
D12*
X14077000Y-12680000D02*
X14117000Y-12720000D01*
X14117000Y-12680000D02*
X14077000Y-12720000D01*
X15093000Y-12553000D02*
X15133000Y-12593000D01*
X15133000Y-12553000D02*
X15093000Y-12593000D01*
X15359700Y-12997500D02*
X15399700Y-13037500D01*
X15399700Y-12997500D02*
X15359700Y-13037500D01*
X15918500Y-12553000D02*
X15958500Y-12593000D01*
X15958500Y-12553000D02*
X15918500Y-12593000D01*
X16223300Y-12680000D02*
X16263300Y-12720000D01*
X16263300Y-12680000D02*
X16223300Y-12720000D01*
D10*
X10961000Y-5842000D02*
G75*
G03*
X10961000Y-5842000I-25000J0D01*
G01*
X10961000Y-13970000D02*
G75*
G03*
X10961000Y-13970000I-25000J0D01*
G01*
X11031294Y-5672294D02*
G75*
G03*
X11031294Y-5672294I-25000J0D01*
G01*
X11031294Y-6011706D02*
G75*
G03*
X11031294Y-6011706I-25000J0D01*
G01*
X11031294Y-13800294D02*
G75*
G03*
X11031294Y-13800294I-25000J0D01*
G01*
X11031294Y-14139706D02*
G75*
G03*
X11031294Y-14139706I-25000J0D01*
G01*
X11201000Y-5602000D02*
G75*
G03*
X11201000Y-5602000I-25000J0D01*
G01*
X11201000Y-6082000D02*
G75*
G03*
X11201000Y-6082000I-25000J0D01*
G01*
X11201000Y-13730000D02*
G75*
G03*
X11201000Y-13730000I-25000J0D01*
G01*
X11201000Y-14210000D02*
G75*
G03*
X11201000Y-14210000I-25000J0D01*
G01*
X11370706Y-5672294D02*
G75*
G03*
X11370706Y-5672294I-25000J0D01*
G01*
X11370706Y-6011706D02*
G75*
G03*
X11370706Y-6011706I-25000J0D01*
G01*
X11370706Y-13800294D02*
G75*
G03*
X11370706Y-13800294I-25000J0D01*
G01*
X11370706Y-14139706D02*
G75*
G03*
X11370706Y-14139706I-25000J0D01*
G01*
X11441000Y-5842000D02*
G75*
G03*
X11441000Y-5842000I-25000J0D01*
G01*
X11441000Y-13970000D02*
G75*
G03*
X11441000Y-13970000I-25000J0D01*
G01*
X19089000Y-5842000D02*
G75*
G03*
X19089000Y-5842000I-25000J0D01*
G01*
X19089000Y-13970000D02*
G75*
G03*
X19089000Y-13970000I-25000J0D01*
G01*
X19159294Y-5672294D02*
G75*
G03*
X19159294Y-5672294I-25000J0D01*
G01*
X19159294Y-6011706D02*
G75*
G03*
X19159294Y-6011706I-25000J0D01*
G01*
X19159294Y-13800294D02*
G75*
G03*
X19159294Y-13800294I-25000J0D01*
G01*
X19159294Y-14139706D02*
G75*
G03*
X19159294Y-14139706I-25000J0D01*
G01*
X19329000Y-5602000D02*
G75*
G03*
X19329000Y-5602000I-25000J0D01*
G01*
X19329000Y-6082000D02*
G75*
G03*
X19329000Y-6082000I-25000J0D01*
G01*
X19329000Y-13730000D02*
G75*
G03*
X19329000Y-13730000I-25000J0D01*
G01*
X19329000Y-14210000D02*
G75*
G03*
X19329000Y-14210000I-25000J0D01*
G01*
X19498706Y-5672294D02*
G75*
G03*
X19498706Y-5672294I-25000J0D01*
G01*
X19498706Y-6011706D02*
G75*
G03*
X19498706Y-6011706I-25000J0D01*
G01*
X19498706Y-13800294D02*
G75*
G03*
X19498706Y-13800294I-25000J0D01*
G01*
X19498706Y-14139706D02*
G75*
G03*
X19498706Y-14139706I-25000J0D01*
G01*
X19569000Y-5842000D02*
G75*
G03*
X19569000Y-5842000I-25000J0D01*
G01*
X19569000Y-13970000D02*
G75*
G03*
X19569000Y-13970000I-25000J0D01*
G01*
D13*
X18927000Y-12478000D02*
X18927000Y-12538000D01*
X18897000Y-12508000D02*
X18957000Y-12508000D01*
X19427000Y-12608000D02*
X19427000Y-12668000D01*
X19397000Y-12638000D02*
X19457000Y-12638000D01*
D14*
X11775784Y-11585284D02*
X11775784Y-11528715D01*
X11719215Y-11528715D01*
X11719215Y-11585284D01*
X11775784Y-11585284D01*
X11775784Y-13045784D02*
X11775784Y-12989215D01*
X11719215Y-12989215D01*
X11719215Y-13045784D01*
X11775784Y-13045784D01*
X11775784Y-13553784D02*
X11775784Y-13497215D01*
X11719215Y-13497215D01*
X11719215Y-13553784D01*
X11775784Y-13553784D01*
X12093284Y-14315784D02*
X12093284Y-14259215D01*
X12036715Y-14259215D01*
X12036715Y-14315784D01*
X12093284Y-14315784D01*
X12537784Y-11966284D02*
X12537784Y-11909715D01*
X12481215Y-11909715D01*
X12481215Y-11966284D01*
X12537784Y-11966284D01*
X12537784Y-12347284D02*
X12537784Y-12290715D01*
X12481215Y-12290715D01*
X12481215Y-12347284D01*
X12537784Y-12347284D01*
X12982284Y-13172784D02*
X12982284Y-13116215D01*
X12925715Y-13116215D01*
X12925715Y-13172784D01*
X12982284Y-13172784D01*
X12982284Y-14061784D02*
X12982284Y-14005215D01*
X12925715Y-14005215D01*
X12925715Y-14061784D01*
X12982284Y-14061784D01*
X13236284Y-11902784D02*
X13236284Y-11846215D01*
X13179715Y-11846215D01*
X13179715Y-11902784D01*
X13236284Y-11902784D01*
X13299784Y-12537784D02*
X13299784Y-12481215D01*
X13243215Y-12481215D01*
X13243215Y-12537784D01*
X13299784Y-12537784D01*
X14188784Y-12093284D02*
X14188784Y-12036715D01*
X14132215Y-12036715D01*
X14132215Y-12093284D01*
X14188784Y-12093284D01*
X14950784Y-12918784D02*
X14950784Y-12862215D01*
X14894215Y-12862215D01*
X14894215Y-12918784D01*
X14950784Y-12918784D01*
X16360484Y-13769684D02*
X16360484Y-13713115D01*
X16303915Y-13713115D01*
X16303915Y-13769684D01*
X16360484Y-13769684D01*
X17808285Y-13109284D02*
X17808285Y-13052715D01*
X17751716Y-13052715D01*
X17751716Y-13109284D01*
X17808285Y-13109284D01*
X18887785Y-14315784D02*
X18887785Y-14259215D01*
X18831216Y-14259215D01*
X18831216Y-14315784D01*
X18887785Y-14315784D01*
X19141785Y-12347284D02*
X19141785Y-12290715D01*
X19085216Y-12290715D01*
X19085216Y-12347284D01*
X19141785Y-12347284D01*
X19586285Y-13426784D02*
X19586285Y-13370215D01*
X19529716Y-13370215D01*
X19529716Y-13426784D01*
X19586285Y-13426784D01*
X14386000Y-5776000D02*
X14426000Y-5736000D01*
X14386000Y-5696000D01*
X14346000Y-5736000D01*
X14386000Y-5776000D01*
X15136000Y-5976000D02*
X15176000Y-5936000D01*
X15136000Y-5896000D01*
X15096000Y-5936000D01*
X15136000Y-5976000D01*
D15*
X15327500Y-13160500D02*
X15422500Y-13255500D01*
X15422500Y-13160500D02*
X15327500Y-13255500D01*
X15422500Y-13208000D02*
G75*
G03*
X15422500Y-13208000I-47500J0D01*
G01*
X15577500Y-13160500D02*
X15672500Y-13255500D01*
X15672500Y-13160500D02*
X15577500Y-13255500D01*
X15672500Y-13208000D02*
G75*
G03*
X15672500Y-13208000I-47500J0D01*
G01*
X15827500Y-13160500D02*
X15922500Y-13255500D01*
X15922500Y-13160500D02*
X15827500Y-13255500D01*
X15922500Y-13208000D02*
G75*
G03*
X15922500Y-13208000I-47500J0D01*
G01*
X16077500Y-13160500D02*
X16172500Y-13255500D01*
X16172500Y-13160500D02*
X16077500Y-13255500D01*
X16172500Y-13208000D02*
G75*
G03*
X16172500Y-13208000I-47500J0D01*
G01*
X18773900Y-11890500D02*
X18868900Y-11985500D01*
X18868900Y-11890500D02*
X18773900Y-11985500D01*
X18868900Y-11938000D02*
G75*
G03*
X18868900Y-11938000I-47500J0D01*
G01*
X19273900Y-12010500D02*
X19368900Y-12105500D01*
X19368900Y-12010500D02*
X19273900Y-12105500D01*
X19368900Y-12058000D02*
G75*
G03*
X19368900Y-12058000I-47500J0D01*
G01*
D16*
X14047000Y-13158000D02*
X14147000Y-13258000D01*
X14147000Y-13158000D02*
X14047000Y-13258000D01*
X14097000Y-13158000D02*
X14097000Y-13258000D01*
X14047000Y-13208000D02*
X14147000Y-13208000D01*
X14297000Y-13158000D02*
X14397000Y-13258000D01*
X14397000Y-13158000D02*
X14297000Y-13258000D01*
X14347000Y-13158000D02*
X14347000Y-13258000D01*
X14297000Y-13208000D02*
X14397000Y-13208000D01*
D17*
X11359840Y-6856420D02*
X11479840Y-6976420D01*
X11479840Y-6856420D02*
X11359840Y-6976420D01*
X11462267Y-6958847D02*
X11462267Y-6873993D01*
X11377413Y-6873993D01*
X11377413Y-6958847D01*
X11462267Y-6958847D01*
X11359840Y-7531420D02*
X11479840Y-7651420D01*
X11479840Y-7531420D02*
X11359840Y-7651420D01*
X11462267Y-7633847D02*
X11462267Y-7548993D01*
X11377413Y-7548993D01*
X11377413Y-7633847D01*
X11462267Y-7633847D01*
D18*
X16810200Y-12352400D02*
X16940200Y-12482400D01*
X16940200Y-12352400D02*
X16810200Y-12482400D01*
X16875200Y-12482400D02*
X16940200Y-12417400D01*
X16875200Y-12352400D01*
X16810200Y-12417400D01*
X16875200Y-12482400D01*
X16810200Y-13572400D02*
X16940200Y-13702400D01*
X16940200Y-13572400D02*
X16810200Y-13702400D01*
X16875200Y-13702400D02*
X16940200Y-13637400D01*
X16875200Y-13572400D01*
X16810200Y-13637400D01*
X16875200Y-13702400D01*
X17410200Y-12152400D02*
X17540200Y-12282400D01*
X17540200Y-12152400D02*
X17410200Y-12282400D01*
X17475200Y-12282400D02*
X17540200Y-12217400D01*
X17475200Y-12152400D01*
X17410200Y-12217400D01*
X17475200Y-12282400D01*
X18010200Y-12352400D02*
X18140200Y-12482400D01*
X18140200Y-12352400D02*
X18010200Y-12482400D01*
X18075200Y-12482400D02*
X18140200Y-12417400D01*
X18075200Y-12352400D01*
X18010200Y-12417400D01*
X18075200Y-12482400D01*
X18010200Y-13572400D02*
X18140200Y-13702400D01*
X18140200Y-13572400D02*
X18010200Y-13702400D01*
X18075200Y-13702400D02*
X18140200Y-13637400D01*
X18075200Y-13572400D01*
X18010200Y-13637400D01*
X18075200Y-13702400D01*
D19*
X12192000Y-5766000D02*
X12192000Y-5918000D01*
X12116000Y-5842000D02*
X12268000Y-5842000D01*
X12268000Y-5842000D02*
G75*
G03*
X12268000Y-5842000I-76000J0D01*
G01*
X12700000Y-5766000D02*
X12700000Y-5918000D01*
X12624000Y-5842000D02*
X12776000Y-5842000D01*
X12776000Y-5842000D02*
G75*
G03*
X12776000Y-5842000I-76000J0D01*
G01*
X13208000Y-5766000D02*
X13208000Y-5918000D01*
X13132000Y-5842000D02*
X13284000Y-5842000D01*
X13284000Y-5842000D02*
G75*
G03*
X13284000Y-5842000I-76000J0D01*
G01*
D20*
X19097623Y-10569203D02*
X19097623Y-10413638D01*
X18942058Y-10413638D01*
X18942058Y-10569203D01*
X19097623Y-10569203D01*
X19129840Y-10491420D02*
G75*
G03*
X19129840Y-10491420I-110000J0D01*
G01*
X19097623Y-11119203D02*
X19097623Y-10963638D01*
X18942058Y-10963638D01*
X18942058Y-11119203D01*
X19097623Y-11119203D01*
X19129840Y-11041420D02*
G75*
G03*
X19129840Y-11041420I-110000J0D01*
G01*
D21*
X11176000Y-6002000D02*
X11336000Y-5842000D01*
X11176000Y-5682000D01*
X11016000Y-5842000D01*
X11176000Y-6002000D01*
X11336000Y-5842000D02*
G75*
G03*
X11336000Y-5842000I-160000J0D01*
G01*
X11176000Y-14130000D02*
X11336000Y-13970000D01*
X11176000Y-13810000D01*
X11016000Y-13970000D01*
X11176000Y-14130000D01*
X11336000Y-13970000D02*
G75*
G03*
X11336000Y-13970000I-160000J0D01*
G01*
X19304000Y-6002000D02*
X19464000Y-5842000D01*
X19304000Y-5682000D01*
X19144000Y-5842000D01*
X19304000Y-6002000D01*
X19464000Y-5842000D02*
G75*
G03*
X19464000Y-5842000I-160000J0D01*
G01*
X19304000Y-14130000D02*
X19464000Y-13970000D01*
X19304000Y-13810000D01*
X19144000Y-13970000D01*
X19304000Y-14130000D01*
X19464000Y-13970000D02*
G75*
G03*
X19464000Y-13970000I-160000J0D01*
G01*
D11*
X10913119Y-14793024D02*
X10913119Y-14593024D01*
X10913119Y-14593024D02*
X10960738Y-14593024D01*
X10960738Y-14593024D02*
X10989310Y-14602548D01*
X10989310Y-14602548D02*
X11008357Y-14621595D01*
X11008357Y-14621595D02*
X11017881Y-14640643D01*
X11017881Y-14640643D02*
X11027405Y-14678738D01*
X11027405Y-14678738D02*
X11027405Y-14707309D01*
X11027405Y-14707309D02*
X11017881Y-14745405D01*
X11017881Y-14745405D02*
X11008357Y-14764452D01*
X11008357Y-14764452D02*
X10989310Y-14783500D01*
X10989310Y-14783500D02*
X10960738Y-14793024D01*
X10960738Y-14793024D02*
X10913119Y-14793024D01*
X11113119Y-14793024D02*
X11113119Y-14659690D01*
X11113119Y-14697786D02*
X11122643Y-14678738D01*
X11122643Y-14678738D02*
X11132167Y-14669214D01*
X11132167Y-14669214D02*
X11151214Y-14659690D01*
X11151214Y-14659690D02*
X11170262Y-14659690D01*
X11236928Y-14793024D02*
X11236928Y-14659690D01*
X11236928Y-14593024D02*
X11227405Y-14602548D01*
X11227405Y-14602548D02*
X11236928Y-14612071D01*
X11236928Y-14612071D02*
X11246452Y-14602548D01*
X11246452Y-14602548D02*
X11236928Y-14593024D01*
X11236928Y-14593024D02*
X11236928Y-14612071D01*
X11360738Y-14793024D02*
X11341690Y-14783500D01*
X11341690Y-14783500D02*
X11332167Y-14764452D01*
X11332167Y-14764452D02*
X11332167Y-14593024D01*
X11465500Y-14793024D02*
X11446452Y-14783500D01*
X11446452Y-14783500D02*
X11436928Y-14764452D01*
X11436928Y-14764452D02*
X11436928Y-14593024D01*
X11694071Y-14793024D02*
X11694071Y-14593024D01*
X11694071Y-14593024D02*
X11760738Y-14735881D01*
X11760738Y-14735881D02*
X11827405Y-14593024D01*
X11827405Y-14593024D02*
X11827405Y-14793024D01*
X12008357Y-14793024D02*
X12008357Y-14688262D01*
X12008357Y-14688262D02*
X11998833Y-14669214D01*
X11998833Y-14669214D02*
X11979786Y-14659690D01*
X11979786Y-14659690D02*
X11941690Y-14659690D01*
X11941690Y-14659690D02*
X11922643Y-14669214D01*
X12008357Y-14783500D02*
X11989309Y-14793024D01*
X11989309Y-14793024D02*
X11941690Y-14793024D01*
X11941690Y-14793024D02*
X11922643Y-14783500D01*
X11922643Y-14783500D02*
X11913119Y-14764452D01*
X11913119Y-14764452D02*
X11913119Y-14745405D01*
X11913119Y-14745405D02*
X11922643Y-14726357D01*
X11922643Y-14726357D02*
X11941690Y-14716833D01*
X11941690Y-14716833D02*
X11989309Y-14716833D01*
X11989309Y-14716833D02*
X12008357Y-14707309D01*
X12103595Y-14659690D02*
X12103595Y-14859690D01*
X12103595Y-14669214D02*
X12122643Y-14659690D01*
X12122643Y-14659690D02*
X12160738Y-14659690D01*
X12160738Y-14659690D02*
X12179786Y-14669214D01*
X12179786Y-14669214D02*
X12189309Y-14678738D01*
X12189309Y-14678738D02*
X12198833Y-14697786D01*
X12198833Y-14697786D02*
X12198833Y-14754928D01*
X12198833Y-14754928D02*
X12189309Y-14773976D01*
X12189309Y-14773976D02*
X12179786Y-14783500D01*
X12179786Y-14783500D02*
X12160738Y-14793024D01*
X12160738Y-14793024D02*
X12122643Y-14793024D01*
X12122643Y-14793024D02*
X12103595Y-14783500D01*
X12284548Y-14773976D02*
X12294071Y-14783500D01*
X12294071Y-14783500D02*
X12284548Y-14793024D01*
X12284548Y-14793024D02*
X12275024Y-14783500D01*
X12275024Y-14783500D02*
X12284548Y-14773976D01*
X12284548Y-14773976D02*
X12284548Y-14793024D01*
X12284548Y-14669214D02*
X12294071Y-14678738D01*
X12294071Y-14678738D02*
X12284548Y-14688262D01*
X12284548Y-14688262D02*
X12275024Y-14678738D01*
X12275024Y-14678738D02*
X12284548Y-14669214D01*
X12284548Y-14669214D02*
X12284548Y-14688262D01*
D12*
X10625500Y-15100500D02*
X10665500Y-15140500D01*
X10665500Y-15100500D02*
X10625500Y-15140500D01*
D11*
X10951214Y-15013024D02*
X10970262Y-15013024D01*
X10970262Y-15013024D02*
X10989310Y-15022548D01*
X10989310Y-15022548D02*
X10998833Y-15032071D01*
X10998833Y-15032071D02*
X11008357Y-15051119D01*
X11008357Y-15051119D02*
X11017881Y-15089214D01*
X11017881Y-15089214D02*
X11017881Y-15136833D01*
X11017881Y-15136833D02*
X11008357Y-15174928D01*
X11008357Y-15174928D02*
X10998833Y-15193976D01*
X10998833Y-15193976D02*
X10989310Y-15203500D01*
X10989310Y-15203500D02*
X10970262Y-15213024D01*
X10970262Y-15213024D02*
X10951214Y-15213024D01*
X10951214Y-15213024D02*
X10932167Y-15203500D01*
X10932167Y-15203500D02*
X10922643Y-15193976D01*
X10922643Y-15193976D02*
X10913119Y-15174928D01*
X10913119Y-15174928D02*
X10903595Y-15136833D01*
X10903595Y-15136833D02*
X10903595Y-15089214D01*
X10903595Y-15089214D02*
X10913119Y-15051119D01*
X10913119Y-15051119D02*
X10922643Y-15032071D01*
X10922643Y-15032071D02*
X10932167Y-15022548D01*
X10932167Y-15022548D02*
X10951214Y-15013024D01*
X11103595Y-15193976D02*
X11113119Y-15203500D01*
X11113119Y-15203500D02*
X11103595Y-15213024D01*
X11103595Y-15213024D02*
X11094071Y-15203500D01*
X11094071Y-15203500D02*
X11103595Y-15193976D01*
X11103595Y-15193976D02*
X11103595Y-15213024D01*
X11284548Y-15079690D02*
X11284548Y-15213024D01*
X11236928Y-15003500D02*
X11189309Y-15146357D01*
X11189309Y-15146357D02*
X11313119Y-15146357D01*
X11427405Y-15013024D02*
X11446452Y-15013024D01*
X11446452Y-15013024D02*
X11465500Y-15022548D01*
X11465500Y-15022548D02*
X11475024Y-15032071D01*
X11475024Y-15032071D02*
X11484548Y-15051119D01*
X11484548Y-15051119D02*
X11494071Y-15089214D01*
X11494071Y-15089214D02*
X11494071Y-15136833D01*
X11494071Y-15136833D02*
X11484548Y-15174928D01*
X11484548Y-15174928D02*
X11475024Y-15193976D01*
X11475024Y-15193976D02*
X11465500Y-15203500D01*
X11465500Y-15203500D02*
X11446452Y-15213024D01*
X11446452Y-15213024D02*
X11427405Y-15213024D01*
X11427405Y-15213024D02*
X11408357Y-15203500D01*
X11408357Y-15203500D02*
X11398833Y-15193976D01*
X11398833Y-15193976D02*
X11389309Y-15174928D01*
X11389309Y-15174928D02*
X11379786Y-15136833D01*
X11379786Y-15136833D02*
X11379786Y-15089214D01*
X11379786Y-15089214D02*
X11389309Y-15051119D01*
X11389309Y-15051119D02*
X11398833Y-15032071D01*
X11398833Y-15032071D02*
X11408357Y-15022548D01*
X11408357Y-15022548D02*
X11427405Y-15013024D01*
X11617881Y-15013024D02*
X11636929Y-15013024D01*
X11636929Y-15013024D02*
X11655976Y-15022548D01*
X11655976Y-15022548D02*
X11665500Y-15032071D01*
X11665500Y-15032071D02*
X11675024Y-15051119D01*
X11675024Y-15051119D02*
X11684548Y-15089214D01*
X11684548Y-15089214D02*
X11684548Y-15136833D01*
X11684548Y-15136833D02*
X11675024Y-15174928D01*
X11675024Y-15174928D02*
X11665500Y-15193976D01*
X11665500Y-15193976D02*
X11655976Y-15203500D01*
X11655976Y-15203500D02*
X11636929Y-15213024D01*
X11636929Y-15213024D02*
X11617881Y-15213024D01*
X11617881Y-15213024D02*
X11598833Y-15203500D01*
X11598833Y-15203500D02*
X11589309Y-15193976D01*
X11589309Y-15193976D02*
X11579786Y-15174928D01*
X11579786Y-15174928D02*
X11570262Y-15136833D01*
X11570262Y-15136833D02*
X11570262Y-15089214D01*
X11570262Y-15089214D02*
X11579786Y-15051119D01*
X11579786Y-15051119D02*
X11589309Y-15032071D01*
X11589309Y-15032071D02*
X11598833Y-15022548D01*
X11598833Y-15022548D02*
X11617881Y-15013024D01*
X11770262Y-15213024D02*
X11770262Y-15079690D01*
X11770262Y-15098738D02*
X11779786Y-15089214D01*
X11779786Y-15089214D02*
X11798833Y-15079690D01*
X11798833Y-15079690D02*
X11827405Y-15079690D01*
X11827405Y-15079690D02*
X11846452Y-15089214D01*
X11846452Y-15089214D02*
X11855976Y-15108262D01*
X11855976Y-15108262D02*
X11855976Y-15213024D01*
X11855976Y-15108262D02*
X11865500Y-15089214D01*
X11865500Y-15089214D02*
X11884548Y-15079690D01*
X11884548Y-15079690D02*
X11913119Y-15079690D01*
X11913119Y-15079690D02*
X11932167Y-15089214D01*
X11932167Y-15089214D02*
X11941690Y-15108262D01*
X11941690Y-15108262D02*
X11941690Y-15213024D01*
X12036929Y-15213024D02*
X12036929Y-15079690D01*
X12036929Y-15098738D02*
X12046452Y-15089214D01*
X12046452Y-15089214D02*
X12065500Y-15079690D01*
X12065500Y-15079690D02*
X12094071Y-15079690D01*
X12094071Y-15079690D02*
X12113119Y-15089214D01*
X12113119Y-15089214D02*
X12122643Y-15108262D01*
X12122643Y-15108262D02*
X12122643Y-15213024D01*
X12122643Y-15108262D02*
X12132167Y-15089214D01*
X12132167Y-15089214D02*
X12151214Y-15079690D01*
X12151214Y-15079690D02*
X12179786Y-15079690D01*
X12179786Y-15079690D02*
X12198833Y-15089214D01*
X12198833Y-15089214D02*
X12208357Y-15108262D01*
X12208357Y-15108262D02*
X12208357Y-15213024D01*
X12598833Y-15003500D02*
X12427405Y-15260643D01*
X12855976Y-15013024D02*
X12875024Y-15013024D01*
X12875024Y-15013024D02*
X12894072Y-15022548D01*
X12894072Y-15022548D02*
X12903595Y-15032071D01*
X12903595Y-15032071D02*
X12913119Y-15051119D01*
X12913119Y-15051119D02*
X12922643Y-15089214D01*
X12922643Y-15089214D02*
X12922643Y-15136833D01*
X12922643Y-15136833D02*
X12913119Y-15174928D01*
X12913119Y-15174928D02*
X12903595Y-15193976D01*
X12903595Y-15193976D02*
X12894072Y-15203500D01*
X12894072Y-15203500D02*
X12875024Y-15213024D01*
X12875024Y-15213024D02*
X12855976Y-15213024D01*
X12855976Y-15213024D02*
X12836929Y-15203500D01*
X12836929Y-15203500D02*
X12827405Y-15193976D01*
X12827405Y-15193976D02*
X12817881Y-15174928D01*
X12817881Y-15174928D02*
X12808357Y-15136833D01*
X12808357Y-15136833D02*
X12808357Y-15089214D01*
X12808357Y-15089214D02*
X12817881Y-15051119D01*
X12817881Y-15051119D02*
X12827405Y-15032071D01*
X12827405Y-15032071D02*
X12836929Y-15022548D01*
X12836929Y-15022548D02*
X12855976Y-15013024D01*
X13008357Y-15193976D02*
X13017881Y-15203500D01*
X13017881Y-15203500D02*
X13008357Y-15213024D01*
X13008357Y-15213024D02*
X12998833Y-15203500D01*
X12998833Y-15203500D02*
X13008357Y-15193976D01*
X13008357Y-15193976D02*
X13008357Y-15213024D01*
X13141691Y-15013024D02*
X13160738Y-15013024D01*
X13160738Y-15013024D02*
X13179786Y-15022548D01*
X13179786Y-15022548D02*
X13189310Y-15032071D01*
X13189310Y-15032071D02*
X13198833Y-15051119D01*
X13198833Y-15051119D02*
X13208357Y-15089214D01*
X13208357Y-15089214D02*
X13208357Y-15136833D01*
X13208357Y-15136833D02*
X13198833Y-15174928D01*
X13198833Y-15174928D02*
X13189310Y-15193976D01*
X13189310Y-15193976D02*
X13179786Y-15203500D01*
X13179786Y-15203500D02*
X13160738Y-15213024D01*
X13160738Y-15213024D02*
X13141691Y-15213024D01*
X13141691Y-15213024D02*
X13122643Y-15203500D01*
X13122643Y-15203500D02*
X13113119Y-15193976D01*
X13113119Y-15193976D02*
X13103595Y-15174928D01*
X13103595Y-15174928D02*
X13094072Y-15136833D01*
X13094072Y-15136833D02*
X13094072Y-15089214D01*
X13094072Y-15089214D02*
X13103595Y-15051119D01*
X13103595Y-15051119D02*
X13113119Y-15032071D01*
X13113119Y-15032071D02*
X13122643Y-15022548D01*
X13122643Y-15022548D02*
X13141691Y-15013024D01*
X13398833Y-15213024D02*
X13284548Y-15213024D01*
X13341691Y-15213024D02*
X13341691Y-15013024D01*
X13341691Y-15013024D02*
X13322643Y-15041595D01*
X13322643Y-15041595D02*
X13303595Y-15060643D01*
X13303595Y-15060643D02*
X13284548Y-15070167D01*
X13579786Y-15013024D02*
X13484548Y-15013024D01*
X13484548Y-15013024D02*
X13475024Y-15108262D01*
X13475024Y-15108262D02*
X13484548Y-15098738D01*
X13484548Y-15098738D02*
X13503595Y-15089214D01*
X13503595Y-15089214D02*
X13551214Y-15089214D01*
X13551214Y-15089214D02*
X13570262Y-15098738D01*
X13570262Y-15098738D02*
X13579786Y-15108262D01*
X13579786Y-15108262D02*
X13589310Y-15127309D01*
X13589310Y-15127309D02*
X13589310Y-15174928D01*
X13589310Y-15174928D02*
X13579786Y-15193976D01*
X13579786Y-15193976D02*
X13570262Y-15203500D01*
X13570262Y-15203500D02*
X13551214Y-15213024D01*
X13551214Y-15213024D02*
X13503595Y-15213024D01*
X13503595Y-15213024D02*
X13484548Y-15203500D01*
X13484548Y-15203500D02*
X13475024Y-15193976D01*
X13655976Y-15013024D02*
X13789310Y-15013024D01*
X13789310Y-15013024D02*
X13703595Y-15213024D01*
X13855976Y-15013024D02*
X13855976Y-15051119D01*
X13932167Y-15013024D02*
X13932167Y-15051119D01*
X14227405Y-15289214D02*
X14217881Y-15279690D01*
X14217881Y-15279690D02*
X14198834Y-15251119D01*
X14198834Y-15251119D02*
X14189310Y-15232071D01*
X14189310Y-15232071D02*
X14179786Y-15203500D01*
X14179786Y-15203500D02*
X14170262Y-15155881D01*
X14170262Y-15155881D02*
X14170262Y-15117786D01*
X14170262Y-15117786D02*
X14179786Y-15070167D01*
X14179786Y-15070167D02*
X14189310Y-15041595D01*
X14189310Y-15041595D02*
X14198834Y-15022548D01*
X14198834Y-15022548D02*
X14217881Y-14993976D01*
X14217881Y-14993976D02*
X14227405Y-14984452D01*
X14398834Y-15013024D02*
X14303595Y-15013024D01*
X14303595Y-15013024D02*
X14294072Y-15108262D01*
X14294072Y-15108262D02*
X14303595Y-15098738D01*
X14303595Y-15098738D02*
X14322643Y-15089214D01*
X14322643Y-15089214D02*
X14370262Y-15089214D01*
X14370262Y-15089214D02*
X14389310Y-15098738D01*
X14389310Y-15098738D02*
X14398834Y-15108262D01*
X14398834Y-15108262D02*
X14408357Y-15127309D01*
X14408357Y-15127309D02*
X14408357Y-15174928D01*
X14408357Y-15174928D02*
X14398834Y-15193976D01*
X14398834Y-15193976D02*
X14389310Y-15203500D01*
X14389310Y-15203500D02*
X14370262Y-15213024D01*
X14370262Y-15213024D02*
X14322643Y-15213024D01*
X14322643Y-15213024D02*
X14303595Y-15203500D01*
X14303595Y-15203500D02*
X14294072Y-15193976D01*
X14646453Y-15213024D02*
X14646453Y-15013024D01*
X14732167Y-15213024D02*
X14732167Y-15108262D01*
X14732167Y-15108262D02*
X14722643Y-15089214D01*
X14722643Y-15089214D02*
X14703596Y-15079690D01*
X14703596Y-15079690D02*
X14675024Y-15079690D01*
X14675024Y-15079690D02*
X14655976Y-15089214D01*
X14655976Y-15089214D02*
X14646453Y-15098738D01*
X14855976Y-15213024D02*
X14836929Y-15203500D01*
X14836929Y-15203500D02*
X14827405Y-15193976D01*
X14827405Y-15193976D02*
X14817881Y-15174928D01*
X14817881Y-15174928D02*
X14817881Y-15117786D01*
X14817881Y-15117786D02*
X14827405Y-15098738D01*
X14827405Y-15098738D02*
X14836929Y-15089214D01*
X14836929Y-15089214D02*
X14855976Y-15079690D01*
X14855976Y-15079690D02*
X14884548Y-15079690D01*
X14884548Y-15079690D02*
X14903596Y-15089214D01*
X14903596Y-15089214D02*
X14913119Y-15098738D01*
X14913119Y-15098738D02*
X14922643Y-15117786D01*
X14922643Y-15117786D02*
X14922643Y-15174928D01*
X14922643Y-15174928D02*
X14913119Y-15193976D01*
X14913119Y-15193976D02*
X14903596Y-15203500D01*
X14903596Y-15203500D02*
X14884548Y-15213024D01*
X14884548Y-15213024D02*
X14855976Y-15213024D01*
X15036929Y-15213024D02*
X15017881Y-15203500D01*
X15017881Y-15203500D02*
X15008357Y-15184452D01*
X15008357Y-15184452D02*
X15008357Y-15013024D01*
X15189310Y-15203500D02*
X15170262Y-15213024D01*
X15170262Y-15213024D02*
X15132167Y-15213024D01*
X15132167Y-15213024D02*
X15113119Y-15203500D01*
X15113119Y-15203500D02*
X15103596Y-15184452D01*
X15103596Y-15184452D02*
X15103596Y-15108262D01*
X15103596Y-15108262D02*
X15113119Y-15089214D01*
X15113119Y-15089214D02*
X15132167Y-15079690D01*
X15132167Y-15079690D02*
X15170262Y-15079690D01*
X15170262Y-15079690D02*
X15189310Y-15089214D01*
X15189310Y-15089214D02*
X15198834Y-15108262D01*
X15198834Y-15108262D02*
X15198834Y-15127309D01*
X15198834Y-15127309D02*
X15103596Y-15146357D01*
X15275024Y-15203500D02*
X15294072Y-15213024D01*
X15294072Y-15213024D02*
X15332167Y-15213024D01*
X15332167Y-15213024D02*
X15351215Y-15203500D01*
X15351215Y-15203500D02*
X15360738Y-15184452D01*
X15360738Y-15184452D02*
X15360738Y-15174928D01*
X15360738Y-15174928D02*
X15351215Y-15155881D01*
X15351215Y-15155881D02*
X15332167Y-15146357D01*
X15332167Y-15146357D02*
X15303596Y-15146357D01*
X15303596Y-15146357D02*
X15284548Y-15136833D01*
X15284548Y-15136833D02*
X15275024Y-15117786D01*
X15275024Y-15117786D02*
X15275024Y-15108262D01*
X15275024Y-15108262D02*
X15284548Y-15089214D01*
X15284548Y-15089214D02*
X15303596Y-15079690D01*
X15303596Y-15079690D02*
X15332167Y-15079690D01*
X15332167Y-15079690D02*
X15351215Y-15089214D01*
X15427405Y-15289214D02*
X15436929Y-15279690D01*
X15436929Y-15279690D02*
X15455977Y-15251119D01*
X15455977Y-15251119D02*
X15465500Y-15232071D01*
X15465500Y-15232071D02*
X15475024Y-15203500D01*
X15475024Y-15203500D02*
X15484548Y-15155881D01*
X15484548Y-15155881D02*
X15484548Y-15117786D01*
X15484548Y-15117786D02*
X15475024Y-15070167D01*
X15475024Y-15070167D02*
X15465500Y-15041595D01*
X15465500Y-15041595D02*
X15455977Y-15022548D01*
X15455977Y-15022548D02*
X15436929Y-14993976D01*
X15436929Y-14993976D02*
X15427405Y-14984452D01*
D10*
X10665500Y-15384500D02*
G75*
G03*
X10665500Y-15384500I-25000J0D01*
G01*
D11*
X10951214Y-15277024D02*
X10970262Y-15277024D01*
X10970262Y-15277024D02*
X10989310Y-15286548D01*
X10989310Y-15286548D02*
X10998833Y-15296071D01*
X10998833Y-15296071D02*
X11008357Y-15315119D01*
X11008357Y-15315119D02*
X11017881Y-15353214D01*
X11017881Y-15353214D02*
X11017881Y-15400833D01*
X11017881Y-15400833D02*
X11008357Y-15438928D01*
X11008357Y-15438928D02*
X10998833Y-15457976D01*
X10998833Y-15457976D02*
X10989310Y-15467500D01*
X10989310Y-15467500D02*
X10970262Y-15477024D01*
X10970262Y-15477024D02*
X10951214Y-15477024D01*
X10951214Y-15477024D02*
X10932167Y-15467500D01*
X10932167Y-15467500D02*
X10922643Y-15457976D01*
X10922643Y-15457976D02*
X10913119Y-15438928D01*
X10913119Y-15438928D02*
X10903595Y-15400833D01*
X10903595Y-15400833D02*
X10903595Y-15353214D01*
X10903595Y-15353214D02*
X10913119Y-15315119D01*
X10913119Y-15315119D02*
X10922643Y-15296071D01*
X10922643Y-15296071D02*
X10932167Y-15286548D01*
X10932167Y-15286548D02*
X10951214Y-15277024D01*
X11103595Y-15457976D02*
X11113119Y-15467500D01*
X11113119Y-15467500D02*
X11103595Y-15477024D01*
X11103595Y-15477024D02*
X11094071Y-15467500D01*
X11094071Y-15467500D02*
X11103595Y-15457976D01*
X11103595Y-15457976D02*
X11103595Y-15477024D01*
X11294071Y-15277024D02*
X11198833Y-15277024D01*
X11198833Y-15277024D02*
X11189309Y-15372262D01*
X11189309Y-15372262D02*
X11198833Y-15362738D01*
X11198833Y-15362738D02*
X11217881Y-15353214D01*
X11217881Y-15353214D02*
X11265500Y-15353214D01*
X11265500Y-15353214D02*
X11284548Y-15362738D01*
X11284548Y-15362738D02*
X11294071Y-15372262D01*
X11294071Y-15372262D02*
X11303595Y-15391309D01*
X11303595Y-15391309D02*
X11303595Y-15438928D01*
X11303595Y-15438928D02*
X11294071Y-15457976D01*
X11294071Y-15457976D02*
X11284548Y-15467500D01*
X11284548Y-15467500D02*
X11265500Y-15477024D01*
X11265500Y-15477024D02*
X11217881Y-15477024D01*
X11217881Y-15477024D02*
X11198833Y-15467500D01*
X11198833Y-15467500D02*
X11189309Y-15457976D01*
X11427405Y-15277024D02*
X11446452Y-15277024D01*
X11446452Y-15277024D02*
X11465500Y-15286548D01*
X11465500Y-15286548D02*
X11475024Y-15296071D01*
X11475024Y-15296071D02*
X11484548Y-15315119D01*
X11484548Y-15315119D02*
X11494071Y-15353214D01*
X11494071Y-15353214D02*
X11494071Y-15400833D01*
X11494071Y-15400833D02*
X11484548Y-15438928D01*
X11484548Y-15438928D02*
X11475024Y-15457976D01*
X11475024Y-15457976D02*
X11465500Y-15467500D01*
X11465500Y-15467500D02*
X11446452Y-15477024D01*
X11446452Y-15477024D02*
X11427405Y-15477024D01*
X11427405Y-15477024D02*
X11408357Y-15467500D01*
X11408357Y-15467500D02*
X11398833Y-15457976D01*
X11398833Y-15457976D02*
X11389309Y-15438928D01*
X11389309Y-15438928D02*
X11379786Y-15400833D01*
X11379786Y-15400833D02*
X11379786Y-15353214D01*
X11379786Y-15353214D02*
X11389309Y-15315119D01*
X11389309Y-15315119D02*
X11398833Y-15296071D01*
X11398833Y-15296071D02*
X11408357Y-15286548D01*
X11408357Y-15286548D02*
X11427405Y-15277024D01*
X11617881Y-15277024D02*
X11636929Y-15277024D01*
X11636929Y-15277024D02*
X11655976Y-15286548D01*
X11655976Y-15286548D02*
X11665500Y-15296071D01*
X11665500Y-15296071D02*
X11675024Y-15315119D01*
X11675024Y-15315119D02*
X11684548Y-15353214D01*
X11684548Y-15353214D02*
X11684548Y-15400833D01*
X11684548Y-15400833D02*
X11675024Y-15438928D01*
X11675024Y-15438928D02*
X11665500Y-15457976D01*
X11665500Y-15457976D02*
X11655976Y-15467500D01*
X11655976Y-15467500D02*
X11636929Y-15477024D01*
X11636929Y-15477024D02*
X11617881Y-15477024D01*
X11617881Y-15477024D02*
X11598833Y-15467500D01*
X11598833Y-15467500D02*
X11589309Y-15457976D01*
X11589309Y-15457976D02*
X11579786Y-15438928D01*
X11579786Y-15438928D02*
X11570262Y-15400833D01*
X11570262Y-15400833D02*
X11570262Y-15353214D01*
X11570262Y-15353214D02*
X11579786Y-15315119D01*
X11579786Y-15315119D02*
X11589309Y-15296071D01*
X11589309Y-15296071D02*
X11598833Y-15286548D01*
X11598833Y-15286548D02*
X11617881Y-15277024D01*
X11770262Y-15477024D02*
X11770262Y-15343690D01*
X11770262Y-15362738D02*
X11779786Y-15353214D01*
X11779786Y-15353214D02*
X11798833Y-15343690D01*
X11798833Y-15343690D02*
X11827405Y-15343690D01*
X11827405Y-15343690D02*
X11846452Y-15353214D01*
X11846452Y-15353214D02*
X11855976Y-15372262D01*
X11855976Y-15372262D02*
X11855976Y-15477024D01*
X11855976Y-15372262D02*
X11865500Y-15353214D01*
X11865500Y-15353214D02*
X11884548Y-15343690D01*
X11884548Y-15343690D02*
X11913119Y-15343690D01*
X11913119Y-15343690D02*
X11932167Y-15353214D01*
X11932167Y-15353214D02*
X11941690Y-15372262D01*
X11941690Y-15372262D02*
X11941690Y-15477024D01*
X12036929Y-15477024D02*
X12036929Y-15343690D01*
X12036929Y-15362738D02*
X12046452Y-15353214D01*
X12046452Y-15353214D02*
X12065500Y-15343690D01*
X12065500Y-15343690D02*
X12094071Y-15343690D01*
X12094071Y-15343690D02*
X12113119Y-15353214D01*
X12113119Y-15353214D02*
X12122643Y-15372262D01*
X12122643Y-15372262D02*
X12122643Y-15477024D01*
X12122643Y-15372262D02*
X12132167Y-15353214D01*
X12132167Y-15353214D02*
X12151214Y-15343690D01*
X12151214Y-15343690D02*
X12179786Y-15343690D01*
X12179786Y-15343690D02*
X12198833Y-15353214D01*
X12198833Y-15353214D02*
X12208357Y-15372262D01*
X12208357Y-15372262D02*
X12208357Y-15477024D01*
X12598833Y-15267500D02*
X12427405Y-15524643D01*
X12855976Y-15277024D02*
X12875024Y-15277024D01*
X12875024Y-15277024D02*
X12894072Y-15286548D01*
X12894072Y-15286548D02*
X12903595Y-15296071D01*
X12903595Y-15296071D02*
X12913119Y-15315119D01*
X12913119Y-15315119D02*
X12922643Y-15353214D01*
X12922643Y-15353214D02*
X12922643Y-15400833D01*
X12922643Y-15400833D02*
X12913119Y-15438928D01*
X12913119Y-15438928D02*
X12903595Y-15457976D01*
X12903595Y-15457976D02*
X12894072Y-15467500D01*
X12894072Y-15467500D02*
X12875024Y-15477024D01*
X12875024Y-15477024D02*
X12855976Y-15477024D01*
X12855976Y-15477024D02*
X12836929Y-15467500D01*
X12836929Y-15467500D02*
X12827405Y-15457976D01*
X12827405Y-15457976D02*
X12817881Y-15438928D01*
X12817881Y-15438928D02*
X12808357Y-15400833D01*
X12808357Y-15400833D02*
X12808357Y-15353214D01*
X12808357Y-15353214D02*
X12817881Y-15315119D01*
X12817881Y-15315119D02*
X12827405Y-15296071D01*
X12827405Y-15296071D02*
X12836929Y-15286548D01*
X12836929Y-15286548D02*
X12855976Y-15277024D01*
X13008357Y-15457976D02*
X13017881Y-15467500D01*
X13017881Y-15467500D02*
X13008357Y-15477024D01*
X13008357Y-15477024D02*
X12998833Y-15467500D01*
X12998833Y-15467500D02*
X13008357Y-15457976D01*
X13008357Y-15457976D02*
X13008357Y-15477024D01*
X13141691Y-15277024D02*
X13160738Y-15277024D01*
X13160738Y-15277024D02*
X13179786Y-15286548D01*
X13179786Y-15286548D02*
X13189310Y-15296071D01*
X13189310Y-15296071D02*
X13198833Y-15315119D01*
X13198833Y-15315119D02*
X13208357Y-15353214D01*
X13208357Y-15353214D02*
X13208357Y-15400833D01*
X13208357Y-15400833D02*
X13198833Y-15438928D01*
X13198833Y-15438928D02*
X13189310Y-15457976D01*
X13189310Y-15457976D02*
X13179786Y-15467500D01*
X13179786Y-15467500D02*
X13160738Y-15477024D01*
X13160738Y-15477024D02*
X13141691Y-15477024D01*
X13141691Y-15477024D02*
X13122643Y-15467500D01*
X13122643Y-15467500D02*
X13113119Y-15457976D01*
X13113119Y-15457976D02*
X13103595Y-15438928D01*
X13103595Y-15438928D02*
X13094072Y-15400833D01*
X13094072Y-15400833D02*
X13094072Y-15353214D01*
X13094072Y-15353214D02*
X13103595Y-15315119D01*
X13103595Y-15315119D02*
X13113119Y-15296071D01*
X13113119Y-15296071D02*
X13122643Y-15286548D01*
X13122643Y-15286548D02*
X13141691Y-15277024D01*
X13398833Y-15477024D02*
X13284548Y-15477024D01*
X13341691Y-15477024D02*
X13341691Y-15277024D01*
X13341691Y-15277024D02*
X13322643Y-15305595D01*
X13322643Y-15305595D02*
X13303595Y-15324643D01*
X13303595Y-15324643D02*
X13284548Y-15334167D01*
X13494072Y-15477024D02*
X13532167Y-15477024D01*
X13532167Y-15477024D02*
X13551214Y-15467500D01*
X13551214Y-15467500D02*
X13560738Y-15457976D01*
X13560738Y-15457976D02*
X13579786Y-15429405D01*
X13579786Y-15429405D02*
X13589310Y-15391309D01*
X13589310Y-15391309D02*
X13589310Y-15315119D01*
X13589310Y-15315119D02*
X13579786Y-15296071D01*
X13579786Y-15296071D02*
X13570262Y-15286548D01*
X13570262Y-15286548D02*
X13551214Y-15277024D01*
X13551214Y-15277024D02*
X13513119Y-15277024D01*
X13513119Y-15277024D02*
X13494072Y-15286548D01*
X13494072Y-15286548D02*
X13484548Y-15296071D01*
X13484548Y-15296071D02*
X13475024Y-15315119D01*
X13475024Y-15315119D02*
X13475024Y-15362738D01*
X13475024Y-15362738D02*
X13484548Y-15381786D01*
X13484548Y-15381786D02*
X13494072Y-15391309D01*
X13494072Y-15391309D02*
X13513119Y-15400833D01*
X13513119Y-15400833D02*
X13551214Y-15400833D01*
X13551214Y-15400833D02*
X13570262Y-15391309D01*
X13570262Y-15391309D02*
X13579786Y-15381786D01*
X13579786Y-15381786D02*
X13589310Y-15362738D01*
X13655976Y-15277024D02*
X13789310Y-15277024D01*
X13789310Y-15277024D02*
X13703595Y-15477024D01*
X13855976Y-15277024D02*
X13855976Y-15315119D01*
X13932167Y-15277024D02*
X13932167Y-15315119D01*
X14227405Y-15553214D02*
X14217881Y-15543690D01*
X14217881Y-15543690D02*
X14198834Y-15515119D01*
X14198834Y-15515119D02*
X14189310Y-15496071D01*
X14189310Y-15496071D02*
X14179786Y-15467500D01*
X14179786Y-15467500D02*
X14170262Y-15419881D01*
X14170262Y-15419881D02*
X14170262Y-15381786D01*
X14170262Y-15381786D02*
X14179786Y-15334167D01*
X14179786Y-15334167D02*
X14189310Y-15305595D01*
X14189310Y-15305595D02*
X14198834Y-15286548D01*
X14198834Y-15286548D02*
X14217881Y-15257976D01*
X14217881Y-15257976D02*
X14227405Y-15248452D01*
X14284548Y-15277024D02*
X14408357Y-15277024D01*
X14408357Y-15277024D02*
X14341691Y-15353214D01*
X14341691Y-15353214D02*
X14370262Y-15353214D01*
X14370262Y-15353214D02*
X14389310Y-15362738D01*
X14389310Y-15362738D02*
X14398834Y-15372262D01*
X14398834Y-15372262D02*
X14408357Y-15391309D01*
X14408357Y-15391309D02*
X14408357Y-15438928D01*
X14408357Y-15438928D02*
X14398834Y-15457976D01*
X14398834Y-15457976D02*
X14389310Y-15467500D01*
X14389310Y-15467500D02*
X14370262Y-15477024D01*
X14370262Y-15477024D02*
X14313119Y-15477024D01*
X14313119Y-15477024D02*
X14294072Y-15467500D01*
X14294072Y-15467500D02*
X14284548Y-15457976D01*
X14484548Y-15296071D02*
X14494072Y-15286548D01*
X14494072Y-15286548D02*
X14513119Y-15277024D01*
X14513119Y-15277024D02*
X14560738Y-15277024D01*
X14560738Y-15277024D02*
X14579786Y-15286548D01*
X14579786Y-15286548D02*
X14589310Y-15296071D01*
X14589310Y-15296071D02*
X14598834Y-15315119D01*
X14598834Y-15315119D02*
X14598834Y-15334167D01*
X14598834Y-15334167D02*
X14589310Y-15362738D01*
X14589310Y-15362738D02*
X14475024Y-15477024D01*
X14475024Y-15477024D02*
X14598834Y-15477024D01*
X14836929Y-15477024D02*
X14836929Y-15277024D01*
X14922643Y-15477024D02*
X14922643Y-15372262D01*
X14922643Y-15372262D02*
X14913119Y-15353214D01*
X14913119Y-15353214D02*
X14894072Y-15343690D01*
X14894072Y-15343690D02*
X14865500Y-15343690D01*
X14865500Y-15343690D02*
X14846453Y-15353214D01*
X14846453Y-15353214D02*
X14836929Y-15362738D01*
X15046453Y-15477024D02*
X15027405Y-15467500D01*
X15027405Y-15467500D02*
X15017881Y-15457976D01*
X15017881Y-15457976D02*
X15008357Y-15438928D01*
X15008357Y-15438928D02*
X15008357Y-15381786D01*
X15008357Y-15381786D02*
X15017881Y-15362738D01*
X15017881Y-15362738D02*
X15027405Y-15353214D01*
X15027405Y-15353214D02*
X15046453Y-15343690D01*
X15046453Y-15343690D02*
X15075024Y-15343690D01*
X15075024Y-15343690D02*
X15094072Y-15353214D01*
X15094072Y-15353214D02*
X15103596Y-15362738D01*
X15103596Y-15362738D02*
X15113119Y-15381786D01*
X15113119Y-15381786D02*
X15113119Y-15438928D01*
X15113119Y-15438928D02*
X15103596Y-15457976D01*
X15103596Y-15457976D02*
X15094072Y-15467500D01*
X15094072Y-15467500D02*
X15075024Y-15477024D01*
X15075024Y-15477024D02*
X15046453Y-15477024D01*
X15227405Y-15477024D02*
X15208357Y-15467500D01*
X15208357Y-15467500D02*
X15198834Y-15448452D01*
X15198834Y-15448452D02*
X15198834Y-15277024D01*
X15379786Y-15467500D02*
X15360738Y-15477024D01*
X15360738Y-15477024D02*
X15322643Y-15477024D01*
X15322643Y-15477024D02*
X15303596Y-15467500D01*
X15303596Y-15467500D02*
X15294072Y-15448452D01*
X15294072Y-15448452D02*
X15294072Y-15372262D01*
X15294072Y-15372262D02*
X15303596Y-15353214D01*
X15303596Y-15353214D02*
X15322643Y-15343690D01*
X15322643Y-15343690D02*
X15360738Y-15343690D01*
X15360738Y-15343690D02*
X15379786Y-15353214D01*
X15379786Y-15353214D02*
X15389310Y-15372262D01*
X15389310Y-15372262D02*
X15389310Y-15391309D01*
X15389310Y-15391309D02*
X15294072Y-15410357D01*
X15465500Y-15467500D02*
X15484548Y-15477024D01*
X15484548Y-15477024D02*
X15522643Y-15477024D01*
X15522643Y-15477024D02*
X15541691Y-15467500D01*
X15541691Y-15467500D02*
X15551215Y-15448452D01*
X15551215Y-15448452D02*
X15551215Y-15438928D01*
X15551215Y-15438928D02*
X15541691Y-15419881D01*
X15541691Y-15419881D02*
X15522643Y-15410357D01*
X15522643Y-15410357D02*
X15494072Y-15410357D01*
X15494072Y-15410357D02*
X15475024Y-15400833D01*
X15475024Y-15400833D02*
X15465500Y-15381786D01*
X15465500Y-15381786D02*
X15465500Y-15372262D01*
X15465500Y-15372262D02*
X15475024Y-15353214D01*
X15475024Y-15353214D02*
X15494072Y-15343690D01*
X15494072Y-15343690D02*
X15522643Y-15343690D01*
X15522643Y-15343690D02*
X15541691Y-15353214D01*
X15617881Y-15553214D02*
X15627405Y-15543690D01*
X15627405Y-15543690D02*
X15646453Y-15515119D01*
X15646453Y-15515119D02*
X15655977Y-15496071D01*
X15655977Y-15496071D02*
X15665500Y-15467500D01*
X15665500Y-15467500D02*
X15675024Y-15419881D01*
X15675024Y-15419881D02*
X15675024Y-15381786D01*
X15675024Y-15381786D02*
X15665500Y-15334167D01*
X15665500Y-15334167D02*
X15655977Y-15305595D01*
X15655977Y-15305595D02*
X15646453Y-15286548D01*
X15646453Y-15286548D02*
X15627405Y-15257976D01*
X15627405Y-15257976D02*
X15617881Y-15248452D01*
D13*
X10635500Y-15618500D02*
X10635500Y-15678500D01*
X10605500Y-15648500D02*
X10665500Y-15648500D01*
D11*
X10951214Y-15541024D02*
X10970262Y-15541024D01*
X10970262Y-15541024D02*
X10989310Y-15550548D01*
X10989310Y-15550548D02*
X10998833Y-15560071D01*
X10998833Y-15560071D02*
X11008357Y-15579119D01*
X11008357Y-15579119D02*
X11017881Y-15617214D01*
X11017881Y-15617214D02*
X11017881Y-15664833D01*
X11017881Y-15664833D02*
X11008357Y-15702928D01*
X11008357Y-15702928D02*
X10998833Y-15721976D01*
X10998833Y-15721976D02*
X10989310Y-15731500D01*
X10989310Y-15731500D02*
X10970262Y-15741024D01*
X10970262Y-15741024D02*
X10951214Y-15741024D01*
X10951214Y-15741024D02*
X10932167Y-15731500D01*
X10932167Y-15731500D02*
X10922643Y-15721976D01*
X10922643Y-15721976D02*
X10913119Y-15702928D01*
X10913119Y-15702928D02*
X10903595Y-15664833D01*
X10903595Y-15664833D02*
X10903595Y-15617214D01*
X10903595Y-15617214D02*
X10913119Y-15579119D01*
X10913119Y-15579119D02*
X10922643Y-15560071D01*
X10922643Y-15560071D02*
X10932167Y-15550548D01*
X10932167Y-15550548D02*
X10951214Y-15541024D01*
X11103595Y-15721976D02*
X11113119Y-15731500D01*
X11113119Y-15731500D02*
X11103595Y-15741024D01*
X11103595Y-15741024D02*
X11094071Y-15731500D01*
X11094071Y-15731500D02*
X11103595Y-15721976D01*
X11103595Y-15721976D02*
X11103595Y-15741024D01*
X11284548Y-15541024D02*
X11246452Y-15541024D01*
X11246452Y-15541024D02*
X11227405Y-15550548D01*
X11227405Y-15550548D02*
X11217881Y-15560071D01*
X11217881Y-15560071D02*
X11198833Y-15588643D01*
X11198833Y-15588643D02*
X11189309Y-15626738D01*
X11189309Y-15626738D02*
X11189309Y-15702928D01*
X11189309Y-15702928D02*
X11198833Y-15721976D01*
X11198833Y-15721976D02*
X11208357Y-15731500D01*
X11208357Y-15731500D02*
X11227405Y-15741024D01*
X11227405Y-15741024D02*
X11265500Y-15741024D01*
X11265500Y-15741024D02*
X11284548Y-15731500D01*
X11284548Y-15731500D02*
X11294071Y-15721976D01*
X11294071Y-15721976D02*
X11303595Y-15702928D01*
X11303595Y-15702928D02*
X11303595Y-15655309D01*
X11303595Y-15655309D02*
X11294071Y-15636262D01*
X11294071Y-15636262D02*
X11284548Y-15626738D01*
X11284548Y-15626738D02*
X11265500Y-15617214D01*
X11265500Y-15617214D02*
X11227405Y-15617214D01*
X11227405Y-15617214D02*
X11208357Y-15626738D01*
X11208357Y-15626738D02*
X11198833Y-15636262D01*
X11198833Y-15636262D02*
X11189309Y-15655309D01*
X11427405Y-15541024D02*
X11446452Y-15541024D01*
X11446452Y-15541024D02*
X11465500Y-15550548D01*
X11465500Y-15550548D02*
X11475024Y-15560071D01*
X11475024Y-15560071D02*
X11484548Y-15579119D01*
X11484548Y-15579119D02*
X11494071Y-15617214D01*
X11494071Y-15617214D02*
X11494071Y-15664833D01*
X11494071Y-15664833D02*
X11484548Y-15702928D01*
X11484548Y-15702928D02*
X11475024Y-15721976D01*
X11475024Y-15721976D02*
X11465500Y-15731500D01*
X11465500Y-15731500D02*
X11446452Y-15741024D01*
X11446452Y-15741024D02*
X11427405Y-15741024D01*
X11427405Y-15741024D02*
X11408357Y-15731500D01*
X11408357Y-15731500D02*
X11398833Y-15721976D01*
X11398833Y-15721976D02*
X11389309Y-15702928D01*
X11389309Y-15702928D02*
X11379786Y-15664833D01*
X11379786Y-15664833D02*
X11379786Y-15617214D01*
X11379786Y-15617214D02*
X11389309Y-15579119D01*
X11389309Y-15579119D02*
X11398833Y-15560071D01*
X11398833Y-15560071D02*
X11408357Y-15550548D01*
X11408357Y-15550548D02*
X11427405Y-15541024D01*
X11617881Y-15541024D02*
X11636929Y-15541024D01*
X11636929Y-15541024D02*
X11655976Y-15550548D01*
X11655976Y-15550548D02*
X11665500Y-15560071D01*
X11665500Y-15560071D02*
X11675024Y-15579119D01*
X11675024Y-15579119D02*
X11684548Y-15617214D01*
X11684548Y-15617214D02*
X11684548Y-15664833D01*
X11684548Y-15664833D02*
X11675024Y-15702928D01*
X11675024Y-15702928D02*
X11665500Y-15721976D01*
X11665500Y-15721976D02*
X11655976Y-15731500D01*
X11655976Y-15731500D02*
X11636929Y-15741024D01*
X11636929Y-15741024D02*
X11617881Y-15741024D01*
X11617881Y-15741024D02*
X11598833Y-15731500D01*
X11598833Y-15731500D02*
X11589309Y-15721976D01*
X11589309Y-15721976D02*
X11579786Y-15702928D01*
X11579786Y-15702928D02*
X11570262Y-15664833D01*
X11570262Y-15664833D02*
X11570262Y-15617214D01*
X11570262Y-15617214D02*
X11579786Y-15579119D01*
X11579786Y-15579119D02*
X11589309Y-15560071D01*
X11589309Y-15560071D02*
X11598833Y-15550548D01*
X11598833Y-15550548D02*
X11617881Y-15541024D01*
X11770262Y-15741024D02*
X11770262Y-15607690D01*
X11770262Y-15626738D02*
X11779786Y-15617214D01*
X11779786Y-15617214D02*
X11798833Y-15607690D01*
X11798833Y-15607690D02*
X11827405Y-15607690D01*
X11827405Y-15607690D02*
X11846452Y-15617214D01*
X11846452Y-15617214D02*
X11855976Y-15636262D01*
X11855976Y-15636262D02*
X11855976Y-15741024D01*
X11855976Y-15636262D02*
X11865500Y-15617214D01*
X11865500Y-15617214D02*
X11884548Y-15607690D01*
X11884548Y-15607690D02*
X11913119Y-15607690D01*
X11913119Y-15607690D02*
X11932167Y-15617214D01*
X11932167Y-15617214D02*
X11941690Y-15636262D01*
X11941690Y-15636262D02*
X11941690Y-15741024D01*
X12036929Y-15741024D02*
X12036929Y-15607690D01*
X12036929Y-15626738D02*
X12046452Y-15617214D01*
X12046452Y-15617214D02*
X12065500Y-15607690D01*
X12065500Y-15607690D02*
X12094071Y-15607690D01*
X12094071Y-15607690D02*
X12113119Y-15617214D01*
X12113119Y-15617214D02*
X12122643Y-15636262D01*
X12122643Y-15636262D02*
X12122643Y-15741024D01*
X12122643Y-15636262D02*
X12132167Y-15617214D01*
X12132167Y-15617214D02*
X12151214Y-15607690D01*
X12151214Y-15607690D02*
X12179786Y-15607690D01*
X12179786Y-15607690D02*
X12198833Y-15617214D01*
X12198833Y-15617214D02*
X12208357Y-15636262D01*
X12208357Y-15636262D02*
X12208357Y-15741024D01*
X12598833Y-15531500D02*
X12427405Y-15788643D01*
X12855976Y-15541024D02*
X12875024Y-15541024D01*
X12875024Y-15541024D02*
X12894072Y-15550548D01*
X12894072Y-15550548D02*
X12903595Y-15560071D01*
X12903595Y-15560071D02*
X12913119Y-15579119D01*
X12913119Y-15579119D02*
X12922643Y-15617214D01*
X12922643Y-15617214D02*
X12922643Y-15664833D01*
X12922643Y-15664833D02*
X12913119Y-15702928D01*
X12913119Y-15702928D02*
X12903595Y-15721976D01*
X12903595Y-15721976D02*
X12894072Y-15731500D01*
X12894072Y-15731500D02*
X12875024Y-15741024D01*
X12875024Y-15741024D02*
X12855976Y-15741024D01*
X12855976Y-15741024D02*
X12836929Y-15731500D01*
X12836929Y-15731500D02*
X12827405Y-15721976D01*
X12827405Y-15721976D02*
X12817881Y-15702928D01*
X12817881Y-15702928D02*
X12808357Y-15664833D01*
X12808357Y-15664833D02*
X12808357Y-15617214D01*
X12808357Y-15617214D02*
X12817881Y-15579119D01*
X12817881Y-15579119D02*
X12827405Y-15560071D01*
X12827405Y-15560071D02*
X12836929Y-15550548D01*
X12836929Y-15550548D02*
X12855976Y-15541024D01*
X13008357Y-15721976D02*
X13017881Y-15731500D01*
X13017881Y-15731500D02*
X13008357Y-15741024D01*
X13008357Y-15741024D02*
X12998833Y-15731500D01*
X12998833Y-15731500D02*
X13008357Y-15721976D01*
X13008357Y-15721976D02*
X13008357Y-15741024D01*
X13141691Y-15541024D02*
X13160738Y-15541024D01*
X13160738Y-15541024D02*
X13179786Y-15550548D01*
X13179786Y-15550548D02*
X13189310Y-15560071D01*
X13189310Y-15560071D02*
X13198833Y-15579119D01*
X13198833Y-15579119D02*
X13208357Y-15617214D01*
X13208357Y-15617214D02*
X13208357Y-15664833D01*
X13208357Y-15664833D02*
X13198833Y-15702928D01*
X13198833Y-15702928D02*
X13189310Y-15721976D01*
X13189310Y-15721976D02*
X13179786Y-15731500D01*
X13179786Y-15731500D02*
X13160738Y-15741024D01*
X13160738Y-15741024D02*
X13141691Y-15741024D01*
X13141691Y-15741024D02*
X13122643Y-15731500D01*
X13122643Y-15731500D02*
X13113119Y-15721976D01*
X13113119Y-15721976D02*
X13103595Y-15702928D01*
X13103595Y-15702928D02*
X13094072Y-15664833D01*
X13094072Y-15664833D02*
X13094072Y-15617214D01*
X13094072Y-15617214D02*
X13103595Y-15579119D01*
X13103595Y-15579119D02*
X13113119Y-15560071D01*
X13113119Y-15560071D02*
X13122643Y-15550548D01*
X13122643Y-15550548D02*
X13141691Y-15541024D01*
X13284548Y-15560071D02*
X13294072Y-15550548D01*
X13294072Y-15550548D02*
X13313119Y-15541024D01*
X13313119Y-15541024D02*
X13360738Y-15541024D01*
X13360738Y-15541024D02*
X13379786Y-15550548D01*
X13379786Y-15550548D02*
X13389310Y-15560071D01*
X13389310Y-15560071D02*
X13398833Y-15579119D01*
X13398833Y-15579119D02*
X13398833Y-15598167D01*
X13398833Y-15598167D02*
X13389310Y-15626738D01*
X13389310Y-15626738D02*
X13275024Y-15741024D01*
X13275024Y-15741024D02*
X13398833Y-15741024D01*
X13465500Y-15541024D02*
X13589310Y-15541024D01*
X13589310Y-15541024D02*
X13522643Y-15617214D01*
X13522643Y-15617214D02*
X13551214Y-15617214D01*
X13551214Y-15617214D02*
X13570262Y-15626738D01*
X13570262Y-15626738D02*
X13579786Y-15636262D01*
X13579786Y-15636262D02*
X13589310Y-15655309D01*
X13589310Y-15655309D02*
X13589310Y-15702928D01*
X13589310Y-15702928D02*
X13579786Y-15721976D01*
X13579786Y-15721976D02*
X13570262Y-15731500D01*
X13570262Y-15731500D02*
X13551214Y-15741024D01*
X13551214Y-15741024D02*
X13494072Y-15741024D01*
X13494072Y-15741024D02*
X13475024Y-15731500D01*
X13475024Y-15731500D02*
X13465500Y-15721976D01*
X13760738Y-15541024D02*
X13722643Y-15541024D01*
X13722643Y-15541024D02*
X13703595Y-15550548D01*
X13703595Y-15550548D02*
X13694072Y-15560071D01*
X13694072Y-15560071D02*
X13675024Y-15588643D01*
X13675024Y-15588643D02*
X13665500Y-15626738D01*
X13665500Y-15626738D02*
X13665500Y-15702928D01*
X13665500Y-15702928D02*
X13675024Y-15721976D01*
X13675024Y-15721976D02*
X13684548Y-15731500D01*
X13684548Y-15731500D02*
X13703595Y-15741024D01*
X13703595Y-15741024D02*
X13741691Y-15741024D01*
X13741691Y-15741024D02*
X13760738Y-15731500D01*
X13760738Y-15731500D02*
X13770262Y-15721976D01*
X13770262Y-15721976D02*
X13779786Y-15702928D01*
X13779786Y-15702928D02*
X13779786Y-15655309D01*
X13779786Y-15655309D02*
X13770262Y-15636262D01*
X13770262Y-15636262D02*
X13760738Y-15626738D01*
X13760738Y-15626738D02*
X13741691Y-15617214D01*
X13741691Y-15617214D02*
X13703595Y-15617214D01*
X13703595Y-15617214D02*
X13684548Y-15626738D01*
X13684548Y-15626738D02*
X13675024Y-15636262D01*
X13675024Y-15636262D02*
X13665500Y-15655309D01*
X13855976Y-15541024D02*
X13855976Y-15579119D01*
X13932167Y-15541024D02*
X13932167Y-15579119D01*
X14227405Y-15817214D02*
X14217881Y-15807690D01*
X14217881Y-15807690D02*
X14198834Y-15779119D01*
X14198834Y-15779119D02*
X14189310Y-15760071D01*
X14189310Y-15760071D02*
X14179786Y-15731500D01*
X14179786Y-15731500D02*
X14170262Y-15683881D01*
X14170262Y-15683881D02*
X14170262Y-15645786D01*
X14170262Y-15645786D02*
X14179786Y-15598167D01*
X14179786Y-15598167D02*
X14189310Y-15569595D01*
X14189310Y-15569595D02*
X14198834Y-15550548D01*
X14198834Y-15550548D02*
X14217881Y-15521976D01*
X14217881Y-15521976D02*
X14227405Y-15512452D01*
X14294072Y-15560071D02*
X14303595Y-15550548D01*
X14303595Y-15550548D02*
X14322643Y-15541024D01*
X14322643Y-15541024D02*
X14370262Y-15541024D01*
X14370262Y-15541024D02*
X14389310Y-15550548D01*
X14389310Y-15550548D02*
X14398834Y-15560071D01*
X14398834Y-15560071D02*
X14408357Y-15579119D01*
X14408357Y-15579119D02*
X14408357Y-15598167D01*
X14408357Y-15598167D02*
X14398834Y-15626738D01*
X14398834Y-15626738D02*
X14284548Y-15741024D01*
X14284548Y-15741024D02*
X14408357Y-15741024D01*
X14646453Y-15741024D02*
X14646453Y-15541024D01*
X14732167Y-15741024D02*
X14732167Y-15636262D01*
X14732167Y-15636262D02*
X14722643Y-15617214D01*
X14722643Y-15617214D02*
X14703596Y-15607690D01*
X14703596Y-15607690D02*
X14675024Y-15607690D01*
X14675024Y-15607690D02*
X14655976Y-15617214D01*
X14655976Y-15617214D02*
X14646453Y-15626738D01*
X14855976Y-15741024D02*
X14836929Y-15731500D01*
X14836929Y-15731500D02*
X14827405Y-15721976D01*
X14827405Y-15721976D02*
X14817881Y-15702928D01*
X14817881Y-15702928D02*
X14817881Y-15645786D01*
X14817881Y-15645786D02*
X14827405Y-15626738D01*
X14827405Y-15626738D02*
X14836929Y-15617214D01*
X14836929Y-15617214D02*
X14855976Y-15607690D01*
X14855976Y-15607690D02*
X14884548Y-15607690D01*
X14884548Y-15607690D02*
X14903596Y-15617214D01*
X14903596Y-15617214D02*
X14913119Y-15626738D01*
X14913119Y-15626738D02*
X14922643Y-15645786D01*
X14922643Y-15645786D02*
X14922643Y-15702928D01*
X14922643Y-15702928D02*
X14913119Y-15721976D01*
X14913119Y-15721976D02*
X14903596Y-15731500D01*
X14903596Y-15731500D02*
X14884548Y-15741024D01*
X14884548Y-15741024D02*
X14855976Y-15741024D01*
X15036929Y-15741024D02*
X15017881Y-15731500D01*
X15017881Y-15731500D02*
X15008357Y-15712452D01*
X15008357Y-15712452D02*
X15008357Y-15541024D01*
X15189310Y-15731500D02*
X15170262Y-15741024D01*
X15170262Y-15741024D02*
X15132167Y-15741024D01*
X15132167Y-15741024D02*
X15113119Y-15731500D01*
X15113119Y-15731500D02*
X15103596Y-15712452D01*
X15103596Y-15712452D02*
X15103596Y-15636262D01*
X15103596Y-15636262D02*
X15113119Y-15617214D01*
X15113119Y-15617214D02*
X15132167Y-15607690D01*
X15132167Y-15607690D02*
X15170262Y-15607690D01*
X15170262Y-15607690D02*
X15189310Y-15617214D01*
X15189310Y-15617214D02*
X15198834Y-15636262D01*
X15198834Y-15636262D02*
X15198834Y-15655309D01*
X15198834Y-15655309D02*
X15103596Y-15674357D01*
X15275024Y-15731500D02*
X15294072Y-15741024D01*
X15294072Y-15741024D02*
X15332167Y-15741024D01*
X15332167Y-15741024D02*
X15351215Y-15731500D01*
X15351215Y-15731500D02*
X15360738Y-15712452D01*
X15360738Y-15712452D02*
X15360738Y-15702928D01*
X15360738Y-15702928D02*
X15351215Y-15683881D01*
X15351215Y-15683881D02*
X15332167Y-15674357D01*
X15332167Y-15674357D02*
X15303596Y-15674357D01*
X15303596Y-15674357D02*
X15284548Y-15664833D01*
X15284548Y-15664833D02*
X15275024Y-15645786D01*
X15275024Y-15645786D02*
X15275024Y-15636262D01*
X15275024Y-15636262D02*
X15284548Y-15617214D01*
X15284548Y-15617214D02*
X15303596Y-15607690D01*
X15303596Y-15607690D02*
X15332167Y-15607690D01*
X15332167Y-15607690D02*
X15351215Y-15617214D01*
X15427405Y-15817214D02*
X15436929Y-15807690D01*
X15436929Y-15807690D02*
X15455977Y-15779119D01*
X15455977Y-15779119D02*
X15465500Y-15760071D01*
X15465500Y-15760071D02*
X15475024Y-15731500D01*
X15475024Y-15731500D02*
X15484548Y-15683881D01*
X15484548Y-15683881D02*
X15484548Y-15645786D01*
X15484548Y-15645786D02*
X15475024Y-15598167D01*
X15475024Y-15598167D02*
X15465500Y-15569595D01*
X15465500Y-15569595D02*
X15455977Y-15550548D01*
X15455977Y-15550548D02*
X15436929Y-15521976D01*
X15436929Y-15521976D02*
X15427405Y-15512452D01*
D14*
X10653785Y-15940784D02*
X10653785Y-15884215D01*
X10597216Y-15884215D01*
X10597216Y-15940784D01*
X10653785Y-15940784D01*
D11*
X10951214Y-15805024D02*
X10970262Y-15805024D01*
X10970262Y-15805024D02*
X10989310Y-15814548D01*
X10989310Y-15814548D02*
X10998833Y-15824071D01*
X10998833Y-15824071D02*
X11008357Y-15843119D01*
X11008357Y-15843119D02*
X11017881Y-15881214D01*
X11017881Y-15881214D02*
X11017881Y-15928833D01*
X11017881Y-15928833D02*
X11008357Y-15966928D01*
X11008357Y-15966928D02*
X10998833Y-15985976D01*
X10998833Y-15985976D02*
X10989310Y-15995500D01*
X10989310Y-15995500D02*
X10970262Y-16005024D01*
X10970262Y-16005024D02*
X10951214Y-16005024D01*
X10951214Y-16005024D02*
X10932167Y-15995500D01*
X10932167Y-15995500D02*
X10922643Y-15985976D01*
X10922643Y-15985976D02*
X10913119Y-15966928D01*
X10913119Y-15966928D02*
X10903595Y-15928833D01*
X10903595Y-15928833D02*
X10903595Y-15881214D01*
X10903595Y-15881214D02*
X10913119Y-15843119D01*
X10913119Y-15843119D02*
X10922643Y-15824071D01*
X10922643Y-15824071D02*
X10932167Y-15814548D01*
X10932167Y-15814548D02*
X10951214Y-15805024D01*
X11103595Y-15985976D02*
X11113119Y-15995500D01*
X11113119Y-15995500D02*
X11103595Y-16005024D01*
X11103595Y-16005024D02*
X11094071Y-15995500D01*
X11094071Y-15995500D02*
X11103595Y-15985976D01*
X11103595Y-15985976D02*
X11103595Y-16005024D01*
X11227405Y-15890738D02*
X11208357Y-15881214D01*
X11208357Y-15881214D02*
X11198833Y-15871690D01*
X11198833Y-15871690D02*
X11189309Y-15852643D01*
X11189309Y-15852643D02*
X11189309Y-15843119D01*
X11189309Y-15843119D02*
X11198833Y-15824071D01*
X11198833Y-15824071D02*
X11208357Y-15814548D01*
X11208357Y-15814548D02*
X11227405Y-15805024D01*
X11227405Y-15805024D02*
X11265500Y-15805024D01*
X11265500Y-15805024D02*
X11284548Y-15814548D01*
X11284548Y-15814548D02*
X11294071Y-15824071D01*
X11294071Y-15824071D02*
X11303595Y-15843119D01*
X11303595Y-15843119D02*
X11303595Y-15852643D01*
X11303595Y-15852643D02*
X11294071Y-15871690D01*
X11294071Y-15871690D02*
X11284548Y-15881214D01*
X11284548Y-15881214D02*
X11265500Y-15890738D01*
X11265500Y-15890738D02*
X11227405Y-15890738D01*
X11227405Y-15890738D02*
X11208357Y-15900262D01*
X11208357Y-15900262D02*
X11198833Y-15909786D01*
X11198833Y-15909786D02*
X11189309Y-15928833D01*
X11189309Y-15928833D02*
X11189309Y-15966928D01*
X11189309Y-15966928D02*
X11198833Y-15985976D01*
X11198833Y-15985976D02*
X11208357Y-15995500D01*
X11208357Y-15995500D02*
X11227405Y-16005024D01*
X11227405Y-16005024D02*
X11265500Y-16005024D01*
X11265500Y-16005024D02*
X11284548Y-15995500D01*
X11284548Y-15995500D02*
X11294071Y-15985976D01*
X11294071Y-15985976D02*
X11303595Y-15966928D01*
X11303595Y-15966928D02*
X11303595Y-15928833D01*
X11303595Y-15928833D02*
X11294071Y-15909786D01*
X11294071Y-15909786D02*
X11284548Y-15900262D01*
X11284548Y-15900262D02*
X11265500Y-15890738D01*
X11427405Y-15805024D02*
X11446452Y-15805024D01*
X11446452Y-15805024D02*
X11465500Y-15814548D01*
X11465500Y-15814548D02*
X11475024Y-15824071D01*
X11475024Y-15824071D02*
X11484548Y-15843119D01*
X11484548Y-15843119D02*
X11494071Y-15881214D01*
X11494071Y-15881214D02*
X11494071Y-15928833D01*
X11494071Y-15928833D02*
X11484548Y-15966928D01*
X11484548Y-15966928D02*
X11475024Y-15985976D01*
X11475024Y-15985976D02*
X11465500Y-15995500D01*
X11465500Y-15995500D02*
X11446452Y-16005024D01*
X11446452Y-16005024D02*
X11427405Y-16005024D01*
X11427405Y-16005024D02*
X11408357Y-15995500D01*
X11408357Y-15995500D02*
X11398833Y-15985976D01*
X11398833Y-15985976D02*
X11389309Y-15966928D01*
X11389309Y-15966928D02*
X11379786Y-15928833D01*
X11379786Y-15928833D02*
X11379786Y-15881214D01*
X11379786Y-15881214D02*
X11389309Y-15843119D01*
X11389309Y-15843119D02*
X11398833Y-15824071D01*
X11398833Y-15824071D02*
X11408357Y-15814548D01*
X11408357Y-15814548D02*
X11427405Y-15805024D01*
X11617881Y-15805024D02*
X11636929Y-15805024D01*
X11636929Y-15805024D02*
X11655976Y-15814548D01*
X11655976Y-15814548D02*
X11665500Y-15824071D01*
X11665500Y-15824071D02*
X11675024Y-15843119D01*
X11675024Y-15843119D02*
X11684548Y-15881214D01*
X11684548Y-15881214D02*
X11684548Y-15928833D01*
X11684548Y-15928833D02*
X11675024Y-15966928D01*
X11675024Y-15966928D02*
X11665500Y-15985976D01*
X11665500Y-15985976D02*
X11655976Y-15995500D01*
X11655976Y-15995500D02*
X11636929Y-16005024D01*
X11636929Y-16005024D02*
X11617881Y-16005024D01*
X11617881Y-16005024D02*
X11598833Y-15995500D01*
X11598833Y-15995500D02*
X11589309Y-15985976D01*
X11589309Y-15985976D02*
X11579786Y-15966928D01*
X11579786Y-15966928D02*
X11570262Y-15928833D01*
X11570262Y-15928833D02*
X11570262Y-15881214D01*
X11570262Y-15881214D02*
X11579786Y-15843119D01*
X11579786Y-15843119D02*
X11589309Y-15824071D01*
X11589309Y-15824071D02*
X11598833Y-15814548D01*
X11598833Y-15814548D02*
X11617881Y-15805024D01*
X11770262Y-16005024D02*
X11770262Y-15871690D01*
X11770262Y-15890738D02*
X11779786Y-15881214D01*
X11779786Y-15881214D02*
X11798833Y-15871690D01*
X11798833Y-15871690D02*
X11827405Y-15871690D01*
X11827405Y-15871690D02*
X11846452Y-15881214D01*
X11846452Y-15881214D02*
X11855976Y-15900262D01*
X11855976Y-15900262D02*
X11855976Y-16005024D01*
X11855976Y-15900262D02*
X11865500Y-15881214D01*
X11865500Y-15881214D02*
X11884548Y-15871690D01*
X11884548Y-15871690D02*
X11913119Y-15871690D01*
X11913119Y-15871690D02*
X11932167Y-15881214D01*
X11932167Y-15881214D02*
X11941690Y-15900262D01*
X11941690Y-15900262D02*
X11941690Y-16005024D01*
X12036929Y-16005024D02*
X12036929Y-15871690D01*
X12036929Y-15890738D02*
X12046452Y-15881214D01*
X12046452Y-15881214D02*
X12065500Y-15871690D01*
X12065500Y-15871690D02*
X12094071Y-15871690D01*
X12094071Y-15871690D02*
X12113119Y-15881214D01*
X12113119Y-15881214D02*
X12122643Y-15900262D01*
X12122643Y-15900262D02*
X12122643Y-16005024D01*
X12122643Y-15900262D02*
X12132167Y-15881214D01*
X12132167Y-15881214D02*
X12151214Y-15871690D01*
X12151214Y-15871690D02*
X12179786Y-15871690D01*
X12179786Y-15871690D02*
X12198833Y-15881214D01*
X12198833Y-15881214D02*
X12208357Y-15900262D01*
X12208357Y-15900262D02*
X12208357Y-16005024D01*
X12598833Y-15795500D02*
X12427405Y-16052643D01*
X12855976Y-15805024D02*
X12875024Y-15805024D01*
X12875024Y-15805024D02*
X12894072Y-15814548D01*
X12894072Y-15814548D02*
X12903595Y-15824071D01*
X12903595Y-15824071D02*
X12913119Y-15843119D01*
X12913119Y-15843119D02*
X12922643Y-15881214D01*
X12922643Y-15881214D02*
X12922643Y-15928833D01*
X12922643Y-15928833D02*
X12913119Y-15966928D01*
X12913119Y-15966928D02*
X12903595Y-15985976D01*
X12903595Y-15985976D02*
X12894072Y-15995500D01*
X12894072Y-15995500D02*
X12875024Y-16005024D01*
X12875024Y-16005024D02*
X12855976Y-16005024D01*
X12855976Y-16005024D02*
X12836929Y-15995500D01*
X12836929Y-15995500D02*
X12827405Y-15985976D01*
X12827405Y-15985976D02*
X12817881Y-15966928D01*
X12817881Y-15966928D02*
X12808357Y-15928833D01*
X12808357Y-15928833D02*
X12808357Y-15881214D01*
X12808357Y-15881214D02*
X12817881Y-15843119D01*
X12817881Y-15843119D02*
X12827405Y-15824071D01*
X12827405Y-15824071D02*
X12836929Y-15814548D01*
X12836929Y-15814548D02*
X12855976Y-15805024D01*
X13008357Y-15985976D02*
X13017881Y-15995500D01*
X13017881Y-15995500D02*
X13008357Y-16005024D01*
X13008357Y-16005024D02*
X12998833Y-15995500D01*
X12998833Y-15995500D02*
X13008357Y-15985976D01*
X13008357Y-15985976D02*
X13008357Y-16005024D01*
X13141691Y-15805024D02*
X13160738Y-15805024D01*
X13160738Y-15805024D02*
X13179786Y-15814548D01*
X13179786Y-15814548D02*
X13189310Y-15824071D01*
X13189310Y-15824071D02*
X13198833Y-15843119D01*
X13198833Y-15843119D02*
X13208357Y-15881214D01*
X13208357Y-15881214D02*
X13208357Y-15928833D01*
X13208357Y-15928833D02*
X13198833Y-15966928D01*
X13198833Y-15966928D02*
X13189310Y-15985976D01*
X13189310Y-15985976D02*
X13179786Y-15995500D01*
X13179786Y-15995500D02*
X13160738Y-16005024D01*
X13160738Y-16005024D02*
X13141691Y-16005024D01*
X13141691Y-16005024D02*
X13122643Y-15995500D01*
X13122643Y-15995500D02*
X13113119Y-15985976D01*
X13113119Y-15985976D02*
X13103595Y-15966928D01*
X13103595Y-15966928D02*
X13094072Y-15928833D01*
X13094072Y-15928833D02*
X13094072Y-15881214D01*
X13094072Y-15881214D02*
X13103595Y-15843119D01*
X13103595Y-15843119D02*
X13113119Y-15824071D01*
X13113119Y-15824071D02*
X13122643Y-15814548D01*
X13122643Y-15814548D02*
X13141691Y-15805024D01*
X13275024Y-15805024D02*
X13398833Y-15805024D01*
X13398833Y-15805024D02*
X13332167Y-15881214D01*
X13332167Y-15881214D02*
X13360738Y-15881214D01*
X13360738Y-15881214D02*
X13379786Y-15890738D01*
X13379786Y-15890738D02*
X13389310Y-15900262D01*
X13389310Y-15900262D02*
X13398833Y-15919309D01*
X13398833Y-15919309D02*
X13398833Y-15966928D01*
X13398833Y-15966928D02*
X13389310Y-15985976D01*
X13389310Y-15985976D02*
X13379786Y-15995500D01*
X13379786Y-15995500D02*
X13360738Y-16005024D01*
X13360738Y-16005024D02*
X13303595Y-16005024D01*
X13303595Y-16005024D02*
X13284548Y-15995500D01*
X13284548Y-15995500D02*
X13275024Y-15985976D01*
X13589310Y-16005024D02*
X13475024Y-16005024D01*
X13532167Y-16005024D02*
X13532167Y-15805024D01*
X13532167Y-15805024D02*
X13513119Y-15833595D01*
X13513119Y-15833595D02*
X13494072Y-15852643D01*
X13494072Y-15852643D02*
X13475024Y-15862167D01*
X13770262Y-15805024D02*
X13675024Y-15805024D01*
X13675024Y-15805024D02*
X13665500Y-15900262D01*
X13665500Y-15900262D02*
X13675024Y-15890738D01*
X13675024Y-15890738D02*
X13694072Y-15881214D01*
X13694072Y-15881214D02*
X13741691Y-15881214D01*
X13741691Y-15881214D02*
X13760738Y-15890738D01*
X13760738Y-15890738D02*
X13770262Y-15900262D01*
X13770262Y-15900262D02*
X13779786Y-15919309D01*
X13779786Y-15919309D02*
X13779786Y-15966928D01*
X13779786Y-15966928D02*
X13770262Y-15985976D01*
X13770262Y-15985976D02*
X13760738Y-15995500D01*
X13760738Y-15995500D02*
X13741691Y-16005024D01*
X13741691Y-16005024D02*
X13694072Y-16005024D01*
X13694072Y-16005024D02*
X13675024Y-15995500D01*
X13675024Y-15995500D02*
X13665500Y-15985976D01*
X13855976Y-15805024D02*
X13855976Y-15843119D01*
X13932167Y-15805024D02*
X13932167Y-15843119D01*
X14227405Y-16081214D02*
X14217881Y-16071690D01*
X14217881Y-16071690D02*
X14198834Y-16043119D01*
X14198834Y-16043119D02*
X14189310Y-16024071D01*
X14189310Y-16024071D02*
X14179786Y-15995500D01*
X14179786Y-15995500D02*
X14170262Y-15947881D01*
X14170262Y-15947881D02*
X14170262Y-15909786D01*
X14170262Y-15909786D02*
X14179786Y-15862167D01*
X14179786Y-15862167D02*
X14189310Y-15833595D01*
X14189310Y-15833595D02*
X14198834Y-15814548D01*
X14198834Y-15814548D02*
X14217881Y-15785976D01*
X14217881Y-15785976D02*
X14227405Y-15776452D01*
X14408357Y-16005024D02*
X14294072Y-16005024D01*
X14351214Y-16005024D02*
X14351214Y-15805024D01*
X14351214Y-15805024D02*
X14332167Y-15833595D01*
X14332167Y-15833595D02*
X14313119Y-15852643D01*
X14313119Y-15852643D02*
X14294072Y-15862167D01*
X14475024Y-15805024D02*
X14608357Y-15805024D01*
X14608357Y-15805024D02*
X14522643Y-16005024D01*
X14836929Y-16005024D02*
X14836929Y-15805024D01*
X14922643Y-16005024D02*
X14922643Y-15900262D01*
X14922643Y-15900262D02*
X14913119Y-15881214D01*
X14913119Y-15881214D02*
X14894072Y-15871690D01*
X14894072Y-15871690D02*
X14865500Y-15871690D01*
X14865500Y-15871690D02*
X14846453Y-15881214D01*
X14846453Y-15881214D02*
X14836929Y-15890738D01*
X15046453Y-16005024D02*
X15027405Y-15995500D01*
X15027405Y-15995500D02*
X15017881Y-15985976D01*
X15017881Y-15985976D02*
X15008357Y-15966928D01*
X15008357Y-15966928D02*
X15008357Y-15909786D01*
X15008357Y-15909786D02*
X15017881Y-15890738D01*
X15017881Y-15890738D02*
X15027405Y-15881214D01*
X15027405Y-15881214D02*
X15046453Y-15871690D01*
X15046453Y-15871690D02*
X15075024Y-15871690D01*
X15075024Y-15871690D02*
X15094072Y-15881214D01*
X15094072Y-15881214D02*
X15103596Y-15890738D01*
X15103596Y-15890738D02*
X15113119Y-15909786D01*
X15113119Y-15909786D02*
X15113119Y-15966928D01*
X15113119Y-15966928D02*
X15103596Y-15985976D01*
X15103596Y-15985976D02*
X15094072Y-15995500D01*
X15094072Y-15995500D02*
X15075024Y-16005024D01*
X15075024Y-16005024D02*
X15046453Y-16005024D01*
X15227405Y-16005024D02*
X15208357Y-15995500D01*
X15208357Y-15995500D02*
X15198834Y-15976452D01*
X15198834Y-15976452D02*
X15198834Y-15805024D01*
X15379786Y-15995500D02*
X15360738Y-16005024D01*
X15360738Y-16005024D02*
X15322643Y-16005024D01*
X15322643Y-16005024D02*
X15303596Y-15995500D01*
X15303596Y-15995500D02*
X15294072Y-15976452D01*
X15294072Y-15976452D02*
X15294072Y-15900262D01*
X15294072Y-15900262D02*
X15303596Y-15881214D01*
X15303596Y-15881214D02*
X15322643Y-15871690D01*
X15322643Y-15871690D02*
X15360738Y-15871690D01*
X15360738Y-15871690D02*
X15379786Y-15881214D01*
X15379786Y-15881214D02*
X15389310Y-15900262D01*
X15389310Y-15900262D02*
X15389310Y-15919309D01*
X15389310Y-15919309D02*
X15294072Y-15938357D01*
X15465500Y-15995500D02*
X15484548Y-16005024D01*
X15484548Y-16005024D02*
X15522643Y-16005024D01*
X15522643Y-16005024D02*
X15541691Y-15995500D01*
X15541691Y-15995500D02*
X15551215Y-15976452D01*
X15551215Y-15976452D02*
X15551215Y-15966928D01*
X15551215Y-15966928D02*
X15541691Y-15947881D01*
X15541691Y-15947881D02*
X15522643Y-15938357D01*
X15522643Y-15938357D02*
X15494072Y-15938357D01*
X15494072Y-15938357D02*
X15475024Y-15928833D01*
X15475024Y-15928833D02*
X15465500Y-15909786D01*
X15465500Y-15909786D02*
X15465500Y-15900262D01*
X15465500Y-15900262D02*
X15475024Y-15881214D01*
X15475024Y-15881214D02*
X15494072Y-15871690D01*
X15494072Y-15871690D02*
X15522643Y-15871690D01*
X15522643Y-15871690D02*
X15541691Y-15881214D01*
X15617881Y-16081214D02*
X15627405Y-16071690D01*
X15627405Y-16071690D02*
X15646453Y-16043119D01*
X15646453Y-16043119D02*
X15655977Y-16024071D01*
X15655977Y-16024071D02*
X15665500Y-15995500D01*
X15665500Y-15995500D02*
X15675024Y-15947881D01*
X15675024Y-15947881D02*
X15675024Y-15909786D01*
X15675024Y-15909786D02*
X15665500Y-15862167D01*
X15665500Y-15862167D02*
X15655977Y-15833595D01*
X15655977Y-15833595D02*
X15646453Y-15814548D01*
X15646453Y-15814548D02*
X15627405Y-15785976D01*
X15627405Y-15785976D02*
X15617881Y-15776452D01*
D14*
X10625500Y-16216500D02*
X10665500Y-16176500D01*
X10625500Y-16136500D01*
X10585500Y-16176500D01*
X10625500Y-16216500D01*
D11*
X10951214Y-16069024D02*
X10970262Y-16069024D01*
X10970262Y-16069024D02*
X10989310Y-16078548D01*
X10989310Y-16078548D02*
X10998833Y-16088071D01*
X10998833Y-16088071D02*
X11008357Y-16107119D01*
X11008357Y-16107119D02*
X11017881Y-16145214D01*
X11017881Y-16145214D02*
X11017881Y-16192833D01*
X11017881Y-16192833D02*
X11008357Y-16230928D01*
X11008357Y-16230928D02*
X10998833Y-16249976D01*
X10998833Y-16249976D02*
X10989310Y-16259500D01*
X10989310Y-16259500D02*
X10970262Y-16269024D01*
X10970262Y-16269024D02*
X10951214Y-16269024D01*
X10951214Y-16269024D02*
X10932167Y-16259500D01*
X10932167Y-16259500D02*
X10922643Y-16249976D01*
X10922643Y-16249976D02*
X10913119Y-16230928D01*
X10913119Y-16230928D02*
X10903595Y-16192833D01*
X10903595Y-16192833D02*
X10903595Y-16145214D01*
X10903595Y-16145214D02*
X10913119Y-16107119D01*
X10913119Y-16107119D02*
X10922643Y-16088071D01*
X10922643Y-16088071D02*
X10932167Y-16078548D01*
X10932167Y-16078548D02*
X10951214Y-16069024D01*
X11103595Y-16249976D02*
X11113119Y-16259500D01*
X11113119Y-16259500D02*
X11103595Y-16269024D01*
X11103595Y-16269024D02*
X11094071Y-16259500D01*
X11094071Y-16259500D02*
X11103595Y-16249976D01*
X11103595Y-16249976D02*
X11103595Y-16269024D01*
X11227405Y-16154738D02*
X11208357Y-16145214D01*
X11208357Y-16145214D02*
X11198833Y-16135690D01*
X11198833Y-16135690D02*
X11189309Y-16116643D01*
X11189309Y-16116643D02*
X11189309Y-16107119D01*
X11189309Y-16107119D02*
X11198833Y-16088071D01*
X11198833Y-16088071D02*
X11208357Y-16078548D01*
X11208357Y-16078548D02*
X11227405Y-16069024D01*
X11227405Y-16069024D02*
X11265500Y-16069024D01*
X11265500Y-16069024D02*
X11284548Y-16078548D01*
X11284548Y-16078548D02*
X11294071Y-16088071D01*
X11294071Y-16088071D02*
X11303595Y-16107119D01*
X11303595Y-16107119D02*
X11303595Y-16116643D01*
X11303595Y-16116643D02*
X11294071Y-16135690D01*
X11294071Y-16135690D02*
X11284548Y-16145214D01*
X11284548Y-16145214D02*
X11265500Y-16154738D01*
X11265500Y-16154738D02*
X11227405Y-16154738D01*
X11227405Y-16154738D02*
X11208357Y-16164262D01*
X11208357Y-16164262D02*
X11198833Y-16173786D01*
X11198833Y-16173786D02*
X11189309Y-16192833D01*
X11189309Y-16192833D02*
X11189309Y-16230928D01*
X11189309Y-16230928D02*
X11198833Y-16249976D01*
X11198833Y-16249976D02*
X11208357Y-16259500D01*
X11208357Y-16259500D02*
X11227405Y-16269024D01*
X11227405Y-16269024D02*
X11265500Y-16269024D01*
X11265500Y-16269024D02*
X11284548Y-16259500D01*
X11284548Y-16259500D02*
X11294071Y-16249976D01*
X11294071Y-16249976D02*
X11303595Y-16230928D01*
X11303595Y-16230928D02*
X11303595Y-16192833D01*
X11303595Y-16192833D02*
X11294071Y-16173786D01*
X11294071Y-16173786D02*
X11284548Y-16164262D01*
X11284548Y-16164262D02*
X11265500Y-16154738D01*
X11427405Y-16069024D02*
X11446452Y-16069024D01*
X11446452Y-16069024D02*
X11465500Y-16078548D01*
X11465500Y-16078548D02*
X11475024Y-16088071D01*
X11475024Y-16088071D02*
X11484548Y-16107119D01*
X11484548Y-16107119D02*
X11494071Y-16145214D01*
X11494071Y-16145214D02*
X11494071Y-16192833D01*
X11494071Y-16192833D02*
X11484548Y-16230928D01*
X11484548Y-16230928D02*
X11475024Y-16249976D01*
X11475024Y-16249976D02*
X11465500Y-16259500D01*
X11465500Y-16259500D02*
X11446452Y-16269024D01*
X11446452Y-16269024D02*
X11427405Y-16269024D01*
X11427405Y-16269024D02*
X11408357Y-16259500D01*
X11408357Y-16259500D02*
X11398833Y-16249976D01*
X11398833Y-16249976D02*
X11389309Y-16230928D01*
X11389309Y-16230928D02*
X11379786Y-16192833D01*
X11379786Y-16192833D02*
X11379786Y-16145214D01*
X11379786Y-16145214D02*
X11389309Y-16107119D01*
X11389309Y-16107119D02*
X11398833Y-16088071D01*
X11398833Y-16088071D02*
X11408357Y-16078548D01*
X11408357Y-16078548D02*
X11427405Y-16069024D01*
X11617881Y-16069024D02*
X11636929Y-16069024D01*
X11636929Y-16069024D02*
X11655976Y-16078548D01*
X11655976Y-16078548D02*
X11665500Y-16088071D01*
X11665500Y-16088071D02*
X11675024Y-16107119D01*
X11675024Y-16107119D02*
X11684548Y-16145214D01*
X11684548Y-16145214D02*
X11684548Y-16192833D01*
X11684548Y-16192833D02*
X11675024Y-16230928D01*
X11675024Y-16230928D02*
X11665500Y-16249976D01*
X11665500Y-16249976D02*
X11655976Y-16259500D01*
X11655976Y-16259500D02*
X11636929Y-16269024D01*
X11636929Y-16269024D02*
X11617881Y-16269024D01*
X11617881Y-16269024D02*
X11598833Y-16259500D01*
X11598833Y-16259500D02*
X11589309Y-16249976D01*
X11589309Y-16249976D02*
X11579786Y-16230928D01*
X11579786Y-16230928D02*
X11570262Y-16192833D01*
X11570262Y-16192833D02*
X11570262Y-16145214D01*
X11570262Y-16145214D02*
X11579786Y-16107119D01*
X11579786Y-16107119D02*
X11589309Y-16088071D01*
X11589309Y-16088071D02*
X11598833Y-16078548D01*
X11598833Y-16078548D02*
X11617881Y-16069024D01*
X11770262Y-16269024D02*
X11770262Y-16135690D01*
X11770262Y-16154738D02*
X11779786Y-16145214D01*
X11779786Y-16145214D02*
X11798833Y-16135690D01*
X11798833Y-16135690D02*
X11827405Y-16135690D01*
X11827405Y-16135690D02*
X11846452Y-16145214D01*
X11846452Y-16145214D02*
X11855976Y-16164262D01*
X11855976Y-16164262D02*
X11855976Y-16269024D01*
X11855976Y-16164262D02*
X11865500Y-16145214D01*
X11865500Y-16145214D02*
X11884548Y-16135690D01*
X11884548Y-16135690D02*
X11913119Y-16135690D01*
X11913119Y-16135690D02*
X11932167Y-16145214D01*
X11932167Y-16145214D02*
X11941690Y-16164262D01*
X11941690Y-16164262D02*
X11941690Y-16269024D01*
X12036929Y-16269024D02*
X12036929Y-16135690D01*
X12036929Y-16154738D02*
X12046452Y-16145214D01*
X12046452Y-16145214D02*
X12065500Y-16135690D01*
X12065500Y-16135690D02*
X12094071Y-16135690D01*
X12094071Y-16135690D02*
X12113119Y-16145214D01*
X12113119Y-16145214D02*
X12122643Y-16164262D01*
X12122643Y-16164262D02*
X12122643Y-16269024D01*
X12122643Y-16164262D02*
X12132167Y-16145214D01*
X12132167Y-16145214D02*
X12151214Y-16135690D01*
X12151214Y-16135690D02*
X12179786Y-16135690D01*
X12179786Y-16135690D02*
X12198833Y-16145214D01*
X12198833Y-16145214D02*
X12208357Y-16164262D01*
X12208357Y-16164262D02*
X12208357Y-16269024D01*
X12598833Y-16059500D02*
X12427405Y-16316643D01*
X12855976Y-16069024D02*
X12875024Y-16069024D01*
X12875024Y-16069024D02*
X12894072Y-16078548D01*
X12894072Y-16078548D02*
X12903595Y-16088071D01*
X12903595Y-16088071D02*
X12913119Y-16107119D01*
X12913119Y-16107119D02*
X12922643Y-16145214D01*
X12922643Y-16145214D02*
X12922643Y-16192833D01*
X12922643Y-16192833D02*
X12913119Y-16230928D01*
X12913119Y-16230928D02*
X12903595Y-16249976D01*
X12903595Y-16249976D02*
X12894072Y-16259500D01*
X12894072Y-16259500D02*
X12875024Y-16269024D01*
X12875024Y-16269024D02*
X12855976Y-16269024D01*
X12855976Y-16269024D02*
X12836929Y-16259500D01*
X12836929Y-16259500D02*
X12827405Y-16249976D01*
X12827405Y-16249976D02*
X12817881Y-16230928D01*
X12817881Y-16230928D02*
X12808357Y-16192833D01*
X12808357Y-16192833D02*
X12808357Y-16145214D01*
X12808357Y-16145214D02*
X12817881Y-16107119D01*
X12817881Y-16107119D02*
X12827405Y-16088071D01*
X12827405Y-16088071D02*
X12836929Y-16078548D01*
X12836929Y-16078548D02*
X12855976Y-16069024D01*
X13008357Y-16249976D02*
X13017881Y-16259500D01*
X13017881Y-16259500D02*
X13008357Y-16269024D01*
X13008357Y-16269024D02*
X12998833Y-16259500D01*
X12998833Y-16259500D02*
X13008357Y-16249976D01*
X13008357Y-16249976D02*
X13008357Y-16269024D01*
X13141691Y-16069024D02*
X13160738Y-16069024D01*
X13160738Y-16069024D02*
X13179786Y-16078548D01*
X13179786Y-16078548D02*
X13189310Y-16088071D01*
X13189310Y-16088071D02*
X13198833Y-16107119D01*
X13198833Y-16107119D02*
X13208357Y-16145214D01*
X13208357Y-16145214D02*
X13208357Y-16192833D01*
X13208357Y-16192833D02*
X13198833Y-16230928D01*
X13198833Y-16230928D02*
X13189310Y-16249976D01*
X13189310Y-16249976D02*
X13179786Y-16259500D01*
X13179786Y-16259500D02*
X13160738Y-16269024D01*
X13160738Y-16269024D02*
X13141691Y-16269024D01*
X13141691Y-16269024D02*
X13122643Y-16259500D01*
X13122643Y-16259500D02*
X13113119Y-16249976D01*
X13113119Y-16249976D02*
X13103595Y-16230928D01*
X13103595Y-16230928D02*
X13094072Y-16192833D01*
X13094072Y-16192833D02*
X13094072Y-16145214D01*
X13094072Y-16145214D02*
X13103595Y-16107119D01*
X13103595Y-16107119D02*
X13113119Y-16088071D01*
X13113119Y-16088071D02*
X13122643Y-16078548D01*
X13122643Y-16078548D02*
X13141691Y-16069024D01*
X13275024Y-16069024D02*
X13398833Y-16069024D01*
X13398833Y-16069024D02*
X13332167Y-16145214D01*
X13332167Y-16145214D02*
X13360738Y-16145214D01*
X13360738Y-16145214D02*
X13379786Y-16154738D01*
X13379786Y-16154738D02*
X13389310Y-16164262D01*
X13389310Y-16164262D02*
X13398833Y-16183309D01*
X13398833Y-16183309D02*
X13398833Y-16230928D01*
X13398833Y-16230928D02*
X13389310Y-16249976D01*
X13389310Y-16249976D02*
X13379786Y-16259500D01*
X13379786Y-16259500D02*
X13360738Y-16269024D01*
X13360738Y-16269024D02*
X13303595Y-16269024D01*
X13303595Y-16269024D02*
X13284548Y-16259500D01*
X13284548Y-16259500D02*
X13275024Y-16249976D01*
X13589310Y-16269024D02*
X13475024Y-16269024D01*
X13532167Y-16269024D02*
X13532167Y-16069024D01*
X13532167Y-16069024D02*
X13513119Y-16097595D01*
X13513119Y-16097595D02*
X13494072Y-16116643D01*
X13494072Y-16116643D02*
X13475024Y-16126167D01*
X13770262Y-16069024D02*
X13675024Y-16069024D01*
X13675024Y-16069024D02*
X13665500Y-16164262D01*
X13665500Y-16164262D02*
X13675024Y-16154738D01*
X13675024Y-16154738D02*
X13694072Y-16145214D01*
X13694072Y-16145214D02*
X13741691Y-16145214D01*
X13741691Y-16145214D02*
X13760738Y-16154738D01*
X13760738Y-16154738D02*
X13770262Y-16164262D01*
X13770262Y-16164262D02*
X13779786Y-16183309D01*
X13779786Y-16183309D02*
X13779786Y-16230928D01*
X13779786Y-16230928D02*
X13770262Y-16249976D01*
X13770262Y-16249976D02*
X13760738Y-16259500D01*
X13760738Y-16259500D02*
X13741691Y-16269024D01*
X13741691Y-16269024D02*
X13694072Y-16269024D01*
X13694072Y-16269024D02*
X13675024Y-16259500D01*
X13675024Y-16259500D02*
X13665500Y-16249976D01*
X13855976Y-16069024D02*
X13855976Y-16107119D01*
X13932167Y-16069024D02*
X13932167Y-16107119D01*
X14227405Y-16345214D02*
X14217881Y-16335690D01*
X14217881Y-16335690D02*
X14198834Y-16307119D01*
X14198834Y-16307119D02*
X14189310Y-16288071D01*
X14189310Y-16288071D02*
X14179786Y-16259500D01*
X14179786Y-16259500D02*
X14170262Y-16211881D01*
X14170262Y-16211881D02*
X14170262Y-16173786D01*
X14170262Y-16173786D02*
X14179786Y-16126167D01*
X14179786Y-16126167D02*
X14189310Y-16097595D01*
X14189310Y-16097595D02*
X14198834Y-16078548D01*
X14198834Y-16078548D02*
X14217881Y-16049976D01*
X14217881Y-16049976D02*
X14227405Y-16040452D01*
X14294072Y-16088071D02*
X14303595Y-16078548D01*
X14303595Y-16078548D02*
X14322643Y-16069024D01*
X14322643Y-16069024D02*
X14370262Y-16069024D01*
X14370262Y-16069024D02*
X14389310Y-16078548D01*
X14389310Y-16078548D02*
X14398834Y-16088071D01*
X14398834Y-16088071D02*
X14408357Y-16107119D01*
X14408357Y-16107119D02*
X14408357Y-16126167D01*
X14408357Y-16126167D02*
X14398834Y-16154738D01*
X14398834Y-16154738D02*
X14284548Y-16269024D01*
X14284548Y-16269024D02*
X14408357Y-16269024D01*
X14646453Y-16269024D02*
X14646453Y-16069024D01*
X14732167Y-16269024D02*
X14732167Y-16164262D01*
X14732167Y-16164262D02*
X14722643Y-16145214D01*
X14722643Y-16145214D02*
X14703596Y-16135690D01*
X14703596Y-16135690D02*
X14675024Y-16135690D01*
X14675024Y-16135690D02*
X14655976Y-16145214D01*
X14655976Y-16145214D02*
X14646453Y-16154738D01*
X14855976Y-16269024D02*
X14836929Y-16259500D01*
X14836929Y-16259500D02*
X14827405Y-16249976D01*
X14827405Y-16249976D02*
X14817881Y-16230928D01*
X14817881Y-16230928D02*
X14817881Y-16173786D01*
X14817881Y-16173786D02*
X14827405Y-16154738D01*
X14827405Y-16154738D02*
X14836929Y-16145214D01*
X14836929Y-16145214D02*
X14855976Y-16135690D01*
X14855976Y-16135690D02*
X14884548Y-16135690D01*
X14884548Y-16135690D02*
X14903596Y-16145214D01*
X14903596Y-16145214D02*
X14913119Y-16154738D01*
X14913119Y-16154738D02*
X14922643Y-16173786D01*
X14922643Y-16173786D02*
X14922643Y-16230928D01*
X14922643Y-16230928D02*
X14913119Y-16249976D01*
X14913119Y-16249976D02*
X14903596Y-16259500D01*
X14903596Y-16259500D02*
X14884548Y-16269024D01*
X14884548Y-16269024D02*
X14855976Y-16269024D01*
X15036929Y-16269024D02*
X15017881Y-16259500D01*
X15017881Y-16259500D02*
X15008357Y-16240452D01*
X15008357Y-16240452D02*
X15008357Y-16069024D01*
X15189310Y-16259500D02*
X15170262Y-16269024D01*
X15170262Y-16269024D02*
X15132167Y-16269024D01*
X15132167Y-16269024D02*
X15113119Y-16259500D01*
X15113119Y-16259500D02*
X15103596Y-16240452D01*
X15103596Y-16240452D02*
X15103596Y-16164262D01*
X15103596Y-16164262D02*
X15113119Y-16145214D01*
X15113119Y-16145214D02*
X15132167Y-16135690D01*
X15132167Y-16135690D02*
X15170262Y-16135690D01*
X15170262Y-16135690D02*
X15189310Y-16145214D01*
X15189310Y-16145214D02*
X15198834Y-16164262D01*
X15198834Y-16164262D02*
X15198834Y-16183309D01*
X15198834Y-16183309D02*
X15103596Y-16202357D01*
X15275024Y-16259500D02*
X15294072Y-16269024D01*
X15294072Y-16269024D02*
X15332167Y-16269024D01*
X15332167Y-16269024D02*
X15351215Y-16259500D01*
X15351215Y-16259500D02*
X15360738Y-16240452D01*
X15360738Y-16240452D02*
X15360738Y-16230928D01*
X15360738Y-16230928D02*
X15351215Y-16211881D01*
X15351215Y-16211881D02*
X15332167Y-16202357D01*
X15332167Y-16202357D02*
X15303596Y-16202357D01*
X15303596Y-16202357D02*
X15284548Y-16192833D01*
X15284548Y-16192833D02*
X15275024Y-16173786D01*
X15275024Y-16173786D02*
X15275024Y-16164262D01*
X15275024Y-16164262D02*
X15284548Y-16145214D01*
X15284548Y-16145214D02*
X15303596Y-16135690D01*
X15303596Y-16135690D02*
X15332167Y-16135690D01*
X15332167Y-16135690D02*
X15351215Y-16145214D01*
X15427405Y-16345214D02*
X15436929Y-16335690D01*
X15436929Y-16335690D02*
X15455977Y-16307119D01*
X15455977Y-16307119D02*
X15465500Y-16288071D01*
X15465500Y-16288071D02*
X15475024Y-16259500D01*
X15475024Y-16259500D02*
X15484548Y-16211881D01*
X15484548Y-16211881D02*
X15484548Y-16173786D01*
X15484548Y-16173786D02*
X15475024Y-16126167D01*
X15475024Y-16126167D02*
X15465500Y-16097595D01*
X15465500Y-16097595D02*
X15455977Y-16078548D01*
X15455977Y-16078548D02*
X15436929Y-16049976D01*
X15436929Y-16049976D02*
X15427405Y-16040452D01*
D15*
X10570500Y-16393000D02*
X10665500Y-16488000D01*
X10665500Y-16393000D02*
X10570500Y-16488000D01*
X10665500Y-16440500D02*
G75*
G03*
X10665500Y-16440500I-47500J0D01*
G01*
D11*
X10951214Y-16333024D02*
X10970262Y-16333024D01*
X10970262Y-16333024D02*
X10989310Y-16342548D01*
X10989310Y-16342548D02*
X10998833Y-16352071D01*
X10998833Y-16352071D02*
X11008357Y-16371119D01*
X11008357Y-16371119D02*
X11017881Y-16409214D01*
X11017881Y-16409214D02*
X11017881Y-16456833D01*
X11017881Y-16456833D02*
X11008357Y-16494928D01*
X11008357Y-16494928D02*
X10998833Y-16513976D01*
X10998833Y-16513976D02*
X10989310Y-16523500D01*
X10989310Y-16523500D02*
X10970262Y-16533024D01*
X10970262Y-16533024D02*
X10951214Y-16533024D01*
X10951214Y-16533024D02*
X10932167Y-16523500D01*
X10932167Y-16523500D02*
X10922643Y-16513976D01*
X10922643Y-16513976D02*
X10913119Y-16494928D01*
X10913119Y-16494928D02*
X10903595Y-16456833D01*
X10903595Y-16456833D02*
X10903595Y-16409214D01*
X10903595Y-16409214D02*
X10913119Y-16371119D01*
X10913119Y-16371119D02*
X10922643Y-16352071D01*
X10922643Y-16352071D02*
X10932167Y-16342548D01*
X10932167Y-16342548D02*
X10951214Y-16333024D01*
X11103595Y-16513976D02*
X11113119Y-16523500D01*
X11113119Y-16523500D02*
X11103595Y-16533024D01*
X11103595Y-16533024D02*
X11094071Y-16523500D01*
X11094071Y-16523500D02*
X11103595Y-16513976D01*
X11103595Y-16513976D02*
X11103595Y-16533024D01*
X11208357Y-16533024D02*
X11246452Y-16533024D01*
X11246452Y-16533024D02*
X11265500Y-16523500D01*
X11265500Y-16523500D02*
X11275024Y-16513976D01*
X11275024Y-16513976D02*
X11294071Y-16485405D01*
X11294071Y-16485405D02*
X11303595Y-16447309D01*
X11303595Y-16447309D02*
X11303595Y-16371119D01*
X11303595Y-16371119D02*
X11294071Y-16352071D01*
X11294071Y-16352071D02*
X11284548Y-16342548D01*
X11284548Y-16342548D02*
X11265500Y-16333024D01*
X11265500Y-16333024D02*
X11227405Y-16333024D01*
X11227405Y-16333024D02*
X11208357Y-16342548D01*
X11208357Y-16342548D02*
X11198833Y-16352071D01*
X11198833Y-16352071D02*
X11189309Y-16371119D01*
X11189309Y-16371119D02*
X11189309Y-16418738D01*
X11189309Y-16418738D02*
X11198833Y-16437786D01*
X11198833Y-16437786D02*
X11208357Y-16447309D01*
X11208357Y-16447309D02*
X11227405Y-16456833D01*
X11227405Y-16456833D02*
X11265500Y-16456833D01*
X11265500Y-16456833D02*
X11284548Y-16447309D01*
X11284548Y-16447309D02*
X11294071Y-16437786D01*
X11294071Y-16437786D02*
X11303595Y-16418738D01*
X11484548Y-16333024D02*
X11389309Y-16333024D01*
X11389309Y-16333024D02*
X11379786Y-16428262D01*
X11379786Y-16428262D02*
X11389309Y-16418738D01*
X11389309Y-16418738D02*
X11408357Y-16409214D01*
X11408357Y-16409214D02*
X11455976Y-16409214D01*
X11455976Y-16409214D02*
X11475024Y-16418738D01*
X11475024Y-16418738D02*
X11484548Y-16428262D01*
X11484548Y-16428262D02*
X11494071Y-16447309D01*
X11494071Y-16447309D02*
X11494071Y-16494928D01*
X11494071Y-16494928D02*
X11484548Y-16513976D01*
X11484548Y-16513976D02*
X11475024Y-16523500D01*
X11475024Y-16523500D02*
X11455976Y-16533024D01*
X11455976Y-16533024D02*
X11408357Y-16533024D01*
X11408357Y-16533024D02*
X11389309Y-16523500D01*
X11389309Y-16523500D02*
X11379786Y-16513976D01*
X11617881Y-16333024D02*
X11636929Y-16333024D01*
X11636929Y-16333024D02*
X11655976Y-16342548D01*
X11655976Y-16342548D02*
X11665500Y-16352071D01*
X11665500Y-16352071D02*
X11675024Y-16371119D01*
X11675024Y-16371119D02*
X11684548Y-16409214D01*
X11684548Y-16409214D02*
X11684548Y-16456833D01*
X11684548Y-16456833D02*
X11675024Y-16494928D01*
X11675024Y-16494928D02*
X11665500Y-16513976D01*
X11665500Y-16513976D02*
X11655976Y-16523500D01*
X11655976Y-16523500D02*
X11636929Y-16533024D01*
X11636929Y-16533024D02*
X11617881Y-16533024D01*
X11617881Y-16533024D02*
X11598833Y-16523500D01*
X11598833Y-16523500D02*
X11589309Y-16513976D01*
X11589309Y-16513976D02*
X11579786Y-16494928D01*
X11579786Y-16494928D02*
X11570262Y-16456833D01*
X11570262Y-16456833D02*
X11570262Y-16409214D01*
X11570262Y-16409214D02*
X11579786Y-16371119D01*
X11579786Y-16371119D02*
X11589309Y-16352071D01*
X11589309Y-16352071D02*
X11598833Y-16342548D01*
X11598833Y-16342548D02*
X11617881Y-16333024D01*
X11770262Y-16533024D02*
X11770262Y-16399690D01*
X11770262Y-16418738D02*
X11779786Y-16409214D01*
X11779786Y-16409214D02*
X11798833Y-16399690D01*
X11798833Y-16399690D02*
X11827405Y-16399690D01*
X11827405Y-16399690D02*
X11846452Y-16409214D01*
X11846452Y-16409214D02*
X11855976Y-16428262D01*
X11855976Y-16428262D02*
X11855976Y-16533024D01*
X11855976Y-16428262D02*
X11865500Y-16409214D01*
X11865500Y-16409214D02*
X11884548Y-16399690D01*
X11884548Y-16399690D02*
X11913119Y-16399690D01*
X11913119Y-16399690D02*
X11932167Y-16409214D01*
X11932167Y-16409214D02*
X11941690Y-16428262D01*
X11941690Y-16428262D02*
X11941690Y-16533024D01*
X12036929Y-16533024D02*
X12036929Y-16399690D01*
X12036929Y-16418738D02*
X12046452Y-16409214D01*
X12046452Y-16409214D02*
X12065500Y-16399690D01*
X12065500Y-16399690D02*
X12094071Y-16399690D01*
X12094071Y-16399690D02*
X12113119Y-16409214D01*
X12113119Y-16409214D02*
X12122643Y-16428262D01*
X12122643Y-16428262D02*
X12122643Y-16533024D01*
X12122643Y-16428262D02*
X12132167Y-16409214D01*
X12132167Y-16409214D02*
X12151214Y-16399690D01*
X12151214Y-16399690D02*
X12179786Y-16399690D01*
X12179786Y-16399690D02*
X12198833Y-16409214D01*
X12198833Y-16409214D02*
X12208357Y-16428262D01*
X12208357Y-16428262D02*
X12208357Y-16533024D01*
X12598833Y-16323500D02*
X12427405Y-16580643D01*
X12855976Y-16333024D02*
X12875024Y-16333024D01*
X12875024Y-16333024D02*
X12894072Y-16342548D01*
X12894072Y-16342548D02*
X12903595Y-16352071D01*
X12903595Y-16352071D02*
X12913119Y-16371119D01*
X12913119Y-16371119D02*
X12922643Y-16409214D01*
X12922643Y-16409214D02*
X12922643Y-16456833D01*
X12922643Y-16456833D02*
X12913119Y-16494928D01*
X12913119Y-16494928D02*
X12903595Y-16513976D01*
X12903595Y-16513976D02*
X12894072Y-16523500D01*
X12894072Y-16523500D02*
X12875024Y-16533024D01*
X12875024Y-16533024D02*
X12855976Y-16533024D01*
X12855976Y-16533024D02*
X12836929Y-16523500D01*
X12836929Y-16523500D02*
X12827405Y-16513976D01*
X12827405Y-16513976D02*
X12817881Y-16494928D01*
X12817881Y-16494928D02*
X12808357Y-16456833D01*
X12808357Y-16456833D02*
X12808357Y-16409214D01*
X12808357Y-16409214D02*
X12817881Y-16371119D01*
X12817881Y-16371119D02*
X12827405Y-16352071D01*
X12827405Y-16352071D02*
X12836929Y-16342548D01*
X12836929Y-16342548D02*
X12855976Y-16333024D01*
X13008357Y-16513976D02*
X13017881Y-16523500D01*
X13017881Y-16523500D02*
X13008357Y-16533024D01*
X13008357Y-16533024D02*
X12998833Y-16523500D01*
X12998833Y-16523500D02*
X13008357Y-16513976D01*
X13008357Y-16513976D02*
X13008357Y-16533024D01*
X13141691Y-16333024D02*
X13160738Y-16333024D01*
X13160738Y-16333024D02*
X13179786Y-16342548D01*
X13179786Y-16342548D02*
X13189310Y-16352071D01*
X13189310Y-16352071D02*
X13198833Y-16371119D01*
X13198833Y-16371119D02*
X13208357Y-16409214D01*
X13208357Y-16409214D02*
X13208357Y-16456833D01*
X13208357Y-16456833D02*
X13198833Y-16494928D01*
X13198833Y-16494928D02*
X13189310Y-16513976D01*
X13189310Y-16513976D02*
X13179786Y-16523500D01*
X13179786Y-16523500D02*
X13160738Y-16533024D01*
X13160738Y-16533024D02*
X13141691Y-16533024D01*
X13141691Y-16533024D02*
X13122643Y-16523500D01*
X13122643Y-16523500D02*
X13113119Y-16513976D01*
X13113119Y-16513976D02*
X13103595Y-16494928D01*
X13103595Y-16494928D02*
X13094072Y-16456833D01*
X13094072Y-16456833D02*
X13094072Y-16409214D01*
X13094072Y-16409214D02*
X13103595Y-16371119D01*
X13103595Y-16371119D02*
X13113119Y-16352071D01*
X13113119Y-16352071D02*
X13122643Y-16342548D01*
X13122643Y-16342548D02*
X13141691Y-16333024D01*
X13275024Y-16333024D02*
X13398833Y-16333024D01*
X13398833Y-16333024D02*
X13332167Y-16409214D01*
X13332167Y-16409214D02*
X13360738Y-16409214D01*
X13360738Y-16409214D02*
X13379786Y-16418738D01*
X13379786Y-16418738D02*
X13389310Y-16428262D01*
X13389310Y-16428262D02*
X13398833Y-16447309D01*
X13398833Y-16447309D02*
X13398833Y-16494928D01*
X13398833Y-16494928D02*
X13389310Y-16513976D01*
X13389310Y-16513976D02*
X13379786Y-16523500D01*
X13379786Y-16523500D02*
X13360738Y-16533024D01*
X13360738Y-16533024D02*
X13303595Y-16533024D01*
X13303595Y-16533024D02*
X13284548Y-16523500D01*
X13284548Y-16523500D02*
X13275024Y-16513976D01*
X13465500Y-16333024D02*
X13598833Y-16333024D01*
X13598833Y-16333024D02*
X13513119Y-16533024D01*
X13760738Y-16399690D02*
X13760738Y-16533024D01*
X13713119Y-16323500D02*
X13665500Y-16466357D01*
X13665500Y-16466357D02*
X13789310Y-16466357D01*
X13855976Y-16333024D02*
X13855976Y-16371119D01*
X13932167Y-16333024D02*
X13932167Y-16371119D01*
X14227405Y-16609214D02*
X14217881Y-16599690D01*
X14217881Y-16599690D02*
X14198834Y-16571119D01*
X14198834Y-16571119D02*
X14189310Y-16552071D01*
X14189310Y-16552071D02*
X14179786Y-16523500D01*
X14179786Y-16523500D02*
X14170262Y-16475881D01*
X14170262Y-16475881D02*
X14170262Y-16437786D01*
X14170262Y-16437786D02*
X14179786Y-16390167D01*
X14179786Y-16390167D02*
X14189310Y-16361595D01*
X14189310Y-16361595D02*
X14198834Y-16342548D01*
X14198834Y-16342548D02*
X14217881Y-16313976D01*
X14217881Y-16313976D02*
X14227405Y-16304452D01*
X14389310Y-16333024D02*
X14351214Y-16333024D01*
X14351214Y-16333024D02*
X14332167Y-16342548D01*
X14332167Y-16342548D02*
X14322643Y-16352071D01*
X14322643Y-16352071D02*
X14303595Y-16380643D01*
X14303595Y-16380643D02*
X14294072Y-16418738D01*
X14294072Y-16418738D02*
X14294072Y-16494928D01*
X14294072Y-16494928D02*
X14303595Y-16513976D01*
X14303595Y-16513976D02*
X14313119Y-16523500D01*
X14313119Y-16523500D02*
X14332167Y-16533024D01*
X14332167Y-16533024D02*
X14370262Y-16533024D01*
X14370262Y-16533024D02*
X14389310Y-16523500D01*
X14389310Y-16523500D02*
X14398834Y-16513976D01*
X14398834Y-16513976D02*
X14408357Y-16494928D01*
X14408357Y-16494928D02*
X14408357Y-16447309D01*
X14408357Y-16447309D02*
X14398834Y-16428262D01*
X14398834Y-16428262D02*
X14389310Y-16418738D01*
X14389310Y-16418738D02*
X14370262Y-16409214D01*
X14370262Y-16409214D02*
X14332167Y-16409214D01*
X14332167Y-16409214D02*
X14313119Y-16418738D01*
X14313119Y-16418738D02*
X14303595Y-16428262D01*
X14303595Y-16428262D02*
X14294072Y-16447309D01*
X14646453Y-16533024D02*
X14646453Y-16333024D01*
X14732167Y-16533024D02*
X14732167Y-16428262D01*
X14732167Y-16428262D02*
X14722643Y-16409214D01*
X14722643Y-16409214D02*
X14703596Y-16399690D01*
X14703596Y-16399690D02*
X14675024Y-16399690D01*
X14675024Y-16399690D02*
X14655976Y-16409214D01*
X14655976Y-16409214D02*
X14646453Y-16418738D01*
X14855976Y-16533024D02*
X14836929Y-16523500D01*
X14836929Y-16523500D02*
X14827405Y-16513976D01*
X14827405Y-16513976D02*
X14817881Y-16494928D01*
X14817881Y-16494928D02*
X14817881Y-16437786D01*
X14817881Y-16437786D02*
X14827405Y-16418738D01*
X14827405Y-16418738D02*
X14836929Y-16409214D01*
X14836929Y-16409214D02*
X14855976Y-16399690D01*
X14855976Y-16399690D02*
X14884548Y-16399690D01*
X14884548Y-16399690D02*
X14903596Y-16409214D01*
X14903596Y-16409214D02*
X14913119Y-16418738D01*
X14913119Y-16418738D02*
X14922643Y-16437786D01*
X14922643Y-16437786D02*
X14922643Y-16494928D01*
X14922643Y-16494928D02*
X14913119Y-16513976D01*
X14913119Y-16513976D02*
X14903596Y-16523500D01*
X14903596Y-16523500D02*
X14884548Y-16533024D01*
X14884548Y-16533024D02*
X14855976Y-16533024D01*
X15036929Y-16533024D02*
X15017881Y-16523500D01*
X15017881Y-16523500D02*
X15008357Y-16504452D01*
X15008357Y-16504452D02*
X15008357Y-16333024D01*
X15189310Y-16523500D02*
X15170262Y-16533024D01*
X15170262Y-16533024D02*
X15132167Y-16533024D01*
X15132167Y-16533024D02*
X15113119Y-16523500D01*
X15113119Y-16523500D02*
X15103596Y-16504452D01*
X15103596Y-16504452D02*
X15103596Y-16428262D01*
X15103596Y-16428262D02*
X15113119Y-16409214D01*
X15113119Y-16409214D02*
X15132167Y-16399690D01*
X15132167Y-16399690D02*
X15170262Y-16399690D01*
X15170262Y-16399690D02*
X15189310Y-16409214D01*
X15189310Y-16409214D02*
X15198834Y-16428262D01*
X15198834Y-16428262D02*
X15198834Y-16447309D01*
X15198834Y-16447309D02*
X15103596Y-16466357D01*
X15275024Y-16523500D02*
X15294072Y-16533024D01*
X15294072Y-16533024D02*
X15332167Y-16533024D01*
X15332167Y-16533024D02*
X15351215Y-16523500D01*
X15351215Y-16523500D02*
X15360738Y-16504452D01*
X15360738Y-16504452D02*
X15360738Y-16494928D01*
X15360738Y-16494928D02*
X15351215Y-16475881D01*
X15351215Y-16475881D02*
X15332167Y-16466357D01*
X15332167Y-16466357D02*
X15303596Y-16466357D01*
X15303596Y-16466357D02*
X15284548Y-16456833D01*
X15284548Y-16456833D02*
X15275024Y-16437786D01*
X15275024Y-16437786D02*
X15275024Y-16428262D01*
X15275024Y-16428262D02*
X15284548Y-16409214D01*
X15284548Y-16409214D02*
X15303596Y-16399690D01*
X15303596Y-16399690D02*
X15332167Y-16399690D01*
X15332167Y-16399690D02*
X15351215Y-16409214D01*
X15427405Y-16609214D02*
X15436929Y-16599690D01*
X15436929Y-16599690D02*
X15455977Y-16571119D01*
X15455977Y-16571119D02*
X15465500Y-16552071D01*
X15465500Y-16552071D02*
X15475024Y-16523500D01*
X15475024Y-16523500D02*
X15484548Y-16475881D01*
X15484548Y-16475881D02*
X15484548Y-16437786D01*
X15484548Y-16437786D02*
X15475024Y-16390167D01*
X15475024Y-16390167D02*
X15465500Y-16361595D01*
X15465500Y-16361595D02*
X15455977Y-16342548D01*
X15455977Y-16342548D02*
X15436929Y-16313976D01*
X15436929Y-16313976D02*
X15427405Y-16304452D01*
D16*
X10565500Y-16654500D02*
X10665500Y-16754500D01*
X10665500Y-16654500D02*
X10565500Y-16754500D01*
X10615500Y-16654500D02*
X10615500Y-16754500D01*
X10565500Y-16704500D02*
X10665500Y-16704500D01*
D11*
X11017881Y-16797024D02*
X10903595Y-16797024D01*
X10960738Y-16797024D02*
X10960738Y-16597024D01*
X10960738Y-16597024D02*
X10941690Y-16625595D01*
X10941690Y-16625595D02*
X10922643Y-16644643D01*
X10922643Y-16644643D02*
X10903595Y-16654167D01*
X11103595Y-16777976D02*
X11113119Y-16787500D01*
X11113119Y-16787500D02*
X11103595Y-16797024D01*
X11103595Y-16797024D02*
X11094071Y-16787500D01*
X11094071Y-16787500D02*
X11103595Y-16777976D01*
X11103595Y-16777976D02*
X11103595Y-16797024D01*
X11236928Y-16597024D02*
X11255976Y-16597024D01*
X11255976Y-16597024D02*
X11275024Y-16606548D01*
X11275024Y-16606548D02*
X11284548Y-16616071D01*
X11284548Y-16616071D02*
X11294071Y-16635119D01*
X11294071Y-16635119D02*
X11303595Y-16673214D01*
X11303595Y-16673214D02*
X11303595Y-16720833D01*
X11303595Y-16720833D02*
X11294071Y-16758928D01*
X11294071Y-16758928D02*
X11284548Y-16777976D01*
X11284548Y-16777976D02*
X11275024Y-16787500D01*
X11275024Y-16787500D02*
X11255976Y-16797024D01*
X11255976Y-16797024D02*
X11236928Y-16797024D01*
X11236928Y-16797024D02*
X11217881Y-16787500D01*
X11217881Y-16787500D02*
X11208357Y-16777976D01*
X11208357Y-16777976D02*
X11198833Y-16758928D01*
X11198833Y-16758928D02*
X11189309Y-16720833D01*
X11189309Y-16720833D02*
X11189309Y-16673214D01*
X11189309Y-16673214D02*
X11198833Y-16635119D01*
X11198833Y-16635119D02*
X11208357Y-16616071D01*
X11208357Y-16616071D02*
X11217881Y-16606548D01*
X11217881Y-16606548D02*
X11236928Y-16597024D01*
X11427405Y-16597024D02*
X11446452Y-16597024D01*
X11446452Y-16597024D02*
X11465500Y-16606548D01*
X11465500Y-16606548D02*
X11475024Y-16616071D01*
X11475024Y-16616071D02*
X11484548Y-16635119D01*
X11484548Y-16635119D02*
X11494071Y-16673214D01*
X11494071Y-16673214D02*
X11494071Y-16720833D01*
X11494071Y-16720833D02*
X11484548Y-16758928D01*
X11484548Y-16758928D02*
X11475024Y-16777976D01*
X11475024Y-16777976D02*
X11465500Y-16787500D01*
X11465500Y-16787500D02*
X11446452Y-16797024D01*
X11446452Y-16797024D02*
X11427405Y-16797024D01*
X11427405Y-16797024D02*
X11408357Y-16787500D01*
X11408357Y-16787500D02*
X11398833Y-16777976D01*
X11398833Y-16777976D02*
X11389309Y-16758928D01*
X11389309Y-16758928D02*
X11379786Y-16720833D01*
X11379786Y-16720833D02*
X11379786Y-16673214D01*
X11379786Y-16673214D02*
X11389309Y-16635119D01*
X11389309Y-16635119D02*
X11398833Y-16616071D01*
X11398833Y-16616071D02*
X11408357Y-16606548D01*
X11408357Y-16606548D02*
X11427405Y-16597024D01*
X11617881Y-16597024D02*
X11636929Y-16597024D01*
X11636929Y-16597024D02*
X11655976Y-16606548D01*
X11655976Y-16606548D02*
X11665500Y-16616071D01*
X11665500Y-16616071D02*
X11675024Y-16635119D01*
X11675024Y-16635119D02*
X11684548Y-16673214D01*
X11684548Y-16673214D02*
X11684548Y-16720833D01*
X11684548Y-16720833D02*
X11675024Y-16758928D01*
X11675024Y-16758928D02*
X11665500Y-16777976D01*
X11665500Y-16777976D02*
X11655976Y-16787500D01*
X11655976Y-16787500D02*
X11636929Y-16797024D01*
X11636929Y-16797024D02*
X11617881Y-16797024D01*
X11617881Y-16797024D02*
X11598833Y-16787500D01*
X11598833Y-16787500D02*
X11589309Y-16777976D01*
X11589309Y-16777976D02*
X11579786Y-16758928D01*
X11579786Y-16758928D02*
X11570262Y-16720833D01*
X11570262Y-16720833D02*
X11570262Y-16673214D01*
X11570262Y-16673214D02*
X11579786Y-16635119D01*
X11579786Y-16635119D02*
X11589309Y-16616071D01*
X11589309Y-16616071D02*
X11598833Y-16606548D01*
X11598833Y-16606548D02*
X11617881Y-16597024D01*
X11770262Y-16797024D02*
X11770262Y-16663690D01*
X11770262Y-16682738D02*
X11779786Y-16673214D01*
X11779786Y-16673214D02*
X11798833Y-16663690D01*
X11798833Y-16663690D02*
X11827405Y-16663690D01*
X11827405Y-16663690D02*
X11846452Y-16673214D01*
X11846452Y-16673214D02*
X11855976Y-16692262D01*
X11855976Y-16692262D02*
X11855976Y-16797024D01*
X11855976Y-16692262D02*
X11865500Y-16673214D01*
X11865500Y-16673214D02*
X11884548Y-16663690D01*
X11884548Y-16663690D02*
X11913119Y-16663690D01*
X11913119Y-16663690D02*
X11932167Y-16673214D01*
X11932167Y-16673214D02*
X11941690Y-16692262D01*
X11941690Y-16692262D02*
X11941690Y-16797024D01*
X12036929Y-16797024D02*
X12036929Y-16663690D01*
X12036929Y-16682738D02*
X12046452Y-16673214D01*
X12046452Y-16673214D02*
X12065500Y-16663690D01*
X12065500Y-16663690D02*
X12094071Y-16663690D01*
X12094071Y-16663690D02*
X12113119Y-16673214D01*
X12113119Y-16673214D02*
X12122643Y-16692262D01*
X12122643Y-16692262D02*
X12122643Y-16797024D01*
X12122643Y-16692262D02*
X12132167Y-16673214D01*
X12132167Y-16673214D02*
X12151214Y-16663690D01*
X12151214Y-16663690D02*
X12179786Y-16663690D01*
X12179786Y-16663690D02*
X12198833Y-16673214D01*
X12198833Y-16673214D02*
X12208357Y-16692262D01*
X12208357Y-16692262D02*
X12208357Y-16797024D01*
X12598833Y-16587500D02*
X12427405Y-16844643D01*
X12855976Y-16597024D02*
X12875024Y-16597024D01*
X12875024Y-16597024D02*
X12894072Y-16606548D01*
X12894072Y-16606548D02*
X12903595Y-16616071D01*
X12903595Y-16616071D02*
X12913119Y-16635119D01*
X12913119Y-16635119D02*
X12922643Y-16673214D01*
X12922643Y-16673214D02*
X12922643Y-16720833D01*
X12922643Y-16720833D02*
X12913119Y-16758928D01*
X12913119Y-16758928D02*
X12903595Y-16777976D01*
X12903595Y-16777976D02*
X12894072Y-16787500D01*
X12894072Y-16787500D02*
X12875024Y-16797024D01*
X12875024Y-16797024D02*
X12855976Y-16797024D01*
X12855976Y-16797024D02*
X12836929Y-16787500D01*
X12836929Y-16787500D02*
X12827405Y-16777976D01*
X12827405Y-16777976D02*
X12817881Y-16758928D01*
X12817881Y-16758928D02*
X12808357Y-16720833D01*
X12808357Y-16720833D02*
X12808357Y-16673214D01*
X12808357Y-16673214D02*
X12817881Y-16635119D01*
X12817881Y-16635119D02*
X12827405Y-16616071D01*
X12827405Y-16616071D02*
X12836929Y-16606548D01*
X12836929Y-16606548D02*
X12855976Y-16597024D01*
X13008357Y-16777976D02*
X13017881Y-16787500D01*
X13017881Y-16787500D02*
X13008357Y-16797024D01*
X13008357Y-16797024D02*
X12998833Y-16787500D01*
X12998833Y-16787500D02*
X13008357Y-16777976D01*
X13008357Y-16777976D02*
X13008357Y-16797024D01*
X13141691Y-16597024D02*
X13160738Y-16597024D01*
X13160738Y-16597024D02*
X13179786Y-16606548D01*
X13179786Y-16606548D02*
X13189310Y-16616071D01*
X13189310Y-16616071D02*
X13198833Y-16635119D01*
X13198833Y-16635119D02*
X13208357Y-16673214D01*
X13208357Y-16673214D02*
X13208357Y-16720833D01*
X13208357Y-16720833D02*
X13198833Y-16758928D01*
X13198833Y-16758928D02*
X13189310Y-16777976D01*
X13189310Y-16777976D02*
X13179786Y-16787500D01*
X13179786Y-16787500D02*
X13160738Y-16797024D01*
X13160738Y-16797024D02*
X13141691Y-16797024D01*
X13141691Y-16797024D02*
X13122643Y-16787500D01*
X13122643Y-16787500D02*
X13113119Y-16777976D01*
X13113119Y-16777976D02*
X13103595Y-16758928D01*
X13103595Y-16758928D02*
X13094072Y-16720833D01*
X13094072Y-16720833D02*
X13094072Y-16673214D01*
X13094072Y-16673214D02*
X13103595Y-16635119D01*
X13103595Y-16635119D02*
X13113119Y-16616071D01*
X13113119Y-16616071D02*
X13122643Y-16606548D01*
X13122643Y-16606548D02*
X13141691Y-16597024D01*
X13275024Y-16597024D02*
X13398833Y-16597024D01*
X13398833Y-16597024D02*
X13332167Y-16673214D01*
X13332167Y-16673214D02*
X13360738Y-16673214D01*
X13360738Y-16673214D02*
X13379786Y-16682738D01*
X13379786Y-16682738D02*
X13389310Y-16692262D01*
X13389310Y-16692262D02*
X13398833Y-16711309D01*
X13398833Y-16711309D02*
X13398833Y-16758928D01*
X13398833Y-16758928D02*
X13389310Y-16777976D01*
X13389310Y-16777976D02*
X13379786Y-16787500D01*
X13379786Y-16787500D02*
X13360738Y-16797024D01*
X13360738Y-16797024D02*
X13303595Y-16797024D01*
X13303595Y-16797024D02*
X13284548Y-16787500D01*
X13284548Y-16787500D02*
X13275024Y-16777976D01*
X13494072Y-16797024D02*
X13532167Y-16797024D01*
X13532167Y-16797024D02*
X13551214Y-16787500D01*
X13551214Y-16787500D02*
X13560738Y-16777976D01*
X13560738Y-16777976D02*
X13579786Y-16749405D01*
X13579786Y-16749405D02*
X13589310Y-16711309D01*
X13589310Y-16711309D02*
X13589310Y-16635119D01*
X13589310Y-16635119D02*
X13579786Y-16616071D01*
X13579786Y-16616071D02*
X13570262Y-16606548D01*
X13570262Y-16606548D02*
X13551214Y-16597024D01*
X13551214Y-16597024D02*
X13513119Y-16597024D01*
X13513119Y-16597024D02*
X13494072Y-16606548D01*
X13494072Y-16606548D02*
X13484548Y-16616071D01*
X13484548Y-16616071D02*
X13475024Y-16635119D01*
X13475024Y-16635119D02*
X13475024Y-16682738D01*
X13475024Y-16682738D02*
X13484548Y-16701786D01*
X13484548Y-16701786D02*
X13494072Y-16711309D01*
X13494072Y-16711309D02*
X13513119Y-16720833D01*
X13513119Y-16720833D02*
X13551214Y-16720833D01*
X13551214Y-16720833D02*
X13570262Y-16711309D01*
X13570262Y-16711309D02*
X13579786Y-16701786D01*
X13579786Y-16701786D02*
X13589310Y-16682738D01*
X13760738Y-16663690D02*
X13760738Y-16797024D01*
X13713119Y-16587500D02*
X13665500Y-16730357D01*
X13665500Y-16730357D02*
X13789310Y-16730357D01*
X13855976Y-16597024D02*
X13855976Y-16635119D01*
X13932167Y-16597024D02*
X13932167Y-16635119D01*
X14227405Y-16873214D02*
X14217881Y-16863690D01*
X14217881Y-16863690D02*
X14198834Y-16835119D01*
X14198834Y-16835119D02*
X14189310Y-16816071D01*
X14189310Y-16816071D02*
X14179786Y-16787500D01*
X14179786Y-16787500D02*
X14170262Y-16739881D01*
X14170262Y-16739881D02*
X14170262Y-16701786D01*
X14170262Y-16701786D02*
X14179786Y-16654167D01*
X14179786Y-16654167D02*
X14189310Y-16625595D01*
X14189310Y-16625595D02*
X14198834Y-16606548D01*
X14198834Y-16606548D02*
X14217881Y-16577976D01*
X14217881Y-16577976D02*
X14227405Y-16568452D01*
X14294072Y-16616071D02*
X14303595Y-16606548D01*
X14303595Y-16606548D02*
X14322643Y-16597024D01*
X14322643Y-16597024D02*
X14370262Y-16597024D01*
X14370262Y-16597024D02*
X14389310Y-16606548D01*
X14389310Y-16606548D02*
X14398834Y-16616071D01*
X14398834Y-16616071D02*
X14408357Y-16635119D01*
X14408357Y-16635119D02*
X14408357Y-16654167D01*
X14408357Y-16654167D02*
X14398834Y-16682738D01*
X14398834Y-16682738D02*
X14284548Y-16797024D01*
X14284548Y-16797024D02*
X14408357Y-16797024D01*
X14646453Y-16797024D02*
X14646453Y-16597024D01*
X14732167Y-16797024D02*
X14732167Y-16692262D01*
X14732167Y-16692262D02*
X14722643Y-16673214D01*
X14722643Y-16673214D02*
X14703596Y-16663690D01*
X14703596Y-16663690D02*
X14675024Y-16663690D01*
X14675024Y-16663690D02*
X14655976Y-16673214D01*
X14655976Y-16673214D02*
X14646453Y-16682738D01*
X14855976Y-16797024D02*
X14836929Y-16787500D01*
X14836929Y-16787500D02*
X14827405Y-16777976D01*
X14827405Y-16777976D02*
X14817881Y-16758928D01*
X14817881Y-16758928D02*
X14817881Y-16701786D01*
X14817881Y-16701786D02*
X14827405Y-16682738D01*
X14827405Y-16682738D02*
X14836929Y-16673214D01*
X14836929Y-16673214D02*
X14855976Y-16663690D01*
X14855976Y-16663690D02*
X14884548Y-16663690D01*
X14884548Y-16663690D02*
X14903596Y-16673214D01*
X14903596Y-16673214D02*
X14913119Y-16682738D01*
X14913119Y-16682738D02*
X14922643Y-16701786D01*
X14922643Y-16701786D02*
X14922643Y-16758928D01*
X14922643Y-16758928D02*
X14913119Y-16777976D01*
X14913119Y-16777976D02*
X14903596Y-16787500D01*
X14903596Y-16787500D02*
X14884548Y-16797024D01*
X14884548Y-16797024D02*
X14855976Y-16797024D01*
X15036929Y-16797024D02*
X15017881Y-16787500D01*
X15017881Y-16787500D02*
X15008357Y-16768452D01*
X15008357Y-16768452D02*
X15008357Y-16597024D01*
X15189310Y-16787500D02*
X15170262Y-16797024D01*
X15170262Y-16797024D02*
X15132167Y-16797024D01*
X15132167Y-16797024D02*
X15113119Y-16787500D01*
X15113119Y-16787500D02*
X15103596Y-16768452D01*
X15103596Y-16768452D02*
X15103596Y-16692262D01*
X15103596Y-16692262D02*
X15113119Y-16673214D01*
X15113119Y-16673214D02*
X15132167Y-16663690D01*
X15132167Y-16663690D02*
X15170262Y-16663690D01*
X15170262Y-16663690D02*
X15189310Y-16673214D01*
X15189310Y-16673214D02*
X15198834Y-16692262D01*
X15198834Y-16692262D02*
X15198834Y-16711309D01*
X15198834Y-16711309D02*
X15103596Y-16730357D01*
X15275024Y-16787500D02*
X15294072Y-16797024D01*
X15294072Y-16797024D02*
X15332167Y-16797024D01*
X15332167Y-16797024D02*
X15351215Y-16787500D01*
X15351215Y-16787500D02*
X15360738Y-16768452D01*
X15360738Y-16768452D02*
X15360738Y-16758928D01*
X15360738Y-16758928D02*
X15351215Y-16739881D01*
X15351215Y-16739881D02*
X15332167Y-16730357D01*
X15332167Y-16730357D02*
X15303596Y-16730357D01*
X15303596Y-16730357D02*
X15284548Y-16720833D01*
X15284548Y-16720833D02*
X15275024Y-16701786D01*
X15275024Y-16701786D02*
X15275024Y-16692262D01*
X15275024Y-16692262D02*
X15284548Y-16673214D01*
X15284548Y-16673214D02*
X15303596Y-16663690D01*
X15303596Y-16663690D02*
X15332167Y-16663690D01*
X15332167Y-16663690D02*
X15351215Y-16673214D01*
X15427405Y-16873214D02*
X15436929Y-16863690D01*
X15436929Y-16863690D02*
X15455977Y-16835119D01*
X15455977Y-16835119D02*
X15465500Y-16816071D01*
X15465500Y-16816071D02*
X15475024Y-16787500D01*
X15475024Y-16787500D02*
X15484548Y-16739881D01*
X15484548Y-16739881D02*
X15484548Y-16701786D01*
X15484548Y-16701786D02*
X15475024Y-16654167D01*
X15475024Y-16654167D02*
X15465500Y-16625595D01*
X15465500Y-16625595D02*
X15455977Y-16606548D01*
X15455977Y-16606548D02*
X15436929Y-16577976D01*
X15436929Y-16577976D02*
X15427405Y-16568452D01*
D17*
X10545500Y-16908500D02*
X10665500Y-17028500D01*
X10665500Y-16908500D02*
X10545500Y-17028500D01*
X10647927Y-17010927D02*
X10647927Y-16926073D01*
X10563073Y-16926073D01*
X10563073Y-17010927D01*
X10647927Y-17010927D01*
D11*
X11017881Y-17061024D02*
X10903595Y-17061024D01*
X10960738Y-17061024D02*
X10960738Y-16861024D01*
X10960738Y-16861024D02*
X10941690Y-16889595D01*
X10941690Y-16889595D02*
X10922643Y-16908643D01*
X10922643Y-16908643D02*
X10903595Y-16918167D01*
X11103595Y-17041976D02*
X11113119Y-17051500D01*
X11113119Y-17051500D02*
X11103595Y-17061024D01*
X11103595Y-17061024D02*
X11094071Y-17051500D01*
X11094071Y-17051500D02*
X11103595Y-17041976D01*
X11103595Y-17041976D02*
X11103595Y-17061024D01*
X11189309Y-16880071D02*
X11198833Y-16870548D01*
X11198833Y-16870548D02*
X11217881Y-16861024D01*
X11217881Y-16861024D02*
X11265500Y-16861024D01*
X11265500Y-16861024D02*
X11284548Y-16870548D01*
X11284548Y-16870548D02*
X11294071Y-16880071D01*
X11294071Y-16880071D02*
X11303595Y-16899119D01*
X11303595Y-16899119D02*
X11303595Y-16918167D01*
X11303595Y-16918167D02*
X11294071Y-16946738D01*
X11294071Y-16946738D02*
X11179786Y-17061024D01*
X11179786Y-17061024D02*
X11303595Y-17061024D01*
X11427405Y-16861024D02*
X11446452Y-16861024D01*
X11446452Y-16861024D02*
X11465500Y-16870548D01*
X11465500Y-16870548D02*
X11475024Y-16880071D01*
X11475024Y-16880071D02*
X11484548Y-16899119D01*
X11484548Y-16899119D02*
X11494071Y-16937214D01*
X11494071Y-16937214D02*
X11494071Y-16984833D01*
X11494071Y-16984833D02*
X11484548Y-17022929D01*
X11484548Y-17022929D02*
X11475024Y-17041976D01*
X11475024Y-17041976D02*
X11465500Y-17051500D01*
X11465500Y-17051500D02*
X11446452Y-17061024D01*
X11446452Y-17061024D02*
X11427405Y-17061024D01*
X11427405Y-17061024D02*
X11408357Y-17051500D01*
X11408357Y-17051500D02*
X11398833Y-17041976D01*
X11398833Y-17041976D02*
X11389309Y-17022929D01*
X11389309Y-17022929D02*
X11379786Y-16984833D01*
X11379786Y-16984833D02*
X11379786Y-16937214D01*
X11379786Y-16937214D02*
X11389309Y-16899119D01*
X11389309Y-16899119D02*
X11398833Y-16880071D01*
X11398833Y-16880071D02*
X11408357Y-16870548D01*
X11408357Y-16870548D02*
X11427405Y-16861024D01*
X11617881Y-16861024D02*
X11636929Y-16861024D01*
X11636929Y-16861024D02*
X11655976Y-16870548D01*
X11655976Y-16870548D02*
X11665500Y-16880071D01*
X11665500Y-16880071D02*
X11675024Y-16899119D01*
X11675024Y-16899119D02*
X11684548Y-16937214D01*
X11684548Y-16937214D02*
X11684548Y-16984833D01*
X11684548Y-16984833D02*
X11675024Y-17022929D01*
X11675024Y-17022929D02*
X11665500Y-17041976D01*
X11665500Y-17041976D02*
X11655976Y-17051500D01*
X11655976Y-17051500D02*
X11636929Y-17061024D01*
X11636929Y-17061024D02*
X11617881Y-17061024D01*
X11617881Y-17061024D02*
X11598833Y-17051500D01*
X11598833Y-17051500D02*
X11589309Y-17041976D01*
X11589309Y-17041976D02*
X11579786Y-17022929D01*
X11579786Y-17022929D02*
X11570262Y-16984833D01*
X11570262Y-16984833D02*
X11570262Y-16937214D01*
X11570262Y-16937214D02*
X11579786Y-16899119D01*
X11579786Y-16899119D02*
X11589309Y-16880071D01*
X11589309Y-16880071D02*
X11598833Y-16870548D01*
X11598833Y-16870548D02*
X11617881Y-16861024D01*
X11770262Y-17061024D02*
X11770262Y-16927690D01*
X11770262Y-16946738D02*
X11779786Y-16937214D01*
X11779786Y-16937214D02*
X11798833Y-16927690D01*
X11798833Y-16927690D02*
X11827405Y-16927690D01*
X11827405Y-16927690D02*
X11846452Y-16937214D01*
X11846452Y-16937214D02*
X11855976Y-16956262D01*
X11855976Y-16956262D02*
X11855976Y-17061024D01*
X11855976Y-16956262D02*
X11865500Y-16937214D01*
X11865500Y-16937214D02*
X11884548Y-16927690D01*
X11884548Y-16927690D02*
X11913119Y-16927690D01*
X11913119Y-16927690D02*
X11932167Y-16937214D01*
X11932167Y-16937214D02*
X11941690Y-16956262D01*
X11941690Y-16956262D02*
X11941690Y-17061024D01*
X12036929Y-17061024D02*
X12036929Y-16927690D01*
X12036929Y-16946738D02*
X12046452Y-16937214D01*
X12046452Y-16937214D02*
X12065500Y-16927690D01*
X12065500Y-16927690D02*
X12094071Y-16927690D01*
X12094071Y-16927690D02*
X12113119Y-16937214D01*
X12113119Y-16937214D02*
X12122643Y-16956262D01*
X12122643Y-16956262D02*
X12122643Y-17061024D01*
X12122643Y-16956262D02*
X12132167Y-16937214D01*
X12132167Y-16937214D02*
X12151214Y-16927690D01*
X12151214Y-16927690D02*
X12179786Y-16927690D01*
X12179786Y-16927690D02*
X12198833Y-16937214D01*
X12198833Y-16937214D02*
X12208357Y-16956262D01*
X12208357Y-16956262D02*
X12208357Y-17061024D01*
X12598833Y-16851500D02*
X12427405Y-17108643D01*
X12855976Y-16861024D02*
X12875024Y-16861024D01*
X12875024Y-16861024D02*
X12894072Y-16870548D01*
X12894072Y-16870548D02*
X12903595Y-16880071D01*
X12903595Y-16880071D02*
X12913119Y-16899119D01*
X12913119Y-16899119D02*
X12922643Y-16937214D01*
X12922643Y-16937214D02*
X12922643Y-16984833D01*
X12922643Y-16984833D02*
X12913119Y-17022929D01*
X12913119Y-17022929D02*
X12903595Y-17041976D01*
X12903595Y-17041976D02*
X12894072Y-17051500D01*
X12894072Y-17051500D02*
X12875024Y-17061024D01*
X12875024Y-17061024D02*
X12855976Y-17061024D01*
X12855976Y-17061024D02*
X12836929Y-17051500D01*
X12836929Y-17051500D02*
X12827405Y-17041976D01*
X12827405Y-17041976D02*
X12817881Y-17022929D01*
X12817881Y-17022929D02*
X12808357Y-16984833D01*
X12808357Y-16984833D02*
X12808357Y-16937214D01*
X12808357Y-16937214D02*
X12817881Y-16899119D01*
X12817881Y-16899119D02*
X12827405Y-16880071D01*
X12827405Y-16880071D02*
X12836929Y-16870548D01*
X12836929Y-16870548D02*
X12855976Y-16861024D01*
X13008357Y-17041976D02*
X13017881Y-17051500D01*
X13017881Y-17051500D02*
X13008357Y-17061024D01*
X13008357Y-17061024D02*
X12998833Y-17051500D01*
X12998833Y-17051500D02*
X13008357Y-17041976D01*
X13008357Y-17041976D02*
X13008357Y-17061024D01*
X13141691Y-16861024D02*
X13160738Y-16861024D01*
X13160738Y-16861024D02*
X13179786Y-16870548D01*
X13179786Y-16870548D02*
X13189310Y-16880071D01*
X13189310Y-16880071D02*
X13198833Y-16899119D01*
X13198833Y-16899119D02*
X13208357Y-16937214D01*
X13208357Y-16937214D02*
X13208357Y-16984833D01*
X13208357Y-16984833D02*
X13198833Y-17022929D01*
X13198833Y-17022929D02*
X13189310Y-17041976D01*
X13189310Y-17041976D02*
X13179786Y-17051500D01*
X13179786Y-17051500D02*
X13160738Y-17061024D01*
X13160738Y-17061024D02*
X13141691Y-17061024D01*
X13141691Y-17061024D02*
X13122643Y-17051500D01*
X13122643Y-17051500D02*
X13113119Y-17041976D01*
X13113119Y-17041976D02*
X13103595Y-17022929D01*
X13103595Y-17022929D02*
X13094072Y-16984833D01*
X13094072Y-16984833D02*
X13094072Y-16937214D01*
X13094072Y-16937214D02*
X13103595Y-16899119D01*
X13103595Y-16899119D02*
X13113119Y-16880071D01*
X13113119Y-16880071D02*
X13122643Y-16870548D01*
X13122643Y-16870548D02*
X13141691Y-16861024D01*
X13379786Y-16927690D02*
X13379786Y-17061024D01*
X13332167Y-16851500D02*
X13284548Y-16994357D01*
X13284548Y-16994357D02*
X13408357Y-16994357D01*
X13465500Y-16861024D02*
X13598833Y-16861024D01*
X13598833Y-16861024D02*
X13513119Y-17061024D01*
X13665500Y-16880071D02*
X13675024Y-16870548D01*
X13675024Y-16870548D02*
X13694072Y-16861024D01*
X13694072Y-16861024D02*
X13741691Y-16861024D01*
X13741691Y-16861024D02*
X13760738Y-16870548D01*
X13760738Y-16870548D02*
X13770262Y-16880071D01*
X13770262Y-16880071D02*
X13779786Y-16899119D01*
X13779786Y-16899119D02*
X13779786Y-16918167D01*
X13779786Y-16918167D02*
X13770262Y-16946738D01*
X13770262Y-16946738D02*
X13655976Y-17061024D01*
X13655976Y-17061024D02*
X13779786Y-17061024D01*
X13855976Y-16861024D02*
X13855976Y-16899119D01*
X13932167Y-16861024D02*
X13932167Y-16899119D01*
X14227405Y-17137214D02*
X14217881Y-17127690D01*
X14217881Y-17127690D02*
X14198834Y-17099119D01*
X14198834Y-17099119D02*
X14189310Y-17080071D01*
X14189310Y-17080071D02*
X14179786Y-17051500D01*
X14179786Y-17051500D02*
X14170262Y-17003881D01*
X14170262Y-17003881D02*
X14170262Y-16965786D01*
X14170262Y-16965786D02*
X14179786Y-16918167D01*
X14179786Y-16918167D02*
X14189310Y-16889595D01*
X14189310Y-16889595D02*
X14198834Y-16870548D01*
X14198834Y-16870548D02*
X14217881Y-16841976D01*
X14217881Y-16841976D02*
X14227405Y-16832452D01*
X14294072Y-16880071D02*
X14303595Y-16870548D01*
X14303595Y-16870548D02*
X14322643Y-16861024D01*
X14322643Y-16861024D02*
X14370262Y-16861024D01*
X14370262Y-16861024D02*
X14389310Y-16870548D01*
X14389310Y-16870548D02*
X14398834Y-16880071D01*
X14398834Y-16880071D02*
X14408357Y-16899119D01*
X14408357Y-16899119D02*
X14408357Y-16918167D01*
X14408357Y-16918167D02*
X14398834Y-16946738D01*
X14398834Y-16946738D02*
X14284548Y-17061024D01*
X14284548Y-17061024D02*
X14408357Y-17061024D01*
X14646453Y-17061024D02*
X14646453Y-16861024D01*
X14732167Y-17061024D02*
X14732167Y-16956262D01*
X14732167Y-16956262D02*
X14722643Y-16937214D01*
X14722643Y-16937214D02*
X14703596Y-16927690D01*
X14703596Y-16927690D02*
X14675024Y-16927690D01*
X14675024Y-16927690D02*
X14655976Y-16937214D01*
X14655976Y-16937214D02*
X14646453Y-16946738D01*
X14855976Y-17061024D02*
X14836929Y-17051500D01*
X14836929Y-17051500D02*
X14827405Y-17041976D01*
X14827405Y-17041976D02*
X14817881Y-17022929D01*
X14817881Y-17022929D02*
X14817881Y-16965786D01*
X14817881Y-16965786D02*
X14827405Y-16946738D01*
X14827405Y-16946738D02*
X14836929Y-16937214D01*
X14836929Y-16937214D02*
X14855976Y-16927690D01*
X14855976Y-16927690D02*
X14884548Y-16927690D01*
X14884548Y-16927690D02*
X14903596Y-16937214D01*
X14903596Y-16937214D02*
X14913119Y-16946738D01*
X14913119Y-16946738D02*
X14922643Y-16965786D01*
X14922643Y-16965786D02*
X14922643Y-17022929D01*
X14922643Y-17022929D02*
X14913119Y-17041976D01*
X14913119Y-17041976D02*
X14903596Y-17051500D01*
X14903596Y-17051500D02*
X14884548Y-17061024D01*
X14884548Y-17061024D02*
X14855976Y-17061024D01*
X15036929Y-17061024D02*
X15017881Y-17051500D01*
X15017881Y-17051500D02*
X15008357Y-17032452D01*
X15008357Y-17032452D02*
X15008357Y-16861024D01*
X15189310Y-17051500D02*
X15170262Y-17061024D01*
X15170262Y-17061024D02*
X15132167Y-17061024D01*
X15132167Y-17061024D02*
X15113119Y-17051500D01*
X15113119Y-17051500D02*
X15103596Y-17032452D01*
X15103596Y-17032452D02*
X15103596Y-16956262D01*
X15103596Y-16956262D02*
X15113119Y-16937214D01*
X15113119Y-16937214D02*
X15132167Y-16927690D01*
X15132167Y-16927690D02*
X15170262Y-16927690D01*
X15170262Y-16927690D02*
X15189310Y-16937214D01*
X15189310Y-16937214D02*
X15198834Y-16956262D01*
X15198834Y-16956262D02*
X15198834Y-16975310D01*
X15198834Y-16975310D02*
X15103596Y-16994357D01*
X15275024Y-17051500D02*
X15294072Y-17061024D01*
X15294072Y-17061024D02*
X15332167Y-17061024D01*
X15332167Y-17061024D02*
X15351215Y-17051500D01*
X15351215Y-17051500D02*
X15360738Y-17032452D01*
X15360738Y-17032452D02*
X15360738Y-17022929D01*
X15360738Y-17022929D02*
X15351215Y-17003881D01*
X15351215Y-17003881D02*
X15332167Y-16994357D01*
X15332167Y-16994357D02*
X15303596Y-16994357D01*
X15303596Y-16994357D02*
X15284548Y-16984833D01*
X15284548Y-16984833D02*
X15275024Y-16965786D01*
X15275024Y-16965786D02*
X15275024Y-16956262D01*
X15275024Y-16956262D02*
X15284548Y-16937214D01*
X15284548Y-16937214D02*
X15303596Y-16927690D01*
X15303596Y-16927690D02*
X15332167Y-16927690D01*
X15332167Y-16927690D02*
X15351215Y-16937214D01*
X15427405Y-17137214D02*
X15436929Y-17127690D01*
X15436929Y-17127690D02*
X15455977Y-17099119D01*
X15455977Y-17099119D02*
X15465500Y-17080071D01*
X15465500Y-17080071D02*
X15475024Y-17051500D01*
X15475024Y-17051500D02*
X15484548Y-17003881D01*
X15484548Y-17003881D02*
X15484548Y-16965786D01*
X15484548Y-16965786D02*
X15475024Y-16918167D01*
X15475024Y-16918167D02*
X15465500Y-16889595D01*
X15465500Y-16889595D02*
X15455977Y-16870548D01*
X15455977Y-16870548D02*
X15436929Y-16841976D01*
X15436929Y-16841976D02*
X15427405Y-16832452D01*
D18*
X10535500Y-17167500D02*
X10665500Y-17297500D01*
X10665500Y-17167500D02*
X10535500Y-17297500D01*
X10600500Y-17297500D02*
X10665500Y-17232500D01*
X10600500Y-17167500D01*
X10535500Y-17232500D01*
X10600500Y-17297500D01*
D11*
X11017881Y-17325024D02*
X10903595Y-17325024D01*
X10960738Y-17325024D02*
X10960738Y-17125024D01*
X10960738Y-17125024D02*
X10941690Y-17153595D01*
X10941690Y-17153595D02*
X10922643Y-17172643D01*
X10922643Y-17172643D02*
X10903595Y-17182167D01*
X11103595Y-17305976D02*
X11113119Y-17315500D01*
X11113119Y-17315500D02*
X11103595Y-17325024D01*
X11103595Y-17325024D02*
X11094071Y-17315500D01*
X11094071Y-17315500D02*
X11103595Y-17305976D01*
X11103595Y-17305976D02*
X11103595Y-17325024D01*
X11179786Y-17125024D02*
X11303595Y-17125024D01*
X11303595Y-17125024D02*
X11236928Y-17201214D01*
X11236928Y-17201214D02*
X11265500Y-17201214D01*
X11265500Y-17201214D02*
X11284548Y-17210738D01*
X11284548Y-17210738D02*
X11294071Y-17220262D01*
X11294071Y-17220262D02*
X11303595Y-17239310D01*
X11303595Y-17239310D02*
X11303595Y-17286929D01*
X11303595Y-17286929D02*
X11294071Y-17305976D01*
X11294071Y-17305976D02*
X11284548Y-17315500D01*
X11284548Y-17315500D02*
X11265500Y-17325024D01*
X11265500Y-17325024D02*
X11208357Y-17325024D01*
X11208357Y-17325024D02*
X11189309Y-17315500D01*
X11189309Y-17315500D02*
X11179786Y-17305976D01*
X11427405Y-17125024D02*
X11446452Y-17125024D01*
X11446452Y-17125024D02*
X11465500Y-17134548D01*
X11465500Y-17134548D02*
X11475024Y-17144071D01*
X11475024Y-17144071D02*
X11484548Y-17163119D01*
X11484548Y-17163119D02*
X11494071Y-17201214D01*
X11494071Y-17201214D02*
X11494071Y-17248833D01*
X11494071Y-17248833D02*
X11484548Y-17286929D01*
X11484548Y-17286929D02*
X11475024Y-17305976D01*
X11475024Y-17305976D02*
X11465500Y-17315500D01*
X11465500Y-17315500D02*
X11446452Y-17325024D01*
X11446452Y-17325024D02*
X11427405Y-17325024D01*
X11427405Y-17325024D02*
X11408357Y-17315500D01*
X11408357Y-17315500D02*
X11398833Y-17305976D01*
X11398833Y-17305976D02*
X11389309Y-17286929D01*
X11389309Y-17286929D02*
X11379786Y-17248833D01*
X11379786Y-17248833D02*
X11379786Y-17201214D01*
X11379786Y-17201214D02*
X11389309Y-17163119D01*
X11389309Y-17163119D02*
X11398833Y-17144071D01*
X11398833Y-17144071D02*
X11408357Y-17134548D01*
X11408357Y-17134548D02*
X11427405Y-17125024D01*
X11617881Y-17125024D02*
X11636929Y-17125024D01*
X11636929Y-17125024D02*
X11655976Y-17134548D01*
X11655976Y-17134548D02*
X11665500Y-17144071D01*
X11665500Y-17144071D02*
X11675024Y-17163119D01*
X11675024Y-17163119D02*
X11684548Y-17201214D01*
X11684548Y-17201214D02*
X11684548Y-17248833D01*
X11684548Y-17248833D02*
X11675024Y-17286929D01*
X11675024Y-17286929D02*
X11665500Y-17305976D01*
X11665500Y-17305976D02*
X11655976Y-17315500D01*
X11655976Y-17315500D02*
X11636929Y-17325024D01*
X11636929Y-17325024D02*
X11617881Y-17325024D01*
X11617881Y-17325024D02*
X11598833Y-17315500D01*
X11598833Y-17315500D02*
X11589309Y-17305976D01*
X11589309Y-17305976D02*
X11579786Y-17286929D01*
X11579786Y-17286929D02*
X11570262Y-17248833D01*
X11570262Y-17248833D02*
X11570262Y-17201214D01*
X11570262Y-17201214D02*
X11579786Y-17163119D01*
X11579786Y-17163119D02*
X11589309Y-17144071D01*
X11589309Y-17144071D02*
X11598833Y-17134548D01*
X11598833Y-17134548D02*
X11617881Y-17125024D01*
X11770262Y-17325024D02*
X11770262Y-17191690D01*
X11770262Y-17210738D02*
X11779786Y-17201214D01*
X11779786Y-17201214D02*
X11798833Y-17191690D01*
X11798833Y-17191690D02*
X11827405Y-17191690D01*
X11827405Y-17191690D02*
X11846452Y-17201214D01*
X11846452Y-17201214D02*
X11855976Y-17220262D01*
X11855976Y-17220262D02*
X11855976Y-17325024D01*
X11855976Y-17220262D02*
X11865500Y-17201214D01*
X11865500Y-17201214D02*
X11884548Y-17191690D01*
X11884548Y-17191690D02*
X11913119Y-17191690D01*
X11913119Y-17191690D02*
X11932167Y-17201214D01*
X11932167Y-17201214D02*
X11941690Y-17220262D01*
X11941690Y-17220262D02*
X11941690Y-17325024D01*
X12036929Y-17325024D02*
X12036929Y-17191690D01*
X12036929Y-17210738D02*
X12046452Y-17201214D01*
X12046452Y-17201214D02*
X12065500Y-17191690D01*
X12065500Y-17191690D02*
X12094071Y-17191690D01*
X12094071Y-17191690D02*
X12113119Y-17201214D01*
X12113119Y-17201214D02*
X12122643Y-17220262D01*
X12122643Y-17220262D02*
X12122643Y-17325024D01*
X12122643Y-17220262D02*
X12132167Y-17201214D01*
X12132167Y-17201214D02*
X12151214Y-17191690D01*
X12151214Y-17191690D02*
X12179786Y-17191690D01*
X12179786Y-17191690D02*
X12198833Y-17201214D01*
X12198833Y-17201214D02*
X12208357Y-17220262D01*
X12208357Y-17220262D02*
X12208357Y-17325024D01*
X12598833Y-17115500D02*
X12427405Y-17372643D01*
X12855976Y-17125024D02*
X12875024Y-17125024D01*
X12875024Y-17125024D02*
X12894072Y-17134548D01*
X12894072Y-17134548D02*
X12903595Y-17144071D01*
X12903595Y-17144071D02*
X12913119Y-17163119D01*
X12913119Y-17163119D02*
X12922643Y-17201214D01*
X12922643Y-17201214D02*
X12922643Y-17248833D01*
X12922643Y-17248833D02*
X12913119Y-17286929D01*
X12913119Y-17286929D02*
X12903595Y-17305976D01*
X12903595Y-17305976D02*
X12894072Y-17315500D01*
X12894072Y-17315500D02*
X12875024Y-17325024D01*
X12875024Y-17325024D02*
X12855976Y-17325024D01*
X12855976Y-17325024D02*
X12836929Y-17315500D01*
X12836929Y-17315500D02*
X12827405Y-17305976D01*
X12827405Y-17305976D02*
X12817881Y-17286929D01*
X12817881Y-17286929D02*
X12808357Y-17248833D01*
X12808357Y-17248833D02*
X12808357Y-17201214D01*
X12808357Y-17201214D02*
X12817881Y-17163119D01*
X12817881Y-17163119D02*
X12827405Y-17144071D01*
X12827405Y-17144071D02*
X12836929Y-17134548D01*
X12836929Y-17134548D02*
X12855976Y-17125024D01*
X13008357Y-17305976D02*
X13017881Y-17315500D01*
X13017881Y-17315500D02*
X13008357Y-17325024D01*
X13008357Y-17325024D02*
X12998833Y-17315500D01*
X12998833Y-17315500D02*
X13008357Y-17305976D01*
X13008357Y-17305976D02*
X13008357Y-17325024D01*
X13141691Y-17125024D02*
X13160738Y-17125024D01*
X13160738Y-17125024D02*
X13179786Y-17134548D01*
X13179786Y-17134548D02*
X13189310Y-17144071D01*
X13189310Y-17144071D02*
X13198833Y-17163119D01*
X13198833Y-17163119D02*
X13208357Y-17201214D01*
X13208357Y-17201214D02*
X13208357Y-17248833D01*
X13208357Y-17248833D02*
X13198833Y-17286929D01*
X13198833Y-17286929D02*
X13189310Y-17305976D01*
X13189310Y-17305976D02*
X13179786Y-17315500D01*
X13179786Y-17315500D02*
X13160738Y-17325024D01*
X13160738Y-17325024D02*
X13141691Y-17325024D01*
X13141691Y-17325024D02*
X13122643Y-17315500D01*
X13122643Y-17315500D02*
X13113119Y-17305976D01*
X13113119Y-17305976D02*
X13103595Y-17286929D01*
X13103595Y-17286929D02*
X13094072Y-17248833D01*
X13094072Y-17248833D02*
X13094072Y-17201214D01*
X13094072Y-17201214D02*
X13103595Y-17163119D01*
X13103595Y-17163119D02*
X13113119Y-17144071D01*
X13113119Y-17144071D02*
X13122643Y-17134548D01*
X13122643Y-17134548D02*
X13141691Y-17125024D01*
X13389310Y-17125024D02*
X13294072Y-17125024D01*
X13294072Y-17125024D02*
X13284548Y-17220262D01*
X13284548Y-17220262D02*
X13294072Y-17210738D01*
X13294072Y-17210738D02*
X13313119Y-17201214D01*
X13313119Y-17201214D02*
X13360738Y-17201214D01*
X13360738Y-17201214D02*
X13379786Y-17210738D01*
X13379786Y-17210738D02*
X13389310Y-17220262D01*
X13389310Y-17220262D02*
X13398833Y-17239310D01*
X13398833Y-17239310D02*
X13398833Y-17286929D01*
X13398833Y-17286929D02*
X13389310Y-17305976D01*
X13389310Y-17305976D02*
X13379786Y-17315500D01*
X13379786Y-17315500D02*
X13360738Y-17325024D01*
X13360738Y-17325024D02*
X13313119Y-17325024D01*
X13313119Y-17325024D02*
X13294072Y-17315500D01*
X13294072Y-17315500D02*
X13284548Y-17305976D01*
X13589310Y-17325024D02*
X13475024Y-17325024D01*
X13532167Y-17325024D02*
X13532167Y-17125024D01*
X13532167Y-17125024D02*
X13513119Y-17153595D01*
X13513119Y-17153595D02*
X13494072Y-17172643D01*
X13494072Y-17172643D02*
X13475024Y-17182167D01*
X13665500Y-17144071D02*
X13675024Y-17134548D01*
X13675024Y-17134548D02*
X13694072Y-17125024D01*
X13694072Y-17125024D02*
X13741691Y-17125024D01*
X13741691Y-17125024D02*
X13760738Y-17134548D01*
X13760738Y-17134548D02*
X13770262Y-17144071D01*
X13770262Y-17144071D02*
X13779786Y-17163119D01*
X13779786Y-17163119D02*
X13779786Y-17182167D01*
X13779786Y-17182167D02*
X13770262Y-17210738D01*
X13770262Y-17210738D02*
X13655976Y-17325024D01*
X13655976Y-17325024D02*
X13779786Y-17325024D01*
X13855976Y-17125024D02*
X13855976Y-17163119D01*
X13932167Y-17125024D02*
X13932167Y-17163119D01*
X14227405Y-17401214D02*
X14217881Y-17391690D01*
X14217881Y-17391690D02*
X14198834Y-17363119D01*
X14198834Y-17363119D02*
X14189310Y-17344071D01*
X14189310Y-17344071D02*
X14179786Y-17315500D01*
X14179786Y-17315500D02*
X14170262Y-17267881D01*
X14170262Y-17267881D02*
X14170262Y-17229786D01*
X14170262Y-17229786D02*
X14179786Y-17182167D01*
X14179786Y-17182167D02*
X14189310Y-17153595D01*
X14189310Y-17153595D02*
X14198834Y-17134548D01*
X14198834Y-17134548D02*
X14217881Y-17105976D01*
X14217881Y-17105976D02*
X14227405Y-17096452D01*
X14398834Y-17125024D02*
X14303595Y-17125024D01*
X14303595Y-17125024D02*
X14294072Y-17220262D01*
X14294072Y-17220262D02*
X14303595Y-17210738D01*
X14303595Y-17210738D02*
X14322643Y-17201214D01*
X14322643Y-17201214D02*
X14370262Y-17201214D01*
X14370262Y-17201214D02*
X14389310Y-17210738D01*
X14389310Y-17210738D02*
X14398834Y-17220262D01*
X14398834Y-17220262D02*
X14408357Y-17239310D01*
X14408357Y-17239310D02*
X14408357Y-17286929D01*
X14408357Y-17286929D02*
X14398834Y-17305976D01*
X14398834Y-17305976D02*
X14389310Y-17315500D01*
X14389310Y-17315500D02*
X14370262Y-17325024D01*
X14370262Y-17325024D02*
X14322643Y-17325024D01*
X14322643Y-17325024D02*
X14303595Y-17315500D01*
X14303595Y-17315500D02*
X14294072Y-17305976D01*
X14646453Y-17325024D02*
X14646453Y-17125024D01*
X14732167Y-17325024D02*
X14732167Y-17220262D01*
X14732167Y-17220262D02*
X14722643Y-17201214D01*
X14722643Y-17201214D02*
X14703596Y-17191690D01*
X14703596Y-17191690D02*
X14675024Y-17191690D01*
X14675024Y-17191690D02*
X14655976Y-17201214D01*
X14655976Y-17201214D02*
X14646453Y-17210738D01*
X14855976Y-17325024D02*
X14836929Y-17315500D01*
X14836929Y-17315500D02*
X14827405Y-17305976D01*
X14827405Y-17305976D02*
X14817881Y-17286929D01*
X14817881Y-17286929D02*
X14817881Y-17229786D01*
X14817881Y-17229786D02*
X14827405Y-17210738D01*
X14827405Y-17210738D02*
X14836929Y-17201214D01*
X14836929Y-17201214D02*
X14855976Y-17191690D01*
X14855976Y-17191690D02*
X14884548Y-17191690D01*
X14884548Y-17191690D02*
X14903596Y-17201214D01*
X14903596Y-17201214D02*
X14913119Y-17210738D01*
X14913119Y-17210738D02*
X14922643Y-17229786D01*
X14922643Y-17229786D02*
X14922643Y-17286929D01*
X14922643Y-17286929D02*
X14913119Y-17305976D01*
X14913119Y-17305976D02*
X14903596Y-17315500D01*
X14903596Y-17315500D02*
X14884548Y-17325024D01*
X14884548Y-17325024D02*
X14855976Y-17325024D01*
X15036929Y-17325024D02*
X15017881Y-17315500D01*
X15017881Y-17315500D02*
X15008357Y-17296452D01*
X15008357Y-17296452D02*
X15008357Y-17125024D01*
X15189310Y-17315500D02*
X15170262Y-17325024D01*
X15170262Y-17325024D02*
X15132167Y-17325024D01*
X15132167Y-17325024D02*
X15113119Y-17315500D01*
X15113119Y-17315500D02*
X15103596Y-17296452D01*
X15103596Y-17296452D02*
X15103596Y-17220262D01*
X15103596Y-17220262D02*
X15113119Y-17201214D01*
X15113119Y-17201214D02*
X15132167Y-17191690D01*
X15132167Y-17191690D02*
X15170262Y-17191690D01*
X15170262Y-17191690D02*
X15189310Y-17201214D01*
X15189310Y-17201214D02*
X15198834Y-17220262D01*
X15198834Y-17220262D02*
X15198834Y-17239310D01*
X15198834Y-17239310D02*
X15103596Y-17258357D01*
X15275024Y-17315500D02*
X15294072Y-17325024D01*
X15294072Y-17325024D02*
X15332167Y-17325024D01*
X15332167Y-17325024D02*
X15351215Y-17315500D01*
X15351215Y-17315500D02*
X15360738Y-17296452D01*
X15360738Y-17296452D02*
X15360738Y-17286929D01*
X15360738Y-17286929D02*
X15351215Y-17267881D01*
X15351215Y-17267881D02*
X15332167Y-17258357D01*
X15332167Y-17258357D02*
X15303596Y-17258357D01*
X15303596Y-17258357D02*
X15284548Y-17248833D01*
X15284548Y-17248833D02*
X15275024Y-17229786D01*
X15275024Y-17229786D02*
X15275024Y-17220262D01*
X15275024Y-17220262D02*
X15284548Y-17201214D01*
X15284548Y-17201214D02*
X15303596Y-17191690D01*
X15303596Y-17191690D02*
X15332167Y-17191690D01*
X15332167Y-17191690D02*
X15351215Y-17201214D01*
X15427405Y-17401214D02*
X15436929Y-17391690D01*
X15436929Y-17391690D02*
X15455977Y-17363119D01*
X15455977Y-17363119D02*
X15465500Y-17344071D01*
X15465500Y-17344071D02*
X15475024Y-17315500D01*
X15475024Y-17315500D02*
X15484548Y-17267881D01*
X15484548Y-17267881D02*
X15484548Y-17229786D01*
X15484548Y-17229786D02*
X15475024Y-17182167D01*
X15475024Y-17182167D02*
X15465500Y-17153595D01*
X15465500Y-17153595D02*
X15455977Y-17134548D01*
X15455977Y-17134548D02*
X15436929Y-17105976D01*
X15436929Y-17105976D02*
X15427405Y-17096452D01*
D19*
X10589500Y-17420500D02*
X10589500Y-17572500D01*
X10513500Y-17496500D02*
X10665500Y-17496500D01*
X10665500Y-17496500D02*
G75*
G03*
X10665500Y-17496500I-76000J0D01*
G01*
D11*
X11017881Y-17589024D02*
X10903595Y-17589024D01*
X10960738Y-17589024D02*
X10960738Y-17389024D01*
X10960738Y-17389024D02*
X10941690Y-17417595D01*
X10941690Y-17417595D02*
X10922643Y-17436643D01*
X10922643Y-17436643D02*
X10903595Y-17446167D01*
X11103595Y-17569976D02*
X11113119Y-17579500D01*
X11113119Y-17579500D02*
X11103595Y-17589024D01*
X11103595Y-17589024D02*
X11094071Y-17579500D01*
X11094071Y-17579500D02*
X11103595Y-17569976D01*
X11103595Y-17569976D02*
X11103595Y-17589024D01*
X11294071Y-17389024D02*
X11198833Y-17389024D01*
X11198833Y-17389024D02*
X11189309Y-17484262D01*
X11189309Y-17484262D02*
X11198833Y-17474738D01*
X11198833Y-17474738D02*
X11217881Y-17465214D01*
X11217881Y-17465214D02*
X11265500Y-17465214D01*
X11265500Y-17465214D02*
X11284548Y-17474738D01*
X11284548Y-17474738D02*
X11294071Y-17484262D01*
X11294071Y-17484262D02*
X11303595Y-17503310D01*
X11303595Y-17503310D02*
X11303595Y-17550929D01*
X11303595Y-17550929D02*
X11294071Y-17569976D01*
X11294071Y-17569976D02*
X11284548Y-17579500D01*
X11284548Y-17579500D02*
X11265500Y-17589024D01*
X11265500Y-17589024D02*
X11217881Y-17589024D01*
X11217881Y-17589024D02*
X11198833Y-17579500D01*
X11198833Y-17579500D02*
X11189309Y-17569976D01*
X11379786Y-17408071D02*
X11389309Y-17398548D01*
X11389309Y-17398548D02*
X11408357Y-17389024D01*
X11408357Y-17389024D02*
X11455976Y-17389024D01*
X11455976Y-17389024D02*
X11475024Y-17398548D01*
X11475024Y-17398548D02*
X11484548Y-17408071D01*
X11484548Y-17408071D02*
X11494071Y-17427119D01*
X11494071Y-17427119D02*
X11494071Y-17446167D01*
X11494071Y-17446167D02*
X11484548Y-17474738D01*
X11484548Y-17474738D02*
X11370262Y-17589024D01*
X11370262Y-17589024D02*
X11494071Y-17589024D01*
X11617881Y-17389024D02*
X11636929Y-17389024D01*
X11636929Y-17389024D02*
X11655976Y-17398548D01*
X11655976Y-17398548D02*
X11665500Y-17408071D01*
X11665500Y-17408071D02*
X11675024Y-17427119D01*
X11675024Y-17427119D02*
X11684548Y-17465214D01*
X11684548Y-17465214D02*
X11684548Y-17512833D01*
X11684548Y-17512833D02*
X11675024Y-17550929D01*
X11675024Y-17550929D02*
X11665500Y-17569976D01*
X11665500Y-17569976D02*
X11655976Y-17579500D01*
X11655976Y-17579500D02*
X11636929Y-17589024D01*
X11636929Y-17589024D02*
X11617881Y-17589024D01*
X11617881Y-17589024D02*
X11598833Y-17579500D01*
X11598833Y-17579500D02*
X11589309Y-17569976D01*
X11589309Y-17569976D02*
X11579786Y-17550929D01*
X11579786Y-17550929D02*
X11570262Y-17512833D01*
X11570262Y-17512833D02*
X11570262Y-17465214D01*
X11570262Y-17465214D02*
X11579786Y-17427119D01*
X11579786Y-17427119D02*
X11589309Y-17408071D01*
X11589309Y-17408071D02*
X11598833Y-17398548D01*
X11598833Y-17398548D02*
X11617881Y-17389024D01*
X11770262Y-17589024D02*
X11770262Y-17455690D01*
X11770262Y-17474738D02*
X11779786Y-17465214D01*
X11779786Y-17465214D02*
X11798833Y-17455690D01*
X11798833Y-17455690D02*
X11827405Y-17455690D01*
X11827405Y-17455690D02*
X11846452Y-17465214D01*
X11846452Y-17465214D02*
X11855976Y-17484262D01*
X11855976Y-17484262D02*
X11855976Y-17589024D01*
X11855976Y-17484262D02*
X11865500Y-17465214D01*
X11865500Y-17465214D02*
X11884548Y-17455690D01*
X11884548Y-17455690D02*
X11913119Y-17455690D01*
X11913119Y-17455690D02*
X11932167Y-17465214D01*
X11932167Y-17465214D02*
X11941690Y-17484262D01*
X11941690Y-17484262D02*
X11941690Y-17589024D01*
X12036929Y-17589024D02*
X12036929Y-17455690D01*
X12036929Y-17474738D02*
X12046452Y-17465214D01*
X12046452Y-17465214D02*
X12065500Y-17455690D01*
X12065500Y-17455690D02*
X12094071Y-17455690D01*
X12094071Y-17455690D02*
X12113119Y-17465214D01*
X12113119Y-17465214D02*
X12122643Y-17484262D01*
X12122643Y-17484262D02*
X12122643Y-17589024D01*
X12122643Y-17484262D02*
X12132167Y-17465214D01*
X12132167Y-17465214D02*
X12151214Y-17455690D01*
X12151214Y-17455690D02*
X12179786Y-17455690D01*
X12179786Y-17455690D02*
X12198833Y-17465214D01*
X12198833Y-17465214D02*
X12208357Y-17484262D01*
X12208357Y-17484262D02*
X12208357Y-17589024D01*
X12598833Y-17379500D02*
X12427405Y-17636643D01*
X12855976Y-17389024D02*
X12875024Y-17389024D01*
X12875024Y-17389024D02*
X12894072Y-17398548D01*
X12894072Y-17398548D02*
X12903595Y-17408071D01*
X12903595Y-17408071D02*
X12913119Y-17427119D01*
X12913119Y-17427119D02*
X12922643Y-17465214D01*
X12922643Y-17465214D02*
X12922643Y-17512833D01*
X12922643Y-17512833D02*
X12913119Y-17550929D01*
X12913119Y-17550929D02*
X12903595Y-17569976D01*
X12903595Y-17569976D02*
X12894072Y-17579500D01*
X12894072Y-17579500D02*
X12875024Y-17589024D01*
X12875024Y-17589024D02*
X12855976Y-17589024D01*
X12855976Y-17589024D02*
X12836929Y-17579500D01*
X12836929Y-17579500D02*
X12827405Y-17569976D01*
X12827405Y-17569976D02*
X12817881Y-17550929D01*
X12817881Y-17550929D02*
X12808357Y-17512833D01*
X12808357Y-17512833D02*
X12808357Y-17465214D01*
X12808357Y-17465214D02*
X12817881Y-17427119D01*
X12817881Y-17427119D02*
X12827405Y-17408071D01*
X12827405Y-17408071D02*
X12836929Y-17398548D01*
X12836929Y-17398548D02*
X12855976Y-17389024D01*
X13008357Y-17569976D02*
X13017881Y-17579500D01*
X13017881Y-17579500D02*
X13008357Y-17589024D01*
X13008357Y-17589024D02*
X12998833Y-17579500D01*
X12998833Y-17579500D02*
X13008357Y-17569976D01*
X13008357Y-17569976D02*
X13008357Y-17589024D01*
X13141691Y-17389024D02*
X13160738Y-17389024D01*
X13160738Y-17389024D02*
X13179786Y-17398548D01*
X13179786Y-17398548D02*
X13189310Y-17408071D01*
X13189310Y-17408071D02*
X13198833Y-17427119D01*
X13198833Y-17427119D02*
X13208357Y-17465214D01*
X13208357Y-17465214D02*
X13208357Y-17512833D01*
X13208357Y-17512833D02*
X13198833Y-17550929D01*
X13198833Y-17550929D02*
X13189310Y-17569976D01*
X13189310Y-17569976D02*
X13179786Y-17579500D01*
X13179786Y-17579500D02*
X13160738Y-17589024D01*
X13160738Y-17589024D02*
X13141691Y-17589024D01*
X13141691Y-17589024D02*
X13122643Y-17579500D01*
X13122643Y-17579500D02*
X13113119Y-17569976D01*
X13113119Y-17569976D02*
X13103595Y-17550929D01*
X13103595Y-17550929D02*
X13094072Y-17512833D01*
X13094072Y-17512833D02*
X13094072Y-17465214D01*
X13094072Y-17465214D02*
X13103595Y-17427119D01*
X13103595Y-17427119D02*
X13113119Y-17408071D01*
X13113119Y-17408071D02*
X13122643Y-17398548D01*
X13122643Y-17398548D02*
X13141691Y-17389024D01*
X13389310Y-17389024D02*
X13294072Y-17389024D01*
X13294072Y-17389024D02*
X13284548Y-17484262D01*
X13284548Y-17484262D02*
X13294072Y-17474738D01*
X13294072Y-17474738D02*
X13313119Y-17465214D01*
X13313119Y-17465214D02*
X13360738Y-17465214D01*
X13360738Y-17465214D02*
X13379786Y-17474738D01*
X13379786Y-17474738D02*
X13389310Y-17484262D01*
X13389310Y-17484262D02*
X13398833Y-17503310D01*
X13398833Y-17503310D02*
X13398833Y-17550929D01*
X13398833Y-17550929D02*
X13389310Y-17569976D01*
X13389310Y-17569976D02*
X13379786Y-17579500D01*
X13379786Y-17579500D02*
X13360738Y-17589024D01*
X13360738Y-17589024D02*
X13313119Y-17589024D01*
X13313119Y-17589024D02*
X13294072Y-17579500D01*
X13294072Y-17579500D02*
X13284548Y-17569976D01*
X13494072Y-17589024D02*
X13532167Y-17589024D01*
X13532167Y-17589024D02*
X13551214Y-17579500D01*
X13551214Y-17579500D02*
X13560738Y-17569976D01*
X13560738Y-17569976D02*
X13579786Y-17541405D01*
X13579786Y-17541405D02*
X13589310Y-17503310D01*
X13589310Y-17503310D02*
X13589310Y-17427119D01*
X13589310Y-17427119D02*
X13579786Y-17408071D01*
X13579786Y-17408071D02*
X13570262Y-17398548D01*
X13570262Y-17398548D02*
X13551214Y-17389024D01*
X13551214Y-17389024D02*
X13513119Y-17389024D01*
X13513119Y-17389024D02*
X13494072Y-17398548D01*
X13494072Y-17398548D02*
X13484548Y-17408071D01*
X13484548Y-17408071D02*
X13475024Y-17427119D01*
X13475024Y-17427119D02*
X13475024Y-17474738D01*
X13475024Y-17474738D02*
X13484548Y-17493786D01*
X13484548Y-17493786D02*
X13494072Y-17503310D01*
X13494072Y-17503310D02*
X13513119Y-17512833D01*
X13513119Y-17512833D02*
X13551214Y-17512833D01*
X13551214Y-17512833D02*
X13570262Y-17503310D01*
X13570262Y-17503310D02*
X13579786Y-17493786D01*
X13579786Y-17493786D02*
X13589310Y-17474738D01*
X13703595Y-17474738D02*
X13684548Y-17465214D01*
X13684548Y-17465214D02*
X13675024Y-17455690D01*
X13675024Y-17455690D02*
X13665500Y-17436643D01*
X13665500Y-17436643D02*
X13665500Y-17427119D01*
X13665500Y-17427119D02*
X13675024Y-17408071D01*
X13675024Y-17408071D02*
X13684548Y-17398548D01*
X13684548Y-17398548D02*
X13703595Y-17389024D01*
X13703595Y-17389024D02*
X13741691Y-17389024D01*
X13741691Y-17389024D02*
X13760738Y-17398548D01*
X13760738Y-17398548D02*
X13770262Y-17408071D01*
X13770262Y-17408071D02*
X13779786Y-17427119D01*
X13779786Y-17427119D02*
X13779786Y-17436643D01*
X13779786Y-17436643D02*
X13770262Y-17455690D01*
X13770262Y-17455690D02*
X13760738Y-17465214D01*
X13760738Y-17465214D02*
X13741691Y-17474738D01*
X13741691Y-17474738D02*
X13703595Y-17474738D01*
X13703595Y-17474738D02*
X13684548Y-17484262D01*
X13684548Y-17484262D02*
X13675024Y-17493786D01*
X13675024Y-17493786D02*
X13665500Y-17512833D01*
X13665500Y-17512833D02*
X13665500Y-17550929D01*
X13665500Y-17550929D02*
X13675024Y-17569976D01*
X13675024Y-17569976D02*
X13684548Y-17579500D01*
X13684548Y-17579500D02*
X13703595Y-17589024D01*
X13703595Y-17589024D02*
X13741691Y-17589024D01*
X13741691Y-17589024D02*
X13760738Y-17579500D01*
X13760738Y-17579500D02*
X13770262Y-17569976D01*
X13770262Y-17569976D02*
X13779786Y-17550929D01*
X13779786Y-17550929D02*
X13779786Y-17512833D01*
X13779786Y-17512833D02*
X13770262Y-17493786D01*
X13770262Y-17493786D02*
X13760738Y-17484262D01*
X13760738Y-17484262D02*
X13741691Y-17474738D01*
X13855976Y-17389024D02*
X13855976Y-17427119D01*
X13932167Y-17389024D02*
X13932167Y-17427119D01*
X14227405Y-17665214D02*
X14217881Y-17655690D01*
X14217881Y-17655690D02*
X14198834Y-17627119D01*
X14198834Y-17627119D02*
X14189310Y-17608071D01*
X14189310Y-17608071D02*
X14179786Y-17579500D01*
X14179786Y-17579500D02*
X14170262Y-17531881D01*
X14170262Y-17531881D02*
X14170262Y-17493786D01*
X14170262Y-17493786D02*
X14179786Y-17446167D01*
X14179786Y-17446167D02*
X14189310Y-17417595D01*
X14189310Y-17417595D02*
X14198834Y-17398548D01*
X14198834Y-17398548D02*
X14217881Y-17369976D01*
X14217881Y-17369976D02*
X14227405Y-17360452D01*
X14284548Y-17389024D02*
X14408357Y-17389024D01*
X14408357Y-17389024D02*
X14341691Y-17465214D01*
X14341691Y-17465214D02*
X14370262Y-17465214D01*
X14370262Y-17465214D02*
X14389310Y-17474738D01*
X14389310Y-17474738D02*
X14398834Y-17484262D01*
X14398834Y-17484262D02*
X14408357Y-17503310D01*
X14408357Y-17503310D02*
X14408357Y-17550929D01*
X14408357Y-17550929D02*
X14398834Y-17569976D01*
X14398834Y-17569976D02*
X14389310Y-17579500D01*
X14389310Y-17579500D02*
X14370262Y-17589024D01*
X14370262Y-17589024D02*
X14313119Y-17589024D01*
X14313119Y-17589024D02*
X14294072Y-17579500D01*
X14294072Y-17579500D02*
X14284548Y-17569976D01*
X14646453Y-17589024D02*
X14646453Y-17389024D01*
X14732167Y-17589024D02*
X14732167Y-17484262D01*
X14732167Y-17484262D02*
X14722643Y-17465214D01*
X14722643Y-17465214D02*
X14703596Y-17455690D01*
X14703596Y-17455690D02*
X14675024Y-17455690D01*
X14675024Y-17455690D02*
X14655976Y-17465214D01*
X14655976Y-17465214D02*
X14646453Y-17474738D01*
X14855976Y-17589024D02*
X14836929Y-17579500D01*
X14836929Y-17579500D02*
X14827405Y-17569976D01*
X14827405Y-17569976D02*
X14817881Y-17550929D01*
X14817881Y-17550929D02*
X14817881Y-17493786D01*
X14817881Y-17493786D02*
X14827405Y-17474738D01*
X14827405Y-17474738D02*
X14836929Y-17465214D01*
X14836929Y-17465214D02*
X14855976Y-17455690D01*
X14855976Y-17455690D02*
X14884548Y-17455690D01*
X14884548Y-17455690D02*
X14903596Y-17465214D01*
X14903596Y-17465214D02*
X14913119Y-17474738D01*
X14913119Y-17474738D02*
X14922643Y-17493786D01*
X14922643Y-17493786D02*
X14922643Y-17550929D01*
X14922643Y-17550929D02*
X14913119Y-17569976D01*
X14913119Y-17569976D02*
X14903596Y-17579500D01*
X14903596Y-17579500D02*
X14884548Y-17589024D01*
X14884548Y-17589024D02*
X14855976Y-17589024D01*
X15036929Y-17589024D02*
X15017881Y-17579500D01*
X15017881Y-17579500D02*
X15008357Y-17560452D01*
X15008357Y-17560452D02*
X15008357Y-17389024D01*
X15189310Y-17579500D02*
X15170262Y-17589024D01*
X15170262Y-17589024D02*
X15132167Y-17589024D01*
X15132167Y-17589024D02*
X15113119Y-17579500D01*
X15113119Y-17579500D02*
X15103596Y-17560452D01*
X15103596Y-17560452D02*
X15103596Y-17484262D01*
X15103596Y-17484262D02*
X15113119Y-17465214D01*
X15113119Y-17465214D02*
X15132167Y-17455690D01*
X15132167Y-17455690D02*
X15170262Y-17455690D01*
X15170262Y-17455690D02*
X15189310Y-17465214D01*
X15189310Y-17465214D02*
X15198834Y-17484262D01*
X15198834Y-17484262D02*
X15198834Y-17503310D01*
X15198834Y-17503310D02*
X15103596Y-17522357D01*
X15275024Y-17579500D02*
X15294072Y-17589024D01*
X15294072Y-17589024D02*
X15332167Y-17589024D01*
X15332167Y-17589024D02*
X15351215Y-17579500D01*
X15351215Y-17579500D02*
X15360738Y-17560452D01*
X15360738Y-17560452D02*
X15360738Y-17550929D01*
X15360738Y-17550929D02*
X15351215Y-17531881D01*
X15351215Y-17531881D02*
X15332167Y-17522357D01*
X15332167Y-17522357D02*
X15303596Y-17522357D01*
X15303596Y-17522357D02*
X15284548Y-17512833D01*
X15284548Y-17512833D02*
X15275024Y-17493786D01*
X15275024Y-17493786D02*
X15275024Y-17484262D01*
X15275024Y-17484262D02*
X15284548Y-17465214D01*
X15284548Y-17465214D02*
X15303596Y-17455690D01*
X15303596Y-17455690D02*
X15332167Y-17455690D01*
X15332167Y-17455690D02*
X15351215Y-17465214D01*
X15427405Y-17665214D02*
X15436929Y-17655690D01*
X15436929Y-17655690D02*
X15455977Y-17627119D01*
X15455977Y-17627119D02*
X15465500Y-17608071D01*
X15465500Y-17608071D02*
X15475024Y-17579500D01*
X15475024Y-17579500D02*
X15484548Y-17531881D01*
X15484548Y-17531881D02*
X15484548Y-17493786D01*
X15484548Y-17493786D02*
X15475024Y-17446167D01*
X15475024Y-17446167D02*
X15465500Y-17417595D01*
X15465500Y-17417595D02*
X15455977Y-17398548D01*
X15455977Y-17398548D02*
X15436929Y-17369976D01*
X15436929Y-17369976D02*
X15427405Y-17360452D01*
X10636211Y-17839211D02*
X10636211Y-17697789D01*
X10494789Y-17697789D01*
X10494789Y-17839211D01*
X10636211Y-17839211D01*
X10665500Y-17768500D02*
G75*
G03*
X10665500Y-17768500I-100000J0D01*
G01*
X10903595Y-17680071D02*
X10913119Y-17670548D01*
X10913119Y-17670548D02*
X10932167Y-17661024D01*
X10932167Y-17661024D02*
X10979786Y-17661024D01*
X10979786Y-17661024D02*
X10998833Y-17670548D01*
X10998833Y-17670548D02*
X11008357Y-17680071D01*
X11008357Y-17680071D02*
X11017881Y-17699119D01*
X11017881Y-17699119D02*
X11017881Y-17718167D01*
X11017881Y-17718167D02*
X11008357Y-17746738D01*
X11008357Y-17746738D02*
X10894071Y-17861024D01*
X10894071Y-17861024D02*
X11017881Y-17861024D01*
X11103595Y-17841976D02*
X11113119Y-17851500D01*
X11113119Y-17851500D02*
X11103595Y-17861024D01*
X11103595Y-17861024D02*
X11094071Y-17851500D01*
X11094071Y-17851500D02*
X11103595Y-17841976D01*
X11103595Y-17841976D02*
X11103595Y-17861024D01*
X11189309Y-17680071D02*
X11198833Y-17670548D01*
X11198833Y-17670548D02*
X11217881Y-17661024D01*
X11217881Y-17661024D02*
X11265500Y-17661024D01*
X11265500Y-17661024D02*
X11284548Y-17670548D01*
X11284548Y-17670548D02*
X11294071Y-17680071D01*
X11294071Y-17680071D02*
X11303595Y-17699119D01*
X11303595Y-17699119D02*
X11303595Y-17718167D01*
X11303595Y-17718167D02*
X11294071Y-17746738D01*
X11294071Y-17746738D02*
X11179786Y-17861024D01*
X11179786Y-17861024D02*
X11303595Y-17861024D01*
X11427405Y-17661024D02*
X11446452Y-17661024D01*
X11446452Y-17661024D02*
X11465500Y-17670548D01*
X11465500Y-17670548D02*
X11475024Y-17680071D01*
X11475024Y-17680071D02*
X11484548Y-17699119D01*
X11484548Y-17699119D02*
X11494071Y-17737214D01*
X11494071Y-17737214D02*
X11494071Y-17784833D01*
X11494071Y-17784833D02*
X11484548Y-17822929D01*
X11484548Y-17822929D02*
X11475024Y-17841976D01*
X11475024Y-17841976D02*
X11465500Y-17851500D01*
X11465500Y-17851500D02*
X11446452Y-17861024D01*
X11446452Y-17861024D02*
X11427405Y-17861024D01*
X11427405Y-17861024D02*
X11408357Y-17851500D01*
X11408357Y-17851500D02*
X11398833Y-17841976D01*
X11398833Y-17841976D02*
X11389309Y-17822929D01*
X11389309Y-17822929D02*
X11379786Y-17784833D01*
X11379786Y-17784833D02*
X11379786Y-17737214D01*
X11379786Y-17737214D02*
X11389309Y-17699119D01*
X11389309Y-17699119D02*
X11398833Y-17680071D01*
X11398833Y-17680071D02*
X11408357Y-17670548D01*
X11408357Y-17670548D02*
X11427405Y-17661024D01*
X11617881Y-17661024D02*
X11636929Y-17661024D01*
X11636929Y-17661024D02*
X11655976Y-17670548D01*
X11655976Y-17670548D02*
X11665500Y-17680071D01*
X11665500Y-17680071D02*
X11675024Y-17699119D01*
X11675024Y-17699119D02*
X11684548Y-17737214D01*
X11684548Y-17737214D02*
X11684548Y-17784833D01*
X11684548Y-17784833D02*
X11675024Y-17822929D01*
X11675024Y-17822929D02*
X11665500Y-17841976D01*
X11665500Y-17841976D02*
X11655976Y-17851500D01*
X11655976Y-17851500D02*
X11636929Y-17861024D01*
X11636929Y-17861024D02*
X11617881Y-17861024D01*
X11617881Y-17861024D02*
X11598833Y-17851500D01*
X11598833Y-17851500D02*
X11589309Y-17841976D01*
X11589309Y-17841976D02*
X11579786Y-17822929D01*
X11579786Y-17822929D02*
X11570262Y-17784833D01*
X11570262Y-17784833D02*
X11570262Y-17737214D01*
X11570262Y-17737214D02*
X11579786Y-17699119D01*
X11579786Y-17699119D02*
X11589309Y-17680071D01*
X11589309Y-17680071D02*
X11598833Y-17670548D01*
X11598833Y-17670548D02*
X11617881Y-17661024D01*
X11770262Y-17861024D02*
X11770262Y-17727690D01*
X11770262Y-17746738D02*
X11779786Y-17737214D01*
X11779786Y-17737214D02*
X11798833Y-17727690D01*
X11798833Y-17727690D02*
X11827405Y-17727690D01*
X11827405Y-17727690D02*
X11846452Y-17737214D01*
X11846452Y-17737214D02*
X11855976Y-17756262D01*
X11855976Y-17756262D02*
X11855976Y-17861024D01*
X11855976Y-17756262D02*
X11865500Y-17737214D01*
X11865500Y-17737214D02*
X11884548Y-17727690D01*
X11884548Y-17727690D02*
X11913119Y-17727690D01*
X11913119Y-17727690D02*
X11932167Y-17737214D01*
X11932167Y-17737214D02*
X11941690Y-17756262D01*
X11941690Y-17756262D02*
X11941690Y-17861024D01*
X12036929Y-17861024D02*
X12036929Y-17727690D01*
X12036929Y-17746738D02*
X12046452Y-17737214D01*
X12046452Y-17737214D02*
X12065500Y-17727690D01*
X12065500Y-17727690D02*
X12094071Y-17727690D01*
X12094071Y-17727690D02*
X12113119Y-17737214D01*
X12113119Y-17737214D02*
X12122643Y-17756262D01*
X12122643Y-17756262D02*
X12122643Y-17861024D01*
X12122643Y-17756262D02*
X12132167Y-17737214D01*
X12132167Y-17737214D02*
X12151214Y-17727690D01*
X12151214Y-17727690D02*
X12179786Y-17727690D01*
X12179786Y-17727690D02*
X12198833Y-17737214D01*
X12198833Y-17737214D02*
X12208357Y-17756262D01*
X12208357Y-17756262D02*
X12208357Y-17861024D01*
X12598833Y-17651500D02*
X12427405Y-17908643D01*
X12855976Y-17661024D02*
X12875024Y-17661024D01*
X12875024Y-17661024D02*
X12894072Y-17670548D01*
X12894072Y-17670548D02*
X12903595Y-17680071D01*
X12903595Y-17680071D02*
X12913119Y-17699119D01*
X12913119Y-17699119D02*
X12922643Y-17737214D01*
X12922643Y-17737214D02*
X12922643Y-17784833D01*
X12922643Y-17784833D02*
X12913119Y-17822929D01*
X12913119Y-17822929D02*
X12903595Y-17841976D01*
X12903595Y-17841976D02*
X12894072Y-17851500D01*
X12894072Y-17851500D02*
X12875024Y-17861024D01*
X12875024Y-17861024D02*
X12855976Y-17861024D01*
X12855976Y-17861024D02*
X12836929Y-17851500D01*
X12836929Y-17851500D02*
X12827405Y-17841976D01*
X12827405Y-17841976D02*
X12817881Y-17822929D01*
X12817881Y-17822929D02*
X12808357Y-17784833D01*
X12808357Y-17784833D02*
X12808357Y-17737214D01*
X12808357Y-17737214D02*
X12817881Y-17699119D01*
X12817881Y-17699119D02*
X12827405Y-17680071D01*
X12827405Y-17680071D02*
X12836929Y-17670548D01*
X12836929Y-17670548D02*
X12855976Y-17661024D01*
X13008357Y-17841976D02*
X13017881Y-17851500D01*
X13017881Y-17851500D02*
X13008357Y-17861024D01*
X13008357Y-17861024D02*
X12998833Y-17851500D01*
X12998833Y-17851500D02*
X13008357Y-17841976D01*
X13008357Y-17841976D02*
X13008357Y-17861024D01*
X13141691Y-17661024D02*
X13160738Y-17661024D01*
X13160738Y-17661024D02*
X13179786Y-17670548D01*
X13179786Y-17670548D02*
X13189310Y-17680071D01*
X13189310Y-17680071D02*
X13198833Y-17699119D01*
X13198833Y-17699119D02*
X13208357Y-17737214D01*
X13208357Y-17737214D02*
X13208357Y-17784833D01*
X13208357Y-17784833D02*
X13198833Y-17822929D01*
X13198833Y-17822929D02*
X13189310Y-17841976D01*
X13189310Y-17841976D02*
X13179786Y-17851500D01*
X13179786Y-17851500D02*
X13160738Y-17861024D01*
X13160738Y-17861024D02*
X13141691Y-17861024D01*
X13141691Y-17861024D02*
X13122643Y-17851500D01*
X13122643Y-17851500D02*
X13113119Y-17841976D01*
X13113119Y-17841976D02*
X13103595Y-17822929D01*
X13103595Y-17822929D02*
X13094072Y-17784833D01*
X13094072Y-17784833D02*
X13094072Y-17737214D01*
X13094072Y-17737214D02*
X13103595Y-17699119D01*
X13103595Y-17699119D02*
X13113119Y-17680071D01*
X13113119Y-17680071D02*
X13122643Y-17670548D01*
X13122643Y-17670548D02*
X13141691Y-17661024D01*
X13322643Y-17746738D02*
X13303595Y-17737214D01*
X13303595Y-17737214D02*
X13294072Y-17727690D01*
X13294072Y-17727690D02*
X13284548Y-17708643D01*
X13284548Y-17708643D02*
X13284548Y-17699119D01*
X13284548Y-17699119D02*
X13294072Y-17680071D01*
X13294072Y-17680071D02*
X13303595Y-17670548D01*
X13303595Y-17670548D02*
X13322643Y-17661024D01*
X13322643Y-17661024D02*
X13360738Y-17661024D01*
X13360738Y-17661024D02*
X13379786Y-17670548D01*
X13379786Y-17670548D02*
X13389310Y-17680071D01*
X13389310Y-17680071D02*
X13398833Y-17699119D01*
X13398833Y-17699119D02*
X13398833Y-17708643D01*
X13398833Y-17708643D02*
X13389310Y-17727690D01*
X13389310Y-17727690D02*
X13379786Y-17737214D01*
X13379786Y-17737214D02*
X13360738Y-17746738D01*
X13360738Y-17746738D02*
X13322643Y-17746738D01*
X13322643Y-17746738D02*
X13303595Y-17756262D01*
X13303595Y-17756262D02*
X13294072Y-17765786D01*
X13294072Y-17765786D02*
X13284548Y-17784833D01*
X13284548Y-17784833D02*
X13284548Y-17822929D01*
X13284548Y-17822929D02*
X13294072Y-17841976D01*
X13294072Y-17841976D02*
X13303595Y-17851500D01*
X13303595Y-17851500D02*
X13322643Y-17861024D01*
X13322643Y-17861024D02*
X13360738Y-17861024D01*
X13360738Y-17861024D02*
X13379786Y-17851500D01*
X13379786Y-17851500D02*
X13389310Y-17841976D01*
X13389310Y-17841976D02*
X13398833Y-17822929D01*
X13398833Y-17822929D02*
X13398833Y-17784833D01*
X13398833Y-17784833D02*
X13389310Y-17765786D01*
X13389310Y-17765786D02*
X13379786Y-17756262D01*
X13379786Y-17756262D02*
X13360738Y-17746738D01*
X13570262Y-17661024D02*
X13532167Y-17661024D01*
X13532167Y-17661024D02*
X13513119Y-17670548D01*
X13513119Y-17670548D02*
X13503595Y-17680071D01*
X13503595Y-17680071D02*
X13484548Y-17708643D01*
X13484548Y-17708643D02*
X13475024Y-17746738D01*
X13475024Y-17746738D02*
X13475024Y-17822929D01*
X13475024Y-17822929D02*
X13484548Y-17841976D01*
X13484548Y-17841976D02*
X13494072Y-17851500D01*
X13494072Y-17851500D02*
X13513119Y-17861024D01*
X13513119Y-17861024D02*
X13551214Y-17861024D01*
X13551214Y-17861024D02*
X13570262Y-17851500D01*
X13570262Y-17851500D02*
X13579786Y-17841976D01*
X13579786Y-17841976D02*
X13589310Y-17822929D01*
X13589310Y-17822929D02*
X13589310Y-17775310D01*
X13589310Y-17775310D02*
X13579786Y-17756262D01*
X13579786Y-17756262D02*
X13570262Y-17746738D01*
X13570262Y-17746738D02*
X13551214Y-17737214D01*
X13551214Y-17737214D02*
X13513119Y-17737214D01*
X13513119Y-17737214D02*
X13494072Y-17746738D01*
X13494072Y-17746738D02*
X13484548Y-17756262D01*
X13484548Y-17756262D02*
X13475024Y-17775310D01*
X13760738Y-17661024D02*
X13722643Y-17661024D01*
X13722643Y-17661024D02*
X13703595Y-17670548D01*
X13703595Y-17670548D02*
X13694072Y-17680071D01*
X13694072Y-17680071D02*
X13675024Y-17708643D01*
X13675024Y-17708643D02*
X13665500Y-17746738D01*
X13665500Y-17746738D02*
X13665500Y-17822929D01*
X13665500Y-17822929D02*
X13675024Y-17841976D01*
X13675024Y-17841976D02*
X13684548Y-17851500D01*
X13684548Y-17851500D02*
X13703595Y-17861024D01*
X13703595Y-17861024D02*
X13741691Y-17861024D01*
X13741691Y-17861024D02*
X13760738Y-17851500D01*
X13760738Y-17851500D02*
X13770262Y-17841976D01*
X13770262Y-17841976D02*
X13779786Y-17822929D01*
X13779786Y-17822929D02*
X13779786Y-17775310D01*
X13779786Y-17775310D02*
X13770262Y-17756262D01*
X13770262Y-17756262D02*
X13760738Y-17746738D01*
X13760738Y-17746738D02*
X13741691Y-17737214D01*
X13741691Y-17737214D02*
X13703595Y-17737214D01*
X13703595Y-17737214D02*
X13684548Y-17746738D01*
X13684548Y-17746738D02*
X13675024Y-17756262D01*
X13675024Y-17756262D02*
X13665500Y-17775310D01*
X13855976Y-17661024D02*
X13855976Y-17699119D01*
X13932167Y-17661024D02*
X13932167Y-17699119D01*
X14227405Y-17937214D02*
X14217881Y-17927690D01*
X14217881Y-17927690D02*
X14198834Y-17899119D01*
X14198834Y-17899119D02*
X14189310Y-17880071D01*
X14189310Y-17880071D02*
X14179786Y-17851500D01*
X14179786Y-17851500D02*
X14170262Y-17803881D01*
X14170262Y-17803881D02*
X14170262Y-17765786D01*
X14170262Y-17765786D02*
X14179786Y-17718167D01*
X14179786Y-17718167D02*
X14189310Y-17689595D01*
X14189310Y-17689595D02*
X14198834Y-17670548D01*
X14198834Y-17670548D02*
X14217881Y-17641976D01*
X14217881Y-17641976D02*
X14227405Y-17632452D01*
X14294072Y-17680071D02*
X14303595Y-17670548D01*
X14303595Y-17670548D02*
X14322643Y-17661024D01*
X14322643Y-17661024D02*
X14370262Y-17661024D01*
X14370262Y-17661024D02*
X14389310Y-17670548D01*
X14389310Y-17670548D02*
X14398834Y-17680071D01*
X14398834Y-17680071D02*
X14408357Y-17699119D01*
X14408357Y-17699119D02*
X14408357Y-17718167D01*
X14408357Y-17718167D02*
X14398834Y-17746738D01*
X14398834Y-17746738D02*
X14284548Y-17861024D01*
X14284548Y-17861024D02*
X14408357Y-17861024D01*
X14646453Y-17861024D02*
X14646453Y-17661024D01*
X14732167Y-17861024D02*
X14732167Y-17756262D01*
X14732167Y-17756262D02*
X14722643Y-17737214D01*
X14722643Y-17737214D02*
X14703596Y-17727690D01*
X14703596Y-17727690D02*
X14675024Y-17727690D01*
X14675024Y-17727690D02*
X14655976Y-17737214D01*
X14655976Y-17737214D02*
X14646453Y-17746738D01*
X14855976Y-17861024D02*
X14836929Y-17851500D01*
X14836929Y-17851500D02*
X14827405Y-17841976D01*
X14827405Y-17841976D02*
X14817881Y-17822929D01*
X14817881Y-17822929D02*
X14817881Y-17765786D01*
X14817881Y-17765786D02*
X14827405Y-17746738D01*
X14827405Y-17746738D02*
X14836929Y-17737214D01*
X14836929Y-17737214D02*
X14855976Y-17727690D01*
X14855976Y-17727690D02*
X14884548Y-17727690D01*
X14884548Y-17727690D02*
X14903596Y-17737214D01*
X14903596Y-17737214D02*
X14913119Y-17746738D01*
X14913119Y-17746738D02*
X14922643Y-17765786D01*
X14922643Y-17765786D02*
X14922643Y-17822929D01*
X14922643Y-17822929D02*
X14913119Y-17841976D01*
X14913119Y-17841976D02*
X14903596Y-17851500D01*
X14903596Y-17851500D02*
X14884548Y-17861024D01*
X14884548Y-17861024D02*
X14855976Y-17861024D01*
X15036929Y-17861024D02*
X15017881Y-17851500D01*
X15017881Y-17851500D02*
X15008357Y-17832452D01*
X15008357Y-17832452D02*
X15008357Y-17661024D01*
X15189310Y-17851500D02*
X15170262Y-17861024D01*
X15170262Y-17861024D02*
X15132167Y-17861024D01*
X15132167Y-17861024D02*
X15113119Y-17851500D01*
X15113119Y-17851500D02*
X15103596Y-17832452D01*
X15103596Y-17832452D02*
X15103596Y-17756262D01*
X15103596Y-17756262D02*
X15113119Y-17737214D01*
X15113119Y-17737214D02*
X15132167Y-17727690D01*
X15132167Y-17727690D02*
X15170262Y-17727690D01*
X15170262Y-17727690D02*
X15189310Y-17737214D01*
X15189310Y-17737214D02*
X15198834Y-17756262D01*
X15198834Y-17756262D02*
X15198834Y-17775310D01*
X15198834Y-17775310D02*
X15103596Y-17794357D01*
X15275024Y-17851500D02*
X15294072Y-17861024D01*
X15294072Y-17861024D02*
X15332167Y-17861024D01*
X15332167Y-17861024D02*
X15351215Y-17851500D01*
X15351215Y-17851500D02*
X15360738Y-17832452D01*
X15360738Y-17832452D02*
X15360738Y-17822929D01*
X15360738Y-17822929D02*
X15351215Y-17803881D01*
X15351215Y-17803881D02*
X15332167Y-17794357D01*
X15332167Y-17794357D02*
X15303596Y-17794357D01*
X15303596Y-17794357D02*
X15284548Y-17784833D01*
X15284548Y-17784833D02*
X15275024Y-17765786D01*
X15275024Y-17765786D02*
X15275024Y-17756262D01*
X15275024Y-17756262D02*
X15284548Y-17737214D01*
X15284548Y-17737214D02*
X15303596Y-17727690D01*
X15303596Y-17727690D02*
X15332167Y-17727690D01*
X15332167Y-17727690D02*
X15351215Y-17737214D01*
X15427405Y-17937214D02*
X15436929Y-17927690D01*
X15436929Y-17927690D02*
X15455977Y-17899119D01*
X15455977Y-17899119D02*
X15465500Y-17880071D01*
X15465500Y-17880071D02*
X15475024Y-17851500D01*
X15475024Y-17851500D02*
X15484548Y-17803881D01*
X15484548Y-17803881D02*
X15484548Y-17765786D01*
X15484548Y-17765786D02*
X15475024Y-17718167D01*
X15475024Y-17718167D02*
X15465500Y-17689595D01*
X15465500Y-17689595D02*
X15455977Y-17670548D01*
X15455977Y-17670548D02*
X15436929Y-17641976D01*
X15436929Y-17641976D02*
X15427405Y-17632452D01*
X10565500Y-18188500D02*
X10665500Y-18088500D01*
X10565500Y-17988500D01*
X10465500Y-18088500D01*
X10565500Y-18188500D01*
X10665500Y-18088500D02*
G75*
G03*
X10665500Y-18088500I-100000J0D01*
G01*
X10894071Y-17981024D02*
X11017881Y-17981024D01*
X11017881Y-17981024D02*
X10951214Y-18057214D01*
X10951214Y-18057214D02*
X10979786Y-18057214D01*
X10979786Y-18057214D02*
X10998833Y-18066738D01*
X10998833Y-18066738D02*
X11008357Y-18076262D01*
X11008357Y-18076262D02*
X11017881Y-18095310D01*
X11017881Y-18095310D02*
X11017881Y-18142929D01*
X11017881Y-18142929D02*
X11008357Y-18161976D01*
X11008357Y-18161976D02*
X10998833Y-18171500D01*
X10998833Y-18171500D02*
X10979786Y-18181024D01*
X10979786Y-18181024D02*
X10922643Y-18181024D01*
X10922643Y-18181024D02*
X10903595Y-18171500D01*
X10903595Y-18171500D02*
X10894071Y-18161976D01*
X11103595Y-18161976D02*
X11113119Y-18171500D01*
X11113119Y-18171500D02*
X11103595Y-18181024D01*
X11103595Y-18181024D02*
X11094071Y-18171500D01*
X11094071Y-18171500D02*
X11103595Y-18161976D01*
X11103595Y-18161976D02*
X11103595Y-18181024D01*
X11189309Y-18000071D02*
X11198833Y-17990548D01*
X11198833Y-17990548D02*
X11217881Y-17981024D01*
X11217881Y-17981024D02*
X11265500Y-17981024D01*
X11265500Y-17981024D02*
X11284548Y-17990548D01*
X11284548Y-17990548D02*
X11294071Y-18000071D01*
X11294071Y-18000071D02*
X11303595Y-18019119D01*
X11303595Y-18019119D02*
X11303595Y-18038167D01*
X11303595Y-18038167D02*
X11294071Y-18066738D01*
X11294071Y-18066738D02*
X11179786Y-18181024D01*
X11179786Y-18181024D02*
X11303595Y-18181024D01*
X11427405Y-17981024D02*
X11446452Y-17981024D01*
X11446452Y-17981024D02*
X11465500Y-17990548D01*
X11465500Y-17990548D02*
X11475024Y-18000071D01*
X11475024Y-18000071D02*
X11484548Y-18019119D01*
X11484548Y-18019119D02*
X11494071Y-18057214D01*
X11494071Y-18057214D02*
X11494071Y-18104833D01*
X11494071Y-18104833D02*
X11484548Y-18142929D01*
X11484548Y-18142929D02*
X11475024Y-18161976D01*
X11475024Y-18161976D02*
X11465500Y-18171500D01*
X11465500Y-18171500D02*
X11446452Y-18181024D01*
X11446452Y-18181024D02*
X11427405Y-18181024D01*
X11427405Y-18181024D02*
X11408357Y-18171500D01*
X11408357Y-18171500D02*
X11398833Y-18161976D01*
X11398833Y-18161976D02*
X11389309Y-18142929D01*
X11389309Y-18142929D02*
X11379786Y-18104833D01*
X11379786Y-18104833D02*
X11379786Y-18057214D01*
X11379786Y-18057214D02*
X11389309Y-18019119D01*
X11389309Y-18019119D02*
X11398833Y-18000071D01*
X11398833Y-18000071D02*
X11408357Y-17990548D01*
X11408357Y-17990548D02*
X11427405Y-17981024D01*
X11617881Y-17981024D02*
X11636929Y-17981024D01*
X11636929Y-17981024D02*
X11655976Y-17990548D01*
X11655976Y-17990548D02*
X11665500Y-18000071D01*
X11665500Y-18000071D02*
X11675024Y-18019119D01*
X11675024Y-18019119D02*
X11684548Y-18057214D01*
X11684548Y-18057214D02*
X11684548Y-18104833D01*
X11684548Y-18104833D02*
X11675024Y-18142929D01*
X11675024Y-18142929D02*
X11665500Y-18161976D01*
X11665500Y-18161976D02*
X11655976Y-18171500D01*
X11655976Y-18171500D02*
X11636929Y-18181024D01*
X11636929Y-18181024D02*
X11617881Y-18181024D01*
X11617881Y-18181024D02*
X11598833Y-18171500D01*
X11598833Y-18171500D02*
X11589309Y-18161976D01*
X11589309Y-18161976D02*
X11579786Y-18142929D01*
X11579786Y-18142929D02*
X11570262Y-18104833D01*
X11570262Y-18104833D02*
X11570262Y-18057214D01*
X11570262Y-18057214D02*
X11579786Y-18019119D01*
X11579786Y-18019119D02*
X11589309Y-18000071D01*
X11589309Y-18000071D02*
X11598833Y-17990548D01*
X11598833Y-17990548D02*
X11617881Y-17981024D01*
X11770262Y-18181024D02*
X11770262Y-18047690D01*
X11770262Y-18066738D02*
X11779786Y-18057214D01*
X11779786Y-18057214D02*
X11798833Y-18047690D01*
X11798833Y-18047690D02*
X11827405Y-18047690D01*
X11827405Y-18047690D02*
X11846452Y-18057214D01*
X11846452Y-18057214D02*
X11855976Y-18076262D01*
X11855976Y-18076262D02*
X11855976Y-18181024D01*
X11855976Y-18076262D02*
X11865500Y-18057214D01*
X11865500Y-18057214D02*
X11884548Y-18047690D01*
X11884548Y-18047690D02*
X11913119Y-18047690D01*
X11913119Y-18047690D02*
X11932167Y-18057214D01*
X11932167Y-18057214D02*
X11941690Y-18076262D01*
X11941690Y-18076262D02*
X11941690Y-18181024D01*
X12036929Y-18181024D02*
X12036929Y-18047690D01*
X12036929Y-18066738D02*
X12046452Y-18057214D01*
X12046452Y-18057214D02*
X12065500Y-18047690D01*
X12065500Y-18047690D02*
X12094071Y-18047690D01*
X12094071Y-18047690D02*
X12113119Y-18057214D01*
X12113119Y-18057214D02*
X12122643Y-18076262D01*
X12122643Y-18076262D02*
X12122643Y-18181024D01*
X12122643Y-18076262D02*
X12132167Y-18057214D01*
X12132167Y-18057214D02*
X12151214Y-18047690D01*
X12151214Y-18047690D02*
X12179786Y-18047690D01*
X12179786Y-18047690D02*
X12198833Y-18057214D01*
X12198833Y-18057214D02*
X12208357Y-18076262D01*
X12208357Y-18076262D02*
X12208357Y-18181024D01*
X12598833Y-17971500D02*
X12427405Y-18228643D01*
X12855976Y-17981024D02*
X12875024Y-17981024D01*
X12875024Y-17981024D02*
X12894072Y-17990548D01*
X12894072Y-17990548D02*
X12903595Y-18000071D01*
X12903595Y-18000071D02*
X12913119Y-18019119D01*
X12913119Y-18019119D02*
X12922643Y-18057214D01*
X12922643Y-18057214D02*
X12922643Y-18104833D01*
X12922643Y-18104833D02*
X12913119Y-18142929D01*
X12913119Y-18142929D02*
X12903595Y-18161976D01*
X12903595Y-18161976D02*
X12894072Y-18171500D01*
X12894072Y-18171500D02*
X12875024Y-18181024D01*
X12875024Y-18181024D02*
X12855976Y-18181024D01*
X12855976Y-18181024D02*
X12836929Y-18171500D01*
X12836929Y-18171500D02*
X12827405Y-18161976D01*
X12827405Y-18161976D02*
X12817881Y-18142929D01*
X12817881Y-18142929D02*
X12808357Y-18104833D01*
X12808357Y-18104833D02*
X12808357Y-18057214D01*
X12808357Y-18057214D02*
X12817881Y-18019119D01*
X12817881Y-18019119D02*
X12827405Y-18000071D01*
X12827405Y-18000071D02*
X12836929Y-17990548D01*
X12836929Y-17990548D02*
X12855976Y-17981024D01*
X13008357Y-18161976D02*
X13017881Y-18171500D01*
X13017881Y-18171500D02*
X13008357Y-18181024D01*
X13008357Y-18181024D02*
X12998833Y-18171500D01*
X12998833Y-18171500D02*
X13008357Y-18161976D01*
X13008357Y-18161976D02*
X13008357Y-18181024D01*
X13208357Y-18181024D02*
X13094072Y-18181024D01*
X13151214Y-18181024D02*
X13151214Y-17981024D01*
X13151214Y-17981024D02*
X13132167Y-18009595D01*
X13132167Y-18009595D02*
X13113119Y-18028643D01*
X13113119Y-18028643D02*
X13094072Y-18038167D01*
X13284548Y-18000071D02*
X13294072Y-17990548D01*
X13294072Y-17990548D02*
X13313119Y-17981024D01*
X13313119Y-17981024D02*
X13360738Y-17981024D01*
X13360738Y-17981024D02*
X13379786Y-17990548D01*
X13379786Y-17990548D02*
X13389310Y-18000071D01*
X13389310Y-18000071D02*
X13398833Y-18019119D01*
X13398833Y-18019119D02*
X13398833Y-18038167D01*
X13398833Y-18038167D02*
X13389310Y-18066738D01*
X13389310Y-18066738D02*
X13275024Y-18181024D01*
X13275024Y-18181024D02*
X13398833Y-18181024D01*
X13570262Y-17981024D02*
X13532167Y-17981024D01*
X13532167Y-17981024D02*
X13513119Y-17990548D01*
X13513119Y-17990548D02*
X13503595Y-18000071D01*
X13503595Y-18000071D02*
X13484548Y-18028643D01*
X13484548Y-18028643D02*
X13475024Y-18066738D01*
X13475024Y-18066738D02*
X13475024Y-18142929D01*
X13475024Y-18142929D02*
X13484548Y-18161976D01*
X13484548Y-18161976D02*
X13494072Y-18171500D01*
X13494072Y-18171500D02*
X13513119Y-18181024D01*
X13513119Y-18181024D02*
X13551214Y-18181024D01*
X13551214Y-18181024D02*
X13570262Y-18171500D01*
X13570262Y-18171500D02*
X13579786Y-18161976D01*
X13579786Y-18161976D02*
X13589310Y-18142929D01*
X13589310Y-18142929D02*
X13589310Y-18095310D01*
X13589310Y-18095310D02*
X13579786Y-18076262D01*
X13579786Y-18076262D02*
X13570262Y-18066738D01*
X13570262Y-18066738D02*
X13551214Y-18057214D01*
X13551214Y-18057214D02*
X13513119Y-18057214D01*
X13513119Y-18057214D02*
X13494072Y-18066738D01*
X13494072Y-18066738D02*
X13484548Y-18076262D01*
X13484548Y-18076262D02*
X13475024Y-18095310D01*
X13713119Y-17981024D02*
X13732167Y-17981024D01*
X13732167Y-17981024D02*
X13751214Y-17990548D01*
X13751214Y-17990548D02*
X13760738Y-18000071D01*
X13760738Y-18000071D02*
X13770262Y-18019119D01*
X13770262Y-18019119D02*
X13779786Y-18057214D01*
X13779786Y-18057214D02*
X13779786Y-18104833D01*
X13779786Y-18104833D02*
X13770262Y-18142929D01*
X13770262Y-18142929D02*
X13760738Y-18161976D01*
X13760738Y-18161976D02*
X13751214Y-18171500D01*
X13751214Y-18171500D02*
X13732167Y-18181024D01*
X13732167Y-18181024D02*
X13713119Y-18181024D01*
X13713119Y-18181024D02*
X13694072Y-18171500D01*
X13694072Y-18171500D02*
X13684548Y-18161976D01*
X13684548Y-18161976D02*
X13675024Y-18142929D01*
X13675024Y-18142929D02*
X13665500Y-18104833D01*
X13665500Y-18104833D02*
X13665500Y-18057214D01*
X13665500Y-18057214D02*
X13675024Y-18019119D01*
X13675024Y-18019119D02*
X13684548Y-18000071D01*
X13684548Y-18000071D02*
X13694072Y-17990548D01*
X13694072Y-17990548D02*
X13713119Y-17981024D01*
X13855976Y-17981024D02*
X13855976Y-18019119D01*
X13932167Y-17981024D02*
X13932167Y-18019119D01*
X14227405Y-18257214D02*
X14217881Y-18247690D01*
X14217881Y-18247690D02*
X14198834Y-18219119D01*
X14198834Y-18219119D02*
X14189310Y-18200071D01*
X14189310Y-18200071D02*
X14179786Y-18171500D01*
X14179786Y-18171500D02*
X14170262Y-18123881D01*
X14170262Y-18123881D02*
X14170262Y-18085786D01*
X14170262Y-18085786D02*
X14179786Y-18038167D01*
X14179786Y-18038167D02*
X14189310Y-18009595D01*
X14189310Y-18009595D02*
X14198834Y-17990548D01*
X14198834Y-17990548D02*
X14217881Y-17961976D01*
X14217881Y-17961976D02*
X14227405Y-17952452D01*
X14389310Y-18047690D02*
X14389310Y-18181024D01*
X14341691Y-17971500D02*
X14294072Y-18114357D01*
X14294072Y-18114357D02*
X14417881Y-18114357D01*
X14646453Y-18181024D02*
X14646453Y-17981024D01*
X14732167Y-18181024D02*
X14732167Y-18076262D01*
X14732167Y-18076262D02*
X14722643Y-18057214D01*
X14722643Y-18057214D02*
X14703596Y-18047690D01*
X14703596Y-18047690D02*
X14675024Y-18047690D01*
X14675024Y-18047690D02*
X14655976Y-18057214D01*
X14655976Y-18057214D02*
X14646453Y-18066738D01*
X14855976Y-18181024D02*
X14836929Y-18171500D01*
X14836929Y-18171500D02*
X14827405Y-18161976D01*
X14827405Y-18161976D02*
X14817881Y-18142929D01*
X14817881Y-18142929D02*
X14817881Y-18085786D01*
X14817881Y-18085786D02*
X14827405Y-18066738D01*
X14827405Y-18066738D02*
X14836929Y-18057214D01*
X14836929Y-18057214D02*
X14855976Y-18047690D01*
X14855976Y-18047690D02*
X14884548Y-18047690D01*
X14884548Y-18047690D02*
X14903596Y-18057214D01*
X14903596Y-18057214D02*
X14913119Y-18066738D01*
X14913119Y-18066738D02*
X14922643Y-18085786D01*
X14922643Y-18085786D02*
X14922643Y-18142929D01*
X14922643Y-18142929D02*
X14913119Y-18161976D01*
X14913119Y-18161976D02*
X14903596Y-18171500D01*
X14903596Y-18171500D02*
X14884548Y-18181024D01*
X14884548Y-18181024D02*
X14855976Y-18181024D01*
X15036929Y-18181024D02*
X15017881Y-18171500D01*
X15017881Y-18171500D02*
X15008357Y-18152452D01*
X15008357Y-18152452D02*
X15008357Y-17981024D01*
X15189310Y-18171500D02*
X15170262Y-18181024D01*
X15170262Y-18181024D02*
X15132167Y-18181024D01*
X15132167Y-18181024D02*
X15113119Y-18171500D01*
X15113119Y-18171500D02*
X15103596Y-18152452D01*
X15103596Y-18152452D02*
X15103596Y-18076262D01*
X15103596Y-18076262D02*
X15113119Y-18057214D01*
X15113119Y-18057214D02*
X15132167Y-18047690D01*
X15132167Y-18047690D02*
X15170262Y-18047690D01*
X15170262Y-18047690D02*
X15189310Y-18057214D01*
X15189310Y-18057214D02*
X15198834Y-18076262D01*
X15198834Y-18076262D02*
X15198834Y-18095310D01*
X15198834Y-18095310D02*
X15103596Y-18114357D01*
X15275024Y-18171500D02*
X15294072Y-18181024D01*
X15294072Y-18181024D02*
X15332167Y-18181024D01*
X15332167Y-18181024D02*
X15351215Y-18171500D01*
X15351215Y-18171500D02*
X15360738Y-18152452D01*
X15360738Y-18152452D02*
X15360738Y-18142929D01*
X15360738Y-18142929D02*
X15351215Y-18123881D01*
X15351215Y-18123881D02*
X15332167Y-18114357D01*
X15332167Y-18114357D02*
X15303596Y-18114357D01*
X15303596Y-18114357D02*
X15284548Y-18104833D01*
X15284548Y-18104833D02*
X15275024Y-18085786D01*
X15275024Y-18085786D02*
X15275024Y-18076262D01*
X15275024Y-18076262D02*
X15284548Y-18057214D01*
X15284548Y-18057214D02*
X15303596Y-18047690D01*
X15303596Y-18047690D02*
X15332167Y-18047690D01*
X15332167Y-18047690D02*
X15351215Y-18057214D01*
X15427405Y-18257214D02*
X15436929Y-18247690D01*
X15436929Y-18247690D02*
X15455977Y-18219119D01*
X15455977Y-18219119D02*
X15465500Y-18200071D01*
X15465500Y-18200071D02*
X15475024Y-18171500D01*
X15475024Y-18171500D02*
X15484548Y-18123881D01*
X15484548Y-18123881D02*
X15484548Y-18085786D01*
X15484548Y-18085786D02*
X15475024Y-18038167D01*
X15475024Y-18038167D02*
X15465500Y-18009595D01*
X15465500Y-18009595D02*
X15455977Y-17990548D01*
X15455977Y-17990548D02*
X15436929Y-17961976D01*
X15436929Y-17961976D02*
X15427405Y-17952452D01*
M02*
