G04 #@! TF.GenerationSoftware,KiCad,Pcbnew,(6.0.9)*
G04 #@! TF.CreationDate,2022-12-10T11:16:03+01:00*
G04 #@! TF.ProjectId,IoT12 Power Supply,496f5431-3220-4506-9f77-657220537570,V1.2*
G04 #@! TF.SameCoordinates,Original*
G04 #@! TF.FileFunction,Copper,L1,Top*
G04 #@! TF.FilePolarity,Positive*
%FSLAX46Y46*%
G04 Gerber Fmt 4.6, Leading zero omitted, Abs format (unit mm)*
G04 Created by KiCad (PCBNEW (6.0.9)) date 2022-12-10 11:16:03*
%MOMM*%
%LPD*%
G01*
G04 APERTURE LIST*
G04 Aperture macros list*
%AMRoundRect*
0 Rectangle with rounded corners*
0 $1 Rounding radius*
0 $2 $3 $4 $5 $6 $7 $8 $9 X,Y pos of 4 corners*
0 Add a 4 corners polygon primitive as box body*
4,1,4,$2,$3,$4,$5,$6,$7,$8,$9,$2,$3,0*
0 Add four circle primitives for the rounded corners*
1,1,$1+$1,$2,$3*
1,1,$1+$1,$4,$5*
1,1,$1+$1,$6,$7*
1,1,$1+$1,$8,$9*
0 Add four rect primitives between the rounded corners*
20,1,$1+$1,$2,$3,$4,$5,0*
20,1,$1+$1,$4,$5,$6,$7,0*
20,1,$1+$1,$6,$7,$8,$9,0*
20,1,$1+$1,$8,$9,$2,$3,0*%
G04 Aperture macros list end*
G04 #@! TA.AperFunction,ComponentPad*
%ADD10C,1.700000*%
G04 #@! TD*
G04 #@! TA.AperFunction,ComponentPad*
%ADD11R,3.000000X3.000000*%
G04 #@! TD*
G04 #@! TA.AperFunction,ComponentPad*
%ADD12C,3.000000*%
G04 #@! TD*
G04 #@! TA.AperFunction,ComponentPad*
%ADD13RoundRect,0.250000X-0.600000X-0.725000X0.600000X-0.725000X0.600000X0.725000X-0.600000X0.725000X0*%
G04 #@! TD*
G04 #@! TA.AperFunction,ComponentPad*
%ADD14O,1.700000X1.950000*%
G04 #@! TD*
G04 #@! TA.AperFunction,ComponentPad*
%ADD15C,0.800000*%
G04 #@! TD*
G04 #@! TA.AperFunction,ComponentPad*
%ADD16C,6.400000*%
G04 #@! TD*
G04 #@! TA.AperFunction,ComponentPad*
%ADD17R,2.500000X2.500000*%
G04 #@! TD*
G04 #@! TA.AperFunction,ComponentPad*
%ADD18C,2.500000*%
G04 #@! TD*
G04 #@! TA.AperFunction,ComponentPad*
%ADD19C,4.000000*%
G04 #@! TD*
G04 #@! TA.AperFunction,ComponentPad*
%ADD20O,2.500000X2.500000*%
G04 #@! TD*
G04 #@! TA.AperFunction,SMDPad,CuDef*
%ADD21RoundRect,0.250000X-0.350000X-0.450000X0.350000X-0.450000X0.350000X0.450000X-0.350000X0.450000X0*%
G04 #@! TD*
G04 #@! TA.AperFunction,SMDPad,CuDef*
%ADD22R,2.500000X1.800000*%
G04 #@! TD*
G04 #@! TA.AperFunction,SMDPad,CuDef*
%ADD23RoundRect,0.250000X0.350000X0.450000X-0.350000X0.450000X-0.350000X-0.450000X0.350000X-0.450000X0*%
G04 #@! TD*
G04 #@! TA.AperFunction,SMDPad,CuDef*
%ADD24RoundRect,0.250000X0.337500X0.475000X-0.337500X0.475000X-0.337500X-0.475000X0.337500X-0.475000X0*%
G04 #@! TD*
G04 #@! TA.AperFunction,SMDPad,CuDef*
%ADD25RoundRect,0.250000X-1.500000X-0.550000X1.500000X-0.550000X1.500000X0.550000X-1.500000X0.550000X0*%
G04 #@! TD*
G04 #@! TA.AperFunction,SMDPad,CuDef*
%ADD26R,1.800000X2.500000*%
G04 #@! TD*
G04 #@! TA.AperFunction,SMDPad,CuDef*
%ADD27R,2.900000X5.400000*%
G04 #@! TD*
G04 #@! TA.AperFunction,ComponentPad*
%ADD28RoundRect,0.250000X-0.600000X-0.750000X0.600000X-0.750000X0.600000X0.750000X-0.600000X0.750000X0*%
G04 #@! TD*
G04 #@! TA.AperFunction,ComponentPad*
%ADD29O,1.700000X2.000000*%
G04 #@! TD*
G04 #@! TA.AperFunction,SMDPad,CuDef*
%ADD30RoundRect,0.250000X-0.450000X0.350000X-0.450000X-0.350000X0.450000X-0.350000X0.450000X0.350000X0*%
G04 #@! TD*
G04 #@! TA.AperFunction,SMDPad,CuDef*
%ADD31R,4.600000X1.100000*%
G04 #@! TD*
G04 #@! TA.AperFunction,SMDPad,CuDef*
%ADD32R,9.400000X10.800000*%
G04 #@! TD*
G04 #@! TA.AperFunction,SMDPad,CuDef*
%ADD33RoundRect,0.250000X0.450000X-0.325000X0.450000X0.325000X-0.450000X0.325000X-0.450000X-0.325000X0*%
G04 #@! TD*
G04 #@! TA.AperFunction,ComponentPad*
%ADD34C,1.800000*%
G04 #@! TD*
G04 #@! TA.AperFunction,ComponentPad*
%ADD35C,1.600000*%
G04 #@! TD*
G04 #@! TA.AperFunction,SMDPad,CuDef*
%ADD36RoundRect,0.250000X0.450000X-0.350000X0.450000X0.350000X-0.450000X0.350000X-0.450000X-0.350000X0*%
G04 #@! TD*
G04 #@! TA.AperFunction,SMDPad,CuDef*
%ADD37RoundRect,0.250000X1.500000X0.550000X-1.500000X0.550000X-1.500000X-0.550000X1.500000X-0.550000X0*%
G04 #@! TD*
G04 #@! TA.AperFunction,SMDPad,CuDef*
%ADD38RoundRect,0.150000X-0.150000X0.587500X-0.150000X-0.587500X0.150000X-0.587500X0.150000X0.587500X0*%
G04 #@! TD*
G04 #@! TA.AperFunction,SMDPad,CuDef*
%ADD39RoundRect,0.250000X-0.475000X0.337500X-0.475000X-0.337500X0.475000X-0.337500X0.475000X0.337500X0*%
G04 #@! TD*
G04 #@! TA.AperFunction,ViaPad*
%ADD40C,1.600000*%
G04 #@! TD*
G04 #@! TA.AperFunction,ViaPad*
%ADD41C,0.800000*%
G04 #@! TD*
G04 #@! TA.AperFunction,Conductor*
%ADD42C,0.440000*%
G04 #@! TD*
G04 #@! TA.AperFunction,Conductor*
%ADD43C,1.000000*%
G04 #@! TD*
G04 APERTURE END LIST*
D10*
X189270000Y-120050000D03*
X194270000Y-121250000D03*
D11*
X132080000Y-58420000D03*
D12*
X127000000Y-58420000D03*
X121920000Y-58420000D03*
D13*
X153750000Y-132080000D03*
D14*
X156250000Y-132080000D03*
X158750000Y-132080000D03*
X161250000Y-132080000D03*
D15*
X191342944Y-56722944D03*
X194737056Y-60117056D03*
X193040000Y-60820000D03*
X194737056Y-56722944D03*
D16*
X193040000Y-58420000D03*
D15*
X190640000Y-58420000D03*
X193040000Y-56020000D03*
X191342944Y-60117056D03*
X195440000Y-58420000D03*
X195440000Y-139700000D03*
X193040000Y-142100000D03*
X194737056Y-141397056D03*
D16*
X193040000Y-139700000D03*
D15*
X190640000Y-139700000D03*
X191342944Y-138002944D03*
X193040000Y-137300000D03*
X194737056Y-138002944D03*
X191342944Y-141397056D03*
X111760000Y-60820000D03*
X111760000Y-56020000D03*
X113457056Y-56722944D03*
X110062944Y-60117056D03*
X113457056Y-60117056D03*
X110062944Y-56722944D03*
X109360000Y-58420000D03*
X114160000Y-58420000D03*
D16*
X111760000Y-58420000D03*
D15*
X111760000Y-137300000D03*
X113457056Y-138002944D03*
X113457056Y-141397056D03*
X109360000Y-139700000D03*
D16*
X111760000Y-139700000D03*
D15*
X110062944Y-138002944D03*
X110062944Y-141397056D03*
X111760000Y-142100000D03*
X114160000Y-139700000D03*
D17*
X114198400Y-75914200D03*
D18*
X114198400Y-69164200D03*
D19*
X190198400Y-110414200D03*
X190198400Y-104914200D03*
D17*
X177800000Y-122182500D03*
D20*
X171800000Y-124182500D03*
X171800000Y-136382500D03*
X183800000Y-136382500D03*
X183800000Y-124182500D03*
D21*
X165370000Y-58420000D03*
X167370000Y-58420000D03*
D22*
X189770000Y-130810000D03*
X193770000Y-130810000D03*
D21*
X170720000Y-58420000D03*
X172720000Y-58420000D03*
D23*
X129270000Y-118745000D03*
X127270000Y-118745000D03*
D24*
X129307500Y-123825000D03*
X127232500Y-123825000D03*
D22*
X126270000Y-127000000D03*
X130270000Y-127000000D03*
D23*
X129270000Y-121285000D03*
X127270000Y-121285000D03*
D25*
X134460000Y-123190000D03*
X139860000Y-123190000D03*
D26*
X165100000Y-121190000D03*
X165100000Y-125190000D03*
D27*
X124590000Y-135890000D03*
X134490000Y-135890000D03*
D28*
X140970000Y-132080000D03*
D29*
X143470000Y-132080000D03*
D30*
X148590000Y-122385000D03*
X148590000Y-124385000D03*
D31*
X121345000Y-126590000D03*
X121345000Y-124890000D03*
X121345000Y-123190000D03*
D32*
X112195000Y-123190000D03*
D31*
X121345000Y-121490000D03*
X121345000Y-119790000D03*
D33*
X156210000Y-128025000D03*
X156210000Y-125975000D03*
D21*
X175530000Y-58420000D03*
X177530000Y-58420000D03*
D34*
X143860000Y-57360000D03*
X151360000Y-59360000D03*
D33*
X153670000Y-128025000D03*
X153670000Y-125975000D03*
D35*
X189270000Y-125080000D03*
X194270000Y-126380000D03*
D30*
X153670000Y-120920000D03*
X153670000Y-122920000D03*
D36*
X151130000Y-124385000D03*
X151130000Y-122385000D03*
D30*
X156210000Y-120920000D03*
X156210000Y-122920000D03*
D37*
X120175000Y-132715000D03*
X114775000Y-132715000D03*
D38*
X145730000Y-122447500D03*
X143830000Y-122447500D03*
X144780000Y-124322500D03*
D39*
X120650000Y-138662500D03*
X120650000Y-140737500D03*
D40*
X132080000Y-118745000D03*
X125095000Y-123190000D03*
X117475000Y-135255000D03*
D41*
X153797000Y-130175000D03*
D40*
X177800000Y-130810000D03*
X129540000Y-140335000D03*
X188595000Y-142875000D03*
X129540000Y-131445000D03*
X149225000Y-128905000D03*
X117475000Y-130175000D03*
X195580000Y-133985000D03*
X117475000Y-115570000D03*
X125095000Y-119380000D03*
X167005000Y-134620000D03*
X120650000Y-142875000D03*
X141605000Y-120650000D03*
X191135000Y-123190000D03*
X132715000Y-125095000D03*
D41*
X163829999Y-126999999D03*
X140970000Y-127000000D03*
X161925000Y-125730000D03*
X151130000Y-125730000D03*
D42*
X132080000Y-66040000D02*
X135890000Y-69850000D01*
X135890000Y-69850000D02*
X154940000Y-69850000D01*
X154940000Y-69850000D02*
X160020000Y-64770000D01*
X162560000Y-58420000D02*
X165100000Y-58420000D01*
X160020000Y-60960000D02*
X162560000Y-58420000D01*
X160020000Y-64770000D02*
X160020000Y-60960000D01*
X132080000Y-58420000D02*
X132080000Y-66040000D01*
X180340000Y-101600000D02*
X183654200Y-104914200D01*
X177530000Y-58420000D02*
X179070000Y-58420000D01*
X179070000Y-58420000D02*
X180340000Y-59690000D01*
X183654200Y-104914200D02*
X190198400Y-104914200D01*
X180340000Y-59690000D02*
X180340000Y-101600000D01*
D43*
X121345000Y-130115000D02*
X121345000Y-126590000D01*
X120175000Y-131285000D02*
X121345000Y-130115000D01*
X120175000Y-132715000D02*
X120175000Y-131285000D01*
X120650000Y-135890000D02*
X120650000Y-138662500D01*
X189770000Y-135985000D02*
X182880000Y-142875000D01*
X182880000Y-142875000D02*
X125971752Y-142875000D01*
X125971752Y-142875000D02*
X121759252Y-138662500D01*
X121759252Y-138662500D02*
X120650000Y-138662500D01*
X189770000Y-130810000D02*
X189770000Y-135985000D01*
X120175000Y-135415000D02*
X120650000Y-135890000D01*
X120175000Y-132715000D02*
X120175000Y-135415000D01*
D42*
X153670000Y-122920000D02*
X153670000Y-125975000D01*
D43*
X134490000Y-135890000D02*
X134490000Y-123220000D01*
D42*
X156210000Y-120920000D02*
X157480000Y-122190000D01*
D43*
X131445000Y-123190000D02*
X130810000Y-123825000D01*
D42*
X129270000Y-123787500D02*
X129307500Y-123825000D01*
X157480000Y-122190000D02*
X157480000Y-130850000D01*
X157480000Y-130850000D02*
X156250000Y-132080000D01*
D43*
X154415000Y-135890000D02*
X156250000Y-134055000D01*
X134490000Y-135890000D02*
X154415000Y-135890000D01*
X134490000Y-123220000D02*
X134460000Y-123190000D01*
X130810000Y-123825000D02*
X129307500Y-123825000D01*
X134460000Y-123190000D02*
X131445000Y-123190000D01*
D42*
X129270000Y-121285000D02*
X129270000Y-123787500D01*
D43*
X156250000Y-134055000D02*
X156250000Y-132080000D01*
D42*
X177800000Y-122182500D02*
X175668750Y-122182500D01*
X173668750Y-124182500D02*
X171800000Y-124182500D01*
X166906250Y-121190000D02*
X169898750Y-124182500D01*
X165100000Y-121190000D02*
X166906250Y-121190000D01*
X175668750Y-122182500D02*
X173668750Y-124182500D01*
X169898750Y-124182500D02*
X171800000Y-124182500D01*
X167100000Y-125190000D02*
X165100000Y-125190000D01*
X181887500Y-124182500D02*
X179705000Y-126365000D01*
X140970000Y-132080000D02*
X140970000Y-127000000D01*
X165100000Y-125190000D02*
X165100000Y-125729998D01*
X165100000Y-125729998D02*
X163829999Y-126999999D01*
X183800000Y-124182500D02*
X181887500Y-124182500D01*
X179705000Y-126365000D02*
X168275000Y-126365000D01*
X168275000Y-126365000D02*
X167100000Y-125190000D01*
X144780000Y-127000000D02*
X143470000Y-128310000D01*
X143470000Y-128310000D02*
X143470000Y-132080000D01*
X144780000Y-124322500D02*
X144780000Y-127000000D01*
X148527500Y-122447500D02*
X148590000Y-122385000D01*
X145730000Y-122447500D02*
X148527500Y-122447500D01*
X152400000Y-122190000D02*
X152400000Y-130730000D01*
X153670000Y-120920000D02*
X152400000Y-122190000D01*
X152400000Y-130730000D02*
X153750000Y-132080000D01*
D43*
X189270000Y-125405000D02*
X193770000Y-129905000D01*
X193770000Y-129905000D02*
X193770000Y-130810000D01*
X189270000Y-125080000D02*
X189270000Y-125405000D01*
X126270000Y-130270000D02*
X126270000Y-127000000D01*
X126270000Y-125952500D02*
X126270000Y-127000000D01*
X121345000Y-124890000D02*
X125207500Y-124890000D01*
X124590000Y-131950000D02*
X126270000Y-130270000D01*
X124590000Y-135890000D02*
X124590000Y-131950000D01*
X125207500Y-124890000D02*
X126270000Y-125952500D01*
D42*
X156210000Y-122920000D02*
X156210000Y-125975000D01*
X170720000Y-58420000D02*
X167370000Y-58420000D01*
X175530000Y-58420000D02*
X172720000Y-58420000D01*
X127270000Y-118745000D02*
X127270000Y-121285000D01*
X121345000Y-121490000D02*
X124890000Y-121490000D01*
X125095000Y-121285000D02*
X127270000Y-121285000D01*
X124890000Y-121490000D02*
X125095000Y-121285000D01*
X161250000Y-132080000D02*
X161250000Y-126405000D01*
X161250000Y-126405000D02*
X161925000Y-125730000D01*
X151130000Y-124385000D02*
X151130000Y-125730000D01*
X151130000Y-124385000D02*
X149935000Y-124385000D01*
X149935000Y-124385000D02*
X148590000Y-124385000D01*
G04 #@! TA.AperFunction,Conductor*
G36*
X197553621Y-64155002D02*
G01*
X197600114Y-64208658D01*
X197611500Y-64261000D01*
X197611500Y-139650633D01*
X197610000Y-139670018D01*
X197607690Y-139684851D01*
X197607690Y-139684855D01*
X197606309Y-139693724D01*
X197608984Y-139714183D01*
X197609928Y-139736008D01*
X197595291Y-140071243D01*
X197594344Y-140092936D01*
X197593386Y-140103886D01*
X197542767Y-140488379D01*
X197540858Y-140499205D01*
X197456920Y-140877822D01*
X197454075Y-140888439D01*
X197415869Y-141009615D01*
X197343986Y-141237600D01*
X197337461Y-141258294D01*
X197333705Y-141268615D01*
X197215409Y-141554208D01*
X197185289Y-141626923D01*
X197180647Y-141636876D01*
X197061113Y-141866500D01*
X197001577Y-141980867D01*
X196996081Y-141990387D01*
X196787708Y-142317468D01*
X196781403Y-142326472D01*
X196545322Y-142634138D01*
X196538257Y-142642558D01*
X196287638Y-142916062D01*
X196276256Y-142928483D01*
X196268483Y-142936256D01*
X195982558Y-143198257D01*
X195974138Y-143205322D01*
X195666472Y-143441403D01*
X195657468Y-143447708D01*
X195330387Y-143656081D01*
X195320868Y-143661576D01*
X194976876Y-143840647D01*
X194966932Y-143845285D01*
X194608615Y-143993705D01*
X194598302Y-143997458D01*
X194398702Y-144060392D01*
X194228439Y-144114075D01*
X194217822Y-144116920D01*
X193839205Y-144200858D01*
X193828379Y-144202767D01*
X193443886Y-144253386D01*
X193432937Y-144254344D01*
X193083446Y-144269603D01*
X193058571Y-144268223D01*
X193046276Y-144266309D01*
X193037374Y-144267473D01*
X193037372Y-144267473D01*
X193022323Y-144269441D01*
X193014714Y-144270436D01*
X192998379Y-144271500D01*
X111809367Y-144271500D01*
X111789982Y-144270000D01*
X111775149Y-144267690D01*
X111775145Y-144267690D01*
X111766276Y-144266309D01*
X111745817Y-144268984D01*
X111723992Y-144269928D01*
X111367063Y-144254344D01*
X111356114Y-144253386D01*
X110971621Y-144202767D01*
X110960795Y-144200858D01*
X110582178Y-144116920D01*
X110571561Y-144114075D01*
X110401298Y-144060392D01*
X110201698Y-143997458D01*
X110191385Y-143993705D01*
X109833068Y-143845285D01*
X109823124Y-143840647D01*
X109479132Y-143661576D01*
X109469613Y-143656081D01*
X109142532Y-143447708D01*
X109133528Y-143441403D01*
X108825862Y-143205322D01*
X108817442Y-143198257D01*
X108531517Y-142936256D01*
X108523744Y-142928483D01*
X108512363Y-142916062D01*
X108261743Y-142642558D01*
X108254678Y-142634138D01*
X108018597Y-142326472D01*
X108012292Y-142317468D01*
X107803919Y-141990387D01*
X107798423Y-141980867D01*
X107738887Y-141866500D01*
X107619353Y-141636876D01*
X107614711Y-141626923D01*
X107584592Y-141554208D01*
X107466295Y-141268615D01*
X107462539Y-141258294D01*
X107456015Y-141237600D01*
X107384131Y-141009615D01*
X107345925Y-140888439D01*
X107343080Y-140877822D01*
X107259142Y-140499205D01*
X107257233Y-140488379D01*
X107206614Y-140103886D01*
X107205656Y-140092936D01*
X107204709Y-140071243D01*
X107190561Y-139747206D01*
X107192188Y-139720805D01*
X107192769Y-139717352D01*
X107192770Y-139717345D01*
X107193576Y-139712552D01*
X107193729Y-139700000D01*
X108046411Y-139700000D01*
X108066754Y-140088176D01*
X108067267Y-140091416D01*
X108067268Y-140091424D01*
X108068378Y-140098432D01*
X108127562Y-140472099D01*
X108228167Y-140847562D01*
X108367468Y-141210453D01*
X108368966Y-141213393D01*
X108536278Y-141541760D01*
X108543938Y-141556794D01*
X108545734Y-141559560D01*
X108545736Y-141559563D01*
X108681721Y-141768963D01*
X108755643Y-141882793D01*
X109000266Y-142184876D01*
X109275124Y-142459734D01*
X109577207Y-142704357D01*
X109903205Y-142916062D01*
X109906139Y-142917557D01*
X109906146Y-142917561D01*
X110246607Y-143091034D01*
X110249547Y-143092532D01*
X110470547Y-143177366D01*
X110543375Y-143205322D01*
X110612438Y-143231833D01*
X110987901Y-143332438D01*
X111191793Y-143364732D01*
X111368576Y-143392732D01*
X111368584Y-143392733D01*
X111371824Y-143393246D01*
X111760000Y-143413589D01*
X112148176Y-143393246D01*
X112151416Y-143392733D01*
X112151424Y-143392732D01*
X112328207Y-143364732D01*
X112532099Y-143332438D01*
X112907562Y-143231833D01*
X112976626Y-143205322D01*
X113049453Y-143177366D01*
X113270453Y-143092532D01*
X113273393Y-143091034D01*
X113613854Y-142917561D01*
X113613861Y-142917557D01*
X113616795Y-142916062D01*
X113942793Y-142704357D01*
X114244876Y-142459734D01*
X114519734Y-142184876D01*
X114764357Y-141882793D01*
X114838279Y-141768963D01*
X114974264Y-141559563D01*
X114974266Y-141559560D01*
X114976062Y-141556794D01*
X114983723Y-141541760D01*
X115151034Y-141213393D01*
X115152532Y-141210453D01*
X115186450Y-141122095D01*
X119417001Y-141122095D01*
X119417338Y-141128614D01*
X119427257Y-141224206D01*
X119430149Y-141237600D01*
X119481588Y-141391784D01*
X119487761Y-141404962D01*
X119573063Y-141542807D01*
X119582099Y-141554208D01*
X119696829Y-141668739D01*
X119708240Y-141677751D01*
X119846243Y-141762816D01*
X119859424Y-141768963D01*
X120013710Y-141820138D01*
X120027086Y-141823005D01*
X120121438Y-141832672D01*
X120127854Y-141833000D01*
X120377885Y-141833000D01*
X120393124Y-141828525D01*
X120394329Y-141827135D01*
X120396000Y-141819452D01*
X120396000Y-141814884D01*
X120904000Y-141814884D01*
X120908475Y-141830123D01*
X120909865Y-141831328D01*
X120917548Y-141832999D01*
X121172095Y-141832999D01*
X121178614Y-141832662D01*
X121274206Y-141822743D01*
X121287600Y-141819851D01*
X121441784Y-141768412D01*
X121454962Y-141762239D01*
X121592807Y-141676937D01*
X121604208Y-141667901D01*
X121718739Y-141553171D01*
X121727751Y-141541760D01*
X121812816Y-141403757D01*
X121818963Y-141390576D01*
X121870138Y-141236290D01*
X121873005Y-141222914D01*
X121882672Y-141128562D01*
X121883000Y-141122146D01*
X121883000Y-141009615D01*
X121878525Y-140994376D01*
X121877135Y-140993171D01*
X121869452Y-140991500D01*
X120922115Y-140991500D01*
X120906876Y-140995975D01*
X120905671Y-140997365D01*
X120904000Y-141005048D01*
X120904000Y-141814884D01*
X120396000Y-141814884D01*
X120396000Y-141009615D01*
X120391525Y-140994376D01*
X120390135Y-140993171D01*
X120382452Y-140991500D01*
X119435116Y-140991500D01*
X119419877Y-140995975D01*
X119418672Y-140997365D01*
X119417001Y-141005048D01*
X119417001Y-141122095D01*
X115186450Y-141122095D01*
X115291833Y-140847562D01*
X115392438Y-140472099D01*
X115451622Y-140098432D01*
X115452732Y-140091424D01*
X115452733Y-140091416D01*
X115453246Y-140088176D01*
X115473589Y-139700000D01*
X115453246Y-139311824D01*
X115429628Y-139162704D01*
X115418524Y-139092598D01*
X115392438Y-138927901D01*
X115291833Y-138552438D01*
X115152532Y-138189547D01*
X115124626Y-138134778D01*
X114977561Y-137846147D01*
X114977557Y-137846140D01*
X114976062Y-137843206D01*
X114963446Y-137823778D01*
X114766152Y-137519971D01*
X114766152Y-137519970D01*
X114764357Y-137517207D01*
X114519734Y-137215124D01*
X114244876Y-136940266D01*
X114198594Y-136902787D01*
X113997570Y-136740001D01*
X113942793Y-136695643D01*
X113857289Y-136640116D01*
X113619564Y-136485736D01*
X113619561Y-136485734D01*
X113616795Y-136483938D01*
X113613861Y-136482443D01*
X113613854Y-136482439D01*
X113273393Y-136308966D01*
X113270453Y-136307468D01*
X113049453Y-136222634D01*
X112910652Y-136169353D01*
X112910650Y-136169352D01*
X112907562Y-136168167D01*
X112532099Y-136067562D01*
X112328207Y-136035268D01*
X112151424Y-136007268D01*
X112151416Y-136007267D01*
X112148176Y-136006754D01*
X111760000Y-135986411D01*
X111371824Y-136006754D01*
X111368584Y-136007267D01*
X111368576Y-136007268D01*
X111191793Y-136035268D01*
X110987901Y-136067562D01*
X110612438Y-136168167D01*
X110609350Y-136169352D01*
X110609348Y-136169353D01*
X110470547Y-136222634D01*
X110249547Y-136307468D01*
X110246607Y-136308966D01*
X109906147Y-136482439D01*
X109906140Y-136482443D01*
X109903206Y-136483938D01*
X109900440Y-136485734D01*
X109900437Y-136485736D01*
X109657867Y-136643262D01*
X109577207Y-136695643D01*
X109522430Y-136740001D01*
X109321407Y-136902787D01*
X109275124Y-136940266D01*
X109000266Y-137215124D01*
X108755643Y-137517207D01*
X108753848Y-137519970D01*
X108753848Y-137519971D01*
X108556555Y-137823778D01*
X108543938Y-137843206D01*
X108542443Y-137846140D01*
X108542439Y-137846147D01*
X108395374Y-138134778D01*
X108367468Y-138189547D01*
X108228167Y-138552438D01*
X108127562Y-138927901D01*
X108101476Y-139092598D01*
X108090373Y-139162704D01*
X108066754Y-139311824D01*
X108046411Y-139700000D01*
X107193729Y-139700000D01*
X107189773Y-139672376D01*
X107188500Y-139654514D01*
X107188500Y-133312095D01*
X112517001Y-133312095D01*
X112517338Y-133318614D01*
X112527257Y-133414206D01*
X112530149Y-133427600D01*
X112581588Y-133581784D01*
X112587761Y-133594962D01*
X112673063Y-133732807D01*
X112682099Y-133744208D01*
X112796829Y-133858739D01*
X112808240Y-133867751D01*
X112946243Y-133952816D01*
X112959424Y-133958963D01*
X113113710Y-134010138D01*
X113127086Y-134013005D01*
X113221438Y-134022672D01*
X113227854Y-134023000D01*
X114502885Y-134023000D01*
X114518124Y-134018525D01*
X114519329Y-134017135D01*
X114521000Y-134009452D01*
X114521000Y-134004884D01*
X115029000Y-134004884D01*
X115033475Y-134020123D01*
X115034865Y-134021328D01*
X115042548Y-134022999D01*
X116322095Y-134022999D01*
X116328614Y-134022662D01*
X116424206Y-134012743D01*
X116437600Y-134009851D01*
X116591784Y-133958412D01*
X116604962Y-133952239D01*
X116742807Y-133866937D01*
X116754208Y-133857901D01*
X116868739Y-133743171D01*
X116877751Y-133731760D01*
X116962816Y-133593757D01*
X116968963Y-133580576D01*
X117020138Y-133426290D01*
X117023005Y-133412914D01*
X117032672Y-133318562D01*
X117032834Y-133315400D01*
X117916500Y-133315400D01*
X117916837Y-133318646D01*
X117916837Y-133318650D01*
X117926752Y-133414206D01*
X117927474Y-133421166D01*
X117929655Y-133427702D01*
X117929655Y-133427704D01*
X117965988Y-133536607D01*
X117983450Y-133588946D01*
X118076522Y-133739348D01*
X118201697Y-133864305D01*
X118207927Y-133868145D01*
X118207928Y-133868146D01*
X118345288Y-133952816D01*
X118352262Y-133957115D01*
X118432005Y-133983564D01*
X118513611Y-134010632D01*
X118513613Y-134010632D01*
X118520139Y-134012797D01*
X118526975Y-134013497D01*
X118526978Y-134013498D01*
X118570031Y-134017909D01*
X118624600Y-134023500D01*
X119040500Y-134023500D01*
X119108621Y-134043502D01*
X119155114Y-134097158D01*
X119166500Y-134149500D01*
X119166500Y-135353157D01*
X119165763Y-135366764D01*
X119162544Y-135396402D01*
X119161676Y-135404388D01*
X119162213Y-135410523D01*
X119166050Y-135454388D01*
X119166379Y-135459214D01*
X119166500Y-135461686D01*
X119166500Y-135464769D01*
X119166801Y-135467837D01*
X119170690Y-135507506D01*
X119170812Y-135508819D01*
X119174685Y-135553084D01*
X119178913Y-135601413D01*
X119180400Y-135606532D01*
X119180920Y-135611833D01*
X119207791Y-135700834D01*
X119208126Y-135701967D01*
X119208950Y-135704801D01*
X119234091Y-135791336D01*
X119236544Y-135796068D01*
X119238084Y-135801169D01*
X119240978Y-135806612D01*
X119281731Y-135883260D01*
X119282343Y-135884426D01*
X119309584Y-135936978D01*
X119325108Y-135966926D01*
X119328431Y-135971089D01*
X119330934Y-135975796D01*
X119389755Y-136047918D01*
X119390446Y-136048774D01*
X119421738Y-136087973D01*
X119424242Y-136090477D01*
X119424884Y-136091195D01*
X119428585Y-136095528D01*
X119455935Y-136129062D01*
X119460682Y-136132989D01*
X119460684Y-136132991D01*
X119491262Y-136158287D01*
X119500042Y-136166277D01*
X119604595Y-136270830D01*
X119638621Y-136333142D01*
X119641500Y-136359925D01*
X119641500Y-137733650D01*
X119621498Y-137801771D01*
X119604674Y-137822667D01*
X119586935Y-137840437D01*
X119575695Y-137851697D01*
X119571855Y-137857927D01*
X119571854Y-137857928D01*
X119491498Y-137988290D01*
X119482885Y-138002262D01*
X119456436Y-138082005D01*
X119435589Y-138144857D01*
X119427203Y-138170139D01*
X119426503Y-138176975D01*
X119426502Y-138176978D01*
X119425214Y-138189547D01*
X119416500Y-138274600D01*
X119416500Y-139050400D01*
X119416837Y-139053646D01*
X119416837Y-139053650D01*
X119421491Y-139098500D01*
X119427474Y-139156166D01*
X119483450Y-139323946D01*
X119576522Y-139474348D01*
X119701697Y-139599305D01*
X119706235Y-139602102D01*
X119746824Y-139659353D01*
X119750054Y-139730276D01*
X119714428Y-139791687D01*
X119705932Y-139799062D01*
X119695793Y-139807098D01*
X119581261Y-139921829D01*
X119572249Y-139933240D01*
X119487184Y-140071243D01*
X119481037Y-140084424D01*
X119429862Y-140238710D01*
X119426995Y-140252086D01*
X119417328Y-140346438D01*
X119417000Y-140352855D01*
X119417000Y-140465385D01*
X119421475Y-140480624D01*
X119422865Y-140481829D01*
X119430548Y-140483500D01*
X121864884Y-140483500D01*
X121880123Y-140479025D01*
X121886949Y-140471148D01*
X121913975Y-140421651D01*
X121976286Y-140387625D01*
X122047102Y-140392688D01*
X122092167Y-140421650D01*
X125214897Y-143544379D01*
X125223999Y-143554522D01*
X125247720Y-143584025D01*
X125252448Y-143587992D01*
X125286173Y-143616291D01*
X125289822Y-143619473D01*
X125291635Y-143621117D01*
X125293827Y-143623309D01*
X125327028Y-143650580D01*
X125327916Y-143651318D01*
X125340143Y-143661577D01*
X125394505Y-143707193D01*
X125394508Y-143707195D01*
X125399226Y-143711154D01*
X125403899Y-143713723D01*
X125408014Y-143717103D01*
X125413443Y-143720014D01*
X125413446Y-143720016D01*
X125489932Y-143761028D01*
X125491090Y-143761657D01*
X125567140Y-143803465D01*
X125572539Y-143806433D01*
X125577617Y-143808044D01*
X125582315Y-143810563D01*
X125671250Y-143837753D01*
X125672454Y-143838128D01*
X125761058Y-143866235D01*
X125766349Y-143866828D01*
X125771450Y-143868388D01*
X125864063Y-143877795D01*
X125865183Y-143877915D01*
X125914979Y-143883500D01*
X125918508Y-143883500D01*
X125919491Y-143883555D01*
X125925178Y-143884003D01*
X125945435Y-143886060D01*
X125962088Y-143887752D01*
X125962091Y-143887752D01*
X125968215Y-143888374D01*
X126013864Y-143884059D01*
X126025721Y-143883500D01*
X182818157Y-143883500D01*
X182831764Y-143884237D01*
X182863262Y-143887659D01*
X182863267Y-143887659D01*
X182869388Y-143888324D01*
X182895638Y-143886027D01*
X182919388Y-143883950D01*
X182924214Y-143883621D01*
X182926686Y-143883500D01*
X182929769Y-143883500D01*
X182941738Y-143882326D01*
X182972506Y-143879310D01*
X182973819Y-143879188D01*
X183018084Y-143875315D01*
X183066413Y-143871087D01*
X183071532Y-143869600D01*
X183076833Y-143869080D01*
X183165834Y-143842209D01*
X183166967Y-143841874D01*
X183250414Y-143817630D01*
X183250418Y-143817628D01*
X183256336Y-143815909D01*
X183261068Y-143813456D01*
X183266169Y-143811916D01*
X183278360Y-143805434D01*
X183348260Y-143768269D01*
X183349426Y-143767657D01*
X183426453Y-143727729D01*
X183431926Y-143724892D01*
X183436089Y-143721569D01*
X183440796Y-143719066D01*
X183446997Y-143714009D01*
X183455354Y-143707193D01*
X183512918Y-143660245D01*
X183513774Y-143659554D01*
X183552973Y-143628262D01*
X183555477Y-143625758D01*
X183556195Y-143625116D01*
X183560528Y-143621415D01*
X183594062Y-143594065D01*
X183623288Y-143558737D01*
X183631277Y-143549958D01*
X189917638Y-137263597D01*
X189979950Y-137229571D01*
X190050765Y-137234636D01*
X190107601Y-137277183D01*
X190132412Y-137343703D01*
X190117321Y-137413077D01*
X190104653Y-137431987D01*
X190035643Y-137517207D01*
X190033848Y-137519970D01*
X190033848Y-137519971D01*
X189836555Y-137823778D01*
X189823938Y-137843206D01*
X189822443Y-137846140D01*
X189822439Y-137846147D01*
X189675374Y-138134778D01*
X189647468Y-138189547D01*
X189508167Y-138552438D01*
X189407562Y-138927901D01*
X189381476Y-139092598D01*
X189370373Y-139162704D01*
X189346754Y-139311824D01*
X189326411Y-139700000D01*
X189346754Y-140088176D01*
X189347267Y-140091416D01*
X189347268Y-140091424D01*
X189348378Y-140098432D01*
X189407562Y-140472099D01*
X189508167Y-140847562D01*
X189647468Y-141210453D01*
X189648966Y-141213393D01*
X189816278Y-141541760D01*
X189823938Y-141556794D01*
X189825734Y-141559560D01*
X189825736Y-141559563D01*
X189961721Y-141768963D01*
X190035643Y-141882793D01*
X190280266Y-142184876D01*
X190555124Y-142459734D01*
X190857207Y-142704357D01*
X191183205Y-142916062D01*
X191186139Y-142917557D01*
X191186146Y-142917561D01*
X191526607Y-143091034D01*
X191529547Y-143092532D01*
X191750547Y-143177366D01*
X191823375Y-143205322D01*
X191892438Y-143231833D01*
X192267901Y-143332438D01*
X192471793Y-143364732D01*
X192648576Y-143392732D01*
X192648584Y-143392733D01*
X192651824Y-143393246D01*
X193040000Y-143413589D01*
X193428176Y-143393246D01*
X193431416Y-143392733D01*
X193431424Y-143392732D01*
X193608207Y-143364732D01*
X193812099Y-143332438D01*
X194187562Y-143231833D01*
X194256626Y-143205322D01*
X194329452Y-143177366D01*
X194550453Y-143092532D01*
X194553393Y-143091034D01*
X194893854Y-142917561D01*
X194893861Y-142917557D01*
X194896795Y-142916062D01*
X195222793Y-142704357D01*
X195524876Y-142459734D01*
X195799734Y-142184876D01*
X196044357Y-141882793D01*
X196118279Y-141768963D01*
X196254264Y-141559563D01*
X196254266Y-141559560D01*
X196256062Y-141556794D01*
X196263723Y-141541760D01*
X196431034Y-141213393D01*
X196432532Y-141210453D01*
X196571833Y-140847562D01*
X196672438Y-140472099D01*
X196731622Y-140098432D01*
X196732732Y-140091424D01*
X196732733Y-140091416D01*
X196733246Y-140088176D01*
X196753589Y-139700000D01*
X196733246Y-139311824D01*
X196709628Y-139162704D01*
X196698524Y-139092598D01*
X196672438Y-138927901D01*
X196571833Y-138552438D01*
X196432532Y-138189547D01*
X196404626Y-138134778D01*
X196257561Y-137846147D01*
X196257557Y-137846140D01*
X196256062Y-137843206D01*
X196243446Y-137823778D01*
X196046152Y-137519971D01*
X196046152Y-137519970D01*
X196044357Y-137517207D01*
X195799734Y-137215124D01*
X195524876Y-136940266D01*
X195478594Y-136902787D01*
X195277570Y-136740001D01*
X195222793Y-136695643D01*
X195137289Y-136640116D01*
X194899564Y-136485736D01*
X194899561Y-136485734D01*
X194896795Y-136483938D01*
X194893861Y-136482443D01*
X194893854Y-136482439D01*
X194553393Y-136308966D01*
X194550453Y-136307468D01*
X194329453Y-136222634D01*
X194190652Y-136169353D01*
X194190650Y-136169352D01*
X194187562Y-136168167D01*
X193812099Y-136067562D01*
X193608207Y-136035268D01*
X193431424Y-136007268D01*
X193431416Y-136007267D01*
X193428176Y-136006754D01*
X193040000Y-135986411D01*
X192651824Y-136006754D01*
X192648584Y-136007267D01*
X192648576Y-136007268D01*
X192471793Y-136035268D01*
X192267901Y-136067562D01*
X191892438Y-136168167D01*
X191889350Y-136169352D01*
X191889348Y-136169353D01*
X191750547Y-136222634D01*
X191529547Y-136307468D01*
X191526607Y-136308966D01*
X191186147Y-136482439D01*
X191186140Y-136482443D01*
X191183206Y-136483938D01*
X191180440Y-136485734D01*
X191180437Y-136485736D01*
X190937867Y-136643262D01*
X190857207Y-136695643D01*
X190854644Y-136697718D01*
X190854635Y-136697725D01*
X190729266Y-136799247D01*
X190663739Y-136826573D01*
X190593841Y-136814133D01*
X190541764Y-136765879D01*
X190524042Y-136697130D01*
X190546302Y-136629713D01*
X190553451Y-136620336D01*
X190602190Y-136562251D01*
X190602193Y-136562246D01*
X190606154Y-136557526D01*
X190608723Y-136552852D01*
X190612102Y-136548739D01*
X190655975Y-136466915D01*
X190656584Y-136465793D01*
X190698464Y-136389614D01*
X190698465Y-136389612D01*
X190701433Y-136384213D01*
X190703045Y-136379131D01*
X190705562Y-136374437D01*
X190732762Y-136285469D01*
X190733108Y-136284358D01*
X190737400Y-136270830D01*
X190761235Y-136195694D01*
X190761829Y-136190398D01*
X190763387Y-136185302D01*
X190772790Y-136092743D01*
X190772911Y-136091607D01*
X190778500Y-136041773D01*
X190778500Y-136038246D01*
X190778555Y-136037261D01*
X190779002Y-136031581D01*
X190783374Y-135988538D01*
X190779059Y-135942891D01*
X190778500Y-135931033D01*
X190778500Y-132344500D01*
X190798502Y-132276379D01*
X190852158Y-132229886D01*
X190904500Y-132218500D01*
X191068134Y-132218500D01*
X191130316Y-132211745D01*
X191266705Y-132160615D01*
X191383261Y-132073261D01*
X191470615Y-131956705D01*
X191521745Y-131820316D01*
X191528500Y-131758134D01*
X191528500Y-129861866D01*
X191521745Y-129799684D01*
X191470615Y-129663295D01*
X191383261Y-129546739D01*
X191266705Y-129459385D01*
X191130316Y-129408255D01*
X191068134Y-129401500D01*
X188471866Y-129401500D01*
X188409684Y-129408255D01*
X188273295Y-129459385D01*
X188156739Y-129546739D01*
X188069385Y-129663295D01*
X188018255Y-129799684D01*
X188011500Y-129861866D01*
X188011500Y-131758134D01*
X188018255Y-131820316D01*
X188069385Y-131956705D01*
X188156739Y-132073261D01*
X188273295Y-132160615D01*
X188409684Y-132211745D01*
X188471866Y-132218500D01*
X188635500Y-132218500D01*
X188703621Y-132238502D01*
X188750114Y-132292158D01*
X188761500Y-132344500D01*
X188761500Y-135515076D01*
X188741498Y-135583197D01*
X188724595Y-135604171D01*
X182499171Y-141829595D01*
X182436859Y-141863621D01*
X182410076Y-141866500D01*
X126441676Y-141866500D01*
X126373555Y-141846498D01*
X126352581Y-141829595D01*
X123836581Y-139313595D01*
X123802555Y-139251283D01*
X123807620Y-139180468D01*
X123850167Y-139123632D01*
X123916687Y-139098821D01*
X123925676Y-139098500D01*
X126088134Y-139098500D01*
X126150316Y-139091745D01*
X126286705Y-139040615D01*
X126403261Y-138953261D01*
X126490615Y-138836705D01*
X126541745Y-138700316D01*
X126548500Y-138638134D01*
X126548500Y-133141866D01*
X126541745Y-133079684D01*
X126490615Y-132943295D01*
X126403261Y-132826739D01*
X126286705Y-132739385D01*
X126150316Y-132688255D01*
X126088134Y-132681500D01*
X125724500Y-132681500D01*
X125656379Y-132661498D01*
X125609886Y-132607842D01*
X125598500Y-132555500D01*
X125598500Y-132419925D01*
X125618502Y-132351804D01*
X125635405Y-132330830D01*
X126939379Y-131026855D01*
X126949522Y-131017753D01*
X126974218Y-130997897D01*
X126979025Y-130994032D01*
X127011292Y-130955578D01*
X127014472Y-130951931D01*
X127016115Y-130950119D01*
X127018309Y-130947925D01*
X127045642Y-130914651D01*
X127046348Y-130913800D01*
X127053221Y-130905610D01*
X127106154Y-130842526D01*
X127108722Y-130837856D01*
X127112103Y-130833739D01*
X127156015Y-130751842D01*
X127156624Y-130750720D01*
X127164330Y-130736704D01*
X127172716Y-130721449D01*
X127198466Y-130674611D01*
X127198468Y-130674606D01*
X127201433Y-130669213D01*
X127203044Y-130664135D01*
X127205563Y-130659437D01*
X127232753Y-130570502D01*
X127233136Y-130569272D01*
X127234271Y-130565696D01*
X127261235Y-130480694D01*
X127261828Y-130475403D01*
X127263388Y-130470302D01*
X127264011Y-130464170D01*
X127264012Y-130464164D01*
X127272785Y-130377784D01*
X127272925Y-130376470D01*
X127278108Y-130330270D01*
X127278108Y-130330265D01*
X127278500Y-130326773D01*
X127278500Y-130323248D01*
X127278555Y-130322263D01*
X127279004Y-130316559D01*
X127279254Y-130314104D01*
X127283374Y-130273538D01*
X127279059Y-130227889D01*
X127278500Y-130216032D01*
X127278500Y-128534500D01*
X127298502Y-128466379D01*
X127352158Y-128419886D01*
X127404500Y-128408500D01*
X127568134Y-128408500D01*
X127630316Y-128401745D01*
X127766705Y-128350615D01*
X127883261Y-128263261D01*
X127970615Y-128146705D01*
X128021745Y-128010316D01*
X128028500Y-127948134D01*
X128028500Y-127944669D01*
X128512001Y-127944669D01*
X128512371Y-127951490D01*
X128517895Y-128002352D01*
X128521521Y-128017604D01*
X128566676Y-128138054D01*
X128575214Y-128153649D01*
X128651715Y-128255724D01*
X128664276Y-128268285D01*
X128766351Y-128344786D01*
X128781946Y-128353324D01*
X128902394Y-128398478D01*
X128917649Y-128402105D01*
X128968514Y-128407631D01*
X128975328Y-128408000D01*
X129997885Y-128408000D01*
X130013124Y-128403525D01*
X130014329Y-128402135D01*
X130016000Y-128394452D01*
X130016000Y-128389884D01*
X130524000Y-128389884D01*
X130528475Y-128405123D01*
X130529865Y-128406328D01*
X130537548Y-128407999D01*
X131564669Y-128407999D01*
X131571490Y-128407629D01*
X131622352Y-128402105D01*
X131637604Y-128398479D01*
X131758054Y-128353324D01*
X131773649Y-128344786D01*
X131875724Y-128268285D01*
X131888285Y-128255724D01*
X131964786Y-128153649D01*
X131973324Y-128138054D01*
X132018478Y-128017606D01*
X132022105Y-128002351D01*
X132027631Y-127951486D01*
X132028000Y-127944672D01*
X132028000Y-127272115D01*
X132023525Y-127256876D01*
X132022135Y-127255671D01*
X132014452Y-127254000D01*
X130542115Y-127254000D01*
X130526876Y-127258475D01*
X130525671Y-127259865D01*
X130524000Y-127267548D01*
X130524000Y-128389884D01*
X130016000Y-128389884D01*
X130016000Y-127272115D01*
X130011525Y-127256876D01*
X130010135Y-127255671D01*
X130002452Y-127254000D01*
X128530116Y-127254000D01*
X128514877Y-127258475D01*
X128513672Y-127259865D01*
X128512001Y-127267548D01*
X128512001Y-127944669D01*
X128028500Y-127944669D01*
X128028500Y-126727885D01*
X128512000Y-126727885D01*
X128516475Y-126743124D01*
X128517865Y-126744329D01*
X128525548Y-126746000D01*
X129997885Y-126746000D01*
X130013124Y-126741525D01*
X130014329Y-126740135D01*
X130016000Y-126732452D01*
X130016000Y-126727885D01*
X130524000Y-126727885D01*
X130528475Y-126743124D01*
X130529865Y-126744329D01*
X130537548Y-126746000D01*
X132009884Y-126746000D01*
X132025123Y-126741525D01*
X132026328Y-126740135D01*
X132027999Y-126732452D01*
X132027999Y-126055331D01*
X132027629Y-126048510D01*
X132022105Y-125997648D01*
X132018479Y-125982396D01*
X131973324Y-125861946D01*
X131964786Y-125846351D01*
X131888285Y-125744276D01*
X131875724Y-125731715D01*
X131773649Y-125655214D01*
X131758054Y-125646676D01*
X131637606Y-125601522D01*
X131622351Y-125597895D01*
X131571486Y-125592369D01*
X131564672Y-125592000D01*
X130542115Y-125592000D01*
X130526876Y-125596475D01*
X130525671Y-125597865D01*
X130524000Y-125605548D01*
X130524000Y-126727885D01*
X130016000Y-126727885D01*
X130016000Y-125610116D01*
X130011525Y-125594877D01*
X130010135Y-125593672D01*
X130002452Y-125592001D01*
X128975331Y-125592001D01*
X128968510Y-125592371D01*
X128917648Y-125597895D01*
X128902396Y-125601521D01*
X128781946Y-125646676D01*
X128766351Y-125655214D01*
X128664276Y-125731715D01*
X128651715Y-125744276D01*
X128575214Y-125846351D01*
X128566676Y-125861946D01*
X128521522Y-125982394D01*
X128517895Y-125997649D01*
X128512369Y-126048514D01*
X128512000Y-126055328D01*
X128512000Y-126727885D01*
X128028500Y-126727885D01*
X128028500Y-126051866D01*
X128021745Y-125989684D01*
X127970615Y-125853295D01*
X127883261Y-125736739D01*
X127766705Y-125649385D01*
X127630316Y-125598255D01*
X127568134Y-125591500D01*
X127296007Y-125591500D01*
X127227886Y-125571498D01*
X127184754Y-125524650D01*
X127182354Y-125520135D01*
X127175839Y-125507882D01*
X127163268Y-125484238D01*
X127162657Y-125483074D01*
X127122729Y-125406047D01*
X127119892Y-125400574D01*
X127116569Y-125396411D01*
X127114066Y-125391704D01*
X127055245Y-125319582D01*
X127054554Y-125318726D01*
X127023262Y-125279527D01*
X127020758Y-125277023D01*
X127020116Y-125276305D01*
X127016415Y-125271972D01*
X126989065Y-125238438D01*
X126984315Y-125234509D01*
X126979975Y-125230138D01*
X126981574Y-125228550D01*
X126947492Y-125178070D01*
X126945884Y-125107091D01*
X126972329Y-125057329D01*
X126976828Y-125052136D01*
X126978500Y-125044452D01*
X126978500Y-124097115D01*
X126974025Y-124081876D01*
X126972635Y-124080671D01*
X126964952Y-124079000D01*
X126155116Y-124079000D01*
X126139877Y-124083475D01*
X126138672Y-124084865D01*
X126134122Y-124105783D01*
X126130589Y-124105014D01*
X126116999Y-124151298D01*
X126063343Y-124197791D01*
X125993069Y-124207895D01*
X125930011Y-124179699D01*
X125893052Y-124148686D01*
X125889431Y-124145528D01*
X125887619Y-124143885D01*
X125885425Y-124141691D01*
X125852151Y-124114358D01*
X125851353Y-124113696D01*
X125780026Y-124053846D01*
X125775356Y-124051278D01*
X125771239Y-124047897D01*
X125689414Y-124004023D01*
X125688255Y-124003394D01*
X125612119Y-123961538D01*
X125612111Y-123961535D01*
X125606713Y-123958567D01*
X125601631Y-123956955D01*
X125596937Y-123954438D01*
X125507969Y-123927238D01*
X125506941Y-123926918D01*
X125418194Y-123898765D01*
X125412898Y-123898171D01*
X125407802Y-123896613D01*
X125315243Y-123887210D01*
X125314107Y-123887089D01*
X125280492Y-123883319D01*
X125267770Y-123881892D01*
X125267766Y-123881892D01*
X125264273Y-123881500D01*
X125260746Y-123881500D01*
X125259761Y-123881445D01*
X125254081Y-123880998D01*
X125221897Y-123877729D01*
X125217163Y-123877248D01*
X125217161Y-123877248D01*
X125211038Y-123876626D01*
X125168759Y-123880623D01*
X125165391Y-123880941D01*
X125153533Y-123881500D01*
X124279000Y-123881500D01*
X124210879Y-123861498D01*
X124164386Y-123807842D01*
X124153000Y-123755500D01*
X124153000Y-123462115D01*
X124148525Y-123446876D01*
X124147135Y-123445671D01*
X124139452Y-123444000D01*
X118555116Y-123444000D01*
X118539877Y-123448475D01*
X118538672Y-123449865D01*
X118537001Y-123457548D01*
X118537001Y-123784669D01*
X118537371Y-123791490D01*
X118542895Y-123842352D01*
X118546521Y-123857604D01*
X118591679Y-123978061D01*
X118592174Y-123978966D01*
X118592393Y-123979966D01*
X118594828Y-123986462D01*
X118593890Y-123986814D01*
X118607343Y-124048323D01*
X118594162Y-124093212D01*
X118594385Y-124093295D01*
X118593244Y-124096337D01*
X118593242Y-124096344D01*
X118591236Y-124101696D01*
X118591234Y-124101699D01*
X118562124Y-124179351D01*
X118543255Y-124229684D01*
X118536500Y-124291866D01*
X118536500Y-125488134D01*
X118543255Y-125550316D01*
X118546029Y-125557715D01*
X118591112Y-125677974D01*
X118592174Y-125680806D01*
X118594385Y-125686705D01*
X118593534Y-125687024D01*
X118607055Y-125748849D01*
X118594042Y-125793166D01*
X118594385Y-125793295D01*
X118592813Y-125797489D01*
X118543255Y-125929684D01*
X118536500Y-125991866D01*
X118536500Y-127188134D01*
X118543255Y-127250316D01*
X118594385Y-127386705D01*
X118681739Y-127503261D01*
X118798295Y-127590615D01*
X118934684Y-127641745D01*
X118996866Y-127648500D01*
X120210500Y-127648500D01*
X120278621Y-127668502D01*
X120325114Y-127722158D01*
X120336500Y-127774500D01*
X120336500Y-129645074D01*
X120316498Y-129713195D01*
X120299596Y-129734169D01*
X119505617Y-130528149D01*
X119495473Y-130537251D01*
X119478903Y-130550574D01*
X119465975Y-130560968D01*
X119438424Y-130593802D01*
X119433709Y-130599421D01*
X119430528Y-130603069D01*
X119428885Y-130604881D01*
X119426691Y-130607075D01*
X119399358Y-130640349D01*
X119398696Y-130641147D01*
X119338846Y-130712474D01*
X119336278Y-130717144D01*
X119332897Y-130721261D01*
X119305404Y-130772535D01*
X119289023Y-130803086D01*
X119288394Y-130804245D01*
X119246538Y-130880381D01*
X119246535Y-130880389D01*
X119243567Y-130885787D01*
X119241955Y-130890869D01*
X119239438Y-130895563D01*
X119212238Y-130984531D01*
X119211918Y-130985559D01*
X119183765Y-131074306D01*
X119183171Y-131079602D01*
X119181613Y-131084698D01*
X119172559Y-131173834D01*
X119172218Y-131177187D01*
X119172089Y-131178393D01*
X119166500Y-131228227D01*
X119166500Y-131231754D01*
X119166445Y-131232739D01*
X119165998Y-131238419D01*
X119161626Y-131281462D01*
X119161734Y-131282604D01*
X119141990Y-131348990D01*
X119088173Y-131395295D01*
X119036230Y-131406500D01*
X118624600Y-131406500D01*
X118621354Y-131406837D01*
X118621350Y-131406837D01*
X118525692Y-131416762D01*
X118525688Y-131416763D01*
X118518834Y-131417474D01*
X118512298Y-131419655D01*
X118512296Y-131419655D01*
X118495928Y-131425116D01*
X118351054Y-131473450D01*
X118200652Y-131566522D01*
X118075695Y-131691697D01*
X118071855Y-131697927D01*
X118071854Y-131697928D01*
X117992483Y-131826692D01*
X117982885Y-131842262D01*
X117927203Y-132010139D01*
X117916500Y-132114600D01*
X117916500Y-133315400D01*
X117032834Y-133315400D01*
X117033000Y-133312146D01*
X117033000Y-132987115D01*
X117028525Y-132971876D01*
X117027135Y-132970671D01*
X117019452Y-132969000D01*
X115047115Y-132969000D01*
X115031876Y-132973475D01*
X115030671Y-132974865D01*
X115029000Y-132982548D01*
X115029000Y-134004884D01*
X114521000Y-134004884D01*
X114521000Y-132987115D01*
X114516525Y-132971876D01*
X114515135Y-132970671D01*
X114507452Y-132969000D01*
X112535116Y-132969000D01*
X112519877Y-132973475D01*
X112518672Y-132974865D01*
X112517001Y-132982548D01*
X112517001Y-133312095D01*
X107188500Y-133312095D01*
X107188500Y-132442885D01*
X112517000Y-132442885D01*
X112521475Y-132458124D01*
X112522865Y-132459329D01*
X112530548Y-132461000D01*
X114502885Y-132461000D01*
X114518124Y-132456525D01*
X114519329Y-132455135D01*
X114521000Y-132447452D01*
X114521000Y-132442885D01*
X115029000Y-132442885D01*
X115033475Y-132458124D01*
X115034865Y-132459329D01*
X115042548Y-132461000D01*
X117014884Y-132461000D01*
X117030123Y-132456525D01*
X117031328Y-132455135D01*
X117032999Y-132447452D01*
X117032999Y-132117905D01*
X117032662Y-132111386D01*
X117022743Y-132015794D01*
X117019851Y-132002400D01*
X116968412Y-131848216D01*
X116962239Y-131835038D01*
X116876937Y-131697193D01*
X116867901Y-131685792D01*
X116753171Y-131571261D01*
X116741760Y-131562249D01*
X116603757Y-131477184D01*
X116590576Y-131471037D01*
X116436290Y-131419862D01*
X116422914Y-131416995D01*
X116328562Y-131407328D01*
X116322145Y-131407000D01*
X115047115Y-131407000D01*
X115031876Y-131411475D01*
X115030671Y-131412865D01*
X115029000Y-131420548D01*
X115029000Y-132442885D01*
X114521000Y-132442885D01*
X114521000Y-131425116D01*
X114516525Y-131409877D01*
X114515135Y-131408672D01*
X114507452Y-131407001D01*
X113227905Y-131407001D01*
X113221386Y-131407338D01*
X113125794Y-131417257D01*
X113112400Y-131420149D01*
X112958216Y-131471588D01*
X112945038Y-131477761D01*
X112807193Y-131563063D01*
X112795792Y-131572099D01*
X112681261Y-131686829D01*
X112672249Y-131698240D01*
X112587184Y-131836243D01*
X112581037Y-131849424D01*
X112529862Y-132003710D01*
X112526995Y-132017086D01*
X112517328Y-132111438D01*
X112517000Y-132117855D01*
X112517000Y-132442885D01*
X107188500Y-132442885D01*
X107188500Y-129199463D01*
X107208502Y-129131342D01*
X107262158Y-129084849D01*
X107332432Y-129074745D01*
X107358731Y-129081482D01*
X107377390Y-129088477D01*
X107392649Y-129092105D01*
X107443514Y-129097631D01*
X107450328Y-129098000D01*
X111922885Y-129098000D01*
X111938124Y-129093525D01*
X111939329Y-129092135D01*
X111941000Y-129084452D01*
X111941000Y-129079884D01*
X112449000Y-129079884D01*
X112453475Y-129095123D01*
X112454865Y-129096328D01*
X112462548Y-129097999D01*
X116939669Y-129097999D01*
X116946490Y-129097629D01*
X116997352Y-129092105D01*
X117012604Y-129088479D01*
X117133054Y-129043324D01*
X117148649Y-129034786D01*
X117250724Y-128958285D01*
X117263285Y-128945724D01*
X117339786Y-128843649D01*
X117348324Y-128828054D01*
X117393478Y-128707606D01*
X117397105Y-128692351D01*
X117402631Y-128641486D01*
X117403000Y-128634672D01*
X117403000Y-123462115D01*
X117398525Y-123446876D01*
X117397135Y-123445671D01*
X117389452Y-123444000D01*
X112467115Y-123444000D01*
X112451876Y-123448475D01*
X112450671Y-123449865D01*
X112449000Y-123457548D01*
X112449000Y-129079884D01*
X111941000Y-129079884D01*
X111941000Y-122917885D01*
X112449000Y-122917885D01*
X112453475Y-122933124D01*
X112454865Y-122934329D01*
X112462548Y-122936000D01*
X117384884Y-122936000D01*
X117400123Y-122931525D01*
X117401328Y-122930135D01*
X117402999Y-122922452D01*
X117402999Y-122088134D01*
X118536500Y-122088134D01*
X118543255Y-122150316D01*
X118553857Y-122178597D01*
X118589113Y-122272641D01*
X118592589Y-122281914D01*
X118594385Y-122286705D01*
X118593693Y-122286964D01*
X118607343Y-122349374D01*
X118594420Y-122393385D01*
X118594828Y-122393538D01*
X118592738Y-122399112D01*
X118592174Y-122401034D01*
X118591679Y-122401939D01*
X118546522Y-122522394D01*
X118542895Y-122537649D01*
X118537369Y-122588514D01*
X118537000Y-122595328D01*
X118537000Y-122917885D01*
X118541475Y-122933124D01*
X118542865Y-122934329D01*
X118550548Y-122936000D01*
X124134884Y-122936000D01*
X124150123Y-122931525D01*
X124151328Y-122930135D01*
X124152999Y-122922452D01*
X124152999Y-122595331D01*
X124152629Y-122588510D01*
X124147105Y-122537648D01*
X124143479Y-122522396D01*
X124095172Y-122393538D01*
X124097316Y-122392734D01*
X124084834Y-122335645D01*
X124109574Y-122269098D01*
X124166364Y-122226491D01*
X124210522Y-122218500D01*
X124825213Y-122218500D01*
X124844163Y-122219933D01*
X124857169Y-122221912D01*
X124857173Y-122221912D01*
X124864403Y-122223012D01*
X124871695Y-122222419D01*
X124871698Y-122222419D01*
X124914776Y-122218915D01*
X124924990Y-122218500D01*
X124932535Y-122218500D01*
X124959562Y-122215349D01*
X124963910Y-122214919D01*
X124982111Y-122213439D01*
X125026421Y-122209835D01*
X125026425Y-122209834D01*
X125033718Y-122209241D01*
X125040683Y-122206985D01*
X125046101Y-122205902D01*
X125051461Y-122204635D01*
X125058732Y-122203787D01*
X125124554Y-122179895D01*
X125128704Y-122178470D01*
X125188366Y-122159142D01*
X125188370Y-122159140D01*
X125195325Y-122156887D01*
X125201576Y-122153094D01*
X125206584Y-122150801D01*
X125211536Y-122148321D01*
X125218413Y-122145825D01*
X125243631Y-122129292D01*
X125276964Y-122107438D01*
X125280682Y-122105092D01*
X125335759Y-122071670D01*
X125340553Y-122068761D01*
X125348603Y-122061651D01*
X125348616Y-122061666D01*
X125351990Y-122058675D01*
X125354354Y-122056698D01*
X125360477Y-122052684D01*
X125365512Y-122047369D01*
X125370932Y-122042837D01*
X125436022Y-122014486D01*
X125451755Y-122013500D01*
X126130125Y-122013500D01*
X126198246Y-122033502D01*
X126237269Y-122073197D01*
X126321522Y-122209348D01*
X126446697Y-122334305D01*
X126452927Y-122338145D01*
X126452928Y-122338146D01*
X126597262Y-122427115D01*
X126596560Y-122428254D01*
X126644046Y-122470069D01*
X126663504Y-122538347D01*
X126642959Y-122606306D01*
X126588934Y-122652370D01*
X126578807Y-122656311D01*
X126565038Y-122662761D01*
X126427193Y-122748063D01*
X126415792Y-122757099D01*
X126301261Y-122871829D01*
X126292249Y-122883240D01*
X126207184Y-123021243D01*
X126201037Y-123034424D01*
X126149862Y-123188710D01*
X126146995Y-123202086D01*
X126137328Y-123296438D01*
X126137000Y-123302855D01*
X126137000Y-123552885D01*
X126141475Y-123568124D01*
X126142865Y-123569329D01*
X126150548Y-123571000D01*
X127360500Y-123571000D01*
X127428621Y-123591002D01*
X127475114Y-123644658D01*
X127486500Y-123697000D01*
X127486500Y-125039884D01*
X127490975Y-125055123D01*
X127492365Y-125056328D01*
X127500048Y-125057999D01*
X127617095Y-125057999D01*
X127623614Y-125057662D01*
X127719206Y-125047743D01*
X127732600Y-125044851D01*
X127886784Y-124993412D01*
X127899962Y-124987239D01*
X128037807Y-124901937D01*
X128049208Y-124892901D01*
X128163738Y-124778172D01*
X128170794Y-124769238D01*
X128228712Y-124728177D01*
X128299635Y-124724947D01*
X128361046Y-124760574D01*
X128367846Y-124768407D01*
X128371522Y-124774348D01*
X128496697Y-124899305D01*
X128502927Y-124903145D01*
X128502928Y-124903146D01*
X128640090Y-124987694D01*
X128647262Y-124992115D01*
X128712734Y-125013831D01*
X128808611Y-125045632D01*
X128808613Y-125045632D01*
X128815139Y-125047797D01*
X128821975Y-125048497D01*
X128821978Y-125048498D01*
X128865031Y-125052909D01*
X128919600Y-125058500D01*
X129695400Y-125058500D01*
X129698646Y-125058163D01*
X129698650Y-125058163D01*
X129794308Y-125048238D01*
X129794312Y-125048237D01*
X129801166Y-125047526D01*
X129807702Y-125045345D01*
X129807704Y-125045345D01*
X129949271Y-124998114D01*
X129968946Y-124991550D01*
X130119348Y-124898478D01*
X130124521Y-124893296D01*
X130124526Y-124893292D01*
X130147295Y-124870483D01*
X130209577Y-124836403D01*
X130236468Y-124833500D01*
X130748157Y-124833500D01*
X130761764Y-124834237D01*
X130793262Y-124837659D01*
X130793267Y-124837659D01*
X130799388Y-124838324D01*
X130825638Y-124836027D01*
X130849388Y-124833950D01*
X130854214Y-124833621D01*
X130856686Y-124833500D01*
X130859769Y-124833500D01*
X130871738Y-124832326D01*
X130902506Y-124829310D01*
X130903819Y-124829188D01*
X130948084Y-124825315D01*
X130996413Y-124821087D01*
X131001532Y-124819600D01*
X131006833Y-124819080D01*
X131095834Y-124792209D01*
X131096967Y-124791874D01*
X131180414Y-124767630D01*
X131180418Y-124767628D01*
X131186336Y-124765909D01*
X131191068Y-124763456D01*
X131196169Y-124761916D01*
X131210773Y-124754151D01*
X131278260Y-124718269D01*
X131279426Y-124717657D01*
X131356453Y-124677729D01*
X131361926Y-124674892D01*
X131366089Y-124671569D01*
X131370796Y-124669066D01*
X131442918Y-124610245D01*
X131443774Y-124609554D01*
X131482973Y-124578262D01*
X131485477Y-124575758D01*
X131486195Y-124575116D01*
X131490528Y-124571415D01*
X131524062Y-124544065D01*
X131553288Y-124508736D01*
X131561279Y-124499955D01*
X131825829Y-124235405D01*
X131888141Y-124201379D01*
X131914924Y-124198500D01*
X132293520Y-124198500D01*
X132361641Y-124218502D01*
X132382536Y-124235325D01*
X132486697Y-124339305D01*
X132492927Y-124343145D01*
X132492928Y-124343146D01*
X132630288Y-124427816D01*
X132637262Y-124432115D01*
X132665551Y-124441498D01*
X132798611Y-124485632D01*
X132798613Y-124485632D01*
X132805139Y-124487797D01*
X132811975Y-124488497D01*
X132811978Y-124488498D01*
X132851528Y-124492550D01*
X132909600Y-124498500D01*
X133355500Y-124498500D01*
X133423621Y-124518502D01*
X133470114Y-124572158D01*
X133481500Y-124624500D01*
X133481500Y-132555500D01*
X133461498Y-132623621D01*
X133407842Y-132670114D01*
X133355500Y-132681500D01*
X132991866Y-132681500D01*
X132929684Y-132688255D01*
X132793295Y-132739385D01*
X132676739Y-132826739D01*
X132589385Y-132943295D01*
X132538255Y-133079684D01*
X132531500Y-133141866D01*
X132531500Y-138638134D01*
X132538255Y-138700316D01*
X132589385Y-138836705D01*
X132676739Y-138953261D01*
X132793295Y-139040615D01*
X132929684Y-139091745D01*
X132991866Y-139098500D01*
X135988134Y-139098500D01*
X136050316Y-139091745D01*
X136186705Y-139040615D01*
X136303261Y-138953261D01*
X136390615Y-138836705D01*
X136441745Y-138700316D01*
X136448500Y-138638134D01*
X136448500Y-137024500D01*
X136468502Y-136956379D01*
X136522158Y-136909886D01*
X136574500Y-136898500D01*
X154353157Y-136898500D01*
X154366764Y-136899237D01*
X154398262Y-136902659D01*
X154398267Y-136902659D01*
X154404388Y-136903324D01*
X154430638Y-136901027D01*
X154454388Y-136898950D01*
X154459214Y-136898621D01*
X154461686Y-136898500D01*
X154464769Y-136898500D01*
X154476738Y-136897326D01*
X154507506Y-136894310D01*
X154508819Y-136894188D01*
X154553084Y-136890315D01*
X154601413Y-136886087D01*
X154606532Y-136884600D01*
X154611833Y-136884080D01*
X154700834Y-136857209D01*
X154701967Y-136856874D01*
X154785414Y-136832630D01*
X154785418Y-136832628D01*
X154791336Y-136830909D01*
X154796068Y-136828456D01*
X154801169Y-136826916D01*
X154825211Y-136814133D01*
X154883260Y-136783269D01*
X154884426Y-136782657D01*
X154961453Y-136742729D01*
X154966926Y-136739892D01*
X154971089Y-136736569D01*
X154975796Y-136734066D01*
X155047918Y-136675245D01*
X155048774Y-136674554D01*
X155087973Y-136643262D01*
X155090477Y-136640758D01*
X155091195Y-136640116D01*
X155095528Y-136636415D01*
X155129062Y-136609065D01*
X155158288Y-136573737D01*
X155166277Y-136564958D01*
X155394896Y-136336339D01*
X170037173Y-136336339D01*
X170037397Y-136341005D01*
X170037397Y-136341011D01*
X170039510Y-136385001D01*
X170049713Y-136597408D01*
X170100704Y-136853756D01*
X170189026Y-137099752D01*
X170191242Y-137103876D01*
X170255753Y-137223937D01*
X170312737Y-137329991D01*
X170315532Y-137333734D01*
X170315534Y-137333737D01*
X170466330Y-137535677D01*
X170466335Y-137535683D01*
X170469122Y-137539415D01*
X170472431Y-137542695D01*
X170472436Y-137542701D01*
X170602645Y-137671778D01*
X170654743Y-137723423D01*
X170658505Y-137726181D01*
X170658508Y-137726184D01*
X170861750Y-137875207D01*
X170865524Y-137877974D01*
X170869667Y-137880154D01*
X170869669Y-137880155D01*
X171092684Y-137997489D01*
X171092689Y-137997491D01*
X171096834Y-137999672D01*
X171343590Y-138085844D01*
X171348183Y-138086716D01*
X171595785Y-138133724D01*
X171595788Y-138133724D01*
X171600374Y-138134595D01*
X171730959Y-138139726D01*
X171856875Y-138144674D01*
X171856881Y-138144674D01*
X171861543Y-138144857D01*
X171940977Y-138136157D01*
X172116707Y-138116912D01*
X172116712Y-138116911D01*
X172121360Y-138116402D01*
X172234116Y-138086716D01*
X172369594Y-138051048D01*
X172369596Y-138051047D01*
X172374117Y-138049857D01*
X172614262Y-137946682D01*
X172660787Y-137917892D01*
X172832547Y-137811604D01*
X172832548Y-137811604D01*
X172836519Y-137809146D01*
X172840082Y-137806129D01*
X172840087Y-137806126D01*
X173032439Y-137643287D01*
X173032440Y-137643286D01*
X173036005Y-137640268D01*
X173127729Y-137535677D01*
X173205257Y-137447274D01*
X173205261Y-137447269D01*
X173208339Y-137443759D01*
X173349733Y-137223937D01*
X173457083Y-136985629D01*
X173493036Y-136858151D01*
X173526760Y-136738576D01*
X173526761Y-136738573D01*
X173528030Y-136734072D01*
X173539582Y-136643262D01*
X173560616Y-136477921D01*
X173560616Y-136477917D01*
X173561014Y-136474791D01*
X173561220Y-136466953D01*
X173562422Y-136421027D01*
X173563431Y-136382500D01*
X173560001Y-136336339D01*
X182037173Y-136336339D01*
X182037397Y-136341005D01*
X182037397Y-136341011D01*
X182039510Y-136385001D01*
X182049713Y-136597408D01*
X182100704Y-136853756D01*
X182189026Y-137099752D01*
X182191242Y-137103876D01*
X182255753Y-137223937D01*
X182312737Y-137329991D01*
X182315532Y-137333734D01*
X182315534Y-137333737D01*
X182466330Y-137535677D01*
X182466335Y-137535683D01*
X182469122Y-137539415D01*
X182472431Y-137542695D01*
X182472436Y-137542701D01*
X182602645Y-137671778D01*
X182654743Y-137723423D01*
X182658505Y-137726181D01*
X182658508Y-137726184D01*
X182861750Y-137875207D01*
X182865524Y-137877974D01*
X182869667Y-137880154D01*
X182869669Y-137880155D01*
X183092684Y-137997489D01*
X183092689Y-137997491D01*
X183096834Y-137999672D01*
X183343590Y-138085844D01*
X183348183Y-138086716D01*
X183595785Y-138133724D01*
X183595788Y-138133724D01*
X183600374Y-138134595D01*
X183730959Y-138139726D01*
X183856875Y-138144674D01*
X183856881Y-138144674D01*
X183861543Y-138144857D01*
X183940977Y-138136157D01*
X184116707Y-138116912D01*
X184116712Y-138116911D01*
X184121360Y-138116402D01*
X184234116Y-138086716D01*
X184369594Y-138051048D01*
X184369596Y-138051047D01*
X184374117Y-138049857D01*
X184614262Y-137946682D01*
X184660787Y-137917892D01*
X184832547Y-137811604D01*
X184832548Y-137811604D01*
X184836519Y-137809146D01*
X184840082Y-137806129D01*
X184840087Y-137806126D01*
X185032439Y-137643287D01*
X185032440Y-137643286D01*
X185036005Y-137640268D01*
X185127729Y-137535677D01*
X185205257Y-137447274D01*
X185205261Y-137447269D01*
X185208339Y-137443759D01*
X185349733Y-137223937D01*
X185457083Y-136985629D01*
X185493036Y-136858151D01*
X185526760Y-136738576D01*
X185526761Y-136738573D01*
X185528030Y-136734072D01*
X185539582Y-136643262D01*
X185560616Y-136477921D01*
X185560616Y-136477917D01*
X185561014Y-136474791D01*
X185561220Y-136466953D01*
X185562422Y-136421027D01*
X185563431Y-136382500D01*
X185559655Y-136331685D01*
X185544407Y-136126500D01*
X185544406Y-136126496D01*
X185544061Y-136121848D01*
X185538111Y-136095550D01*
X185492611Y-135894475D01*
X185486377Y-135866923D01*
X185459376Y-135797489D01*
X185393340Y-135627676D01*
X185393339Y-135627673D01*
X185391647Y-135623323D01*
X185380032Y-135603000D01*
X185276098Y-135421154D01*
X185261951Y-135396402D01*
X185100138Y-135191143D01*
X184909763Y-135012057D01*
X184721567Y-134881500D01*
X184698851Y-134865741D01*
X184698848Y-134865739D01*
X184695009Y-134863076D01*
X184690816Y-134861008D01*
X184464781Y-134749540D01*
X184464778Y-134749539D01*
X184460593Y-134747475D01*
X184427654Y-134736931D01*
X184216123Y-134669220D01*
X184211665Y-134667793D01*
X183953693Y-134625779D01*
X183839942Y-134624290D01*
X183697022Y-134622419D01*
X183697019Y-134622419D01*
X183692345Y-134622358D01*
X183433362Y-134657604D01*
X183182433Y-134730743D01*
X183178180Y-134732703D01*
X183178179Y-134732704D01*
X183141659Y-134749540D01*
X182945072Y-134840168D01*
X182906067Y-134865741D01*
X182730404Y-134980910D01*
X182730399Y-134980914D01*
X182726491Y-134983476D01*
X182531494Y-135157518D01*
X182364363Y-135358470D01*
X182361934Y-135362473D01*
X182237663Y-135567266D01*
X182228771Y-135581919D01*
X182127697Y-135822955D01*
X182063359Y-136076283D01*
X182062891Y-136080934D01*
X182062890Y-136080938D01*
X182061419Y-136095550D01*
X182037173Y-136336339D01*
X173560001Y-136336339D01*
X173559655Y-136331685D01*
X173544407Y-136126500D01*
X173544406Y-136126496D01*
X173544061Y-136121848D01*
X173538111Y-136095550D01*
X173492611Y-135894475D01*
X173486377Y-135866923D01*
X173459376Y-135797489D01*
X173393340Y-135627676D01*
X173393339Y-135627673D01*
X173391647Y-135623323D01*
X173380032Y-135603000D01*
X173276098Y-135421154D01*
X173261951Y-135396402D01*
X173100138Y-135191143D01*
X172909763Y-135012057D01*
X172721567Y-134881500D01*
X172698851Y-134865741D01*
X172698848Y-134865739D01*
X172695009Y-134863076D01*
X172690816Y-134861008D01*
X172464781Y-134749540D01*
X172464778Y-134749539D01*
X172460593Y-134747475D01*
X172427654Y-134736931D01*
X172216123Y-134669220D01*
X172211665Y-134667793D01*
X171953693Y-134625779D01*
X171839942Y-134624290D01*
X171697022Y-134622419D01*
X171697019Y-134622419D01*
X171692345Y-134622358D01*
X171433362Y-134657604D01*
X171182433Y-134730743D01*
X171178180Y-134732703D01*
X171178179Y-134732704D01*
X171141659Y-134749540D01*
X170945072Y-134840168D01*
X170906067Y-134865741D01*
X170730404Y-134980910D01*
X170730399Y-134980914D01*
X170726491Y-134983476D01*
X170531494Y-135157518D01*
X170364363Y-135358470D01*
X170361934Y-135362473D01*
X170237663Y-135567266D01*
X170228771Y-135581919D01*
X170127697Y-135822955D01*
X170063359Y-136076283D01*
X170062891Y-136080934D01*
X170062890Y-136080938D01*
X170061419Y-136095550D01*
X170037173Y-136336339D01*
X155394896Y-136336339D01*
X156919379Y-134811855D01*
X156929522Y-134802753D01*
X156954218Y-134782897D01*
X156959025Y-134779032D01*
X156991292Y-134740578D01*
X156994472Y-134736931D01*
X156996115Y-134735119D01*
X156998309Y-134732925D01*
X157025642Y-134699651D01*
X157026348Y-134698800D01*
X157060916Y-134657604D01*
X157086154Y-134627526D01*
X157088722Y-134622856D01*
X157092103Y-134618739D01*
X157135977Y-134536914D01*
X157136606Y-134535755D01*
X157178462Y-134459619D01*
X157178465Y-134459611D01*
X157181433Y-134454213D01*
X157183045Y-134449131D01*
X157185562Y-134444437D01*
X157212747Y-134355523D01*
X157213139Y-134354265D01*
X157239372Y-134271567D01*
X157241235Y-134265694D01*
X157241829Y-134260403D01*
X157243388Y-134255302D01*
X157252790Y-134162737D01*
X157252925Y-134161470D01*
X157258108Y-134115270D01*
X157258108Y-134115265D01*
X157258500Y-134111773D01*
X157258500Y-134108248D01*
X157258555Y-134107263D01*
X157259004Y-134101559D01*
X157262752Y-134064666D01*
X157262752Y-134064661D01*
X157263374Y-134058538D01*
X157259059Y-134012891D01*
X157258500Y-134001033D01*
X157258500Y-133162701D01*
X157278502Y-133094580D01*
X157287066Y-133082810D01*
X157370240Y-132981373D01*
X157370244Y-132981367D01*
X157373624Y-132977245D01*
X157383520Y-132959861D01*
X157391829Y-132945265D01*
X157442912Y-132895959D01*
X157512542Y-132882098D01*
X157578613Y-132908082D01*
X157605851Y-132937232D01*
X157684852Y-133054578D01*
X157691519Y-133062870D01*
X157843228Y-133221900D01*
X157851186Y-133228941D01*
X158027525Y-133360141D01*
X158036562Y-133365745D01*
X158232484Y-133465357D01*
X158242335Y-133469357D01*
X158452240Y-133534534D01*
X158462624Y-133536817D01*
X158478043Y-133538861D01*
X158492207Y-133536665D01*
X158496000Y-133523478D01*
X158496000Y-133521192D01*
X159004000Y-133521192D01*
X159007973Y-133534723D01*
X159018580Y-133536248D01*
X159136421Y-133511523D01*
X159146617Y-133508463D01*
X159351029Y-133427737D01*
X159360561Y-133423006D01*
X159548462Y-133308984D01*
X159557052Y-133302720D01*
X159723052Y-133158673D01*
X159730472Y-133151042D01*
X159869826Y-132981089D01*
X159875848Y-132972326D01*
X159891238Y-132945289D01*
X159942320Y-132895982D01*
X160011951Y-132882120D01*
X160078022Y-132908103D01*
X160105261Y-132937253D01*
X160138830Y-132987115D01*
X160187441Y-133059319D01*
X160191120Y-133063176D01*
X160191122Y-133063178D01*
X160221078Y-133094580D01*
X160346576Y-133226135D01*
X160531542Y-133363754D01*
X160536293Y-133366170D01*
X160536297Y-133366172D01*
X160580713Y-133388754D01*
X160737051Y-133468240D01*
X160742145Y-133469822D01*
X160742148Y-133469823D01*
X160939434Y-133531082D01*
X160957227Y-133536607D01*
X160962516Y-133537308D01*
X161180489Y-133566198D01*
X161180494Y-133566198D01*
X161185774Y-133566898D01*
X161191103Y-133566698D01*
X161191105Y-133566698D01*
X161308038Y-133562308D01*
X161416158Y-133558249D01*
X161438802Y-133553498D01*
X161531977Y-133533948D01*
X161641791Y-133510907D01*
X161646750Y-133508949D01*
X161646752Y-133508948D01*
X161851256Y-133428185D01*
X161851258Y-133428184D01*
X161856221Y-133426224D01*
X161861047Y-133423296D01*
X162048757Y-133309390D01*
X162048756Y-133309390D01*
X162053317Y-133306623D01*
X162093134Y-133272072D01*
X162223412Y-133159023D01*
X162223414Y-133159021D01*
X162227445Y-133155523D01*
X162295696Y-133072285D01*
X162370240Y-132981373D01*
X162370244Y-132981367D01*
X162373624Y-132977245D01*
X162376681Y-132971876D01*
X162485032Y-132781529D01*
X162487675Y-132776886D01*
X162566337Y-132560175D01*
X162585080Y-132456525D01*
X162606623Y-132337392D01*
X162606624Y-132337385D01*
X162607361Y-132333308D01*
X162608500Y-132309156D01*
X162608500Y-131897110D01*
X162596418Y-131754717D01*
X162594371Y-131730591D01*
X162594370Y-131730587D01*
X162593920Y-131725280D01*
X162592582Y-131720125D01*
X162592581Y-131720119D01*
X162537343Y-131507297D01*
X162537342Y-131507293D01*
X162536001Y-131502128D01*
X162524740Y-131477128D01*
X162447742Y-131306200D01*
X162441312Y-131291925D01*
X162312559Y-131100681D01*
X162303166Y-131090834D01*
X162224725Y-131008608D01*
X162153424Y-130933865D01*
X162029287Y-130841504D01*
X161986574Y-130784793D01*
X161978500Y-130740415D01*
X161978500Y-126999999D01*
X162916495Y-126999999D01*
X162917185Y-127006564D01*
X162927664Y-127106262D01*
X162936457Y-127189927D01*
X162995472Y-127371555D01*
X162998775Y-127377277D01*
X162998776Y-127377278D01*
X163014333Y-127404224D01*
X163090959Y-127536943D01*
X163095377Y-127541850D01*
X163095378Y-127541851D01*
X163158505Y-127611961D01*
X163218746Y-127678865D01*
X163315359Y-127749059D01*
X163356797Y-127779165D01*
X163373247Y-127791117D01*
X163379275Y-127793801D01*
X163379277Y-127793802D01*
X163541680Y-127866108D01*
X163547711Y-127868793D01*
X163641112Y-127888646D01*
X163728055Y-127907127D01*
X163728060Y-127907127D01*
X163734512Y-127908499D01*
X163925486Y-127908499D01*
X163931938Y-127907127D01*
X163931943Y-127907127D01*
X164018886Y-127888646D01*
X164112287Y-127868793D01*
X164118318Y-127866108D01*
X164280721Y-127793802D01*
X164280723Y-127793801D01*
X164286751Y-127791117D01*
X164303202Y-127779165D01*
X164344639Y-127749059D01*
X164441252Y-127678865D01*
X164501493Y-127611961D01*
X164564620Y-127541851D01*
X164564621Y-127541850D01*
X164569039Y-127536943D01*
X164645665Y-127404224D01*
X164661222Y-127377278D01*
X164661223Y-127377277D01*
X164664526Y-127371555D01*
X164723541Y-127189927D01*
X164725127Y-127174836D01*
X164752139Y-127109179D01*
X164761342Y-127098910D01*
X164874847Y-126985405D01*
X164937159Y-126951379D01*
X164963942Y-126948500D01*
X166048134Y-126948500D01*
X166110316Y-126941745D01*
X166246705Y-126890615D01*
X166363261Y-126803261D01*
X166450615Y-126686705D01*
X166501745Y-126550316D01*
X166508500Y-126488134D01*
X166508500Y-126044500D01*
X166528502Y-125976379D01*
X166582158Y-125929886D01*
X166634500Y-125918500D01*
X166746056Y-125918500D01*
X166814177Y-125938502D01*
X166835151Y-125955405D01*
X167714056Y-126834310D01*
X167726443Y-126848723D01*
X167734240Y-126859319D01*
X167734244Y-126859323D01*
X167738582Y-126865218D01*
X167747169Y-126872513D01*
X167777110Y-126897950D01*
X167784626Y-126904880D01*
X167789950Y-126910204D01*
X167811297Y-126927093D01*
X167814635Y-126929830D01*
X167868044Y-126975204D01*
X167874559Y-126978531D01*
X167879134Y-126981582D01*
X167883846Y-126984493D01*
X167889588Y-126989035D01*
X167896216Y-126992133D01*
X167896223Y-126992137D01*
X167953020Y-127018682D01*
X167956972Y-127020613D01*
X168019337Y-127052458D01*
X168026450Y-127054198D01*
X168031612Y-127056118D01*
X168036854Y-127057862D01*
X168043485Y-127060961D01*
X168112032Y-127075219D01*
X168116320Y-127076190D01*
X168178890Y-127091501D01*
X168178894Y-127091502D01*
X168184343Y-127092835D01*
X168189943Y-127093182D01*
X168189947Y-127093183D01*
X168195063Y-127093500D01*
X168195062Y-127093521D01*
X168199573Y-127093791D01*
X168202632Y-127094064D01*
X168209800Y-127095555D01*
X168217117Y-127095357D01*
X168284045Y-127093546D01*
X168287453Y-127093500D01*
X179640213Y-127093500D01*
X179659163Y-127094933D01*
X179672169Y-127096912D01*
X179672173Y-127096912D01*
X179679403Y-127098012D01*
X179686695Y-127097419D01*
X179686698Y-127097419D01*
X179729776Y-127093915D01*
X179739990Y-127093500D01*
X179747535Y-127093500D01*
X179774562Y-127090349D01*
X179778910Y-127089919D01*
X179797111Y-127088439D01*
X179841421Y-127084835D01*
X179841425Y-127084834D01*
X179848718Y-127084241D01*
X179855683Y-127081985D01*
X179861101Y-127080902D01*
X179866461Y-127079635D01*
X179873732Y-127078787D01*
X179939554Y-127054895D01*
X179943704Y-127053470D01*
X180003366Y-127034142D01*
X180003370Y-127034140D01*
X180010325Y-127031887D01*
X180016576Y-127028094D01*
X180021584Y-127025801D01*
X180026536Y-127023321D01*
X180033413Y-127020825D01*
X180075191Y-126993435D01*
X180091964Y-126982438D01*
X180095682Y-126980092D01*
X180147743Y-126948500D01*
X180155553Y-126943761D01*
X180163603Y-126936651D01*
X180163616Y-126936666D01*
X180166990Y-126933675D01*
X180169355Y-126931698D01*
X180175477Y-126927684D01*
X180226591Y-126873727D01*
X180228968Y-126871286D01*
X182073180Y-125027075D01*
X182135492Y-124993049D01*
X182206308Y-124998114D01*
X182263143Y-125040661D01*
X182273261Y-125056523D01*
X182312737Y-125129991D01*
X182315532Y-125133734D01*
X182315534Y-125133737D01*
X182466330Y-125335677D01*
X182466335Y-125335683D01*
X182469122Y-125339415D01*
X182472431Y-125342695D01*
X182472436Y-125342701D01*
X182626211Y-125495139D01*
X182654743Y-125523423D01*
X182658505Y-125526181D01*
X182658508Y-125526184D01*
X182833879Y-125654771D01*
X182865524Y-125677974D01*
X182869667Y-125680154D01*
X182869669Y-125680155D01*
X183092684Y-125797489D01*
X183092689Y-125797491D01*
X183096834Y-125799672D01*
X183243951Y-125851048D01*
X183310153Y-125874167D01*
X183343590Y-125885844D01*
X183348183Y-125886716D01*
X183595785Y-125933724D01*
X183595788Y-125933724D01*
X183600374Y-125934595D01*
X183730959Y-125939726D01*
X183856875Y-125944674D01*
X183856881Y-125944674D01*
X183861543Y-125944857D01*
X183941803Y-125936067D01*
X184116707Y-125916912D01*
X184116712Y-125916911D01*
X184121360Y-125916402D01*
X184125884Y-125915211D01*
X184369594Y-125851048D01*
X184369596Y-125851047D01*
X184374117Y-125849857D01*
X184382278Y-125846351D01*
X184609972Y-125748525D01*
X184614262Y-125746682D01*
X184639026Y-125731358D01*
X184832547Y-125611604D01*
X184832548Y-125611604D01*
X184836519Y-125609146D01*
X184840082Y-125606129D01*
X184840087Y-125606126D01*
X185032439Y-125443287D01*
X185032440Y-125443286D01*
X185036005Y-125440268D01*
X185078595Y-125391704D01*
X185205257Y-125247274D01*
X185205261Y-125247269D01*
X185208339Y-125243759D01*
X185217101Y-125230138D01*
X185309827Y-125085978D01*
X185313672Y-125080000D01*
X187956502Y-125080000D01*
X187976457Y-125308087D01*
X187977881Y-125313400D01*
X187977881Y-125313402D01*
X188034157Y-125523423D01*
X188035716Y-125529243D01*
X188038039Y-125534224D01*
X188038039Y-125534225D01*
X188130151Y-125731762D01*
X188130154Y-125731767D01*
X188132477Y-125736749D01*
X188177618Y-125801217D01*
X188259741Y-125918500D01*
X188263802Y-125924300D01*
X188425700Y-126086198D01*
X188430208Y-126089355D01*
X188430211Y-126089357D01*
X188508389Y-126144098D01*
X188613251Y-126217523D01*
X188618233Y-126219846D01*
X188618238Y-126219849D01*
X188673758Y-126245738D01*
X188709603Y-126270838D01*
X190386900Y-127948134D01*
X192020931Y-129582165D01*
X192054957Y-129644477D01*
X192049818Y-129715490D01*
X192018255Y-129799684D01*
X192011500Y-129861866D01*
X192011500Y-131758134D01*
X192018255Y-131820316D01*
X192069385Y-131956705D01*
X192156739Y-132073261D01*
X192273295Y-132160615D01*
X192409684Y-132211745D01*
X192471866Y-132218500D01*
X195068134Y-132218500D01*
X195130316Y-132211745D01*
X195266705Y-132160615D01*
X195383261Y-132073261D01*
X195470615Y-131956705D01*
X195521745Y-131820316D01*
X195528500Y-131758134D01*
X195528500Y-129861866D01*
X195521745Y-129799684D01*
X195470615Y-129663295D01*
X195383261Y-129546739D01*
X195266705Y-129459385D01*
X195130316Y-129408255D01*
X195068134Y-129401500D01*
X194719036Y-129401500D01*
X194650915Y-129381498D01*
X194621270Y-129351984D01*
X194619897Y-129353080D01*
X194619422Y-129352485D01*
X194615905Y-129347662D01*
X194614066Y-129344204D01*
X194555245Y-129272082D01*
X194554554Y-129271226D01*
X194523262Y-129232027D01*
X194520758Y-129229523D01*
X194520116Y-129228805D01*
X194516415Y-129224472D01*
X194489065Y-129190938D01*
X194453737Y-129161712D01*
X194444958Y-129153723D01*
X192533695Y-127242460D01*
X191671235Y-126380000D01*
X192956502Y-126380000D01*
X192976457Y-126608087D01*
X192977881Y-126613400D01*
X192977881Y-126613402D01*
X193032338Y-126816635D01*
X193035716Y-126829243D01*
X193038039Y-126834224D01*
X193038039Y-126834225D01*
X193130151Y-127031762D01*
X193130154Y-127031767D01*
X193132477Y-127036749D01*
X193172505Y-127093915D01*
X193244130Y-127196205D01*
X193263802Y-127224300D01*
X193425700Y-127386198D01*
X193430208Y-127389355D01*
X193430211Y-127389357D01*
X193455345Y-127406956D01*
X193613251Y-127517523D01*
X193618233Y-127519846D01*
X193618238Y-127519849D01*
X193815775Y-127611961D01*
X193820757Y-127614284D01*
X193826065Y-127615706D01*
X193826067Y-127615707D01*
X194036598Y-127672119D01*
X194036600Y-127672119D01*
X194041913Y-127673543D01*
X194270000Y-127693498D01*
X194498087Y-127673543D01*
X194503400Y-127672119D01*
X194503402Y-127672119D01*
X194713933Y-127615707D01*
X194713935Y-127615706D01*
X194719243Y-127614284D01*
X194724225Y-127611961D01*
X194921762Y-127519849D01*
X194921767Y-127519846D01*
X194926749Y-127517523D01*
X195084655Y-127406956D01*
X195109789Y-127389357D01*
X195109792Y-127389355D01*
X195114300Y-127386198D01*
X195276198Y-127224300D01*
X195295871Y-127196205D01*
X195367495Y-127093915D01*
X195407523Y-127036749D01*
X195409846Y-127031767D01*
X195409849Y-127031762D01*
X195501961Y-126834225D01*
X195501961Y-126834224D01*
X195504284Y-126829243D01*
X195507663Y-126816635D01*
X195562119Y-126613402D01*
X195562119Y-126613400D01*
X195563543Y-126608087D01*
X195583498Y-126380000D01*
X195563543Y-126151913D01*
X195557627Y-126129834D01*
X195505707Y-125936067D01*
X195505706Y-125936065D01*
X195504284Y-125930757D01*
X195500583Y-125922820D01*
X195409849Y-125728238D01*
X195409846Y-125728233D01*
X195407523Y-125723251D01*
X195322287Y-125601522D01*
X195279357Y-125540211D01*
X195279355Y-125540208D01*
X195276198Y-125535700D01*
X195114300Y-125373802D01*
X195109792Y-125370645D01*
X195109789Y-125370643D01*
X195028040Y-125313402D01*
X194926749Y-125242477D01*
X194921767Y-125240154D01*
X194921762Y-125240151D01*
X194724225Y-125148039D01*
X194724224Y-125148039D01*
X194719243Y-125145716D01*
X194713935Y-125144294D01*
X194713933Y-125144293D01*
X194503402Y-125087881D01*
X194503400Y-125087881D01*
X194498087Y-125086457D01*
X194270000Y-125066502D01*
X194041913Y-125086457D01*
X194036600Y-125087881D01*
X194036598Y-125087881D01*
X193826067Y-125144293D01*
X193826065Y-125144294D01*
X193820757Y-125145716D01*
X193815776Y-125148039D01*
X193815775Y-125148039D01*
X193618238Y-125240151D01*
X193618233Y-125240154D01*
X193613251Y-125242477D01*
X193511960Y-125313402D01*
X193430211Y-125370643D01*
X193430208Y-125370645D01*
X193425700Y-125373802D01*
X193263802Y-125535700D01*
X193260645Y-125540208D01*
X193260643Y-125540211D01*
X193217713Y-125601522D01*
X193132477Y-125723251D01*
X193130154Y-125728233D01*
X193130151Y-125728238D01*
X193039417Y-125922820D01*
X193035716Y-125930757D01*
X193034294Y-125936065D01*
X193034293Y-125936067D01*
X192982373Y-126129834D01*
X192976457Y-126151913D01*
X192956502Y-126380000D01*
X191671235Y-126380000D01*
X190607968Y-125316734D01*
X190573942Y-125254422D01*
X190571542Y-125216657D01*
X190583019Y-125085475D01*
X190583498Y-125080000D01*
X190563543Y-124851913D01*
X190562119Y-124846598D01*
X190505707Y-124636067D01*
X190505706Y-124636065D01*
X190504284Y-124630757D01*
X190494559Y-124609901D01*
X190409849Y-124428238D01*
X190409846Y-124428233D01*
X190407523Y-124423251D01*
X190276198Y-124235700D01*
X190114300Y-124073802D01*
X190109792Y-124070645D01*
X190109789Y-124070643D01*
X190016389Y-124005244D01*
X189926749Y-123942477D01*
X189921767Y-123940154D01*
X189921762Y-123940151D01*
X189724225Y-123848039D01*
X189724224Y-123848039D01*
X189719243Y-123845716D01*
X189713935Y-123844294D01*
X189713933Y-123844293D01*
X189503402Y-123787881D01*
X189503400Y-123787881D01*
X189498087Y-123786457D01*
X189270000Y-123766502D01*
X189041913Y-123786457D01*
X189036600Y-123787881D01*
X189036598Y-123787881D01*
X188826067Y-123844293D01*
X188826065Y-123844294D01*
X188820757Y-123845716D01*
X188815776Y-123848039D01*
X188815775Y-123848039D01*
X188618238Y-123940151D01*
X188618233Y-123940154D01*
X188613251Y-123942477D01*
X188523611Y-124005244D01*
X188430211Y-124070643D01*
X188430208Y-124070645D01*
X188425700Y-124073802D01*
X188263802Y-124235700D01*
X188132477Y-124423251D01*
X188130154Y-124428233D01*
X188130151Y-124428238D01*
X188045441Y-124609901D01*
X188035716Y-124630757D01*
X188034294Y-124636065D01*
X188034293Y-124636067D01*
X187977881Y-124846598D01*
X187976457Y-124851913D01*
X187956502Y-125080000D01*
X185313672Y-125080000D01*
X185349733Y-125023937D01*
X185457083Y-124785629D01*
X185463288Y-124763629D01*
X185526760Y-124538576D01*
X185526761Y-124538573D01*
X185528030Y-124534072D01*
X185541489Y-124428275D01*
X185560616Y-124277921D01*
X185560616Y-124277917D01*
X185561014Y-124274791D01*
X185562046Y-124235405D01*
X185562796Y-124206760D01*
X185563431Y-124182500D01*
X185560920Y-124148709D01*
X185544407Y-123926500D01*
X185544406Y-123926496D01*
X185544061Y-123921848D01*
X185539410Y-123901290D01*
X185496636Y-123712262D01*
X185486377Y-123666923D01*
X185482324Y-123656500D01*
X185393340Y-123427676D01*
X185393339Y-123427673D01*
X185391647Y-123423323D01*
X185369739Y-123384991D01*
X185320933Y-123299600D01*
X185261951Y-123196402D01*
X185100138Y-122991143D01*
X184909763Y-122812057D01*
X184750397Y-122701500D01*
X184698851Y-122665741D01*
X184698848Y-122665739D01*
X184695009Y-122663076D01*
X184681291Y-122656311D01*
X184464781Y-122549540D01*
X184464778Y-122549539D01*
X184460593Y-122547475D01*
X184444927Y-122542460D01*
X184216123Y-122469220D01*
X184211665Y-122467793D01*
X183953693Y-122425779D01*
X183839942Y-122424290D01*
X183697022Y-122422419D01*
X183697019Y-122422419D01*
X183692345Y-122422358D01*
X183433362Y-122457604D01*
X183182433Y-122530743D01*
X183178180Y-122532703D01*
X183178179Y-122532704D01*
X183143915Y-122548500D01*
X182945072Y-122640168D01*
X182906067Y-122665741D01*
X182730404Y-122780910D01*
X182730399Y-122780914D01*
X182726491Y-122783476D01*
X182531494Y-122957518D01*
X182364363Y-123158470D01*
X182228771Y-123381919D01*
X182227320Y-123385380D01*
X182178739Y-123436818D01*
X182115220Y-123454000D01*
X181952287Y-123454000D01*
X181933337Y-123452567D01*
X181920331Y-123450588D01*
X181920327Y-123450588D01*
X181913097Y-123449488D01*
X181905805Y-123450081D01*
X181905802Y-123450081D01*
X181862724Y-123453585D01*
X181852510Y-123454000D01*
X181844965Y-123454000D01*
X181817938Y-123457151D01*
X181813590Y-123457581D01*
X181795389Y-123459061D01*
X181751079Y-123462665D01*
X181751075Y-123462666D01*
X181743782Y-123463259D01*
X181736817Y-123465515D01*
X181731399Y-123466598D01*
X181726039Y-123467865D01*
X181718768Y-123468713D01*
X181652946Y-123492605D01*
X181648796Y-123494030D01*
X181589134Y-123513358D01*
X181589130Y-123513360D01*
X181582175Y-123515613D01*
X181575924Y-123519406D01*
X181570916Y-123521699D01*
X181565964Y-123524179D01*
X181559087Y-123526675D01*
X181552969Y-123530686D01*
X181500536Y-123565062D01*
X181496818Y-123567408D01*
X181436947Y-123603739D01*
X181428897Y-123610849D01*
X181428884Y-123610834D01*
X181425510Y-123613825D01*
X181423145Y-123615802D01*
X181417023Y-123619816D01*
X181411988Y-123625131D01*
X181365910Y-123673772D01*
X181363532Y-123676214D01*
X179440150Y-125599595D01*
X179377838Y-125633621D01*
X179351055Y-125636500D01*
X173142003Y-125636500D01*
X173073882Y-125616498D01*
X173027389Y-125562842D01*
X173017285Y-125492568D01*
X173047271Y-125427422D01*
X173205257Y-125247274D01*
X173205261Y-125247269D01*
X173208339Y-125243759D01*
X173211762Y-125238438D01*
X173347208Y-125027863D01*
X173347210Y-125027860D01*
X173349733Y-125023937D01*
X173367160Y-124985250D01*
X173413375Y-124931355D01*
X173482042Y-124911000D01*
X173603963Y-124911000D01*
X173622913Y-124912433D01*
X173635919Y-124914412D01*
X173635923Y-124914412D01*
X173643153Y-124915512D01*
X173650445Y-124914919D01*
X173650448Y-124914919D01*
X173693526Y-124911415D01*
X173703740Y-124911000D01*
X173711285Y-124911000D01*
X173738312Y-124907849D01*
X173742660Y-124907419D01*
X173760861Y-124905939D01*
X173805171Y-124902335D01*
X173805175Y-124902334D01*
X173812468Y-124901741D01*
X173819433Y-124899485D01*
X173824851Y-124898402D01*
X173830211Y-124897135D01*
X173837482Y-124896287D01*
X173903304Y-124872395D01*
X173907454Y-124870970D01*
X173967116Y-124851642D01*
X173967120Y-124851640D01*
X173974075Y-124849387D01*
X173980326Y-124845594D01*
X173985334Y-124843301D01*
X173990286Y-124840821D01*
X173997163Y-124838325D01*
X174004523Y-124833500D01*
X174055714Y-124799938D01*
X174059432Y-124797592D01*
X174091435Y-124778172D01*
X174119303Y-124761261D01*
X174127353Y-124754151D01*
X174127366Y-124754166D01*
X174130740Y-124751175D01*
X174133105Y-124749198D01*
X174139227Y-124745184D01*
X174190341Y-124691227D01*
X174192718Y-124688786D01*
X175826405Y-123055100D01*
X175888717Y-123021074D01*
X175959533Y-123026139D01*
X176016368Y-123068686D01*
X176041179Y-123135206D01*
X176041500Y-123144195D01*
X176041500Y-123480634D01*
X176048255Y-123542816D01*
X176099385Y-123679205D01*
X176186739Y-123795761D01*
X176303295Y-123883115D01*
X176439684Y-123934245D01*
X176501866Y-123941000D01*
X179098134Y-123941000D01*
X179160316Y-123934245D01*
X179296705Y-123883115D01*
X179413261Y-123795761D01*
X179500615Y-123679205D01*
X179551745Y-123542816D01*
X179558500Y-123480634D01*
X179558500Y-120884366D01*
X179551745Y-120822184D01*
X179500615Y-120685795D01*
X179413261Y-120569239D01*
X179296705Y-120481885D01*
X179160316Y-120430755D01*
X179098134Y-120424000D01*
X176501866Y-120424000D01*
X176439684Y-120430755D01*
X176303295Y-120481885D01*
X176186739Y-120569239D01*
X176099385Y-120685795D01*
X176048255Y-120822184D01*
X176041500Y-120884366D01*
X176041500Y-121328000D01*
X176021498Y-121396121D01*
X175967842Y-121442614D01*
X175915500Y-121454000D01*
X175733537Y-121454000D01*
X175714587Y-121452567D01*
X175701581Y-121450588D01*
X175701577Y-121450588D01*
X175694347Y-121449488D01*
X175687055Y-121450081D01*
X175687052Y-121450081D01*
X175643974Y-121453585D01*
X175633760Y-121454000D01*
X175626215Y-121454000D01*
X175599188Y-121457151D01*
X175594840Y-121457581D01*
X175576639Y-121459061D01*
X175532329Y-121462665D01*
X175532325Y-121462666D01*
X175525032Y-121463259D01*
X175518067Y-121465515D01*
X175512649Y-121466598D01*
X175507289Y-121467865D01*
X175500018Y-121468713D01*
X175434196Y-121492605D01*
X175430046Y-121494030D01*
X175370384Y-121513358D01*
X175370380Y-121513360D01*
X175363425Y-121515613D01*
X175357174Y-121519406D01*
X175352166Y-121521699D01*
X175347214Y-121524179D01*
X175340337Y-121526675D01*
X175334219Y-121530686D01*
X175281786Y-121565062D01*
X175278068Y-121567408D01*
X175218197Y-121603739D01*
X175210147Y-121610849D01*
X175210134Y-121610834D01*
X175206760Y-121613825D01*
X175204395Y-121615802D01*
X175198273Y-121619816D01*
X175193238Y-121625131D01*
X175147160Y-121673772D01*
X175144782Y-121676214D01*
X173510475Y-123310520D01*
X173448163Y-123344546D01*
X173377347Y-123339481D01*
X173320512Y-123296934D01*
X173311992Y-123283956D01*
X173265192Y-123202072D01*
X173264270Y-123200459D01*
X173264268Y-123200457D01*
X173261951Y-123196402D01*
X173100138Y-122991143D01*
X172909763Y-122812057D01*
X172750397Y-122701500D01*
X172698851Y-122665741D01*
X172698848Y-122665739D01*
X172695009Y-122663076D01*
X172681291Y-122656311D01*
X172464781Y-122549540D01*
X172464778Y-122549539D01*
X172460593Y-122547475D01*
X172444927Y-122542460D01*
X172216123Y-122469220D01*
X172211665Y-122467793D01*
X171953693Y-122425779D01*
X171839942Y-122424290D01*
X171697022Y-122422419D01*
X171697019Y-122422419D01*
X171692345Y-122422358D01*
X171433362Y-122457604D01*
X171182433Y-122530743D01*
X171178180Y-122532703D01*
X171178179Y-122532704D01*
X171143915Y-122548500D01*
X170945072Y-122640168D01*
X170906067Y-122665741D01*
X170730404Y-122780910D01*
X170730399Y-122780914D01*
X170726491Y-122783476D01*
X170531494Y-122957518D01*
X170364363Y-123158470D01*
X170338883Y-123200460D01*
X170274163Y-123307115D01*
X170221724Y-123354976D01*
X170151734Y-123366888D01*
X170086414Y-123339070D01*
X170077349Y-123330845D01*
X168819702Y-122073197D01*
X167467191Y-120720686D01*
X167454804Y-120706273D01*
X167447009Y-120695681D01*
X167442668Y-120689782D01*
X167404147Y-120657056D01*
X167396631Y-120650126D01*
X167391301Y-120644796D01*
X167369955Y-120627908D01*
X167366569Y-120625131D01*
X167318788Y-120584538D01*
X167318786Y-120584537D01*
X167313206Y-120579796D01*
X167306686Y-120576466D01*
X167302103Y-120573410D01*
X167297404Y-120570507D01*
X167291662Y-120565965D01*
X167285034Y-120562867D01*
X167285027Y-120562863D01*
X167228230Y-120536318D01*
X167224278Y-120534387D01*
X167195319Y-120519600D01*
X167161913Y-120502542D01*
X167154800Y-120500802D01*
X167149638Y-120498882D01*
X167144396Y-120497138D01*
X167137765Y-120494039D01*
X167069214Y-120479780D01*
X167064930Y-120478810D01*
X167002360Y-120463499D01*
X167002356Y-120463498D01*
X166996907Y-120462165D01*
X166991307Y-120461818D01*
X166991303Y-120461817D01*
X166986187Y-120461500D01*
X166986188Y-120461479D01*
X166981677Y-120461209D01*
X166978618Y-120460936D01*
X166971450Y-120459445D01*
X166964133Y-120459643D01*
X166897205Y-120461454D01*
X166893797Y-120461500D01*
X166634500Y-120461500D01*
X166566379Y-120441498D01*
X166519886Y-120387842D01*
X166508500Y-120335500D01*
X166508500Y-120016695D01*
X187907251Y-120016695D01*
X187907548Y-120021848D01*
X187907548Y-120021851D01*
X187914748Y-120146725D01*
X187920110Y-120239715D01*
X187921247Y-120244761D01*
X187921248Y-120244767D01*
X187927530Y-120272641D01*
X187969222Y-120457639D01*
X188019466Y-120581375D01*
X188048853Y-120653747D01*
X188053266Y-120664616D01*
X188094659Y-120732163D01*
X188159234Y-120837540D01*
X188169987Y-120855088D01*
X188316250Y-121023938D01*
X188488126Y-121166632D01*
X188681000Y-121279338D01*
X188685825Y-121281180D01*
X188685826Y-121281181D01*
X188709311Y-121290149D01*
X188889692Y-121359030D01*
X188894760Y-121360061D01*
X188894763Y-121360062D01*
X189002017Y-121381883D01*
X189108597Y-121403567D01*
X189113772Y-121403757D01*
X189113774Y-121403757D01*
X189326673Y-121411564D01*
X189326677Y-121411564D01*
X189331837Y-121411753D01*
X189336957Y-121411097D01*
X189336959Y-121411097D01*
X189548288Y-121384025D01*
X189548289Y-121384025D01*
X189553416Y-121383368D01*
X189558366Y-121381883D01*
X189762429Y-121320661D01*
X189762434Y-121320659D01*
X189767384Y-121319174D01*
X189967994Y-121220896D01*
X189973884Y-121216695D01*
X192907251Y-121216695D01*
X192907548Y-121221848D01*
X192907548Y-121221851D01*
X192914748Y-121346725D01*
X192920110Y-121439715D01*
X192921247Y-121444761D01*
X192921248Y-121444767D01*
X192940611Y-121530686D01*
X192969222Y-121657639D01*
X193053266Y-121864616D01*
X193075020Y-121900116D01*
X193164591Y-122046282D01*
X193169987Y-122055088D01*
X193316250Y-122223938D01*
X193488126Y-122366632D01*
X193681000Y-122479338D01*
X193685825Y-122481180D01*
X193685826Y-122481181D01*
X193718086Y-122493500D01*
X193889692Y-122559030D01*
X193894760Y-122560061D01*
X193894763Y-122560062D01*
X193998272Y-122581121D01*
X194108597Y-122603567D01*
X194113772Y-122603757D01*
X194113774Y-122603757D01*
X194326673Y-122611564D01*
X194326677Y-122611564D01*
X194331837Y-122611753D01*
X194336957Y-122611097D01*
X194336959Y-122611097D01*
X194548288Y-122584025D01*
X194548289Y-122584025D01*
X194553416Y-122583368D01*
X194560906Y-122581121D01*
X194762429Y-122520661D01*
X194762434Y-122520659D01*
X194767384Y-122519174D01*
X194967994Y-122420896D01*
X195149860Y-122291173D01*
X195159152Y-122281914D01*
X195233021Y-122208302D01*
X195308096Y-122133489D01*
X195313424Y-122126075D01*
X195435435Y-121956277D01*
X195438453Y-121952077D01*
X195466589Y-121895149D01*
X195535136Y-121756453D01*
X195535137Y-121756451D01*
X195537430Y-121751811D01*
X195579215Y-121614282D01*
X195600865Y-121543023D01*
X195600865Y-121543021D01*
X195602370Y-121538069D01*
X195631529Y-121316590D01*
X195632194Y-121289368D01*
X195633074Y-121253365D01*
X195633074Y-121253361D01*
X195633156Y-121250000D01*
X195614852Y-121027361D01*
X195560431Y-120810702D01*
X195471354Y-120605840D01*
X195406004Y-120504824D01*
X195352822Y-120422617D01*
X195352820Y-120422614D01*
X195350014Y-120418277D01*
X195199670Y-120253051D01*
X195195619Y-120249852D01*
X195195615Y-120249848D01*
X195028414Y-120117800D01*
X195028410Y-120117798D01*
X195024359Y-120114598D01*
X194828789Y-120006638D01*
X194823920Y-120004914D01*
X194823916Y-120004912D01*
X194623087Y-119933795D01*
X194623083Y-119933794D01*
X194618212Y-119932069D01*
X194613119Y-119931162D01*
X194613116Y-119931161D01*
X194403373Y-119893800D01*
X194403367Y-119893799D01*
X194398284Y-119892894D01*
X194324452Y-119891992D01*
X194180081Y-119890228D01*
X194180079Y-119890228D01*
X194174911Y-119890165D01*
X193954091Y-119923955D01*
X193741756Y-119993357D01*
X193711443Y-120009137D01*
X193548723Y-120093844D01*
X193543607Y-120096507D01*
X193539474Y-120099610D01*
X193539471Y-120099612D01*
X193369100Y-120227530D01*
X193364965Y-120230635D01*
X193361393Y-120234373D01*
X193217767Y-120384669D01*
X193210629Y-120392138D01*
X193207715Y-120396410D01*
X193207714Y-120396411D01*
X193133760Y-120504824D01*
X193084743Y-120576680D01*
X193069003Y-120610590D01*
X192998953Y-120761500D01*
X192990688Y-120779305D01*
X192930989Y-120994570D01*
X192907251Y-121216695D01*
X189973884Y-121216695D01*
X190149860Y-121091173D01*
X190308096Y-120933489D01*
X190367594Y-120850689D01*
X190435435Y-120756277D01*
X190438453Y-120752077D01*
X190443682Y-120741498D01*
X190535136Y-120556453D01*
X190535137Y-120556451D01*
X190537430Y-120551811D01*
X190578954Y-120415139D01*
X190600865Y-120343023D01*
X190600865Y-120343021D01*
X190602370Y-120338069D01*
X190631529Y-120116590D01*
X190631863Y-120102928D01*
X190633074Y-120053365D01*
X190633074Y-120053361D01*
X190633156Y-120050000D01*
X190614852Y-119827361D01*
X190560431Y-119610702D01*
X190471354Y-119405840D01*
X190369663Y-119248650D01*
X190352822Y-119222617D01*
X190352820Y-119222614D01*
X190350014Y-119218277D01*
X190199670Y-119053051D01*
X190195619Y-119049852D01*
X190195615Y-119049848D01*
X190028414Y-118917800D01*
X190028410Y-118917798D01*
X190024359Y-118914598D01*
X189828789Y-118806638D01*
X189823920Y-118804914D01*
X189823916Y-118804912D01*
X189623087Y-118733795D01*
X189623083Y-118733794D01*
X189618212Y-118732069D01*
X189613119Y-118731162D01*
X189613116Y-118731161D01*
X189403373Y-118693800D01*
X189403367Y-118693799D01*
X189398284Y-118692894D01*
X189324452Y-118691992D01*
X189180081Y-118690228D01*
X189180079Y-118690228D01*
X189174911Y-118690165D01*
X188954091Y-118723955D01*
X188741756Y-118793357D01*
X188543607Y-118896507D01*
X188539474Y-118899610D01*
X188539471Y-118899612D01*
X188369100Y-119027530D01*
X188364965Y-119030635D01*
X188210629Y-119192138D01*
X188084743Y-119376680D01*
X188069003Y-119410590D01*
X188012867Y-119531525D01*
X187990688Y-119579305D01*
X187930989Y-119794570D01*
X187907251Y-120016695D01*
X166508500Y-120016695D01*
X166508500Y-119891866D01*
X166501745Y-119829684D01*
X166450615Y-119693295D01*
X166363261Y-119576739D01*
X166246705Y-119489385D01*
X166110316Y-119438255D01*
X166048134Y-119431500D01*
X164151866Y-119431500D01*
X164089684Y-119438255D01*
X163953295Y-119489385D01*
X163836739Y-119576739D01*
X163749385Y-119693295D01*
X163698255Y-119829684D01*
X163691500Y-119891866D01*
X163691500Y-122488134D01*
X163698255Y-122550316D01*
X163749385Y-122686705D01*
X163836739Y-122803261D01*
X163953295Y-122890615D01*
X164089684Y-122941745D01*
X164151866Y-122948500D01*
X166048134Y-122948500D01*
X166110316Y-122941745D01*
X166246705Y-122890615D01*
X166363261Y-122803261D01*
X166450615Y-122686705D01*
X166501745Y-122550316D01*
X166508500Y-122488134D01*
X166508500Y-122126694D01*
X166528502Y-122058573D01*
X166582158Y-122012080D01*
X166652432Y-122001976D01*
X166717012Y-122031470D01*
X166723594Y-122037598D01*
X168040971Y-123354976D01*
X169337809Y-124651814D01*
X169350196Y-124666227D01*
X169362332Y-124682718D01*
X169390053Y-124706269D01*
X169400853Y-124715444D01*
X169408369Y-124722374D01*
X169413699Y-124727704D01*
X169435045Y-124744592D01*
X169438431Y-124747369D01*
X169483466Y-124785629D01*
X169491794Y-124792704D01*
X169498314Y-124796034D01*
X169502897Y-124799090D01*
X169507596Y-124801993D01*
X169513338Y-124806535D01*
X169519966Y-124809633D01*
X169519973Y-124809637D01*
X169576770Y-124836182D01*
X169580722Y-124838113D01*
X169643087Y-124869958D01*
X169650200Y-124871698D01*
X169655362Y-124873618D01*
X169660604Y-124875362D01*
X169667235Y-124878461D01*
X169735782Y-124892719D01*
X169740070Y-124893690D01*
X169802640Y-124909001D01*
X169802644Y-124909002D01*
X169808093Y-124910335D01*
X169813693Y-124910682D01*
X169813697Y-124910683D01*
X169818813Y-124911000D01*
X169818812Y-124911021D01*
X169823323Y-124911291D01*
X169826382Y-124911564D01*
X169833550Y-124913055D01*
X169840867Y-124912857D01*
X169907795Y-124911046D01*
X169911203Y-124911000D01*
X170119735Y-124911000D01*
X170187856Y-124931002D01*
X170230727Y-124977362D01*
X170300433Y-125107091D01*
X170312737Y-125129991D01*
X170315532Y-125133734D01*
X170315534Y-125133737D01*
X170466330Y-125335677D01*
X170466335Y-125335683D01*
X170469122Y-125339415D01*
X170472431Y-125342695D01*
X170472436Y-125342701D01*
X170551439Y-125421017D01*
X170585736Y-125483180D01*
X170580980Y-125554017D01*
X170538681Y-125611038D01*
X170472270Y-125636139D01*
X170462733Y-125636500D01*
X168628945Y-125636500D01*
X168560824Y-125616498D01*
X168539849Y-125599595D01*
X168113856Y-125173601D01*
X167660937Y-124720682D01*
X167648551Y-124706269D01*
X167640759Y-124695681D01*
X167636418Y-124689782D01*
X167597897Y-124657056D01*
X167590381Y-124650126D01*
X167585051Y-124644796D01*
X167563705Y-124627908D01*
X167560319Y-124625131D01*
X167512538Y-124584538D01*
X167512536Y-124584537D01*
X167506956Y-124579796D01*
X167500436Y-124576466D01*
X167495853Y-124573410D01*
X167491154Y-124570507D01*
X167485412Y-124565965D01*
X167478784Y-124562867D01*
X167478777Y-124562863D01*
X167421980Y-124536318D01*
X167418028Y-124534387D01*
X167362182Y-124505871D01*
X167355663Y-124502542D01*
X167348550Y-124500802D01*
X167343388Y-124498882D01*
X167338146Y-124497138D01*
X167331515Y-124494039D01*
X167262964Y-124479780D01*
X167258680Y-124478810D01*
X167196110Y-124463499D01*
X167196106Y-124463498D01*
X167190657Y-124462165D01*
X167185057Y-124461818D01*
X167185053Y-124461817D01*
X167179937Y-124461500D01*
X167179938Y-124461479D01*
X167175427Y-124461209D01*
X167172368Y-124460936D01*
X167165200Y-124459445D01*
X167157883Y-124459643D01*
X167090955Y-124461454D01*
X167087547Y-124461500D01*
X166634500Y-124461500D01*
X166566379Y-124441498D01*
X166519886Y-124387842D01*
X166508500Y-124335500D01*
X166508500Y-123891866D01*
X166501745Y-123829684D01*
X166450615Y-123693295D01*
X166363261Y-123576739D01*
X166246705Y-123489385D01*
X166110316Y-123438255D01*
X166048134Y-123431500D01*
X164151866Y-123431500D01*
X164089684Y-123438255D01*
X163953295Y-123489385D01*
X163836739Y-123576739D01*
X163749385Y-123693295D01*
X163698255Y-123829684D01*
X163691500Y-123891866D01*
X163691500Y-125998609D01*
X163671498Y-126066730D01*
X163617842Y-126113223D01*
X163591695Y-126121856D01*
X163547711Y-126131205D01*
X163541681Y-126133890D01*
X163541680Y-126133890D01*
X163379277Y-126206196D01*
X163379275Y-126206197D01*
X163373247Y-126208881D01*
X163367906Y-126212761D01*
X163367905Y-126212762D01*
X163361352Y-126217523D01*
X163218746Y-126321133D01*
X163214325Y-126326043D01*
X163214324Y-126326044D01*
X163211147Y-126329573D01*
X163090959Y-126463055D01*
X163062717Y-126511972D01*
X163007225Y-126608087D01*
X162995472Y-126628443D01*
X162936457Y-126810071D01*
X162935767Y-126816632D01*
X162935767Y-126816634D01*
X162924016Y-126928439D01*
X162916495Y-126999999D01*
X161978500Y-126999999D01*
X161978500Y-126758945D01*
X161998502Y-126690824D01*
X162015408Y-126669846D01*
X162027458Y-126657797D01*
X162090352Y-126623650D01*
X162207288Y-126598794D01*
X162289251Y-126562302D01*
X162375722Y-126523803D01*
X162375724Y-126523802D01*
X162381752Y-126521118D01*
X162394341Y-126511972D01*
X162461667Y-126463056D01*
X162536253Y-126408866D01*
X162610826Y-126326044D01*
X162659621Y-126271852D01*
X162659622Y-126271851D01*
X162664040Y-126266944D01*
X162759527Y-126101556D01*
X162818542Y-125919928D01*
X162819598Y-125909886D01*
X162837814Y-125736565D01*
X162838504Y-125730000D01*
X162825802Y-125609146D01*
X162819232Y-125546635D01*
X162819232Y-125546633D01*
X162818542Y-125540072D01*
X162759527Y-125358444D01*
X162746383Y-125335677D01*
X162711458Y-125275187D01*
X162664040Y-125193056D01*
X162648370Y-125175652D01*
X162540675Y-125056045D01*
X162540674Y-125056044D01*
X162536253Y-125051134D01*
X162407907Y-124957885D01*
X162387094Y-124942763D01*
X162387093Y-124942762D01*
X162381752Y-124938882D01*
X162375724Y-124936198D01*
X162375722Y-124936197D01*
X162213319Y-124863891D01*
X162213318Y-124863891D01*
X162207288Y-124861206D01*
X162099642Y-124838325D01*
X162026944Y-124822872D01*
X162026939Y-124822872D01*
X162020487Y-124821500D01*
X161829513Y-124821500D01*
X161823061Y-124822872D01*
X161823056Y-124822872D01*
X161750358Y-124838325D01*
X161642712Y-124861206D01*
X161636682Y-124863891D01*
X161636681Y-124863891D01*
X161474278Y-124936197D01*
X161474276Y-124936198D01*
X161468248Y-124938882D01*
X161462907Y-124942762D01*
X161462906Y-124942763D01*
X161442093Y-124957885D01*
X161313747Y-125051134D01*
X161309326Y-125056044D01*
X161309325Y-125056045D01*
X161201631Y-125175652D01*
X161185960Y-125193056D01*
X161138542Y-125275187D01*
X161103618Y-125335677D01*
X161090473Y-125358444D01*
X161078137Y-125396411D01*
X161034977Y-125529243D01*
X161031458Y-125540072D01*
X161030768Y-125546635D01*
X161030768Y-125546636D01*
X161029872Y-125555162D01*
X161002859Y-125620819D01*
X160993658Y-125631087D01*
X160780683Y-125844063D01*
X160766276Y-125856444D01*
X160749782Y-125868582D01*
X160745038Y-125874166D01*
X160745037Y-125874167D01*
X160717056Y-125907103D01*
X160710126Y-125914619D01*
X160704796Y-125919949D01*
X160687908Y-125941295D01*
X160685131Y-125944681D01*
X160644538Y-125992462D01*
X160639796Y-125998044D01*
X160636466Y-126004564D01*
X160633410Y-126009147D01*
X160630507Y-126013846D01*
X160625965Y-126019588D01*
X160622867Y-126026216D01*
X160622863Y-126026223D01*
X160596318Y-126083020D01*
X160594387Y-126086972D01*
X160562542Y-126149337D01*
X160560802Y-126156450D01*
X160558882Y-126161612D01*
X160557138Y-126166854D01*
X160554039Y-126173485D01*
X160545869Y-126212762D01*
X160539781Y-126242032D01*
X160538810Y-126246320D01*
X160532811Y-126270838D01*
X160522165Y-126314343D01*
X160521818Y-126319943D01*
X160521817Y-126319947D01*
X160521500Y-126325062D01*
X160521500Y-126325063D01*
X160521479Y-126325062D01*
X160521209Y-126329573D01*
X160520936Y-126332632D01*
X160519445Y-126339800D01*
X160519643Y-126347117D01*
X160521454Y-126414045D01*
X160521500Y-126417453D01*
X160521500Y-130737052D01*
X160501498Y-130805173D01*
X160460866Y-130844770D01*
X160451249Y-130850606D01*
X160446683Y-130853377D01*
X160442653Y-130856874D01*
X160280138Y-130997897D01*
X160272555Y-131004477D01*
X160259579Y-131020302D01*
X160129760Y-131178627D01*
X160129756Y-131178633D01*
X160126376Y-131182755D01*
X160123733Y-131187398D01*
X160108171Y-131214735D01*
X160057088Y-131264041D01*
X159987458Y-131277902D01*
X159921387Y-131251918D01*
X159894149Y-131222768D01*
X159815148Y-131105422D01*
X159808481Y-131097130D01*
X159656772Y-130938100D01*
X159648814Y-130931059D01*
X159472475Y-130799859D01*
X159463438Y-130794255D01*
X159267516Y-130694643D01*
X159257665Y-130690643D01*
X159047760Y-130625466D01*
X159037376Y-130623183D01*
X159021957Y-130621139D01*
X159007793Y-130623335D01*
X159004000Y-130636522D01*
X159004000Y-133521192D01*
X158496000Y-133521192D01*
X158496000Y-130638808D01*
X158492027Y-130625277D01*
X158481420Y-130623752D01*
X158360374Y-130649150D01*
X158289597Y-130643562D01*
X158233077Y-130600598D01*
X158208758Y-130533896D01*
X158208500Y-130525835D01*
X158208500Y-122254787D01*
X158209933Y-122235837D01*
X158211912Y-122222831D01*
X158211912Y-122222827D01*
X158213012Y-122215597D01*
X158212224Y-122205902D01*
X158208915Y-122165224D01*
X158208500Y-122155010D01*
X158208500Y-122147465D01*
X158205349Y-122120438D01*
X158204918Y-122116079D01*
X158204025Y-122105092D01*
X158203257Y-122095652D01*
X158199835Y-122053579D01*
X158199834Y-122053575D01*
X158199241Y-122046282D01*
X158196985Y-122039317D01*
X158195902Y-122033899D01*
X158194635Y-122028539D01*
X158193787Y-122021268D01*
X158169895Y-121955446D01*
X158168470Y-121951296D01*
X158149142Y-121891634D01*
X158149140Y-121891630D01*
X158146887Y-121884675D01*
X158143094Y-121878424D01*
X158140801Y-121873416D01*
X158138321Y-121868464D01*
X158135825Y-121861587D01*
X158097438Y-121803036D01*
X158095092Y-121799318D01*
X158064244Y-121748483D01*
X158058761Y-121739447D01*
X158051651Y-121731397D01*
X158051666Y-121731384D01*
X158048675Y-121728010D01*
X158046698Y-121725645D01*
X158042684Y-121719523D01*
X157988727Y-121668409D01*
X157986286Y-121666032D01*
X157455405Y-121135151D01*
X157421379Y-121072839D01*
X157418500Y-121046056D01*
X157418500Y-120519600D01*
X157417739Y-120512262D01*
X157408238Y-120420692D01*
X157408237Y-120420688D01*
X157407526Y-120413834D01*
X157400072Y-120391490D01*
X157360350Y-120272430D01*
X157351550Y-120246054D01*
X157258478Y-120095652D01*
X157224883Y-120062115D01*
X157138483Y-119975866D01*
X157133303Y-119970695D01*
X157076419Y-119935631D01*
X156988968Y-119881725D01*
X156988966Y-119881724D01*
X156982738Y-119877885D01*
X156837416Y-119829684D01*
X156821389Y-119824368D01*
X156821387Y-119824368D01*
X156814861Y-119822203D01*
X156808025Y-119821503D01*
X156808022Y-119821502D01*
X156764969Y-119817091D01*
X156710400Y-119811500D01*
X155709600Y-119811500D01*
X155706354Y-119811837D01*
X155706350Y-119811837D01*
X155610692Y-119821762D01*
X155610688Y-119821763D01*
X155603834Y-119822474D01*
X155597298Y-119824655D01*
X155597296Y-119824655D01*
X155465566Y-119868604D01*
X155436054Y-119878450D01*
X155285652Y-119971522D01*
X155280479Y-119976704D01*
X155245682Y-120011562D01*
X155160695Y-120096697D01*
X155156855Y-120102927D01*
X155156854Y-120102928D01*
X155071828Y-120240866D01*
X155067885Y-120247262D01*
X155065581Y-120254209D01*
X155065580Y-120254212D01*
X155059537Y-120272430D01*
X155019107Y-120330791D01*
X154953543Y-120358028D01*
X154883661Y-120345495D01*
X154831649Y-120297171D01*
X154820421Y-120272641D01*
X154813871Y-120253007D01*
X154813867Y-120252997D01*
X154811550Y-120246054D01*
X154718478Y-120095652D01*
X154684883Y-120062115D01*
X154598483Y-119975866D01*
X154593303Y-119970695D01*
X154536419Y-119935631D01*
X154448968Y-119881725D01*
X154448966Y-119881724D01*
X154442738Y-119877885D01*
X154297416Y-119829684D01*
X154281389Y-119824368D01*
X154281387Y-119824368D01*
X154274861Y-119822203D01*
X154268025Y-119821503D01*
X154268022Y-119821502D01*
X154224969Y-119817091D01*
X154170400Y-119811500D01*
X153169600Y-119811500D01*
X153166354Y-119811837D01*
X153166350Y-119811837D01*
X153070692Y-119821762D01*
X153070688Y-119821763D01*
X153063834Y-119822474D01*
X153057298Y-119824655D01*
X153057296Y-119824655D01*
X152925566Y-119868604D01*
X152896054Y-119878450D01*
X152745652Y-119971522D01*
X152740479Y-119976704D01*
X152705682Y-120011562D01*
X152620695Y-120096697D01*
X152616855Y-120102927D01*
X152616854Y-120102928D01*
X152531828Y-120240866D01*
X152527885Y-120247262D01*
X152525581Y-120254209D01*
X152481072Y-120388401D01*
X152472203Y-120415139D01*
X152471503Y-120421975D01*
X152471502Y-120421978D01*
X152468365Y-120452596D01*
X152461500Y-120519600D01*
X152461500Y-121046055D01*
X152441498Y-121114176D01*
X152424595Y-121135150D01*
X152167134Y-121392611D01*
X152104822Y-121426637D01*
X152034007Y-121421572D01*
X152011923Y-121410776D01*
X151908757Y-121347184D01*
X151895576Y-121341037D01*
X151741290Y-121289862D01*
X151727914Y-121286995D01*
X151633562Y-121277328D01*
X151627145Y-121277000D01*
X151402115Y-121277000D01*
X151386876Y-121281475D01*
X151385671Y-121282865D01*
X151384000Y-121290548D01*
X151384000Y-122513000D01*
X151363998Y-122581121D01*
X151310342Y-122627614D01*
X151258000Y-122639000D01*
X151002000Y-122639000D01*
X150933879Y-122618998D01*
X150887386Y-122565342D01*
X150876000Y-122513000D01*
X150876000Y-121295116D01*
X150871525Y-121279877D01*
X150870135Y-121278672D01*
X150862452Y-121277001D01*
X150632905Y-121277001D01*
X150626386Y-121277338D01*
X150530794Y-121287257D01*
X150517400Y-121290149D01*
X150363216Y-121341588D01*
X150350038Y-121347761D01*
X150212193Y-121433063D01*
X150200792Y-121442099D01*
X150086261Y-121556829D01*
X150077249Y-121568240D01*
X149992184Y-121706243D01*
X149986035Y-121719429D01*
X149979800Y-121738225D01*
X149939369Y-121796584D01*
X149873804Y-121823820D01*
X149803923Y-121811286D01*
X149751912Y-121762960D01*
X149740684Y-121738432D01*
X149733868Y-121718002D01*
X149731550Y-121711054D01*
X149638478Y-121560652D01*
X149513303Y-121435695D01*
X149507072Y-121431854D01*
X149368968Y-121346725D01*
X149368966Y-121346724D01*
X149362738Y-121342885D01*
X149273361Y-121313240D01*
X149201389Y-121289368D01*
X149201387Y-121289368D01*
X149194861Y-121287203D01*
X149188025Y-121286503D01*
X149188022Y-121286502D01*
X149144969Y-121282091D01*
X149090400Y-121276500D01*
X148089600Y-121276500D01*
X148086354Y-121276837D01*
X148086350Y-121276837D01*
X147990692Y-121286762D01*
X147990688Y-121286763D01*
X147983834Y-121287474D01*
X147977298Y-121289655D01*
X147977296Y-121289655D01*
X147888818Y-121319174D01*
X147816054Y-121343450D01*
X147665652Y-121436522D01*
X147540695Y-121561697D01*
X147536855Y-121567927D01*
X147536854Y-121567928D01*
X147480645Y-121659116D01*
X147427873Y-121706609D01*
X147373385Y-121719000D01*
X146619367Y-121719000D01*
X146551246Y-121698998D01*
X146504753Y-121645342D01*
X146498370Y-121628152D01*
X146494341Y-121614282D01*
X146489145Y-121596399D01*
X146464945Y-121555479D01*
X146408491Y-121460020D01*
X146408489Y-121460017D01*
X146404453Y-121453193D01*
X146286807Y-121335547D01*
X146279983Y-121331511D01*
X146279980Y-121331509D01*
X146150427Y-121254892D01*
X146150428Y-121254892D01*
X146143601Y-121250855D01*
X146135990Y-121248644D01*
X146135988Y-121248643D01*
X146083769Y-121233472D01*
X145983831Y-121204438D01*
X145977426Y-121203934D01*
X145977421Y-121203933D01*
X145948958Y-121201693D01*
X145948950Y-121201693D01*
X145946502Y-121201500D01*
X145513498Y-121201500D01*
X145511050Y-121201693D01*
X145511042Y-121201693D01*
X145482579Y-121203933D01*
X145482574Y-121203934D01*
X145476169Y-121204438D01*
X145376231Y-121233472D01*
X145324012Y-121248643D01*
X145324010Y-121248644D01*
X145316399Y-121250855D01*
X145309572Y-121254892D01*
X145309573Y-121254892D01*
X145180020Y-121331509D01*
X145180017Y-121331511D01*
X145173193Y-121335547D01*
X145055547Y-121453193D01*
X145051511Y-121460017D01*
X145051509Y-121460020D01*
X144995055Y-121555479D01*
X144970855Y-121596399D01*
X144968644Y-121604010D01*
X144968643Y-121604012D01*
X144964052Y-121619816D01*
X144924438Y-121756169D01*
X144923934Y-121762574D01*
X144923933Y-121762579D01*
X144921693Y-121791042D01*
X144921500Y-121793498D01*
X144921500Y-122950500D01*
X144901498Y-123018621D01*
X144847842Y-123065114D01*
X144795500Y-123076500D01*
X144764000Y-123076500D01*
X144695879Y-123056498D01*
X144649386Y-123002842D01*
X144638000Y-122950500D01*
X144638000Y-122719615D01*
X144633525Y-122704376D01*
X144632135Y-122703171D01*
X144624452Y-122701500D01*
X144102115Y-122701500D01*
X144086876Y-122705975D01*
X144085671Y-122707365D01*
X144084000Y-122715048D01*
X144084000Y-123330158D01*
X144066453Y-123394297D01*
X144020855Y-123471399D01*
X144018644Y-123479010D01*
X144018643Y-123479012D01*
X144014695Y-123492602D01*
X143974438Y-123631169D01*
X143973934Y-123637574D01*
X143973933Y-123637579D01*
X143971693Y-123666042D01*
X143971500Y-123668498D01*
X143971500Y-124976502D01*
X143971693Y-124978950D01*
X143971693Y-124978958D01*
X143972867Y-124993868D01*
X143974438Y-125013831D01*
X143995538Y-125086457D01*
X144013429Y-125148039D01*
X144020855Y-125173601D01*
X144024890Y-125180424D01*
X144024891Y-125180426D01*
X144033953Y-125195749D01*
X144051500Y-125259889D01*
X144051500Y-126646056D01*
X144031498Y-126714177D01*
X144014595Y-126735151D01*
X143507285Y-127242460D01*
X143000686Y-127749059D01*
X142986273Y-127761446D01*
X142969782Y-127773582D01*
X142958182Y-127787236D01*
X142937056Y-127812103D01*
X142930126Y-127819619D01*
X142924796Y-127824949D01*
X142907908Y-127846295D01*
X142905131Y-127849681D01*
X142864538Y-127897462D01*
X142859796Y-127903044D01*
X142856466Y-127909564D01*
X142853410Y-127914147D01*
X142850507Y-127918846D01*
X142845965Y-127924588D01*
X142842867Y-127931216D01*
X142842863Y-127931223D01*
X142816318Y-127988020D01*
X142814387Y-127991972D01*
X142782542Y-128054337D01*
X142780802Y-128061450D01*
X142778882Y-128066612D01*
X142777138Y-128071854D01*
X142774039Y-128078485D01*
X142761598Y-128138297D01*
X142759781Y-128147032D01*
X142758810Y-128151320D01*
X142742165Y-128219343D01*
X142741500Y-128230063D01*
X142741479Y-128230062D01*
X142741209Y-128234573D01*
X142740936Y-128237632D01*
X142739445Y-128244800D01*
X142739643Y-128252117D01*
X142741454Y-128319045D01*
X142741500Y-128322453D01*
X142741500Y-130712052D01*
X142721498Y-130780173D01*
X142680866Y-130819770D01*
X142671249Y-130825606D01*
X142666683Y-130828377D01*
X142662653Y-130831874D01*
X142504970Y-130968704D01*
X142492555Y-130979477D01*
X142463330Y-131015120D01*
X142404671Y-131055114D01*
X142333701Y-131057046D01*
X142272952Y-131020302D01*
X142258752Y-131001532D01*
X142172332Y-130861880D01*
X142168478Y-130855652D01*
X142043303Y-130730695D01*
X142037072Y-130726854D01*
X141898968Y-130641725D01*
X141898966Y-130641724D01*
X141892738Y-130637885D01*
X141784832Y-130602094D01*
X141726473Y-130561665D01*
X141699236Y-130496101D01*
X141698500Y-130482502D01*
X141698500Y-127588961D01*
X141715381Y-127525961D01*
X141801223Y-127377279D01*
X141801224Y-127377278D01*
X141804527Y-127371556D01*
X141863542Y-127189928D01*
X141873868Y-127091687D01*
X141882814Y-127006565D01*
X141882814Y-127006564D01*
X141883504Y-127000000D01*
X141875903Y-126927684D01*
X141864232Y-126816635D01*
X141864232Y-126816633D01*
X141863542Y-126810072D01*
X141804527Y-126628444D01*
X141795843Y-126613402D01*
X141766340Y-126562302D01*
X141709040Y-126463056D01*
X141664911Y-126414045D01*
X141585675Y-126326045D01*
X141585674Y-126326044D01*
X141581253Y-126321134D01*
X141441847Y-126219849D01*
X141432094Y-126212763D01*
X141432093Y-126212762D01*
X141426752Y-126208882D01*
X141420724Y-126206198D01*
X141420722Y-126206197D01*
X141258319Y-126133891D01*
X141258316Y-126133890D01*
X141252288Y-126131206D01*
X141139721Y-126107279D01*
X141071944Y-126092872D01*
X141071939Y-126092872D01*
X141065487Y-126091500D01*
X140874513Y-126091500D01*
X140868061Y-126092872D01*
X140868056Y-126092872D01*
X140800279Y-126107279D01*
X140687712Y-126131206D01*
X140681684Y-126133890D01*
X140681681Y-126133891D01*
X140519278Y-126206197D01*
X140519276Y-126206198D01*
X140513248Y-126208882D01*
X140507907Y-126212762D01*
X140507906Y-126212763D01*
X140498153Y-126219849D01*
X140358747Y-126321134D01*
X140354326Y-126326044D01*
X140354325Y-126326045D01*
X140275090Y-126414045D01*
X140230960Y-126463056D01*
X140173660Y-126562302D01*
X140144158Y-126613402D01*
X140135473Y-126628444D01*
X140076458Y-126810072D01*
X140075768Y-126816633D01*
X140075768Y-126816635D01*
X140064097Y-126927684D01*
X140056496Y-127000000D01*
X140057186Y-127006564D01*
X140057186Y-127006565D01*
X140066133Y-127091687D01*
X140076458Y-127189928D01*
X140135473Y-127371556D01*
X140138776Y-127377278D01*
X140138777Y-127377279D01*
X140224619Y-127525961D01*
X140241500Y-127588961D01*
X140241500Y-130482453D01*
X140221498Y-130550574D01*
X140167842Y-130597067D01*
X140155377Y-130601976D01*
X140053007Y-130636130D01*
X140053005Y-130636131D01*
X140046054Y-130638450D01*
X139895652Y-130731522D01*
X139890479Y-130736704D01*
X139867965Y-130759257D01*
X139770695Y-130856697D01*
X139766855Y-130862927D01*
X139766854Y-130862928D01*
X139683658Y-130997897D01*
X139677885Y-131007262D01*
X139622203Y-131175139D01*
X139621503Y-131181975D01*
X139621502Y-131181978D01*
X139619338Y-131203102D01*
X139611500Y-131279600D01*
X139611500Y-132880400D01*
X139611837Y-132883646D01*
X139611837Y-132883650D01*
X139621067Y-132972602D01*
X139622474Y-132986166D01*
X139624655Y-132992702D01*
X139624655Y-132992704D01*
X139656295Y-133087540D01*
X139678450Y-133153946D01*
X139771522Y-133304348D01*
X139776704Y-133309521D01*
X139779318Y-133312130D01*
X139896697Y-133429305D01*
X139902927Y-133433145D01*
X139902928Y-133433146D01*
X140040090Y-133517694D01*
X140047262Y-133522115D01*
X140092145Y-133537002D01*
X140208611Y-133575632D01*
X140208613Y-133575632D01*
X140215139Y-133577797D01*
X140221975Y-133578497D01*
X140221978Y-133578498D01*
X140257663Y-133582154D01*
X140319600Y-133588500D01*
X141620400Y-133588500D01*
X141623646Y-133588163D01*
X141623650Y-133588163D01*
X141719308Y-133578238D01*
X141719312Y-133578237D01*
X141726166Y-133577526D01*
X141732702Y-133575345D01*
X141732704Y-133575345D01*
X141865375Y-133531082D01*
X141893946Y-133521550D01*
X142044348Y-133428478D01*
X142169305Y-133303303D01*
X142180883Y-133284521D01*
X142214910Y-133229318D01*
X142259081Y-133157660D01*
X142311852Y-133110168D01*
X142381924Y-133098744D01*
X142447048Y-133127018D01*
X142457510Y-133136805D01*
X142499215Y-133180523D01*
X142566576Y-133251135D01*
X142570854Y-133254318D01*
X142610053Y-133283483D01*
X142751542Y-133388754D01*
X142756293Y-133391170D01*
X142756297Y-133391172D01*
X142828151Y-133427704D01*
X142957051Y-133493240D01*
X142962145Y-133494822D01*
X142962148Y-133494823D01*
X143098972Y-133537308D01*
X143177227Y-133561607D01*
X143182516Y-133562308D01*
X143400489Y-133591198D01*
X143400494Y-133591198D01*
X143405774Y-133591898D01*
X143411103Y-133591698D01*
X143411105Y-133591698D01*
X143520966Y-133587574D01*
X143636158Y-133583249D01*
X143658802Y-133578498D01*
X143856572Y-133537002D01*
X143861791Y-133535907D01*
X143866750Y-133533949D01*
X143866752Y-133533948D01*
X144071256Y-133453185D01*
X144071258Y-133453184D01*
X144076221Y-133451224D01*
X144112343Y-133429305D01*
X144268757Y-133334390D01*
X144268756Y-133334390D01*
X144273317Y-133331623D01*
X144288369Y-133318562D01*
X144443412Y-133184023D01*
X144443414Y-133184021D01*
X144447445Y-133180523D01*
X144517914Y-133094580D01*
X144590240Y-133006373D01*
X144590244Y-133006367D01*
X144593624Y-133002245D01*
X144602237Y-132987115D01*
X144705032Y-132806529D01*
X144707675Y-132801886D01*
X144786337Y-132585175D01*
X144791703Y-132555500D01*
X144826623Y-132362392D01*
X144826624Y-132362385D01*
X144827361Y-132358308D01*
X144828197Y-132340586D01*
X144828430Y-132335644D01*
X144828430Y-132335637D01*
X144828500Y-132334156D01*
X144828500Y-131872110D01*
X144822716Y-131803944D01*
X144814371Y-131705591D01*
X144814370Y-131705587D01*
X144813920Y-131700280D01*
X144812582Y-131695125D01*
X144812581Y-131695119D01*
X144757343Y-131482297D01*
X144757342Y-131482293D01*
X144756001Y-131477128D01*
X144753506Y-131471588D01*
X144663507Y-131271798D01*
X144661312Y-131266925D01*
X144532559Y-131075681D01*
X144521923Y-131064531D01*
X144458357Y-130997897D01*
X144373424Y-130908865D01*
X144249287Y-130816504D01*
X144206574Y-130759793D01*
X144198500Y-130715415D01*
X144198500Y-128663944D01*
X144218502Y-128595823D01*
X144235405Y-128574849D01*
X145249310Y-127560944D01*
X145263723Y-127548557D01*
X145274319Y-127540760D01*
X145274323Y-127540756D01*
X145280218Y-127536418D01*
X145312950Y-127497890D01*
X145319880Y-127490374D01*
X145325204Y-127485050D01*
X145342093Y-127463703D01*
X145344830Y-127460365D01*
X145390204Y-127406956D01*
X145393529Y-127400444D01*
X145396580Y-127395870D01*
X145399494Y-127391152D01*
X145404035Y-127385412D01*
X145407361Y-127378297D01*
X145433675Y-127321993D01*
X145435606Y-127318041D01*
X145464129Y-127262182D01*
X145467458Y-127255663D01*
X145469197Y-127248554D01*
X145471122Y-127243379D01*
X145472863Y-127238144D01*
X145475962Y-127231515D01*
X145490224Y-127162947D01*
X145491194Y-127158663D01*
X145506501Y-127096110D01*
X145506502Y-127096106D01*
X145507835Y-127090657D01*
X145508197Y-127084835D01*
X145508500Y-127079937D01*
X145508521Y-127079938D01*
X145508791Y-127075426D01*
X145509064Y-127072369D01*
X145510555Y-127065200D01*
X145508546Y-126990939D01*
X145508500Y-126987532D01*
X145508500Y-125259889D01*
X145526047Y-125195749D01*
X145535109Y-125180426D01*
X145535110Y-125180424D01*
X145539145Y-125173601D01*
X145546572Y-125148039D01*
X145564462Y-125086457D01*
X145585562Y-125013831D01*
X145587134Y-124993868D01*
X145588307Y-124978958D01*
X145588307Y-124978950D01*
X145588500Y-124976502D01*
X145588500Y-123819500D01*
X145608502Y-123751379D01*
X145662158Y-123704886D01*
X145714500Y-123693500D01*
X145946502Y-123693500D01*
X145948950Y-123693307D01*
X145948958Y-123693307D01*
X145977421Y-123691067D01*
X145977426Y-123691066D01*
X145983831Y-123690562D01*
X146083769Y-123661528D01*
X146135988Y-123646357D01*
X146135990Y-123646356D01*
X146143601Y-123644145D01*
X146184739Y-123619816D01*
X146279980Y-123563491D01*
X146279983Y-123563489D01*
X146286807Y-123559453D01*
X146404453Y-123441807D01*
X146408489Y-123434983D01*
X146408491Y-123434980D01*
X146485108Y-123305427D01*
X146489145Y-123298601D01*
X146498370Y-123266848D01*
X146536582Y-123207013D01*
X146601078Y-123177334D01*
X146619367Y-123176000D01*
X147455989Y-123176000D01*
X147524110Y-123196002D01*
X147545007Y-123212827D01*
X147623304Y-123290987D01*
X147628109Y-123295784D01*
X147662188Y-123358066D01*
X147657185Y-123428886D01*
X147628264Y-123473975D01*
X147588950Y-123513358D01*
X147540695Y-123561697D01*
X147536855Y-123567927D01*
X147536854Y-123567928D01*
X147452432Y-123704886D01*
X147447885Y-123712262D01*
X147429736Y-123766981D01*
X147397512Y-123864134D01*
X147392203Y-123880139D01*
X147391503Y-123886975D01*
X147391502Y-123886978D01*
X147387453Y-123926500D01*
X147381500Y-123984600D01*
X147381500Y-124785400D01*
X147381837Y-124788646D01*
X147381837Y-124788650D01*
X147391156Y-124878461D01*
X147392474Y-124891166D01*
X147394655Y-124897702D01*
X147394655Y-124897704D01*
X147424678Y-124987694D01*
X147448450Y-125058946D01*
X147541522Y-125209348D01*
X147666697Y-125334305D01*
X147672927Y-125338145D01*
X147672928Y-125338146D01*
X147810090Y-125422694D01*
X147817262Y-125427115D01*
X147897005Y-125453564D01*
X147978611Y-125480632D01*
X147978613Y-125480632D01*
X147985139Y-125482797D01*
X147991975Y-125483497D01*
X147991978Y-125483498D01*
X148035031Y-125487909D01*
X148089600Y-125493500D01*
X149090400Y-125493500D01*
X149093646Y-125493163D01*
X149093650Y-125493163D01*
X149189308Y-125483238D01*
X149189312Y-125483237D01*
X149196166Y-125482526D01*
X149202702Y-125480345D01*
X149202704Y-125480345D01*
X149334806Y-125436272D01*
X149363946Y-125426550D01*
X149514348Y-125333478D01*
X149639305Y-125208303D01*
X149645179Y-125198774D01*
X149660831Y-125173383D01*
X149713604Y-125125890D01*
X149768090Y-125113500D01*
X149952007Y-125113500D01*
X150020128Y-125133502D01*
X150059151Y-125173197D01*
X150081522Y-125209348D01*
X150206697Y-125334305D01*
X150212925Y-125338144D01*
X150215013Y-125339793D01*
X150256075Y-125397711D01*
X150259306Y-125468634D01*
X150256753Y-125477610D01*
X150254444Y-125484717D01*
X150236458Y-125540072D01*
X150235768Y-125546633D01*
X150235768Y-125546635D01*
X150229198Y-125609146D01*
X150216496Y-125730000D01*
X150217186Y-125736565D01*
X150235403Y-125909886D01*
X150236458Y-125919928D01*
X150295473Y-126101556D01*
X150390960Y-126266944D01*
X150395378Y-126271851D01*
X150395379Y-126271852D01*
X150444174Y-126326044D01*
X150518747Y-126408866D01*
X150593333Y-126463056D01*
X150660660Y-126511972D01*
X150673248Y-126521118D01*
X150679276Y-126523802D01*
X150679278Y-126523803D01*
X150841679Y-126596108D01*
X150847712Y-126598794D01*
X150927662Y-126615788D01*
X151028056Y-126637128D01*
X151028061Y-126637128D01*
X151034513Y-126638500D01*
X151225487Y-126638500D01*
X151231939Y-126637128D01*
X151231944Y-126637128D01*
X151332338Y-126615788D01*
X151412288Y-126598794D01*
X151418315Y-126596111D01*
X151418323Y-126596108D01*
X151494252Y-126562302D01*
X151564619Y-126552868D01*
X151628916Y-126582975D01*
X151666729Y-126643064D01*
X151671500Y-126677409D01*
X151671500Y-130665213D01*
X151670067Y-130684163D01*
X151668473Y-130694643D01*
X151666988Y-130704403D01*
X151667581Y-130711695D01*
X151667581Y-130711698D01*
X151671085Y-130754776D01*
X151671500Y-130764990D01*
X151671500Y-130772535D01*
X151674344Y-130796931D01*
X151674649Y-130799545D01*
X151675082Y-130803921D01*
X151679375Y-130856697D01*
X151680759Y-130873718D01*
X151683015Y-130880683D01*
X151684098Y-130886101D01*
X151685365Y-130891461D01*
X151686213Y-130898732D01*
X151710102Y-130964545D01*
X151711530Y-130968704D01*
X151730858Y-131028366D01*
X151730860Y-131028370D01*
X151733113Y-131035325D01*
X151736906Y-131041576D01*
X151739199Y-131046584D01*
X151741679Y-131051536D01*
X151744175Y-131058413D01*
X151748186Y-131064531D01*
X151782562Y-131116964D01*
X151784908Y-131120682D01*
X151821239Y-131180553D01*
X151824953Y-131184758D01*
X151828349Y-131188603D01*
X151828334Y-131188616D01*
X151831325Y-131191990D01*
X151833302Y-131194355D01*
X151837316Y-131200477D01*
X151842631Y-131205512D01*
X151891272Y-131251590D01*
X151893714Y-131253968D01*
X152354595Y-131714849D01*
X152388621Y-131777161D01*
X152391500Y-131803944D01*
X152391500Y-132855400D01*
X152391837Y-132858646D01*
X152391837Y-132858650D01*
X152400827Y-132945289D01*
X152402474Y-132961166D01*
X152404655Y-132967702D01*
X152404655Y-132967704D01*
X152436405Y-133062870D01*
X152458450Y-133128946D01*
X152551522Y-133279348D01*
X152556704Y-133284521D01*
X152590893Y-133318650D01*
X152676697Y-133404305D01*
X152682927Y-133408145D01*
X152682928Y-133408146D01*
X152820976Y-133493240D01*
X152827262Y-133497115D01*
X152862938Y-133508948D01*
X152988611Y-133550632D01*
X152988613Y-133550632D01*
X152995139Y-133552797D01*
X153001975Y-133553497D01*
X153001978Y-133553498D01*
X153037663Y-133557154D01*
X153099600Y-133563500D01*
X154400400Y-133563500D01*
X154403646Y-133563163D01*
X154403650Y-133563163D01*
X154499308Y-133553238D01*
X154499312Y-133553237D01*
X154506166Y-133552526D01*
X154512702Y-133550345D01*
X154512704Y-133550345D01*
X154644806Y-133506272D01*
X154673946Y-133496550D01*
X154824348Y-133403478D01*
X154949305Y-133278303D01*
X154967486Y-133248809D01*
X155008240Y-133182693D01*
X155061012Y-133135200D01*
X155131084Y-133123776D01*
X155196208Y-133152050D01*
X155235707Y-133211044D01*
X155241500Y-133248809D01*
X155241500Y-133585075D01*
X155221498Y-133653196D01*
X155204595Y-133674170D01*
X154034171Y-134844595D01*
X153971859Y-134878620D01*
X153945076Y-134881500D01*
X136574500Y-134881500D01*
X136506379Y-134861498D01*
X136459886Y-134807842D01*
X136448500Y-134755500D01*
X136448500Y-133141866D01*
X136441745Y-133079684D01*
X136390615Y-132943295D01*
X136303261Y-132826739D01*
X136186705Y-132739385D01*
X136050316Y-132688255D01*
X135988134Y-132681500D01*
X135624500Y-132681500D01*
X135556379Y-132661498D01*
X135509886Y-132607842D01*
X135498500Y-132555500D01*
X135498500Y-124624500D01*
X135518502Y-124556379D01*
X135572158Y-124509886D01*
X135624500Y-124498500D01*
X136010400Y-124498500D01*
X136013646Y-124498163D01*
X136013650Y-124498163D01*
X136109308Y-124488238D01*
X136109312Y-124488237D01*
X136116166Y-124487526D01*
X136122702Y-124485345D01*
X136122704Y-124485345D01*
X136254806Y-124441272D01*
X136283946Y-124431550D01*
X136434348Y-124338478D01*
X136559305Y-124213303D01*
X136568867Y-124197791D01*
X136648275Y-124068968D01*
X136648276Y-124068966D01*
X136652115Y-124062738D01*
X136687080Y-123957320D01*
X136705632Y-123901389D01*
X136705632Y-123901387D01*
X136707797Y-123894861D01*
X136708595Y-123887078D01*
X136717399Y-123801142D01*
X136718500Y-123790400D01*
X136718500Y-123787095D01*
X137602001Y-123787095D01*
X137602338Y-123793614D01*
X137612257Y-123889206D01*
X137615149Y-123902600D01*
X137666588Y-124056784D01*
X137672761Y-124069962D01*
X137758063Y-124207807D01*
X137767099Y-124219208D01*
X137881829Y-124333739D01*
X137893240Y-124342751D01*
X138031243Y-124427816D01*
X138044424Y-124433963D01*
X138198710Y-124485138D01*
X138212086Y-124488005D01*
X138306438Y-124497672D01*
X138312854Y-124498000D01*
X139587885Y-124498000D01*
X139603124Y-124493525D01*
X139604329Y-124492135D01*
X139606000Y-124484452D01*
X139606000Y-124479884D01*
X140114000Y-124479884D01*
X140118475Y-124495123D01*
X140119865Y-124496328D01*
X140127548Y-124497999D01*
X141407095Y-124497999D01*
X141413614Y-124497662D01*
X141509206Y-124487743D01*
X141522600Y-124484851D01*
X141676784Y-124433412D01*
X141689962Y-124427239D01*
X141827807Y-124341937D01*
X141839208Y-124332901D01*
X141953739Y-124218171D01*
X141962751Y-124206760D01*
X142047816Y-124068757D01*
X142053963Y-124055576D01*
X142105138Y-123901290D01*
X142108005Y-123887914D01*
X142117672Y-123793562D01*
X142118000Y-123787146D01*
X142118000Y-123462115D01*
X142113525Y-123446876D01*
X142112135Y-123445671D01*
X142104452Y-123444000D01*
X140132115Y-123444000D01*
X140116876Y-123448475D01*
X140115671Y-123449865D01*
X140114000Y-123457548D01*
X140114000Y-124479884D01*
X139606000Y-124479884D01*
X139606000Y-123462115D01*
X139601525Y-123446876D01*
X139600135Y-123445671D01*
X139592452Y-123444000D01*
X137620116Y-123444000D01*
X137604877Y-123448475D01*
X137603672Y-123449865D01*
X137602001Y-123457548D01*
X137602001Y-123787095D01*
X136718500Y-123787095D01*
X136718500Y-123098984D01*
X143022001Y-123098984D01*
X143022195Y-123103920D01*
X143024430Y-123132336D01*
X143026730Y-123144931D01*
X143069107Y-123290790D01*
X143075352Y-123305221D01*
X143151911Y-123434678D01*
X143161551Y-123447104D01*
X143267896Y-123553449D01*
X143280322Y-123563089D01*
X143409779Y-123639648D01*
X143424210Y-123645893D01*
X143558605Y-123684939D01*
X143572706Y-123684899D01*
X143576000Y-123677630D01*
X143576000Y-122719615D01*
X143571525Y-122704376D01*
X143570135Y-122703171D01*
X143562452Y-122701500D01*
X143040116Y-122701500D01*
X143024877Y-122705975D01*
X143023672Y-122707365D01*
X143022001Y-122715048D01*
X143022001Y-123098984D01*
X136718500Y-123098984D01*
X136718500Y-122917885D01*
X137602000Y-122917885D01*
X137606475Y-122933124D01*
X137607865Y-122934329D01*
X137615548Y-122936000D01*
X139587885Y-122936000D01*
X139603124Y-122931525D01*
X139604329Y-122930135D01*
X139606000Y-122922452D01*
X139606000Y-122917885D01*
X140114000Y-122917885D01*
X140118475Y-122933124D01*
X140119865Y-122934329D01*
X140127548Y-122936000D01*
X142099884Y-122936000D01*
X142115123Y-122931525D01*
X142116328Y-122930135D01*
X142117999Y-122922452D01*
X142117999Y-122592905D01*
X142117662Y-122586386D01*
X142107743Y-122490794D01*
X142104851Y-122477400D01*
X142053412Y-122323216D01*
X142047239Y-122310038D01*
X141963912Y-122175385D01*
X143022000Y-122175385D01*
X143026475Y-122190624D01*
X143027865Y-122191829D01*
X143035548Y-122193500D01*
X143557885Y-122193500D01*
X143573124Y-122189025D01*
X143574329Y-122187635D01*
X143576000Y-122179952D01*
X143576000Y-122175385D01*
X144084000Y-122175385D01*
X144088475Y-122190624D01*
X144089865Y-122191829D01*
X144097548Y-122193500D01*
X144619884Y-122193500D01*
X144635123Y-122189025D01*
X144636328Y-122187635D01*
X144637999Y-122179952D01*
X144637999Y-121796017D01*
X144637805Y-121791080D01*
X144635570Y-121762664D01*
X144633270Y-121750069D01*
X144590893Y-121604210D01*
X144584648Y-121589779D01*
X144508089Y-121460322D01*
X144498449Y-121447896D01*
X144392104Y-121341551D01*
X144379678Y-121331911D01*
X144250221Y-121255352D01*
X144235790Y-121249107D01*
X144101395Y-121210061D01*
X144087294Y-121210101D01*
X144084000Y-121217370D01*
X144084000Y-122175385D01*
X143576000Y-122175385D01*
X143576000Y-121223122D01*
X143572027Y-121209591D01*
X143564129Y-121208456D01*
X143424210Y-121249107D01*
X143409779Y-121255352D01*
X143280322Y-121331911D01*
X143267896Y-121341551D01*
X143161551Y-121447896D01*
X143151911Y-121460322D01*
X143075352Y-121589779D01*
X143069107Y-121604210D01*
X143026731Y-121750065D01*
X143024430Y-121762667D01*
X143022193Y-121791084D01*
X143022000Y-121796014D01*
X143022000Y-122175385D01*
X141963912Y-122175385D01*
X141961937Y-122172193D01*
X141952901Y-122160792D01*
X141838171Y-122046261D01*
X141826760Y-122037249D01*
X141688757Y-121952184D01*
X141675576Y-121946037D01*
X141521290Y-121894862D01*
X141507914Y-121891995D01*
X141413562Y-121882328D01*
X141407145Y-121882000D01*
X140132115Y-121882000D01*
X140116876Y-121886475D01*
X140115671Y-121887865D01*
X140114000Y-121895548D01*
X140114000Y-122917885D01*
X139606000Y-122917885D01*
X139606000Y-121900116D01*
X139601525Y-121884877D01*
X139600135Y-121883672D01*
X139592452Y-121882001D01*
X138312905Y-121882001D01*
X138306386Y-121882338D01*
X138210794Y-121892257D01*
X138197400Y-121895149D01*
X138043216Y-121946588D01*
X138030038Y-121952761D01*
X137892193Y-122038063D01*
X137880792Y-122047099D01*
X137766261Y-122161829D01*
X137757249Y-122173240D01*
X137672184Y-122311243D01*
X137666037Y-122324424D01*
X137614862Y-122478710D01*
X137611995Y-122492086D01*
X137602328Y-122586438D01*
X137602000Y-122592855D01*
X137602000Y-122917885D01*
X136718500Y-122917885D01*
X136718500Y-122589600D01*
X136717922Y-122584025D01*
X136708238Y-122490692D01*
X136708237Y-122490688D01*
X136707526Y-122483834D01*
X136704806Y-122475679D01*
X136653868Y-122323002D01*
X136651550Y-122316054D01*
X136558478Y-122165652D01*
X136433303Y-122040695D01*
X136421634Y-122033502D01*
X136288968Y-121951725D01*
X136288966Y-121951724D01*
X136282738Y-121947885D01*
X136198640Y-121919991D01*
X136121389Y-121894368D01*
X136121387Y-121894368D01*
X136114861Y-121892203D01*
X136108025Y-121891503D01*
X136108022Y-121891502D01*
X136064969Y-121887091D01*
X136010400Y-121881500D01*
X132909600Y-121881500D01*
X132906354Y-121881837D01*
X132906350Y-121881837D01*
X132810692Y-121891762D01*
X132810688Y-121891763D01*
X132803834Y-121892474D01*
X132797298Y-121894655D01*
X132797296Y-121894655D01*
X132678356Y-121934337D01*
X132636054Y-121948450D01*
X132485652Y-122041522D01*
X132480479Y-122046704D01*
X132382835Y-122144518D01*
X132320552Y-122178597D01*
X132293662Y-122181500D01*
X131506850Y-122181500D01*
X131493242Y-122180763D01*
X131492662Y-122180700D01*
X131455612Y-122176675D01*
X131405570Y-122181053D01*
X131400788Y-122181379D01*
X131398310Y-122181500D01*
X131395231Y-122181500D01*
X131392177Y-122181799D01*
X131392166Y-122181800D01*
X131352529Y-122185687D01*
X131351215Y-122185809D01*
X131315688Y-122188917D01*
X131258587Y-122193913D01*
X131253468Y-122195400D01*
X131248167Y-122195920D01*
X131159166Y-122222791D01*
X131158033Y-122223126D01*
X131074586Y-122247370D01*
X131074582Y-122247372D01*
X131068664Y-122249091D01*
X131063932Y-122251544D01*
X131058831Y-122253084D01*
X131053388Y-122255978D01*
X130976740Y-122296731D01*
X130975574Y-122297343D01*
X130911048Y-122330791D01*
X130893074Y-122340108D01*
X130888911Y-122343431D01*
X130884204Y-122345934D01*
X130879429Y-122349828D01*
X130879428Y-122349829D01*
X130812102Y-122404739D01*
X130811075Y-122405567D01*
X130774792Y-122434531D01*
X130774787Y-122434536D01*
X130772028Y-122436738D01*
X130769527Y-122439239D01*
X130768809Y-122439881D01*
X130764461Y-122443594D01*
X130730938Y-122470935D01*
X130727015Y-122475677D01*
X130727013Y-122475679D01*
X130701703Y-122506273D01*
X130693713Y-122515053D01*
X130429171Y-122779595D01*
X130366859Y-122813621D01*
X130340076Y-122816500D01*
X130236350Y-122816500D01*
X130168229Y-122796498D01*
X130147333Y-122779674D01*
X130123484Y-122755867D01*
X130118303Y-122750695D01*
X130112072Y-122746854D01*
X130058384Y-122713760D01*
X130010890Y-122660987D01*
X129998500Y-122606500D01*
X129998500Y-122462993D01*
X130018502Y-122394872D01*
X130058197Y-122355849D01*
X130068661Y-122349374D01*
X130094348Y-122333478D01*
X130219305Y-122208303D01*
X130227831Y-122194472D01*
X130308275Y-122063968D01*
X130308276Y-122063966D01*
X130312115Y-122057738D01*
X130353045Y-121934337D01*
X130365632Y-121896389D01*
X130365632Y-121896387D01*
X130367797Y-121889861D01*
X130368603Y-121882001D01*
X130373850Y-121830784D01*
X130378500Y-121785400D01*
X130378500Y-120784600D01*
X130377951Y-120779305D01*
X130368238Y-120685692D01*
X130368237Y-120685688D01*
X130367526Y-120678834D01*
X130363766Y-120667562D01*
X130313868Y-120518002D01*
X130311550Y-120511054D01*
X130218478Y-120360652D01*
X130093303Y-120235695D01*
X130058382Y-120214169D01*
X129948968Y-120146725D01*
X129948966Y-120146724D01*
X129942738Y-120142885D01*
X129925519Y-120137174D01*
X129916777Y-120134274D01*
X129858416Y-120093844D01*
X129831179Y-120028280D01*
X129843712Y-119958398D01*
X129892036Y-119906386D01*
X129916567Y-119895157D01*
X129936784Y-119888412D01*
X129949962Y-119882239D01*
X130087807Y-119796937D01*
X130099208Y-119787901D01*
X130213739Y-119673171D01*
X130222751Y-119661760D01*
X130307816Y-119523757D01*
X130313963Y-119510576D01*
X130365138Y-119356290D01*
X130368005Y-119342914D01*
X130377672Y-119248562D01*
X130378000Y-119242146D01*
X130378000Y-119017115D01*
X130373525Y-119001876D01*
X130372135Y-119000671D01*
X130364452Y-118999000D01*
X129142000Y-118999000D01*
X129073879Y-118978998D01*
X129027386Y-118925342D01*
X129016000Y-118873000D01*
X129016000Y-118472885D01*
X129524000Y-118472885D01*
X129528475Y-118488124D01*
X129529865Y-118489329D01*
X129537548Y-118491000D01*
X130359884Y-118491000D01*
X130375123Y-118486525D01*
X130376328Y-118485135D01*
X130377999Y-118477452D01*
X130377999Y-118247905D01*
X130377662Y-118241386D01*
X130367743Y-118145794D01*
X130364851Y-118132400D01*
X130313412Y-117978216D01*
X130307239Y-117965038D01*
X130221937Y-117827193D01*
X130212901Y-117815792D01*
X130098171Y-117701261D01*
X130086760Y-117692249D01*
X129948757Y-117607184D01*
X129935576Y-117601037D01*
X129781290Y-117549862D01*
X129767914Y-117546995D01*
X129673562Y-117537328D01*
X129667145Y-117537000D01*
X129542115Y-117537000D01*
X129526876Y-117541475D01*
X129525671Y-117542865D01*
X129524000Y-117550548D01*
X129524000Y-118472885D01*
X129016000Y-118472885D01*
X129016000Y-117555116D01*
X129011525Y-117539877D01*
X129010135Y-117538672D01*
X129002452Y-117537001D01*
X128872905Y-117537001D01*
X128866386Y-117537338D01*
X128770794Y-117547257D01*
X128757400Y-117550149D01*
X128603216Y-117601588D01*
X128590038Y-117607761D01*
X128452193Y-117693063D01*
X128440792Y-117702099D01*
X128359570Y-117783462D01*
X128297287Y-117817541D01*
X128226467Y-117812538D01*
X128181380Y-117783617D01*
X128098488Y-117700870D01*
X128098483Y-117700866D01*
X128093303Y-117695695D01*
X128087072Y-117691854D01*
X127948968Y-117606725D01*
X127948966Y-117606724D01*
X127942738Y-117602885D01*
X127862995Y-117576436D01*
X127781389Y-117549368D01*
X127781387Y-117549368D01*
X127774861Y-117547203D01*
X127768025Y-117546503D01*
X127768022Y-117546502D01*
X127724969Y-117542091D01*
X127670400Y-117536500D01*
X126869600Y-117536500D01*
X126866354Y-117536837D01*
X126866350Y-117536837D01*
X126770692Y-117546762D01*
X126770688Y-117546763D01*
X126763834Y-117547474D01*
X126757298Y-117549655D01*
X126757296Y-117549655D01*
X126740928Y-117555116D01*
X126596054Y-117603450D01*
X126445652Y-117696522D01*
X126320695Y-117821697D01*
X126227885Y-117972262D01*
X126172203Y-118140139D01*
X126161500Y-118244600D01*
X126161500Y-119245400D01*
X126161837Y-119248646D01*
X126161837Y-119248650D01*
X126171618Y-119342914D01*
X126172474Y-119351166D01*
X126174655Y-119357702D01*
X126174655Y-119357704D01*
X126189264Y-119401492D01*
X126228450Y-119518946D01*
X126321522Y-119669348D01*
X126446697Y-119794305D01*
X126452929Y-119798147D01*
X126452931Y-119798148D01*
X126481617Y-119815831D01*
X126529110Y-119868604D01*
X126541500Y-119923090D01*
X126541500Y-120107007D01*
X126521498Y-120175128D01*
X126481803Y-120214151D01*
X126445652Y-120236522D01*
X126320695Y-120361697D01*
X126316855Y-120367927D01*
X126316854Y-120367928D01*
X126237529Y-120496616D01*
X126184756Y-120544110D01*
X126130269Y-120556500D01*
X125159793Y-120556500D01*
X125140843Y-120555067D01*
X125127831Y-120553087D01*
X125127827Y-120553087D01*
X125120597Y-120551987D01*
X125113305Y-120552580D01*
X125113302Y-120552580D01*
X125070216Y-120556085D01*
X125060001Y-120556500D01*
X125052465Y-120556500D01*
X125030475Y-120559064D01*
X125025463Y-120559648D01*
X125021087Y-120560081D01*
X124958580Y-120565165D01*
X124958577Y-120565166D01*
X124951282Y-120565759D01*
X124944316Y-120568015D01*
X124938899Y-120569098D01*
X124933539Y-120570365D01*
X124926268Y-120571213D01*
X124860446Y-120595105D01*
X124856296Y-120596530D01*
X124796634Y-120615858D01*
X124796630Y-120615860D01*
X124789675Y-120618113D01*
X124783424Y-120621906D01*
X124778416Y-120624199D01*
X124773464Y-120626679D01*
X124766587Y-120629175D01*
X124760469Y-120633186D01*
X124708036Y-120667562D01*
X124704318Y-120669908D01*
X124644447Y-120706239D01*
X124636397Y-120713349D01*
X124636384Y-120713334D01*
X124633010Y-120716325D01*
X124630646Y-120718302D01*
X124624523Y-120722316D01*
X124619488Y-120727631D01*
X124614068Y-120732163D01*
X124548978Y-120760514D01*
X124533245Y-120761500D01*
X124210522Y-120761500D01*
X124142401Y-120741498D01*
X124095908Y-120687842D01*
X124085804Y-120617568D01*
X124096065Y-120586797D01*
X124095172Y-120586462D01*
X124143478Y-120457606D01*
X124147105Y-120442351D01*
X124152631Y-120391486D01*
X124153000Y-120384672D01*
X124153000Y-120062115D01*
X124148525Y-120046876D01*
X124147135Y-120045671D01*
X124139452Y-120044000D01*
X118555116Y-120044000D01*
X118539877Y-120048475D01*
X118538672Y-120049865D01*
X118537001Y-120057548D01*
X118537001Y-120384669D01*
X118537371Y-120391490D01*
X118542895Y-120442352D01*
X118546521Y-120457604D01*
X118591679Y-120578061D01*
X118592174Y-120578966D01*
X118592393Y-120579966D01*
X118594828Y-120586462D01*
X118593890Y-120586814D01*
X118607343Y-120648323D01*
X118594162Y-120693212D01*
X118594385Y-120693295D01*
X118593244Y-120696337D01*
X118593242Y-120696344D01*
X118591236Y-120701696D01*
X118591234Y-120701699D01*
X118570774Y-120756277D01*
X118543255Y-120829684D01*
X118536500Y-120891866D01*
X118536500Y-122088134D01*
X117402999Y-122088134D01*
X117402999Y-119517885D01*
X118537000Y-119517885D01*
X118541475Y-119533124D01*
X118542865Y-119534329D01*
X118550548Y-119536000D01*
X121072885Y-119536000D01*
X121088124Y-119531525D01*
X121089329Y-119530135D01*
X121091000Y-119522452D01*
X121091000Y-119517885D01*
X121599000Y-119517885D01*
X121603475Y-119533124D01*
X121604865Y-119534329D01*
X121612548Y-119536000D01*
X124134884Y-119536000D01*
X124150123Y-119531525D01*
X124151328Y-119530135D01*
X124152999Y-119522452D01*
X124152999Y-119195331D01*
X124152629Y-119188510D01*
X124147105Y-119137648D01*
X124143479Y-119122396D01*
X124098324Y-119001946D01*
X124089786Y-118986351D01*
X124013285Y-118884276D01*
X124000724Y-118871715D01*
X123898649Y-118795214D01*
X123883054Y-118786676D01*
X123762606Y-118741522D01*
X123747351Y-118737895D01*
X123696486Y-118732369D01*
X123689672Y-118732000D01*
X121617115Y-118732000D01*
X121601876Y-118736475D01*
X121600671Y-118737865D01*
X121599000Y-118745548D01*
X121599000Y-119517885D01*
X121091000Y-119517885D01*
X121091000Y-118750116D01*
X121086525Y-118734877D01*
X121085135Y-118733672D01*
X121077452Y-118732001D01*
X119000331Y-118732001D01*
X118993510Y-118732371D01*
X118942648Y-118737895D01*
X118927396Y-118741521D01*
X118806946Y-118786676D01*
X118791351Y-118795214D01*
X118689276Y-118871715D01*
X118676715Y-118884276D01*
X118600214Y-118986351D01*
X118591676Y-119001946D01*
X118546522Y-119122394D01*
X118542895Y-119137649D01*
X118537369Y-119188514D01*
X118537000Y-119195328D01*
X118537000Y-119517885D01*
X117402999Y-119517885D01*
X117402999Y-117745331D01*
X117402629Y-117738510D01*
X117397105Y-117687648D01*
X117393479Y-117672396D01*
X117348324Y-117551946D01*
X117339786Y-117536351D01*
X117263285Y-117434276D01*
X117250724Y-117421715D01*
X117148649Y-117345214D01*
X117133054Y-117336676D01*
X117012606Y-117291522D01*
X116997351Y-117287895D01*
X116946486Y-117282369D01*
X116939672Y-117282000D01*
X112467115Y-117282000D01*
X112451876Y-117286475D01*
X112450671Y-117287865D01*
X112449000Y-117295548D01*
X112449000Y-122917885D01*
X111941000Y-122917885D01*
X111941000Y-117300116D01*
X111936525Y-117284877D01*
X111935135Y-117283672D01*
X111927452Y-117282001D01*
X107450331Y-117282001D01*
X107443510Y-117282371D01*
X107392648Y-117287895D01*
X107377393Y-117291522D01*
X107358731Y-117298518D01*
X107287924Y-117303702D01*
X107225555Y-117269782D01*
X107191425Y-117207527D01*
X107188500Y-117180537D01*
X107188500Y-110414200D01*
X187684940Y-110414200D01*
X187704759Y-110729220D01*
X187763905Y-111039272D01*
X187861444Y-111339466D01*
X187863131Y-111343052D01*
X187863133Y-111343056D01*
X187994150Y-111621483D01*
X187994154Y-111621490D01*
X187995838Y-111625069D01*
X188164968Y-111891575D01*
X188366167Y-112134782D01*
X188596260Y-112350854D01*
X188851621Y-112536384D01*
X189128221Y-112688447D01*
X189131890Y-112689900D01*
X189131895Y-112689902D01*
X189418028Y-112803190D01*
X189421698Y-112804643D01*
X189727425Y-112883140D01*
X190040579Y-112922700D01*
X190356221Y-112922700D01*
X190669375Y-112883140D01*
X190975102Y-112804643D01*
X190978772Y-112803190D01*
X191264905Y-112689902D01*
X191264910Y-112689900D01*
X191268579Y-112688447D01*
X191545179Y-112536384D01*
X191800540Y-112350854D01*
X192030633Y-112134782D01*
X192231832Y-111891575D01*
X192400962Y-111625069D01*
X192402646Y-111621490D01*
X192402650Y-111621483D01*
X192533667Y-111343056D01*
X192533669Y-111343052D01*
X192535356Y-111339466D01*
X192632895Y-111039272D01*
X192692041Y-110729220D01*
X192711860Y-110414200D01*
X192692041Y-110099180D01*
X192632895Y-109789128D01*
X192535356Y-109488934D01*
X192533667Y-109485344D01*
X192402650Y-109206917D01*
X192402646Y-109206910D01*
X192400962Y-109203331D01*
X192231832Y-108936825D01*
X192030633Y-108693618D01*
X191800540Y-108477546D01*
X191545179Y-108292016D01*
X191268579Y-108139953D01*
X191264910Y-108138500D01*
X191264905Y-108138498D01*
X190978772Y-108025210D01*
X190978771Y-108025210D01*
X190975102Y-108023757D01*
X190669375Y-107945260D01*
X190356221Y-107905700D01*
X190040579Y-107905700D01*
X189727425Y-107945260D01*
X189421698Y-108023757D01*
X189418029Y-108025210D01*
X189418028Y-108025210D01*
X189131895Y-108138498D01*
X189131890Y-108138500D01*
X189128221Y-108139953D01*
X188851621Y-108292016D01*
X188596260Y-108477546D01*
X188366167Y-108693618D01*
X188164968Y-108936825D01*
X187995838Y-109203331D01*
X187994154Y-109206910D01*
X187994150Y-109206917D01*
X187863133Y-109485344D01*
X187861444Y-109488934D01*
X187763905Y-109789128D01*
X187704759Y-110099180D01*
X187684940Y-110414200D01*
X107188500Y-110414200D01*
X107188500Y-106860187D01*
X188617121Y-106860187D01*
X188625948Y-106871805D01*
X188848681Y-107033630D01*
X188855361Y-107037870D01*
X189124972Y-107186090D01*
X189132107Y-107189447D01*
X189418170Y-107302708D01*
X189425696Y-107305153D01*
X189723679Y-107381662D01*
X189731450Y-107383145D01*
X190036678Y-107421703D01*
X190044569Y-107422200D01*
X190352231Y-107422200D01*
X190360122Y-107421703D01*
X190665350Y-107383145D01*
X190673121Y-107381662D01*
X190971104Y-107305153D01*
X190978630Y-107302708D01*
X191264693Y-107189447D01*
X191271828Y-107186090D01*
X191541439Y-107037870D01*
X191548119Y-107033630D01*
X191771223Y-106871536D01*
X191779646Y-106860613D01*
X191772742Y-106847752D01*
X190211212Y-105286222D01*
X190197268Y-105278608D01*
X190195435Y-105278739D01*
X190188820Y-105282990D01*
X188623734Y-106848076D01*
X188617121Y-106860187D01*
X107188500Y-106860187D01*
X107188500Y-104918158D01*
X187685690Y-104918158D01*
X187705007Y-105225194D01*
X187706000Y-105233055D01*
X187763646Y-105535246D01*
X187765617Y-105542923D01*
X187860684Y-105835509D01*
X187863599Y-105842872D01*
X187994589Y-106121241D01*
X187998401Y-106128174D01*
X188163251Y-106387936D01*
X188167895Y-106394329D01*
X188242897Y-106484990D01*
X188255414Y-106493445D01*
X188266152Y-106487238D01*
X189826378Y-104927012D01*
X189832756Y-104915332D01*
X190562808Y-104915332D01*
X190562939Y-104917165D01*
X190567190Y-104923780D01*
X192129545Y-106486135D01*
X192142807Y-106493377D01*
X192152912Y-106486188D01*
X192228905Y-106394329D01*
X192233549Y-106387936D01*
X192398399Y-106128174D01*
X192402211Y-106121241D01*
X192533201Y-105842872D01*
X192536116Y-105835509D01*
X192631183Y-105542923D01*
X192633154Y-105535246D01*
X192690800Y-105233055D01*
X192691793Y-105225194D01*
X192711110Y-104918158D01*
X192711110Y-104910242D01*
X192691793Y-104603206D01*
X192690800Y-104595345D01*
X192633154Y-104293154D01*
X192631183Y-104285477D01*
X192536116Y-103992891D01*
X192533201Y-103985528D01*
X192402211Y-103707159D01*
X192398399Y-103700226D01*
X192233549Y-103440464D01*
X192228905Y-103434071D01*
X192153903Y-103343410D01*
X192141386Y-103334955D01*
X192130648Y-103341162D01*
X190570422Y-104901388D01*
X190562808Y-104915332D01*
X189832756Y-104915332D01*
X189833992Y-104913068D01*
X189833861Y-104911235D01*
X189829610Y-104904620D01*
X188267255Y-103342265D01*
X188253993Y-103335023D01*
X188243888Y-103342212D01*
X188167895Y-103434071D01*
X188163251Y-103440464D01*
X187998401Y-103700226D01*
X187994589Y-103707159D01*
X187863599Y-103985528D01*
X187860684Y-103992891D01*
X187765617Y-104285477D01*
X187763646Y-104293154D01*
X187706000Y-104595345D01*
X187705007Y-104603206D01*
X187685690Y-104910242D01*
X187685690Y-104918158D01*
X107188500Y-104918158D01*
X107188500Y-102967787D01*
X188617154Y-102967787D01*
X188624058Y-102980648D01*
X190185588Y-104542178D01*
X190199532Y-104549792D01*
X190201365Y-104549661D01*
X190207980Y-104545410D01*
X191773066Y-102980324D01*
X191779679Y-102968213D01*
X191770852Y-102956595D01*
X191548119Y-102794770D01*
X191541439Y-102790530D01*
X191271828Y-102642310D01*
X191264693Y-102638953D01*
X190978630Y-102525692D01*
X190971104Y-102523247D01*
X190673121Y-102446738D01*
X190665350Y-102445255D01*
X190360122Y-102406697D01*
X190352231Y-102406200D01*
X190044569Y-102406200D01*
X190036678Y-102406697D01*
X189731450Y-102445255D01*
X189723679Y-102446738D01*
X189425696Y-102523247D01*
X189418170Y-102525692D01*
X189132107Y-102638953D01*
X189124972Y-102642310D01*
X188855361Y-102790530D01*
X188848681Y-102794770D01*
X188625577Y-102956864D01*
X188617154Y-102967787D01*
X107188500Y-102967787D01*
X107188500Y-81406000D01*
X107208502Y-81337879D01*
X107262158Y-81291386D01*
X107314500Y-81280000D01*
X162560000Y-81280000D01*
X162560000Y-64261000D01*
X162580002Y-64192879D01*
X162633658Y-64146386D01*
X162686000Y-64135000D01*
X197485500Y-64135000D01*
X197553621Y-64155002D01*
G37*
G04 #@! TD.AperFunction*
G04 #@! TA.AperFunction,Conductor*
G36*
X153866121Y-127791002D02*
G01*
X153912614Y-127844658D01*
X153924000Y-127897000D01*
X153924000Y-129089884D01*
X153928475Y-129105123D01*
X153929865Y-129106328D01*
X153937548Y-129107999D01*
X154167095Y-129107999D01*
X154173614Y-129107662D01*
X154269206Y-129097743D01*
X154282600Y-129094851D01*
X154436784Y-129043412D01*
X154449962Y-129037239D01*
X154587807Y-128951937D01*
X154599208Y-128942901D01*
X154713739Y-128828171D01*
X154722751Y-128816760D01*
X154807816Y-128678757D01*
X154813962Y-128665578D01*
X154820462Y-128645982D01*
X154860894Y-128587623D01*
X154926459Y-128560387D01*
X154996340Y-128572921D01*
X155048351Y-128621247D01*
X155059579Y-128645776D01*
X155066587Y-128666782D01*
X155072761Y-128679962D01*
X155158063Y-128817807D01*
X155167099Y-128829208D01*
X155281829Y-128943739D01*
X155293240Y-128952751D01*
X155431243Y-129037816D01*
X155444424Y-129043963D01*
X155598710Y-129095138D01*
X155612086Y-129098005D01*
X155706438Y-129107672D01*
X155712854Y-129108000D01*
X155937885Y-129108000D01*
X155953124Y-129103525D01*
X155954329Y-129102135D01*
X155956000Y-129094452D01*
X155956000Y-127897000D01*
X155976002Y-127828879D01*
X156029658Y-127782386D01*
X156082000Y-127771000D01*
X156338000Y-127771000D01*
X156406121Y-127791002D01*
X156452614Y-127844658D01*
X156464000Y-127897000D01*
X156464000Y-129089884D01*
X156468475Y-129105123D01*
X156469865Y-129106328D01*
X156477548Y-129107999D01*
X156625500Y-129107999D01*
X156693621Y-129128001D01*
X156740114Y-129181657D01*
X156751500Y-129233999D01*
X156751500Y-130496055D01*
X156731498Y-130564176D01*
X156714595Y-130585150D01*
X156698501Y-130601244D01*
X156636189Y-130635270D01*
X156572044Y-130632482D01*
X156542773Y-130623393D01*
X156415330Y-130606502D01*
X156319511Y-130593802D01*
X156319506Y-130593802D01*
X156314226Y-130593102D01*
X156308897Y-130593302D01*
X156308895Y-130593302D01*
X156208610Y-130597067D01*
X156083842Y-130601751D01*
X156078623Y-130602846D01*
X156047539Y-130609368D01*
X155858209Y-130649093D01*
X155853250Y-130651051D01*
X155853248Y-130651052D01*
X155648744Y-130731815D01*
X155648742Y-130731816D01*
X155643779Y-130733776D01*
X155639220Y-130736543D01*
X155639217Y-130736544D01*
X155492448Y-130825606D01*
X155446683Y-130853377D01*
X155442653Y-130856874D01*
X155280138Y-130997897D01*
X155272555Y-131004477D01*
X155243330Y-131040120D01*
X155184671Y-131080114D01*
X155113701Y-131082046D01*
X155052952Y-131045302D01*
X155038752Y-131026532D01*
X154952332Y-130886880D01*
X154948478Y-130880652D01*
X154910868Y-130843107D01*
X154867544Y-130799859D01*
X154823303Y-130755695D01*
X154815232Y-130750720D01*
X154678968Y-130666725D01*
X154678966Y-130666724D01*
X154672738Y-130662885D01*
X154559353Y-130625277D01*
X154511389Y-130609368D01*
X154511387Y-130609368D01*
X154504861Y-130607203D01*
X154498025Y-130606503D01*
X154498022Y-130606502D01*
X154453846Y-130601976D01*
X154400400Y-130596500D01*
X153348945Y-130596500D01*
X153280824Y-130576498D01*
X153259850Y-130559595D01*
X153165405Y-130465150D01*
X153131379Y-130402838D01*
X153128500Y-130376055D01*
X153128500Y-129234000D01*
X153148502Y-129165879D01*
X153202158Y-129119386D01*
X153254500Y-129108000D01*
X153397885Y-129108000D01*
X153413124Y-129103525D01*
X153414329Y-129102135D01*
X153416000Y-129094452D01*
X153416000Y-127897000D01*
X153436002Y-127828879D01*
X153489658Y-127782386D01*
X153542000Y-127771000D01*
X153798000Y-127771000D01*
X153866121Y-127791002D01*
G37*
G04 #@! TD.AperFunction*
M02*
