G04 #@! TF.GenerationSoftware,KiCad,Pcbnew,(6.0.9)*
G04 #@! TF.CreationDate,2022-12-10T11:16:04+01:00*
G04 #@! TF.ProjectId,IoT12 Power Supply,496f5431-3220-4506-9f77-657220537570,V1.2*
G04 #@! TF.SameCoordinates,Original*
G04 #@! TF.FileFunction,Soldermask,Bot*
G04 #@! TF.FilePolarity,Negative*
%FSLAX46Y46*%
G04 Gerber Fmt 4.6, Leading zero omitted, Abs format (unit mm)*
G04 Created by KiCad (PCBNEW (6.0.9)) date 2022-12-10 11:16:04*
%MOMM*%
%LPD*%
G01*
G04 APERTURE LIST*
G04 Aperture macros list*
%AMRoundRect*
0 Rectangle with rounded corners*
0 $1 Rounding radius*
0 $2 $3 $4 $5 $6 $7 $8 $9 X,Y pos of 4 corners*
0 Add a 4 corners polygon primitive as box body*
4,1,4,$2,$3,$4,$5,$6,$7,$8,$9,$2,$3,0*
0 Add four circle primitives for the rounded corners*
1,1,$1+$1,$2,$3*
1,1,$1+$1,$4,$5*
1,1,$1+$1,$6,$7*
1,1,$1+$1,$8,$9*
0 Add four rect primitives between the rounded corners*
20,1,$1+$1,$2,$3,$4,$5,0*
20,1,$1+$1,$4,$5,$6,$7,0*
20,1,$1+$1,$6,$7,$8,$9,0*
20,1,$1+$1,$8,$9,$2,$3,0*%
G04 Aperture macros list end*
%ADD10C,1.700000*%
%ADD11R,3.000000X3.000000*%
%ADD12C,3.000000*%
%ADD13RoundRect,0.250000X-0.600000X-0.725000X0.600000X-0.725000X0.600000X0.725000X-0.600000X0.725000X0*%
%ADD14O,1.700000X1.950000*%
%ADD15C,0.800000*%
%ADD16C,6.400000*%
%ADD17R,2.500000X2.500000*%
%ADD18C,2.500000*%
%ADD19C,4.000000*%
%ADD20O,2.500000X2.500000*%
%ADD21RoundRect,0.250000X-0.600000X-0.750000X0.600000X-0.750000X0.600000X0.750000X-0.600000X0.750000X0*%
%ADD22O,1.700000X2.000000*%
%ADD23C,1.800000*%
%ADD24C,1.600000*%
G04 APERTURE END LIST*
D10*
X189270000Y-120050000D03*
X194270000Y-121250000D03*
D11*
X132080000Y-58420000D03*
D12*
X127000000Y-58420000D03*
X121920000Y-58420000D03*
D13*
X153750000Y-132080000D03*
D14*
X156250000Y-132080000D03*
X158750000Y-132080000D03*
X161250000Y-132080000D03*
D15*
X191342944Y-56722944D03*
X194737056Y-60117056D03*
X193040000Y-60820000D03*
X194737056Y-56722944D03*
D16*
X193040000Y-58420000D03*
D15*
X190640000Y-58420000D03*
X193040000Y-56020000D03*
X191342944Y-60117056D03*
X195440000Y-58420000D03*
X195440000Y-139700000D03*
X193040000Y-142100000D03*
X194737056Y-141397056D03*
D16*
X193040000Y-139700000D03*
D15*
X190640000Y-139700000D03*
X191342944Y-138002944D03*
X193040000Y-137300000D03*
X194737056Y-138002944D03*
X191342944Y-141397056D03*
X111760000Y-60820000D03*
X111760000Y-56020000D03*
X113457056Y-56722944D03*
X110062944Y-60117056D03*
X113457056Y-60117056D03*
X110062944Y-56722944D03*
X109360000Y-58420000D03*
X114160000Y-58420000D03*
D16*
X111760000Y-58420000D03*
D15*
X111760000Y-137300000D03*
X113457056Y-138002944D03*
X113457056Y-141397056D03*
X109360000Y-139700000D03*
D16*
X111760000Y-139700000D03*
D15*
X110062944Y-138002944D03*
X110062944Y-141397056D03*
X111760000Y-142100000D03*
X114160000Y-139700000D03*
D17*
X114198400Y-75914200D03*
D18*
X114198400Y-69164200D03*
D19*
X190198400Y-110414200D03*
X190198400Y-104914200D03*
D17*
X177800000Y-122182500D03*
D20*
X171800000Y-124182500D03*
X171800000Y-136382500D03*
X183800000Y-136382500D03*
X183800000Y-124182500D03*
D21*
X140970000Y-132080000D03*
D22*
X143470000Y-132080000D03*
D23*
X143860000Y-57360000D03*
X151360000Y-59360000D03*
D24*
X189270000Y-125080000D03*
X194270000Y-126380000D03*
M02*
