G04 #@! TF.GenerationSoftware,KiCad,Pcbnew,(6.0.9)*
G04 #@! TF.CreationDate,2022-11-19T16:39:55+01:00*
G04 #@! TF.ProjectId,IoT12 Power Supply,496f5431-3220-4506-9f77-657220537570,V1.2*
G04 #@! TF.SameCoordinates,Original*
G04 #@! TF.FileFunction,Copper,L2,Bot*
G04 #@! TF.FilePolarity,Positive*
%FSLAX46Y46*%
G04 Gerber Fmt 4.6, Leading zero omitted, Abs format (unit mm)*
G04 Created by KiCad (PCBNEW (6.0.9)) date 2022-11-19 16:39:55*
%MOMM*%
%LPD*%
G01*
G04 APERTURE LIST*
G04 Aperture macros list*
%AMRoundRect*
0 Rectangle with rounded corners*
0 $1 Rounding radius*
0 $2 $3 $4 $5 $6 $7 $8 $9 X,Y pos of 4 corners*
0 Add a 4 corners polygon primitive as box body*
4,1,4,$2,$3,$4,$5,$6,$7,$8,$9,$2,$3,0*
0 Add four circle primitives for the rounded corners*
1,1,$1+$1,$2,$3*
1,1,$1+$1,$4,$5*
1,1,$1+$1,$6,$7*
1,1,$1+$1,$8,$9*
0 Add four rect primitives between the rounded corners*
20,1,$1+$1,$2,$3,$4,$5,0*
20,1,$1+$1,$4,$5,$6,$7,0*
20,1,$1+$1,$6,$7,$8,$9,0*
20,1,$1+$1,$8,$9,$2,$3,0*%
G04 Aperture macros list end*
G04 #@! TA.AperFunction,EtchedComponent*
%ADD10C,0.381000*%
G04 #@! TD*
G04 #@! TA.AperFunction,ComponentPad*
%ADD11R,3.000000X3.000000*%
G04 #@! TD*
G04 #@! TA.AperFunction,ComponentPad*
%ADD12C,3.000000*%
G04 #@! TD*
G04 #@! TA.AperFunction,ComponentPad*
%ADD13RoundRect,0.250000X-0.600000X-0.725000X0.600000X-0.725000X0.600000X0.725000X-0.600000X0.725000X0*%
G04 #@! TD*
G04 #@! TA.AperFunction,ComponentPad*
%ADD14O,1.700000X1.950000*%
G04 #@! TD*
G04 #@! TA.AperFunction,ComponentPad*
%ADD15C,0.800000*%
G04 #@! TD*
G04 #@! TA.AperFunction,ComponentPad*
%ADD16C,6.400000*%
G04 #@! TD*
G04 #@! TA.AperFunction,ComponentPad*
%ADD17R,2.500000X2.500000*%
G04 #@! TD*
G04 #@! TA.AperFunction,ComponentPad*
%ADD18C,2.500000*%
G04 #@! TD*
G04 #@! TA.AperFunction,ComponentPad*
%ADD19C,4.000000*%
G04 #@! TD*
G04 #@! TA.AperFunction,ComponentPad*
%ADD20O,2.500000X2.500000*%
G04 #@! TD*
G04 #@! TA.AperFunction,ComponentPad*
%ADD21RoundRect,0.250000X-0.600000X-0.750000X0.600000X-0.750000X0.600000X0.750000X-0.600000X0.750000X0*%
G04 #@! TD*
G04 #@! TA.AperFunction,ComponentPad*
%ADD22O,1.700000X2.000000*%
G04 #@! TD*
G04 #@! TA.AperFunction,ComponentPad*
%ADD23C,1.800000*%
G04 #@! TD*
G04 #@! TA.AperFunction,ComponentPad*
%ADD24C,1.600000*%
G04 #@! TD*
G04 #@! TA.AperFunction,ViaPad*
%ADD25C,1.600000*%
G04 #@! TD*
G04 #@! TA.AperFunction,ViaPad*
%ADD26C,0.800000*%
G04 #@! TD*
G04 #@! TA.AperFunction,Conductor*
%ADD27C,2.000000*%
G04 #@! TD*
G04 #@! TA.AperFunction,Conductor*
%ADD28C,0.440000*%
G04 #@! TD*
G04 APERTURE END LIST*
D10*
X153899870Y-70142100D02*
X149200870Y-77127100D01*
X154397710Y-76532740D02*
X154499310Y-75633580D01*
X154799030Y-74533760D02*
X153600150Y-73733660D01*
X149200870Y-77127100D02*
X158598870Y-77127100D01*
X158598870Y-77127100D02*
X153899870Y-70142100D01*
X153998930Y-71534020D02*
X154799030Y-74533760D01*
X154397710Y-76532740D02*
X153798270Y-75834240D01*
X153198830Y-73433940D02*
X153798270Y-73832720D01*
X154799030Y-74533760D02*
X153498550Y-71732140D01*
X153600150Y-73733660D02*
X154397710Y-76532740D01*
X154397710Y-76532740D02*
X153198830Y-73433940D01*
D11*
X132080000Y-58420000D03*
D12*
X127000000Y-58420000D03*
X121920000Y-58420000D03*
D13*
X153750000Y-132080000D03*
D14*
X156250000Y-132080000D03*
X158750000Y-132080000D03*
X161250000Y-132080000D03*
D15*
X191342944Y-56722944D03*
X194737056Y-60117056D03*
X193040000Y-60820000D03*
X194737056Y-56722944D03*
D16*
X193040000Y-58420000D03*
D15*
X190640000Y-58420000D03*
X193040000Y-56020000D03*
X191342944Y-60117056D03*
X195440000Y-58420000D03*
X195440000Y-139700000D03*
X193040000Y-142100000D03*
X194737056Y-141397056D03*
D16*
X193040000Y-139700000D03*
D15*
X190640000Y-139700000D03*
X191342944Y-138002944D03*
X193040000Y-137300000D03*
X194737056Y-138002944D03*
X191342944Y-141397056D03*
X111760000Y-60820000D03*
X111760000Y-56020000D03*
X113457056Y-56722944D03*
X110062944Y-60117056D03*
X113457056Y-60117056D03*
X110062944Y-56722944D03*
X109360000Y-58420000D03*
X114160000Y-58420000D03*
D16*
X111760000Y-58420000D03*
D15*
X111760000Y-137300000D03*
X113457056Y-138002944D03*
X113457056Y-141397056D03*
X109360000Y-139700000D03*
D16*
X111760000Y-139700000D03*
D15*
X110062944Y-138002944D03*
X110062944Y-141397056D03*
X111760000Y-142100000D03*
X114160000Y-139700000D03*
D17*
X114198400Y-75914200D03*
D18*
X114198400Y-69164200D03*
D19*
X190198400Y-110414200D03*
X190198400Y-104914200D03*
D17*
X177800000Y-122182500D03*
D20*
X171800000Y-124182500D03*
X171800000Y-136382500D03*
X183800000Y-136382500D03*
X183800000Y-124182500D03*
D21*
X140970000Y-132080000D03*
D22*
X143470000Y-132080000D03*
D23*
X143860000Y-57360000D03*
X151360000Y-59360000D03*
D24*
X189270000Y-120050000D03*
X194270000Y-121250000D03*
X189270000Y-125080000D03*
X194270000Y-126380000D03*
D25*
X132080000Y-118745000D03*
X125095000Y-123190000D03*
X117475000Y-135255000D03*
D26*
X153797000Y-130175000D03*
D25*
X177800000Y-130810000D03*
X129540000Y-140335000D03*
X188595000Y-142875000D03*
X129540000Y-131445000D03*
X149225000Y-128905000D03*
X117475000Y-130175000D03*
X195580000Y-133985000D03*
X117475000Y-115570000D03*
X125095000Y-119380000D03*
X167005000Y-134620000D03*
X120650000Y-142875000D03*
X141605000Y-120650000D03*
X191135000Y-123190000D03*
X132715000Y-125095000D03*
D26*
X163829999Y-126999999D03*
X140970000Y-127000000D03*
X161925000Y-125730000D03*
X151130000Y-125730000D03*
D27*
X121920000Y-61442600D02*
X114198400Y-69164200D01*
X121920000Y-58420000D02*
X121920000Y-61442600D01*
X143860000Y-61880000D02*
X143860000Y-57360000D01*
X139700000Y-66040000D02*
X143860000Y-61880000D01*
X127000000Y-58420000D02*
X127000000Y-63500000D01*
X127000000Y-63500000D02*
X129540000Y-66040000D01*
X129540000Y-66040000D02*
X139700000Y-66040000D01*
X160020000Y-128905000D02*
X166370000Y-128905000D01*
X158750000Y-130175000D02*
X160020000Y-128905000D01*
X166370000Y-128905000D02*
X168275000Y-127000000D01*
X158750000Y-132080000D02*
X158750000Y-130175000D01*
X173850800Y-104914200D02*
X190198400Y-104914200D01*
X168275000Y-127000000D02*
X168275000Y-110490000D01*
X168275000Y-110490000D02*
X173850800Y-104914200D01*
X151360000Y-59360000D02*
X151360000Y-62000000D01*
X151360000Y-62000000D02*
X137445800Y-75914200D01*
X137445800Y-75914200D02*
X114198400Y-75914200D01*
X179932500Y-120050000D02*
X177800000Y-122182500D01*
X189270000Y-120050000D02*
X179932500Y-120050000D01*
D28*
X163829999Y-126999999D02*
X140970000Y-127000000D01*
D27*
X190198400Y-113998400D02*
X194270000Y-118070000D01*
X194270000Y-118070000D02*
X194270000Y-121250000D01*
X194270000Y-121250000D02*
X194270000Y-126380000D01*
X190198400Y-110414200D02*
X190198400Y-113998400D01*
X171800000Y-136382500D02*
X171592500Y-136382500D01*
X153750000Y-137875000D02*
X153750000Y-132080000D01*
X167640000Y-140335000D02*
X156210000Y-140335000D01*
X171592500Y-136382500D02*
X167640000Y-140335000D01*
X156210000Y-140335000D02*
X153750000Y-137875000D01*
D28*
X151130000Y-125730000D02*
X161925000Y-125730000D01*
G04 #@! TA.AperFunction,Conductor*
G36*
X197553621Y-64155002D02*
G01*
X197600114Y-64208658D01*
X197611500Y-64261000D01*
X197611500Y-139650633D01*
X197610000Y-139670018D01*
X197607690Y-139684851D01*
X197607690Y-139684855D01*
X197606309Y-139693724D01*
X197608984Y-139714183D01*
X197609928Y-139736012D01*
X197594344Y-140092936D01*
X197593386Y-140103886D01*
X197542767Y-140488379D01*
X197540858Y-140499205D01*
X197456920Y-140877822D01*
X197454075Y-140888439D01*
X197337461Y-141258294D01*
X197333705Y-141268615D01*
X197192503Y-141609508D01*
X197185289Y-141626923D01*
X197180647Y-141636876D01*
X197054070Y-141880029D01*
X197001577Y-141980867D01*
X196996081Y-141990387D01*
X196787708Y-142317468D01*
X196781403Y-142326472D01*
X196545322Y-142634138D01*
X196538257Y-142642558D01*
X196287638Y-142916062D01*
X196276256Y-142928483D01*
X196268483Y-142936256D01*
X195982558Y-143198257D01*
X195974138Y-143205322D01*
X195666472Y-143441403D01*
X195657468Y-143447708D01*
X195330387Y-143656081D01*
X195320868Y-143661576D01*
X194976876Y-143840647D01*
X194966932Y-143845285D01*
X194608615Y-143993705D01*
X194598302Y-143997458D01*
X194398702Y-144060392D01*
X194228439Y-144114075D01*
X194217822Y-144116920D01*
X193839205Y-144200858D01*
X193828379Y-144202767D01*
X193443886Y-144253386D01*
X193432937Y-144254344D01*
X193083446Y-144269603D01*
X193058571Y-144268223D01*
X193046276Y-144266309D01*
X193037374Y-144267473D01*
X193037372Y-144267473D01*
X193022323Y-144269441D01*
X193014714Y-144270436D01*
X192998379Y-144271500D01*
X111809367Y-144271500D01*
X111789982Y-144270000D01*
X111775149Y-144267690D01*
X111775145Y-144267690D01*
X111766276Y-144266309D01*
X111745817Y-144268984D01*
X111723992Y-144269928D01*
X111367063Y-144254344D01*
X111356114Y-144253386D01*
X110971621Y-144202767D01*
X110960795Y-144200858D01*
X110582178Y-144116920D01*
X110571561Y-144114075D01*
X110401298Y-144060392D01*
X110201698Y-143997458D01*
X110191385Y-143993705D01*
X109833068Y-143845285D01*
X109823124Y-143840647D01*
X109479132Y-143661576D01*
X109469613Y-143656081D01*
X109142532Y-143447708D01*
X109133528Y-143441403D01*
X108825862Y-143205322D01*
X108817442Y-143198257D01*
X108531517Y-142936256D01*
X108523744Y-142928483D01*
X108512363Y-142916062D01*
X108261743Y-142642558D01*
X108254678Y-142634138D01*
X108018597Y-142326472D01*
X108012292Y-142317468D01*
X107803919Y-141990387D01*
X107798423Y-141980867D01*
X107745930Y-141880029D01*
X107619353Y-141636876D01*
X107614711Y-141626923D01*
X107607498Y-141609508D01*
X107466295Y-141268615D01*
X107462539Y-141258294D01*
X107345925Y-140888439D01*
X107343080Y-140877822D01*
X107259142Y-140499205D01*
X107257233Y-140488379D01*
X107206614Y-140103886D01*
X107205656Y-140092936D01*
X107190561Y-139747208D01*
X107192188Y-139720805D01*
X107192769Y-139717352D01*
X107192770Y-139717345D01*
X107193576Y-139712552D01*
X107193729Y-139700000D01*
X108046411Y-139700000D01*
X108066754Y-140088176D01*
X108067267Y-140091416D01*
X108067268Y-140091424D01*
X108068378Y-140098432D01*
X108127562Y-140472099D01*
X108228167Y-140847562D01*
X108367468Y-141210453D01*
X108368966Y-141213393D01*
X108538863Y-141546833D01*
X108543938Y-141556794D01*
X108545734Y-141559560D01*
X108545736Y-141559563D01*
X108724883Y-141835426D01*
X108755643Y-141882793D01*
X109000266Y-142184876D01*
X109275124Y-142459734D01*
X109577207Y-142704357D01*
X109903205Y-142916062D01*
X109906139Y-142917557D01*
X109906146Y-142917561D01*
X110246607Y-143091034D01*
X110249547Y-143092532D01*
X110470547Y-143177366D01*
X110543375Y-143205322D01*
X110612438Y-143231833D01*
X110987901Y-143332438D01*
X111191793Y-143364732D01*
X111368576Y-143392732D01*
X111368584Y-143392733D01*
X111371824Y-143393246D01*
X111760000Y-143413589D01*
X112148176Y-143393246D01*
X112151416Y-143392733D01*
X112151424Y-143392732D01*
X112328207Y-143364732D01*
X112532099Y-143332438D01*
X112907562Y-143231833D01*
X112976626Y-143205322D01*
X113049453Y-143177366D01*
X113270453Y-143092532D01*
X113273393Y-143091034D01*
X113613854Y-142917561D01*
X113613861Y-142917557D01*
X113616795Y-142916062D01*
X113942793Y-142704357D01*
X114244876Y-142459734D01*
X114519734Y-142184876D01*
X114764357Y-141882793D01*
X114795117Y-141835426D01*
X114974264Y-141559563D01*
X114974266Y-141559560D01*
X114976062Y-141556794D01*
X114981138Y-141546833D01*
X115151034Y-141213393D01*
X115152532Y-141210453D01*
X115291833Y-140847562D01*
X115392438Y-140472099D01*
X115451622Y-140098432D01*
X115452732Y-140091424D01*
X115452733Y-140091416D01*
X115453246Y-140088176D01*
X115473589Y-139700000D01*
X115453246Y-139311824D01*
X115392438Y-138927901D01*
X115291833Y-138552438D01*
X115152532Y-138189547D01*
X115124626Y-138134778D01*
X115032619Y-137954205D01*
X152238666Y-137954205D01*
X152244442Y-137997489D01*
X152249058Y-138032086D01*
X152249758Y-138038639D01*
X152256060Y-138116965D01*
X152262786Y-138144348D01*
X152263897Y-138148870D01*
X152266426Y-138162258D01*
X152270771Y-138194820D01*
X152272232Y-138199661D01*
X152272233Y-138199663D01*
X152293478Y-138270029D01*
X152295219Y-138276390D01*
X152313963Y-138352706D01*
X152315941Y-138357366D01*
X152326801Y-138382951D01*
X152331438Y-138395761D01*
X152340933Y-138427208D01*
X152343151Y-138431756D01*
X152343154Y-138431763D01*
X152375371Y-138497818D01*
X152378107Y-138503820D01*
X152408812Y-138576156D01*
X152411504Y-138580430D01*
X152426319Y-138603956D01*
X152432945Y-138615860D01*
X152447346Y-138645388D01*
X152450265Y-138649525D01*
X152450265Y-138649526D01*
X152492641Y-138709597D01*
X152496301Y-138715086D01*
X152538167Y-138781567D01*
X152541508Y-138785356D01*
X152541512Y-138785362D01*
X152559898Y-138806217D01*
X152568344Y-138816912D01*
X152587274Y-138843747D01*
X152606909Y-138865250D01*
X152646625Y-138904966D01*
X152652044Y-138910736D01*
X152695350Y-138959858D01*
X152695353Y-138959861D01*
X152698698Y-138963655D01*
X152702612Y-138966870D01*
X152702613Y-138966871D01*
X152730987Y-138990178D01*
X152740107Y-138998448D01*
X155126342Y-141384684D01*
X155128796Y-141387206D01*
X155197332Y-141459681D01*
X155201349Y-141462752D01*
X155201352Y-141462755D01*
X155259761Y-141507412D01*
X155264893Y-141511554D01*
X155318051Y-141556794D01*
X155324720Y-141562470D01*
X155329046Y-141565090D01*
X155329053Y-141565095D01*
X155352824Y-141579491D01*
X155364071Y-141587163D01*
X155390174Y-141607120D01*
X155459416Y-141644247D01*
X155465137Y-141647510D01*
X155508045Y-141673496D01*
X155532357Y-141688220D01*
X155562834Y-141700534D01*
X155575150Y-141706303D01*
X155604109Y-141721831D01*
X155678433Y-141747423D01*
X155684561Y-141749714D01*
X155716906Y-141762782D01*
X155752733Y-141777258D01*
X155752737Y-141777259D01*
X155757429Y-141779155D01*
X155762368Y-141780277D01*
X155762371Y-141780278D01*
X155789460Y-141786432D01*
X155802559Y-141790163D01*
X155833631Y-141800862D01*
X155911100Y-141814243D01*
X155917504Y-141815523D01*
X155994144Y-141832935D01*
X156026953Y-141834999D01*
X156040453Y-141836585D01*
X156072836Y-141842179D01*
X156076793Y-141842359D01*
X156076796Y-141842359D01*
X156100506Y-141843436D01*
X156100525Y-141843436D01*
X156101925Y-141843500D01*
X156158107Y-141843500D01*
X156166018Y-141843749D01*
X156236412Y-141848178D01*
X156277991Y-141844101D01*
X156290287Y-141843500D01*
X167615984Y-141843500D01*
X167619502Y-141843549D01*
X167714150Y-141846193D01*
X167714153Y-141846193D01*
X167719205Y-141846334D01*
X167797098Y-141835941D01*
X167803639Y-141835242D01*
X167832332Y-141832933D01*
X167876923Y-141829346D01*
X167876927Y-141829345D01*
X167881965Y-141828940D01*
X167913878Y-141821101D01*
X167927258Y-141818574D01*
X167959820Y-141814229D01*
X167964661Y-141812768D01*
X167964663Y-141812767D01*
X168035029Y-141791522D01*
X168041392Y-141789781D01*
X168080082Y-141780278D01*
X168117706Y-141771037D01*
X168147952Y-141758199D01*
X168160763Y-141753561D01*
X168192208Y-141744067D01*
X168196756Y-141741849D01*
X168196763Y-141741846D01*
X168262818Y-141709629D01*
X168268820Y-141706893D01*
X168318978Y-141685602D01*
X168341156Y-141676188D01*
X168368956Y-141658681D01*
X168380860Y-141652055D01*
X168410388Y-141637654D01*
X168474600Y-141592357D01*
X168480086Y-141588699D01*
X168542286Y-141549529D01*
X168542287Y-141549528D01*
X168546567Y-141546833D01*
X168550356Y-141543492D01*
X168550362Y-141543488D01*
X168571217Y-141525102D01*
X168581912Y-141516656D01*
X168595016Y-141507412D01*
X168608747Y-141497726D01*
X168630250Y-141478091D01*
X168669966Y-141438375D01*
X168675736Y-141432956D01*
X168724858Y-141389650D01*
X168724861Y-141389647D01*
X168728655Y-141386302D01*
X168755179Y-141354011D01*
X168763449Y-141344892D01*
X170408341Y-139700000D01*
X189326411Y-139700000D01*
X189346754Y-140088176D01*
X189347267Y-140091416D01*
X189347268Y-140091424D01*
X189348378Y-140098432D01*
X189407562Y-140472099D01*
X189508167Y-140847562D01*
X189647468Y-141210453D01*
X189648966Y-141213393D01*
X189818863Y-141546833D01*
X189823938Y-141556794D01*
X189825734Y-141559560D01*
X189825736Y-141559563D01*
X190004883Y-141835426D01*
X190035643Y-141882793D01*
X190280266Y-142184876D01*
X190555124Y-142459734D01*
X190857207Y-142704357D01*
X191183205Y-142916062D01*
X191186139Y-142917557D01*
X191186146Y-142917561D01*
X191526607Y-143091034D01*
X191529547Y-143092532D01*
X191750547Y-143177366D01*
X191823375Y-143205322D01*
X191892438Y-143231833D01*
X192267901Y-143332438D01*
X192471793Y-143364732D01*
X192648576Y-143392732D01*
X192648584Y-143392733D01*
X192651824Y-143393246D01*
X193040000Y-143413589D01*
X193428176Y-143393246D01*
X193431416Y-143392733D01*
X193431424Y-143392732D01*
X193608207Y-143364732D01*
X193812099Y-143332438D01*
X194187562Y-143231833D01*
X194256626Y-143205322D01*
X194329452Y-143177366D01*
X194550453Y-143092532D01*
X194553393Y-143091034D01*
X194893854Y-142917561D01*
X194893861Y-142917557D01*
X194896795Y-142916062D01*
X195222793Y-142704357D01*
X195524876Y-142459734D01*
X195799734Y-142184876D01*
X196044357Y-141882793D01*
X196075117Y-141835426D01*
X196254264Y-141559563D01*
X196254266Y-141559560D01*
X196256062Y-141556794D01*
X196261138Y-141546833D01*
X196431034Y-141213393D01*
X196432532Y-141210453D01*
X196571833Y-140847562D01*
X196672438Y-140472099D01*
X196731622Y-140098432D01*
X196732732Y-140091424D01*
X196732733Y-140091416D01*
X196733246Y-140088176D01*
X196753589Y-139700000D01*
X196733246Y-139311824D01*
X196672438Y-138927901D01*
X196571833Y-138552438D01*
X196432532Y-138189547D01*
X196404626Y-138134778D01*
X196257561Y-137846147D01*
X196257557Y-137846140D01*
X196256062Y-137843206D01*
X196180068Y-137726184D01*
X196046152Y-137519971D01*
X196046152Y-137519970D01*
X196044357Y-137517207D01*
X195799734Y-137215124D01*
X195524876Y-136940266D01*
X195418046Y-136853756D01*
X195373835Y-136817955D01*
X195222793Y-136695643D01*
X194896795Y-136483938D01*
X194893861Y-136482443D01*
X194893854Y-136482439D01*
X194553393Y-136308966D01*
X194550453Y-136307468D01*
X194187562Y-136168167D01*
X193812099Y-136067562D01*
X193608207Y-136035268D01*
X193431424Y-136007268D01*
X193431416Y-136007267D01*
X193428176Y-136006754D01*
X193040000Y-135986411D01*
X192651824Y-136006754D01*
X192648584Y-136007267D01*
X192648576Y-136007268D01*
X192471793Y-136035268D01*
X192267901Y-136067562D01*
X191892438Y-136168167D01*
X191529547Y-136307468D01*
X191526607Y-136308966D01*
X191186147Y-136482439D01*
X191186140Y-136482443D01*
X191183206Y-136483938D01*
X191180440Y-136485734D01*
X191180437Y-136485736D01*
X190859971Y-136693848D01*
X190857207Y-136695643D01*
X190706165Y-136817955D01*
X190661955Y-136853756D01*
X190555124Y-136940266D01*
X190280266Y-137215124D01*
X190035643Y-137517207D01*
X190033848Y-137519970D01*
X190033848Y-137519971D01*
X189899933Y-137726184D01*
X189823938Y-137843206D01*
X189822443Y-137846140D01*
X189822439Y-137846147D01*
X189675374Y-138134778D01*
X189647468Y-138189547D01*
X189508167Y-138552438D01*
X189407562Y-138927901D01*
X189346754Y-139311824D01*
X189326411Y-139700000D01*
X170408341Y-139700000D01*
X171944690Y-138163651D01*
X172007002Y-138129625D01*
X172020064Y-138127496D01*
X172052310Y-138123964D01*
X172116707Y-138116912D01*
X172116712Y-138116911D01*
X172121360Y-138116402D01*
X172234116Y-138086716D01*
X172369594Y-138051048D01*
X172369596Y-138051047D01*
X172374117Y-138049857D01*
X172614262Y-137946682D01*
X172836519Y-137809146D01*
X172840082Y-137806129D01*
X172840087Y-137806126D01*
X173032439Y-137643287D01*
X173032440Y-137643286D01*
X173036005Y-137640268D01*
X173146174Y-137514645D01*
X173205257Y-137447274D01*
X173205261Y-137447269D01*
X173208339Y-137443759D01*
X173349733Y-137223937D01*
X173457083Y-136985629D01*
X173528030Y-136734072D01*
X173544832Y-136601996D01*
X173560616Y-136477921D01*
X173560616Y-136477917D01*
X173561014Y-136474791D01*
X173563431Y-136382500D01*
X173560001Y-136336339D01*
X182037173Y-136336339D01*
X182049713Y-136597408D01*
X182100704Y-136853756D01*
X182189026Y-137099752D01*
X182191242Y-137103876D01*
X182289672Y-137287064D01*
X182312737Y-137329991D01*
X182315532Y-137333734D01*
X182315534Y-137333737D01*
X182466330Y-137535677D01*
X182466335Y-137535683D01*
X182469122Y-137539415D01*
X182472431Y-137542695D01*
X182472436Y-137542701D01*
X182651426Y-137720135D01*
X182654743Y-137723423D01*
X182658505Y-137726181D01*
X182658508Y-137726184D01*
X182814330Y-137840437D01*
X182865524Y-137877974D01*
X182869667Y-137880154D01*
X182869669Y-137880155D01*
X183092684Y-137997489D01*
X183092689Y-137997491D01*
X183096834Y-137999672D01*
X183343590Y-138085844D01*
X183348183Y-138086716D01*
X183595785Y-138133724D01*
X183595788Y-138133724D01*
X183600374Y-138134595D01*
X183730959Y-138139726D01*
X183856875Y-138144674D01*
X183856881Y-138144674D01*
X183861543Y-138144857D01*
X183940977Y-138136157D01*
X184116707Y-138116912D01*
X184116712Y-138116911D01*
X184121360Y-138116402D01*
X184234116Y-138086716D01*
X184369594Y-138051048D01*
X184369596Y-138051047D01*
X184374117Y-138049857D01*
X184614262Y-137946682D01*
X184836519Y-137809146D01*
X184840082Y-137806129D01*
X184840087Y-137806126D01*
X185032439Y-137643287D01*
X185032440Y-137643286D01*
X185036005Y-137640268D01*
X185146174Y-137514645D01*
X185205257Y-137447274D01*
X185205261Y-137447269D01*
X185208339Y-137443759D01*
X185349733Y-137223937D01*
X185457083Y-136985629D01*
X185528030Y-136734072D01*
X185544832Y-136601996D01*
X185560616Y-136477921D01*
X185560616Y-136477917D01*
X185561014Y-136474791D01*
X185563431Y-136382500D01*
X185559655Y-136331685D01*
X185544407Y-136126500D01*
X185544406Y-136126496D01*
X185544061Y-136121848D01*
X185532725Y-136071748D01*
X185487408Y-135871480D01*
X185486377Y-135866923D01*
X185391647Y-135623323D01*
X185261951Y-135396402D01*
X185100138Y-135191143D01*
X184909763Y-135012057D01*
X184695009Y-134863076D01*
X184690816Y-134861008D01*
X184464781Y-134749540D01*
X184464778Y-134749539D01*
X184460593Y-134747475D01*
X184414449Y-134732704D01*
X184216123Y-134669220D01*
X184211665Y-134667793D01*
X183953693Y-134625779D01*
X183839942Y-134624290D01*
X183697022Y-134622419D01*
X183697019Y-134622419D01*
X183692345Y-134622358D01*
X183433362Y-134657604D01*
X183182433Y-134730743D01*
X183178180Y-134732703D01*
X183178179Y-134732704D01*
X183141659Y-134749540D01*
X182945072Y-134840168D01*
X182906067Y-134865741D01*
X182730404Y-134980910D01*
X182730399Y-134980914D01*
X182726491Y-134983476D01*
X182531494Y-135157518D01*
X182364363Y-135358470D01*
X182228771Y-135581919D01*
X182127697Y-135822955D01*
X182063359Y-136076283D01*
X182037173Y-136336339D01*
X173560001Y-136336339D01*
X173559655Y-136331685D01*
X173544407Y-136126500D01*
X173544406Y-136126496D01*
X173544061Y-136121848D01*
X173532725Y-136071748D01*
X173487408Y-135871480D01*
X173486377Y-135866923D01*
X173391647Y-135623323D01*
X173261951Y-135396402D01*
X173100138Y-135191143D01*
X172909763Y-135012057D01*
X172695009Y-134863076D01*
X172690816Y-134861008D01*
X172464781Y-134749540D01*
X172464778Y-134749539D01*
X172460593Y-134747475D01*
X172414449Y-134732704D01*
X172216123Y-134669220D01*
X172211665Y-134667793D01*
X171953693Y-134625779D01*
X171839942Y-134624290D01*
X171697022Y-134622419D01*
X171697019Y-134622419D01*
X171692345Y-134622358D01*
X171433362Y-134657604D01*
X171182433Y-134730743D01*
X171178180Y-134732703D01*
X171178179Y-134732704D01*
X171141659Y-134749540D01*
X170945072Y-134840168D01*
X170906067Y-134865741D01*
X170730404Y-134980910D01*
X170730399Y-134980914D01*
X170726491Y-134983476D01*
X170531494Y-135157518D01*
X170364363Y-135358470D01*
X170228771Y-135581919D01*
X170226969Y-135586215D01*
X170226965Y-135586224D01*
X170215988Y-135612403D01*
X170188885Y-135652774D01*
X167052064Y-138789595D01*
X166989752Y-138823621D01*
X166962969Y-138826500D01*
X156887031Y-138826500D01*
X156818910Y-138806498D01*
X156797936Y-138789595D01*
X155295405Y-137287064D01*
X155261379Y-137224752D01*
X155258500Y-137197969D01*
X155258500Y-133411401D01*
X155278502Y-133343280D01*
X155332158Y-133296787D01*
X155402432Y-133286683D01*
X155459713Y-133310311D01*
X155531542Y-133363754D01*
X155536293Y-133366170D01*
X155536297Y-133366172D01*
X155580713Y-133388754D01*
X155737051Y-133468240D01*
X155742145Y-133469822D01*
X155742148Y-133469823D01*
X155942020Y-133531885D01*
X155957227Y-133536607D01*
X155962516Y-133537308D01*
X156180489Y-133566198D01*
X156180494Y-133566198D01*
X156185774Y-133566898D01*
X156191103Y-133566698D01*
X156191105Y-133566698D01*
X156308038Y-133562308D01*
X156416158Y-133558249D01*
X156641791Y-133510907D01*
X156646750Y-133508949D01*
X156646752Y-133508948D01*
X156851256Y-133428185D01*
X156851258Y-133428184D01*
X156856221Y-133426224D01*
X156861047Y-133423296D01*
X157048757Y-133309390D01*
X157048756Y-133309390D01*
X157053317Y-133306623D01*
X157076296Y-133286683D01*
X157223412Y-133159023D01*
X157223414Y-133159021D01*
X157227445Y-133155523D01*
X157285829Y-133084319D01*
X157370240Y-132981373D01*
X157370244Y-132981367D01*
X157373624Y-132977245D01*
X157376424Y-132972326D01*
X157391829Y-132945265D01*
X157442912Y-132895959D01*
X157512542Y-132882098D01*
X157578613Y-132908082D01*
X157605851Y-132937232D01*
X157684852Y-133054578D01*
X157691519Y-133062870D01*
X157843228Y-133221900D01*
X157851186Y-133228941D01*
X158027525Y-133360141D01*
X158036562Y-133365745D01*
X158232484Y-133465357D01*
X158242335Y-133469357D01*
X158452240Y-133534534D01*
X158462624Y-133536817D01*
X158478043Y-133538861D01*
X158492207Y-133536665D01*
X158496000Y-133523478D01*
X158496000Y-133521192D01*
X159004000Y-133521192D01*
X159007973Y-133534723D01*
X159018580Y-133536248D01*
X159136421Y-133511523D01*
X159146617Y-133508463D01*
X159351029Y-133427737D01*
X159360561Y-133423006D01*
X159548462Y-133308984D01*
X159557052Y-133302720D01*
X159723052Y-133158673D01*
X159730472Y-133151042D01*
X159869826Y-132981089D01*
X159875848Y-132972326D01*
X159891238Y-132945289D01*
X159942320Y-132895982D01*
X160011951Y-132882120D01*
X160078022Y-132908103D01*
X160105261Y-132937253D01*
X160141131Y-132990532D01*
X160187441Y-133059319D01*
X160346576Y-133226135D01*
X160531542Y-133363754D01*
X160536293Y-133366170D01*
X160536297Y-133366172D01*
X160580713Y-133388754D01*
X160737051Y-133468240D01*
X160742145Y-133469822D01*
X160742148Y-133469823D01*
X160942020Y-133531885D01*
X160957227Y-133536607D01*
X160962516Y-133537308D01*
X161180489Y-133566198D01*
X161180494Y-133566198D01*
X161185774Y-133566898D01*
X161191103Y-133566698D01*
X161191105Y-133566698D01*
X161308038Y-133562308D01*
X161416158Y-133558249D01*
X161641791Y-133510907D01*
X161646750Y-133508949D01*
X161646752Y-133508948D01*
X161851256Y-133428185D01*
X161851258Y-133428184D01*
X161856221Y-133426224D01*
X161861047Y-133423296D01*
X162048757Y-133309390D01*
X162048756Y-133309390D01*
X162053317Y-133306623D01*
X162076296Y-133286683D01*
X162223412Y-133159023D01*
X162223414Y-133159021D01*
X162227445Y-133155523D01*
X162285829Y-133084319D01*
X162370240Y-132981373D01*
X162370244Y-132981367D01*
X162373624Y-132977245D01*
X162391815Y-132945289D01*
X162485032Y-132781529D01*
X162487675Y-132776886D01*
X162566337Y-132560175D01*
X162602102Y-132362392D01*
X162606623Y-132337392D01*
X162606624Y-132337385D01*
X162607361Y-132333308D01*
X162608500Y-132309156D01*
X162608500Y-131897110D01*
X162593920Y-131725280D01*
X162592582Y-131720125D01*
X162592581Y-131720119D01*
X162537343Y-131507297D01*
X162537342Y-131507293D01*
X162536001Y-131502128D01*
X162524740Y-131477128D01*
X162443507Y-131296798D01*
X162441312Y-131291925D01*
X162312559Y-131100681D01*
X162292934Y-131080108D01*
X162224725Y-131008608D01*
X162153424Y-130933865D01*
X161968458Y-130796246D01*
X161963707Y-130793830D01*
X161963703Y-130793828D01*
X161845588Y-130733776D01*
X161762949Y-130691760D01*
X161757855Y-130690178D01*
X161757852Y-130690177D01*
X161547871Y-130624976D01*
X161542773Y-130623393D01*
X161537484Y-130622692D01*
X161319511Y-130593802D01*
X161319506Y-130593802D01*
X161314226Y-130593102D01*
X161308897Y-130593302D01*
X161308895Y-130593302D01*
X161199034Y-130597426D01*
X161083842Y-130601751D01*
X161078623Y-130602846D01*
X161056566Y-130607474D01*
X160858209Y-130649093D01*
X160853250Y-130651051D01*
X160853248Y-130651052D01*
X160648744Y-130731815D01*
X160648742Y-130731816D01*
X160643779Y-130733776D01*
X160639220Y-130736543D01*
X160639217Y-130736544D01*
X160544113Y-130794255D01*
X160446683Y-130853377D01*
X160442653Y-130856874D01*
X160296607Y-130983606D01*
X160272555Y-131004477D01*
X160269168Y-131008608D01*
X160129760Y-131178627D01*
X160129756Y-131178633D01*
X160126376Y-131182755D01*
X160123733Y-131187398D01*
X160108171Y-131214735D01*
X160057088Y-131264041D01*
X159987458Y-131277902D01*
X159921387Y-131251918D01*
X159894149Y-131222768D01*
X159815148Y-131105422D01*
X159808481Y-131097130D01*
X159656772Y-130938100D01*
X159648814Y-130931059D01*
X159472475Y-130799859D01*
X159463438Y-130794255D01*
X159267516Y-130694643D01*
X159257665Y-130690643D01*
X159047760Y-130625466D01*
X159037376Y-130623183D01*
X159021957Y-130621139D01*
X159007793Y-130623335D01*
X159004000Y-130636522D01*
X159004000Y-133521192D01*
X158496000Y-133521192D01*
X158496000Y-130638808D01*
X158492027Y-130625277D01*
X158481420Y-130623752D01*
X158363579Y-130648477D01*
X158353383Y-130651537D01*
X158148971Y-130732263D01*
X158139439Y-130736994D01*
X157951538Y-130851016D01*
X157942948Y-130857280D01*
X157776948Y-131001327D01*
X157769528Y-131008958D01*
X157630174Y-131178911D01*
X157624152Y-131187674D01*
X157608762Y-131214711D01*
X157557680Y-131264018D01*
X157488049Y-131277880D01*
X157421978Y-131251897D01*
X157394739Y-131222747D01*
X157350983Y-131157755D01*
X157312559Y-131100681D01*
X157292934Y-131080108D01*
X157224725Y-131008608D01*
X157153424Y-130933865D01*
X156968458Y-130796246D01*
X156963707Y-130793830D01*
X156963703Y-130793828D01*
X156845588Y-130733776D01*
X156762949Y-130691760D01*
X156757855Y-130690178D01*
X156757852Y-130690177D01*
X156547871Y-130624976D01*
X156542773Y-130623393D01*
X156537484Y-130622692D01*
X156319511Y-130593802D01*
X156319506Y-130593802D01*
X156314226Y-130593102D01*
X156308897Y-130593302D01*
X156308895Y-130593302D01*
X156199034Y-130597426D01*
X156083842Y-130601751D01*
X156078623Y-130602846D01*
X156056566Y-130607474D01*
X155858209Y-130649093D01*
X155853250Y-130651051D01*
X155853248Y-130651052D01*
X155648744Y-130731815D01*
X155648742Y-130731816D01*
X155643779Y-130733776D01*
X155639220Y-130736543D01*
X155639217Y-130736544D01*
X155544113Y-130794255D01*
X155446683Y-130853377D01*
X155442653Y-130856874D01*
X155296607Y-130983606D01*
X155272555Y-131004477D01*
X155243330Y-131040120D01*
X155184671Y-131080114D01*
X155113701Y-131082046D01*
X155052952Y-131045302D01*
X155038752Y-131026532D01*
X154952332Y-130886880D01*
X154948478Y-130880652D01*
X154823303Y-130755695D01*
X154792494Y-130736704D01*
X154678968Y-130666725D01*
X154678966Y-130666724D01*
X154672738Y-130662885D01*
X154590419Y-130635581D01*
X154511389Y-130609368D01*
X154511387Y-130609368D01*
X154504861Y-130607203D01*
X154498025Y-130606503D01*
X154498022Y-130606502D01*
X154454969Y-130602091D01*
X154400400Y-130596500D01*
X154038736Y-130596500D01*
X154012970Y-130593837D01*
X153944634Y-130579561D01*
X153944635Y-130579561D01*
X153939680Y-130578526D01*
X153934631Y-130578297D01*
X153934625Y-130578296D01*
X153824035Y-130573274D01*
X153697183Y-130567514D01*
X153692163Y-130568095D01*
X153692159Y-130568095D01*
X153456044Y-130595415D01*
X153455992Y-130594962D01*
X153440299Y-130596500D01*
X153099600Y-130596500D01*
X153096354Y-130596837D01*
X153096350Y-130596837D01*
X153000692Y-130606762D01*
X153000688Y-130606763D01*
X152993834Y-130607474D01*
X152987298Y-130609655D01*
X152987296Y-130609655D01*
X152855194Y-130653728D01*
X152826054Y-130663450D01*
X152675652Y-130756522D01*
X152550695Y-130881697D01*
X152546855Y-130887927D01*
X152546854Y-130887928D01*
X152472466Y-131008608D01*
X152457885Y-131032262D01*
X152402203Y-131200139D01*
X152401503Y-131206975D01*
X152401502Y-131206978D01*
X152399884Y-131222768D01*
X152391500Y-131304600D01*
X152391500Y-131389624D01*
X152376545Y-131449164D01*
X152363169Y-131474109D01*
X152284138Y-131703631D01*
X152283276Y-131708623D01*
X152250260Y-131899770D01*
X152242821Y-131942836D01*
X152241500Y-131971925D01*
X152241500Y-137850984D01*
X152241451Y-137854502D01*
X152238825Y-137948525D01*
X152238666Y-137954205D01*
X115032619Y-137954205D01*
X114977561Y-137846147D01*
X114977557Y-137846140D01*
X114976062Y-137843206D01*
X114900068Y-137726184D01*
X114766152Y-137519971D01*
X114766152Y-137519970D01*
X114764357Y-137517207D01*
X114519734Y-137215124D01*
X114244876Y-136940266D01*
X114138046Y-136853756D01*
X114093835Y-136817955D01*
X113942793Y-136695643D01*
X113616795Y-136483938D01*
X113613861Y-136482443D01*
X113613854Y-136482439D01*
X113273393Y-136308966D01*
X113270453Y-136307468D01*
X112907562Y-136168167D01*
X112532099Y-136067562D01*
X112328207Y-136035268D01*
X112151424Y-136007268D01*
X112151416Y-136007267D01*
X112148176Y-136006754D01*
X111760000Y-135986411D01*
X111371824Y-136006754D01*
X111368584Y-136007267D01*
X111368576Y-136007268D01*
X111191793Y-136035268D01*
X110987901Y-136067562D01*
X110612438Y-136168167D01*
X110249547Y-136307468D01*
X110246607Y-136308966D01*
X109906147Y-136482439D01*
X109906140Y-136482443D01*
X109903206Y-136483938D01*
X109900440Y-136485734D01*
X109900437Y-136485736D01*
X109579971Y-136693848D01*
X109577207Y-136695643D01*
X109426165Y-136817955D01*
X109381955Y-136853756D01*
X109275124Y-136940266D01*
X109000266Y-137215124D01*
X108755643Y-137517207D01*
X108753848Y-137519970D01*
X108753848Y-137519971D01*
X108619933Y-137726184D01*
X108543938Y-137843206D01*
X108542443Y-137846140D01*
X108542439Y-137846147D01*
X108395374Y-138134778D01*
X108367468Y-138189547D01*
X108228167Y-138552438D01*
X108127562Y-138927901D01*
X108066754Y-139311824D01*
X108046411Y-139700000D01*
X107193729Y-139700000D01*
X107189773Y-139672376D01*
X107188500Y-139654514D01*
X107188500Y-132880400D01*
X139611500Y-132880400D01*
X139611837Y-132883646D01*
X139611837Y-132883650D01*
X139621067Y-132972602D01*
X139622474Y-132986166D01*
X139624655Y-132992702D01*
X139624655Y-132992704D01*
X139660033Y-133098744D01*
X139678450Y-133153946D01*
X139771522Y-133304348D01*
X139896697Y-133429305D01*
X139902927Y-133433145D01*
X139902928Y-133433146D01*
X140040090Y-133517694D01*
X140047262Y-133522115D01*
X140092145Y-133537002D01*
X140208611Y-133575632D01*
X140208613Y-133575632D01*
X140215139Y-133577797D01*
X140221975Y-133578497D01*
X140221978Y-133578498D01*
X140257663Y-133582154D01*
X140319600Y-133588500D01*
X141620400Y-133588500D01*
X141623646Y-133588163D01*
X141623650Y-133588163D01*
X141719308Y-133578238D01*
X141719312Y-133578237D01*
X141726166Y-133577526D01*
X141732702Y-133575345D01*
X141732704Y-133575345D01*
X141864806Y-133531272D01*
X141893946Y-133521550D01*
X142044348Y-133428478D01*
X142169305Y-133303303D01*
X142259081Y-133157660D01*
X142311852Y-133110168D01*
X142381924Y-133098744D01*
X142447048Y-133127018D01*
X142457510Y-133136805D01*
X142499215Y-133180523D01*
X142566576Y-133251135D01*
X142751542Y-133388754D01*
X142756293Y-133391170D01*
X142756297Y-133391172D01*
X142819481Y-133423296D01*
X142957051Y-133493240D01*
X142962145Y-133494822D01*
X142962148Y-133494823D01*
X143098972Y-133537308D01*
X143177227Y-133561607D01*
X143182516Y-133562308D01*
X143400489Y-133591198D01*
X143400494Y-133591198D01*
X143405774Y-133591898D01*
X143411103Y-133591698D01*
X143411105Y-133591698D01*
X143520966Y-133587574D01*
X143636158Y-133583249D01*
X143658802Y-133578498D01*
X143856572Y-133537002D01*
X143861791Y-133535907D01*
X143866750Y-133533949D01*
X143866752Y-133533948D01*
X144071256Y-133453185D01*
X144071258Y-133453184D01*
X144076221Y-133451224D01*
X144112343Y-133429305D01*
X144268757Y-133334390D01*
X144268756Y-133334390D01*
X144273317Y-133331623D01*
X144325106Y-133286683D01*
X144443412Y-133184023D01*
X144443414Y-133184021D01*
X144447445Y-133180523D01*
X144514500Y-133098744D01*
X144590240Y-133006373D01*
X144590244Y-133006367D01*
X144593624Y-133002245D01*
X144654113Y-132895982D01*
X144705032Y-132806529D01*
X144707675Y-132801886D01*
X144786337Y-132585175D01*
X144790858Y-132560175D01*
X144826623Y-132362392D01*
X144826624Y-132362385D01*
X144827361Y-132358308D01*
X144828197Y-132340586D01*
X144828430Y-132335644D01*
X144828430Y-132335637D01*
X144828500Y-132334156D01*
X144828500Y-131872110D01*
X144816492Y-131730591D01*
X144814371Y-131705591D01*
X144814370Y-131705587D01*
X144813920Y-131700280D01*
X144812582Y-131695125D01*
X144812581Y-131695119D01*
X144757343Y-131482297D01*
X144757342Y-131482293D01*
X144756001Y-131477128D01*
X144752635Y-131469654D01*
X144663507Y-131271798D01*
X144661312Y-131266925D01*
X144532559Y-131075681D01*
X144498635Y-131040119D01*
X144461295Y-131000977D01*
X144373424Y-130908865D01*
X144335505Y-130880652D01*
X144192740Y-130774432D01*
X144192741Y-130774432D01*
X144188458Y-130771246D01*
X144183707Y-130768830D01*
X144183703Y-130768828D01*
X144061731Y-130706815D01*
X143982949Y-130666760D01*
X143977855Y-130665178D01*
X143977852Y-130665177D01*
X143767871Y-130599976D01*
X143762773Y-130598393D01*
X143728134Y-130593802D01*
X143539511Y-130568802D01*
X143539506Y-130568802D01*
X143534226Y-130568102D01*
X143528897Y-130568302D01*
X143528895Y-130568302D01*
X143419034Y-130572427D01*
X143303842Y-130576751D01*
X143298623Y-130577846D01*
X143276566Y-130582474D01*
X143078209Y-130624093D01*
X143073250Y-130626051D01*
X143073248Y-130626052D01*
X142868744Y-130706815D01*
X142868742Y-130706816D01*
X142863779Y-130708776D01*
X142859220Y-130711543D01*
X142859217Y-130711544D01*
X142760832Y-130771246D01*
X142666683Y-130828377D01*
X142662653Y-130831874D01*
X142540674Y-130937722D01*
X142492555Y-130979477D01*
X142463330Y-131015120D01*
X142404671Y-131055114D01*
X142333701Y-131057046D01*
X142272952Y-131020302D01*
X142258752Y-131001532D01*
X142172332Y-130861880D01*
X142168478Y-130855652D01*
X142043303Y-130730695D01*
X142037072Y-130726854D01*
X141898968Y-130641725D01*
X141898966Y-130641724D01*
X141892738Y-130637885D01*
X141783194Y-130601551D01*
X141731389Y-130584368D01*
X141731387Y-130584368D01*
X141724861Y-130582203D01*
X141718025Y-130581503D01*
X141718022Y-130581502D01*
X141674969Y-130577091D01*
X141620400Y-130571500D01*
X140319600Y-130571500D01*
X140316354Y-130571837D01*
X140316350Y-130571837D01*
X140220692Y-130581762D01*
X140220688Y-130581763D01*
X140213834Y-130582474D01*
X140207298Y-130584655D01*
X140207296Y-130584655D01*
X140141034Y-130606762D01*
X140046054Y-130638450D01*
X139895652Y-130731522D01*
X139770695Y-130856697D01*
X139766855Y-130862927D01*
X139766854Y-130862928D01*
X139736161Y-130912722D01*
X139677885Y-131007262D01*
X139622203Y-131175139D01*
X139621503Y-131181975D01*
X139621502Y-131181978D01*
X139619338Y-131203102D01*
X139611500Y-131279600D01*
X139611500Y-132880400D01*
X107188500Y-132880400D01*
X107188500Y-127000000D01*
X140056496Y-127000000D01*
X140076458Y-127189928D01*
X140135473Y-127371556D01*
X140230960Y-127536944D01*
X140235378Y-127541851D01*
X140235379Y-127541852D01*
X140310494Y-127625276D01*
X140358747Y-127678866D01*
X140513248Y-127791118D01*
X140519276Y-127793802D01*
X140519278Y-127793803D01*
X140681679Y-127866108D01*
X140687712Y-127868794D01*
X140781112Y-127888647D01*
X140868056Y-127907128D01*
X140868061Y-127907128D01*
X140874513Y-127908500D01*
X141065487Y-127908500D01*
X141071939Y-127907128D01*
X141071944Y-127907128D01*
X141158888Y-127888647D01*
X141252288Y-127868794D01*
X141258321Y-127866108D01*
X141420722Y-127793803D01*
X141420724Y-127793802D01*
X141426752Y-127791118D01*
X141479817Y-127752564D01*
X141546685Y-127728705D01*
X141553878Y-127728500D01*
X152400000Y-127728500D01*
X163246121Y-127728499D01*
X163314242Y-127748501D01*
X163320182Y-127752563D01*
X163320184Y-127752564D01*
X163373247Y-127791117D01*
X163379275Y-127793801D01*
X163379277Y-127793802D01*
X163541680Y-127866108D01*
X163547711Y-127868793D01*
X163641112Y-127888646D01*
X163728055Y-127907127D01*
X163728060Y-127907127D01*
X163734512Y-127908499D01*
X163925486Y-127908499D01*
X163931938Y-127907127D01*
X163931943Y-127907127D01*
X164018886Y-127888646D01*
X164112287Y-127868793D01*
X164118318Y-127866108D01*
X164280721Y-127793802D01*
X164280723Y-127793801D01*
X164286751Y-127791117D01*
X164441252Y-127678865D01*
X164569039Y-127536943D01*
X164650327Y-127396148D01*
X164661222Y-127377278D01*
X164661223Y-127377277D01*
X164664526Y-127371555D01*
X164723541Y-127189927D01*
X164743503Y-126999999D01*
X164723541Y-126810071D01*
X164664526Y-126628443D01*
X164657876Y-126616924D01*
X164597991Y-126513202D01*
X164569039Y-126463055D01*
X164546914Y-126438482D01*
X164445674Y-126326044D01*
X164445673Y-126326043D01*
X164441252Y-126321133D01*
X164298646Y-126217523D01*
X164292093Y-126212762D01*
X164292092Y-126212761D01*
X164286751Y-126208881D01*
X164280723Y-126206197D01*
X164280721Y-126206196D01*
X164118318Y-126133890D01*
X164118317Y-126133890D01*
X164112287Y-126131205D01*
X164018887Y-126111352D01*
X163931943Y-126092871D01*
X163931938Y-126092871D01*
X163925486Y-126091499D01*
X163734512Y-126091499D01*
X163728060Y-126092871D01*
X163728055Y-126092871D01*
X163641111Y-126111352D01*
X163547711Y-126131205D01*
X163541681Y-126133890D01*
X163541680Y-126133890D01*
X163379277Y-126206196D01*
X163379275Y-126206197D01*
X163373247Y-126208881D01*
X163367906Y-126212761D01*
X163367905Y-126212762D01*
X163320182Y-126247435D01*
X163253314Y-126271294D01*
X163246121Y-126271499D01*
X162877131Y-126271499D01*
X162809010Y-126251497D01*
X162762517Y-126197841D01*
X162752413Y-126127567D01*
X162759883Y-126101672D01*
X162759527Y-126101556D01*
X162816502Y-125926206D01*
X162818542Y-125919928D01*
X162822125Y-125885844D01*
X162837814Y-125736565D01*
X162838504Y-125730000D01*
X162825802Y-125609146D01*
X162819232Y-125546635D01*
X162819232Y-125546633D01*
X162818542Y-125540072D01*
X162759527Y-125358444D01*
X162746383Y-125335677D01*
X162667341Y-125198774D01*
X162664040Y-125193056D01*
X162603547Y-125125871D01*
X162540675Y-125056045D01*
X162540674Y-125056044D01*
X162536253Y-125051134D01*
X162381752Y-124938882D01*
X162375724Y-124936198D01*
X162375722Y-124936197D01*
X162213319Y-124863891D01*
X162213318Y-124863891D01*
X162207288Y-124861206D01*
X162113888Y-124841353D01*
X162026944Y-124822872D01*
X162026939Y-124822872D01*
X162020487Y-124821500D01*
X161829513Y-124821500D01*
X161823061Y-124822872D01*
X161823056Y-124822872D01*
X161736112Y-124841353D01*
X161642712Y-124861206D01*
X161636682Y-124863891D01*
X161636681Y-124863891D01*
X161474278Y-124936197D01*
X161474276Y-124936198D01*
X161468248Y-124938882D01*
X161462907Y-124942762D01*
X161462906Y-124942763D01*
X161415183Y-124977436D01*
X161348315Y-125001295D01*
X161341122Y-125001500D01*
X151713878Y-125001500D01*
X151645757Y-124981498D01*
X151639817Y-124977436D01*
X151592094Y-124942763D01*
X151592093Y-124942762D01*
X151586752Y-124938882D01*
X151580724Y-124936198D01*
X151580722Y-124936197D01*
X151418319Y-124863891D01*
X151418318Y-124863891D01*
X151412288Y-124861206D01*
X151318888Y-124841353D01*
X151231944Y-124822872D01*
X151231939Y-124822872D01*
X151225487Y-124821500D01*
X151034513Y-124821500D01*
X151028061Y-124822872D01*
X151028056Y-124822872D01*
X150941112Y-124841353D01*
X150847712Y-124861206D01*
X150841682Y-124863891D01*
X150841681Y-124863891D01*
X150679278Y-124936197D01*
X150679276Y-124936198D01*
X150673248Y-124938882D01*
X150518747Y-125051134D01*
X150514326Y-125056044D01*
X150514325Y-125056045D01*
X150451454Y-125125871D01*
X150390960Y-125193056D01*
X150387659Y-125198774D01*
X150308618Y-125335677D01*
X150295473Y-125358444D01*
X150236458Y-125540072D01*
X150235768Y-125546633D01*
X150235768Y-125546635D01*
X150229198Y-125609146D01*
X150216496Y-125730000D01*
X150217186Y-125736565D01*
X150232876Y-125885844D01*
X150236458Y-125919928D01*
X150238498Y-125926206D01*
X150295473Y-126101556D01*
X150294018Y-126102029D01*
X150302412Y-126164612D01*
X150272309Y-126228911D01*
X150212222Y-126266727D01*
X150177870Y-126271500D01*
X141553878Y-126271500D01*
X141485757Y-126251498D01*
X141479817Y-126247436D01*
X141432094Y-126212763D01*
X141432093Y-126212762D01*
X141426752Y-126208882D01*
X141420724Y-126206198D01*
X141420722Y-126206197D01*
X141258319Y-126133891D01*
X141258316Y-126133890D01*
X141252288Y-126131206D01*
X141158887Y-126111353D01*
X141071944Y-126092872D01*
X141071939Y-126092872D01*
X141065487Y-126091500D01*
X140874513Y-126091500D01*
X140868061Y-126092872D01*
X140868056Y-126092872D01*
X140781113Y-126111353D01*
X140687712Y-126131206D01*
X140681684Y-126133890D01*
X140681681Y-126133891D01*
X140519278Y-126206197D01*
X140519276Y-126206198D01*
X140513248Y-126208882D01*
X140507907Y-126212762D01*
X140507906Y-126212763D01*
X140460185Y-126247435D01*
X140358747Y-126321134D01*
X140354326Y-126326044D01*
X140354325Y-126326045D01*
X140253087Y-126438482D01*
X140230960Y-126463056D01*
X140227659Y-126468774D01*
X140139214Y-126621965D01*
X140135473Y-126628444D01*
X140076458Y-126810072D01*
X140075768Y-126816633D01*
X140075768Y-126816635D01*
X140070962Y-126862362D01*
X140056496Y-127000000D01*
X107188500Y-127000000D01*
X107188500Y-124136339D01*
X170037173Y-124136339D01*
X170049713Y-124397408D01*
X170100704Y-124653756D01*
X170189026Y-124899752D01*
X170226850Y-124970147D01*
X170268280Y-125047251D01*
X170312737Y-125129991D01*
X170315532Y-125133734D01*
X170315534Y-125133737D01*
X170466330Y-125335677D01*
X170466335Y-125335683D01*
X170469122Y-125339415D01*
X170472431Y-125342695D01*
X170472436Y-125342701D01*
X170651426Y-125520135D01*
X170654743Y-125523423D01*
X170658505Y-125526181D01*
X170658508Y-125526184D01*
X170861750Y-125675207D01*
X170865524Y-125677974D01*
X170869667Y-125680154D01*
X170869669Y-125680155D01*
X171092684Y-125797489D01*
X171092689Y-125797491D01*
X171096834Y-125799672D01*
X171343590Y-125885844D01*
X171348183Y-125886716D01*
X171595785Y-125933724D01*
X171595788Y-125933724D01*
X171600374Y-125934595D01*
X171730959Y-125939726D01*
X171856875Y-125944674D01*
X171856881Y-125944674D01*
X171861543Y-125944857D01*
X171940977Y-125936157D01*
X172116707Y-125916912D01*
X172116712Y-125916911D01*
X172121360Y-125916402D01*
X172125884Y-125915211D01*
X172369594Y-125851048D01*
X172369596Y-125851047D01*
X172374117Y-125849857D01*
X172614262Y-125746682D01*
X172836519Y-125609146D01*
X172840082Y-125606129D01*
X172840087Y-125606126D01*
X173032439Y-125443287D01*
X173032440Y-125443286D01*
X173036005Y-125440268D01*
X173156731Y-125302607D01*
X173205257Y-125247274D01*
X173205261Y-125247269D01*
X173208339Y-125243759D01*
X173349733Y-125023937D01*
X173457083Y-124785629D01*
X173528030Y-124534072D01*
X173531177Y-124509337D01*
X173560616Y-124277921D01*
X173560616Y-124277917D01*
X173561014Y-124274791D01*
X173563431Y-124182500D01*
X173560000Y-124136339D01*
X182037173Y-124136339D01*
X182049713Y-124397408D01*
X182100704Y-124653756D01*
X182189026Y-124899752D01*
X182226850Y-124970147D01*
X182268280Y-125047251D01*
X182312737Y-125129991D01*
X182315532Y-125133734D01*
X182315534Y-125133737D01*
X182466330Y-125335677D01*
X182466335Y-125335683D01*
X182469122Y-125339415D01*
X182472431Y-125342695D01*
X182472436Y-125342701D01*
X182651426Y-125520135D01*
X182654743Y-125523423D01*
X182658505Y-125526181D01*
X182658508Y-125526184D01*
X182861750Y-125675207D01*
X182865524Y-125677974D01*
X182869667Y-125680154D01*
X182869669Y-125680155D01*
X183092684Y-125797489D01*
X183092689Y-125797491D01*
X183096834Y-125799672D01*
X183343590Y-125885844D01*
X183348183Y-125886716D01*
X183595785Y-125933724D01*
X183595788Y-125933724D01*
X183600374Y-125934595D01*
X183730959Y-125939726D01*
X183856875Y-125944674D01*
X183856881Y-125944674D01*
X183861543Y-125944857D01*
X183940977Y-125936157D01*
X184116707Y-125916912D01*
X184116712Y-125916911D01*
X184121360Y-125916402D01*
X184125884Y-125915211D01*
X184369594Y-125851048D01*
X184369596Y-125851047D01*
X184374117Y-125849857D01*
X184614262Y-125746682D01*
X184836519Y-125609146D01*
X184840082Y-125606129D01*
X184840087Y-125606126D01*
X185032439Y-125443287D01*
X185032440Y-125443286D01*
X185036005Y-125440268D01*
X185156731Y-125302607D01*
X185205257Y-125247274D01*
X185205261Y-125247269D01*
X185208339Y-125243759D01*
X185313672Y-125080000D01*
X187956502Y-125080000D01*
X187976457Y-125308087D01*
X187977881Y-125313400D01*
X187977881Y-125313402D01*
X188034157Y-125523423D01*
X188035716Y-125529243D01*
X188038039Y-125534224D01*
X188038039Y-125534225D01*
X188130151Y-125731762D01*
X188130154Y-125731767D01*
X188132477Y-125736749D01*
X188140723Y-125748525D01*
X188258272Y-125916402D01*
X188263802Y-125924300D01*
X188425700Y-126086198D01*
X188430208Y-126089355D01*
X188430211Y-126089357D01*
X188433272Y-126091500D01*
X188613251Y-126217523D01*
X188618233Y-126219846D01*
X188618238Y-126219849D01*
X188815775Y-126311961D01*
X188820757Y-126314284D01*
X188826065Y-126315706D01*
X188826067Y-126315707D01*
X189036598Y-126372119D01*
X189036600Y-126372119D01*
X189041913Y-126373543D01*
X189270000Y-126393498D01*
X189498087Y-126373543D01*
X189503400Y-126372119D01*
X189503402Y-126372119D01*
X189713933Y-126315707D01*
X189713935Y-126315706D01*
X189719243Y-126314284D01*
X189724225Y-126311961D01*
X189921762Y-126219849D01*
X189921767Y-126219846D01*
X189926749Y-126217523D01*
X190106728Y-126091500D01*
X190109789Y-126089357D01*
X190109792Y-126089355D01*
X190114300Y-126086198D01*
X190276198Y-125924300D01*
X190281729Y-125916402D01*
X190399277Y-125748525D01*
X190407523Y-125736749D01*
X190409846Y-125731767D01*
X190409849Y-125731762D01*
X190501961Y-125534225D01*
X190501961Y-125534224D01*
X190504284Y-125529243D01*
X190505844Y-125523423D01*
X190562119Y-125313402D01*
X190562119Y-125313400D01*
X190563543Y-125308087D01*
X190583498Y-125080000D01*
X190563543Y-124851913D01*
X190562119Y-124846598D01*
X190505707Y-124636067D01*
X190505706Y-124636065D01*
X190504284Y-124630757D01*
X190461300Y-124538576D01*
X190409849Y-124428238D01*
X190409846Y-124428233D01*
X190407523Y-124423251D01*
X190276198Y-124235700D01*
X190114300Y-124073802D01*
X190109792Y-124070645D01*
X190109789Y-124070643D01*
X190031611Y-124015902D01*
X189926749Y-123942477D01*
X189921767Y-123940154D01*
X189921762Y-123940151D01*
X189724225Y-123848039D01*
X189724224Y-123848039D01*
X189719243Y-123845716D01*
X189713935Y-123844294D01*
X189713933Y-123844293D01*
X189503402Y-123787881D01*
X189503400Y-123787881D01*
X189498087Y-123786457D01*
X189270000Y-123766502D01*
X189041913Y-123786457D01*
X189036600Y-123787881D01*
X189036598Y-123787881D01*
X188826067Y-123844293D01*
X188826065Y-123844294D01*
X188820757Y-123845716D01*
X188815776Y-123848039D01*
X188815775Y-123848039D01*
X188618238Y-123940151D01*
X188618233Y-123940154D01*
X188613251Y-123942477D01*
X188508389Y-124015902D01*
X188430211Y-124070643D01*
X188430208Y-124070645D01*
X188425700Y-124073802D01*
X188263802Y-124235700D01*
X188132477Y-124423251D01*
X188130154Y-124428233D01*
X188130151Y-124428238D01*
X188078700Y-124538576D01*
X188035716Y-124630757D01*
X188034294Y-124636065D01*
X188034293Y-124636067D01*
X187977881Y-124846598D01*
X187976457Y-124851913D01*
X187956502Y-125080000D01*
X185313672Y-125080000D01*
X185349733Y-125023937D01*
X185457083Y-124785629D01*
X185528030Y-124534072D01*
X185531177Y-124509337D01*
X185560616Y-124277921D01*
X185560616Y-124277917D01*
X185561014Y-124274791D01*
X185563431Y-124182500D01*
X185555353Y-124073802D01*
X185544407Y-123926500D01*
X185544406Y-123926496D01*
X185544061Y-123921848D01*
X185532725Y-123871748D01*
X185487408Y-123671480D01*
X185486377Y-123666923D01*
X185391647Y-123423323D01*
X185261951Y-123196402D01*
X185100138Y-122991143D01*
X184909763Y-122812057D01*
X184695009Y-122663076D01*
X184690816Y-122661008D01*
X184464781Y-122549540D01*
X184464778Y-122549539D01*
X184460593Y-122547475D01*
X184414449Y-122532704D01*
X184216123Y-122469220D01*
X184211665Y-122467793D01*
X183953693Y-122425779D01*
X183839942Y-122424290D01*
X183697022Y-122422419D01*
X183697019Y-122422419D01*
X183692345Y-122422358D01*
X183433362Y-122457604D01*
X183182433Y-122530743D01*
X183178180Y-122532703D01*
X183178179Y-122532704D01*
X183141659Y-122549540D01*
X182945072Y-122640168D01*
X182906067Y-122665741D01*
X182730404Y-122780910D01*
X182730399Y-122780914D01*
X182726491Y-122783476D01*
X182531494Y-122957518D01*
X182364363Y-123158470D01*
X182228771Y-123381919D01*
X182127697Y-123622955D01*
X182063359Y-123876283D01*
X182062891Y-123880934D01*
X182062890Y-123880938D01*
X182056842Y-123941000D01*
X182037173Y-124136339D01*
X173560000Y-124136339D01*
X173555353Y-124073802D01*
X173544407Y-123926500D01*
X173544406Y-123926496D01*
X173544061Y-123921848D01*
X173532725Y-123871748D01*
X173487408Y-123671480D01*
X173486377Y-123666923D01*
X173413934Y-123480634D01*
X176041500Y-123480634D01*
X176048255Y-123542816D01*
X176099385Y-123679205D01*
X176186739Y-123795761D01*
X176303295Y-123883115D01*
X176439684Y-123934245D01*
X176501866Y-123941000D01*
X179098134Y-123941000D01*
X179160316Y-123934245D01*
X179296705Y-123883115D01*
X179413261Y-123795761D01*
X179500615Y-123679205D01*
X179551745Y-123542816D01*
X179558500Y-123480634D01*
X179558500Y-122609531D01*
X179578502Y-122541410D01*
X179595401Y-122520440D01*
X180520439Y-121595403D01*
X180582749Y-121561379D01*
X180609532Y-121558500D01*
X189331001Y-121558500D01*
X189333509Y-121558298D01*
X189333514Y-121558298D01*
X189506924Y-121544346D01*
X189506929Y-121544345D01*
X189511965Y-121543940D01*
X189516873Y-121542734D01*
X189516876Y-121542734D01*
X189742792Y-121487244D01*
X189747706Y-121486037D01*
X189752358Y-121484062D01*
X189752362Y-121484061D01*
X189966498Y-121393165D01*
X189971156Y-121391188D01*
X190047646Y-121343019D01*
X190172288Y-121264528D01*
X190172291Y-121264526D01*
X190176567Y-121261833D01*
X190222166Y-121221633D01*
X190354858Y-121104650D01*
X190354861Y-121104647D01*
X190358655Y-121101302D01*
X190512734Y-120913722D01*
X190634841Y-120703922D01*
X190644558Y-120678609D01*
X190720020Y-120482022D01*
X190720021Y-120482018D01*
X190721833Y-120477298D01*
X190730977Y-120433529D01*
X190770440Y-120244631D01*
X190770440Y-120244627D01*
X190771474Y-120239680D01*
X190782486Y-119997183D01*
X190754585Y-119756044D01*
X190688490Y-119522468D01*
X190686356Y-119517892D01*
X190686354Y-119517886D01*
X190588038Y-119307046D01*
X190588036Y-119307042D01*
X190585901Y-119302464D01*
X190449456Y-119101693D01*
X190282668Y-118925319D01*
X190257319Y-118905938D01*
X190093846Y-118780953D01*
X190093842Y-118780950D01*
X190089826Y-118777880D01*
X190000445Y-118729954D01*
X189880352Y-118665561D01*
X189875891Y-118663169D01*
X189646369Y-118584138D01*
X189529184Y-118563897D01*
X189411074Y-118543496D01*
X189411068Y-118543495D01*
X189407164Y-118542821D01*
X189403203Y-118542641D01*
X189403202Y-118542641D01*
X189379494Y-118541564D01*
X189379475Y-118541564D01*
X189378075Y-118541500D01*
X179956502Y-118541500D01*
X179952983Y-118541451D01*
X179858350Y-118538807D01*
X179858347Y-118538807D01*
X179853295Y-118538666D01*
X179775402Y-118549059D01*
X179768861Y-118549758D01*
X179740168Y-118552067D01*
X179695577Y-118555654D01*
X179695573Y-118555655D01*
X179690535Y-118556060D01*
X179658622Y-118563899D01*
X179645242Y-118566426D01*
X179612680Y-118570771D01*
X179607839Y-118572232D01*
X179607837Y-118572233D01*
X179537471Y-118593478D01*
X179531110Y-118595219D01*
X179454794Y-118613963D01*
X179450134Y-118615941D01*
X179424549Y-118626801D01*
X179411739Y-118631438D01*
X179380292Y-118640933D01*
X179375744Y-118643151D01*
X179375737Y-118643154D01*
X179309682Y-118675371D01*
X179303680Y-118678107D01*
X179264258Y-118694841D01*
X179231344Y-118708812D01*
X179207032Y-118724123D01*
X179203544Y-118726319D01*
X179191640Y-118732945D01*
X179162112Y-118747346D01*
X179114472Y-118780953D01*
X179097903Y-118792641D01*
X179092414Y-118796301D01*
X179030214Y-118835471D01*
X179025933Y-118838167D01*
X179022144Y-118841508D01*
X179022138Y-118841512D01*
X179001283Y-118859898D01*
X178990588Y-118868344D01*
X178963753Y-118887274D01*
X178942250Y-118906909D01*
X178902534Y-118946625D01*
X178896764Y-118952044D01*
X178847642Y-118995350D01*
X178847639Y-118995353D01*
X178843845Y-118998698D01*
X178840635Y-119002606D01*
X178840634Y-119002607D01*
X178817321Y-119030989D01*
X178809051Y-119040108D01*
X177462064Y-120387095D01*
X177399752Y-120421121D01*
X177372969Y-120424000D01*
X176501866Y-120424000D01*
X176439684Y-120430755D01*
X176303295Y-120481885D01*
X176186739Y-120569239D01*
X176099385Y-120685795D01*
X176048255Y-120822184D01*
X176041500Y-120884366D01*
X176041500Y-123480634D01*
X173413934Y-123480634D01*
X173391647Y-123423323D01*
X173261951Y-123196402D01*
X173100138Y-122991143D01*
X172909763Y-122812057D01*
X172695009Y-122663076D01*
X172690816Y-122661008D01*
X172464781Y-122549540D01*
X172464778Y-122549539D01*
X172460593Y-122547475D01*
X172414449Y-122532704D01*
X172216123Y-122469220D01*
X172211665Y-122467793D01*
X171953693Y-122425779D01*
X171839942Y-122424290D01*
X171697022Y-122422419D01*
X171697019Y-122422419D01*
X171692345Y-122422358D01*
X171433362Y-122457604D01*
X171182433Y-122530743D01*
X171178180Y-122532703D01*
X171178179Y-122532704D01*
X171141659Y-122549540D01*
X170945072Y-122640168D01*
X170906067Y-122665741D01*
X170730404Y-122780910D01*
X170730399Y-122780914D01*
X170726491Y-122783476D01*
X170531494Y-122957518D01*
X170364363Y-123158470D01*
X170228771Y-123381919D01*
X170127697Y-123622955D01*
X170063359Y-123876283D01*
X170062891Y-123880934D01*
X170062890Y-123880938D01*
X170056842Y-123941000D01*
X170037173Y-124136339D01*
X107188500Y-124136339D01*
X107188500Y-110414200D01*
X187684940Y-110414200D01*
X187704759Y-110729220D01*
X187763905Y-111039272D01*
X187861444Y-111339466D01*
X187863131Y-111343052D01*
X187863133Y-111343056D01*
X187994150Y-111621483D01*
X187994154Y-111621490D01*
X187995838Y-111625069D01*
X188164968Y-111891575D01*
X188366167Y-112134782D01*
X188596260Y-112350854D01*
X188637961Y-112381151D01*
X188681314Y-112437372D01*
X188689900Y-112483087D01*
X188689900Y-113974384D01*
X188689851Y-113977902D01*
X188687066Y-114077605D01*
X188687735Y-114082619D01*
X188697458Y-114155486D01*
X188698158Y-114162039D01*
X188704460Y-114240365D01*
X188712297Y-114272270D01*
X188714826Y-114285658D01*
X188719171Y-114318220D01*
X188720632Y-114323061D01*
X188720633Y-114323063D01*
X188741878Y-114393429D01*
X188743619Y-114399790D01*
X188762363Y-114476106D01*
X188764341Y-114480766D01*
X188775201Y-114506351D01*
X188779838Y-114519161D01*
X188789333Y-114550608D01*
X188791551Y-114555156D01*
X188791554Y-114555163D01*
X188823771Y-114621218D01*
X188826507Y-114627220D01*
X188857212Y-114699556D01*
X188859904Y-114703830D01*
X188874719Y-114727356D01*
X188881345Y-114739260D01*
X188895746Y-114768788D01*
X188898665Y-114772925D01*
X188898665Y-114772926D01*
X188941041Y-114832997D01*
X188944701Y-114838486D01*
X188986567Y-114904967D01*
X188989908Y-114908756D01*
X188989912Y-114908762D01*
X189008298Y-114929617D01*
X189016744Y-114940312D01*
X189035674Y-114967147D01*
X189055309Y-114988650D01*
X189095025Y-115028366D01*
X189100444Y-115034136D01*
X189143750Y-115083258D01*
X189143753Y-115083261D01*
X189147098Y-115087055D01*
X189151006Y-115090265D01*
X189151007Y-115090266D01*
X189179389Y-115113579D01*
X189188508Y-115121849D01*
X192724595Y-118657936D01*
X192758621Y-118720248D01*
X192761500Y-118747031D01*
X192761500Y-126441001D01*
X192761702Y-126443509D01*
X192761702Y-126443514D01*
X192767943Y-126521074D01*
X192776060Y-126621965D01*
X192833963Y-126857706D01*
X192928812Y-127081156D01*
X193058167Y-127286567D01*
X193061512Y-127290361D01*
X193215350Y-127464858D01*
X193215353Y-127464861D01*
X193218698Y-127468655D01*
X193222606Y-127471865D01*
X193222607Y-127471866D01*
X193329242Y-127559456D01*
X193406278Y-127622734D01*
X193410646Y-127625276D01*
X193588354Y-127728705D01*
X193616078Y-127744841D01*
X193620801Y-127746654D01*
X193837978Y-127830020D01*
X193837982Y-127830021D01*
X193842702Y-127831833D01*
X193847652Y-127832867D01*
X193847655Y-127832868D01*
X194075369Y-127880440D01*
X194075373Y-127880440D01*
X194080320Y-127881474D01*
X194322817Y-127892486D01*
X194327837Y-127891905D01*
X194327841Y-127891905D01*
X194558929Y-127865167D01*
X194558933Y-127865166D01*
X194563956Y-127864585D01*
X194568820Y-127863209D01*
X194568823Y-127863208D01*
X194792669Y-127799866D01*
X194792668Y-127799866D01*
X194797532Y-127798490D01*
X194802108Y-127796356D01*
X194802114Y-127796354D01*
X195012954Y-127698038D01*
X195012958Y-127698036D01*
X195017536Y-127695901D01*
X195036889Y-127682749D01*
X195214119Y-127562302D01*
X195218307Y-127559456D01*
X195394681Y-127392668D01*
X195406448Y-127377278D01*
X195539047Y-127203846D01*
X195539050Y-127203842D01*
X195542120Y-127199826D01*
X195656831Y-126985891D01*
X195735862Y-126756369D01*
X195777179Y-126517164D01*
X195778500Y-126488075D01*
X195778500Y-118094016D01*
X195778549Y-118090498D01*
X195781193Y-117995850D01*
X195781193Y-117995847D01*
X195781334Y-117990795D01*
X195770941Y-117912902D01*
X195770241Y-117906353D01*
X195764346Y-117833077D01*
X195764345Y-117833073D01*
X195763940Y-117828035D01*
X195756101Y-117796122D01*
X195753573Y-117782738D01*
X195749898Y-117755194D01*
X195749229Y-117750180D01*
X195726522Y-117674971D01*
X195724781Y-117668608D01*
X195707244Y-117597209D01*
X195706037Y-117592294D01*
X195693199Y-117562048D01*
X195688561Y-117549237D01*
X195680530Y-117522638D01*
X195679067Y-117517792D01*
X195676849Y-117513244D01*
X195676846Y-117513237D01*
X195644629Y-117447182D01*
X195641893Y-117441180D01*
X195613162Y-117373495D01*
X195611188Y-117368844D01*
X195593681Y-117341044D01*
X195587052Y-117329134D01*
X195572654Y-117299612D01*
X195527357Y-117235400D01*
X195523699Y-117229914D01*
X195484529Y-117167714D01*
X195484528Y-117167713D01*
X195481833Y-117163433D01*
X195478492Y-117159644D01*
X195478488Y-117159638D01*
X195460102Y-117138783D01*
X195451656Y-117128088D01*
X195435009Y-117104490D01*
X195432726Y-117101253D01*
X195413091Y-117079750D01*
X195373375Y-117040034D01*
X195367956Y-117034264D01*
X195324650Y-116985142D01*
X195324647Y-116985139D01*
X195321302Y-116981345D01*
X195289011Y-116954821D01*
X195279892Y-116946551D01*
X191743805Y-113410464D01*
X191709779Y-113348152D01*
X191706900Y-113321369D01*
X191706900Y-112483087D01*
X191726902Y-112414966D01*
X191758838Y-112381152D01*
X191800540Y-112350854D01*
X192030633Y-112134782D01*
X192231832Y-111891575D01*
X192400962Y-111625069D01*
X192402646Y-111621490D01*
X192402650Y-111621483D01*
X192533667Y-111343056D01*
X192533669Y-111343052D01*
X192535356Y-111339466D01*
X192632895Y-111039272D01*
X192692041Y-110729220D01*
X192711860Y-110414200D01*
X192692041Y-110099180D01*
X192632895Y-109789128D01*
X192535356Y-109488934D01*
X192533667Y-109485344D01*
X192402650Y-109206917D01*
X192402646Y-109206910D01*
X192400962Y-109203331D01*
X192231832Y-108936825D01*
X192030633Y-108693618D01*
X191800540Y-108477546D01*
X191545179Y-108292016D01*
X191268579Y-108139953D01*
X191264910Y-108138500D01*
X191264905Y-108138498D01*
X190978772Y-108025210D01*
X190978771Y-108025210D01*
X190975102Y-108023757D01*
X190669375Y-107945260D01*
X190356221Y-107905700D01*
X190040579Y-107905700D01*
X189727425Y-107945260D01*
X189421698Y-108023757D01*
X189418029Y-108025210D01*
X189418028Y-108025210D01*
X189131895Y-108138498D01*
X189131890Y-108138500D01*
X189128221Y-108139953D01*
X188851621Y-108292016D01*
X188596260Y-108477546D01*
X188366167Y-108693618D01*
X188164968Y-108936825D01*
X187995838Y-109203331D01*
X187994154Y-109206910D01*
X187994150Y-109206917D01*
X187863133Y-109485344D01*
X187861444Y-109488934D01*
X187763905Y-109789128D01*
X187704759Y-110099180D01*
X187684940Y-110414200D01*
X107188500Y-110414200D01*
X107188500Y-106860187D01*
X188617121Y-106860187D01*
X188625948Y-106871805D01*
X188848681Y-107033630D01*
X188855361Y-107037870D01*
X189124972Y-107186090D01*
X189132107Y-107189447D01*
X189418170Y-107302708D01*
X189425696Y-107305153D01*
X189723679Y-107381662D01*
X189731450Y-107383145D01*
X190036678Y-107421703D01*
X190044569Y-107422200D01*
X190352231Y-107422200D01*
X190360122Y-107421703D01*
X190665350Y-107383145D01*
X190673121Y-107381662D01*
X190971104Y-107305153D01*
X190978630Y-107302708D01*
X191264693Y-107189447D01*
X191271828Y-107186090D01*
X191541439Y-107037870D01*
X191548119Y-107033630D01*
X191771223Y-106871536D01*
X191779646Y-106860613D01*
X191772742Y-106847752D01*
X190211212Y-105286222D01*
X190197268Y-105278608D01*
X190195435Y-105278739D01*
X190188820Y-105282990D01*
X188623734Y-106848076D01*
X188617121Y-106860187D01*
X107188500Y-106860187D01*
X107188500Y-104918158D01*
X187685690Y-104918158D01*
X187705007Y-105225194D01*
X187706000Y-105233055D01*
X187763646Y-105535246D01*
X187765617Y-105542923D01*
X187860684Y-105835509D01*
X187863599Y-105842872D01*
X187994589Y-106121241D01*
X187998401Y-106128174D01*
X188163251Y-106387936D01*
X188167895Y-106394329D01*
X188242897Y-106484990D01*
X188255414Y-106493445D01*
X188266152Y-106487238D01*
X189826378Y-104927012D01*
X189832756Y-104915332D01*
X190562808Y-104915332D01*
X190562939Y-104917165D01*
X190567190Y-104923780D01*
X192129545Y-106486135D01*
X192142807Y-106493377D01*
X192152912Y-106486188D01*
X192228905Y-106394329D01*
X192233549Y-106387936D01*
X192398399Y-106128174D01*
X192402211Y-106121241D01*
X192533201Y-105842872D01*
X192536116Y-105835509D01*
X192631183Y-105542923D01*
X192633154Y-105535246D01*
X192690800Y-105233055D01*
X192691793Y-105225194D01*
X192711110Y-104918158D01*
X192711110Y-104910242D01*
X192691793Y-104603206D01*
X192690800Y-104595345D01*
X192633154Y-104293154D01*
X192631183Y-104285477D01*
X192536116Y-103992891D01*
X192533201Y-103985528D01*
X192402211Y-103707159D01*
X192398399Y-103700226D01*
X192233549Y-103440464D01*
X192228905Y-103434071D01*
X192153903Y-103343410D01*
X192141386Y-103334955D01*
X192130648Y-103341162D01*
X190570422Y-104901388D01*
X190562808Y-104915332D01*
X189832756Y-104915332D01*
X189833992Y-104913068D01*
X189833861Y-104911235D01*
X189829610Y-104904620D01*
X188267255Y-103342265D01*
X188253993Y-103335023D01*
X188243888Y-103342212D01*
X188167895Y-103434071D01*
X188163251Y-103440464D01*
X187998401Y-103700226D01*
X187994589Y-103707159D01*
X187863599Y-103985528D01*
X187860684Y-103992891D01*
X187765617Y-104285477D01*
X187763646Y-104293154D01*
X187706000Y-104595345D01*
X187705007Y-104603206D01*
X187685690Y-104910242D01*
X187685690Y-104918158D01*
X107188500Y-104918158D01*
X107188500Y-102967787D01*
X188617154Y-102967787D01*
X188624058Y-102980648D01*
X190185588Y-104542178D01*
X190199532Y-104549792D01*
X190201365Y-104549661D01*
X190207980Y-104545410D01*
X191773066Y-102980324D01*
X191779679Y-102968213D01*
X191770852Y-102956595D01*
X191548119Y-102794770D01*
X191541439Y-102790530D01*
X191271828Y-102642310D01*
X191264693Y-102638953D01*
X190978630Y-102525692D01*
X190971104Y-102523247D01*
X190673121Y-102446738D01*
X190665350Y-102445255D01*
X190360122Y-102406697D01*
X190352231Y-102406200D01*
X190044569Y-102406200D01*
X190036678Y-102406697D01*
X189731450Y-102445255D01*
X189723679Y-102446738D01*
X189425696Y-102523247D01*
X189418170Y-102525692D01*
X189132107Y-102638953D01*
X189124972Y-102642310D01*
X188855361Y-102790530D01*
X188848681Y-102794770D01*
X188625577Y-102956864D01*
X188617154Y-102967787D01*
X107188500Y-102967787D01*
X107188500Y-81406000D01*
X107208502Y-81337879D01*
X107262158Y-81291386D01*
X107314500Y-81280000D01*
X162560000Y-81280000D01*
X162560000Y-64261000D01*
X162580002Y-64192879D01*
X162633658Y-64146386D01*
X162686000Y-64135000D01*
X197485500Y-64135000D01*
X197553621Y-64155002D01*
G37*
G04 #@! TD.AperFunction*
M02*
