%TF.GenerationSoftware,KiCad,Pcbnew,(6.0.9)*%
%TF.CreationDate,2022-12-10T11:36:43+01:00*%
%TF.ProjectId,IoT12 Power Supply,496f5431-3220-4506-9f77-657220537570,V1.2*%
%TF.SameCoordinates,Original*%
%TF.FileFunction,Drillmap*%
%TF.FilePolarity,Positive*%
%FSLAX45Y45*%
G04 Gerber Fmt 4.5, Leading zero omitted, Abs format (unit mm)*
G04 Created by KiCad (PCBNEW (6.0.9)) date 2022-12-10 11:36:43*
%MOMM*%
%LPD*%
G01*
G04 APERTURE LIST*
%ADD10C,0.050000*%
%ADD11C,0.200000*%
G04 APERTURE END LIST*
D10*
X10668000Y-13970000D02*
X10668000Y-5842000D01*
X10668000Y-13970000D02*
G75*
G03*
X11176000Y-14478000I508000J0D01*
G01*
X11176000Y-5334000D02*
G75*
G03*
X10668000Y-5842000I0J-508000D01*
G01*
X19304000Y-14478000D02*
G75*
G03*
X19812000Y-13970000I0J508000D01*
G01*
X19812000Y-5842000D02*
X19812000Y-13970000D01*
X19812000Y-5842000D02*
G75*
G03*
X19304000Y-5334000I-508000J0D01*
G01*
X11176000Y-5334000D02*
X19304000Y-5334000D01*
X19304000Y-14478000D02*
X11176000Y-14478000D01*
D11*
X10923119Y-14790976D02*
X10923119Y-14590976D01*
X10970738Y-14590976D01*
X10999310Y-14600500D01*
X11018357Y-14619548D01*
X11027881Y-14638595D01*
X11037405Y-14676690D01*
X11037405Y-14705262D01*
X11027881Y-14743357D01*
X11018357Y-14762405D01*
X10999310Y-14781452D01*
X10970738Y-14790976D01*
X10923119Y-14790976D01*
X11123119Y-14790976D02*
X11123119Y-14657643D01*
X11123119Y-14695738D02*
X11132643Y-14676690D01*
X11142167Y-14667167D01*
X11161214Y-14657643D01*
X11180262Y-14657643D01*
X11246928Y-14790976D02*
X11246928Y-14657643D01*
X11246928Y-14590976D02*
X11237405Y-14600500D01*
X11246928Y-14610024D01*
X11256452Y-14600500D01*
X11246928Y-14590976D01*
X11246928Y-14610024D01*
X11370738Y-14790976D02*
X11351690Y-14781452D01*
X11342167Y-14762405D01*
X11342167Y-14590976D01*
X11475500Y-14790976D02*
X11456452Y-14781452D01*
X11446928Y-14762405D01*
X11446928Y-14590976D01*
X11704071Y-14790976D02*
X11704071Y-14590976D01*
X11770738Y-14733833D01*
X11837405Y-14590976D01*
X11837405Y-14790976D01*
X12018357Y-14790976D02*
X12018357Y-14686214D01*
X12008833Y-14667167D01*
X11989786Y-14657643D01*
X11951690Y-14657643D01*
X11932643Y-14667167D01*
X12018357Y-14781452D02*
X11999309Y-14790976D01*
X11951690Y-14790976D01*
X11932643Y-14781452D01*
X11923119Y-14762405D01*
X11923119Y-14743357D01*
X11932643Y-14724309D01*
X11951690Y-14714786D01*
X11999309Y-14714786D01*
X12018357Y-14705262D01*
X12113595Y-14657643D02*
X12113595Y-14857643D01*
X12113595Y-14667167D02*
X12132643Y-14657643D01*
X12170738Y-14657643D01*
X12189786Y-14667167D01*
X12199309Y-14676690D01*
X12208833Y-14695738D01*
X12208833Y-14752881D01*
X12199309Y-14771928D01*
X12189786Y-14781452D01*
X12170738Y-14790976D01*
X12132643Y-14790976D01*
X12113595Y-14781452D01*
X12294548Y-14771928D02*
X12304071Y-14781452D01*
X12294548Y-14790976D01*
X12285024Y-14781452D01*
X12294548Y-14771928D01*
X12294548Y-14790976D01*
X12294548Y-14667167D02*
X12304071Y-14676690D01*
X12294548Y-14686214D01*
X12285024Y-14676690D01*
X12294548Y-14667167D01*
X12294548Y-14686214D01*
M02*
