M48
; DRILL file {KiCad (6.0.9)} date Sat Dec 10 11:16:05 2022
; FORMAT={-:-/ absolute / metric / decimal}
; #@! TF.CreationDate,2022-12-10T11:16:05+01:00
; #@! TF.GenerationSoftware,Kicad,Pcbnew,(6.0.9)
; #@! TF.FileFunction,Plated,1,2,PTH
FMAT,2
METRIC
; #@! TA.AperFunction,Plated,PTH,ViaDrill
T1C0.400
; #@! TA.AperFunction,Plated,PTH,ComponentDrill
T2C0.500
; #@! TA.AperFunction,Plated,PTH,ComponentDrill
T3C0.600
; #@! TA.AperFunction,Plated,PTH,ViaDrill
T4C0.800
; #@! TA.AperFunction,Plated,PTH,ComponentDrill
T5C0.800
; #@! TA.AperFunction,Plated,PTH,ComponentDrill
T6C0.950
; #@! TA.AperFunction,Plated,PTH,ComponentDrill
T7C1.000
; #@! TA.AperFunction,Plated,PTH,ComponentDrill
T8C1.200
; #@! TA.AperFunction,Plated,PTH,ComponentDrill
T9C1.300
; #@! TA.AperFunction,Plated,PTH,ComponentDrill
T10C1.520
; #@! TA.AperFunction,Plated,PTH,ComponentDrill
T11C2.200
; #@! TA.AperFunction,Plated,PTH,ComponentDrill
T12C3.200
%
G90
G05
T1
X140.97Y-127.0
X151.13Y-125.73
X153.797Y-130.175
X161.925Y-125.73
X163.83Y-127.0
T2
X109.36Y-58.42
X109.36Y-139.7
X110.063Y-56.723
X110.063Y-60.117
X110.063Y-138.003
X110.063Y-141.397
X111.76Y-56.02
X111.76Y-60.82
X111.76Y-137.3
X111.76Y-142.1
X113.457Y-56.723
X113.457Y-60.117
X113.457Y-138.003
X113.457Y-141.397
X114.16Y-58.42
X114.16Y-139.7
X190.64Y-58.42
X190.64Y-139.7
X191.343Y-56.723
X191.343Y-60.117
X191.343Y-138.003
X191.343Y-141.397
X193.04Y-56.02
X193.04Y-60.82
X193.04Y-137.3
X193.04Y-142.1
X194.737Y-56.723
X194.737Y-60.117
X194.737Y-138.003
X194.737Y-141.397
X195.44Y-58.42
X195.44Y-139.7
T3
X189.27Y-125.08
X194.27Y-126.38
T4
X117.475Y-115.57
X117.475Y-130.175
X117.475Y-135.255
X120.65Y-142.875
X125.095Y-119.38
X125.095Y-123.19
X129.54Y-131.445
X129.54Y-140.335
X132.08Y-118.745
X132.715Y-125.095
X141.605Y-120.65
X149.225Y-128.905
X167.005Y-134.62
X177.8Y-130.81
X188.595Y-142.875
X191.135Y-123.19
X195.58Y-133.985
T5
X143.86Y-57.36
X151.36Y-59.36
T6
X153.75Y-132.08
X156.25Y-132.08
X158.75Y-132.08
X161.25Y-132.08
X189.27Y-120.05
X194.27Y-121.25
T7
X140.97Y-132.08
X143.47Y-132.08
T8
X114.198Y-69.164
X114.198Y-75.914
T9
X171.8Y-124.182
X171.8Y-136.382
X177.8Y-122.182
X183.8Y-124.182
X183.8Y-136.382
T10
X121.92Y-58.42
X127.0Y-58.42
X132.08Y-58.42
T11
X190.198Y-104.914
X190.198Y-110.414
T12
X111.76Y-58.42
X111.76Y-139.7
X193.04Y-58.42
X193.04Y-139.7
T0
M30
